<?xml version="1.0" encoding="utf-8"?>
<!-- Generator: Adobe Illustrator 22.1.0, SVG Export Plug-In . SVG Version: 6.00 Build 0)  -->
<svg version="1.1" id="Layer_1" xmlns="http://www.w3.org/2000/svg" xmlns:xlink="http://www.w3.org/1999/xlink" x="0px" y="0px"
	 viewBox="0 0 750 277.6" style="enable-background:new 0 0 750 277.6;" xml:space="preserve">
<style type="text/css">
	.st0{opacity:0.35;fill:#E0E0E0;enable-background:new    ;}
</style>
<polygon class="st0" points="726.5,250.5 726.5,172.1 722.8,171.6 707.5,171.6 705,171.9 704.9,172.2 704.9,173.2 704.7,173.3 
	704.6,173.5 704.8,218.2 697.4,218.3 693.9,218.3 693.9,236.2 689.2,236.2 689.6,144.9 689.3,144.7 688.8,144.4 687.9,144.2 
	686.7,144 685.4,143.9 684,143.9 653.7,143.9 652.4,143.9 651.1,144 650.1,144.2 649.4,144.4 649.1,144.7 648,216 638.2,215.2 
	638.2,214.6 634.7,214.6 634.7,214.5 634.2,214.5 633.4,214.5 632.2,214.5 630.9,214.6 630.5,214.6 629.3,214.5 629,182.5 
	628.5,182.5 628.5,178.5 627.7,178.5 623.9,178.5 623.7,150.9 623.6,146.6 623.6,145.6 622.7,145.5 600.1,145.7 599.1,145.8 
	599.1,146.7 599.1,151 599.2,178.1 598.7,178.1 594.4,178 589.3,178 587.7,178 587.9,159.5 584.3,159.2 550.2,159.3 550.4,113.6 
	550.1,113 550.1,111.9 550.1,110.4 550.1,108.7 546.8,103.6 545.8,103.4 521.6,103.8 519.6,104.6 518.8,105.5 518.8,107.3 
	518.8,108.9 518.8,110.1 518.4,110.6 518.4,111.9 517.4,199.7 512.7,192.4 512.6,176.4 511.9,167 511.7,145.7 510.4,145.5 
	510.4,145.5 510.4,144.4 509,144.2 508.8,144.2 508.8,143.1 507.4,142.9 507.3,142.9 507.3,141.9 505.8,141.7 505.7,141.7 
	505.7,140.5 504.3,140.3 498.7,140.3 497.2,140.5 497.2,141.7 497.2,141.7 495.7,141.9 495.7,142.9 495.7,142.9 494.2,143.1 
	494.2,144.2 494.2,144.2 492.7,144.4 492.7,145.5 492.5,145.5 491.2,145.7 491.2,167.1 490.6,176.4 490.6,198.6 488.9,202.8 
	488,202.8 488,203 486.2,203 486.2,203.2 484.1,203.2 484.1,203.4 482.7,203.4 482.6,146.6 482.6,126.9 468.9,124.6 468.5,128.5 
	468.7,178.5 461.5,178.6 461.5,177 461.6,177 461.5,173.5 461.8,173.5 462.1,173.4 462.5,173.4 462.7,173.4 462.9,173.3 463,173.3 
	462.7,151.2 462.7,151.2 462.6,151.1 462.5,151.1 462.3,151 462,151 461.7,150.9 461.3,150.9 461.2,150.9 461.1,150.9 461,150.9 
	450.1,133.7 438.8,133.7 428.2,151.1 428.1,151.1 428.1,151.1 428,151.1 427.7,151.1 427.3,151.1 427,151.2 426.8,151.2 
	426.6,151.3 426.6,151.3 426.5,173.4 426.6,173.4 426.7,173.5 427,173.5 427.3,173.6 427.6,173.6 427.9,173.6 427.8,177.1 
	427.9,177.2 428,177.2 427.9,217.5 425.3,217.6 425.3,236.2 423.3,236.2 423.3,230.6 422.4,230.6 422.4,200 423.3,200 423.3,162.8 
	421.5,162.5 421.5,149.9 419.4,149.5 419.2,149.4 419,149.3 418.8,149.3 418.5,149.2 418.2,149.1 417.9,149 417.5,149 417,148.9 
	416.6,148.9 416.1,148.8 415.6,148.8 415.1,148.8 412.9,148.4 410.7,148.7 410.2,148.8 409.7,148.8 409.2,148.8 408.8,148.9 
	408.3,149 408,149 407.6,149.1 407.3,149.2 407,149.2 406.8,149.3 406.6,149.4 406.5,149.5 404.4,149.9 404.4,162.5 402.6,162.7 
	402.5,200 403.4,200 403.4,230.5 399.2,230.5 399.3,205.5 389.3,205.3 387.9,205.4 387.9,206.8 387.8,206.8 385.2,206.7 
	383.3,206.8 383.3,201 382,201 382,193.8 380.3,193.7 380.1,193.7 380,193.7 379.8,193.7 379.5,193.7 379.3,193.7 379,193.7 
	378.7,193.7 378.3,193.7 378,193.7 377.6,193.7 377.2,193.7 376.8,193.7 375,193.6 373.7,193.7 373.7,189.9 371.2,189.7 368,189.9 
	368,196.3 368,196.3 366.8,196.3 366.8,202.9 365.6,202.9 365.6,205.8 365.2,205.8 364.7,205.8 364.2,205.8 364.1,205.8 
	364.1,203.2 362.1,203.2 362.1,200.7 361.7,200.7 359.5,200.8 359.5,188.9 349.3,189.4 349.3,203.2 348.3,203.2 348.3,236.2 
	348.2,236.2 348.2,221.5 343.5,221.5 343.4,203.8 341.1,194.1 341,162.1 339.8,159.4 339.7,129.9 338.6,128 337.6,127.9 
	337.6,126.7 337.6,126.5 336.9,126.4 336.9,125.2 336.9,124.9 335.8,124.8 335.8,122.8 335.8,122.6 334.8,122.4 324.7,122.5 
	323.7,122.6 323.7,122.8 323.7,124.8 322.6,125 322.6,125.2 322.6,126.4 322,126.5 322,126.7 321.9,127.9 320.9,128.1 319.9,129.9 
	319.8,159.4 318.6,162.1 318.5,189.6 318.3,189.6 318.3,189.6 318.3,189 318,189 315,189 314.7,189 314.6,189.2 314.6,189.6 
	314.2,189.6 314.1,189.8 314.1,190.1 313.8,190.1 313.6,190.3 313.6,190.6 313.2,190.6 313.1,190.9 313.1,191.4 312.7,191.4 
	312.6,191.7 312.6,206.8 312.4,208.4 312.2,165.4 312.2,162.8 312.1,156.5 312,156.5 312,154.2 312,149.5 302.7,149.5 302.5,149 
	301.3,149 301.3,149.5 293.2,149.5 292.7,148.9 291.5,148.9 291.5,149.4 282.7,149.4 282.8,154.1 282.8,156.5 282,156.5 
	282.1,162.8 282.2,165.4 282.6,196.2 271.6,196.1 271,196.2 271,198.4 270.8,198.4 264.3,199.2 264.3,205.5 259.9,204.9 256.5,205 
	256.4,191 256.4,190.9 256.4,160.7 253.8,157.7 253.7,157.7 253.7,155.2 253.4,154.8 223.3,155.5 223.3,212.5 220.1,212.5 
	220.1,213.4 215.6,211.4 215.4,114.5 214.4,113.8 212.2,113.1 208.7,112.6 204.3,112.2 199.3,112 196.9,112 196.9,103.8 195.8,97 
	190.6,97.2 185.9,97.6 182,98.2 179.1,98.9 177.5,99.8 177.2,100.7 177.2,114.9 177,225.8 176,225.8 174.8,226 174.6,206.1 
	174.1,202.4 173.6,199 172.9,196.6 172.2,194.9 171.5,193.7 166.9,193.4 164.9,193.5 164.2,194.6 163.5,196.3 162.9,198.8 
	162.4,201.7 162.2,168.2 162.2,165.8 162.1,165.6 162.1,165.2 162,162.9 161.7,160.3 161.4,157.6 161,155 160.5,152.3 159.9,149.7 
	159.2,147.1 158.5,144.6 157.6,142 156.7,139.4 155.9,137.5 156,137.3 156.2,136.7 156.3,136.4 156.4,136.3 156.4,136.2 
	155.7,136.2 155.7,135.6 155.6,134.9 155.5,134.2 155.4,133.5 155.3,132.8 155.2,132.1 155,131.4 154.9,130.7 154.7,130 
	154.6,129.3 154.4,128.7 154.2,128 133.1,127.9 132.9,128.6 132.7,129.3 132.5,130 132.3,130.6 132.2,131.3 132.1,132 131.9,132.7 
	131.8,133.4 131.7,134.1 131.7,134.8 131.6,135.5 131.5,136.1 130.9,136.1 131,138.1 130.5,139.4 130.1,140.6 129.6,141.9 
	129.2,143.2 128.8,144.5 128.4,145.8 128,147.1 127.7,148.4 127.3,149.7 127,151 126.7,152.3 126.2,154.9 125.8,157.5 125.5,160.2 
	125.2,162.8 125.1,165.5 125,166.2 125,168.2 124.8,199.3 118.6,199.1 119,115.8 119.1,105.2 75.1,104.8 75.1,106.1 75.2,116.6 
	75.9,198.7 74.5,198.7 74.5,194.3 74.4,194.3 74.4,194.3 74.3,194.2 74.2,194.2 71.9,194.2 71.9,190.1 71.9,190 71.8,190 
	71.7,189.9 71.6,189.9 71.3,189.8 68.9,189.8 68.9,186.6 68.9,186.5 68.9,186.4 68.7,186.3 68.6,186.2 68.4,186.1 59.5,185.6 
	59.5,185.3 59.5,185.3 59.5,185.3 59.5,185.1 59.5,185 59.5,184.7 59.5,184.4 59.5,184.1 59.5,183.7 59.5,183.4 59.5,183.1 
	59.5,182.9 59.5,182.7 59.5,182.6 59.2,182.6 59,181.4 52.5,181.4 52.6,185.6 43.9,186 43.8,186.1 43.8,186.2 43.9,189.7 
	41.1,189.8 41.1,189.9 41,189.9 41,190 41.1,194.2 38.5,194.2 38.3,194.2 38.3,194.2 38.2,194.3 38.2,194.3 38.3,198.7 36.4,198.7 
	36.1,198.7 35.9,198.7 35.8,198.7 35.7,198.7 35.6,198.7 35.6,198.7 35.6,198.7 35.7,203.7 33.3,203.8 33.9,229.4 30.7,229.9 
	30.8,236.2 23.5,236.2 23.5,252.4 726.5,252.4 "/>
</svg>
