<?xml version="1.0" encoding="utf-8"?>
<!-- Generator: Adobe Illustrator 22.1.0, SVG Export Plug-In . SVG Version: 6.00 Build 0)  -->
<svg version="1.1" id="Layer_1" xmlns="http://www.w3.org/2000/svg" xmlns:xlink="http://www.w3.org/1999/xlink" x="0px" y="0px"
	 viewBox="0 0 750 227.6" style="enable-background:new 0 0 750 227.6;" xml:space="preserve">
<style type="text/css">
	.st0{opacity:0.35;fill:#E0E0E0;enable-background:new    ;}
	.st1{fill:none;stroke:#DFDFDF;stroke-width:21.6941;stroke-linecap:round;stroke-miterlimit:10;}
	.st2{fill:none;stroke:#6B6B6B;stroke-width:16.2706;stroke-linecap:round;stroke-miterlimit:10;}
	.st3{fill:none;stroke:#DFDFDF;stroke-width:2.7118;stroke-miterlimit:10;stroke-dasharray:12.203,6.1015;}
	.st4{fill:#DFDFDF;}
	.st5{fill:#662483;}
	.st6{fill:#E6302E;}
	.st7{fill:#3B3B3B;}
	.st8{fill:#7E7E7C;}
	.st9{fill:#FFFFFF;stroke:#3C3C3C;stroke-width:2.3157;stroke-miterlimit:10;}
	.st10{fill:#FFFFFF;stroke:#3C3C3C;stroke-width:2.0848;stroke-miterlimit:10;}
	.st11{fill:#FFFFFF;stroke:#3C3C3C;stroke-width:1.4742;stroke-miterlimit:10;}
	.st12{fill:#FFFFFF;stroke:#3C3C3C;stroke-width:1.8823;stroke-miterlimit:10;}
	.st13{opacity:0.1;fill:#848484;enable-background:new    ;}
	.st14{fill:#FFFFFF;stroke:#3C3C3C;stroke-width:1.7693;stroke-miterlimit:10;}
	.st15{fill:#CCB061;}
	.st16{fill:#AD210A;}
	.st17{fill:#DAEBFE;}
	.st18{fill:#FFFFFF;stroke:#3B3B3B;stroke-width:3.3201;stroke-miterlimit:10;}
	.st19{fill:#3C3C3C;}
	.st20{fill:#D83058;}
	.st21{fill:#C9C9C9;}
	.st22{fill:#9E9E9D;}
	.st23{fill:#30302E;}
	.st24{fill:#9E9E9E;}
	.st25{opacity:0.2;fill:#9E9E9E;enable-background:new    ;}
	.st26{fill:#FFFFFF;}
	.st27{fill:#040404;}
	.st28{fill:#F23843;}
</style>
<polygon class="st0" points="673,175.8 673,97.4 669.9,96.9 657.3,96.9 655.2,97.2 655.1,97.5 655.1,98.5 655,98.6 654.9,98.8 
	655,143.5 648.9,143.6 646,143.6 646,161.5 642.1,161.5 642.5,70.2 642.2,70 641.8,69.8 641,69.5 640,69.3 639,69.2 637.8,69.2 
	612.7,69.2 611.7,69.2 610.6,69.3 609.7,69.5 609.2,69.8 608.9,70 608,141.3 599.9,140.5 599.9,139.9 597,139.9 597,139.8 
	596.6,139.8 595.9,139.8 594.9,139.8 593.9,139.9 593.5,139.9 592.5,139.8 592.3,107.8 591.9,107.8 591.9,103.8 591.2,103.8 
	588.1,103.8 587.9,76.2 587.8,71.9 587.8,70.9 587.1,70.8 568.4,71 567.5,71.1 567.5,72 567.5,76.3 567.6,103.4 567.2,103.4 
	563.6,103.3 559.4,103.3 558.1,103.3 558.3,84.8 555.3,84.5 527,84.6 527.2,38.9 527,38.3 527,37.2 527,35.8 527,34 524.2,28.9 
	523.4,28.7 503.4,29.1 501.7,29.9 501,30.8 501,32.6 501,34.2 501,35.4 500.7,35.9 500.7,37.2 499.9,125 496,117.8 495.9,101.8 
	495.3,92.3 495.2,71 494.1,70.8 494.1,70.8 494.1,69.8 492.9,69.5 492.8,69.5 492.8,68.4 491.6,68.2 491.5,68.2 491.5,67.2 
	490.3,67 490.2,67 490.2,65.8 489,65.6 484.4,65.6 483.2,65.8 483.2,67 483.2,67 481.9,67.2 481.9,68.2 481.9,68.2 480.7,68.4 
	480.7,69.5 480.7,69.5 479.4,69.8 479.4,70.8 479.3,70.8 478.2,71 478.2,92.4 477.7,101.8 477.7,123.9 476.3,128.1 475.5,128.1 
	475.5,128.3 474.1,128.3 474.1,128.5 472.3,128.5 472.3,128.8 471.2,128.8 471.1,71.9 471.1,52.2 459.7,49.9 459.4,53.8 
	459.6,103.8 453.6,103.9 453.6,102.3 453.7,102.3 453.6,98.8 453.9,98.8 454.1,98.8 454.4,98.8 454.6,98.8 454.8,98.6 454.8,98.6 
	454.6,76.5 454.6,76.5 454.5,76.4 454.4,76.4 454.3,76.3 454,76.3 453.8,76.2 453.4,76.2 453.4,76.2 453.3,76.2 453.2,76.2 
	444.2,59 434.8,59 426,76.4 426,76.4 426,76.4 425.9,76.4 425.6,76.4 425.3,76.4 425,76.5 424.9,76.5 424.7,76.6 424.7,76.6 
	424.6,98.8 424.7,98.8 424.8,98.8 425,98.8 425.3,98.9 425.5,98.9 425.8,98.9 425.7,102.4 425.8,102.5 425.9,102.5 425.8,142.8 
	423.6,142.9 423.6,161.5 422,161.5 422,155.9 421.2,155.9 421.2,125.3 422,125.3 422,88.1 420.5,87.8 420.5,75.2 418.7,74.8 
	418.6,74.8 418.4,74.6 418.3,74.6 418,74.5 417.8,74.4 417.5,74.3 417.2,74.3 416.8,74.2 416.4,74.2 416,74.1 415.6,74.1 
	415.2,74.1 413.4,73.8 411.5,74 411.1,74.1 410.7,74.1 410.3,74.1 410,74.2 409.6,74.3 409.3,74.3 409,74.4 408.7,74.5 408.5,74.5 
	408.3,74.6 408.2,74.8 408.1,74.8 406.3,75.2 406.3,87.8 404.8,88 404.8,125.3 405.5,125.3 405.5,155.8 402,155.8 402.1,130.8 
	393.8,130.6 392.7,130.8 392.7,132.1 392.6,132.1 390.4,132 388.9,132.1 388.9,126.3 387.8,126.3 387.8,119.1 386.4,119 386.2,119 
	386.1,119 386,119 385.7,119 385.6,119 385.3,119 385.1,119 384.7,119 384.5,119 384.1,119 383.8,119 383.5,119 382,118.9 
	380.9,119 380.9,115.2 378.8,115 376.2,115.2 376.2,121.6 376.2,121.6 375.2,121.6 375.2,128.2 374.2,128.2 374.2,131.1 
	373.9,131.1 373.5,131.1 373,131.1 373,131.1 373,128.5 371.3,128.5 371.3,126 371,126 369.2,126.1 369.2,114.2 360.7,114.8 
	360.7,128.5 359.9,128.5 359.9,161.5 359.8,161.5 359.8,146.8 355.9,146.8 355.8,129.1 353.9,119.4 353.8,87.4 352.8,84.8 
	352.8,55.2 351.9,53.3 351,53.2 351,52 351,51.8 350.4,51.8 350.4,50.5 350.4,50.2 349.5,50.1 349.5,48.1 349.5,47.9 348.7,47.8 
	340.3,47.8 339.5,47.9 339.5,48.1 339.5,50.1 338.6,50.3 338.6,50.5 338.6,51.8 338.1,51.8 338.1,52 338,53.2 337.2,53.4 
	336.4,55.2 336.3,84.8 335.3,87.4 335.2,114.9 335,114.9 335,114.9 335,114.3 334.8,114.3 332.3,114.3 332.1,114.3 332,114.5 
	332,114.9 331.7,114.9 331.6,115.1 331.6,115.4 331.3,115.4 331.2,115.6 331.2,115.9 330.8,115.9 330.7,116.2 330.7,116.8 
	330.4,116.8 330.3,117 330.3,132.1 330.2,133.8 330,90.8 330,88.1 329.9,81.8 329.8,81.8 329.8,79.5 329.8,74.8 322.1,74.8 
	322,74.3 321,74.3 321,74.8 314.3,74.8 313.9,74.2 312.9,74.2 312.9,74.8 305.6,74.8 305.7,79.4 305.7,81.8 305,81.8 305.1,88.1 
	305.2,90.8 305.5,121.5 296.4,121.4 295.9,121.5 295.9,123.8 295.7,123.8 290.3,124.5 290.3,130.8 286.7,130.2 283.9,130.3 
	283.8,116.3 283.8,116.2 283.8,86 281.6,83 281.6,83 281.6,80.5 281.3,80.1 256.4,80.8 256.4,137.8 253.7,137.8 253.7,138.8 
	250,136.8 249.9,39.8 249,39.1 247.2,38.4 244.3,37.9 240.7,37.5 236.5,37.3 234.5,37.3 234.5,29.1 233.6,22.3 229.3,22.5 
	225.4,22.9 222.2,23.5 219.8,24.2 218.5,25.1 218.2,26 218.2,40.2 218.1,151.1 217.2,151.1 216.2,151.3 216.1,131.4 215.7,127.8 
	215.2,124.3 214.7,121.9 214.1,120.2 213.5,119 209.7,118.8 208,118.8 207.5,119.9 206.9,121.6 206.4,124.1 206,127 205.8,93.5 
	205.8,91.1 205.7,90.9 205.7,90.5 205.6,88.2 205.4,85.6 205.1,82.9 204.8,80.3 204.4,77.6 203.9,75 203.3,72.4 202.7,69.9 
	202,67.3 201.3,64.8 200.6,62.8 200.7,62.6 200.8,62 200.9,61.8 201,61.6 201,61.5 200.4,61.5 200.4,60.9 200.3,60.2 200.3,59.5 
	200.2,58.8 200.1,58.1 200,57.4 199.9,56.8 199.8,56 199.6,55.3 199.5,54.6 199.4,54 199.2,53.3 181.7,53.2 181.6,53.9 181.4,54.6 
	181.2,55.3 181.1,55.9 181,56.6 180.9,57.3 180.7,58 180.6,58.8 180.6,59.4 180.6,60.1 180.5,60.8 180.4,61.4 179.9,61.4 180,63.4 
	179.6,64.8 179.2,65.9 178.8,67.2 178.5,68.5 178.2,69.8 177.8,71.1 177.5,72.4 177.2,73.8 176.9,75 176.7,76.3 176.4,77.6 
	176,80.2 175.7,82.8 175.4,85.5 175.2,88.1 175.1,90.8 175,91.5 175,93.5 174.8,124.6 169.7,124.4 170,41.1 170.1,30.5 133.7,30.1 
	133.7,31.4 133.8,41.9 134.4,124 133.2,124 133.2,119.6 133.1,119.6 133.1,119.6 133,119.5 133,119.5 131.1,119.5 131.1,115.4 
	131.1,115.3 131,115.3 130.9,115.2 130.8,115.2 130.6,115.1 128.6,115.1 128.6,111.9 128.6,111.8 128.6,111.8 128.4,111.6 
	128.3,111.5 128.2,111.4 120.8,110.9 120.8,110.6 120.8,110.6 120.8,110.6 120.8,110.4 120.8,110.3 120.8,110 120.8,109.8 
	120.8,109.4 120.8,109 120.8,108.8 120.8,108.4 120.8,108.2 120.8,108 120.8,107.9 120.5,107.9 120.4,106.8 115,106.8 115.1,110.9 
	107.9,111.3 107.8,111.4 107.8,111.5 107.9,115 105.6,115.1 105.6,115.2 105.5,115.2 105.5,115.3 105.6,119.5 103.4,119.5 
	103.2,119.5 103.2,119.5 103.2,119.6 103.2,119.6 103.2,124 101.7,124 101.4,124 101.2,124 101.2,124 101.1,124 101,124 101,124 
	101,124 101.1,129 99.1,129.1 99.6,154.8 96.9,155.2 97,161.5 91,161.5 91,177.8 673,177.8 "/>
<g>
	<line class="st1" x1="90" y1="188.6" x2="666.9" y2="188.6"/>
	<line class="st2" x1="91" y1="188.6" x2="667.8" y2="188.6"/>
	<line class="st3" x1="96" y1="188.7" x2="666.2" y2="188.7"/>
</g>
<g id="bus">
	<g>
		<path class="st4" d="M517.6,175.9h-302c-4.3,0-7.8-3.6-7.8-7.8V39.9c0-4.3,3.6-7.8,7.8-7.8h302c4.3,0,7.8,3.6,7.8,7.8v128.2
			C525.4,172.5,521.9,175.9,517.6,175.9z"/>
		<path class="st5" d="M518.7,90.6L207.9,171c0,2.9,3.1,5.2,6.9,5.2h303.7c3.8,0,6.9-2.4,6.9-5.2V95.8
			C525.7,92.9,522.6,90.6,518.7,90.6z"/>
		<path class="st6" d="M208.2,39c0-3.8,3.1-6.9,6.9-6.9h303.7c3.8,0,6.9,3.1,6.9,6.9v78.9"/>
		<g>
			<path class="st7" d="M516.3,157.4h-26.6c-0.5,0-0.9-0.4-0.9-0.9v-0.2c0-0.5,0.4-0.9,0.9-0.9h26.5c0.5,0,0.9,0.4,0.9,0.9v0.2
				C517.2,157,516.9,157.4,516.3,157.4z"/>
			<path class="st7" d="M516.3,161.7h-26.6c-0.5,0-0.9-0.4-0.9-0.9v-0.2c0-0.5,0.4-0.9,0.9-0.9h26.5c0.5,0,0.9,0.4,0.9,0.9v0.2
				C517.2,161.4,516.9,161.7,516.3,161.7z"/>
			<path class="st7" d="M516.3,148.6h-26.6c-0.5,0-0.9-0.4-0.9-0.9v-0.2c0-0.5,0.4-0.9,0.9-0.9h26.5c0.5,0,0.9,0.4,0.9,0.9v0.2
				C517.2,148.3,516.9,148.6,516.3,148.6z"/>
			<path class="st7" d="M516.3,153.1h-26.6c-0.5,0-0.9-0.4-0.9-0.9v-0.2c0-0.5,0.4-0.9,0.9-0.9h26.5c0.5,0,0.9,0.4,0.9,0.9v0.2
				C517.2,152.6,516.9,153.1,516.3,153.1z"/>
			<path class="st7" d="M516.3,166.2h-26.6c-0.5,0-0.9-0.4-0.9-0.9V165c0-0.5,0.4-0.9,0.9-0.9h26.5c0.5,0,0.9,0.4,0.9,0.9v0.2
				C517.2,165.7,516.9,166.2,516.3,166.2z"/>
			<path class="st7" d="M516.3,170.5h-26.6c-0.5,0-0.9-0.4-0.9-0.9v-0.2c0-0.5,0.4-0.9,0.9-0.9h26.5c0.5,0,0.9,0.4,0.9,0.9v0.2
				C517.2,170.1,516.9,170.5,516.3,170.5z"/>
		</g>
		<g>
			<g>
				<rect x="278" y="131.7" class="st7" width="73.6" height="10.3"/>
				<rect x="237" y="104.6" class="st7" width="235.6" height="26.7"/>
				<rect x="237" y="104.6" class="st7" width="41.1" height="70.4"/>
				<rect x="351.6" y="104.6" class="st7" width="41.1" height="70.4"/>
				<rect x="257.5" y="104.6" class="st7" width="20.5" height="70.4"/>
				<rect x="372.1" y="104.6" class="st7" width="20.5" height="70.1"/>
				<polygon class="st7" points="257.5,175.2 237,175.2 257.5,104.6 				"/>
				<polygon class="st7" points="278,174.3 257.5,174.3 278,104 				"/>
				<polygon class="st7" points="351.6,129.7 278,129.7 351.6,103.8 				"/>
				<rect x="392.7" y="104.8" class="st7" width="54.5" height="26.7"/>
				<polygon class="st7" points="447.2,131 392.7,131 447.2,105.1 				"/>
				<polygon class="st7" points="472.5,131.7 447.2,131.7 472.5,105.9 				"/>
			</g>
			<g>
				<rect x="278" y="131.7" class="st8" width="73.6" height="10.3"/>
				<rect x="237" y="104.6" class="st9" width="235.6" height="26.7"/>
				<rect x="237" y="104.6" class="st10" width="41.1" height="70.4"/>
				<rect x="351.6" y="104.6" class="st10" width="41.1" height="70.4"/>
				<rect x="257.5" y="104.6" class="st11" width="20.5" height="70.4"/>
				<rect x="372.1" y="104.6" class="st12" width="20.5" height="70.1"/>
				<polygon class="st13" points="257.5,175.2 237,175.2 257.5,104.6 				"/>
				<polygon class="st13" points="278,174.3 257.5,174.3 278,104 				"/>
				<polygon class="st13" points="351.6,129.7 278,129.7 351.6,103.8 				"/>
				<rect x="392.7" y="104.8" class="st14" width="54.5" height="26.7"/>
				<polygon class="st13" points="447.2,131 392.7,131 447.2,105.1 				"/>
				<polygon class="st13" points="472.5,131.7 447.2,131.7 472.5,105.9 				"/>
			</g>
		</g>
		<g>
			<circle class="st15" cx="524.8" cy="153.1" r="3.8"/>
			<circle class="st16" cx="524.7" cy="142.9" r="3.8"/>
			<circle class="st16" cx="524.7" cy="163.2" r="3.8"/>
		</g>
		<rect x="214.7" y="103.5" class="st17" width="21.2" height="49.7"/>
		<g>
			<path class="st18" d="M503,93.1h-280c-3.5,0-6.3-2.5-6.3-5.6V49.9c0-3.1,2.9-5.6,6.3-5.6H503c3.5,0,6.3,2.5,6.3,5.6v37.5
				c0,1.5-0.7,3-1.9,4C506.3,92.5,504.7,93.1,503,93.1z"/>
			<rect x="214.7" y="87.4" class="st19" width="296.3" height="7.2"/>
		</g>
		<rect x="275.9" y="45" class="st7" width="2.8" height="48"/>
		<rect x="335.4" y="43.5" class="st6" width="2.8" height="48"/>
		<rect x="392" y="44.7" class="st7" width="2.8" height="48"/>
		<rect x="449.2" y="43.1" class="st7" width="2.8" height="48"/>
		<g>
			<g>
				<path class="st20" d="M436.7,130.4h-2.2c-0.6,0-1.1-0.5-1.1-1.1v-13c0-0.6,0.5-1.1,1.1-1.1h2.2c0.6,0,1.1,0.5,1.1,1.1v13
					C437.8,129.9,437.3,130.4,436.7,130.4z"/>
				<path class="st20" d="M427.9,129.7v-2.6c0-0.5,0.4-0.9,0.9-0.9h8.1c0.5,0,0.9,0.4,0.9,0.9v2.6c0,0.5-0.4,0.9-0.9,0.9h-8.1
					C428.3,130.4,427.9,130.2,427.9,129.7z"/>
			</g>
			<rect x="436.2" y="110.1" class="st21" width="4.7" height="20.4"/>
		</g>
		<rect x="238.1" y="168.9" class="st22" width="18.7" height="5.2"/>
		<g>
			<g>
				<path class="st20" d="M406.3,130.5h2.2c0.6,0,1.1-0.5,1.1-1.1v-13c0-0.6-0.5-1.1-1.1-1.1h-2.2c-0.6,0-1.1,0.5-1.1,1.1v13
					C405.2,130.1,405.7,130.5,406.3,130.5z"/>
				<path class="st20" d="M415.1,129.7v-2.6c0-0.5-0.4-0.9-0.9-0.9H406c-0.5,0-0.9,0.4-0.9,0.9v2.6c0,0.5,0.4,0.9,0.9,0.9h8.1
					C414.7,130.5,415.1,130.2,415.1,129.7z"/>
			</g>
			<rect x="402" y="110.1" class="st21" width="4.7" height="20.4"/>
		</g>
		<g>
			<g>
				<path class="st20" d="M465.2,130.5H463c-0.6,0-1.1-0.5-1.1-1.1v-13c0-0.6,0.5-1.1,1.1-1.1h2.2c0.6,0,1.1,0.5,1.1,1.1v13
					C466.4,130.1,465.9,130.5,465.2,130.5z"/>
				<path class="st20" d="M456.4,129.7v-2.6c0-0.5,0.4-0.9,0.9-0.9h8.1c0.5,0,0.9,0.4,0.9,0.9v2.6c0,0.5-0.4,0.9-0.9,0.9h-8.1
					C456.8,130.5,456.4,130.2,456.4,129.7z"/>
			</g>
			<rect x="464.8" y="110.1" class="st21" width="4.7" height="20.4"/>
		</g>
		<rect x="258.3" y="168.9" class="st22" width="19" height="5.5"/>
		<rect x="352.6" y="168.5" class="st22" width="18.6" height="5.5"/>
		<rect x="373.1" y="168.5" class="st22" width="18.6" height="5.5"/>
		<g>
			<g>
				<path class="st20" d="M334.2,130.2h-2.2c-0.6,0-1.1-0.5-1.1-1.1v-13c0-0.6,0.5-1.1,1.1-1.1h2.2c0.6,0,1.1,0.5,1.1,1.1v13
					C335.3,129.7,334.8,130.2,334.2,130.2z"/>
				<path class="st20" d="M325.4,129.4v-2.6c0-0.5,0.4-0.9,0.9-0.9h8.1c0.5,0,0.9,0.4,0.9,0.9v2.6c0,0.5-0.4,0.9-0.9,0.9h-8.1
					C325.8,130.2,325.4,129.7,325.4,129.4z"/>
			</g>
			<rect x="333.7" y="109.9" class="st21" width="4.7" height="20.4"/>
		</g>
		<g>
			<g>
				<path class="st20" d="M303.8,130.2h2.2c0.6,0,1.1-0.5,1.1-1.1v-13c0-0.6-0.5-1.1-1.1-1.1h-2.2c-0.6,0-1.1,0.5-1.1,1.1v13
					C302.7,129.7,303.2,130.2,303.8,130.2z"/>
				<path class="st20" d="M312.6,129.4v-2.6c0-0.5-0.4-0.9-0.9-0.9h-8.1c-0.5,0-0.9,0.4-0.9,0.9v2.6c0,0.5,0.4,0.9,0.9,0.9h8.1
					C312.2,130.2,312.6,129.8,312.6,129.4z"/>
			</g>
			<rect x="299.5" y="109.9" class="st21" width="4.7" height="20.4"/>
		</g>
		<g>
			<g>
				<path class="st20" d="M252.5,87h-2.2c-0.6,0-1.1-0.5-1.1-1.1V73c0-0.6,0.5-1.1,1.1-1.1h2.2c0.6,0,1.1,0.5,1.1,1.1v13
					C253.6,86.6,253.1,87,252.5,87z"/>
				<path class="st20" d="M243.7,86.2v-2.6c0-0.5,0.4-0.9,0.9-0.9h8.1c0.5,0,0.9,0.4,0.9,0.9v2.6c0,0.5-0.4,0.9-0.9,0.9h-8.1
					C244,87,243.7,86.6,243.7,86.2z"/>
			</g>
			<rect x="252" y="66.6" class="st21" width="4.7" height="20.4"/>
		</g>
		<g>
			<g>
				<path class="st20" d="M311.6,87h-2.2c-0.6,0-1.1-0.5-1.1-1.1V73c0-0.6,0.5-1.1,1.1-1.1h2.2c0.6,0,1.1,0.5,1.1,1.1v13
					C312.7,86.6,312.3,87,311.6,87z"/>
				<path class="st20" d="M302.8,86.2v-2.6c0-0.5,0.4-0.9,0.9-0.9h8.1c0.5,0,0.9,0.4,0.9,0.9v2.6c0,0.5-0.4,0.9-0.9,0.9h-8.1
					C303.2,87,302.8,86.6,302.8,86.2z"/>
			</g>
			<rect x="311.1" y="66.6" class="st21" width="4.7" height="20.4"/>
		</g>
		<g>
			<g>
				<path class="st20" d="M373.1,87h-2.2c-0.6,0-1.1-0.5-1.1-1.1V73c0-0.6,0.5-1.1,1.1-1.1h2.2c0.6,0,1.1,0.5,1.1,1.1v13
					C374.3,86.6,373.8,87,373.1,87z"/>
				<path class="st20" d="M364.2,86.2v-2.6c0-0.5,0.4-0.9,0.9-0.9h8.1c0.5,0,0.9,0.4,0.9,0.9v2.6c0,0.5-0.4,0.9-0.9,0.9h-8.1
					C364.7,87,364.2,86.6,364.2,86.2z"/>
			</g>
			<rect x="372.7" y="66.6" class="st21" width="4.7" height="20.4"/>
		</g>
		<g>
			<g>
				<path class="st20" d="M424.7,87h-2.2c-0.6,0-1.1-0.5-1.1-1.1V73c0-0.6,0.5-1.1,1.1-1.1h2.2c0.6,0,1.1,0.5,1.1,1.1v13
					C425.8,86.6,425.3,87,424.7,87z"/>
				<path class="st20" d="M415.8,86.2v-2.6c0-0.5,0.4-0.9,0.9-0.9h8.1c0.5,0,0.9,0.4,0.9,0.9v2.6c0,0.5-0.4,0.9-0.9,0.9h-8.1
					C416.2,87,415.8,86.6,415.8,86.2z"/>
			</g>
			<rect x="424.2" y="66.6" class="st21" width="4.7" height="20.4"/>
		</g>
		<g>
			<g>
				<path class="st20" d="M486.7,87h-2.2c-0.6,0-1.1-0.5-1.1-1.1V73c0-0.6,0.5-1.1,1.1-1.1h2.2c0.6,0,1.1,0.5,1.1,1.1v13
					C487.7,86.6,487.2,87,486.7,87z"/>
				<path class="st20" d="M477.8,86.2v-2.6c0-0.5,0.4-0.9,0.9-0.9h8.1c0.5,0,0.9,0.4,0.9,0.9v2.6c0,0.5-0.4,0.9-0.9,0.9h-8.1
					C478.2,87,477.8,86.6,477.8,86.2z"/>
			</g>
			<rect x="486.2" y="66.6" class="st21" width="4.7" height="20.4"/>
		</g>
	</g>
	<g>
		
			<ellipse transform="matrix(8.931078e-02 -0.996 0.996 8.931078e-02 97.9038 458.907)" class="st23" cx="299.9" cy="175.9" rx="15.1" ry="15.1"/>
		<circle class="st24" cx="299.9" cy="175.9" r="9.4"/>
		<path class="st25" d="M315,175.9c0,8.3-6.8,15.1-15.1,15.1c-4.5,0-8.4-2-11.3-5c-2.4-2.7,19.7-23.1,22.4-20.2
			C313.5,168.5,315,172.1,315,175.9z"/>
	</g>
	<g>
		<circle class="st23" cx="441.1" cy="175.9" r="15.1"/>
		<circle class="st24" cx="441.1" cy="175.9" r="9.4"/>
		<path class="st25" d="M456.1,175.9c0,8.3-6.8,15.1-15.1,15.1c-4.5,0-8.4-2-11.3-5c-2.4-2.7,19.7-23.1,22.4-20.2
			C454.7,168.5,456.1,172.1,456.1,175.9z"/>
	</g>
	<g>
		<circle class="st23" cx="474.9" cy="175.2" r="15.1"/>
		
			<ellipse transform="matrix(0.1287 -0.9917 0.9917 0.1287 240.1012 623.6429)" class="st24" cx="474.9" cy="175.2" rx="9.4" ry="9.4"/>
		<path class="st25" d="M490.1,175.2c0,8.3-6.8,15.1-15.1,15.1c-4.5,0-8.4-2-11.3-5c-2.4-2.7,19.7-23.1,22.4-20.2
			C488.5,167.9,490.1,171.4,490.1,175.2z"/>
	</g>
</g>
<g>
	<circle class="st23" cx="336" cy="176.3" r="15.1"/>
	<circle class="st24" cx="336" cy="176.3" r="9.4"/>
	<path class="st25" d="M351.1,176.3c0,8.3-6.8,15.1-15.1,15.1c-4.5,0-8.4-2-11.3-5c-2.4-2.7,19.7-23.1,22.4-20.2
		C349.7,168.9,351.1,172.5,351.1,176.3z"/>
</g>
<g>
	<circle class="st26" cx="503.5" cy="115.5" r="13.5"/>
	<g>
		<path class="st27" d="M499.6,110.7c0-0.9,0.7-1.6,1.6-1.6c0.8,0,1.6,0.6,1.7,1.5c0,0.4,0.2,0.6,0.5,0.9c1.1,0.9,2.3,1.8,3.4,2.7
			c0.2,0.2,0.4,0.3,0.7,0.2c0.7-0.2,1.3,0.1,1.7,0.6c0.4,0.5,0.4,1.3,0,1.8c-0.4,0.6-0.9,0.8-1.6,0.8c-0.2,0-0.4,0-0.6,0.1
			c-0.8,0.6-1.6,1.2-2.3,1.9c-0.5,0.4-1,0.4-1.3,0c-0.3-0.4-0.2-0.9,0.3-1.3c0.7-0.6,1.5-1.2,2.2-1.7c0.5-0.4,0.5-0.7,0-1.1
			c-1.2-1-2.4-1.9-3.6-2.9c-0.2-0.1-0.5-0.2-0.7-0.2C500.5,112.5,499.5,111.8,499.6,110.7z"/>
		<path class="st28" d="M499.6,121.2c0-0.9,0.7-1.6,1.6-1.6c0.9,0,1.6,0.7,1.7,1.6c0,0.9-0.8,1.7-1.7,1.7
			C500.3,122.9,499.6,122.1,499.6,121.2z"/>
	</g>
</g>
</svg>
