<?xml version="1.0" encoding="utf-8"?>
<!-- Generator: Adobe Illustrator 24.0.3, SVG Export Plug-In . SVG Version: 6.00 Build 0)  -->
<svg version="1.1" id="Layer_1" xmlns="http://www.w3.org/2000/svg" xmlns:xlink="http://www.w3.org/1999/xlink" x="0px" y="0px"
	 viewBox="0 0 750 465" style="enable-background:new 0 0 750 465;" xml:space="preserve">
<style type="text/css">
	.st0{opacity:0.35;fill:#E0E0E0;}
	.st1{fill:none;stroke:#465259;stroke-width:1.4795;stroke-linecap:round;stroke-miterlimit:10;}
	.st2{fill:none;stroke:#465259;stroke-width:1.4715;stroke-linecap:round;stroke-miterlimit:10;}
	.st3{opacity:0.5;fill:#332326;enable-background:new    ;}
	.st4{fill:#DB2C56;}
	.st5{fill:#FFFFFF;}
	.st6{fill:none;stroke:#332326;stroke-width:1.2066;stroke-linecap:round;stroke-linejoin:round;stroke-miterlimit:10;}
	.st7{fill:none;stroke:#E6BB8F;stroke-width:1.2747;stroke-miterlimit:10;}
	.st8{fill:#332326;}
	.st9{fill:none;stroke:#332326;stroke-width:1.2747;stroke-linecap:round;stroke-linejoin:round;stroke-miterlimit:10;}
	.st10{fill:none;stroke:#DB2C56;stroke-width:1.2747;stroke-miterlimit:10;}
	.st11{fill:#E0E0E0;}
	.st12{fill:#871924;}
	.st13{fill:none;stroke:#332326;stroke-width:3.0527;stroke-miterlimit:10;}
	.st14{fill:none;stroke:#EAEAEA;stroke-width:3.0527;stroke-miterlimit:10;}
	.st15{fill:none;stroke:#332326;stroke-width:1.5042;stroke-linecap:round;stroke-linejoin:round;stroke-miterlimit:10;}
	.st16{fill:#E6BB8F;stroke:#332326;stroke-width:1.0515;stroke-linecap:round;stroke-linejoin:round;stroke-miterlimit:10;}
	.st17{fill:none;stroke:#332326;stroke-width:1.0515;stroke-linecap:round;stroke-linejoin:round;stroke-miterlimit:10;}
	.st18{fill:#FFFFFF;stroke:#332326;stroke-width:1.0515;stroke-linecap:round;stroke-linejoin:round;stroke-miterlimit:10;}
	.st19{fill:#494E53;}
	.st20{opacity:0.5;}
	.st21{fill:#A6A7AA;}
	.st22{fill:#2A4360;}
	.st23{fill:#436389;}
	.st24{fill:#EFEFF0;}
	.st25{opacity:0.5;fill:#FFFFFF;}
	.st26{fill:#ABB4B4;}
	.st27{fill:#CDD7D6;}
	.st28{fill:#E8E1D8;}
	.st29{fill:#96938F;}
	.st30{fill:#DADBDC;}
	.st31{fill:#BCBEBF;}
	.st32{opacity:0.6;fill:#FFFFFF;}
	.st33{fill:#9E193F;}
	.st34{fill:#F23742;}
	.st35{fill:#050505;}
	.st36{fill:#030303;}
	.st37{fill:#020202;}
	.st38{fill:#040404;}
	.st39{fill:#F23843;}
	
		.st40{fill:none;stroke:#465259;stroke-width:1.3499;stroke-linecap:round;stroke-miterlimit:10;stroke-dasharray:13.5,6.75,3.3749,6.75,26.9998;}
	.st41{fill:none;stroke:#465259;stroke-width:1.3499;stroke-linecap:round;stroke-miterlimit:10;stroke-dasharray:13.5,6.75;}
	.st42{fill:none;stroke:#465259;stroke-width:1.5501;stroke-linecap:round;stroke-miterlimit:10;}
	
		.st43{fill:none;stroke:#465259;stroke-width:1.5501;stroke-linecap:round;stroke-miterlimit:10;stroke-dasharray:2.8156,5.6312,22.5245,11.2621,5.6312,2.8156;}
	.st44{fill:none;stroke:#465259;stroke-width:1.5012;stroke-linecap:round;stroke-miterlimit:10;stroke-dasharray:15.0127,7.5064;}
	.st45{fill:none;stroke:#465259;stroke-width:1.5012;stroke-linecap:round;stroke-miterlimit:10;}
	
		.st46{fill:none;stroke:#465259;stroke-width:1.5012;stroke-linecap:round;stroke-miterlimit:10;stroke-dasharray:2.7267,5.4533,21.8129,10.9063,5.4533,2.7267;}
</style>
<polygon class="st0" points="728.7,398.8 728.7,320.4 725,319.9 709.7,319.9 707.2,320.2 707.1,320.5 707.1,321.5 706.9,321.6 
	706.8,321.8 707,366.5 699.6,366.6 696.1,366.6 696.1,384.5 691.4,384.5 691.8,293.2 691.5,293 691,292.7 690.1,292.5 688.9,292.3 
	687.6,292.2 686.2,292.2 655.9,292.2 654.6,292.2 653.3,292.3 652.3,292.5 651.6,292.7 651.3,293 650.2,364.3 640.4,363.5 
	640.4,362.9 636.9,362.9 636.9,362.8 636.4,362.8 635.6,362.8 634.4,362.8 633.1,362.9 632.7,362.9 631.5,362.8 631.2,330.8 
	630.7,330.8 630.7,326.8 629.9,326.8 626.1,326.8 625.9,299.2 625.8,294.9 625.8,293.9 624.9,293.8 602.3,294 601.3,294.1 
	601.3,295 601.3,299.3 601.4,326.4 600.9,326.4 596.6,326.3 591.5,326.3 589.9,326.3 590.1,307.8 586.5,307.5 552.4,307.6 
	552.6,261.9 552.3,261.3 552.3,260.2 552.3,258.7 552.3,257 549,251.9 548,251.7 523.8,252.1 521.8,252.9 521,253.8 521,255.6 
	521,257.2 521,258.4 520.6,258.9 520.6,260.2 519.6,348 514.9,340.7 514.8,324.7 514.1,315.3 513.9,294 512.6,293.8 512.6,293.8 
	512.6,292.7 511.2,292.5 511,292.5 511,291.4 509.6,291.2 509.5,291.2 509.5,290.2 508,290 507.9,290 507.9,288.8 506.5,288.6 
	500.9,288.6 499.4,288.8 499.4,290 499.4,290 497.9,290.2 497.9,291.2 497.9,291.2 496.4,291.4 496.4,292.5 496.4,292.5 
	494.9,292.7 494.9,293.8 494.7,293.8 493.4,294 493.4,315.4 492.8,324.7 492.8,346.9 491.1,351.1 490.2,351.1 490.2,351.3 
	488.4,351.3 488.4,351.5 486.3,351.5 486.3,351.7 484.9,351.7 484.8,294.9 484.8,275.2 471.1,272.9 470.7,276.8 470.9,326.8 
	463.7,326.9 463.7,325.3 463.8,325.3 463.7,321.8 464,321.8 464.3,321.7 464.7,321.7 464.9,321.7 465.1,321.6 465.2,321.6 
	464.9,299.5 464.9,299.5 464.8,299.4 464.7,299.4 464.5,299.3 464.2,299.3 463.9,299.2 463.5,299.2 463.4,299.2 463.3,299.2 
	463.2,299.2 452.3,282 441,282 430.4,299.4 430.3,299.4 430.3,299.4 430.2,299.4 429.9,299.4 429.5,299.4 429.2,299.5 429,299.5 
	428.8,299.6 428.8,299.6 428.7,321.7 428.8,321.7 428.9,321.8 429.2,321.8 429.5,321.9 429.8,321.9 430.1,321.9 430,325.4 
	430.1,325.5 430.2,325.5 430.1,365.8 427.5,365.9 427.5,384.5 425.5,384.5 425.5,378.9 424.6,378.9 424.6,348.3 425.5,348.3 
	425.5,311.1 423.7,310.8 423.7,298.2 421.6,297.8 421.4,297.7 421.2,297.6 421,297.6 420.7,297.5 420.4,297.4 420.1,297.3 
	419.7,297.3 419.2,297.2 418.8,297.2 418.3,297.1 417.8,297.1 417.3,297.1 415.1,296.7 412.9,297 412.4,297.1 411.9,297.1 
	411.4,297.1 411,297.2 410.5,297.3 410.2,297.3 409.8,297.4 409.5,297.5 409.2,297.5 409,297.6 408.8,297.7 408.7,297.8 
	406.6,298.2 406.6,310.8 404.8,311 404.7,348.3 405.6,348.3 405.6,378.8 401.4,378.8 401.5,353.8 391.5,353.6 390.1,353.7 
	390.1,355.1 390,355.1 387.4,355 385.5,355.1 385.5,349.3 384.2,349.3 384.2,342.1 382.5,342 382.3,342 382.2,342 382,342 
	381.7,342 381.5,342 381.2,342 380.9,342 380.5,342 380.2,342 379.8,342 379.4,342 379,342 377.2,341.9 375.9,342 375.9,338.2 
	373.4,338 370.2,338.2 370.2,344.6 370.2,344.6 369,344.6 369,351.2 367.8,351.2 367.8,354.1 367.4,354.1 366.9,354.1 366.4,354.1 
	366.3,354.1 366.3,351.5 364.3,351.5 364.3,349 363.9,349 361.7,349.1 361.7,337.2 351.5,337.7 351.5,351.5 350.5,351.5 
	350.5,384.5 350.4,384.5 350.4,369.8 345.7,369.8 345.6,352.1 343.3,342.4 343.2,310.4 342,307.7 341.9,278.2 340.8,276.3 
	339.8,276.2 339.8,275 339.8,274.8 339.1,274.7 339.1,273.5 339.1,273.2 338,273.1 338,271.1 338,270.9 337,270.7 326.9,270.8 
	325.9,270.9 325.9,271.1 325.9,273.1 324.8,273.3 324.8,273.5 324.8,274.7 324.2,274.8 324.2,275 324.1,276.2 323.1,276.4 
	322.1,278.2 322,307.7 320.8,310.4 320.7,337.9 320.5,337.9 320.5,337.9 320.5,337.3 320.2,337.3 317.2,337.3 316.9,337.3 
	316.8,337.5 316.8,337.9 316.4,337.9 316.3,338.1 316.3,338.4 316,338.4 315.8,338.6 315.8,338.9 315.4,338.9 315.3,339.2 
	315.3,339.7 314.9,339.7 314.8,340 314.8,355.1 314.6,356.7 314.4,313.7 314.4,311.1 314.3,304.8 314.2,304.8 314.2,302.5 
	314.2,297.8 304.9,297.8 304.7,297.3 303.5,297.3 303.5,297.8 295.4,297.8 294.9,297.2 293.7,297.2 293.7,297.7 284.9,297.7 
	285,302.4 285,304.8 284.2,304.8 284.3,311.1 284.4,313.7 284.8,344.5 273.8,344.4 273.2,344.5 273.2,346.7 273,346.7 266.5,347.5 
	266.5,353.8 262.1,353.2 258.7,353.3 258.6,339.3 258.6,339.2 258.6,309 256,306 255.9,306 255.9,303.5 255.6,303.1 225.5,303.8 
	225.5,360.8 222.3,360.8 222.3,361.7 217.8,359.7 217.6,262.8 216.6,262.1 214.4,261.4 210.9,260.9 206.5,260.5 201.5,260.3 
	199.1,260.3 199.1,252.1 198,245.3 192.8,245.5 188.1,245.9 184.2,246.5 181.3,247.2 179.7,248.1 179.4,249 179.4,263.2 
	179.2,374.1 178.2,374.1 177,374.3 176.8,354.4 176.3,350.7 175.8,347.3 175.1,344.9 174.4,343.2 173.7,342 169.1,341.7 
	167.1,341.8 166.4,342.9 165.7,344.6 165.1,347.1 164.6,350 164.4,316.5 164.4,314.1 164.3,313.9 164.3,313.5 164.2,311.2 
	163.9,308.6 163.6,305.9 163.2,303.3 162.7,300.6 162.1,298 161.4,295.4 160.7,292.9 159.8,290.3 158.9,287.7 158.1,285.8 
	158.2,285.6 158.4,285 158.5,284.7 158.6,284.6 158.6,284.5 157.9,284.5 157.9,283.9 157.8,283.2 157.7,282.5 157.6,281.8 
	157.5,281.1 157.4,280.4 157.2,279.7 157.1,279 156.9,278.3 156.8,277.6 156.6,277 156.4,276.3 135.3,276.2 135.1,276.9 
	134.9,277.6 134.7,278.3 134.5,278.9 134.4,279.6 134.3,280.3 134.1,281 134,281.7 133.9,282.4 133.9,283.1 133.8,283.8 
	133.7,284.4 133.1,284.4 133.2,286.4 132.7,287.7 132.3,288.9 131.8,290.2 131.4,291.5 131,292.8 130.6,294.1 130.2,295.4 
	129.9,296.7 129.5,298 129.2,299.3 128.9,300.6 128.4,303.2 128,305.8 127.7,308.5 127.4,311.1 127.3,313.8 127.2,314.5 
	127.2,316.5 127,347.6 120.8,347.4 121.2,264.1 121.3,253.5 77.3,253.1 77.3,254.4 77.4,264.9 78.1,347 76.7,347 76.7,342.6 
	76.6,342.6 76.6,342.6 76.5,342.5 76.4,342.5 74.1,342.5 74.1,338.4 74.1,338.3 74,338.3 73.9,338.2 73.8,338.2 73.5,338.1 
	71.1,338.1 71.1,334.9 71.1,334.8 71.1,334.7 70.9,334.6 70.8,334.5 70.6,334.4 61.7,333.9 61.7,333.6 61.7,333.6 61.7,333.6 
	61.7,333.4 61.7,333.3 61.7,333 61.7,332.7 61.7,332.4 61.7,332 61.7,331.7 61.7,331.4 61.7,331.2 61.7,331 61.7,330.9 61.4,330.9 
	61.2,329.7 54.7,329.7 54.8,333.9 46.1,334.3 46,334.4 46,334.5 46.1,338 43.3,338.1 43.3,338.2 43.2,338.2 43.2,338.3 43.3,342.5 
	40.7,342.5 40.5,342.5 40.5,342.5 40.4,342.6 40.4,342.6 40.5,347 38.6,347 38.3,347 38.1,347 38,347 37.9,347 37.8,347 37.8,347 
	37.8,347 37.9,352 35.5,352.1 36.1,377.7 32.9,378.2 33,384.5 25.7,384.5 25.7,400.7 728.7,400.7 "/>
<line class="st1" x1="224.5" y1="124.2" x2="186.6" y2="94.2"/>
<line class="st2" x1="187.6" y1="92.7" x2="225" y2="62.4"/>
<g id="clouds_left_2_">
	<path class="st3" d="M399,48.9h4.3l0,0l0,0c0.9,0,1.7,0.9,1.7,1.7l0,0c0,0.9-0.9,1.7-1.7,1.7l0,0l0,0h-24.1c-0.9,0-1.7,0.9-1.7,1.7
		l0,0c0,0.9,0.9,1.7,1.7,1.7h20.2l0,0h1.3c0.9,0,1.7,0.9,1.7,1.7l0,0c0,0.9-0.9,1.7-1.7,1.7h-1.3l0,0h-3c-0.9,0-1.7,0.9-1.7,1.7l0,0
		c0,0.9,0.9,1.7,1.7,1.7h21.9c0.9,0,1.7-0.9,1.7-1.7l0,0c0-0.9-0.9-1.7-1.7-1.7h-2.1h-0.4h-0.9c-0.9,0-1.7-0.9-1.7-1.7l0,0
		c0-0.9,0.9-1.7,1.7-1.7h8.2c0.9,0,1.3-0.9,1.3-1.7l0,0c0-0.9-0.9-1.7-1.7-1.7h-10.3l0,0h-0.9c-0.9,0-1.7-0.9-1.7-1.7l0,0
		c0-0.9,0.9-1.7,1.7-1.7l0,0h19.3c0.4,0,0.9-0.9,0.9-1.3v-0.9c0-0.4-0.9-1.3-1.3-1.3H411h-1.3h-11.2c-0.9,0-1.3,0.4-1.3,1.3v0.4
		C397.3,48,398.1,48.9,399,48.9z"/>
	<path class="st3" d="M327.6,73.3h-15l0,0l0,0c-0.9,0-1.7-0.9-1.7-1.7l0,0c0-0.9,0.9-1.7,1.7-1.7l0,0l0,0h6.4c0.9,0,1.7-0.9,1.7-1.7
		l0,0c0-0.9-0.9-1.7-1.7-1.7h-3l0,0h-1.3c-0.9,0-1.7-0.9-1.7-1.7l0,0c0-0.9,0.9-1.7,1.7-1.7h1.3l0,0h6.4c0.9,0,1.7-0.9,1.7-1.7l0,0
		c0-0.9-0.9-1.7-1.7-1.7H298c-0.9,0-1.7,0.9-1.7,1.7l0,0c0,0.9,0.9,1.7,1.7,1.7h2.1h0.4h0.9c0.9,0,1.7,0.9,1.7,1.7l0,0
		c0,0.9-0.9,1.7-1.7,1.7h-13.3c-0.9,0-1.3,0.9-1.3,1.7l0,0c0,0.9,0.9,1.7,1.7,1.7H304l0,0h0.9c0.9,0,1.7,0.9,1.7,1.7l0,0
		c0,0.9-0.9,1.7-1.7,1.7l0,0c-0.4,0-0.9,0.4-0.9,0.9v1.3c0,0.4,0.4,0.9,0.9,0.9h1.3h21.5c0.9,0,1.3-0.4,1.3-1.3v-0.4
		C328.9,73.8,328.5,73.3,327.6,73.3z"/>
	<path class="st3" d="M469,82.4h-2.6l0,0h-1.3c-0.9,0-1.3-0.4-1.3-1.3l0,0c0-0.9,0.4-1.3,1.3-1.3h1.3l0,0h5.6c0.9,0,1.3-0.4,1.3-1.3
		l0,0c0-0.9-0.4-1.3-1.3-1.3h-33.1c-0.9,0-1.3,0.4-1.3,1.3l0,0c0,0.9,0.4,1.3,1.3,1.3h13.3h0.4h0.9c0.9,0,1.3,0.4,1.3,1.3l0,0
		c0,0.9-0.4,1.3-1.3,1.3h-7.3c-0.4,0-1.3,0.9-1.3,1.3l0,0c0,0.9,0.4,1.3,1.3,1.3h22.3c0.9,0,1.3-0.4,1.3-1.3l0,0
		C470.3,82.8,469.9,82.4,469,82.4z"/>
</g>
<g>
	<g>
		<path class="st4" d="M566.3,318.8c0,0-5.3-6.4,12.1-6.4c17.1,0,12.1,6.4,12.1,6.4s-8.3,4.9-8.3,32.2c0,27.3,4.2,45.1,4.2,45.1
			h-17.1c0,0,4.6-14,4.6-45.1C574.6,319.9,566.3,318.8,566.3,318.8z"/>
		<path class="st5" d="M573.9,319.2c0,0-1.9-6.4,4.9-6.4c6.8,0,4.9,6.4,4.9,6.4s-3,4.9-3,32.2c0,27.3,1.5,44.8,1.5,44.8h-6.8
			c0,0,1.9-14,1.9-45.1S573.9,319.2,573.9,319.2z"/>
		<g>
			<path class="st6" d="M573.9,396.2c0,0,1.9-28.4,1.9-53.5c0-31.1-12.5-42.5-12.5-42.5"/>
			<path class="st6" d="M583.4,396.2c0,0-1.9-28.4-1.9-53.5c0-31.1,12.5-42.5,12.5-42.5"/>
		</g>
		<g>
			<path class="st6" d="M568.2,396.2c0,0,4.6-28.1,4.6-52.7c0-30.7-28.8-37.2-28.8-37.2"/>
			<path class="st6" d="M589.1,396.2c0,0-4.6-28.1-4.6-52.7c0-30.7,28.8-37.2,28.8-37.2"/>
		</g>
		<line class="st6" x1="578.8" y1="396.2" x2="578.8" y2="297.5"/>
		<g>
			<line class="st6" x1="548.1" y1="307.4" x2="546.6" y2="303.6"/>
			<line class="st6" x1="553.4" y1="309.7" x2="551.5" y2="304.7"/>
			<line class="st6" x1="558" y1="312.3" x2="556.8" y2="307.8"/>
			<line class="st6" x1="561.8" y1="315.4" x2="561.4" y2="310.4"/>
			<line class="st6" x1="565.2" y1="318.8" x2="565.2" y2="314.2"/>
			<line class="st6" x1="567.8" y1="323.3" x2="568.2" y2="318"/>
			<line class="st6" x1="570.9" y1="328.6" x2="572.4" y2="323"/>
			<line class="st6" x1="572" y1="333.6" x2="574.3" y2="329"/>
			<line class="st6" x1="547.7" y1="306.3" x2="549.6" y2="302.5"/>
			<line class="st6" x1="552.6" y1="307.8" x2="555.3" y2="302.1"/>
			<line class="st6" x1="553.8" y1="305.1" x2="552.6" y2="301.7"/>
			<line class="st6" x1="558" y1="310.4" x2="561" y2="306.6"/>
			<line class="st6" x1="559.5" y1="307.8" x2="555.7" y2="300.6"/>
			<line class="st6" x1="558" y1="305.1" x2="558.7" y2="299.4"/>
			<line class="st6" x1="561.8" y1="313.1" x2="565.9" y2="308.9"/>
			<line class="st6" x1="564.4" y1="310.4" x2="561.8" y2="304.4"/>
			<line class="st6" x1="563.3" y1="307.4" x2="564.8" y2="304.7"/>
			<line class="st6" x1="565.2" y1="316.1" x2="569.3" y2="313.5"/>
			<line class="st6" x1="567.8" y1="314.2" x2="566.7" y2="310.4"/>
			<line class="st6" x1="568.2" y1="319.9" x2="572.8" y2="318.4"/>
			<line class="st6" x1="570.5" y1="319.2" x2="570.5" y2="315.7"/>
			<line class="st6" x1="571.2" y1="325.6" x2="569.7" y2="322.6"/>
			<line class="st6" x1="573.5" y1="322.6" x2="571.6" y2="322.6"/>
			<line class="st6" x1="571.2" y1="327.5" x2="573.5" y2="326.4"/>
			<line class="st6" x1="573.1" y1="331.3" x2="572.4" y2="329.4"/>
			<line class="st6" x1="575" y1="329.8" x2="573.1" y2="327.9"/>
			<line class="st6" x1="564.4" y1="306.6" x2="567.8" y2="306.6"/>
			<line class="st6" x1="567.4" y1="311.6" x2="570.5" y2="312"/>
			<line class="st6" x1="558.7" y1="302.9" x2="565.5" y2="302.9"/>
			<line class="st6" x1="562.1" y1="302.9" x2="560.6" y2="299.8"/>
			<line class="st6" x1="568.6" y1="315.7" x2="571.6" y2="315.7"/>
		</g>
		<g>
			<line class="st6" x1="609.2" y1="307.4" x2="610.7" y2="303.6"/>
			<line class="st6" x1="604.2" y1="309.7" x2="605.8" y2="304.7"/>
			<line class="st6" x1="599.7" y1="312.3" x2="600.4" y2="307.8"/>
			<line class="st6" x1="595.9" y1="315.4" x2="596.3" y2="310.4"/>
			<line class="st6" x1="592.5" y1="318.8" x2="592.5" y2="314.2"/>
			<line class="st6" x1="589.8" y1="323.3" x2="589.4" y2="318"/>
			<line class="st6" x1="586.8" y1="328.6" x2="585.3" y2="323"/>
			<line class="st6" x1="585.3" y1="333.6" x2="583.4" y2="329"/>
			<line class="st6" x1="609.5" y1="306.3" x2="608" y2="302.5"/>
			<line class="st6" x1="605" y1="307.8" x2="602.3" y2="302.1"/>
			<line class="st6" x1="603.9" y1="305.1" x2="605" y2="301.7"/>
			<line class="st6" x1="599.7" y1="310.4" x2="596.7" y2="306.6"/>
			<line class="st6" x1="598.2" y1="307.8" x2="601.6" y2="300.6"/>
			<line class="st6" x1="599.3" y1="305.1" x2="598.5" y2="299.4"/>
			<line class="st6" x1="595.9" y1="313.1" x2="591.7" y2="308.9"/>
			<line class="st6" x1="593.2" y1="310.4" x2="595.9" y2="304.4"/>
			<line class="st6" x1="594" y1="307.4" x2="592.5" y2="304.7"/>
			<line class="st6" x1="592.5" y1="316.1" x2="588.3" y2="313.5"/>
			<line class="st6" x1="589.8" y1="314.2" x2="591" y2="310.4"/>
			<line class="st6" x1="589.4" y1="319.9" x2="584.9" y2="318.4"/>
			<line class="st6" x1="586.8" y1="319.2" x2="587.2" y2="315.7"/>
			<line class="st6" x1="586" y1="325.6" x2="587.9" y2="322.6"/>
			<line class="st6" x1="584.1" y1="322.6" x2="586" y2="322.6"/>
			<line class="st6" x1="586.4" y1="327.5" x2="583.8" y2="326.4"/>
			<line class="st6" x1="584.5" y1="331.3" x2="585.3" y2="329.4"/>
			<line class="st6" x1="582.6" y1="329.8" x2="584.5" y2="327.9"/>
			<line class="st6" x1="593.2" y1="306.6" x2="589.8" y2="306.6"/>
			<line class="st6" x1="590.2" y1="311.6" x2="587.2" y2="312"/>
			<line class="st6" x1="598.5" y1="302.9" x2="592.1" y2="302.9"/>
			<line class="st6" x1="595.1" y1="302.9" x2="597" y2="299.8"/>
			<line class="st6" x1="588.7" y1="315.7" x2="586" y2="315.7"/>
		</g>
		<g>
			<line class="st6" x1="565.2" y1="301.7" x2="566.3" y2="297.9"/>
			<line class="st6" x1="568.2" y1="306.3" x2="569.7" y2="301.3"/>
			<line class="st6" x1="570.1" y1="310.1" x2="572" y2="306.3"/>
			<line class="st6" x1="572" y1="315.4" x2="573.5" y2="312"/>
			<line class="st6" x1="573.9" y1="321.4" x2="576.9" y2="317.6"/>
			<line class="st6" x1="575" y1="328.6" x2="578.4" y2="325.2"/>
			<line class="st6" x1="565.5" y1="300.2" x2="570.9" y2="298.7"/>
			<line class="st6" x1="569" y1="299.1" x2="570.1" y2="296"/>
			<line class="st6" x1="569" y1="304.4" x2="575.4" y2="302.5"/>
			<line class="st6" x1="572" y1="303.6" x2="572.8" y2="301"/>
			<line class="st6" x1="570.9" y1="308.9" x2="576.9" y2="307.8"/>
			<line class="st6" x1="573.1" y1="308.2" x2="573.9" y2="306.3"/>
			<line class="st6" x1="573.1" y1="314.2" x2="577.3" y2="314.2"/>
			<line class="st6" x1="575.4" y1="314.2" x2="576.5" y2="311.2"/>
			<line class="st6" x1="575" y1="319.9" x2="577.3" y2="319.9"/>
			<line class="st6" x1="575" y1="319.5" x2="575" y2="316.9"/>
			<line class="st6" x1="576.5" y1="327.1" x2="575.8" y2="323.7"/>
			<line class="st6" x1="576.2" y1="321.8" x2="578.4" y2="323.7"/>
			<line class="st6" x1="576.2" y1="316.5" x2="578.4" y2="318.4"/>
			<line class="st6" x1="575.4" y1="310.4" x2="578.4" y2="312.7"/>
			<line class="st6" x1="575" y1="305.9" x2="578.4" y2="308.9"/>
			<line class="st6" x1="574.3" y1="301" x2="578.4" y2="304.7"/>
			<line class="st6" x1="574.3" y1="296.4" x2="578.1" y2="300.2"/>
			<line class="st6" x1="572.8" y1="298.3" x2="576.5" y2="298.7"/>
		</g>
		<g>
			<line class="st6" x1="592.5" y1="301.7" x2="591" y2="297.9"/>
			<line class="st6" x1="589.4" y1="306.3" x2="587.9" y2="301.3"/>
			<line class="st6" x1="587.2" y1="310.1" x2="585.7" y2="306.3"/>
			<line class="st6" x1="585.3" y1="315.4" x2="583.8" y2="312"/>
			<line class="st6" x1="583.8" y1="321.4" x2="580.3" y2="317.6"/>
			<line class="st6" x1="582.2" y1="328.6" x2="579.2" y2="325.2"/>
			<line class="st6" x1="592.1" y1="300.2" x2="586.4" y2="298.7"/>
			<line class="st6" x1="588.3" y1="299.1" x2="587.5" y2="296"/>
			<line class="st6" x1="588.7" y1="304.4" x2="581.9" y2="302.5"/>
			<line class="st6" x1="585.7" y1="303.6" x2="584.9" y2="301"/>
			<line class="st6" x1="586.8" y1="308.9" x2="580.3" y2="307.8"/>
			<line class="st6" x1="584.1" y1="308.2" x2="583.4" y2="306.3"/>
			<line class="st6" x1="584.5" y1="314.2" x2="580" y2="314.2"/>
			<line class="st6" x1="582.2" y1="314.2" x2="581.1" y2="311.2"/>
			<line class="st6" x1="582.2" y1="319.9" x2="580.3" y2="319.9"/>
			<line class="st6" x1="582.6" y1="319.5" x2="582.6" y2="316.9"/>
			<line class="st6" x1="581.1" y1="327.1" x2="581.5" y2="323.7"/>
			<line class="st6" x1="581.1" y1="321.8" x2="578.8" y2="323.7"/>
			<line class="st6" x1="581.5" y1="316.5" x2="579.2" y2="318.4"/>
			<line class="st6" x1="581.9" y1="310.4" x2="578.8" y2="312.7"/>
			<line class="st6" x1="582.6" y1="305.9" x2="578.8" y2="308.9"/>
			<line class="st6" x1="583.4" y1="301" x2="578.8" y2="304.7"/>
			<line class="st6" x1="583" y1="296.4" x2="578.8" y2="300.6"/>
			<line class="st6" x1="584.9" y1="298.3" x2="581.1" y2="298.7"/>
		</g>
	</g>
	<g>
		<path class="st4" d="M474.9,318.8c0,0-5.3-6.4,12.1-6.4c17.1,0,12.1,6.4,12.1,6.4s-8.3,4.9-8.3,32.2c0,27.3,4.2,45.1,4.2,45.1
			h-17.1c0,0,4.6-14,4.6-45.1C482.9,319.9,474.9,318.8,474.9,318.8z"/>
		<path class="st5" d="M482.5,319.2c0,0-1.9-6.4,4.9-6.4c6.8,0,4.9,6.4,4.9,6.4s-3,4.9-3,32.2c0,27.3,1.5,44.8,1.5,44.8H484
			c0,0,1.9-14,1.9-45.1S482.5,319.2,482.5,319.2z"/>
		<g>
			<path class="st6" d="M482.1,396.2c0,0,1.9-28.4,1.9-53.5c0-31.1-12.5-42.5-12.5-42.5"/>
			<path class="st6" d="M492,396.2c0,0-1.9-28.4-1.9-53.5c0-31.1,12.5-42.9,12.5-42.9"/>
		</g>
		<g>
			<path class="st6" d="M476.8,396.2c0,0,4.6-28.1,4.6-52.7c0-30.7-28.8-37.2-28.8-37.2"/>
			<path class="st6" d="M497.3,396.2c0,0-4.6-28.1-4.6-52.7c0-30.7,28.8-37.2,28.8-37.2"/>
		</g>
		<line class="st6" x1="487" y1="396.2" x2="487" y2="297.5"/>
		<g>
			<line class="st6" x1="456.7" y1="307.4" x2="455.2" y2="303.6"/>
			<line class="st6" x1="461.6" y1="309.7" x2="460.1" y2="304.7"/>
			<line class="st6" x1="466.2" y1="312.3" x2="465.4" y2="307.8"/>
			<line class="st6" x1="470" y1="315.4" x2="470" y2="310.4"/>
			<line class="st6" x1="473.4" y1="318.8" x2="473.4" y2="314.2"/>
			<line class="st6" x1="476.4" y1="323.3" x2="476.4" y2="318"/>
			<line class="st6" x1="479.4" y1="328.6" x2="480.6" y2="323"/>
			<line class="st6" x1="480.6" y1="333.6" x2="482.5" y2="329"/>
			<line class="st6" x1="456.3" y1="306.3" x2="458.2" y2="302.5"/>
			<line class="st6" x1="461.2" y1="307.8" x2="463.9" y2="302.1"/>
			<line class="st6" x1="462.4" y1="305.1" x2="460.9" y2="301.7"/>
			<line class="st6" x1="466.2" y1="310.4" x2="469.6" y2="306.6"/>
			<line class="st6" x1="467.7" y1="307.8" x2="464.3" y2="300.6"/>
			<line class="st6" x1="466.5" y1="305.1" x2="467.3" y2="299.4"/>
			<line class="st6" x1="470" y1="313.1" x2="474.1" y2="308.9"/>
			<line class="st6" x1="472.6" y1="310.4" x2="470.3" y2="304.4"/>
			<line class="st6" x1="471.9" y1="307.4" x2="473.4" y2="304.7"/>
			<line class="st6" x1="473.4" y1="316.1" x2="477.5" y2="313.5"/>
			<line class="st6" x1="476.4" y1="314.2" x2="475.3" y2="310.4"/>
			<line class="st6" x1="476.4" y1="319.9" x2="481" y2="318.4"/>
			<line class="st6" x1="479.1" y1="319.2" x2="478.7" y2="315.7"/>
			<line class="st6" x1="479.8" y1="325.6" x2="477.9" y2="322.6"/>
			<line class="st6" x1="482.1" y1="322.6" x2="480.2" y2="322.6"/>
			<line class="st6" x1="479.8" y1="327.5" x2="482.1" y2="326.4"/>
			<line class="st6" x1="481.3" y1="331.3" x2="480.6" y2="329.4"/>
			<line class="st6" x1="483.2" y1="329.8" x2="481.7" y2="327.9"/>
			<line class="st6" x1="472.6" y1="306.6" x2="476.4" y2="306.6"/>
			<line class="st6" x1="476" y1="311.6" x2="478.7" y2="312"/>
			<line class="st6" x1="467.3" y1="302.9" x2="474.1" y2="302.9"/>
			<line class="st6" x1="470.7" y1="302.9" x2="468.8" y2="299.8"/>
			<line class="st6" x1="477.2" y1="315.7" x2="480.2" y2="315.7"/>
		</g>
		<g>
			<line class="st6" x1="517.8" y1="307.4" x2="519.3" y2="303.6"/>
			<line class="st6" x1="512.4" y1="309.7" x2="514.3" y2="304.7"/>
			<line class="st6" x1="507.9" y1="312.3" x2="509" y2="307.8"/>
			<line class="st6" x1="504.5" y1="315.4" x2="504.5" y2="310.4"/>
			<line class="st6" x1="501.1" y1="318.8" x2="500.7" y2="314.2"/>
			<line class="st6" x1="498" y1="323.3" x2="497.6" y2="318"/>
			<line class="st6" x1="495" y1="328.6" x2="493.5" y2="323"/>
			<line class="st6" x1="493.9" y1="333.6" x2="492" y2="329"/>
			<line class="st6" x1="518.1" y1="306.3" x2="516.2" y2="302.5"/>
			<line class="st6" x1="513.2" y1="307.8" x2="510.5" y2="302.1"/>
			<line class="st6" x1="512.1" y1="305.1" x2="513.6" y2="301.7"/>
			<line class="st6" x1="508.3" y1="310.4" x2="504.9" y2="306.6"/>
			<line class="st6" x1="506.4" y1="307.8" x2="510.2" y2="300.6"/>
			<line class="st6" x1="507.9" y1="305.1" x2="507.1" y2="299.4"/>
			<line class="st6" x1="504.5" y1="313.1" x2="499.9" y2="308.9"/>
			<line class="st6" x1="501.4" y1="310.4" x2="504.1" y2="304.4"/>
			<line class="st6" x1="502.6" y1="307.4" x2="501.1" y2="304.7"/>
			<line class="st6" x1="500.7" y1="316.1" x2="496.9" y2="313.5"/>
			<line class="st6" x1="498" y1="314.2" x2="499.2" y2="310.4"/>
			<line class="st6" x1="497.6" y1="319.9" x2="493.5" y2="318.4"/>
			<line class="st6" x1="495.4" y1="319.2" x2="495.4" y2="315.7"/>
			<line class="st6" x1="494.6" y1="325.6" x2="496.1" y2="322.6"/>
			<line class="st6" x1="492.3" y1="322.6" x2="494.2" y2="322.6"/>
			<line class="st6" x1="494.6" y1="327.5" x2="492.3" y2="326.4"/>
			<line class="st6" x1="493.1" y1="331.3" x2="493.5" y2="329.4"/>
			<line class="st6" x1="490.8" y1="329.8" x2="492.7" y2="327.9"/>
			<line class="st6" x1="501.4" y1="306.6" x2="498" y2="306.6"/>
			<line class="st6" x1="498.4" y1="311.6" x2="495.4" y2="312"/>
			<line class="st6" x1="507.1" y1="302.9" x2="500.3" y2="302.9"/>
			<line class="st6" x1="503.7" y1="302.9" x2="505.6" y2="299.8"/>
			<line class="st6" x1="497.3" y1="315.7" x2="494.2" y2="315.7"/>
		</g>
		<g>
			<line class="st6" x1="473.4" y1="301.7" x2="474.9" y2="297.9"/>
			<line class="st6" x1="476.4" y1="306.3" x2="477.9" y2="301.3"/>
			<line class="st6" x1="478.7" y1="310.1" x2="480.2" y2="306.3"/>
			<line class="st6" x1="480.6" y1="315.4" x2="482.1" y2="312"/>
			<line class="st6" x1="482.5" y1="321.4" x2="485.5" y2="317.6"/>
			<line class="st6" x1="483.6" y1="328.6" x2="486.6" y2="325.2"/>
			<line class="st6" x1="474.1" y1="300.2" x2="479.4" y2="298.7"/>
			<line class="st6" x1="477.5" y1="299.1" x2="478.7" y2="296"/>
			<line class="st6" x1="477.2" y1="304.4" x2="484" y2="302.5"/>
			<line class="st6" x1="480.2" y1="303.6" x2="481" y2="301"/>
			<line class="st6" x1="479.1" y1="308.9" x2="485.5" y2="307.8"/>
			<line class="st6" x1="481.7" y1="308.2" x2="482.5" y2="306.3"/>
			<line class="st6" x1="481.3" y1="314.2" x2="485.9" y2="314.2"/>
			<line class="st6" x1="483.6" y1="314.2" x2="484.7" y2="311.2"/>
			<line class="st6" x1="483.6" y1="319.9" x2="485.5" y2="319.9"/>
			<line class="st6" x1="483.6" y1="319.5" x2="483.2" y2="316.9"/>
			<line class="st6" x1="484.7" y1="327.1" x2="484.4" y2="323.7"/>
			<line class="st6" x1="484.7" y1="321.8" x2="487" y2="323.7"/>
			<line class="st6" x1="484.4" y1="316.5" x2="486.6" y2="318.4"/>
			<line class="st6" x1="484" y1="310.4" x2="487" y2="312.7"/>
			<line class="st6" x1="483.6" y1="305.9" x2="487" y2="308.9"/>
			<line class="st6" x1="482.5" y1="301" x2="487" y2="304.7"/>
			<line class="st6" x1="482.9" y1="296.4" x2="486.6" y2="300.2"/>
			<line class="st6" x1="481" y1="298.3" x2="484.7" y2="298.7"/>
		</g>
		<g>
			<line class="st6" x1="500.7" y1="301.7" x2="499.5" y2="297.9"/>
			<line class="st6" x1="497.6" y1="306.3" x2="496.1" y2="301.3"/>
			<line class="st6" x1="495.7" y1="310.1" x2="494.2" y2="306.3"/>
			<line class="st6" x1="493.9" y1="315.4" x2="492.3" y2="312"/>
			<line class="st6" x1="492" y1="321.4" x2="488.9" y2="317.6"/>
			<line class="st6" x1="490.8" y1="328.6" x2="487.4" y2="325.2"/>
			<line class="st6" x1="500.3" y1="300.2" x2="495" y2="298.7"/>
			<line class="st6" x1="496.9" y1="299.1" x2="495.7" y2="296"/>
			<line class="st6" x1="496.9" y1="304.4" x2="490.4" y2="302.5"/>
			<line class="st6" x1="494.2" y1="303.6" x2="493.5" y2="301"/>
			<line class="st6" x1="495" y1="308.9" x2="488.9" y2="307.8"/>
			<line class="st6" x1="492.7" y1="308.2" x2="492" y2="306.3"/>
			<line class="st6" x1="492.7" y1="314.2" x2="488.2" y2="314.2"/>
			<line class="st6" x1="490.8" y1="314.2" x2="489.7" y2="311.2"/>
			<line class="st6" x1="490.8" y1="319.9" x2="488.9" y2="319.9"/>
			<line class="st6" x1="490.8" y1="319.5" x2="491.2" y2="316.9"/>
			<line class="st6" x1="489.3" y1="327.1" x2="490.1" y2="323.7"/>
			<line class="st6" x1="489.7" y1="321.8" x2="487.4" y2="323.7"/>
			<line class="st6" x1="489.7" y1="316.5" x2="487.4" y2="318.4"/>
			<line class="st6" x1="490.4" y1="310.4" x2="487.4" y2="312.7"/>
			<line class="st6" x1="490.8" y1="305.9" x2="487.4" y2="308.9"/>
			<line class="st6" x1="492" y1="301" x2="487.4" y2="304.7"/>
			<line class="st6" x1="491.6" y1="296.4" x2="487.4" y2="300.6"/>
			<line class="st6" x1="493.5" y1="298.3" x2="489.3" y2="298.7"/>
		</g>
	</g>
	<g>
		<path class="st4" d="M522.7,331.7c0,0-4.2-5.3,10.2-5.3s10.2,5.3,10.2,5.3s-6.8,4.2-6.8,26.9c0,22.8,3.8,37.6,3.8,37.6h-14.4
			c0,0,3.8-11.8,3.8-37.9C529.5,332.4,522.7,331.7,522.7,331.7z"/>
		<path class="st5" d="M529.1,331.7c0,0-1.5-5.3,4.2-5.3c5.7,0,3.8,5.3,3.8,5.3s-2.7,4.2-2.7,26.9c0,22.8,1.5,37.6,1.5,37.6h-5.7
			c0,0,1.5-11.8,1.5-37.9S529.1,331.7,529.1,331.7z"/>
		<g>
			<path class="st6" d="M528.8,396.2c0,0,1.5-23.9,1.5-44.8c0-26.2-10.6-35.7-10.6-35.7"/>
			<path class="st6" d="M536.7,396.2c0,0-1.5-23.9-1.5-44.8c0-26.2,10.6-35.7,10.6-35.7"/>
		</g>
		<g>
			<path class="st6" d="M524.2,396.2c0,0,3.8-23.5,3.8-44.4c0-25.8-23.9-31.1-23.9-31.1"/>
			<path class="st6" d="M541.3,396.2c0,0-3.8-23.5-3.8-44.4c0-25.8,23.9-31.1,23.9-31.1"/>
		</g>
		<line class="st6" x1="532.9" y1="396.2" x2="532.9" y2="313.9"/>
		<g>
			<line class="st6" x1="507.5" y1="322.2" x2="506" y2="318.8"/>
			<line class="st6" x1="511.7" y1="323.7" x2="510.2" y2="319.9"/>
			<line class="st6" x1="515.5" y1="326" x2="514.7" y2="322.2"/>
			<line class="st6" x1="518.5" y1="328.6" x2="518.5" y2="324.5"/>
			<line class="st6" x1="521.5" y1="331.3" x2="521.5" y2="327.9"/>
			<line class="st6" x1="523.8" y1="335.1" x2="524.2" y2="330.9"/>
			<line class="st6" x1="526.5" y1="339.6" x2="527.6" y2="335.1"/>
			<line class="st6" x1="527.6" y1="344.2" x2="529.1" y2="340"/>
			<line class="st6" x1="507.1" y1="321.1" x2="508.6" y2="317.6"/>
			<line class="st6" x1="511.3" y1="322.2" x2="513.2" y2="317.6"/>
			<line class="st6" x1="512.1" y1="319.9" x2="510.9" y2="317.3"/>
			<line class="st6" x1="515.5" y1="324.5" x2="518.1" y2="321.4"/>
			<line class="st6" x1="517" y1="322.6" x2="513.6" y2="316.1"/>
			<line class="st6" x1="515.9" y1="319.9" x2="516.2" y2="315.4"/>
			<line class="st6" x1="518.5" y1="326.7" x2="522.3" y2="323.3"/>
			<line class="st6" x1="520.8" y1="324.5" x2="518.9" y2="319.5"/>
			<line class="st6" x1="520" y1="322.2" x2="521.2" y2="319.9"/>
			<line class="st6" x1="521.5" y1="329.4" x2="525" y2="326.7"/>
			<line class="st6" x1="523.8" y1="327.5" x2="522.7" y2="324.9"/>
			<line class="st6" x1="524.2" y1="332.4" x2="528" y2="331.3"/>
			<line class="st6" x1="526.1" y1="331.7" x2="525.7" y2="329"/>
			<line class="st6" x1="526.9" y1="337" x2="525.3" y2="334.7"/>
			<line class="st6" x1="528.8" y1="334.7" x2="526.9" y2="334.7"/>
			<line class="st6" x1="526.9" y1="338.9" x2="528.8" y2="337.8"/>
			<line class="st6" x1="528" y1="341.9" x2="527.6" y2="340.4"/>
			<line class="st6" x1="529.9" y1="340.8" x2="528.4" y2="339.3"/>
			<line class="st6" x1="520.8" y1="321.4" x2="523.8" y2="321.4"/>
			<line class="st6" x1="523.4" y1="325.6" x2="525.7" y2="326"/>
			<line class="st6" x1="516.2" y1="318.4" x2="521.9" y2="318.4"/>
			<line class="st6" x1="519.3" y1="318" x2="517.8" y2="315.7"/>
			<line class="st6" x1="524.6" y1="329" x2="526.9" y2="329"/>
		</g>
		<g>
			<line class="st6" x1="558.3" y1="322.2" x2="559.9" y2="318.8"/>
			<line class="st6" x1="554.2" y1="323.7" x2="555.7" y2="319.9"/>
			<line class="st6" x1="550.4" y1="326" x2="551.1" y2="322.2"/>
			<line class="st6" x1="547.3" y1="328.6" x2="547.3" y2="324.5"/>
			<line class="st6" x1="544.3" y1="331.3" x2="544.3" y2="327.9"/>
			<line class="st6" x1="542" y1="335.1" x2="542" y2="330.9"/>
			<line class="st6" x1="539.8" y1="339.6" x2="538.2" y2="335.1"/>
			<line class="st6" x1="538.2" y1="344.2" x2="536.7" y2="340"/>
			<line class="st6" x1="558.7" y1="321.1" x2="557.2" y2="317.6"/>
			<line class="st6" x1="554.5" y1="322.2" x2="552.6" y2="317.6"/>
			<line class="st6" x1="553.8" y1="319.9" x2="554.9" y2="317.3"/>
			<line class="st6" x1="550.4" y1="324.5" x2="547.7" y2="321.4"/>
			<line class="st6" x1="549.2" y1="322.6" x2="552.3" y2="316.1"/>
			<line class="st6" x1="550" y1="319.9" x2="549.6" y2="315.4"/>
			<line class="st6" x1="547.3" y1="326.7" x2="543.5" y2="323.3"/>
			<line class="st6" x1="545.1" y1="324.5" x2="547" y2="319.5"/>
			<line class="st6" x1="545.8" y1="322.2" x2="544.3" y2="319.9"/>
			<line class="st6" x1="544.3" y1="329.4" x2="540.9" y2="326.7"/>
			<line class="st6" x1="542" y1="327.5" x2="543.2" y2="324.9"/>
			<line class="st6" x1="542" y1="332.4" x2="538.2" y2="331.3"/>
			<line class="st6" x1="539.8" y1="331.7" x2="540.1" y2="329"/>
			<line class="st6" x1="539" y1="337" x2="540.5" y2="334.7"/>
			<line class="st6" x1="537.5" y1="334.7" x2="539" y2="334.7"/>
			<line class="st6" x1="539" y1="338.9" x2="537.1" y2="337.8"/>
			<line class="st6" x1="537.9" y1="341.9" x2="538.2" y2="340.4"/>
			<line class="st6" x1="536" y1="340.8" x2="537.5" y2="339.3"/>
			<line class="st6" x1="545.1" y1="321.4" x2="542" y2="321.4"/>
			<line class="st6" x1="542.4" y1="325.6" x2="540.1" y2="326"/>
			<line class="st6" x1="549.6" y1="318.4" x2="543.9" y2="318.4"/>
			<line class="st6" x1="546.6" y1="318" x2="548.1" y2="315.7"/>
			<line class="st6" x1="541.3" y1="329" x2="539" y2="329"/>
		</g>
		<g>
			<line class="st6" x1="521.5" y1="316.9" x2="522.7" y2="313.9"/>
			<line class="st6" x1="524.2" y1="321.1" x2="525.3" y2="316.9"/>
			<line class="st6" x1="525.7" y1="324.5" x2="527.2" y2="321.1"/>
			<line class="st6" x1="527.6" y1="328.6" x2="528.8" y2="326"/>
			<line class="st6" x1="528.8" y1="333.6" x2="531.4" y2="330.5"/>
			<line class="st6" x1="529.9" y1="339.6" x2="532.5" y2="337"/>
			<line class="st6" x1="521.9" y1="316.1" x2="526.5" y2="314.6"/>
			<line class="st6" x1="525" y1="315" x2="525.7" y2="312.7"/>
			<line class="st6" x1="524.6" y1="319.5" x2="530.3" y2="317.6"/>
			<line class="st6" x1="527.2" y1="318.8" x2="528" y2="316.9"/>
			<line class="st6" x1="526.1" y1="323.3" x2="531.4" y2="322.6"/>
			<line class="st6" x1="528.4" y1="323" x2="529.1" y2="321.1"/>
			<line class="st6" x1="528" y1="327.9" x2="531.8" y2="327.5"/>
			<line class="st6" x1="529.9" y1="327.5" x2="531" y2="325.2"/>
			<line class="st6" x1="529.9" y1="332.4" x2="531.4" y2="332.4"/>
			<line class="st6" x1="529.9" y1="332.1" x2="529.5" y2="330.2"/>
			<line class="st6" x1="531" y1="338.5" x2="530.6" y2="335.9"/>
			<line class="st6" x1="531" y1="334" x2="532.5" y2="335.9"/>
			<line class="st6" x1="530.6" y1="329.8" x2="532.5" y2="331.3"/>
			<line class="st6" x1="530.3" y1="324.5" x2="532.5" y2="326.4"/>
			<line class="st6" x1="529.9" y1="320.7" x2="532.5" y2="323.3"/>
			<line class="st6" x1="529.1" y1="316.9" x2="532.5" y2="319.9"/>
			<line class="st6" x1="529.1" y1="312.7" x2="532.5" y2="315.7"/>
			<line class="st6" x1="528" y1="314.6" x2="531" y2="314.6"/>
		</g>
		<g>
			<line class="st6" x1="544.3" y1="316.9" x2="543.2" y2="313.9"/>
			<line class="st6" x1="541.6" y1="321.1" x2="540.5" y2="316.9"/>
			<line class="st6" x1="540.1" y1="324.5" x2="538.6" y2="321.1"/>
			<line class="st6" x1="538.2" y1="328.6" x2="537.1" y2="326"/>
			<line class="st6" x1="537.1" y1="333.6" x2="534.4" y2="330.5"/>
			<line class="st6" x1="536" y1="339.6" x2="533.3" y2="337"/>
			<line class="st6" x1="543.9" y1="316.1" x2="539.4" y2="314.6"/>
			<line class="st6" x1="540.9" y1="315" x2="540.1" y2="312.7"/>
			<line class="st6" x1="541.3" y1="319.5" x2="535.6" y2="317.6"/>
			<line class="st6" x1="538.6" y1="318.8" x2="538.2" y2="316.9"/>
			<line class="st6" x1="539.8" y1="323.3" x2="534.4" y2="322.6"/>
			<line class="st6" x1="537.5" y1="323" x2="536.7" y2="321.1"/>
			<line class="st6" x1="537.9" y1="327.9" x2="534.1" y2="327.5"/>
			<line class="st6" x1="536" y1="327.5" x2="534.8" y2="325.2"/>
			<line class="st6" x1="536" y1="332.4" x2="534.4" y2="332.4"/>
			<line class="st6" x1="536" y1="332.1" x2="536.3" y2="330.2"/>
			<line class="st6" x1="534.8" y1="338.5" x2="535.2" y2="335.9"/>
			<line class="st6" x1="535.2" y1="334" x2="533.3" y2="335.9"/>
			<line class="st6" x1="535.2" y1="329.8" x2="533.3" y2="331.3"/>
			<line class="st6" x1="535.6" y1="324.5" x2="533.3" y2="326.4"/>
			<line class="st6" x1="536" y1="320.7" x2="533.3" y2="323.3"/>
			<line class="st6" x1="536.7" y1="316.9" x2="533.3" y2="319.9"/>
			<line class="st6" x1="536.7" y1="312.7" x2="532.9" y2="316.1"/>
			<line class="st6" x1="538.2" y1="314.6" x2="534.8" y2="314.6"/>
		</g>
	</g>
</g>
<g>
	<line class="st7" x1="118.9" y1="235.5" x2="118.9" y2="360.1"/>
	<line class="st7" x1="102.7" y1="237.8" x2="134.8" y2="357.9"/>
	<line class="st7" x1="87.9" y1="244.2" x2="149.9" y2="351.8"/>
	<line class="st7" x1="74.7" y1="254" x2="162.7" y2="341.6"/>
	<line class="st7" x1="64.9" y1="266.9" x2="172.5" y2="328.8"/>
	<line class="st7" x1="58.9" y1="281.6" x2="178.9" y2="313.7"/>
	<line class="st7" x1="56.6" y1="297.8" x2="180.8" y2="297.8"/>
	<line class="st7" x1="58.9" y1="313.7" x2="178.9" y2="281.6"/>
	<line class="st7" x1="64.9" y1="328.8" x2="172.5" y2="266.9"/>
	<line class="st7" x1="74.7" y1="341.6" x2="162.7" y2="254"/>
	<line class="st7" x1="87.9" y1="351.8" x2="149.9" y2="244.2"/>
	<line class="st7" x1="102.7" y1="357.9" x2="134.8" y2="237.8"/>
</g>
<path class="st4" d="M125.7,297.8c0,3.8-3,6.8-6.8,6.8s-6.8-3-6.8-6.8s3-6.8,6.8-6.8S125.7,294.1,125.7,297.8z"/>
<path class="st8" d="M121.9,297.8c0,1.9-1.5,3-3,3s-3-1.5-3-3c0-1.9,1.5-3,3-3S121.9,295.9,121.9,297.8z"/>
<path class="st9" d="M183.1,297.8c0,35.5-28.7,64.2-64.2,64.2s-64.2-28.7-64.2-64.2s28.7-64.2,64.2-64.2S183.1,262.3,183.1,297.8z"
	/>
<path class="st9" d="M175.9,297.8c0,31.7-25.7,57.4-57.4,57.4s-57-25.7-57-57.4s25.7-57.4,57.4-57.4S175.9,266.1,175.9,297.8z"/>
<path class="st10" d="M171.8,297.8c0,29.1-23.8,53.2-53.2,53.2s-53.2-23.8-53.2-53.2c0-29.5,23.8-53.2,53.2-53.2
	C148,245,171.8,268.4,171.8,297.8z"/>
<polyline class="st9" points="137.4,388.8 118.9,297.8 100.4,388.8 "/>
<g>
	<g>
		<path class="st8" d="M121.5,231c0,1.5-1.1,2.6-2.6,2.6c-1.5,0-2.6-1.1-2.6-2.6c0-1.5,1.1-2.6,2.6-2.6
			C120,228.4,121.5,229.5,121.5,231z"/>
		<path class="st8" d="M121.5,364.7c0,1.5-1.1,2.6-2.6,2.6c-1.5,0-2.6-1.1-2.6-2.6c0-1.5,1.1-2.6,2.6-2.6
			C120,362,121.5,363.2,121.5,364.7z"/>
	</g>
	<g>
		<path class="st8" d="M103.8,232.5c0.4,1.5-0.4,2.6-1.9,3c-1.5,0.4-2.6-0.4-3-1.9c-0.4-1.5,0.4-2.6,1.9-3
			C102.3,230.2,103.4,231,103.8,232.5z"/>
		<path class="st8" d="M138.5,361.6c0.4,1.5-0.4,2.6-1.9,3c-1.5,0.4-2.6-0.4-3-1.9c-0.4-1.5,0.4-2.6,1.9-3
			C136.6,359.4,138.2,360.5,138.5,361.6z"/>
	</g>
	<g>
		<path class="st8" d="M87.6,238.6c0.8,1.1,0.4,3-1.1,3.4c-1.1,0.8-3,0.4-3.4-1.1c-0.8-1.1-0.4-3,1.1-3.4
			C85.3,237,86.8,237.4,87.6,238.6z"/>
		<path class="st8" d="M154.4,354.5c0.8,1.1,0.4,3-1.1,3.4c-1.1,0.8-3,0.4-3.4-1.1c-0.8-1.1-0.4-3,1.1-3.4
			C152.1,352.6,153.6,353.3,154.4,354.5z"/>
	</g>
	<g>
		<path class="st8" d="M73.2,248.7c1.1,1.1,1.1,2.6,0,3.8c-1.1,1.1-2.6,1.1-3.8,0c-1.1-1.1-1.1-2.6,0-3.8
			C70.6,247.6,72.5,247.6,73.2,248.7z"/>
		<path class="st8" d="M168,343.1c1.1,1.1,1.1,2.6,0,3.8c-1.1,1.1-2.6,1.1-3.8,0c-1.1-1.1-1.1-2.6,0-3.8
			C165.3,342.4,166.8,342.4,168,343.1z"/>
	</g>
	<g>
		<path class="st8" d="M62.3,262.3c1.1,0.8,1.5,2.3,1.1,3.4c-0.8,1.1-2.3,1.5-3.4,1.1c-1.1-0.8-1.5-2.3-1.1-3.4
			C59.2,262,61.1,261.6,62.3,262.3z"/>
		<path class="st8" d="M178.2,328.8c1.1,0.8,1.5,2.3,1.1,3.4c-0.8,1.1-2.3,1.5-3.4,1.1c-1.1-0.8-1.5-2.3-1.1-3.4
			C175.2,328.8,176.7,328.4,178.2,328.8z"/>
	</g>
	<g>
		<path class="st8" d="M54.7,277.8c1.5,0.4,2.3,1.9,1.9,3c-0.4,1.5-1.9,2.3-3,1.9c-1.5-0.4-2.3-1.9-1.9-3S53.6,277.4,54.7,277.8z"/>
		<path class="st8" d="M183.8,312.6c1.5,0.4,2.3,1.9,1.9,3c-0.4,1.5-1.9,2.3-3,1.9c-1.5-0.4-2.3-1.9-1.9-3
			C181.2,312.9,182.7,312.2,183.8,312.6z"/>
	</g>
	<g>
		<path class="st8" d="M52.1,295.2c1.5,0,2.6,1.1,2.6,2.6c0,1.5-1.1,2.6-2.6,2.6s-2.6-1.1-2.6-2.6C49,296.3,50.6,295.2,52.1,295.2z"
			/>
		<path class="st8" d="M185.7,295.2c1.5,0,2.6,1.1,2.6,2.6c0,1.5-1.1,2.6-2.6,2.6s-2.6-1.1-2.6-2.6S184.2,295.2,185.7,295.2z"/>
	</g>
	<g>
		<path class="st8" d="M53.6,312.6c1.5-0.4,2.6,0.4,3,1.9c0.4,1.5-0.4,2.6-1.9,3c-1.5,0.4-2.6-0.4-3-1.9
			C51.3,314.4,52.1,312.9,53.6,312.6z"/>
		<path class="st8" d="M182.7,277.8c1.5-0.4,2.6,0.4,3,1.9c0.4,1.5-0.4,2.6-1.9,3c-1.5,0.4-2.6-0.4-3-1.9
			C180.4,279.7,181.2,278.6,182.7,277.8z"/>
	</g>
	<g>
		<path class="st8" d="M59.6,328.8c1.1-0.8,3-0.4,3.4,1.1c0.8,1.1,0.4,3-1.1,3.4c-1.1,0.8-3,0.4-3.4-1.1
			C57.7,331.4,58.1,329.5,59.6,328.8z"/>
		<path class="st8" d="M175.2,262.3c1.1-0.8,3-0.4,3.4,1.1c0.8,1.1,0.4,3-1.1,3.4c-1.1,0.8-3,0.4-3.4-1.1
			C173.6,264.6,174,262.7,175.2,262.3z"/>
	</g>
	<g>
		<path class="st8" d="M69.8,343.1c1.1-1.1,2.6-1.1,3.8,0c1.1,1.1,1.1,2.6,0,3.8c-1.1,1.1-2.6,1.1-3.8,0
			C68.7,345.8,68.7,344.3,69.8,343.1z"/>
		<path class="st8" d="M164.2,248.7c1.1-1.1,2.6-1.1,3.8,0c1.1,1.1,1.1,2.6,0,3.8c-1.1,1.1-2.6,1.1-3.8,0
			C163.1,251.4,163.1,249.5,164.2,248.7z"/>
	</g>
	<g>
		<path class="st8" d="M83,354.5c0.8-1.1,2.3-1.5,3.4-1.1c1.1,0.8,1.5,2.3,1.1,3.4c-0.8,1.1-2.3,1.5-3.4,1.1
			C82.6,357.1,82.3,355.6,83,354.5z"/>
		<path class="st8" d="M149.9,238.6c0.8-1.1,2.3-1.5,3.4-1.1c1.1,0.8,1.5,2.3,1.1,3.4c-0.8,1.1-2.3,1.5-3.4,1.1
			C149.5,241.6,149.1,239.7,149.9,238.6z"/>
	</g>
	<g>
		<path class="st8" d="M98.9,361.6c0.4-1.5,1.9-2.3,3-1.9c1.5,0.4,2.3,1.9,1.9,3c-0.4,1.5-1.9,2.3-3,1.9
			C99.3,364.7,98.5,363.2,98.9,361.6z"/>
		<path class="st8" d="M133.6,232.5c0.4-1.5,1.9-2.3,3-1.9c1.1,0.4,2.3,1.9,1.9,3c-0.4,1.1-1.9,2.3-3,1.9
			C134,235.5,133.2,234,133.6,232.5z"/>
	</g>
</g>
<rect x="85.4" y="385.1" class="st11" width="68.9" height="12.7"/>
<g>
	<rect x="270.6" y="225.4" class="st12" width="11.3" height="8.1"/>
	<rect x="440.8" y="225.4" class="st12" width="11.3" height="8.1"/>
	<polygon class="st4" points="245.8,232.6 499.4,232.6 460.7,245.6 245.8,245.6 	"/>
	<polygon class="st8" points="245.8,238 499.4,232.6 460.7,245.6 245.8,245.6 	"/>
	<rect x="329.6" y="250.1" class="st11" width="54.5" height="145.5"/>
	<g>
		<line class="st13" x1="335.9" y1="256.9" x2="377.8" y2="256.9"/>
		<line class="st13" x1="335.9" y1="263.7" x2="377.8" y2="263.7"/>
		<line class="st13" x1="335.9" y1="270.9" x2="377.8" y2="270.9"/>
		<line class="st13" x1="335.9" y1="277.6" x2="377.8" y2="277.6"/>
		<line class="st13" x1="335.9" y1="284.8" x2="377.8" y2="284.8"/>
		<line class="st13" x1="335.9" y1="291.6" x2="377.8" y2="291.6"/>
		<line class="st13" x1="335.9" y1="298.3" x2="377.8" y2="298.3"/>
		<line class="st13" x1="335.9" y1="305.5" x2="377.8" y2="305.5"/>
		<line class="st13" x1="335.9" y1="312.3" x2="377.8" y2="312.3"/>
		<line class="st13" x1="335.9" y1="319.5" x2="377.8" y2="319.5"/>
		<line class="st13" x1="335.9" y1="326.3" x2="377.8" y2="326.3"/>
		<line class="st13" x1="335.9" y1="333.5" x2="377.8" y2="333.5"/>
		<line class="st13" x1="335.9" y1="340.2" x2="377.8" y2="340.2"/>
		<line class="st13" x1="335.9" y1="347" x2="377.8" y2="347"/>
		<line class="st13" x1="335.9" y1="354.2" x2="377.8" y2="354.2"/>
		<line class="st13" x1="335.9" y1="361.4" x2="377.8" y2="361.4"/>
		<line class="st13" x1="335.9" y1="368.1" x2="377.8" y2="368.1"/>
	</g>
	<rect x="397.6" y="250.1" class="st11" width="54.5" height="145.5"/>
	<rect x="441.7" y="250.1" class="st8" width="10.4" height="145.5"/>
	<g>
		<line class="st13" x1="403.9" y1="256.9" x2="435.9" y2="256.9"/>
		<line class="st13" x1="403.9" y1="263.7" x2="435.9" y2="263.7"/>
		<line class="st13" x1="403.9" y1="270.9" x2="435.9" y2="270.9"/>
		<line class="st13" x1="403.9" y1="277.6" x2="435.9" y2="277.6"/>
		<line class="st13" x1="403.9" y1="284.8" x2="435.9" y2="284.8"/>
		<line class="st13" x1="403.9" y1="291.6" x2="435.9" y2="291.6"/>
		<line class="st13" x1="403.9" y1="298.3" x2="435.9" y2="298.3"/>
		<line class="st13" x1="403.9" y1="305.5" x2="435.9" y2="305.5"/>
		<line class="st13" x1="403.9" y1="312.3" x2="435.9" y2="312.3"/>
		<line class="st13" x1="403.9" y1="319.5" x2="435.9" y2="319.5"/>
		<line class="st13" x1="403.9" y1="326.3" x2="435.9" y2="326.3"/>
		<line class="st13" x1="403.9" y1="333.5" x2="435.9" y2="333.5"/>
		<line class="st13" x1="403.9" y1="340.2" x2="435.9" y2="340.2"/>
		<line class="st13" x1="403.9" y1="347" x2="435.9" y2="347"/>
		<line class="st13" x1="403.9" y1="354.2" x2="435.9" y2="354.2"/>
		<line class="st13" x1="403.9" y1="361.4" x2="435.9" y2="361.4"/>
		<line class="st13" x1="403.9" y1="368.1" x2="435.9" y2="368.1"/>
	</g>
	<rect x="261.6" y="250.1" class="st11" width="54.5" height="145.5"/>
	<rect x="261.1" y="250.1" class="st8" width="10.4" height="145.5"/>
	<g>
		<line class="st13" x1="309.8" y1="256.9" x2="277.8" y2="256.9"/>
		<line class="st13" x1="309.8" y1="263.7" x2="277.8" y2="263.7"/>
		<line class="st14" x1="309.8" y1="270.9" x2="277.8" y2="270.9"/>
		<line class="st13" x1="309.8" y1="277.6" x2="277.8" y2="277.6"/>
		<line class="st13" x1="309.8" y1="284.8" x2="277.8" y2="284.8"/>
		<line class="st13" x1="309.8" y1="291.6" x2="277.8" y2="291.6"/>
		<line class="st13" x1="309.8" y1="298.3" x2="277.8" y2="298.3"/>
		<line class="st13" x1="309.8" y1="305.5" x2="277.8" y2="305.5"/>
		<line class="st13" x1="309.8" y1="312.3" x2="277.8" y2="312.3"/>
		<line class="st13" x1="309.8" y1="319.5" x2="277.8" y2="319.5"/>
		<line class="st13" x1="309.8" y1="326.3" x2="277.8" y2="326.3"/>
		<line class="st13" x1="309.8" y1="333.5" x2="277.8" y2="333.5"/>
		<line class="st13" x1="309.8" y1="340.2" x2="277.8" y2="340.2"/>
		<line class="st13" x1="309.8" y1="347" x2="277.8" y2="347"/>
		<line class="st13" x1="309.8" y1="354.2" x2="277.8" y2="354.2"/>
		<line class="st13" x1="309.8" y1="361.4" x2="277.8" y2="361.4"/>
		<line class="st13" x1="309.8" y1="368.1" x2="277.8" y2="368.1"/>
	</g>
</g>
<g>
	<g>
		<path class="st5" d="M505.7,411.6c0,0,18.5-27.8,57.7-27.8c30,0,31.7,27.8,31.7,27.8H505.7z"/>
		<path class="st4" d="M563.8,383.9c-39.2,0-57.7,27.8-57.7,27.8h3.1c0,0,17.6-25.5,54.6-25.5c28.2,0,30.4,25.5,30.4,25.5h1.8
			C595.5,411.6,593.3,383.9,563.8,383.9z"/>
		<path class="st15" d="M513.6,402.8c0,0,8.4,3.5,11.5,8.8"/>
		<path class="st15" d="M522,396.7c0,0,11.9,4.8,16.3,15"/>
		<path class="st15" d="M533.4,390c0,0,13.2,6.6,16.3,21.6"/>
		<path class="st15" d="M548.8,385.2c0,0,12.3,9.3,12.3,26"/>
		<path class="st15" d="M567.3,383.9c0,0,4.4,8.8,4,27.8"/>
		<path class="st15" d="M580.5,387.8c0,0,3.1,12.3-0.9,23.8"/>
		<path class="st15" d="M591.1,398.4c0,0,0.9,6.2-2.6,12.8"/>
	</g>
	<g>
		<path class="st5" d="M421.1,411.6c0,0,18.5-50.7,57.7-50.7c30,0,31.7,50.7,31.7,50.7H421.1z"/>
		<path class="st4" d="M478.8,360.5c-39.2,0-57.7,50.7-57.7,50.7h2.6c0,0,17.6-48.9,55.1-48.9c28.2,0,30.4,48.9,30.4,48.9h1.8
			C510.9,411.6,508.7,360.5,478.8,360.5z"/>
		<path class="st15" d="M428.6,395.3c0,0,8.8,6.6,11.9,16.3"/>
		<path class="st15" d="M436.9,383.9c0,0,12.3,9.3,16.3,27.8"/>
		<path class="st15" d="M448.8,372.4c0,0,13.7,11.9,16.3,39.2"/>
		<path class="st15" d="M464.3,363.6c0,0,12.3,17.6,12.3,48"/>
		<path class="st15" d="M482.8,361c0,0,4.4,16.3,4,50.7"/>
		<path class="st15" d="M496,368c0,0,3.1,22.5-0.9,43.2"/>
		<path class="st15" d="M506.5,387.8c0,0,0.9,11.5-2.6,23.8"/>
	</g>
</g>
<g id="artscience">
	<g>
		<rect x="214.7" y="395.6" class="st4" width="27.2" height="1.8"/>
		<g>
			<polygon class="st8" points="237.9,389.2 219,389.2 214.7,380.6 242.2,380.6 			"/>
			<polygon class="st11" points="237.9,389.2 219,389.2 214.7,395.6 242.2,395.6 			"/>
			<rect x="224.3" y="383.1" class="st4" width="7.9" height="3.2"/>
			<path class="st4" d="M193.6,338.7H190c0,0-6.1,31.8,31.1,38.3l11.8-5.4C232.9,371.6,205,365.9,193.6,338.7z"/>
			<path class="st4" d="M245.1,324.4h3.6c0,0,17.5,48.3-12.5,53.3l-15.7-3.9C220.4,373.8,240.1,357,245.1,324.4z"/>
			<path class="st4" d="M181.1,348.4h-1.4c0,0-1.1,21.1,31.8,27.2l0.7-4.6C212.2,371.3,190,363.8,181.1,348.4z"/>
			<path class="st4" d="M227.9,328.4h-1.8c0,0-1.8,18.6,5,46.8l10-0.7C241.1,374.5,233.6,360.5,227.9,328.4z"/>
			<path class="st11" d="M248.7,324.4h13.2c0,0,9.7,51.5-20,56.9h-16.8C225.4,380.9,244.7,356.6,248.7,324.4z"/>
			<path class="st11" d="M225.8,328.4h-15c0,0-15,52.9,13.9,52.9h16.8C241.1,380.9,231.9,360.5,225.8,328.4z"/>
			<path class="st11" d="M190,338.7h-8.2c0,0-1.1,35.8,36.5,42.2h11.8C230.1,380.9,203.2,372.3,190,338.7z"/>
			<path class="st11" d="M179.6,348.4h-3.9c0,0,6.1,26.8,39.3,32.5h11.8C226.8,380.9,196.1,374.5,179.6,348.4z"/>
		</g>
	</g>
</g>
<g id="merlion">
	<path class="st11" d="M663.8,314.1c0,0,0.6-4,5.2-4.9c0,0,2.2-3.4,12.3-0.9c0,0,8.9,2.2,10.8,10.1c1.8,8,2.8,11.1,2.8,11.1
		l-2.8,2.8l4.3,14.7c0,0-2.2,0-4,0l5.2,10.8c0,0-2.2,1.5-4.9,1.5c0,0,1.5,4.6,0.6,17.8c-0.9,12.9-5.2,17.2-14.4,17.2
		c-9.5-0.3-17.8-0.3-20.6-6.1c-2.8-5.8,1.5-12.9,1.5-19s-1.8-10.4-4.9-15.4c-3.1-4.9-4.6-4.3-3.7-6.1c0.9-1.8,3.1-1.2,4.3-0.6
		c0,0,1.5-1.2,2.8,0.3c0,0-0.6-3.7,0.9-8.9c0,0-2.8,0-3.1-2.2c-0.3-2.2,1.2-3.4,1.8-3.7l0.3-1.8l0.9,1.2c0,0,4.3,0.6,4.9-1.2
		c0.6-1.8,0.6-3.7-0.9-3.7s-4,0.9-4,0.9l-0.6,2.5l-1.5-0.6l-0.3,1.5c0,0-1.2-0.3-1.8-0.6c-0.6-0.3-2.2-2.2-1.8-5.2
		c0,0-1.8-1.8-0.6-3.1c1.2-1.2,2.2-1.8,4.3-2.2c0,0,1.8-0.9,3.1-1.2C659.2,316.8,660.8,315,663.8,314.1z"/>
	<path class="st16" d="M668.1,380.7c0,0-2.8,0.6-2.8-2.2c0-2.8,1.5-3.4,3.4-3.1C670.6,375.8,671.8,380.1,668.1,380.7z"/>
	<path class="st17" d="M654.3,330.6c0-0.3,0-0.9,0.3-0.9c0.3-0.3,3.7-1.8,3.7-1.8s2.5-0.9,4-0.9s1.8,2.2,0.9,3.7
		c-0.6,1.8-4.9,1.2-4.9,1.2l-1.2,0.3"/>
	<path class="st17" d="M672.7,308.8c0,0,3.4,2.2,3.4,7.1c0,7.4-7.1,17.2-6.8,31l22.4-0.3"/>
	<path class="st17" d="M678,313.4c0,0,1.5,2.8-0.6,11.4c-2.2,8.6-4,13.8-2.5,22.1"/>
	<path class="st17" d="M680.4,313.4c0,0,1.5,4.3,0,11.4c-1.5,7.4-2.2,16.6-0.6,22.1"/>
	<path class="st17" d="M683.5,313.4c0,0,2.5,5.2,1.5,11.4c-1.8,11.7-0.9,16.9,0.3,22.1"/>
	<path class="st17" d="M687.5,313.4c4.3,5.8,1.5,10.4,4,18.4"/>
	<path class="st17" d="M681,346.9l-0.3,10.8c0,0,2.5,1.5,11.1,1.2"/>
	<path class="st17" d="M669.1,309.1c0,0,6.1,3.4,2.8,12.9c-2.8,7.4-14.1,16.9-13.8,25.2c0,7.7,0,10.8,0,10.8l13.5-4.6v-6.5"/>
	<path class="st17" d="M663.5,356.1c0,0,0.9,1.5,0.3,3.4c0,0,1.8-2.5,4.3-1.5c2.5,1.2,1.5,4.3,1.5,4.3s2.2-1.2,4,0.6
		c2.2,1.8,0.3,4.6,0.3,4.6s2.5-0.6,3.4,2.2c0.6,2.8-2.2,4-2.2,4s2.5,1.2,1.5,4c-0.9,2.8-3.7,2.2-3.7,2.2s0.6,3.1-2.5,3.7
		c-2.8,0.3-4.6-1.5-4.9-4.6"/>
	<path class="st8" d="M661.1,319c0,0,0-1.5,1.2-1.8c1.2-0.3,2.8,0,2.8,0S662.9,319.3,661.1,319z"/>
	<path class="st17" d="M652.2,325.4c0,0,0.6,0.3,0.9-0.3c0.6-0.9,2.5-3.1,2.8-4.9"/>
	<path class="st17" d="M652.8,325.4c0,0,0.3,2.8,1.8,4.3"/>
	<polygon class="st18" points="665.1,313.7 669.4,307.6 671.2,315 	"/>
	<polygon class="st8" points="666.3,313.4 668.8,310.1 669.4,314.1 	"/>
	<path class="st17" d="M658.6,357.7c1.2,3.4,2.2,8,1.8,13.5"/>
	<path class="st17" d="M653.1,348.8c0,0,2.5,2.2,4.6,6.8"/>
	<path class="st17" d="M661.1,357.1c0.9,3.7,1.5,8.6,0.9,14.1"/>
	<path class="st17" d="M657.1,348.5c0,0,0.3,0.3,0.6,0.9"/>
	<path class="st17" d="M667.2,360.4c0,0-1.2,4-4,11.1"/>
	<path class="st17" d="M671.8,364.4c0,0-4.3,1.5-8,7.4"/>
	<path class="st17" d="M665.1,372.4c0,0,4.3-3.7,10.1-2.2"/>
	<path class="st17" d="M665.7,373.6c2.8-1.5,8-0.6,9.2,3.7"/>
	<path class="st17" d="M666,374.9c4.9-2.2,8.6,4.6,3.4,7.7"/>
	<g>
		<path class="st4" d="M670,355.8c0,0,0.6,1.8,2.5,1.5c1.2,0,1.8-1.5,1.8-1.5s0,2.5-2.2,2.5C670.3,358.3,670,355.8,670,355.8z"/>
		<path class="st4" d="M672.4,354.3c0,0,0.6,1.8,2.5,1.5c1.2,0,1.8-1.5,1.8-1.5s0,2.5-2.2,2.5C672.7,356.7,672.4,354.3,672.4,354.3z
			"/>
		<path class="st4" d="M675.5,355.8c0,0,0.6,1.8,2.5,1.5c1.2,0,1.8-1.5,1.8-1.5s0,2.5-2.2,2.5C675.8,358.3,675.5,355.8,675.5,355.8z
			"/>
	</g>
	<g>
		<path class="st4" d="M681.7,367.5c0,0,0.6,1.8,2.5,1.5c1.2,0,1.8-1.5,1.8-1.5s0,2.5-2.2,2.5C682,370,681.7,367.5,681.7,367.5z"/>
		<path class="st4" d="M684.1,365.7c0,0,0.6,1.8,2.5,1.5c1.2,0,1.8-1.5,1.8-1.5s0,2.5-2.2,2.5C684.4,368.1,684.1,365.7,684.1,365.7z
			"/>
		<path class="st4" d="M687.2,367.5c0,0,0.6,1.8,2.5,1.5c1.2,0,1.8-1.5,1.8-1.5s0,2.5-2.2,2.5C687.5,370,687.2,367.5,687.2,367.5z"
			/>
	</g>
	<g>
		<path class="st4" d="M672.4,383.2c0,0,0.6,1.8,2.5,1.5c1.2,0,1.8-1.5,1.8-1.5s0,2.5-2.2,2.5C672.7,385.6,672.4,383.2,672.4,383.2z
			"/>
		<path class="st4" d="M675.2,381.3c0,0,0.6,1.8,2.5,1.5c1.2,0,1.8-1.5,1.8-1.5s0,2.5-2.2,2.5C675.5,383.8,675.2,381.3,675.2,381.3z
			"/>
		<path class="st4" d="M678.3,383.2c0,0,0.6,1.8,2.5,1.5c1.2,0,1.8-1.5,1.8-1.5s0,2.5-2.2,2.5C678.6,385.6,678.3,383.2,678.3,383.2z
			"/>
	</g>
	<g>
		<path class="st4" d="M659.5,386.2c0,0,0.6,1.5,2.2,1.5c1.2,0,1.8-1.5,1.8-1.5s0,2.2-1.8,2.2C659.5,388.4,659.5,386.2,659.5,386.2z
			"/>
		<path class="st4" d="M661.7,384.7c0,0,0.6,1.5,2.2,1.5c1.2,0,1.8-1.5,1.8-1.5s0,2.2-1.8,2.2C662,386.9,661.7,384.7,661.7,384.7z"
			/>
		<path class="st4" d="M664.5,386.2c0,0,0.6,1.5,2.2,1.5c1.2,0,1.8-1.5,1.8-1.5s0,2.2-1.8,2.2C664.8,388.4,664.5,386.2,664.5,386.2z
			"/>
	</g>
	<g>
		<path class="st4" d="M681.7,362.3c0,0,0.6,1.8,2.5,1.5c1.2,0,1.8-1.5,1.8-1.5s0,2.5-2.2,2.5C682,364.7,681.7,362.3,681.7,362.3z"
			/>
		<path class="st4" d="M678.3,360.7c0,0,0.6,1.8,2.5,1.5c1.2,0,1.8-1.5,1.8-1.5s0,2.5-2.2,2.5C678.6,363.2,678.3,360.7,678.3,360.7z
			"/>
	</g>
	<g>
		<path class="st4" d="M675.5,352.1c0,0,0.6,1.8,2.5,1.5c1.2,0,1.8-1.5,1.8-1.5s0,2.5-2.2,2.5C675.5,354.6,675.5,352.1,675.5,352.1z
			"/>
		<path class="st4" d="M672.1,350.6c0,0,0.6,1.8,2.5,1.5c1.2,0,1.8-1.5,1.8-1.5s0,2.5-2.2,2.5C672.4,353.1,672.1,350.6,672.1,350.6z
			"/>
	</g>
	<g>
		<path class="st4" d="M682,375.5c0,0,0.6,1.8,2.5,1.5c1.2,0,1.8-1.5,1.8-1.5s0,2.5-2.2,2.5C682.3,377.9,682,375.5,682,375.5z"/>
		<path class="st4" d="M678.6,373.6c0,0,0.6,1.8,2.5,1.5c1.2,0,1.8-1.5,1.8-1.5s0,2.5-2.2,2.5C678.9,376.1,678.6,373.6,678.6,373.6z
			"/>
	</g>
	<g>
		<path class="st4" d="M682.9,388.4c0,0,0.6,1.8,2.5,1.5c1.2,0,1.8-1.5,1.8-1.5s0,2.5-2.2,2.5C682.9,390.8,682.9,388.4,682.9,388.4z
			"/>
		<path class="st4" d="M679.5,386.9c0,0,0.6,1.8,2.5,1.5c1.2,0,1.8-1.5,1.8-1.5s0,2.5-2.2,2.5C679.8,389.3,679.5,386.9,679.5,386.9z
			"/>
	</g>
	<g>
		<path class="st4" d="M661.1,378.6c0,0,0.6,1.2,1.8,1.2c0.9,0,1.5-1.2,1.5-1.2s0,1.8-1.5,1.8C661.1,380.4,661.1,378.6,661.1,378.6z
			"/>
		<path class="st4" d="M658.6,377.3c0,0,0.6,1.2,1.8,1.2c0.9,0,1.5-1.2,1.5-1.2s0,1.8-1.5,1.8C658.6,379.5,658.6,377.3,658.6,377.3z
			"/>
	</g>
	<g>
		<path class="st4" d="M629.7,403.1c0,0,5.2-8.9,16.6-11.1c11.1-2.5,16.9,1.8,29.5,1.8s17.5-6.1,28.3-4.6
			c10.8,1.8,17.8,13.5,17.8,13.5L629.7,403.1z"/>
		<path class="st17" d="M718.2,402.5c-2.2-3.7-7.1-9.2-14.7-10.4c-10.1-1.5-15.7,4-27.6,4s-18.1-3.7-28.6-1.5
			c-7.4,1.5-11.4,5.8-13.5,8.3"/>
		<path class="st17" d="M714.8,402.5c-3.1-3.7-6.5-6.5-12.3-7.1c-9.8-1.2-15.7,3.1-27,3.1c-11.4,0-16-3.1-26.1-1.2
			c-5.5,0.9-8.6,3.1-11.1,5.5"/>
		<path class="st17" d="M710.5,402.5c-1.5-1.8-6.1-4.9-11.7-4.6c-8.9,0.3-12.6,3.1-22.7,3.1c-12.6,0-14.4-2.2-23.7-1.2
			c-4.9,0.3-7.7,2.2-8.9,3.1"/>
	</g>
</g>
<g>
	<path class="st4" d="M183.9,62.5l-4.4-1.8c0,0,0,0,0,0c-1-0.1-2-0.4-2.9,0.3c-0.7,0.5-1.1,1.3-1.7,1.9c-4.1,5.3-7.5,9.6-10.1,12.9
		c-0.6,0.8-13.4,7.3-14,8c-4.7,5.9,5.4,3.9,5.1,4.3c-0.8,1.3,20.4,0.3,25,1.3l3.8-24.4C184.5,64.2,184.3,63.3,183.9,62.5z"/>
	<path class="st4" d="M183.9,62.5l-4.4-1.8c0,0,0,0,0,0c-0.9-0.1-1.7-0.3-2.6,0.1c0.3,0,0.5,0.1,0.8,0.1c1.8,0.4,5.2,1.2,4.9,3.7
		c-0.5,4.4-1.8,8.8-2.8,13.2c-0.8,3.8-1.5,7.6-2.4,11.3c1.4,0.1,2.6,0.2,3.3,0.3l3.8-24.4C184.5,64.2,184.3,63.3,183.9,62.5z"/>
	<path class="st11" d="M34.5,96.6c16.7-14.7,20.8-13.8,35.1-13.4c14.3,0.4,55.1,2.4,70.1,2.9c15.1,0.5,30.9,1.6,32.3,1.7
		c0,0,5.2,0.9,11.9,3c0,0,2.9,0.8,4.2,1.5c1.2,0.6,0.5,4-1.4,5.5c-0.4,0.3-5.6,3.5-5.6,3.5s-2.6,1.9-8.5,3.9
		c-5.1,1.7-60.2,12-117.6,10.4C38.7,115,27,107.2,27,103.3C27,99.5,34.5,96.6,34.5,96.6z"/>
	<path class="st11" d="M55.6,114.8C61.8,115,68,115,74,114.9c5-0.7,9.8-1.9,14.5-3.7c6.9-2.5,13.6-5.6,20.6-8.1
		c8.1-2.8,16.5-4.5,24.9-6.1c8.4-1.6,16.8-2.8,25.2-3.7c8.5-0.9,17.3-1.5,25.8-0.4c1.4,0.2,2.9,0.3,4.3,0.5c0-0.4,0.1-0.7,0-1
		c-0.1,0-0.3-0.1-0.4-0.2c-15.5-5.4-32.6-5.1-48.8-3.7c-17.3,1.4-34.5,4.6-51.4,8.7c-15.1,3.6-30.5,8.2-46.2,8.1
		c-3.4,0-11.8-0.2-15-3.3c0,0.1,0,0.3,0,0.4C27.6,106.6,39.3,114.3,55.6,114.8z"/>
	<g>
		<g>
			<path class="st19" d="M59.6,94.1c0.8-1.4,1.3-2.9,1.8-4.4c0.1-0.7,0-1.4-0.7-1.8c-1.4-0.1-2.9-0.2-4.5-0.2c-0.5,0-0.9,0-1.4-0.1
				L48.3,96c2.2,0.3,4.5,0.5,6.6,0.5C57.1,96.4,58.4,96.1,59.6,94.1z"/>
			<path class="st19" d="M36.7,94.7c0,0,6.1-5.7,8-6.5c0.5-0.2,2.1-0.8,9.2-0.8l-6.3,8.4C44.6,95.6,40.3,95.2,36.7,94.7z"/>
		</g>
	</g>
	<g class="st20">
		<g>
			<path class="st19" d="M60.6,91.9c0.3-0.7,0.5-1.4,0.8-2.2c0.1-0.7,0-1.4-0.7-1.8c-1.4-0.1-2.9-0.2-4.5-0.2c-0.5,0-0.9,0-1.4-0.1
				L52,91.2C54.9,91.3,57.8,91.6,60.6,91.9z"/>
			<path class="st19" d="M41.9,91.8c2.2-0.7,4.5-0.7,6.8-0.7c0.8,0,1.7,0,2.5,0.1l2.8-3.7c-7.1-0.1-8.8,0.6-9.2,0.8
				c-1.4,0.6-4.9,3.7-6.8,5.4C39.2,92.9,40.5,92.2,41.9,91.8z"/>
		</g>
	</g>
	<path class="st21" d="M78,104.2c-0.3,0-0.5,0-0.5,0l-4.8-0.2c-2.2-0.8-2-3.5-2-3.5c0-0.3,0.2-8,0.5-9.9c0.3-1.6,1.6-1.8,2.2-1.8
		c0.2,0,0.3,0,0.3,0l2.9,0.1l2.9,0.1l0,0c0.3,0,0.6,0.1,0.8,0.4c0.8,0.8,0.7,2.9,0.7,3c0,0.3-0.1,7.5-0.5,9.8
		C80.1,104,78.6,104.2,78,104.2z M72.8,103.7l4.8,0.2c0,0,0.2,0,0.4,0c0.7,0,1.9-0.2,2.2-1.8c0.4-2.3,0.5-9.7,0.5-9.8
		c0,0,0.1-2-0.6-2.8c-0.2-0.2-0.4-0.3-0.6-0.3l0,0l-2.9-0.1L73.6,89c0,0-0.1,0-0.2,0c-0.6,0-1.7,0.2-1.9,1.6
		c-0.3,1.9-0.5,9.8-0.5,9.9C71,100.5,70.8,103,72.8,103.7z"/>
	<g>
		<g>
			<path class="st21" d="M89.2,95c-0.1,0-0.1,0-0.1,0l-1.3,0l0,0c-0.5-0.2-0.7-0.8-0.6-1c0-0.1,0-2.1,0-2.7c0.1-0.4,0.4-0.6,0.7-0.6
				c0,0,0.1,0,0.1,0l1.5,0c0,0,0,0,0,0c0.1,0,0.2,0,0.3,0.1c0.2,0.3,0.2,0.8,0.2,0.9c0,0.1,0,2-0.1,2.6C89.9,94.8,89.6,95,89.2,95z"
				/>
			<path class="st22" d="M89.1,94.8c-0.1,0-0.1,0-0.1,0l-1.1,0l0,0c-0.5-0.2-0.6-0.7-0.6-0.9c0-0.1,0-1.9,0-2.3
				c0.1-0.4,0.4-0.5,0.6-0.5c0,0,0.1,0,0.1,0l1.3,0c0,0,0,0,0,0c0.1,0,0.2,0,0.3,0.1c0.2,0.2,0.2,0.7,0.2,0.8c0,0.1,0,1.8,0,2.3
				C89.8,94.6,89.5,94.8,89.1,94.8z"/>
			<path class="st23" d="M87.7,92.5h1.8c0-0.2,0-0.3,0-0.3c0-0.1,0-0.5-0.1-0.8c0-0.1-0.1-0.1-0.2-0.1h0l-0.9,0c0,0,0,0,0,0
				c-0.2,0-0.4,0.1-0.4,0.5C87.7,91.9,87.7,92.2,87.7,92.5C87.7,92.5,87.7,92.5,87.7,92.5z"/>
		</g>
		<g>
			<path class="st21" d="M93.7,95c-0.1,0-0.1,0-0.1,0l-1.3,0l0,0c-0.5-0.2-0.7-0.8-0.6-1c0-0.1,0-2.1,0-2.7c0.1-0.4,0.4-0.6,0.7-0.6
				c0,0,0.1,0,0.1,0l1.5,0c0,0,0,0,0,0c0.1,0,0.2,0,0.3,0.1c0.2,0.3,0.2,0.8,0.2,0.9c0,0.1,0,2-0.1,2.6C94.4,94.8,94.1,95,93.7,95z"
				/>
			<path class="st22" d="M93.6,94.8c-0.1,0-0.1,0-0.1,0l-1.1,0l0,0c-0.5-0.2-0.6-0.7-0.6-0.9c0-0.1,0-1.9,0-2.3
				c0.1-0.4,0.4-0.5,0.6-0.5c0,0,0.1,0,0.1,0l1.3,0c0,0,0,0,0,0c0.1,0,0.2,0,0.3,0.1c0.2,0.2,0.2,0.7,0.2,0.8c0,0.1,0,1.8,0,2.3
				C94.2,94.6,94,94.8,93.6,94.8z"/>
			<path class="st23" d="M92.1,92.5h1.8c0-0.2,0-0.3,0-0.3c0-0.1,0-0.5-0.1-0.8c-0.1-0.1-0.1-0.1-0.2-0.1h0l-1,0c0,0,0,0,0,0
				c-0.2,0-0.4,0.1-0.4,0.5C92.1,91.9,92.1,92.2,92.1,92.5C92.1,92.5,92.1,92.5,92.1,92.5z"/>
		</g>
		<g>
			<path class="st21" d="M98.1,95C98,95,98,95,98,95l-1.3,0l0,0c-0.5-0.2-0.7-0.8-0.6-1c0-0.1,0-2.1,0.1-2.7
				c0.1-0.4,0.4-0.6,0.7-0.6c0,0,0.1,0,0.1,0l1.5,0h0c0.1,0,0.2,0,0.3,0.1c0.2,0.3,0.2,0.8,0.2,0.9c0,0.1,0,2-0.1,2.6
				C98.8,94.8,98.5,95,98.1,95z"/>
			<path class="st22" d="M98,94.8c-0.1,0-0.1,0-0.1,0l-1.1,0l0,0c-0.5-0.2-0.6-0.7-0.6-0.9c0-0.1,0-1.9,0-2.3
				c0.1-0.4,0.4-0.5,0.6-0.5c0,0,0.1,0,0.1,0l1.3,0h0c0.1,0,0.2,0,0.3,0.1c0.2,0.2,0.2,0.7,0.2,0.8c0,0.1,0,1.8,0,2.3
				C98.7,94.6,98.4,94.8,98,94.8z"/>
			<path class="st23" d="M96.6,92.5h1.8c0-0.2,0-0.3,0-0.3c0-0.1,0-0.5-0.1-0.8c0-0.1-0.1-0.1-0.2-0.1c0,0,0,0,0,0l-0.9,0
				c0,0,0,0,0,0c-0.2,0-0.4,0.1-0.4,0.5C96.6,91.9,96.6,92.2,96.6,92.5C96.6,92.5,96.6,92.5,96.6,92.5z"/>
		</g>
		<g>
			<path class="st21" d="M102.6,95c-0.1,0-0.1,0-0.1,0l-1.3,0l0,0c-0.5-0.2-0.7-0.8-0.6-1c0-0.1,0-2.1,0.1-2.7
				c0.1-0.4,0.4-0.6,0.7-0.6c0,0,0.1,0,0.1,0l1.5,0c0,0,0,0,0,0c0.1,0,0.2,0,0.3,0.1c0.2,0.3,0.2,0.8,0.2,0.9c0,0.1,0,2-0.1,2.6
				C103.3,94.8,103,95,102.6,95z"/>
			<path class="st22" d="M102.5,94.8c-0.1,0-0.1,0-0.1,0l-1.1,0l0,0c-0.5-0.2-0.6-0.7-0.6-0.9c0-0.1,0-1.9,0-2.3
				c0.1-0.4,0.4-0.5,0.6-0.5c0,0,0.1,0,0.1,0l1.3,0c0,0,0,0,0,0c0.1,0,0.2,0,0.3,0.1c0.2,0.2,0.2,0.7,0.2,0.8c0,0.1,0,1.8,0,2.3
				C103.1,94.6,102.9,94.8,102.5,94.8z"/>
			<path class="st23" d="M101,92.5h1.8c0-0.2,0-0.3,0-0.3c0-0.1,0-0.5-0.1-0.8c-0.1-0.1-0.1-0.1-0.2-0.1h0l-1,0c0,0,0,0,0,0
				c-0.2,0-0.4,0.1-0.4,0.5C101,91.9,101,92.2,101,92.5C101,92.5,101,92.5,101,92.5z"/>
		</g>
		<g>
			<path class="st21" d="M107,95c-0.1,0-0.1,0-0.1,0l-1.3,0l0,0c-0.5-0.2-0.7-0.8-0.6-1c0-0.1,0-2.1,0.1-2.7
				c0.1-0.4,0.4-0.6,0.7-0.6c0,0,0.1,0,0.1,0l1.5,0h0c0.1,0,0.2,0,0.3,0.1c0.2,0.3,0.2,0.8,0.2,0.9c0,0.1,0,2-0.1,2.6
				C107.7,94.8,107.4,95,107,95z"/>
			<path class="st22" d="M106.9,94.8c-0.1,0-0.1,0-0.1,0l-1.1,0l0,0c-0.5-0.2-0.6-0.7-0.6-0.9c0-0.1,0-1.9,0-2.3
				c0.1-0.4,0.4-0.5,0.6-0.5c0,0,0.1,0,0.1,0l1.3,0h0c0.1,0,0.2,0,0.3,0.1c0.2,0.2,0.2,0.7,0.2,0.8c0,0.1,0,1.8,0,2.3
				C107.6,94.6,107.3,94.8,106.9,94.8z"/>
			<path class="st23" d="M105.5,92.5h1.8c0-0.2,0-0.3,0-0.3c0-0.1,0-0.5-0.1-0.8c0-0.1-0.1-0.1-0.2-0.1c0,0,0,0,0,0l-0.9,0
				c0,0,0,0,0,0c-0.2,0-0.4,0.1-0.4,0.5C105.5,91.9,105.5,92.2,105.5,92.5C105.5,92.5,105.5,92.5,105.5,92.5z"/>
		</g>
		<g>
			<path class="st21" d="M111.5,95c-0.1,0-0.1,0-0.1,0l-1.3,0l0,0c-0.5-0.2-0.7-0.8-0.6-1c0-0.1,0-2.1,0.1-2.7
				c0.1-0.4,0.4-0.6,0.7-0.6c0,0,0.1,0,0.1,0l1.5,0h0c0.1,0,0.2,0,0.3,0.1c0.2,0.3,0.2,0.8,0.2,0.9c0,0.1,0,2-0.1,2.6
				C112.2,94.8,111.9,95,111.5,95z"/>
			<path class="st22" d="M111.4,94.8c-0.1,0-0.1,0-0.1,0l-1.1,0l0,0c-0.5-0.2-0.6-0.7-0.6-0.9c0-0.1,0-1.9,0-2.3
				c0.1-0.4,0.4-0.5,0.6-0.5c0,0,0.1,0,0.1,0l1.3,0h0c0.1,0,0.2,0,0.3,0.1c0.2,0.2,0.2,0.7,0.2,0.8c0,0.1,0,1.8,0,2.3
				C112,94.6,111.8,94.8,111.4,94.8z"/>
			<path class="st23" d="M109.9,92.5h1.8c0-0.2,0-0.3,0-0.3c0-0.1,0-0.5-0.1-0.8c-0.1-0.1-0.1-0.1-0.2-0.1c0,0,0,0,0,0l-1,0
				c0,0,0,0,0,0c-0.2,0-0.4,0.1-0.4,0.5C109.9,91.9,109.9,92.2,109.9,92.5C109.9,92.5,109.9,92.5,109.9,92.5z"/>
		</g>
		<g>
			<path class="st21" d="M115.9,95c-0.1,0-0.1,0-0.1,0l-1.3,0l0,0c-0.5-0.2-0.7-0.8-0.6-1c0-0.1,0-2.1,0-2.7
				c0.1-0.4,0.4-0.6,0.7-0.6c0,0,0.1,0,0.1,0l1.5,0c0,0,0,0,0,0c0.1,0,0.2,0,0.3,0.1c0.2,0.3,0.2,0.8,0.2,0.9c0,0.1,0,2-0.1,2.6
				C116.6,94.8,116.3,95,115.9,95z"/>
			<path class="st22" d="M115.8,94.8c-0.1,0-0.1,0-0.1,0l-1.1,0l0,0c-0.5-0.2-0.6-0.7-0.6-0.9c0-0.1,0-1.9,0-2.3
				c0.1-0.4,0.4-0.5,0.6-0.5c0,0,0.1,0,0.1,0l1.3,0h0c0.1,0,0.2,0,0.3,0.1c0.2,0.2,0.2,0.7,0.2,0.8c0,0.1,0,1.8,0,2.3
				C116.5,94.6,116.2,94.8,115.8,94.8z"/>
			<path class="st23" d="M114.4,92.5h1.8c0-0.2,0-0.3,0-0.3c0-0.1,0-0.5-0.1-0.8c-0.1-0.1-0.1-0.1-0.2-0.1h0l-0.9,0c0,0,0,0,0,0
				c-0.2,0-0.4,0.1-0.4,0.5C114.4,91.9,114.4,92.2,114.4,92.5C114.4,92.5,114.4,92.5,114.4,92.5z"/>
		</g>
		<g>
			<path class="st21" d="M120.4,95c-0.1,0-0.1,0-0.1,0l-1.3,0l0,0c-0.5-0.2-0.7-0.8-0.6-1c0-0.1,0-2.1,0-2.7
				c0.1-0.4,0.4-0.6,0.7-0.6c0,0,0.1,0,0.1,0l1.5,0c0,0,0,0,0,0c0.1,0,0.2,0,0.3,0.1c0.2,0.3,0.2,0.8,0.2,0.9c0,0.1,0,2-0.1,2.6
				C121.1,94.8,120.8,95,120.4,95z"/>
			<path class="st22" d="M120.3,94.8c-0.1,0-0.1,0-0.1,0l-1.1,0l0,0c-0.5-0.2-0.6-0.7-0.6-0.9c0-0.1,0-1.9,0-2.3
				c0.1-0.4,0.4-0.5,0.6-0.5c0,0,0.1,0,0.1,0l1.3,0h0c0.1,0,0.2,0,0.3,0.1c0.2,0.2,0.2,0.7,0.2,0.8c0,0.1,0,1.8,0,2.3
				C120.9,94.6,120.7,94.8,120.3,94.8z"/>
			<path class="st23" d="M118.8,92.5h1.8c0-0.2,0-0.3,0-0.3c0-0.1,0-0.5-0.1-0.8c0-0.1-0.1-0.1-0.2-0.1h0l-1,0c0,0,0,0,0,0
				c-0.2,0-0.4,0.1-0.4,0.5C118.8,91.9,118.8,92.2,118.8,92.5C118.8,92.5,118.8,92.5,118.8,92.5z"/>
		</g>
		<g>
			<path class="st21" d="M124.8,95c-0.1,0-0.1,0-0.1,0l-1.3,0l0,0c-0.5-0.2-0.7-0.8-0.6-1c0-0.1,0-2.1,0-2.7
				c0.1-0.4,0.4-0.6,0.7-0.6c0,0,0.1,0,0.1,0l1.5,0h0c0.1,0,0.2,0,0.3,0.1c0.2,0.3,0.2,0.8,0.2,0.9c0,0.1,0,2-0.1,2.6
				C125.5,94.8,125.2,95,124.8,95z"/>
			<path class="st22" d="M124.7,94.8c-0.1,0-0.1,0-0.1,0l-1.1,0l0,0c-0.5-0.2-0.6-0.7-0.6-0.9c0-0.1,0-1.9,0-2.3
				c0.1-0.4,0.4-0.5,0.6-0.5c0,0,0.1,0,0.1,0l1.3,0h0c0.1,0,0.2,0,0.3,0.1c0.2,0.2,0.2,0.7,0.2,0.8c0,0.1,0,1.8,0,2.3
				C125.4,94.6,125.1,94.8,124.7,94.8z"/>
			<path class="st23" d="M123.3,92.5h1.8c0-0.2,0-0.3,0-0.3c0-0.1,0-0.5-0.1-0.8c0-0.1-0.1-0.1-0.2-0.1h0l-0.9,0c0,0,0,0,0,0
				c-0.2,0-0.4,0.1-0.4,0.5C123.3,91.9,123.3,92.2,123.3,92.5C123.3,92.5,123.3,92.5,123.3,92.5z"/>
		</g>
		<g>
			<path class="st21" d="M129.3,95c-0.1,0-0.1,0-0.1,0l-1.3,0l0,0c-0.5-0.2-0.7-0.8-0.6-1c0-0.1,0-2.1,0-2.7
				c0.1-0.4,0.4-0.6,0.7-0.6c0,0,0.1,0,0.1,0l1.5,0h0c0.1,0,0.2,0,0.3,0.1c0.2,0.3,0.2,0.8,0.2,0.9c0,0.1,0,2-0.1,2.6
				C130,94.8,129.7,95,129.3,95z"/>
			<path class="st22" d="M129.2,94.8c-0.1,0-0.1,0-0.1,0l-1.1,0l0,0c-0.5-0.2-0.6-0.7-0.6-0.9c0-0.1,0-1.9,0-2.3
				c0.1-0.4,0.4-0.5,0.6-0.5c0,0,0.1,0,0.1,0l1.3,0h0c0.1,0,0.2,0,0.3,0.1c0.2,0.2,0.2,0.7,0.2,0.8c0,0.1,0,1.8,0,2.3
				C129.8,94.6,129.6,94.8,129.2,94.8z"/>
			<path class="st23" d="M127.7,92.5h1.8c0-0.2,0-0.3,0-0.3c0-0.1,0-0.5-0.1-0.8c0-0.1-0.1-0.1-0.2-0.1c0,0,0,0,0,0l-0.9,0
				c0,0,0,0,0,0c-0.2,0-0.4,0.1-0.4,0.5C127.7,91.9,127.7,92.2,127.7,92.5C127.7,92.5,127.7,92.5,127.7,92.5z"/>
		</g>
		<g>
			<path class="st21" d="M133.7,95c-0.1,0-0.1,0-0.1,0l-1.3,0l0,0c-0.5-0.2-0.7-0.8-0.6-1c0-0.1,0-2.1,0-2.7
				c0.1-0.4,0.4-0.6,0.7-0.6c0,0,0.1,0,0.1,0l1.5,0c0,0,0,0,0,0c0.1,0,0.2,0,0.3,0.1c0.2,0.3,0.2,0.8,0.2,0.9c0,0.1,0,2-0.1,2.6
				C134.4,94.8,134.1,95,133.7,95z"/>
			<path class="st22" d="M133.6,94.8c-0.1,0-0.1,0-0.1,0l-1.1,0l0,0c-0.5-0.2-0.6-0.7-0.6-0.9c0-0.1,0-1.9,0-2.3
				c0.1-0.4,0.4-0.5,0.6-0.5c0,0,0.1,0,0.1,0l1.3,0c0,0,0,0,0,0c0.1,0,0.2,0,0.3,0.1c0.2,0.2,0.2,0.7,0.2,0.8c0,0.1,0,1.8,0,2.3
				C134.3,94.6,134,94.8,133.6,94.8z"/>
			<path class="st23" d="M132.2,92.5h1.8c0-0.2,0-0.3,0-0.3c0-0.1,0-0.5-0.1-0.8c-0.1-0.1-0.1-0.1-0.2-0.1h0l-1,0c0,0,0,0,0,0
				c-0.2,0-0.4,0.1-0.4,0.5C132.2,91.9,132.2,92.2,132.2,92.5C132.2,92.5,132.2,92.5,132.2,92.5z"/>
		</g>
		<g>
			<path class="st21" d="M138.2,95c-0.1,0-0.1,0-0.1,0l-1.3,0l0,0c-0.5-0.2-0.7-0.8-0.6-1c0-0.1,0-2.1,0-2.7
				c0.1-0.4,0.4-0.6,0.7-0.6c0,0,0.1,0,0.1,0l1.5,0h0c0.1,0,0.2,0,0.3,0.1c0.2,0.3,0.2,0.8,0.2,0.9c0,0.1,0,2-0.1,2.6
				C138.9,94.8,138.6,95,138.2,95z"/>
			<path class="st22" d="M138.1,94.8c-0.1,0-0.1,0-0.1,0l-1.1,0l0,0c-0.5-0.2-0.6-0.7-0.6-0.9c0-0.1,0-1.9,0-2.3
				c0.1-0.4,0.4-0.5,0.6-0.5c0,0,0.1,0,0.1,0l1.3,0c0,0,0,0,0,0c0.1,0,0.2,0,0.3,0.1c0.2,0.2,0.2,0.7,0.2,0.8c0,0.1,0,1.8,0,2.3
				C138.7,94.6,138.5,94.8,138.1,94.8z"/>
			<path class="st23" d="M136.6,92.5h1.8c0-0.2,0-0.3,0-0.3c0-0.1,0-0.5-0.1-0.8c-0.1-0.1-0.1-0.1-0.2-0.1h0l-1,0c0,0,0,0,0,0
				c-0.2,0-0.4,0.1-0.4,0.5C136.6,91.9,136.6,92.2,136.6,92.5C136.6,92.5,136.6,92.5,136.6,92.5z"/>
		</g>
		<g>
			<path class="st21" d="M142.6,95c-0.1,0-0.1,0-0.1,0l-1.3,0l0,0c-0.5-0.2-0.7-0.8-0.6-1c0-0.1,0-2.1,0-2.7
				c0.1-0.4,0.4-0.6,0.7-0.6c0,0,0.1,0,0.1,0l1.5,0h0c0.1,0,0.2,0,0.3,0.1c0.2,0.3,0.2,0.8,0.2,0.9c0,0.1,0,2-0.1,2.6
				C143.3,94.8,143,95,142.6,95z"/>
			<path class="st22" d="M142.5,94.8c-0.1,0-0.1,0-0.1,0l-1.1,0l0,0c-0.5-0.2-0.6-0.7-0.6-0.9c0-0.1,0-1.9,0-2.3
				c0-0.4,0.4-0.5,0.6-0.5c0,0,0.1,0,0.1,0l1.3,0h0c0.1,0,0.2,0,0.3,0.1c0.2,0.2,0.2,0.7,0.2,0.8c0,0.1,0,1.8,0,2.3
				C143.2,94.6,142.9,94.8,142.5,94.8z"/>
			<path class="st23" d="M141.1,92.5h1.8c0-0.2,0-0.3,0-0.3c0-0.1,0-0.5-0.1-0.8c-0.1-0.1-0.1-0.1-0.2-0.1h0l-0.9,0c0,0,0,0,0,0
				c-0.2,0-0.4,0.1-0.4,0.5C141.1,91.9,141,92.2,141.1,92.5C141.1,92.5,141.1,92.5,141.1,92.5z"/>
		</g>
		<g>
			<path class="st21" d="M147.1,95c-0.1,0-0.1,0-0.1,0l-1.3,0l0,0c-0.5-0.2-0.7-0.8-0.6-1c0-0.1,0-2.1,0-2.7
				c0.1-0.4,0.4-0.6,0.7-0.6c0,0,0.1,0,0.1,0l1.5,0h0c0.1,0,0.2,0,0.3,0.1c0.2,0.3,0.2,0.8,0.2,0.9c0,0.1,0,2-0.1,2.6
				C147.8,94.8,147.5,95,147.1,95z"/>
			<path class="st22" d="M147,94.8c-0.1,0-0.1,0-0.1,0l-1.1,0l0,0c-0.5-0.2-0.6-0.7-0.6-0.9c0-0.1,0-1.9,0-2.3
				c0.1-0.4,0.4-0.5,0.6-0.5c0,0,0.1,0,0.1,0l1.3,0h0c0.1,0,0.2,0,0.3,0.1c0.2,0.2,0.2,0.7,0.2,0.8c0,0.1,0,1.8,0,2.3
				C147.6,94.6,147.4,94.8,147,94.8z"/>
			<path class="st23" d="M145.5,92.5h1.8c0-0.2,0-0.3,0-0.3c0-0.1,0-0.5-0.1-0.8c0-0.1-0.1-0.1-0.2-0.1c0,0,0,0,0,0l-0.9,0
				c0,0,0,0,0,0c-0.2,0-0.4,0.1-0.4,0.5C145.5,91.9,145.5,92.2,145.5,92.5C145.5,92.5,145.5,92.5,145.5,92.5z"/>
		</g>
		<g>
			<path class="st21" d="M151.5,95c-0.1,0-0.1,0-0.1,0l-1.3,0l0,0c-0.5-0.2-0.7-0.8-0.6-1c0-0.1,0-2.1,0-2.7
				c0.1-0.4,0.4-0.6,0.7-0.6c0,0,0.1,0,0.1,0l1.5,0h0c0.1,0,0.2,0,0.3,0.1c0.2,0.3,0.2,0.8,0.2,0.9c0,0.1,0,2-0.1,2.6
				C152.2,94.8,151.9,95,151.5,95z"/>
			<path class="st22" d="M151.4,94.8c-0.1,0-0.1,0-0.1,0l-1.1,0l0,0c-0.5-0.2-0.6-0.7-0.6-0.9c0-0.1,0-1.9,0-2.3
				c0.1-0.4,0.4-0.5,0.6-0.5c0,0,0.1,0,0.1,0l1.3,0c0,0,0,0,0,0c0.1,0,0.2,0,0.3,0.1c0.2,0.2,0.2,0.7,0.2,0.8c0,0.1,0,1.8,0,2.3
				C152.1,94.6,151.8,94.8,151.4,94.8z"/>
			<path class="st23" d="M150,92.5h1.8c0-0.2,0-0.3,0-0.3c0-0.1,0-0.5-0.1-0.8c-0.1-0.1-0.1-0.1-0.2-0.1h0l-1,0c0,0,0,0,0,0
				c-0.2,0-0.4,0.1-0.4,0.5C150,91.9,149.9,92.2,150,92.5C150,92.5,150,92.5,150,92.5z"/>
		</g>
		<g>
			<path class="st21" d="M156,95c-0.1,0-0.1,0-0.1,0l-1.3,0l0,0c-0.5-0.2-0.7-0.8-0.6-1c0-0.1,0-2.1,0-2.7c0.1-0.4,0.4-0.6,0.7-0.6
				c0,0,0.1,0,0.1,0l1.5,0c0,0,0,0,0,0c0.1,0,0.2,0,0.3,0.1c0.2,0.3,0.2,0.8,0.2,0.9c0,0.1,0,2-0.1,2.6C156.7,94.8,156.4,95,156,95z
				"/>
			<path class="st22" d="M155.9,94.8c-0.1,0-0.1,0-0.1,0l-1.1,0l0,0c-0.5-0.2-0.6-0.7-0.6-0.9c0-0.1,0-1.9,0-2.3
				c0-0.4,0.4-0.5,0.6-0.5c0,0,0.1,0,0.1,0l1.3,0h0c0.1,0,0.2,0,0.3,0.1c0.2,0.2,0.2,0.7,0.2,0.8c0,0.1,0,1.8,0,2.3
				C156.5,94.6,156.3,94.8,155.9,94.8z"/>
			<path class="st23" d="M154.4,92.5h1.8c0-0.2,0-0.3,0-0.3c0-0.1,0-0.5-0.1-0.8c-0.1-0.1-0.1-0.1-0.2-0.1h0l-1,0c0,0,0,0,0,0
				c-0.2,0-0.4,0.1-0.4,0.5C154.4,91.9,154.4,92.2,154.4,92.5C154.4,92.5,154.4,92.5,154.4,92.5z"/>
		</g>
	</g>
	<path class="st24" d="M48,86.9c0,0,5.2-3.3,12.7-3.8c7.5-0.5,66.4,2.4,66.4,2.4l-65.7-0.9c0,0-3.1-0.3-4.5,2.2L48,86.9z"/>
	<path class="st25" d="M38.5,108c0.4-1,0.7-2.1,0.8-3.3c-0.1-3.5-0.9-7.3-3.9-8c0,0-6,1.7-7.4,5.8c0,0-0.7,2.9,8.9,7.7
		C37.5,109.5,38.1,108.9,38.5,108z"/>
	<path class="st24" d="M174.6,95.1c-2.9,0.4-6,0.5-8.7,1.7c-2.5,1.1-4.1,3.4-6.6,4.5c-2.5,1.1-5.4,1.3-8.1,1.7
		c-3.6,0.5-7.2,1-10.8,1.5c-3.9,0.6-7.8,1.1-11.7,1.8c-3.2,0.6-6.6,1.2-9.8,0c-1.6-0.6-3.1-1.6-4.8-2.2c-1.9-0.6-4-0.8-5.9-0.9
		c-4.1-0.2-8.2,0-12.3,0.3c-1.9,0.2-3.9,0.3-5.8,0.6c-1.7,0.3-3.7,0.8-4.7,2.4c-0.9,1.7-0.1,3.6-2.4,4.2c-6.8,1.9-13.9,0.9-20.8,0.3
		c-7.3-0.7-14.6-1.6-21.8-3.2c-3.7-0.9-7.7-1.8-10.9-3.9c-0.7-0.5-1.5-1-2-1.7c0,0.1,0,0.2,0,0.2c0,3.9,11.7,11.7,28.1,12.1
		c57.4,1.7,112.5-8.7,117.6-10.4c6-1.9,8.5-3.9,8.5-3.9s5.1-3.2,5.6-3.5c1.4-1.1,2.1-3.1,2-4.4C184.4,93.5,179.5,94.5,174.6,95.1z"
		/>
	<g>
		<path class="st26" d="M108.9,109.3c0,0-10.3-1.5-16.5-1.2l0.4,15.6l0,0.1l-0.3,1.7c0,0,7.4,0.1,16.5-2c0.9,0,1.9-2.9,1.9-6.8
			C110.9,112.7,109.8,109.3,108.9,109.3z"/>
		<path class="st27" d="M95.7,117.3c2.3,0.1,4.6,0,6.8,0.2c2.7,0.2,5.5,0.5,8.2,0.9c0-0.6,0.1-1.2,0.1-1.8c0-3.9-1.1-7.3-1.9-7.3
			c0,0-10.3-1.5-16.5-1.2l0.2,9C93.7,117.1,94.7,117.2,95.7,117.3z"/>
		<path class="st27" d="M101.4,123.5c-1.7,0.2-3.5,0.4-5.2,0.6c-1.2,0.1-2.3,0.1-3.5,0.1l-0.2,1.2c0,0,7.4,0.1,16.5-2
			c0.3,0,0.6-0.4,0.9-1C107.1,122.7,104.2,123.2,101.4,123.5z"/>
		<path class="st28" d="M94.2,116.7c0,4.8-0.8,8.7-1.8,8.7c-1,0-1.8-3.9-1.8-8.7c0-4.8,0.8-8.6,1.8-8.6
			C93.4,108.1,94.2,111.9,94.2,116.7z"/>
		<g>
			<path class="st29" d="M92.6,111c-0.1-0.2-0.2-0.4-0.3-0.4c-0.5,0-0.9,2.7-0.9,6c0,3.3,0.4,6,0.9,6c0.1,0,0.3-0.2,0.4-0.5
				c-0.4-0.8-0.6-3-0.6-5.6C92,114,92.3,111.9,92.6,111z"/>
			<path class="st29" d="M92.6,111c-0.3,0.9-0.6,3-0.6,5.5c0,2.6,0.3,4.8,0.6,5.6c0.3-0.9,0.6-3,0.6-5.5
				C93.2,114,92.9,111.8,92.6,111z"/>
		</g>
	</g>
	<g>
		<path class="st26" d="M114.9,115.5c0,0-8.7-1.3-13.9-1l0.3,13.2l0,0l-0.3,1.4c0,0,6.3,0.1,13.9-1.7c0.7,0,1.6-2.5,1.6-5.8
			C116.5,118.4,115.6,115.5,114.9,115.5z"/>
		<path class="st27" d="M103.7,122.3c1.9,0.1,3.8,0,5.8,0.2c2.3,0.2,4.6,0.4,6.9,0.7c0-0.5,0.1-1,0.1-1.5c0-3.3-0.9-6.1-1.6-6.1
			c0,0-8.7-1.3-13.9-1l0.2,7.6C102,122.1,102.9,122.2,103.7,122.3z"/>
		<path class="st27" d="M108.5,127.6c-1.5,0.2-2.9,0.3-4.4,0.5c-1,0.1-2,0.1-3,0.1l-0.2,1c0,0,6.3,0.1,13.9-1.7
			c0.3,0,0.5-0.3,0.8-0.9C113.3,126.9,110.9,127.3,108.5,127.6z"/>
		<path class="st28" d="M102.5,121.8c0,4-0.7,7.3-1.5,7.3c-0.8,0-1.5-3.3-1.5-7.3c0-4,0.7-7.3,1.5-7.3
			C101.8,114.5,102.5,117.8,102.5,121.8z"/>
		<g>
			<path class="st29" d="M101.1,117c-0.1-0.2-0.2-0.3-0.3-0.3c-0.4,0-0.8,2.3-0.8,5.1c0,2.8,0.4,5.1,0.8,5.1c0.1,0,0.2-0.2,0.3-0.4
				c-0.3-0.7-0.5-2.6-0.5-4.7C100.6,119.5,100.8,117.8,101.1,117z"/>
			<path class="st29" d="M101.1,117c-0.3,0.8-0.5,2.6-0.5,4.6c0,2.2,0.2,4,0.5,4.7c0.3-0.8,0.5-2.6,0.5-4.6
				C101.6,119.5,101.4,117.7,101.1,117z"/>
		</g>
	</g>
	<g>
		<path class="st27" d="M111.1,103.6H89.7c0,0-5.6,0.4-2.9,3.1c2.6,2.7,28.2,16.2,28.2,16.2s2.5,1.3,6,1.5c0,0,15.9,1.1,12.3-2
			c-3.7-3.1-16.5-16.4-16.5-16.4S113.8,103.5,111.1,103.6z"/>
		<path class="st30" d="M111.1,103.6H89.7c0,0-5.6,0.4-2.9,3.1c2.6,2.7,28.2,16.2,28.2,16.2s2.5,1.3,6,1.5c0,0,15.9,1.1,12.3-2
			c-3.7-3.1-16.5-16.4-16.5-16.4S113.8,103.5,111.1,103.6z"/>
		<path class="st31" d="M133.2,122.4c-3.7-3.1-16.5-16.4-16.5-16.4s-2.9-2.5-5.6-2.4h-2.5c2.8,1,5,2.8,7.3,4.8c3.4,3,6.6,6,10,9
			c1.4,1.2,2.8,2.3,4,3.7c0.7,0.7,1.5,1.5,1.4,2.6c0,0.2-0.1,0.4-0.2,0.6C133.3,124.1,134.5,123.5,133.2,122.4z"/>
		<path class="st32" d="M92.9,104.3c0,0-6.5-0.2-4.2,1.9c2.3,2.1,23.6,14.3,23.6,14.3s4.7,3.3,8.6,2.9c0,0-4.7-1.5-7.2-3.5
			c-2.4-2-20-12.9-20-12.9S90.3,105.1,92.9,104.3z"/>
	</g>
	<path class="st4" d="M182.4,98.6l-13.8,1.5c0,0-1.6,0.3-2.4,1.4c-0.5,0.7-0.8,2.2,0.2,2.8c2,1.1,20.2,5.1,20.2,5.1s3.8,0.6,6.4-0.4
		c0,0,7.7-1.3,5-2.6c-2.6-1.3-12-7.2-12-7.2S184.1,98.3,182.4,98.6z"/>
	<path class="st33" d="M182.9,98l-13.8,1.5c0,0-4.2,1.1-1.5,2.6c2,1.1,19.4,5.9,19.4,5.9s1.7,0.5,4,0.2c0,0,10.3-1,7.7-2.3
		c-2.6-1.3-12-7.2-12-7.2S184.6,97.7,182.9,98z"/>
</g>
<g id="clouds_left">
	<path class="st3" d="M254.2,138.3h4.3l0,0l0,0c0.9,0,1.7,0.9,1.7,1.7l0,0c0,0.9-0.9,1.7-1.7,1.7l0,0l0,0h-24.1
		c-0.9,0-1.7,0.9-1.7,1.7l0,0c0,0.9,0.9,1.7,1.7,1.7h20.2l0,0h1.3c0.9,0,1.7,0.9,1.7,1.7l0,0c0,0.9-0.9,1.7-1.7,1.7h-1.3l0,0h-3
		c-0.9,0-1.7,0.9-1.7,1.7l0,0c0,0.9,0.9,1.7,1.7,1.7h21.9c0.9,0,1.7-0.9,1.7-1.7l0,0c0-0.9-0.9-1.7-1.7-1.7h-2.1h-0.4h-0.9
		c-0.9,0-1.7-0.9-1.7-1.7l0,0c0-0.9,0.9-1.7,1.7-1.7h8.2c0.9,0,1.3-0.9,1.3-1.7l0,0c0-0.9-0.9-1.7-1.7-1.7h-10.3l0,0h-0.9
		c-0.9,0-1.7-0.9-1.7-1.7l0,0c0-0.9,0.9-1.7,1.7-1.7l0,0H286c0.4,0,0.9-0.9,0.9-1.3v-0.9c0-0.4-0.9-1.3-1.3-1.3h-19.3h-1.3h-11.2
		c-0.9,0-1.3,0.4-1.3,1.3v0.4C252.5,137.5,253.3,138.3,254.2,138.3z"/>
	<path class="st3" d="M182.9,162.8h-15l0,0l0,0c-0.9,0-1.7-0.9-1.7-1.7l0,0c0-0.9,0.9-1.7,1.7-1.7l0,0l0,0h6.4
		c0.9,0,1.7-0.9,1.7-1.7l0,0c0-0.9-0.9-1.7-1.7-1.7h-3l0,0H170c-0.9,0-1.7-0.9-1.7-1.7l0,0c0-0.9,0.9-1.7,1.7-1.7h1.3l0,0h6.4
		c0.9,0,1.7-0.9,1.7-1.7l0,0c0-0.9-0.9-1.7-1.7-1.7h-24.5c-0.9,0-1.7,0.9-1.7,1.7l0,0c0,0.9,0.9,1.7,1.7,1.7h2.1h0.4h0.9
		c0.9,0,1.7,0.9,1.7,1.7l0,0c0,0.9-0.9,1.7-1.7,1.7h-13.3c-0.9,0-1.3,0.9-1.3,1.7l0,0c0,0.9,0.9,1.7,1.7,1.7h15.5l0,0h0.9
		c0.9,0,1.7,0.9,1.7,1.7l0,0c0,0.9-0.9,1.7-1.7,1.7l0,0c-0.4,0-0.9,0.4-0.9,0.9v1.3c0,0.4,0.4,0.9,0.9,0.9h1.3h21.5
		c0.9,0,1.3-0.4,1.3-1.3v-0.4C184.1,163.2,183.7,162.8,182.9,162.8z"/>
	<path class="st3" d="M324.2,171.8h-2.6l0,0h-1.3c-0.9,0-1.3-0.4-1.3-1.3l0,0c0-0.9,0.4-1.3,1.3-1.3h1.3l0,0h5.6
		c0.9,0,1.3-0.4,1.3-1.3l0,0c0-0.9-0.4-1.3-1.3-1.3h-33.1c-0.9,0-1.3,0.4-1.3,1.3l0,0c0,0.9,0.4,1.3,1.3,1.3h13.3h0.4h0.9
		c0.9,0,1.3,0.4,1.3,1.3l0,0c0,0.9-0.4,1.3-1.3,1.3h-7.3c-0.4,0-1.3,0.9-1.3,1.3l0,0c0,0.9,0.4,1.3,1.3,1.3h22.3
		c0.9,0,1.3-0.4,1.3-1.3l0,0C325.5,172.3,325.1,171.8,324.2,171.8z"/>
</g>
<g id="clouds_left_1_">
	<path class="st3" d="M586.9,108h4.3l0,0l0,0c0.9,0,1.7,0.9,1.7,1.7l0,0c0,0.9-0.9,1.7-1.7,1.7l0,0l0,0h-24.1
		c-0.9,0-1.7,0.9-1.7,1.7l0,0c0,0.9,0.9,1.7,1.7,1.7h20.2l0,0h1.3c0.9,0,1.7,0.9,1.7,1.7l0,0c0,0.9-0.9,1.7-1.7,1.7h-1.3l0,0h-3
		c-0.9,0-1.7,0.9-1.7,1.7l0,0c0,0.9,0.9,1.7,1.7,1.7h21.9c0.9,0,1.7-0.9,1.7-1.7l0,0c0-0.9-0.9-1.7-1.7-1.7h-2.1h-0.4h-0.9
		c-0.9,0-1.7-0.9-1.7-1.7l0,0c0-0.9,0.9-1.7,1.7-1.7h8.2c0.9,0,1.3-0.9,1.3-1.7l0,0c0-0.9-0.9-1.7-1.7-1.7h-10.3l0,0h-0.9
		c-0.9,0-1.7-0.9-1.7-1.7l0,0c0-0.9,0.9-1.7,1.7-1.7l0,0h19.3c0.4,0,0.9-0.9,0.9-1.3v-0.9c0-0.4-0.9-1.3-1.3-1.3h-19.3h-1.3h-11.2
		c-0.9,0-1.3,0.4-1.3,1.3v0.4C585.2,107.2,586.1,108,586.9,108z"/>
	<path class="st3" d="M515.6,132.5h-15l0,0l0,0c-0.9,0-1.7-0.9-1.7-1.7l0,0c0-0.9,0.9-1.7,1.7-1.7l0,0l0,0h6.4
		c0.9,0,1.7-0.9,1.7-1.7l0,0c0-0.9-0.9-1.7-1.7-1.7h-3l0,0h-1.3c-0.9,0-1.7-0.9-1.7-1.7l0,0c0-0.9,0.9-1.7,1.7-1.7h1.3l0,0h6.4
		c0.9,0,1.7-0.9,1.7-1.7l0,0c0-0.9-0.9-1.7-1.7-1.7h-24.5c-0.9,0-1.7,0.9-1.7,1.7l0,0c0,0.9,0.9,1.7,1.7,1.7h2.1h0.4h0.9
		c0.9,0,1.7,0.9,1.7,1.7l0,0c0,0.9-0.9,1.7-1.7,1.7h-13.3c-0.9,0-1.3,0.9-1.3,1.7l0,0c0,0.9,0.9,1.7,1.7,1.7H492l0,0h0.9
		c0.9,0,1.7,0.9,1.7,1.7l0,0c0,0.9-0.9,1.7-1.7,1.7l0,0c-0.4,0-0.9,0.4-0.9,0.9v1.3c0,0.4,0.4,0.9,0.9,0.9h1.3h21.5
		c0.9,0,1.3-0.4,1.3-1.3v-0.4C516.9,132.9,516.5,132.5,515.6,132.5z"/>
	<path class="st3" d="M656.9,141.5h-2.6l0,0h-1.3c-0.9,0-1.3-0.4-1.3-1.3l0,0c0-0.9,0.4-1.3,1.3-1.3h1.3l0,0h5.6
		c0.9,0,1.3-0.4,1.3-1.3l0,0c0-0.9-0.4-1.3-1.3-1.3h-33.1c-0.9,0-1.3,0.4-1.3,1.3l0,0c0,0.9,0.4,1.3,1.3,1.3h13.3h0.4h0.9
		c0.9,0,1.3,0.4,1.3,1.3l0,0c0,0.9-0.4,1.3-1.3,1.3h-7.3c-0.4,0-1.3,0.9-1.3,1.3l0,0c0,0.9,0.4,1.3,1.3,1.3h22.3
		c0.9,0,1.3-0.4,1.3-1.3l0,0C658.2,142,657.8,141.5,656.9,141.5z"/>
</g>
<g>
	<g>
		<g>
			<polygon class="st11" points="459.8,125.1 557.2,125.1 527.7,94.7 557.2,61.6 459.8,61.6 			"/>
		</g>
	</g>
	<g>
		<rect x="224.2" y="61.6" class="st11" width="288.9" height="63.5"/>
	</g>
</g>
<g>
	<path class="st34" d="M454.6,108c1.6-0.4,3.1-0.7,4.5-1c0.1,0.1,0.2,0.2,0.2,0.3c0.5,3.5,3.3,6.5,8.7,5.7c3.6-0.6,5.4-2.9,5.6-7
		c0.1-1.4,0-2.7,0-4.1c-0.1,0-0.2,0-0.2,0c-3,4.7-10.5,4.7-14.8,1.1c-5.7-4.8-5.3-15.1,0.8-19.4c3.1-2.2,6.6-2.6,10.3-1.5
		c1.6,0.5,2.5,1.3,3.9,3.2c0-0.7,0-1.2,0-1.7c0-0.5,0-0.9,0-1.5c1.6,0,3.2,0,4.8,0c0,0.4,0,0.7,0,1c0,7.3,0,14.6,0,21.9
		c0,1.4-0.2,2.9-0.5,4.2c-1.2,4.7-4.8,7.6-9.6,8c-2.9,0.3-5.6,0.1-8.2-1.3c-2.7-1.4-4.5-3.6-5.2-6.6
		C454.7,108.9,454.7,108.5,454.6,108z M473.8,93.5c-0.1-0.7-0.1-1.5-0.3-2.2c-0.6-3.4-3.2-5.6-6.6-5.8c-3.3-0.2-6.1,1.8-7,5.2
		c-0.3,1.1-0.4,2.3-0.4,3.5c0.4,6.6,5.6,8.1,9.4,6.9C472,100.1,473.8,97.2,473.8,93.5z"/>
	<path class="st35" d="M353.2,106.5c-1.8,0.5-3.6,0.6-5.3,0.2c-2.7-0.6-4.6-2.7-4.7-5.5c-0.2-4.5-0.1-9-0.1-13.5c0-0.4,0-0.9,0-1.4
		c-1.6,0-3.1,0-4.6,0c0-1.5,0-2.9,0-4.4c0.5,0,1,0,1.6,0c2.2-0.2,3.4-1.4,3.5-3.6c0-1.4,0-2.8,0-4.2c0.3,0,0.5-0.1,0.6-0.1
		c1.2,0,2.5,0,3.8,0c0,2.6,0,5.2,0,7.7c2.4,0,4.6,0.1,6.9,0c1.5-0.1,2.4-1.4,2.5-3c0.1-1.5,0-3.1,0-4.6c1.6,0,3,0,4.5,0
		c0,2.6,0,5.2,0,7.8c1.8,0,3.5,0,5.3,0c0,1.5,0,2.9,0,4.4c-1.7,0-3.4,0-5.3,0c0,0.4,0,0.8,0,1.1c0,3.7,0,7.5,0,11.2
		c0,3.3,1.2,4.3,4.5,3.9c0.2,0,0.5-0.1,0.8-0.1c0,1.4,0,2.7,0,4.1c-1.7,0.5-3.5,0.6-5.2,0.2c-2.8-0.6-4.7-2.8-4.8-5.8
		c-0.1-4.2-0.1-8.5-0.1-12.8c0-0.6,0-1.2,0-1.8c-3,0-6,0-9,0c0,4.6,0,9.1,0,13.6c0,1.4,0.8,2.2,2.2,2.4c0.5,0.1,1,0.1,1.5,0.1
		c0.5,0,0.9-0.1,1.5-0.2C353.2,103.8,353.2,105.1,353.2,106.5z"/>
	<path class="st36" d="M291.8,103.1c0,1.4,0,2.4,0,3.5c-1.6,0-3.1,0-4.7,0c0-12.4,0-24.8,0-37.2c1.5,0,3.1,0,4.7,0
		c0,5.2,0,10.4,0,16c1.5-2.2,3.3-3.3,5.5-3.9c6.8-1.7,12.8,2.4,13.9,9.4c0.5,3.4,0.3,6.7-1.1,9.9c-2.4,5.3-8.2,7.8-13.7,6
		C294.6,106.2,293.1,105,291.8,103.1z M291.5,94.2c0.4,1.6,0.7,3.3,1.4,4.9c1.2,2.7,3.5,4.1,6.5,3.9c3-0.1,5.1-1.7,6.2-4.5
		c1.1-2.8,1.1-5.6,0.2-8.4c-1-2.8-3.3-4.6-6.1-4.7c-3.3-0.1-5.8,1.3-7,4.3C292.2,91.1,292,92.6,291.5,94.2z"/>
	<path class="st36" d="M337.7,95.6c-6.4,0-12.5,0-18.6,0c-0.5,2.7,1.6,6,4.6,7.1c4,1.5,7.3,0,9.7-4.5c1.3,0.5,2.7,0.9,4,1.4
		c-1.1,4.3-5.4,7.6-10.2,7.8c-7.4,0.4-13-4.8-13.3-12.2c-0.2-3.7,0.7-7.2,3.1-10c3.4-3.9,7.7-5,12.6-3.5c4.7,1.4,7,4.9,7.7,9.6
		C337.6,92.6,337.6,94.1,337.7,95.6z M332.5,91.7c0.1-3.6-2.6-6.2-6.5-6.3c-3.9-0.1-6.9,2.7-6.9,6.3C323.5,91.7,328,91.7,332.5,91.7
		z"/>
	<path class="st36" d="M391.6,95.6c-6.4,0-12.6,0-18.7,0c-0.2,3.3,2,6.3,5.3,7.2c3.9,1.1,6.8-0.4,9.1-4.7c1.3,0.5,2.7,0.9,4,1.4
		c-0.9,3.7-4.5,6.9-8.6,7.6c-8.4,1.5-16-4.7-14.8-14.8c0.6-5,3.1-8.8,7.9-10.6c7.1-2.7,14.5,1.8,15.5,9.3
		C391.5,92.6,391.5,94,391.6,95.6z M386.4,91.7c0.1-3.7-2.7-6.3-6.7-6.3c-3.7,0-6.8,2.9-6.7,6.3C377.5,91.7,381.9,91.7,386.4,91.7z"
		/>
	<path class="st34" d="M452.9,87.7c-1.5,0.5-2.8,1-4.2,1.6c-0.1-0.3-0.2-0.5-0.3-0.7c-1-2.8-4.1-4.2-6.9-3c-1.4,0.6-2.3,1.8-2.2,3.1
		c0.1,1.3,0.9,2.3,2.5,2.7c1.6,0.4,3.2,0.7,4.8,1.1c2.7,0.7,4.9,2,5.9,4.7c1.3,3.4-0.3,7.2-3.6,9.1c-3.6,1.9-9,1.4-12.1-1.1
		c-1.5-1.2-2.5-2.8-3-4.9c1.4-0.5,2.8-1,4.2-1.5c0.1,0.2,0.2,0.4,0.3,0.5c1,3.3,4.5,5,7.7,3.7c1.3-0.5,2.1-1.4,2.2-2.9
		c0-1.4-0.7-2.4-2-2.8c-1.6-0.5-3.3-0.8-4.9-1.2c-0.8-0.2-1.7-0.4-2.5-0.8c-4.2-1.9-5.5-6.7-2.8-10.4c2.1-2.9,5-4,8.4-3.7
		c3.6,0.3,6.4,1.7,8,5.1C452.5,86.7,452.7,87.2,452.9,87.7z"/>
	<path class="st37" d="M393.9,106.6c0-8.2,0-16.4,0-24.7c1.5,0,3,0,4.6,0c0,1.2,0,2.5,0,3.5c1.3-1.1,2.5-2.3,3.9-3.2
		c1.5-0.9,3.3-0.9,5.1-0.7c0,1.7,0,3.4,0,5.2c-0.7,0-1.3-0.1-2-0.1c-4.1,0-6.6,2.3-6.8,6.5c-0.1,4.1,0,8.2-0.1,12.3
		c0,0.4,0,0.8,0,1.2C397.1,106.6,395.6,106.6,393.9,106.6z"/>
	<path class="st38" d="M410.7,80.4c0-1.9,1.5-3.4,3.4-3.5c1.8-0.1,3.5,1.3,3.7,3.2c0.1,0.9,0.4,1.4,1.1,1.9c2.5,1.9,4.9,3.9,7.4,5.9
		c0.5,0.4,0.9,0.6,1.6,0.4c1.4-0.4,2.9,0.2,3.8,1.4c0.8,1.2,0.9,2.7,0.1,3.9c-0.8,1.3-2,1.8-3.6,1.7c-0.4,0-0.9,0.1-1.3,0.3
		c-1.7,1.3-3.4,2.7-5.1,4c-1.1,0.9-2.1,0.9-2.8,0.1c-0.7-0.8-0.5-1.9,0.7-2.8c1.6-1.3,3.2-2.5,4.7-3.8c1-0.8,1-1.6,0-2.4
		c-2.6-2.1-5.3-4.2-7.9-6.3c-0.4-0.3-1-0.4-1.4-0.3C412.7,84.4,410.6,82.7,410.7,80.4z"/>
	<path class="st39" d="M410.7,103.3c0-2,1.6-3.6,3.6-3.6c1.9,0,3.6,1.6,3.6,3.6c0,2-1.7,3.7-3.6,3.6
		C412.2,106.9,410.7,105.3,410.7,103.3z"/>
</g>
<g>
	<line class="st40" x1="676.2" y1="416.6" x2="589.1" y2="416.6"/>
	<line class="st40" x1="649.8" y1="416.6" x2="736.7" y2="416.6"/>
	<line class="st41" x1="638" y1="424.2" x2="676" y2="424.2"/>
	<line class="st41" x1="680.4" y1="424.2" x2="742.7" y2="424.2"/>
	<line class="st40" x1="615.8" y1="432.3" x2="702.7" y2="432.3"/>
</g>
<g>
	<line class="st40" x1="536.4" y1="428.4" x2="449.3" y2="428.4"/>
	<line class="st40" x1="510" y1="428.4" x2="596.9" y2="428.4"/>
	<line class="st41" x1="498.2" y1="436" x2="536.2" y2="436"/>
	<line class="st41" x1="540.6" y1="436" x2="602.9" y2="436"/>
	<line class="st40" x1="476" y1="444.1" x2="562.9" y2="444.1"/>
</g>
<g>
	<line class="st40" x1="354.9" y1="408.7" x2="267.7" y2="408.7"/>
	<line class="st40" x1="328.5" y1="408.7" x2="415.4" y2="408.7"/>
	<line class="st41" x1="316.7" y1="416.3" x2="354.6" y2="416.3"/>
	<line class="st41" x1="359.1" y1="416.3" x2="421.4" y2="416.3"/>
	<line class="st40" x1="294.4" y1="424.5" x2="381.3" y2="424.5"/>
</g>
<g>
	<g>
		<line class="st42" x1="119.6" y1="412" x2="127.4" y2="412"/>
		<line class="st43" x1="132.9" y1="412" x2="200.5" y2="412"/>
		<line class="st42" x1="211.9" y1="412" x2="219.4" y2="412"/>
	</g>
</g>
<line class="st44" x1="142.3" y1="420.2" x2="201.6" y2="420.2"/>
<g>
	<g>
		<g>
			<line class="st45" x1="173.3" y1="431.6" x2="181.4" y2="431.6"/>
			<line class="st46" x1="187.5" y1="431.6" x2="260" y2="431.6"/>
			<line class="st45" x1="272.3" y1="431.6" x2="280.3" y2="431.6"/>
		</g>
	</g>
	<line class="st44" x1="188.2" y1="438.2" x2="247.5" y2="438.2"/>
</g>
</svg>
