<?xml version="1.0" encoding="utf-8"?>
<!-- Generator: Adobe Illustrator 22.1.0, SVG Export Plug-In . SVG Version: 6.00 Build 0)  -->
<svg version="1.1" xmlns="http://www.w3.org/2000/svg" xmlns:xlink="http://www.w3.org/1999/xlink" x="0px" y="0px"
	 viewBox="0 0 300 300" style="enable-background:new 0 0 300 300;" xml:space="preserve">
<style type="text/css">
	.st0{fill:#555A6E;}
	.st1{fill:none;stroke:#555A6E;stroke-width:5;stroke-miterlimit:10;}
	.st2{fill:#BCB6C0;}
	.st3{fill:none;stroke:#555A6E;stroke-width:3;stroke-miterlimit:10;}
</style>
<g id="Layer_1">
</g>
<g id="Layer_2">
	<g>
		<g>
			<path class="st0" d="M465.5,249.5c1.9,0,1.9-3,0-3C463.6,246.5,463.6,249.5,465.5,249.5L465.5,249.5z"/>
		</g>
	</g>
	<g>
		<circle class="st0" cx="169.4" cy="90.8" r="5.1"/>
		<circle class="st0" cx="169.4" cy="128.7" r="5.1"/>
		<circle class="st0" cx="208.1" cy="128.7" r="5.1"/>
		<circle class="st0" cx="208.1" cy="165.8" r="5.1"/>
		<circle class="st0" cx="169.4" cy="165.8" r="5.1"/>
		<circle class="st0" cx="169.4" cy="205.4" r="5.1"/>
		<circle class="st0" cx="128.1" cy="165.8" r="5.1"/>
		<circle class="st0" cx="91.1" cy="128.7" r="5.1"/>
		<circle class="st0" cx="91.1" cy="165.8" r="5.1"/>
		<circle class="st0" cx="128.1" cy="206.2" r="5.1"/>
		<polyline class="st1" points="168.6,90 208.1,129.5 128.1,205.4 		"/>
		<line class="st1" x1="208.1" y1="165.8" x2="169" y2="204.9"/>
		<line class="st1" x1="169.4" y1="128.7" x2="128.1" y2="165.8"/>
		<g>
			<circle class="st2" cx="128.1" cy="121.2" r="3.4"/>
			<rect x="122.6" y="126.1" class="st2" width="11.4" height="11.4"/>
		</g>
		<g>
			<circle class="st2" cx="208.1" cy="198.7" r="3.4"/>
			<rect x="202.7" y="203.6" class="st2" width="11.4" height="11.4"/>
		</g>
		<g>
			<circle class="st0" cx="128.1" cy="82.4" r="3.4"/>
			<rect x="122.6" y="87.4" class="st0" width="11.4" height="11.4"/>
		</g>
		<g>
			<circle class="st0" cx="92.7" cy="196.2" r="3.4"/>
			<rect x="87.3" y="201.1" class="st0" width="11.4" height="11.4"/>
		</g>
		<circle class="st2" cx="208.1" cy="91.6" r="5.1"/>
		<circle class="st2" cx="91.1" cy="91.6" r="5.1"/>
		<line class="st1" x1="128.1" y1="93.3" x2="91.1" y2="128.7"/>
	</g>
	<circle class="st3" cx="150" cy="148" r="129.5"/>
</g>
</svg>
