<?xml version="1.0" encoding="utf-8"?>
<!-- Generator: Adobe Illustrator 22.1.0, SVG Export Plug-In . SVG Version: 6.00 Build 0)  -->
<svg version="1.1" id="_x32_71e5882-3c8d-41ed-8a0a-1cb2b4d0cbc1"
	 xmlns="http://www.w3.org/2000/svg" xmlns:xlink="http://www.w3.org/1999/xlink" x="0px" y="0px" viewBox="0 0 1137.7 859.7"
	 style="enable-background:new 0 0 1137.7 859.7;" xml:space="preserve">
<style type="text/css">
	.st0{opacity:0.1;fill:#E20817;enable-background:new    ;}
	.st1{fill:url(#SVGID_1_);}
	.st2{fill:#D38884;}
	.st3{fill:#2F2E41;}
	.st4{fill:#332326;}
	.st5{opacity:0.1;enable-background:new    ;}
	.st6{fill:#E20817;}
	.st7{fill:#67647E;}
	.st8{fill:#6B6B6B;}
	.st9{fill:#865A61;}
	.st10{fill:#E1E7EF;}
	.st11{fill:url(#SVGID_2_);}
	.st12{fill:#A27772;}
	.st13{fill:#CC818C;}
	.st14{opacity:0.1;}
	.st15{fill:#585268;}
	.st16{fill:#F6F8FB;}
	.st17{fill:#FBBEBE;}
	.st18{fill:#E0E0E0;}
	.st19{opacity:5.000000e-02;enable-background:new    ;}
	.st20{fill:#7C5C5C;}
	.st21{fill:url(#SVGID_3_);}
	.st22{fill:#FDC2CC;}
	.st23{fill:#D39999;}
	.st24{fill:#444053;}
	.st25{fill:#65617D;}
	.st26{opacity:5.000000e-02;}
	.st27{fill:#060606;}
	.st28{fill:#F23A44;}
</style>
<circle class="st0" cx="601.4" cy="410.4" r="320.5"/>
<title>team spirit</title>
<linearGradient id="SVGID_1_" gradientUnits="userSpaceOnUse" x1="526.9741" y1="742.16" x2="526.9741" y2="1333.5093" gradientTransform="matrix(1 0 0 -1 -31.16 1399.86)">
	<stop  offset="0" style="stop-color:#808080;stop-opacity:0.25"/>
	<stop  offset="0.54" style="stop-color:#808080;stop-opacity:0.12"/>
	<stop  offset="1" style="stop-color:#808080;stop-opacity:0.1"/>
</linearGradient>
<path class="st1" d="M591.7,247.6c-2.2-14.5-15.4-48.5-15.4-48.5l0,0c-0.2-1-0.5-2-0.8-3c-9.4-32.2-22.3-35-22.3-35l-46.5-10
	c0.4,0.2,0.7,0.6,1,0.9c-0.2,0-0.5,0.1-0.7,0.1c-2.1-2.5-3.5-5.6-4.1-8.8c-0.1-0.5-0.2-1-0.2-1.5c12.9-12.6,13.2-33.3,0.6-46.2
	c-1-1-2.1-2-3.3-2.9c-0.5-0.4-1-0.8-1.5-1.1c2.2-2.3,2.3-5.6,0.6-8.8c-3.7-7.6-11.6-12.4-19.8-14.8c-6.2-1.8-13-2.4-19.2-0.4
	c-3.5,1.1-6.8,3-10.1,4.7c-6.2,3.1-13,5.5-17.6,10.6c-1.1,1.2-2.1,2.7-1.8,4.2c0.2,1.2,1.2,2.1,1.8,3.1c1.3,2.3,1,5.2,0.1,7.7
	s-2.2,4.9-2.9,7.4s-0.4,5.6,1.5,7.5c0.9,0.7,1.9,1.4,2.9,2c1.1,0.9,2,2,2.8,3.1c1.8,2.5,3.7,4.9,5.5,7.4c2.6,3.3,4.9,6.8,6.9,10.5
	c1.4,2.7,2.4,5.6,4.3,8c0.5,0.7,1.2,1.4,1.8,1.9l-0.5-0.2c1.6,1.6,3.8,2.5,6.1,2.5l0,0c0.1,0,0.2,0,0.3,0c0.4,0,0.8-0.2,1.1-0.5
	c0,0.3,0,0.7,0,1c0.1,3.6,0.1,7.4-0.2,10.9l-0.4-0.2c-1.3-0.6-2.9-0.5-4,0.4l-42.8,34.3c0,0-9.3,12.7-8,34.7l-7.5,32.9
	c0,0-9.4,27.9-2.2,47.9s11.4,31.4,11.4,31.4s2.9,22.7,7.2,24.5s6.2,2.8,6.2,2.8l0.9,5.4l0,0c0,0,0.3,0.5,0.8,1.4
	c3.1,5.5,14.8,24.8,21.6,22.8c0.9,5.3,1.2,10.6,1.1,15.9l6.7,45c0,0,4.7,12.2,4.4,18.7s5.5,15.6,5.5,15.6c-3.5,6.4-4.5,13.8-2.9,21
	c2.7,12,6.2,67.3,6.2,67.3l5,13.4l-0.1,15.7c-0.4,2.6-1.5,5-3.1,7c-3.2,3.5-3,7.6-10.8,12.4s-12.8,6.6-12.8,13
	c0,0.9-0.1,1.8-0.2,2.7c-0.7,4.7-2.1,7.2,12.2,8.6c16.9,1.6,28.1-9.4,28.1-9.4s2.5-4.5,14.2-6.3c0,0,4-0.2,4.2-3.7
	c0.1-1.2,0.1-3.5,0-6.1c-0.2-4.9-0.7-10.6-1.3-10.9c-0.8-0.3-2.1-5.3-2.6-7h3.2c0,0,3-22.7,0-37.3s-0.3-25.1-0.3-25.1l-0.6-38.8
	c0,0-4-4.3-0.9-11.8s0-44.9,0-44.9s1.2-13.4,4.5-16.5s0.2-19.6,0-20.5l5.9,19.8c0,0,2.6,39.3,8.1,46.5l1.6,17.8
	c0,0,11.2,16.4,9.1,25.2s2.3,40.8,2.3,40.8v32.7c0,0-5,13.1,2,17.8l3-0.1c-1,0.9-1.8,2.3-2.9,3.5c-1.3,1.4-2.1,6.7-2.5,11.2
	c-0.4,3.8-0.5,7.2-0.5,7.2s3,4.8,8.7,5.1s24.3,14.5,24.3,14.5s18.4,0,23.2-1l0.3-0.1c1.5-0.5,2.8-1.5,3.6-2.9c1-1.6,1.3-3.5,0.9-5.4
	c-0.6-2.8-2.8-5.9-7.8-8.5c-12.3-6.5-14.1-12.5-14.1-12.5l-8.1-12.1h1.2c0,0-0.7-12.8,8.1-27.2l-0.6-63.4c0,0,3.6-21.8-2.6-33.7
	c0,0-0.5-12.5,3.6-16.4s-5.5-42.8-5.5-42.8s-2-20.9-4.3-40l0,0c9.7,9.2,19.8-24,21.5-29.9h0.2l-0.1-0.4c0.1-0.3,0.1-0.4,0.1-0.4l0,0
	c0,0-2.2-7.7-0.6-6.1s5.5-4.3,5.5-4.3s-0.6-31.8,6.2-47.8C601.5,286.6,591.7,247.6,591.7,247.6z M562.7,267.9L562.7,267.9
	c1,19.3-0.1,60.7-0.1,60.7s-1.3,5.3-2.8,11.6l-1-39.3l0,0l-1-37.1L562.7,267.9z M438.6,254.5c0,0,4.9,61.3,0,70.1
	c-1.4,2.5-2.6,7-3.5,12.1c-1.6-4.2-5-14.2-3.8-19.5c1.6-6.8-3.2-24.8-3.2-25.2c0-0.4-0.4-10,3-17.3s1.2-10.5,1.2-10.5
	S435.1,252.2,438.6,254.5z"/>
<path class="st2" d="M450.5,392.5c-4.3,18.8-21.2-9.6-25.1-16.4c-0.5-0.9-0.8-1.4-0.8-1.4l1.8-8.6l9.7-4c1.5,0.8,3,1.8,4.4,2.8
	C445.8,369.1,453.8,378,450.5,392.5z"/>
<path class="st2" d="M582.2,361.8c0,0,0,0.1-0.1,0.4c0,0.1-0.1,0.3-0.1,0.5c-1.7,5.9-11.6,38.9-21.1,29.7
	c-10.5-10-5.4-33.1-5.4-33.1h0.1l22-2.2l4.4,4.5l0,0L582.2,361.8z"/>
<path class="st3" d="M569.5,524.2l0.6,63c-8.6,14.3-7.9,27-7.9,27l-28.4,1.1c-6.9-4.7-2-17.7-2-17.7v-32.4c0,0-4.4-31.7-2.3-40.5
	s-8.9-25-8.9-25L519,482c-5.4-7.1-7.9-46.1-7.9-46.1l-5.8-19.7c0.2,0.9,3.2,17.3,0,20.3s-4.4,16.4-4.4,16.4s3.1,37.1,0,44.6
	s0.8,11.8,0.8,11.8l0.6,38.5c0,0-2.7,10.3,0.3,24.9s0,37.1,0,37.1h-30.5l0.1-15.7l-4.9-13.3c0,0-3.4-54.9-6.1-66.8
	c-1.6-7-0.6-14.4,2.8-20.8c0,0-5.6-9-5.4-15.4s-4.4-18.5-4.4-18.5l-6.6-44.7c0.2-8.6-0.9-17.2-3.3-25.5c-3.8-12.7-9.5-29.4-9.5-29.4
	l6.4,0.6l32.2,2.9c0,0,78.4-5.3,81.9-0.9c0.7,1.4,1.2,3,1.5,4.6c3.5,15.8,8.2,65.3,8.2,65.3s9.5,38.6,5.4,42.4s-3.6,16.3-3.6,16.3
	C573,502.5,569.5,524.2,569.5,524.2z"/>
<path class="st4" d="M503.2,633.6c-0.2,3.5-4.1,3.7-4.1,3.7c-11.5,1.8-13.9,6.3-13.9,6.3s-11,10.9-27.6,9.3
	c-14.1-1.4-12.7-3.9-12-8.5c0.1-0.9,0.2-1.7,0.2-2.6c0-6.4,4.9-8.2,12.5-13s7.4-8.8,10.6-12.3s3.5-10.3,3.5-10.3
	c3.6-6.3,12.7,1,12.7,1c0.4,2.2,14,1.9,14,1.9s1.8,7.2,2.7,7.6c0.6,0.3,1.1,5.9,1.2,10.8C503.3,630.1,503.3,632.4,503.2,633.6z"/>
<path class="st5" d="M503.2,633.6c-0.2,3.5-4.1,3.7-4.1,3.7c-11.5,1.8-13.9,6.3-13.9,6.3s-11,10.9-27.6,9.3
	c-14.1-1.4-12.7-3.9-12-8.5c6.3,1.6,18.3,3.7,25.4-0.1c9.8-5.3,16.8-9,16.8-9l15.4-7.8C503.3,630.1,503.3,632.4,503.2,633.6z"/>
<path class="st4" d="M589.6,652.5c-0.8,1.4-2,2.4-3.5,2.9l-0.3,0.1c-4.7,1-22.7,1-22.7,1s-18.2-14.1-23.8-14.4s-8.5-5.1-8.5-5.1
	s0.1-3.3,0.5-7.1c0.4-4.5,1.2-9.8,2.5-11.2c2.4-2.5,3-6,8.5-3.8c0,0,7.8-13.8,17.1-3.1l9.6,14.5c0,0,1.8,6,13.9,12.5
	c4.8,2.6,7,5.7,7.6,8.5C590.8,649,590.5,650.9,589.6,652.5z"/>
<path class="st5" d="M589.6,652.5c-1.1,0.9-2.3,1.9-3.5,2.9l-0.3,0.1c-4.7,1-22.7,1-22.7,1s-18.2-14.1-23.8-14.4s-8.5-5.1-8.5-5.1
	s0.1-3.3,0.5-7.1c5.6,1.7,14.1,4.7,16.4,7.8c3.5,4.9,14.1,11.7,14.1,11.7s19.8-1.9,28.6-2.2C590.8,649,590.5,650.9,589.6,652.5z"/>
<path class="st2" d="M512.5,158.7l-26.1,27.6c0,0-31.6-2.3-26.1-11.7c2.8-4.8,3.2-14.7,3-23.4c-0.2-8.4-1.1-15.5-1.1-15.5
	s44.4-22.1,41-1.5c-0.7,3.9-0.8,7.9-0.1,11.8C504.9,156.4,512.5,158.7,512.5,158.7z"/>
<path class="st5" d="M503.1,134.3c-0.7,3.9-0.8,7.9-0.1,11.8c-6.1,6.2-14.5,9.7-23.2,9.7c-6,0-12.5-4.9-17.3-7.8
	c-0.2-8.4-0.3-12.2-0.3-12.2S506.5,113.7,503.1,134.3z"/>
<path class="st2" d="M512.5,121.3c0,18.1-14.6,32.7-32.7,32.7s-32.7-14.6-32.7-32.7s14.6-32.7,32.7-32.7c7.4,0,14.6,2.5,20.4,7.1
	C507.9,102,512.5,111.4,512.5,121.3z"/>
<path class="st5" d="M556.9,366.7c-8.1,19.4-60.5,19.8-60.5,19.8v-21.2l-3.2-0.2c1.4,6-1.9,20.8-1.9,20.8
	c-41.4,5.8-51.5-17.7-51.5-17.7l1.4-8.1l32.2,2.9c0,0,78.4-5.3,81.9-0.9C556.2,363.5,556.7,365.1,556.9,366.7z"/>
<path class="st6" d="M496.4,383.9v-21.1l-3.2-0.2c1.4,6-1.9,20.8-1.9,20.8c-31.1,4.4-44.6-7.9-49.3-14.2c-0.9-1.1-1.6-2.3-2.2-3.5
	l12.6-71.1l3-104.6l4.5-18.4l1-8.8v-0.1h0.1l3.2,1.4l19.3,8.3l21.9-16.5l0.3-0.2l1.1-0.8l1.8,1.4l4.5,3.6l14.4,93.2
	c0,0,25,71.8,29.7,100.7c0.2,1.2,0.3,2.2,0.5,3.2C561,383.4,496.4,383.9,496.4,383.9z"/>
<circle class="st7" cx="486" cy="174.4" r="1.9"/>
<circle class="st7" cx="486.9" cy="191.4" r="1.9"/>
<circle class="st7" cx="488.7" cy="218.9" r="1.9"/>
<circle class="st7" cx="491.8" cy="248.5" r="1.9"/>
<circle class="st7" cx="493.7" cy="276.3" r="1.9"/>
<circle class="st7" cx="495.5" cy="305.9" r="1.9"/>
<circle class="st7" cx="494.8" cy="335.2" r="1.9"/>
<path class="st5" d="M462.3,304.9c0,0-2.1,27.2-5.9,35.1s-5.5,30.1-5.5,30.1l-8.9-1c-0.9-1.1-1.6-2.3-2.2-3.5l12.6-71.1l3-104.6
	l4.5-18.4l1-8.8l0.1-0.1c1-0.5,2.2-0.5,3.2,0.1l0.4,0.2c-0.1,0.4-0.2,0.7-0.4,1.1c-3.5,10.8-4.8,30.8-4.8,30.8s5,36.5,5.5,53.5
	S462.3,304.9,462.3,304.9z"/>
<path class="st5" d="M440.5,364.9c-0.1,0.2-0.2,0.4-0.3,0.7c-3.4,5.8-12.2,9.5-14.8,10.5c-0.5-0.9-0.8-1.4-0.8-1.4l1.8-8.6l9.7-4
	C437.7,362.9,439.2,363.8,440.5,364.9z"/>
<path class="st8" d="M417,226l-8.1,4.8l-7.4,32.7c0,0-9.2,27.7-2.1,47.5s11.2,31.1,11.2,31.1s2.8,22.5,7.1,24.3
	c4.2,1.8,6.1,2.8,6.1,2.8l0.9,5.4c0,0,11.5-3.9,15.6-10.8s-3-24-3-24s-6.1-14.6-4.5-21.4s-3.1-24.6-3.1-25s-0.4-9.9,3-17.2
	c3.4-7.3,1.1-10.4,1.1-10.4l-2.1-20.8L417,226z"/>
<path class="st5" d="M557.6,360.5c0,0-21.4,8.1-28.2,1s-6.1-40.2-6.1-40.2s-6.5-61.1-10.6-71.2c-4.1-10.1-2-82.5-2-82.5
	s-2.8-9.4-5.2-11.8c-0.2-0.2-0.3-0.3-0.5-0.4l0.8,0.2l2.9,0.6l4.5,3.6l14.4,93.2c0,0,25,71.8,29.7,100.7L557.6,360.5z"/>
<path class="st5" d="M582.2,362.7H582c-2.7,0.4-26.4,3.2-26.5-1.7c0-0.6,0-1.1,0.1-1.7l22-2.2l4.4,4.5l0,0c0.1,0.3,0.1,0.5,0.2,0.7
	V362.7z"/>
<path class="st8" d="M559.4,193.2l15.6,8.1c0,0,13,33.7,15.1,48.1c0,0,9.6,38.7,3,54.6s-6.1,47.5-6.1,47.5s-3.8,5.8-5.4,4.2
	s0.6,6.1,0.6,6.1s-26.7,3.5-26.8-1.7s6.1-30.3,6.1-30.3s1.7-59.6-0.7-68.9C558.4,251.6,559.4,193.2,559.4,193.2z"/>
<path class="st5" d="M512.9,256.7c0,0-8.8,21.5-11.6,22.9c-2.8,1.4,0.6,7.1,0.6,7.1S517.8,264.3,512.9,256.7z"/>
<path class="st5" d="M507.6,181.3c0.1-0.4-10.5,10.4-13.3,12S504.7,193.2,507.6,181.3z"/>
<path class="st5" d="M478.2,255c0,0-16.1,10.4-14,14.6S478.2,255,478.2,255z"/>
<path class="st5" d="M507.5,407.2c0,0,13.7,8.8,35.1,11L507.5,407.2z"/>
<path class="st5" d="M474.5,428.5c0,0,12.7,16,18.5,16.4C498.9,445.3,474.5,428.5,474.5,428.5z"/>
<path class="st5" d="M492.4,491.2c-0.6,0.3-7.2,14.4-14,14.9S492.4,491.2,492.4,491.2z"/>
<path class="st5" d="M551.4,522.2c0,0,12.6-2.8,15.4,6.2C566.8,528.3,566,525.5,551.4,522.2z"/>
<path class="st5" d="M542.9,573.9c0,0,15.3-3.1,18.5,1.1S542.9,573.9,542.9,573.9z"/>
<path class="st5" d="M499.6,581.2c0,0.1-15.6,3.1-15,5.1s16.6,1.7,17.2-1.4C502.2,583.2,501.3,581.6,499.6,581.2
	C499.7,581.2,499.6,581.2,499.6,581.2z"/>
<path class="st5" d="M537.8,594.6c0,0,25.6-3.1,24,2.3S537.8,594.6,537.8,594.6z"/>
<path class="st5" d="M403.9,279.6c0.1,0.4,16.8,2.7,19.1,8.1c0,0-16.4-7.6-19-7.6"/>
<path class="st5" d="M427.4,323.3c0,0-13.9,4.4-12.9,11S413.1,331.3,427.4,323.3z"/>
<path class="st5" d="M421,357c0,0,5-6.9,9.9-5.7C435.6,352.6,421,357,421,357z"/>
<path class="st5" d="M500.2,95.8c-0.5,0.5-1,0.9-1.6,1.2c-4,2.3-5.1,5.9-7,10.1c-1.8,3.8-3.7,7.8-7.3,9.9
	c-4.6,2.8-10.7,1.8-15.5,4.2c-4.4,2.3-6.9,6.9-6.4,11.8c0.3,1.8,0.8,3.7,1.4,5.4c1.1,3.8,1.6,7.8,1.5,11.8c0,0.1,0,0.2,0,0.4
	c-16.1-8.1-22.7-27.7-14.6-43.8s27.7-22.7,43.8-14.6C496.5,93.1,498.4,94.4,500.2,95.8L500.2,95.8z"/>
<path class="st9" d="M499.3,85.9c-3.6-7.5-11.4-12.3-19.4-14.6c-6.1-1.8-12.8-2.4-18.9-0.4c-3.5,1.1-6.6,3-9.9,4.6
	C445,78.6,438.4,81,433.8,86c-1.1,1.2-2,2.7-1.7,4.2c0.2,1.1,1.1,2,1.7,3.1c1.3,2.3,1,5.2,0.1,7.7s-2.2,4.8-2.8,7.4
	s-0.4,5.6,1.5,7.4c0.9,0.8,1.9,1.3,2.9,2c1,0.9,2,1.9,2.7,3.1l5.4,7.4c2.5,3.3,4.8,6.7,6.8,10.4c1.3,2.7,2.4,5.5,4.2,7.9
	s4.6,4.3,7.6,4.1c0.5,0,0.9-0.2,1.2-0.6c0.1-0.2,0.2-0.5,0.1-0.8c0.1-4-0.4-7.9-1.4-11.7c-0.6-1.8-1.1-3.6-1.4-5.4
	c-0.5-4.9,2.1-9.6,6.4-11.8c4.8-2.4,10.9-1.4,15.5-4.2c3.6-2.2,5.5-6.2,7.3-10c1.9-4.1,3-7.7,7-10.1
	C500.8,93.8,501.3,89.9,499.3,85.9z"/>
<path class="st5" d="M484.7,620.2c0,0,5,6.4,3.7,10S484.7,620.2,484.7,620.2z"/>
<path class="st5" d="M552.3,636.2c0,0,1.1-8.5,5.6-8.6s4.7-0.5,8.1,0.8s6.6,3.3,5.6,3.6s-5.8-4.9-10.8-2.2
	C557.6,631.5,554.8,633.6,552.3,636.2z"/>
<path class="st5" d="M469.7,183l14-9.8c0,0-20.5-12.1-22.9-10.4s-4.1,17-4.1,17L469.7,183z"/>
<path class="st10" d="M469.7,182.4l14-10c0,0-20.5-12.1-22.9-10.4s-4.1,17.8-4.1,17.8L469.7,182.4z"/>
<path class="st6" d="M469.7,182.4l14-10c0,0-20.5-12.1-22.9-10.4s-4.1,17.8-4.1,17.8L469.7,182.4z"/>
<path class="st8" d="M463.1,162.1l-0.4-0.2c-1.3-0.7-2.8-0.5-3.9,0.4l-42,34.1c0,0-9.1,12.6-7.9,34.4l24.8,35.1
	c0,0,2.8-11.9,6.2-9.6c0,0,4.8,60.8,0,69.6c-4.8,8.8-6.9,41.6-6.9,41.6l16.2,1.8c0,0,1.7-22.2,5.5-30.1s5.9-35.1,5.9-35.1
	s3.4-39.6,2.9-56.5c-0.6-17-5.5-53.5-5.5-53.5S459.4,172.6,463.1,162.1z"/>
<path class="st5" d="M504.9,176.8l-17.5-6.5c0,0,22.2-24.3,25-10.8L504.9,176.8z"/>
<path class="st10" d="M504.9,176l-17.5-6.5c0,0,22.2-24.3,25-10.8L504.9,176z"/>
<path class="st6" d="M504.9,176l-17.5-6.5c0,0,22.2-24.3,25-10.8L504.9,176z"/>
<path class="st5" d="M504.4,155.3c0.3,0,0.5,0,0.7,0.2L504.4,155.3z"/>
<path class="st8" d="M506,153.6l46.3,10c0,0,12.7,2.8,21.9,34.8s-12.6,71.2-12.6,71.2l-4.8-4.1l2.4,93.4c0,0-21.4,8.1-28.2,1
	s-6.1-40.2-6.1-40.2s-6.5-61.1-10.6-71.2c-4.1-10-2-82.5-2-82.5S508.6,153,506,153.6z"/>
<path class="st5" d="M548.4,213.1c-0.7,0.6-1.4,28.9,1.4,50.4c1.7,13.1,4.4,26.1,8,38.8l-4.2-86.2
	C553.6,216.1,550.4,211.3,548.4,213.1z"/>
<path class="st5" d="M542.7,188.8c1.1,0.7,6.1,12.5,3.8,17.3C544.3,210.8,542.7,188.8,542.7,188.8z"/>
<path class="st5" d="M499,85.9c-2.3-4.5-5.8-8.2-10.2-10.7c3.2,2.3,5.9,5.4,7.6,9c2,4,1.4,8-2.5,10.2s-5.1,5.9-7,10.1
	c-1.8,3.8-3.7,7.8-7.3,10c-4.6,2.8-10.7,1.8-15.5,4.2c-4.3,2.3-6.9,7-6.4,11.8c0.3,1.8,0.8,3.6,1.4,5.4c1.1,3.8,1.6,7.8,1.5,11.8
	c0,0.3,0,0.5-0.2,0.8c-0.3,0.4-0.7,0.6-1.2,0.6c-1.2,0.1-2.4-0.1-3.5-0.6c1.6,1.6,3.8,2.4,6,2.4c0.6,0.1,1.2-0.4,1.3-1
	c0-0.1,0-0.2,0-0.3c0.1-4-0.4-7.9-1.5-11.8c-0.6-1.8-1.1-3.6-1.4-5.4c-0.5-4.9,2.1-9.6,6.4-11.8c4.8-2.4,10.9-1.4,15.5-4.2
	c3.6-2.2,5.5-6.2,7.3-10c1.9-4.1,3-7.7,7-10.1C500.5,93.9,501,89.9,499,85.9z"/>
<linearGradient id="SVGID_2_" gradientUnits="userSpaceOnUse" x1="717.7603" y1="690.9737" x2="717.7603" y2="1301.5709" gradientTransform="matrix(1 0 0 -1 -31.16 1399.86)">
	<stop  offset="0" style="stop-color:#808080;stop-opacity:0.25"/>
	<stop  offset="0.54" style="stop-color:#808080;stop-opacity:0.12"/>
	<stop  offset="1" style="stop-color:#808080;stop-opacity:0.1"/>
</linearGradient>
<path class="st11" d="M783.9,211.5c-13.8-0.3-25.9-10-32.8-21.9c-1.8-2.8-2.9-6-3.3-9.4c0-0.8,0.2-1.5,0.4-2.2
	c0.4-1.1,0.8-2.3,1-3.4c0.1-0.5,0.1-0.9,0-1.4c0,0,0,0,0-0.1c0.3-2.5-1.2-5-3-6.7s-4.2-3-6.1-4.7c-5.9-5.2-7.7-13.5-7.8-21.5v-0.4
	c0.1-3.4,0.3-6.8,0.3-10.2c0-1.9,0-3.9-0.2-5.8c-0.6-4.8-2.4-9.7-6.2-12.8c-9.9-8-26.4,0.3-36.7-7.2c-2.5-1.9-4.5-4.6-7.5-5.3
	c-2.3-0.6-4.6,0.2-6.8,0.9c-7.5,2.5-15.9,5.7-18.8,13c-1.7,4.2-1.2,8.9-2.8,13.1c-1,2.8-2.9,5.3-4.3,7.9c-1.1,2-1.7,4.3-1.6,6.6
	c-0.1,1.2,0,2.4,0.5,3.5c0.5,1.4,1.4,2.6,2.5,3.5c-0.4,0.8-0.9,1.6-1.5,2.3c-1.9,2.4-4.9,4-6.9,6.3c-3.7,4.3-3.6,10.1-1.7,15.2
	s5.1,9.6,7.4,14.5c1,2.1,1.8,4.5,0.8,6.6c-0.7,1.5-2.2,2.6-3.3,3.9c-1.7,1.9-2.7,4.2-3,6.7c-22.5,5.1-22.5,23.2-22.5,23.2l0,0
	l-12.2,30.6c0,0-2,5.1-4.2,12l-14.4-2.6l10,16.7c-1.9,6.8-3.2,13.1-2.8,16.3c0,0-4.5,21,3.5,24.7l17.5,7.9c0.8,0.5,1.6,0.8,2.4,1.1
	l0.7,0.3c0.5,0.3,1.1,0.3,1.6,0l0,0h0.2c0.3,0,0.7,0,1-0.1c0.4-0.2,0.7-0.5,0.9-1v-0.1l5.2-1.5l4.5,5.3c2,1.4,4,2.6,5.9,3.7
	l-6.9,68.4c0,0-1.1,91-4.5,111.7c-1.2,7.7-1.2,12.9-0.8,16.5l-0.1,0.2c0.8,5.8,3,7,3,7v-0.1l0.1,0.1c1-2.7,2.2-5.2,3.6-7.7
	c0,0.5,0,1,0,1.5c-0.1,7.7-0.3,18.5-1.1,25.6c-1.4,12,3.5,51.5,3.5,51.5l1.7,36c0.3,6.1-1.1,12.2-4.1,17.5c-4,7.2-9.1,17.3-9.5,21.8
	c0,0.2,0,0.5,0,0.7l0,0l-8.6,10.3c0,0-3.3,5.2,4.2,7.3c4.1,1.1,11.1,0,16.7-1.3c5.1-1.2,8.7-5.7,8.7-10.9c1.4-5,3.8-9.6,7.1-13.6
	l1.4,8.3l9.4,2.3l1.2-22.7c0.5-1.3,0.7-2.6,0.7-4l0,0c1.9-16.2-4.4-14.7-4.4-14.7c0.2,0.1,0.3,0.3,0.3,0.6l-0.3-0.5l0,0
	c-3.8-7.6-2-20-2-20s5-36,6.7-45.5c1.2-6.7,0.7-28.7,0.3-41c0-0.5,0-1,0-1.5c14.6-0.2,32.6-0.7,45.2-1.9v1.5l-2.3,85
	c-0.2,5.4-1.3,10.8-3.3,15.8c0,0.1-0.1,0.2-0.1,0.3c-2.8,7.1-4.3,14.7-4.6,22.3l-1.1,27v0.8l0,0c-1.9,0.7-4.8,2.8-4.9,8.9
	c-0.1,8.9,15.5,5.9,15.5,5.9c15.6,0,15.8-16.3,15.8-16.3s0.5-14.9,1.2-24.9s-2.4-7.8-2.4-7.8l-0.2,28.4c0,0.1,0,0.1,0,0.2v-24.7
	l0.2-3.6v-0.1l0,0v-0.8l2-29.3c0,0,14.4-48.8,16.6-58.2c1.6-6.7,0.9-26.7,0.4-37.8c0-0.5,0-1-0.1-1.5c4.5-0.4,8.4-0.4,10-0.4h0.7
	c0,0-0.7-78.4-2.6-108s-4.8-56.6-12.3-64.8c-4.5-4.9-10.8-20.1-15-31.4c8.9,3.8,18.1,6.9,27.6,9c23.6,4.9,20.4-15.5,20.4-15.5
	l-2.4-38.7h0.2c-0.1-10.1-1-20.3-2.6-30.3c-1.2-7.7-3.2-15.6-6.1-22c2.6-1,5.1-2.1,7.6-3.2c6.4-2.8,13.6-6.8,14.5-13.8h-0.3
	C783.8,212.6,783.9,212,783.9,211.5z M637.7,267.5L637.7,267.5c0,4-0.1,10.9-0.3,18.6l-7.5-10l7.5-12.2L637.7,267.5z M741.2,303
	l-12.5-4c2.2-3.5,4.8-6.7,7.7-9.5l1.1-1l-0.4,0.1l0.6-0.5l0.4-0.1l-0.6,0.5l0.7-0.1c0.8,3.1,2.2,6.1,4.2,8.5
	C746.9,301.7,741.2,303,741.2,303L741.2,303z"/>
<polygon class="st12" points="665.4,663 663.9,690.6 654.6,688.3 652.6,676.8 "/>
<polygon class="st4" points="665.4,663 663.9,690.6 654.6,688.3 652.6,676.8 "/>
<path class="st13" d="M699.5,694.3l14.2,2.9l10.5-9.3v-26.2l0.2-3.6V658l0,0v-0.7l2-29.1c0,0,14.2-48.5,16.4-57.8
	c1.6-6.6,0.9-26.5,0.4-37.5c-0.2-4.5-0.4-7.5-0.4-7.5l-31.3-7.6l-0.7,24.1l-2.3,84.4c-0.2,5.4-1.2,10.7-3.2,15.7l-0.1,0.3
	c-2.7,7.1-4.3,14.5-4.5,22.1l-1.1,26.8v0.7L699.5,694.3z"/>
<path class="st5" d="M724.5,657.3v0.7l0,0V657.3L724.5,657.3z"/>
<path class="st5" d="M699.5,694.3l14.2,2.9l10.5-9.3v-2.2c-0.1,1-0.6,1.9-1.5,2.4l-0.2,0.1c-4.9,2.6-10.4,3.7-15.9,3.2l-5.5-0.5
	c-0.5,0-1,0.2-1.5,0.4v0.7L699.5,694.3z"/>
<path class="st4" d="M722.6,688.9l0.2-0.1c0.9-0.5,1.5-1.5,1.5-2.6l0.2-28.2c0,0,3.1-2.2,2.3,7.7s-1.2,24.7-1.2,24.7
	s-0.1,16.2-15.5,16.2c0,0-15.4,2.9-15.3-5.9s6.4-9.2,6.4-9.2l5.5,0.5C712.2,692.6,717.7,691.5,722.6,688.9z"/>
<path class="st13" d="M625.6,688.3c0.4,6.4,19.1,2.7,19.1,2.7l12.6-24.5c0,0,10.5-8.1,5.3-15.2c-0.3-0.4-0.5-0.8-0.8-1.2
	c0,0,0,0,0-0.1l0,0c-0.1-0.2-0.2-0.4-0.3-0.6l0,0c-3.8-7.5-1.9-19.8-1.9-19.8s4.9-35.8,6.6-45.2c1.2-6.7,0.7-28.5,0.3-40.7
	c-0.2-5.1-0.3-8.5-0.3-8.5l-31.1-8.3c0,0,0,3.9,0,9.3c-0.1,7.7-0.3,18.4-1.1,25.4c-1.3,11.9,3.4,51.2,3.4,51.2l1.7,35.8
	c0.3,6.1-1.1,12.1-4,17.4c-3.9,7.1-9,17.2-9.3,21.7C625.6,687.8,625.6,688.1,625.6,688.3z"/>
<path class="st5" d="M625.6,688.3c0.4,6.4,19.1,2.7,19.1,2.7l12.6-24.5c0,0,10.5-8.1,5.3-15.2c-0.3-0.4-0.5-0.8-0.8-1.2
	c-0.2,3.7-4.2,13-4.2,13s-10.4,20.8-13.7,25.6s-17.7-0.9-18.2-1.1C625.5,687.9,625.5,688.1,625.6,688.3z"/>
<path class="st4" d="M661.4,649.5c0,0,6.2-1.4,4.3,14.6l0,0c0.1,3.7-1.7,7.2-4.9,9.2c-4.4,2.8-11.2,8.7-14.7,20.3l0,0
	c0,5.1-3.5,9.6-8.5,10.8c-5.6,1.3-12.5,2.4-16.5,1.3c-7.5-2.1-4.2-7.2-4.2-7.2l8.6-10.2c0,0,14.9,5.9,18.2,1.1s13.7-25.6,13.7-25.6
	S663.2,650.8,661.4,649.5z"/>
<path class="st5" d="M711.5,520.7l-0.7,24.1c8.3-0.8,14.3-1.9,15.3-3.5c2.2-3.4,10.2-4.9,17-5.5c-0.2-4.5-0.4-7.5-0.4-7.5
	L711.5,520.7z"/>
<path class="st5" d="M635,539.2c0.8-1.6,2-3.1,3.4-4.1c3.3-1.8,2.9,11.8,2.9,11.8s11,0.1,25-0.1c-0.2-5.1-0.3-8.5-0.3-8.5l-31.1-8.3
	C635,529.9,635,533.7,635,539.2z"/>
<path class="st3" d="M631.4,542.4c0,0,3.7-10,7-11.8s2.9,11.8,2.9,11.8s80.8,0.7,84.9-5.5s27.5-5.9,27.5-5.9s-0.7-77.9-2.6-107.3
	s-4.8-56.2-12.1-64.3c-4.8-5.2-11.5-22.2-15.7-33.4c-2.3-6.2-3.8-10.7-3.8-10.7l-77.1,4.4l-0.6,6.2l-8.2,81.9
	c0,0-1.1,90.4-4.4,110.9S631.4,542.4,631.4,542.4z"/>
<g class="st14">
	<path d="M720,536.8c4-6.2,27.5-5.9,27.5-5.9s-0.7-77.9-2.6-107.3s-4.8-56.2-12.1-64.3c-4.8-5.2-11.5-22.1-15.7-33.4
		c-1.9-5.2-3.3-9.2-3.7-10.3l6-0.3c0,0,1.5,4.5,3.8,10.6c4.2,11.3,10.9,28.2,15.7,33.4c7.3,8.1,10.3,34.9,12.1,64.3
		s2.6,107.3,2.6,107.3s-23.5-0.4-27.6,5.9c-3.5,5.3-62.9,5.6-80.2,5.5C668,542.3,716.8,541.7,720,536.8z"/>
	<path d="M632.2,530.6c1.5-0.8,2.2,1.5,2.6,4.3c-1.3,2.4-2.5,4.9-3.5,7.5c0,0-2.1-1.2-3-7C629.5,533.3,630.9,531.3,632.2,530.6z"/>
</g>
<path class="st15" d="M655.3,126.9c-5.3,7.3,0.1,17.6-5.7,24.7c-1.9,2.3-4.8,4-6.8,6.3c-3.7,4.3-3.5,10.1-1.7,15.1s5,9.6,7.3,14.4
	c1,2.1,1.7,4.5,0.7,6.6c-0.7,1.5-2.2,2.6-3.3,3.8c-3.7,4.1-3.8,9.8-1.8,14.7c2,4.8,5.8,9,9.5,13.1c1.5,1.6,3.3,3.4,5.8,3.3
	c1.3-0.1,2.5-0.5,3.6-1.2c17.6-9,25-30.3,16.8-48.3c-3.1-7.4-8.3-14.6-8.3-22.4c0-6.2,3.2-12.2,3.8-18.4c0.7-7.5-3.8-19.5-12.9-22.8
	C663,120.7,658,123.2,655.3,126.9z"/>
<path class="st3" d="M655.3,126.9c-5.3,7.3,0.1,17.6-5.7,24.7c-1.9,2.3-4.8,4-6.8,6.3c-3.7,4.3-3.5,10.1-1.7,15.1s5,9.6,7.3,14.4
	c1,2.1,1.7,4.5,0.7,6.6c-0.7,1.5-2.2,2.6-3.3,3.8c-3.7,4.1-3.8,9.8-1.8,14.7c2,4.8,5.8,9,9.5,13.1c1.5,1.6,3.3,3.4,5.8,3.3
	c1.3-0.1,2.5-0.5,3.6-1.2c17.6-9,25-30.3,16.8-48.3c-3.1-7.4-8.3-14.6-8.3-22.4c0-6.2,3.2-12.2,3.8-18.4c0.7-7.5-3.8-19.5-12.9-22.8
	C663,120.7,658,123.2,655.3,126.9z"/>
<path class="st5" d="M714.5,391.7c-10.7,0.6-20.8,5.2-30.1,10.4c-9.4,5.2-18.4,11.1-28.5,14.8"/>
<path class="st5" d="M707.9,416.9c-10.6,1-20.4,5.8-27.8,13.5c-2.6,2.8-4.8,5.8-7.5,8.5c-4.1,4-9.3,7-14.9,8.4"/>
<path class="st5" d="M710,436.1c-8.5,2.4-16.2,7-22.3,13.5c-1.6,1.8-3.1,3.7-4.8,5.4c-8.8,9.5-21.3,14.5-33.4,19.3"/>
<path class="st13" d="M709.1,170.2c0.2,8.5,1,17.1,2.2,25.5c1,6,2.4,11.4,4.4,13.8c5.9,7-28.7,16.4-28.7,16.4l-20.4-15.8
	c0,0,16.2-14.9,8.6-29.4S709.1,170.2,709.1,170.2z"/>
<path class="st5" d="M641.8,326h81.5c-2.3-6.2-3.8-10.6-3.8-10.6l-77.1,4.4L641.8,326z"/>
<path class="st6" d="M636.6,324.5h87.2c-2.5-8.8,0-16.9,3.5-23.1c2.4-4.4,5.5-8.4,9.1-11.8l0.6-0.5l30.4-6.7l1.6-0.4
	c0,0,0.2-55.3-19.3-63c-19.6-7.6-31.3-17.9-31.3-17.9l-26.9,8.3l-19.8-10c-6.4,6.9-23.3,4.2-23.3,4.2c-27.7,3.2-27.7,24-27.7,24
	s16.2,37.7,17.4,37.7S636.6,324.5,636.6,324.5z"/>
<path class="st5" d="M666.7,289.3c0,0-17.8-3.9-23.8-10.8"/>
<path class="st5" d="M756.3,268.7l-20.6,16.9c0.1,1.3,0.4,2.7,0.7,4l0.6-0.5l30.4-6.7L756.3,268.7z"/>
<path class="st5" d="M700.5,318.6c0,0,4.5,2.5,11.4,5.9h11.8c-2.5-8.8,0-16.9,3.5-23.1l-20.9-6.8
	C713.5,301.2,700.5,318.6,700.5,318.6z"/>
<path class="st6" d="M632.9,220.9l-12.2,6.6l-12,30.4c0,0-12.5,33.3-11.3,42.1c0,0-4.4,20.8,3.4,24.5l20.4,9.2c1,0.4,2.1,0,2.5-1
	c0.2-0.5,0.2-1.1-0.1-1.6c-2.9-5.5-6.1-14.1-1-18.9l-5.9-12.2l21.2-34.8l7.1-12L632.9,220.9z"/>
<path class="st5" d="M660.1,282.4c1.1,4.3,4.6,11,16.5,13.5l13,10.6l13.8,6.3l5.6,2.5l2.4-17.3l-5.4-3l-6.3-3.5
	c0,0-14.3-25.9-36.9-15C660.7,277.6,659.5,280,660.1,282.4z"/>
<path class="st13" d="M660.9,280.9c1.1,4.3,4.6,11,16.5,13.5l13,10.7l13.8,6.2l5.6,2.5l2.4-17.3l-5.4-3l-6.3-3.4
	c0,0-14.3-25.9-36.9-15C661.5,276.2,660.3,278.6,660.9,280.9z"/>
<circle class="st5" cx="686.4" cy="161" r="31.6"/>
<circle class="st13" cx="686.4" cy="160.3" r="31.6"/>
<path class="st5" d="M705.9,227.8l-9.5-18.5c0,0,13.9-5.6,14.9-12.1s13.3,7.6,10.7,12.3S705.9,227.8,705.9,227.8z"/>
<path class="st6" d="M705.9,226.3l-9.5-18.5c0,0,13.9-5.6,14.9-12.1s13.3,7.6,10.7,12.3S705.9,226.3,705.9,226.3z"/>
<path class="st16" d="M628.2,274l52.5,70.6c0,0-19.3,10.5-46-8.3l-11.5-13.8l-32.9-55.4L628.2,274z"/>
<path class="st13" d="M617.8,312.4l4.8-0.1c0,0,29.2-28.3,36.4-14S640.8,326,640.8,326l-7.7,4.2l-10,3l-6.4-8.6L617.8,312.4z"/>
<path class="st5" d="M624.9,327.7c0.4,1.6,0.9,3.4,0.1,4.9c-0.2,0.4-0.5,0.7-0.9,1c-0.3,0.1-0.7,0.2-1,0.1c-2.5-0.2-4.9-1.4-6.6-3.3
	c-1.7-1.9-3.1-3.9-4.3-6.2c-1.3-2.3-2.7-4.8-2.2-7.4c0.5-2.8,3-4.8,5.4-6.3c4.8-3.2,5,0.5,6.1,4.7S623.8,323.5,624.9,327.7z"/>
<path class="st6" d="M624.2,327.7c0.4,1.6,0.9,3.4,0.1,4.9c-0.2,0.4-0.5,0.7-0.9,1c-0.3,0.1-0.7,0.2-1,0.1c-2.5-0.2-4.9-1.4-6.6-3.3
	c-1.7-1.9-3.1-3.9-4.3-6.2c-1.3-2.3-2.7-4.8-2.2-7.4c0.5-2.8,3-4.8,5.4-6.3c4.8-3.2,5,0.5,6.1,4.7S623,323.5,624.2,327.7z"/>
<polygon class="st5" points="638,265.2 640.5,261.1 638.4,268.8 "/>
<path class="st5" d="M704.2,311.3l5.6,2.5l2.4-17.3l-5.4-3C710.6,297.9,707.3,305.8,704.2,311.3z"/>
<path class="st5" d="M726.8,291.3c0,0-18.2,1.1-25.9-3.9"/>
<g class="st14">
	<path d="M724.6,302.9c2.4-4.4,5.5-8.4,9.1-11.8c0.9-0.5,1.8-1,2.7-1.5l28.3-5.8l1.6-0.4c0,0,0.2-55.3-19.3-63
		c-11-4.2-21.3-10-30.6-17.2l2.2-0.7c0,0,11.8,10.3,31.3,17.9c19.6,7.6,19.3,63,19.3,63h-2.9l-29,5.5c0,0-1.2,1.2-1.6,1.6
		c-3.6,3.6-6.8,7.8-9.3,12.3c-3.8,7.1-4.7,15.5-2.4,23.2h-3C718.6,317.2,721.1,309.1,724.6,302.9z"/>
	<path d="M647.2,205.2c0.5-0.1,0.9-0.1,1.4-0.2c2,0.3,4,0.4,6,0.5C652.1,205.5,649.6,205.4,647.2,205.2z"/>
	<path d="M688.7,210.9l-17.9-9.1c0.4-0.3,0.7-0.6,1-1l18.7,9.5L688.7,210.9z"/>
</g>
<path class="st6" d="M757,267.2l12,14.7l2.5,39.9c0,0,3.2,20.3-20.1,15.4s-50.2-20-50.2-20s13-17.4,5.9-24l33.3,10.8
	c0,0,5.6-1.2,1.2-6.1c-4.4-4.9-5.2-13.7-5.2-13.7L757,267.2z"/>
<path class="st5" d="M762.5,309.3l6.6,7.6C765.6,315.9,763,312.9,762.5,309.3z"/>
<polygon class="st5" points="751.2,308.1 761.5,321.3 756.3,322.5 "/>
<path class="st5" d="M648.6,145.8c-1.1-2.8-0.3-6,1.1-8.6s3.2-5.1,4.2-7.9c1.5-4.2,1-8.9,2.7-13c2.9-7.2,11.2-10.5,18.6-13
	c2.2-0.7,4.5-1.5,6.8-0.9c3,0.7,5,3.4,7.4,5.3c10.1,7.5,26.4-0.8,36.2,7.2c3.7,3,5.5,7.9,6.1,12.7s0,9.6-0.1,14.4
	c-0.2,8.4,1.4,17.6,7.7,23.2c1.9,1.7,4.1,2.9,6,4.7s3.3,4.2,3,6.7c-0.2,1.2-0.6,2.3-1,3.4c-1.2,4.4,0.6,9,2.9,13
	c6.8,11.8,18.8,21.5,32.4,21.7c-0.9,6.9-8,10.8-14.3,13.7c-8,3.6-16.5,7.1-25.3,6.7s-18-6.1-19.5-14.8c-0.5-3-0.5-6.6-3-8.2
	c-1.6-1-3.6-0.7-5.3-1.4c-2.4-1-3.6-3.7-4.4-6.2c-1.6-5.2-2.5-10.6-2.6-16c-0.1-6.4,0.7-13.5-2.9-18.8c-3.4-4.9-9.4-7.4-13.3-11.9
	c-3.6-4.2-7.5-9.2-13.4-10C670.3,146.5,653.4,157.6,648.6,145.8z"/>
<path class="st3" d="M648.6,144.3c-1.1-2.8-0.3-6,1.1-8.6s3.2-5.1,4.2-7.9c1.5-4.2,1-8.9,2.7-13c2.9-7.3,11.2-10.5,18.6-13
	c2.2-0.7,4.5-1.5,6.8-0.9c3,0.7,5,3.4,7.4,5.3c10.1,7.5,26.4-0.8,36.2,7.2c3.7,3,5.5,7.9,6.1,12.7c0.6,4.8,0,9.6-0.1,14.4
	c-0.2,8.4,1.4,17.6,7.7,23.2c1.9,1.7,4.1,2.9,6,4.7s3.3,4.2,3,6.7c-0.2,1.2-0.6,2.3-1,3.4c-1.2,4.4,0.6,9,2.9,13
	c6.8,11.7,18.8,21.5,32.3,21.7c-0.9,6.9-8,10.8-14.3,13.7c-8,3.6-16.5,7.1-25.3,6.6s-18-6.1-19.5-14.8c-0.5-3-0.5-6.6-3-8.2
	c-1.6-1-3.6-0.7-5.3-1.4c-2.4-1-3.6-3.7-4.4-6.2c-1.6-5.2-2.5-10.6-2.6-16c-0.1-6.4,0.7-13.5-2.9-18.8c-3.4-4.9-9.4-7.4-13.3-11.9
	c-3.6-4.2-7.5-9.2-13.4-10C670.3,145.1,653.4,156.2,648.6,144.3z"/>
<path class="st5" d="M671,225.5l18.1-14.7c0,0-12.4-6.7-13.9-12.5c-1.5-5.7-11.4,2.7-10.4,7.9C665.9,211.4,671,225.5,671,225.5z"/>
<path class="st6" d="M671.8,223.3l18.1-14.7c0,0-12.4-6.7-13.8-12.4s-11.4,2.7-10.4,7.9C666.7,209.2,671.8,223.3,671.8,223.3z"/>
<circle class="st5" cx="690.6" cy="220.9" r="1.4"/>
<circle class="st5" cx="690.6" cy="228.9" r="1.4"/>
<circle class="st5" cx="690.6" cy="236.9" r="1.4"/>
<g class="st14">
	<path d="M655.9,123.9c1.4-3.9,1.1-8.3,2.5-12.3c-0.6,0.9-1.1,1.8-1.5,2.8c-1.7,4.1-1.2,8.9-2.7,13l-0.1,0.2
		C654.8,126.5,655.4,125.2,655.9,123.9z"/>
	<path d="M770.2,222.9c-8,3.6-16.5,7.1-25.3,6.7s-18-6.1-19.5-14.8c-0.5-3-0.5-6.6-3-8.2c-1.6-1-3.6-0.7-5.3-1.4
		c-2.4-1-3.6-3.7-4.4-6.2c-1.6-5.2-2.5-10.6-2.6-16c-0.1-6.4,0.8-13.5-2.9-18.8c-3.4-4.9-9.4-7.4-13.3-11.9
		c-3.6-4.2-7.5-9.2-13.4-10c-8.1-1.1-25,10-29.8-1.8c-0.8-2.2-0.7-4.7,0.3-6.8c-0.3,0.6-0.7,1.2-1,1.8c-1.4,2.7-2.2,5.9-1.1,8.6
		c4.8,11.8,21.7,0.7,29.8,1.8c5.9,0.8,9.8,5.9,13.4,10c3.9,4.5,9.9,7,13.3,11.9c3.7,5.3,2.8,12.3,2.9,18.8c0.1,5.4,1,10.8,2.6,16
		c0.8,2.5,2,5.2,4.4,6.2c1.7,0.7,3.7,0.5,5.3,1.4c2.6,1.6,2.5,5.2,3,8.2c1.6,8.7,10.7,14.3,19.5,14.8s17.3-3.1,25.3-6.6
		c5.8-2.6,12.3-6.2,14-12C779.6,218.3,774.7,220.9,770.2,222.9z"/>
</g>
<path class="st8" d="M935.9,606.9c7.9,22.7-1.3,59.5-5.6,76s-5.6,36.2-5.6,36.2c-16.8,2.6-28.9-0.7-28.9-0.7l6.9-33.9
	c-4.9-20.1,0-73.7,0-73.7s-11.2-20.7-12.2-52.3c-1-31.1-8.6-41.1-8.9-41.4l0,0c-15.8,8.2-35.8,96.4-35.8,96.4
	c1.6,21.4-0.3,54.3-6.9,72c-4,11.3-5.7,23.2-4.9,35.2c-2.3,2-5.5,2.3-9,1.7c-9.4-1.5-20.7-9.6-20.7-9.6s3.6-96,6.2-99.6
	s0-24.3,0-24.3l4.3-33.5c0,0-0.7-56.9,5.6-66.8c5.4-8.5,6.6-23.5,6.9-27.4c0-0.6,0-1,0-1l9.5-11.4c0,0,92.1-6.9,99,0
	c1.7,1.7,2.7,5.5,3.4,10.4c1.9,14.9-0.3,39.2-0.3,39.2s-2.8,18.1-6.7,36.5c-2.4,11.1-2.4,22.5,0,33.5
	C931,581.3,932.2,594.4,935.9,606.9z"/>
<path class="st4" d="M930.2,751.1c-4.1,5.4-28.3,3.1-32.4,1.4c-2.5-1-2.3-5.8-1.6-10.6c0.4-3.1,1.1-6.2,1.3-8.5
	c0.7-5.9-2-17.9-2-17.9s5.4,5.8,6.7,0c0.6-2.5,2.6-3.8,4.7-4.5c2.8-0.9,5.8-0.7,8.5,0.5c4.3,1.9,11.4,5.8,10.1,11.2
	c-1.8,7.5,4.6,18.3,4.6,18.3c0.5,0.6,0.9,1.3,1.2,2.1C932.5,745.7,932.1,748.8,930.2,751.1z"/>
<path class="st5" d="M930.2,751.1c-4.1,5.4-28.3,3.1-32.4,1.4c-2.5-1-2.3-5.8-1.6-10.6c2.6,1.2,7,2.2,14.4,1.5
	c1.7-0.2,3.4-0.2,5.2-0.2c5.2,0.2,10.5,0.1,15.7-0.3C932.5,745.7,932.1,748.8,930.2,751.1z"/>
<path class="st5" d="M845.8,613.4c1.6,21.4-0.3,54.3-6.9,72c-4,11.3-5.7,23.2-4.9,35.2c-2.3,2-5.5,2.3-9,1.7
	c2-13.9,10.4-73.6,15.8-120.8c6.2-53.8,35-90.8,35-90.8l5.8,6.3C865.9,525.3,845.8,613.4,845.8,613.4z"/>
<path class="st17" d="M920.3,267.8l-4,19.7l-19.7,33l-24.2-10.4c0,0-33-34.5-12.2-39.5c2.5-0.5,4.8-1.6,6.9-3.1
	c4.1-3.1,5.3-7.5,5.4-11.9c-0.2-4.9-1.3-9.7-3.3-14.1l42.4-13.3c-1.7,5.6-2.7,11.3-3,17.2c-0.3,11.6,4,17.2,7.5,20
	C917.2,266.6,918.7,267.3,920.3,267.8z"/>
<path class="st5" d="M911.4,228.3c-1.7,5.6-2.7,11.3-3,17.2c-0.8,0.9-1.6,1.8-2.5,2.6c-8.9,8.5-21.8,11.5-33.5,7.7
	c-0.2-4.9-1.3-9.7-3.4-14.1L911.4,228.3z"/>
<path class="st17" d="M916.3,222.9c0,18.5-15,33.6-33.5,33.6s-33.6-15-33.6-33.5s15-33.6,33.5-33.6l0,0
	c18.4-0.1,33.5,14.8,33.5,33.2C916.3,222.7,916.3,222.8,916.3,222.9z"/>
<path class="st5" d="M920.3,267.8l-4,19.7l-19.7,33l-24.2-10.4c0,0-33-34.5-12.2-39.5c2.5-0.5,4.8-1.6,6.9-3.1
	c-3.7,10.3,11.7,31.7,11.7,31.7c1.8,2.7,5.9,1,5.9,1c10-1.5,28.3-30.1,31.2-34.9C917.2,266.6,918.7,267.3,920.3,267.8z"/>
<path class="st5" d="M939.3,459.1c-5.8,1.3-38.2,8.5-50.4,6.7c-13.5-2-39.7-3.3-39.7-3.3s-16.7,0.9-21.8-1.5c0-0.6,0-1,0-1l9.5-11.4
	c0,0,92.1-6.9,99,0C937.6,450.4,938.7,454.2,939.3,459.1z"/>
<path class="st18" d="M878.7,300.4c0,0-17.3-24-10.8-33.4l-29.3,12c0,0-17.6-2.1-24,24.2c-1,4.4-1.4,8.9-1.1,13.4
	c0.2,4-0.3,11-4.8,20c-7.2,14.5-5.6,47.7,9.2,51s20.1,1.6,20.1,1.6s-2,60.2-10.5,67.1s21.8,5.3,21.8,5.3s26.2,1.3,39.7,3.3
	s51.3-6.9,51.3-6.9s-5.6-25.3-7.6-41.4s-6.6-50.4-6.6-50.4l33.5-45.4c0,0,5.9-27.5-14.8-39.6c-20.7-12.2-28.5-15.1-28.5-15.1
	s-20.8,33.9-31.7,35.5C884.6,301.3,880.5,303,878.7,300.4z"/>
<path class="st5" d="M840.2,309.9c0,0-0.3,10.9,1.7,15.1s9.2,28,9.2,28h-16.5c0,0,8.9-9.5,8.2-14.1S840.2,309.9,840.2,309.9z"/>
<path class="st17" d="M888.9,391.8c0,0-36.3-8.9-39.7-16.4s-12.7-24.5-12.7-24.5l3.8-5.2l17.7,13.9c0,0,21,16.8,30.9,18.4
	S888.9,391.8,888.9,391.8z"/>
<path class="st19" d="M888.9,391.8c0,0-36.3-8.9-39.7-16.4s-12.7-24.5-12.7-24.5l3.8-5.2l17.7,13.9c0,0,21,16.8,30.9,18.4
	S888.9,391.8,888.9,391.8z"/>
<path class="st17" d="M920.3,349v19.7h-3.2c-15.6,0-31,4-44.7,11.6l-5.9,3.3l-1.6,0.9l-10.2-23l9.5-8.5h0.5
	c2.3,0.2,12.4,1.1,16.7-0.4c4.1-1.4,9.1-5.8,21.1-2.7c5.9,1.5,10.9,8.1,16.6,6L920.3,349z"/>
<path class="st5" d="M952,313.2l6.6,7.4v17.9c0,0-5.6,56.6-23.3,62.8s-49.5-3.6-49.5-3.6s-8.2-21.7-4.4-23s33.8-9.2,33.8-9.2
	s-0.4-33.2,6.2-43c0,0-4.3-30.9,10.5-31.6C946.8,290.2,952,313.2,952,313.2z"/>
<path class="st18" d="M953,313.2l6.6,7.4v17.9c0,0-5.6,56.6-23.3,62.8s-49.5-3.6-49.5-3.6s-8.2-21.7-4.3-23s33.8-9.2,33.8-9.2
	s-0.4-33.2,6.2-43c0,0-4.3-30.9,10.5-31.6C947.8,290.2,953,313.2,953,313.2z"/>
<path class="st9" d="M907.1,237.2c0.3-2.2,0-4.4-0.8-6.4c-0.9-2-3.1-3.5-5.2-3c-2.8,0.7-4,4.3-6.8,5.2c-2.3,0.7-4.9-0.9-6-3.1
	s-1.1-4.7-1.1-7.2c0-2.7,0-5.5,0-8.2c0-3-0.1-6.2-1.9-8.6c-2.3-2.9-7.7-4.2-11.3-4.1c-2.4,0-4.7,1-6.4,2.6c-1.9,1.6-4.2,2.8-6.8,2.4
	c-2.2-0.3-4.1-1.9-4.7-4.1v-0.1c11.1-14.8,32.2-17.8,47-6.6c14.8,11.1,17.8,32.2,6.6,47c-1.1,1.5-2.4,2.9-3.7,4.2
	C906.5,243.9,906.9,240.5,907.1,237.2z"/>
<path class="st20" d="M704.3,323.5c-2.2-0.3-4.1-1.9-4.7-4.1c-0.3-1.1-0.2-2.2-0.5-3.2c-0.8-2.6-3.5-3.9-5.4-5.9
	c-3.7-3.9-3.5-10.4-0.8-15.1c2.1-3.8,6.2-7,10.5-6.3c2.7,0.5,5,2.4,7.7,2.5s5-1.3,7.3-2.4c5.7-2.6,12.1-3.2,18.2-1.6
	c1.9,0.4,3.6,1.2,5,2.5c1,1.2,1.8,2.5,2.7,3.8c3.1,3.9,8.5,4.7,13.4,5.5s10.4,2.8,12,7.5c1.1,3.1,0,6.5-0.6,9.7
	c-0.2,0.7-0.1,1.4,0.1,2c0.8,1.3,2.7,0.7,4.1,1c2.8,0.6,3.5,4.2,3.6,7c0.1,3.2,0.2,6.5,0.3,9.7c0.1,1.2,0,2.4-0.3,3.6
	c-0.6,1.7-1.6,3.2-2.8,4.5l-10.9,13c-4.8,5.8-9.9,12.5-9,20c-2.3,1-5-1-5.7-3.3s-0.2-5,0.4-7.4c0.9-4.2,1.5-8.5,1.7-12.9
	c0.3-2.2,0-4.4-0.8-6.4c-0.9-2-3.1-3.5-5.2-3c-2.8,0.7-4,4.3-6.8,5.2c-2.3,0.7-4.9-0.9-6-3.1s-1.1-4.7-1.1-7.1V331
	c0-3-0.1-6.2-1.9-8.6c-2.3-2.9-7.7-4.2-11.3-4.1c-2.4,0-4.7,1-6.4,2.6C709.2,322.7,706.9,323.9,704.3,323.5z"/>
<path class="st5" d="M912,427c0,0,16.6-5.5,17.8,7.2C929.8,434.2,926.7,425.5,912,427z"/>
<path class="st5" d="M864.2,354c0,0-3.3,23,2.6,32.2c0,0-12,4.9-28.9,4l-2-36.2H864.2z"/>
<path class="st5" d="M866.5,383.6l-1.6,0.9l-10.2-23l9.5-8.5h0.5l0,0C864.6,354.1,861.9,373.9,866.5,383.6z"/>
<path class="st18" d="M864.2,353c0,0-3.3,23,2.6,32.2c0,0-12,4.9-28.9,4L826.4,353H864.2z"/>
<path class="st4" d="M835.8,737.1c-0.4,3.4-3,6.1-6.4,6.5c-8.9,1.3-30.4,4.7-35.9,7.3c-6.9,3.3-34.2,1-35.5-2.3
	c-0.4-1.3-0.2-2.8,0.5-4c0.9-2,2.5-3.7,4.4-4.7c0.6-0.4,1.3-0.6,2-0.9c5.1-1.7,14.8-5.3,17.5-9.2c0,0,12.1-10.6,15.6-16.3
	c1.3-2.3,3.7-3.8,6.3-3.9c2.9-0.1,6.1,1.3,7.4,7.6c0,0,15.8,9,20,1.1c0,0,0.7,12.1,3.3,15.4l0,0C835.7,734.7,836,735.9,835.8,737.1z
	"/>
<path class="st5" d="M835.8,737.1c-0.4,3.4-3,6.1-6.4,6.5c-8.9,1.3-30.4,4.7-35.9,7.3c-6.9,3.3-34.2,1-35.5-2.3
	c-0.4-1.3-0.2-2.8,0.5-4c0.9-2,2.5-3.7,4.4-4.7c4.5,3,14.3,5.8,36.1,2.5c20.7-3.2,31-6.4,36-8.6l0,0
	C835.7,734.7,836,735.9,835.8,737.1z"/>
<g class="st14">
	<path d="M925.5,199.3v-0.2c0.5-2.5,1.2-5,1-7.5c-0.2,2-0.5,4-1,6C925.4,198.2,925.4,198.8,925.5,199.3z"/>
	<path d="M906.3,230.1c0.5,1.2,0.8,2.5,0.8,3.8c0.1-1.8-0.1-3.6-0.8-5.2c-0.9-2-3.1-3.5-5.2-3c-2.8,0.7-4,4.3-6.8,5.2
		c-2.3,0.7-4.9-0.9-6-3.1s-1.1-4.7-1.1-7.2c0-2.8,0-5.5,0-8.2c0-3-0.1-6.2-1.9-8.6c-2.3-2.9-7.7-4.2-11.3-4.1c-2.4,0-4.7,1-6.4,2.6
		c-1.9,1.6-4.2,2.8-6.8,2.4c-2.2-0.3-4.1-1.9-4.7-4.1c-0.3-1.1-0.2-2.2-0.5-3.2c-0.8-2.6-3.5-3.9-5.4-5.9c-1.7-1.9-2.7-4.4-2.8-7
		c-0.3,3.1,0.7,6.1,2.8,8.4c1.8,2,4.6,3.3,5.4,5.9c0.3,1,0.2,2.2,0.5,3.2c0.7,2.2,2.5,3.7,4.7,4.1c2.6,0.4,4.8-0.8,6.8-2.4
		c1.7-1.6,4-2.6,6.4-2.6c3.6-0.1,9,1.2,11.3,4.1c1.8,2.4,1.9,5.6,1.9,8.6c0,2.8,0,5.5,0,8.2c0,2.4,0,5,1.1,7.2
		c1.1,2.1,3.7,3.8,6,3.1c2.8-0.9,4-4.5,6.8-5.2C903.2,226.6,905.4,228.2,906.3,230.1z"/>
	<path d="M933.4,221c-0.6,1.7-1.6,3.2-2.8,4.5l-10.9,13c-4.6,5.5-9.4,11.8-9,18.9c0.3-6.4,4.8-12.3,9-17.4l10.9-13
		c1.2-1.3,2.2-2.8,2.8-4.5c0.3-1.2,0.4-2.4,0.3-3.6C933.6,219.6,933.5,220.3,933.4,221z"/>
	<path d="M905,255.3c-0.2-0.6-0.3-1.2-0.3-1.8c-0.1,1.1,0,2.2,0.3,3.2c0.7,2.4,3.5,4.4,5.7,3.3c-0.1-0.5-0.1-1-0.1-1.4
		C908.4,259.5,905.7,257.6,905,255.3z"/>
</g>
<path class="st5" d="M795.7,716.5c0,0,3.4,6,15.9,0.7"/>
<path class="st5" d="M901,718c0,0,10.7,12.7,24.3,4.2"/>
<path class="st5" d="M932.3,568.4c0,0-7.6,4.7-7.8,7.5s3.9-2,3.9-2L932.3,568.4z"/>
<path class="st5" d="M935.3,604.8c-2.6,2.2-5.9,3.5-9.3,3.7c-5.7,0.2-5.2,7.7-1.5,5.4S935.3,604.8,935.3,604.8z"/>
<path class="st5" d="M936.7,609.5c0,0-3.6,17.9-6.6,14.4"/>
<linearGradient id="SVGID_3_" gradientUnits="userSpaceOnUse" x1="2979.6016" y1="653.992" x2="2979.6016" y2="1242.6389" gradientTransform="matrix(-1 0 0 -1 3311.71 1399.86)">
	<stop  offset="0" style="stop-color:#808080;stop-opacity:0.25"/>
	<stop  offset="0.54" style="stop-color:#808080;stop-opacity:0.12"/>
	<stop  offset="1" style="stop-color:#808080;stop-opacity:0.1"/>
</linearGradient>
<path class="st21" d="M233.5,743.6c0,0,22.8,6.3,33.8-2.1s15.8-5.7,15.8-5.7s26.2-1.5,28.4-7.7s-10.1-28.7-10.1-28.7
	c-0.9-2-2.1-4.5-2.7-4.5l0.1-9.5l0,0l3.8-39.8c8.8-22.5,0.2-51.5,0.2-51.5l-1.6-7.2c-0.9-4.1-0.4-8.3,1.5-12l15.9-32
	c0.9-2.1,1.9-4.2,3-6.1c1-1.8,2.3-4.1,4-6.8c0.5-0.8,1-1.6,1.6-2.4c1.9-3,4.3-6.4,7.1-10.3c7-9.8,10.8-22,12.7-31l0.9,2.8l0,0h0.1
	l0,0h0.2l0,0h0.3h0.1l0.4,0.1h0.1l4.9,62.4c0.3,24.3,9.2,37.8,9.2,37.8l-1.2,53.7c1.7,12.9-2,30.2-3.7,37l-3.9,8.7
	c-3.1,1.5-5.2,4.5-5.7,7.9c-0.8,6.4-7.5,20.3-7.5,20.3c-2.6,3.3-8.3,12.3-8.3,12.3s-2.7,8.7-1,11.9s15.5,2.9,15.5,2.9
	c15.9,3.5,28-5,27.2-10.9s2.5-7.3,2.5-7.3c6.3-2,5.7-6.3,5.7-6.3c1.4-8.8-0.3-17.8-4.8-25.5l-1,2.3c-0.3-4.6,0.4-9.3,1.9-13.6
	l-0.6,0.4l-0.2,0.1H378c1-8.8,10.2-25,10.2-25c16.9-29.7,10.8-69.9,10.8-69.9l-2.6-12.5l-0.1-4.7c-0.4-11.3,0.5-22.6,2.5-33.7
	c0.9-4.9,1.9-10.9,2.6-17.4c1.5-13.8,6.4-28.1,8.7-34.2l0.7-0.1h0.1c0.9-0.2,1.9-0.3,2.8-0.5h0.2c0,0,0.5-2.9,1-7.9
	c0.3-3.2,0.5-7.2,0.5-11.8c0.1-13.9-2.1-27.8-6.3-41.1l0.5-0.7c0,0,1.2-1.6,3.4-4.5l0,0c4.1-5.2,10.4-13,18.2-21.8
	c14-15.9,9.9-32,9.9-32s-10.1-37-14.6-59.2c-2.6-12.7-7.4-21.3-11.1-26.4c0.8-3.5,1.3-7.1,1.4-10.7c0.3-6.6,0.1-13.4-2.9-19.3
	s-9.3-10.6-15.8-9.8c-0.9,0.2-1.9,0.2-2.8,0c-0.8-0.3-1.4-0.9-1.9-1.6c-3.9-5.3-4.1-12.5-2.9-18.9s3.7-12.6,4.8-19.1
	c1.1-6.5,0.6-13.6-3.5-18.8c-4.8-6-13.2-7.7-19.5-12.2c-4.4-3.2-7.7-7.7-12.4-10.5s-9-1.7-14-0.7c-8.5,1.8-16.6,2.6-24.6,6.3
	c-8.1,3.7-15.4,9-21.4,15.6c-2.1,2.1-3.8,4.7-4.8,7.5c-2,6.6,1.9,13.6,1.1,20.5c-0.6,4.8-3.4,9.1-5.7,13.4c-2.3,4.3-4,9.5-2.2,14
	c2.8,7.1,11.9,8.6,18.6,12.4c0.9,0.4,1.6,1.1,2.2,1.9c1.6,2.9-1.7,5.8-3.8,8.4c-1.2,1.5-2.1,3.2-2.5,5.1c-5.6,2.3-9.7,7.2-10.9,13.1
	c-2.2,10.1,1.2,22.8,4.3,31.2c-3.3,18.7,1,26.1,4.2,28.9s5.2,6.7,5.6,10.9v0.4c0.2,3.4,0.6,6.8,1,10.2l0,0c-0.1-0.8-0.2-1.6-0.3-2
	c-2.6,4.8-7.6,17.2-10.4,37.9c-0.6,4.4-1.4,8.9-2.5,13.2c-2,7.7-2.7,15.7-2.1,23.6l0.5,6.7c-0.5,0-1-0.1-1.4-0.5l3.5,6.4v10.9
	c0,4.9-0.9,9.7-2.7,14.3c-0.2,0.7-0.5,1.3-0.8,2c-0.9,1.8-1.3,3.9-1.2,5.9c-7.5,11.6-24.9,76.4-24.9,76.4c-9.4,21.3,0.8,35,0.8,35
	s4.9,59.2,5.8,62.2s3,39.1,3,39.1l0,0c0,1,0,1.9,0,2.9c-0.5-0.2-1.1-0.4-1.7-0.5c-8.2-0.5-10.5,12.5-10.5,12.5l-16.9,16.1
	c0,0-7.7-1.3-19,7.2S233.5,743.6,233.5,743.6z M401.7,401.5v-0.2l-0.5,0.3l0,0l-0.2,0.1l-0.1,0.1l0,0l-7.8-27.4
	c-2.1-7.3-2.3-15.1-0.6-22.5l6-26.3l0,0v-6.3l19.1,50.8C418.8,376.9,407.5,393.5,401.7,401.5z"/>
<path class="st22" d="M410,484.2c0,0-7.7,18.7-9.7,36.7c-0.7,6.5-1.6,12.3-2.5,17.2c-2,11-2.8,22.1-2.5,33.3l0.1,4.7l2.5,12.4
	c0,0,6,39.7-10.6,69c0,0-9.8,17.5-10.1,25.8l-6.6,2.6l-13.4-3.8c0,0,6.5-23.3,4.4-39.6l1.2-53c0,0-8.7-13.3-9-37.3l-5.1-65.9
	L410,484.2z"/>
<path class="st22" d="M348.7,474.8c0,0-1.6,25.7-14.4,43.4s-15.4,25.4-15.4,25.4l-15.6,31.6c-1.8,3.7-2.3,7.8-1.5,11.8l1.5,7.1
	c0,0,8.5,28.7-0.1,50.9l-4.1,42.9h-23.9c0,0-2-35.7-2.9-38.7s-5.7-61.5-5.7-61.5s-10-13.6-0.8-34.6c0,0,20.9-78.5,26.4-77.2
	S348.7,474.8,348.7,474.8z"/>
<g class="st14">
	<path d="M301,594.2l-1.5-7.1c-0.9-4-0.4-8.2,1.5-11.9l15.6-31.7c0,0,2.7-7.7,15.4-25.4c12.2-17,14.2-41.4,14.3-43.2l2.4-0.1
		c0,0-1.6,25.7-14.4,43.4c-12.8,17.7-15.4,25.4-15.4,25.4l-15.6,31.6c-1.8,3.7-2.3,7.8-1.5,11.8l1.5,7.1c0,0,8.5,28.7-0.1,50.9
		l-4.1,42.9h-2.4l4.1-42.9C309.4,622.8,301,594.2,301,594.2z"/>
</g>
<path class="st5" d="M375,683.2c0.3-8.3,10.1-25.8,10.1-25.8c16.6-29.3,10.6-69,10.6-69l-2.6-12.4l-0.1-4.7
	c-0.4-11.1,0.5-22.3,2.5-33.3c0.9-4.9,1.8-10.7,2.5-17.2c1.9-17.3,9.1-35.3,9.6-36.6l2.5-0.1c0,0-7.7,18.7-9.7,36.7
	c-0.7,6.5-1.6,12.3-2.5,17.2c-2,11-2.8,22.1-2.5,33.3l0.1,4.7l2.5,12.4c0,0,6,39.7-10.6,69c0,0-9.8,17.5-10.1,25.8l-6.6,2.6
	l-1.4-0.4L375,683.2z"/>
<path class="st23" d="M367.3,682.9c3.7,1.4,7.8,0.9,11-1.4c-2.2,6.4-2.5,13.3-0.9,19.9c2.7,10.9-25.4-8.8-25.4-8.8l6-13.7
	C358,679,360.3,683.4,367.3,682.9z"/>
<path class="st5" d="M369.4,683.5c3.1,0.6,6.4-0.1,8.9-2c-2.2,6.4-2.5,13.3-0.9,19.9c2.7,10.9-25.4-8.8-25.4-8.8l6-13.7
	c0,0,1.7,3.3,6.9,3.9C366.4,683.1,367.9,683.3,369.4,683.5z"/>
<polygon class="st22" points="303.5,428.8 315.3,428.8 315.3,362.2 306.4,360.6 "/>
<polygon class="st19" points="303.5,428.8 315.3,428.8 315.3,362.2 306.4,360.6 "/>
<path class="st4" d="M360.6,688.1c0,0,7.4-0.5,10.7,6.2l4.1,3.2l2-4.7c4.3,7.6,6,16.5,4.6,25.2c0,0,0.6,4.2-5.6,6.2
	c0,0-3.2,1.5-2.4,7.2s-11.2,14.2-26.7,10.7c0,0-13.6,0.3-15.3-2.9s1.1-11.6,1.1-11.6s5.6-8.9,8.1-12.1c0,0,6.6-13.7,7.4-20
	S356.7,684.6,360.6,688.1z"/>
<path class="st23" d="M299.4,693.7l0.1-9.4c0,0-13.5,3.9-24.4-0.5c0,0,0.9,9.4-0.6,10.7s5.1,13.4,5.1,13.4l7.4,7.7l12.6-4.6
	l3.4-10.8C302.9,700.2,300.3,693.7,299.4,693.7z"/>
<path class="st5" d="M299.4,693.7l0.1-9.4c0,0-13.5,3.9-24.4-0.5c0,0,0.9,9.4-0.6,10.7s5.1,13.4,5.1,13.4l7.4,7.7l12.6-4.6l3.4-10.8
	C302.9,700.2,300.3,693.7,299.4,693.7z"/>
<path class="st4" d="M273.6,690.3c0,0,7.2,0.8,6.3,10s0.4,0,0.4,0s7.6,3.1,10.4,7.4s7.6-3.8,8-6.2s3.4-3.3,3.4-3.3s12,22.2,9.9,28.4
	s-27.9,7.5-27.9,7.5s-4.7-2.6-15.5,5.6s-33.2,2-33.2,2s-18.3-7.6-7.2-16s18.6-7.1,18.6-7.1l16.5-15.9
	C263.3,702.6,265.5,689.8,273.6,690.3z"/>
<path class="st3" d="M359.4,164.2c4.6,2.8,7.8,7.3,12.1,10.4c6.2,4.4,14.4,6.1,19.2,12c4,5.1,4.5,12.1,3.4,18.5s-3.5,12.5-4.7,18.8
	s-0.9,13.4,2.9,18.6c0.4,0.7,1.1,1.3,1.8,1.6c0.9,0.2,1.9,0.2,2.8,0c6.5-0.8,12.7,3.8,15.6,9.7c2.9,5.9,3.1,12.6,2.8,19.1
	c-0.2,5.3-0.9,10.8-3.2,15.6c-4,8.2-12.3,13.2-20.5,17.1c-5.3,2.5-10.8,4.7-16.4,6.6c-3.8,1.3-7.9,2.5-11.9,1.8
	c-6.8-1.2-11.7-7.4-18.1-9.8c-5.3-2-11.2-1.3-16.9-0.8c-4.8,0.4-10.3,0.4-13.6-3.1c-4.3-4.5-2.3-11.8-0.2-17.6
	c-6.9-0.4-12.2-6.4-11.7-13.3c0.2-2.6,1.2-5.2,2.9-7.2c2.1-2.5,5.4-5.4,3.7-8.3c-0.5-0.8-1.3-1.5-2.2-1.9
	c-6.5-3.7-15.5-5.2-18.2-12.2c-1.8-4.5-0.1-9.6,2.2-13.8c2.2-4.3,5-8.5,5.6-13.2c0.8-6.8-3-13.7-1.1-20.2c1-2.8,2.6-5.3,4.7-7.5
	c5.9-6.5,13-11.7,21-15.4c7.9-3.6,15.8-4.4,24.1-6.2C350.5,162.5,354.7,161.4,359.4,164.2z"/>
<path class="st22" d="M315.2,264.9c0,0-19.1-1-22.8,15.3s7.9,39.7,7.9,39.7L315.2,264.9z"/>
<path class="st19" d="M315.2,264.9c0,0-19.1-1-22.8,15.3s7.9,39.7,7.9,39.7L315.2,264.9z"/>
<path class="st22" d="M303,313.5l7.2,5.7l33.8,1.5l21.1-14.5l21.5-36.9c-13.1-3.3-18.4-12.4-20.4-20.9c-1.3-5.7-1.4-11.7-0.4-17.5
	c0,0-34.4-17.8-30.2,10c0.6,3.4,0.7,6.9,0.3,10.3c-2,16.3-17.8,13.2-17.8,13.2l-6.1,9.4l-7,23L303,313.5z"/>
<path class="st5" d="M335.7,241c0.6,3.4,0.7,6.9,0.3,10.3c9.9,4.5,21.4,3.4,30.3-2.8c-1.3-5.7-1.4-11.7-0.4-17.5
	C365.9,231,331.5,213.2,335.7,241z"/>
<circle class="st22" cx="348.7" cy="222.3" r="30.5"/>
<path class="st18" d="M327.1,307.6c0.7,0,1.5,0.1,2.2,0.2c4,0.4,20.7,1.3,30.2-10.1c10.6-12.7,24.8-28.4,25.4-29.1l0,0l14.4,4.4
	c0,0-11.4-4.1-19,17.2c-3.4,9.2-0.4,19.5,7.4,25.3c2.8,2,6,3.4,9.4,4l0,0v9.3l0,0l-5.9,26c-1.7,7.3-1.5,15,0.6,22.2l9,31.8l0,0
	c-1.4,0.9-57.2,38.9-94.5,12.7l0,0c0.1-1.1,4.8-38.5,1.5-56.7c-0.8-4.7-1.4-9.4-1.7-14.1c0-0.1,0-0.2,0-0.4
	c-0.3-4.2-2.3-8.1-5.5-10.8c-3.4-3-7.9-11-3.4-32.1c1.1-5.2,2.8-10.3,5-15.2l12.5-28.3l0,0l11.5,0.2 M326.5,264.3
	c-1,1.2-14.4,17.9-15.8,28.7c-1.4,10.2-3.2,13.4,16.5,14.6L326.5,264.3z"/>
<path class="st22" d="M409.1,278c0,0,11.3,9.7,15.7,31.6c4.4,21.9,14.3,58.4,14.3,58.4s4,15.9-9.7,31.6s-22.8,28-22.8,28l-9,13.3
	c-1.5,2.3-3.8,3.9-6.5,4.6c-4.1,1.1-10.4,1.9-15.9-1.1c-4.1-2.3-5.8-7.3-4-11.7l2-4.6c0,0-18.5,11.7-20.1,5.2s21.5-12.9,21.5-12.9
	s19.1-3.2,23-12.3c0,0,20.5-26.4,18.9-35.5l-19.8-53.2c0,0-24.8-3.3-16.3-31.1S409.1,278,409.1,278z"/>
<path class="st8" d="M290.5,478.6c0,0,45.3,9.1,56,7.8l1.1,3.8c0,0,17.2,3.8,56.1-2.3c2.5-0.4,5.2-0.8,7.9-1.3l0.9-0.2
	c0,0,0.5-2.9,1-7.8c0.9-11.2,1.3-32.7-6.6-54.8l-6.5-20.1c0,0-40.4,24.2-67.2,22c-2.4-0.2-4.8-0.4-7.1-0.5c-5.5-0.2-14,0-19.5-4.4
	l-11.6,2v33c0,4.8-0.9,9.6-2.6,14.1c-0.2,0.7-0.5,1.3-0.8,2C290.4,474,290.1,476.3,290.5,478.6z"/>
<path class="st24" d="M347.6,480v10.3c0,0,19.8,4.4,64.9-3.8c0,0,0.5-2.9,1-7.8C399.6,480.9,361.5,486.2,347.6,480z"/>
<path class="st24" d="M290.5,478.6c0,0,45.3,9.1,56,7.8l1.1,3.8v-10.3c-5.2,2.1-42-6.7-55.4-10.1c-0.2,0.7-0.5,1.3-0.8,2
	C290.4,474,290.1,476.3,290.5,478.6z"/>
<path class="st25" d="M400.3,467.2l3.4,20.8c2.5-0.4,5.2-0.8,7.9-1.3c-1-6.1-3.3-20-2.7-22.3l-4.2-3.6L400.3,467.2z"/>
<path class="st24" d="M400.8,466.7l3.4,20.8c2.5-0.4,5.2-0.9,7.9-1.3c-1-6.1-3.3-20-2.7-22.3l-4.2-3.6L400.8,466.7z"/>
<g class="st26">
	<path d="M330.7,425.7c-2.4-0.2-4.8-0.4-7.1-0.5c-5.3-0.2-13.5,0-19-4.1l1.9-0.3c5.6,4.4,14,4.2,19.5,4.4c2.4,0.1,4.8,0.3,7.1,0.5
		c0.8,0.1,1.6,0.1,2.4,0.1C334,425.9,332.3,425.8,330.7,425.7z"/>
	<path d="M401.3,488c2.5-0.4,5.2-0.8,7.9-1.3l0.9-0.2c0,0,0.5-2.9,0.9-7.8c0.9-11.2,1.3-32.7-6.6-54.8l-6.2-19c1.3-0.7,2-1.2,2-1.2
		l6.5,20.1c7.9,22.1,7.5,43.7,6.6,54.8c-0.4,4.9-1,7.8-1,7.8l-0.9,0.2c-2.7,0.5-5.4,0.9-7.9,1.3c-18.2,2.9-31.6,3.6-40.8,3.5
		C375.8,491.2,388.6,490.1,401.3,488z"/>
	<path d="M344,486.5L344,486.5l-1.3,0.1C343.2,486.5,343.7,486.5,344,486.5z"/>
</g>
<ellipse class="st24" cx="406" cy="467.5" rx="1.7" ry="3.5"/>
<path class="st22" d="M296.8,396.3c2.8-20.5,7.6-32.7,10.2-37.5c0.1,0.6,0.4,2.8,0.5,3.4c0.5,3,0.1,6.8,0.2,10.6l-2.6,46.4l3.4,14.5
	c3.2,11.5-8.7,2.4-8.7,2.4c-2.5,5.4-7,4.8-7,4.8l-0.6-8.3c-0.6-7.8,0.1-15.7,2.1-23.3C295.4,405,296.3,400.6,296.8,396.3z"/>
<path class="st19" d="M296.8,396.3c2.8-20.5,7.6-32.7,10.2-37.5c0.1,0.6,0.4,2.8,0.5,3.4c0.5,3,0.1,6.8,0.2,10.6l-2.6,46.4l3.4,14.5
	c3.2,11.5-8.7,2.4-8.7,2.4c-2.5,5.4-7,4.8-7,4.8l-0.6-8.3c-0.6-7.8,0.1-15.7,2.1-23.3C295.4,405,296.3,400.6,296.8,396.3z"/>
<path class="st22" d="M411.6,421.3c-2.2,2.8-3.4,4.4-3.4,4.4l-9,13.2c-1.5,2.3-3.8,3.9-6.5,4.6c-4.1,1.1-10.4,1.9-15.9-1.1
	c-4.1-2.3-5.8-7.3-4-11.7l2-4.6c0,0-18.5,11.7-20.1,5.2s21.5-12.9,21.5-12.9s19.1-3.2,23-12.3c0,0,1.7-2.1,4-5.4"/>
<path class="st25" d="M400.3,443.5c0,0-21.9-2.1-28.9-14.7l-3.2,10.3c0,0,23,15.9,28.2,13.8L400.3,443.5z"/>
<path class="st24" d="M399.6,443.4c0,0-21.9-2.1-28.9-14.7l-3.2,10.3c0,0,23,15.9,28.2,13.8L399.6,443.4z"/>
<path class="st25" d="M300.6,437.6c0,0-7.7,2.7-9.2,1.2l3.5,6.3l6.5-5L300.6,437.6z"/>
<path class="st5" d="M300.6,437.6c0,0-7.7,2.7-9.2,1.2l3.5,6.3l6.5-5L300.6,437.6z"/>
<polygon class="st5" points="347.6,480 347.6,466.8 344.5,480.3 "/>
<path class="st5" d="M378.7,206.2c-1.9,2.6-5.1,3.9-8.2,4.3s-6.4,0.1-9.5,0c-5-0.1-10.3,0.7-14.4,3.6c-2.6,1.9-4.6,4.5-6.6,7
	c-6.2,7.5-14.8,14.6-24.5,13.8c-1.7,0-3.4-0.7-4.5-1.9c-0.8-1.2-1.2-2.7-1.2-4.1c-0.4-6.2-0.2-12.5,0.6-18.7
	c0.4-3.8,1.3-7.6,2.8-11.1c1.7-3.6,4-6.8,6.8-9.7c3.3-3.9,7.3-7.1,11.8-9.5s9.8-3.1,14.8-1.9c5.8,1.6,10.4,6.2,15.9,8.5
	C368.8,189.3,385.6,196.4,378.7,206.2z"/>
<path class="st3" d="M378.7,205c-1.9,2.6-5.1,3.9-8.2,4.3s-6.4,0.1-9.5,0c-5-0.1-10.3,0.7-14.4,3.6c-2.6,1.9-4.6,4.5-6.6,7
	c-6.2,7.5-14.8,14.6-24.5,13.8c-1.7,0-3.4-0.7-4.5-1.9c-0.8-1.2-1.2-2.7-1.2-4.1c-0.4-6.2-0.2-12.5,0.6-18.7
	c0.4-3.8,1.3-7.6,2.8-11.1c1.7-3.6,4-6.8,6.8-9.7c3.3-3.9,7.3-7.1,11.8-9.5s9.8-3.1,14.8-1.9c5.8,1.6,10.4,6.1,15.9,8.5
	C368.8,188.1,385.6,195.2,378.7,205z"/>
<polygon class="st22" points="306.5,420.8 306.4,424.4 305.6,420.9 "/>
<polygon class="st19" points="306.5,420.8 306.4,424.4 305.6,420.9 "/>
<g class="st26">
	<path d="M383.6,286.5c-8.5,27.9,16.2,31.1,16.2,31.1l19.8,53.2c1.6,9.1-18.9,35.5-18.9,35.5c-1.4,3.4-5,6-8.9,7.9
		c2.3-1.4,4.1-3.4,5.3-5.8c0,0,20.5-26.4,18.9-35.4l-19.8-53.4c0,0-24.7-3.3-16.2-31.1c2.8-9.3,7-13.5,11.2-15.1
		C388.3,275.8,385.6,279.8,383.6,286.5z"/>
</g>
<g class="st14">
	<path d="M384,311.8c1.2,1.4,2.5,2.7,4,3.8c2.8,2,6,3.4,9.4,4l0,0v1c-3.1-0.7-6-1.9-8.6-3.8C387,315.4,385.4,313.7,384,311.8z"/>
	<path d="M307.3,351.6c0,0.1,0,0.2,0,0.3c0.3,4.8,0.9,9.5,1.7,14.2c3,17.2-0.9,51.5-1.5,56.2c-0.3-0.2-0.6-0.4-1-0.6l0,0
		c0.1-1.1,4.8-38.5,1.6-56.7c-0.8-4.7-1.4-9.4-1.7-14.1c0-0.1,0-0.2,0-0.4c-0.2-2.7-1.1-5.4-2.7-7.6
		C305.8,345.4,307.1,348.4,307.3,351.6z"/>
	<path d="M325.7,265.4l-9.8-0.2l0,0l-12.5,28.3c-2.2,4.9-3.9,10-5,15.2c-3.6,17.1-1.4,25.6,1.4,29.8c-3.1-3.7-6.4-12.1-2.3-31
		c1.1-5.2,2.8-10.3,5-15.2l12.6-28.3l0,0l11.5,0.2 M326.6,264.3c-0.1,0.1-0.4,0.5-0.8,1.1L326.6,264.3z"/>
	<path d="M399.4,273h0.2H399.4z"/>
	<path d="M395.8,272.9l-9.8-3 M386,269.9c-0.6,0.6-14.8,16.4-25.4,29.1c-9.5,11.4-26.2,10.5-30.2,10.1c-0.7-0.1-1.5-0.1-2.2-0.2
		c-10.9-0.7-15.2-2-16.7-4.8c2,2,6.6,3,15.8,3.6c0.7,0,1.5,0.1,2.2,0.2c4,0.4,20.7,1.3,30.2-10.1c10.6-12.7,24.8-28.4,25.4-29.1l0,0
		l14.3,4.3c-1.1-0.3-2.3-0.3-3.5-0.2L386,269.9z"/>
</g>
<path class="st5" d="M279.8,704.8c0,0-13.8,3.8-16.5-2.2"/>
<path class="st5" d="M367.4,702c0,0-16,4.1-19.7-2.3"/>
<g>
	<path class="st27" d="M880.4,321.9c-0.1,0.3,0.1,0.6,0.4,0.7c2.4,1.8,4.9,3.5,7.2,5.3c0.4,0.3,0.7,0.3,1,0.1c1.3-0.4,2.3,0,3.2,0.9
		c0.8,1,1,2.1,0.4,3.2c-0.6,1.1-1.6,1.8-2.8,1.6c-1-0.1-1.5,0.4-2.1,0.8c-1.3,1-2.7,2.1-3.9,3.1c-0.4,0.3-0.8,0.5-1.3,0.4
		c-0.6-0.1-1.1-0.4-1.2-0.9c-0.2-0.7-0.1-1.1,0.5-1.6c1.1-0.9,2.3-1.9,3.6-2.8c0.3-0.3,0.7-0.6,0.9-0.8c0.5-0.3,0.7-0.7,0.6-1.2
		c0-0.2-0.1-0.5-0.4-0.6c-2.5-1.8-5.1-3.6-7.6-5.4c-0.3-0.2-0.5-0.2-0.8-0.1c-1.7,0.5-3.5-0.5-4-2.1c-0.5-1.6,0.7-3.1,2.3-3.6
		C878.5,318.6,880.4,320,880.4,321.9z"/>
	<path class="st28" d="M877.6,337.8c1.7,0,3.2,1.2,3.2,3c0,1.6-1.4,3-3.1,3c-1.7,0-3.2-1.3-3.2-3
		C874.4,339.3,875.8,337.8,877.6,337.8z"/>
</g>
</svg>
