<?xml version="1.0" encoding="utf-8"?>
<!-- Generator: Adobe Illustrator 22.1.0, SVG Export Plug-In . SVG Version: 6.00 Build 0)  -->
<svg version="1.1" id="_x32_71e5882-3c8d-41ed-8a0a-1cb2b4d0cbc1"
	 xmlns="http://www.w3.org/2000/svg" xmlns:xlink="http://www.w3.org/1999/xlink" x="0px" y="0px" viewBox="0 0 1137.7 859.7"
	 style="enable-background:new 0 0 1137.7 859.7;" xml:space="preserve">
<style type="text/css">
	.st0{opacity:0.1;fill:#E20817;enable-background:new    ;}
	.st1{fill:#E0E0E0;}
	.st2{fill:#A0616A;}
	.st3{fill:#332326;}
	.st4{fill:#2F2E41;}
	.st5{fill:#FD3F4D;}
	.st6{fill:#CCCCCC;}
	.st7{fill:#FFFFFF;}
	.st8{fill:#FFB8B8;}
	.st9{fill:#3F3D56;}
	.st10{fill:#060606;}
	.st11{fill:#F23A44;}
</style>
<circle class="st0" cx="601.4" cy="410.4" r="320.5"/>
<title>team spirit</title>
<path class="st1" d="M477.6,501.3c0-11.7-44-21.2-98.3-21.2s-98.3,9.5-98.3,21.2c0,7.5,18.1,14.1,45.4,17.8v116
	c0,5.4,4.4,9.8,9.8,9.8c5.4,0,9.8-4.4,9.8-9.8V521.2c10.4,0.8,21.6,1.2,33.3,1.2s22.9-0.4,33.3-1.2v113.9c0,5.4,4.4,9.8,9.8,9.8
	c5.4,0,9.8-4.4,9.8-9.8v-116C459.6,515.4,477.6,508.8,477.6,501.3z"/>
<polygon class="st2" points="458.7,625.9 477.3,625.9 486.1,554.4 458.7,554.4 "/>
<path class="st3" d="M513,643.1l-58.3,0l0,0l0-22.5l0,0l35.7,0C502.9,620.6,513,630.7,513,643.1L513,643.1L513,643.1z"/>
<polygon class="st2" points="487.7,615.6 505.4,610 492.4,539.2 466.3,547.4 "/>
<path class="st3" d="M544.6,615.7L489,633.2l0,0l-6.7-21.5l0,0l34.1-10.7C528.3,597.3,540.9,603.9,544.6,615.7L544.6,615.7
	L544.6,615.7z"/>
<path class="st4" d="M475.3,582.7l-33.9-89c-7.6,1.8-71.4,15.9-92.8-6.8c-7.3-7.8-8.8-19.1-4.2-33.6l12.5-15.7l0.4,0
	c4.7,0.2,115.6,6.5,123.2,39.9c6.4,28.2,18.1,80.7,21.5,96.2c0.7,3.3-1.1,6.6-4.3,7.8l-13.6,5.1c-0.8,0.3-1.6,0.4-2.4,0.4
	C478.8,587,476.3,585.3,475.3,582.7z"/>
<path class="st4" d="M455.6,593.3l-33.9-89c-7.6,1.8-71.4,15.9-92.8-6.8c-7.3-7.8-8.8-19.1-4.2-33.6l12.5-15.7l0.4,0
	c4.7,0.2,115.6,6.5,123.2,39.9c6.4,28.2,18.1,80.7,21.5,96.2c0.7,3.3-1.1,6.6-4.3,7.8l-13.6,5.1c-0.8,0.3-1.6,0.4-2.4,0.4
	C459.2,597.6,456.6,595.9,455.6,593.3z"/>
<path class="st2" d="M501.4,379.9c-0.5,0.7-0.9,1.4-1.3,2.1l-74.6,7.9l-10.7-14.7l-24.3,13.3l21.1,35.7l91.5-23.3
	c6.3,6.1,16.3,6,22.4-0.3c6.1-6.3,6-16.3-0.3-22.4c-6.3-6.1-16.3-6-22.4,0.3C502.3,378.9,501.8,379.4,501.4,379.9L501.4,379.9z"/>
<path class="st5" d="M324.2,468.5c-2.1-1.5-3.1-4-2.7-6.6c4.2-27.7-0.6-67.5-5.4-95.9c-3.5-20.4,10.3-39.8,30.7-43.3
	c3.6-0.6,7.3-0.7,11-0.2c5.1,0.7,10.1,1.7,15,3l0,0c16.9,4.2,28.5,19.6,28.1,37c-0.7,27.4,4.9,61.7,7.3,75.1
	c0.3,1.9-0.1,3.8-1.3,5.3c-1.1,1.5-2.8,2.5-4.7,2.6c-26.9,2.7-56,15.9-70.9,23.5c-1,0.5-2,0.8-3.1,0.8
	C326.7,469.8,325.4,469.4,324.2,468.5z"/>
<path class="st5" d="M396.9,397c-1.7-0.7-3-2-3.7-3.6l-15-34.7c-3.8-8.8,0.2-19,9.1-22.9c8.8-3.8,19,0.2,22.9,9.1l15,34.7
	c1.5,3.4-0.1,7.5-3.5,8.9l-19.4,8.4C400.4,397.6,398.6,397.7,396.9,397L396.9,397z"/>
<path class="st2" d="M430.4,376.9c-0.5,0.7-0.9,1.4-1.3,2.1l-74.6,7.9l-10.7-14.7l-24.3,13.3l21.1,35.7l91.5-23.3
	c6.3,6.1,16.3,6,22.4-0.3c6.1-6.3,6-16.3-0.3-22.4c-6.3-6.1-16.3-6-22.4,0.3C431.2,375.8,430.8,376.3,430.4,376.9L430.4,376.9z"/>
<path class="st5" d="M325.8,398.5c-1.7-0.7-3-2-3.7-3.6l-15-34.7c-3.8-8.8,0.2-19,9-22.9c8.8-3.8,19,0.2,22.9,9c0,0,0,0,0,0l15,34.7
	c1.5,3.4-0.1,7.5-3.5,8.9l-19.4,8.4C329.4,399.1,327.5,399.2,325.8,398.5L325.8,398.5z"/>
<circle class="st2" cx="354.9" cy="273.6" r="37.1"/>
<path class="st4" d="M328.4,299.1c-0.6-1.7,0.3-3.5,2-4.1c0.3-0.1,0.5-0.1,0.8-0.2c2,0.1,3.9,1,5.3,2.6c1.3,1.5,2.9,2.9,4.6,4
	c1.8,0.9,4.2,0.8,5.3-0.9c1-1.6,0.3-3.8-0.3-5.7c-1.5-4.8-2.3-9.8-2.5-14.8c-0.2-5.6,0.6-11.4,3.7-15.8c4-5.6,11.1-7.8,17.9-7.6
	s13.4,2.2,20.1,3.6c2.3,0.5,5,0.7,6.6-1.1c1.6-1.9,1-5,0.3-7.6c-1.8-6.7-3.7-13.6-8-19c-4.6-5.6-11.1-9.3-18.2-10.3
	c-6.9-0.9-13.8-0.1-20.4,2.3c-10.6,3.3-19.9,9.8-26.7,18.6c-7,9.3-10,21.1-8.4,32.7c1.6,10.1,6.9,19.2,14.9,25.5L328.4,299.1z"/>
<path class="st6" d="M417.9,390.9h119.4c2.9,0,5.3,2.4,5.3,5.3l0,0c0,2.9-2.4,5.3-5.3,5.3H417.9c-2.9,0-5.3-2.4-5.3-5.3l0,0
	C412.6,393.3,415,390.9,417.9,390.9z"/>
<path class="st1" d="M617.5,401.5H482.9c-5.4,0-9.8-4.4-9.8-9.8v-74.1c0-5.4,4.4-9.8,9.8-9.8h134.6c5.4,0,9.8,4.4,9.8,9.8v74.1
	C627.3,397.1,622.9,401.5,617.5,401.5z"/>
<circle class="st7" cx="550.2" cy="354" r="23.1"/>
<path class="st6" d="M1009,501.3c0-11.7-44-21.2-98.3-21.2c-54.3,0-98.3,9.5-98.3,21.2c0,7.5,18.1,14.1,45.4,17.8v116
	c0,5.4,4.4,9.8,9.8,9.8c5.4,0,9.8-4.4,9.8-9.8V521.2c10.4,0.8,21.6,1.2,33.3,1.2c11.7,0,22.9-0.4,33.3-1.2v113.9
	c0,5.4,4.4,9.8,9.8,9.8s9.8-4.4,9.8-9.8v-116C990.9,515.4,1009,508.8,1009,501.3z"/>
<circle class="st4" cx="921.6" cy="265.2" r="42.3"/>
<polygon class="st8" points="816.2,627.4 797.7,627.4 788.9,555.9 816.2,555.9 "/>
<path class="st3" d="M784.4,622.1h35.7l0,0v22.5l0,0h-58.3l0,0l0,0C761.9,632.2,772,622.1,784.4,622.1
	C784.4,622.1,784.4,622.1,784.4,622.1z"/>
<polygon class="st8" points="787.3,617.1 769.6,611.5 782.6,540.7 808.7,548.9 "/>
<path class="st3" d="M758.5,602.5l34.1,10.7l0,0l-6.7,21.5l0,0l-55.6-17.4l0,0l0,0C734,605.4,746.7,598.8,758.5,602.5z"/>
<path class="st4" d="M793.3,588.6c-0.8,0-1.6-0.1-2.4-0.4l-13.6-5.1c-3.2-1.2-5-4.5-4.3-7.8c3.4-15.4,15.1-68,21.5-96.2
	c7.6-33.4,118.5-39.7,123.2-39.9l0.4,0l12.5,15.7c4.5,14.5,3.1,25.8-4.2,33.6c-21.4,22.8-85.2,8.6-92.8,6.8l-33.9,89
	C798.7,586.8,796.1,588.6,793.3,588.6z"/>
<path class="st4" d="M813,599.1c-0.8,0-1.6-0.1-2.4-0.4l-13.6-5.1c-3.2-1.2-5-4.5-4.3-7.8c3.4-15.4,15.1-68,21.5-96.2
	c7.6-33.4,118.5-39.7,123.2-39.9l0.4,0l12.5,15.7c4.5,14.5,3.1,25.8-4.2,33.6c-21.4,22.7-85.2,8.6-92.8,6.8l-33.9,89
	C818.3,597.4,815.8,599.1,813,599.1z"/>
<path class="st8" d="M773.5,381.4c0.5,0.7,0.9,1.4,1.3,2.1l74.6,7.9l10.7-14.7l24.3,13.3l-21.1,35.7l-91.5-23.3
	c-6.3,6.1-16.3,6-22.4-0.3s-6-16.3,0.3-22.4s16.3-6,22.4,0.3C772.7,380.4,773.1,380.9,773.5,381.4L773.5,381.4z"/>
<path class="st5" d="M946.8,471.3c-1.1,0-2.1-0.3-3.1-0.8c-14.9-7.6-43.9-20.7-70.9-23.5c-1.9-0.2-3.6-1.1-4.7-2.6
	c-1.1-1.5-1.6-3.4-1.3-5.3c2.4-13.4,8-47.7,7.3-75.1c-0.4-17.4,11.2-32.7,28.1-37l0,0c4.9-1.3,9.9-2.3,15-3
	c20.5-2.6,39.3,11.9,41.9,32.5c0.5,3.7,0.4,7.4-0.2,11c-4.8,28.4-9.6,68.2-5.4,95.9c0.4,2.5-0.7,5.1-2.7,6.6
	C949.6,470.9,948.2,471.3,946.8,471.3z"/>
<path class="st5" d="M875.5,399c-0.9,0-1.8-0.2-2.7-0.6l-19.4-8.4c-3.4-1.5-5-5.5-3.5-8.9l15-34.7c3.8-8.8,14-12.9,22.9-9.1
	c8.8,3.8,12.9,14,9.1,22.9c0,0,0,0,0,0l-15,34.7C880.7,397.4,878.3,399,875.5,399L875.5,399z"/>
<circle class="st8" cx="920" cy="275.1" r="37.1"/>
<path class="st4" d="M882.2,256.9c17.6,10.7,37.4,17.3,57.9,19.1l-6.1-7.3c4.4,1.6,9.1,2.6,13.9,2.8c4.7-0.1,9.7-1.9,12.4-5.8
	c2.4-3.9,2.8-8.8,0.9-13c-1.9-4.2-4.8-7.8-8.4-10.5c-13.2-10.4-30.7-13.5-46.6-8.3c-5.4,1.6-10.2,4.7-13.9,8.9
	c-3.5,4.3-10.3,8.2-8.5,13.5L882.2,256.9z"/>
<path class="st4" d="M926.3,226.9c-11.7-11.9-25.9-21-41.5-26.9c-10-3.7-21-6-31.5-3.9c-10.5,2.1-20.4,9.4-23.3,19.7
	c-2.4,8.4,0.1,17.5,3.8,25.4s8.7,15.3,11.7,23.5c10.2,27.8-4.1,58.6-32,68.8c-7,2.6-14.5,3.6-22,3.1c10.3,1.4,19.8,6.2,29.9,8.8
	s22,2.4,29.5-4.8c7.9-7.6,8.1-20.1,7.7-31.1l-1.7-49.1c-0.3-8.3-0.5-16.9,2.5-24.7c3-7.8,10.2-14.6,18.5-14.5
	c6.3,0.1,11.9,3.9,17,7.7c5.1,3.8,10.4,7.8,16.7,8.4c6.3,0.6,13.5-4.1,13-10.4"/>
<polygon class="st1" points="753.6,354 839.1,356.1 851.5,447.5 772.6,449.2 "/>
<path class="st8" d="M844.6,378.4c0.5,0.7,0.9,1.4,1.3,2.1l74.6,7.9l10.7-14.7l24.3,13.3l-21.1,35.7L843,399.3
	c-6.3,6.1-16.3,6-22.4-0.3c-6.1-6.3-6-16.3,0.3-22.4c6.3-6.1,16.3-6,22.4,0.3C843.7,377.3,844.2,377.8,844.6,378.4L844.6,378.4z"/>
<path class="st5" d="M946.6,400.5c-0.9,0-1.8-0.2-2.7-0.6l-19.4-8.4c-3.4-1.5-5-5.5-3.5-8.9l15-34.7c3.8-8.8,14-12.9,22.9-9.1
	c8.8,3.8,12.9,14,9.1,22.9c0,0,0,0,0,0l-15,34.7C951.8,398.9,949.3,400.5,946.6,400.5L946.6,400.5z"/>
<path class="st9" d="M770.8,400H169.1c-5.4,0-9.8,4.4-9.8,9.8c0,5.4,4.4,9.8,9.8,9.8h17.4v213.9c0,5.4,4.4,9.8,9.8,9.8
	s9.8-4.4,9.8-9.8V438.5l110.2,199.7c2.7,4.7,8.7,6.3,13.4,3.6c4.7-2.7,6.3-8.7,3.6-13.4L218.1,419.7h526.2v0.1L629.3,628.4
	c-2.7,4.7-1.1,10.7,3.6,13.4c4.7,2.7,10.7,1.1,13.4-3.6l0,0l98.1-177.8v173.1c0,5.4,4.4,9.8,9.8,9.8s9.8-4.4,9.8-9.8V424.8l2.9-5.2
	h3.9c5.4,0,9.8-4.4,9.8-9.8C780.7,404.4,776.3,400,770.8,400L770.8,400z"/>
<g>
	<path class="st10" d="M549.5,343.8c-0.1,0.4,0.1,0.7,0.4,0.9c2.6,2.1,5.2,4.2,7.8,6.3c0.4,0.4,0.8,0.4,1.1,0.2
		c1.4-0.4,2.6,0.1,3.5,1.1c0.9,1.1,1,2.5,0.4,3.7c-0.7,1.2-1.8,2.1-3.1,1.8c-1-0.2-1.6,0.4-2.3,0.9c-1.4,1.1-3,2.4-4.4,3.5
		c-0.5,0.4-0.9,0.6-1.4,0.5c-0.7-0.1-1.1-0.5-1.3-1c-0.2-0.8-0.1-1.2,0.6-1.8c1.2-1,2.6-2.1,4-3.1c0.4-0.3,0.8-0.7,1-0.9
		c0.6-0.4,0.8-0.8,0.7-1.3c0-0.3-0.1-0.6-0.4-0.8c-2.7-2.2-5.5-4.3-8.2-6.5c-0.3-0.2-0.6-0.3-0.9-0.2c-1.9,0.6-3.8-0.7-4.3-2.6
		c-0.5-1.8,0.9-3.6,2.6-4.1C547.5,339.9,549.5,341.5,549.5,343.8z"/>
	<path class="st11" d="M546.1,362.1c1.9,0,3.5,1.5,3.4,3.5c0,1.9-1.6,3.4-3.4,3.4c-1.9,0-3.4-1.6-3.4-3.5
		C542.6,363.7,544.1,362.1,546.1,362.1z"/>
</g>
</svg>
