<?xml version="1.0" encoding="utf-8"?>
<!-- Generator: Adobe Illustrator 22.1.0, SVG Export Plug-In . SVG Version: 6.00 Build 0)  -->
<svg version="1.1" id="Capa_1" xmlns="http://www.w3.org/2000/svg" xmlns:xlink="http://www.w3.org/1999/xlink" x="0px" y="0px"
	 viewBox="0 0 397.3 397.3" style="enable-background:new 0 0 397.3 397.3;" xml:space="preserve">
<style type="text/css">
	.st0{fill:#040404;}
	.st1{fill:#F23843;}
	.st2{fill:none;stroke:#000000;stroke-width:10;stroke-miterlimit:10;}
</style>
<path class="st0" d="M138,137.8c0.3-12,10-21.9,22.1-22.6c11.8-0.7,23,8.3,23.8,20.6c0.3,5.7,2.7,8.8,6.9,12
	c16,12.5,31.9,25.2,47.8,38c3.2,2.5,5.7,3.7,10.1,2.5c9.3-2.5,18.7,1.4,24.3,9.1c5.4,7.6,5.7,17.6,0.5,25.3
	c-5.4,8.3-13.2,11.6-23.1,10.8c-2.7-0.2-6.1,0.5-8.1,2c-11.1,8.4-21.9,17.2-32.9,26c-7.3,5.7-13.7,5.9-18.1,0.5
	c-4.6-5.4-3-12.2,4.4-18.1c10.1-8.1,20.4-16.2,30.6-24.3c6.6-5.2,6.6-10.3-0.3-15.7c-17-13.5-33.9-27.2-51.1-40.5
	c-2.4-1.9-6.4-2.7-9.3-2.2C150.9,163.6,137.8,152.5,138,137.8z"/>
<path class="st1" d="M138,285.7c0-12.7,10.5-23,23.1-23.1c12.7,0,23.1,10.3,23.3,23c0.2,12.8-10.8,23.8-23.5,23.5
	C148.2,308.8,138,298.3,138,285.7z"/>
<circle class="st2" cx="194.5" cy="212.1" r="156"/>
</svg>
