<svg id="eacyee2g6wjg1" xmlns="http://www.w3.org/2000/svg" xmlns:xlink="http://www.w3.org/1999/xlink" viewBox="0 0 720 350" shape-rendering="geometricPrecision" text-rendering="geometricPrecision"><g id="eacyee2g6wjg2"><rect id="eacyee2g6wjg3" width="154.300000" height="137.300000" rx="0" ry="0" transform="matrix(1 0 0 1 63.30000000000000 206.19999999999999)" fill="rgb(172,170,194)" stroke="none" stroke-width="1"/><rect id="eacyee2g6wjg4" width="154.300000" height="18.600000" rx="0" ry="0" transform="matrix(1 0 0 1 63.30000000000000 257.39999999999998)" fill="rgb(157,155,175)" stroke="none" stroke-width="1"/><path id="eacyee2g6wjg5" d="M682.300000,250.800000L165.500000,250.800000C153.600000,250.800000,143.800000,242.100000,143.800000,231.500000L143.800000,222.700000C143.800000,212.100000,153.600000,203.400000,165.500000,203.400000L682.300000,203.400000C694.200000,203.400000,704,212.100000,704,222.700000L704,231.500000C704,242.100000,694.200000,250.800000,682.300000,250.800000Z" fill="rgb(245,245,250)" stroke="rgb(172,168,193)" stroke-width="8" stroke-miterlimit="10"/><polyline id="eacyee2g6wjg6" points="231,255 254,255 254,138 231,117" fill="rgb(68,70,90)" stroke="none" stroke-width="1"/><path id="eacyee2g6wjg7" d="M230.200000,257.400000L50.600000,257.400000C47.300000,257.400000,44.600000,254.700000,44.600000,251.400000L44.600000,63.100000C44.600000,59.800000,47.300000,57.100000,50.600000,57.100000L230.300000,57.100000C233.600000,57.100000,236.300000,59.800000,236.300000,63.100000L236.300000,251.400000C236.200000,254.700000,233.600000,257.400000,230.200000,257.400000Z" fill="rgb(215,215,227)" stroke="none" stroke-width="1"/><path id="eacyee2g6wjg8" d="M49.500000,256.400000C46.200000,256.400000,43.500000,253.700000,43.500000,250.400000L43.500000,62.100000C43.500000,58.800000,46.200000,56.100000,49.500000,56.100000L229.200000,56.100000C232.500000,56.100000,235.200000,58.800000,235.200000,62.100000L49.500000,256.400000Z" opacity="0.1" fill="rgb(172,170,194)" stroke="none" stroke-width="1"/><path id="eacyee2g6wjg9" d="M200.600000,313.500000L152.200000,313.500000C150.500000,313.500000,149.200000,312.100000,149.200000,310.500000L149.200000,310.500000C149.200000,308.800000,150.600000,307.500000,152.200000,307.500000L200.600000,307.500000C202.300000,307.500000,203.600000,308.900000,203.600000,310.500000L203.600000,310.500000C203.600000,312.200000,202.200000,313.500000,200.600000,313.500000Z" fill="rgb(65,71,90)" stroke="none" stroke-width="1"/><path id="eacyee2g6wjg10" d="M200.300000,328.700000L152,328.700000C150.300000,328.700000,149,327.300000,149,325.700000L149,325.700000C149,324,150.400000,322.700000,152,322.700000L200.400000,322.700000C202.100000,322.700000,203.400000,324.100000,203.400000,325.700000L203.400000,325.700000C203.300000,327.400000,202,328.700000,200.300000,328.700000Z" fill="rgb(65,71,90)" stroke="none" stroke-width="1"/><path id="eacyee2g6wjg11" d="M200.700000,298.300000L152.300000,298.300000C150.600000,298.300000,149.300000,296.900000,149.300000,295.300000L149.300000,295.300000C149.300000,293.600000,150.700000,292.300000,152.300000,292.300000L200.700000,292.300000C202.400000,292.300000,203.700000,293.700000,203.700000,295.300000L203.700000,295.300000C203.700000,296.900000,202.300000,298.300000,200.700000,298.300000Z" fill="rgb(65,71,90)" stroke="none" stroke-width="1"/><path id="eacyee2g6wjg12" d="" fill="rgb(172,170,194)" stroke="none" stroke-width="1"/><g id="eacyee2g6wjg13"><path id="eacyee2g6wjg14" d="M93.500000,133.200000C92.100000,133.200000,91,132.100000,91,130.700000L91,74.100000C91,72.700000,92.100000,71.600000,93.500000,71.600000L188.800000,71.600000C190.200000,71.600000,191.300000,72.700000,191.300000,74.100000L191.300000,130.700000C191.300000,132.100000,190.200000,133.200000,188.800000,133.200000L93.500000,133.200000Z" fill="rgb(255,255,255)" stroke="none" stroke-width="1"/><path id="eacyee2g6wjg15" d="M188.800000,74.100000L188.800000,130.700000L93.500000,130.700000L93.500000,74.100000L188.800000,74.100000M188.800000,69.100000L93.500000,69.100000C90.700000,69.100000,88.500000,71.300000,88.500000,74.100000L88.500000,130.700000C88.500000,133.500000,90.700000,135.700000,93.500000,135.700000L188.800000,135.700000C191.600000,135.700000,193.800000,133.500000,193.800000,130.700000L193.800000,74.100000C193.800000,71.300000,191.500000,69.100000,188.800000,69.100000L188.800000,69.100000Z" fill="rgb(68,70,90)" stroke="none" stroke-width="1"/></g><g id="eacyee2g6wjg16"><path id="eacyee2g6wjg17" d="M119.700000,146.100000C119,146.500000,118.300000,147,117.700000,147.600000C115.300000,149.800000,114.200000,154,114.700000,156.500000L119.700000,158L127.100000,155.800000L119.700000,146.100000Z" fill="rgb(204,244,159)" stroke="none" stroke-width="1"/><path id="eacyee2g6wjg18" d="M120.400000,165.800000C116.700000,164.300000,114.400000,161.200000,114.800000,156.600000L125.800000,156.600000L122.600000,164.200000L120.400000,165.800000Z" fill="rgb(149,214,164)" stroke="none" stroke-width="1"/><path id="eacyee2g6wjg19" d="M125.700000,168.100000C127.900000,168.100000,130,167.600000,131.500000,166.500000L131.800000,165.700000L130.700000,161.400000L125.700000,156.400000L120.400000,165.600000C121.200000,167.200000,123.500000,168.100000,125.700000,168.100000Z" fill="rgb(133,126,135)" stroke="none" stroke-width="1"/><path id="eacyee2g6wjg20" d="M131.800000,166.600000C131.800000,166.600000,133.800000,165.500000,134.700000,164.500000C136.600000,162.400000,137.800000,159.600000,137.800000,156.500000L133.900000,155L125.800000,156.500000C125.800000,156.500000,129.500000,163,131.600000,166.500000L131.800000,166.600000Z" fill="rgb(255,128,134)" stroke="none" stroke-width="1"/><path id="eacyee2g6wjg21" d="M131.700000,146.100000C135.300000,148.200000,137.700000,152,137.700000,156.500000L125.700000,156.500000L128.600000,148.800000L131.700000,146.100000Z" fill="rgb(255,169,95)" stroke="none" stroke-width="1"/><path id="eacyee2g6wjg22" d="M125.700000,144.500000C123.500000,144.500000,121.500000,145.100000,119.700000,146.100000L121,148.300000L125.700000,156.500000L131.700000,146.100000C129.900000,145.100000,127.900000,144.500000,125.700000,144.500000L125.700000,144.500000Z" fill="rgb(255,224,125)" stroke="none" stroke-width="1"/><path id="eacyee2g6wjg23" d="M134.600000,164.500000C133.700000,165.300000,132.600000,166,131.400000,166.500000C131.500000,166.600000,131.500000,166.700000,131.600000,166.900000C132.800000,166.300000,133.800000,165.500000,134.600000,164.500000L134.600000,164.500000Z" fill="rgb(229,100,110)" stroke="none" stroke-width="1"/><circle id="eacyee2g6wjg24" r="8.100000" transform="matrix(1 0 0 1 125.70000000000000 156.50000000000000)" fill="rgb(218,216,219)" stroke="none" stroke-width="1"/><circle id="eacyee2g6wjg25" r="7" transform="matrix(1 0 0 1 125.70000000000000 156.50000000000000)" fill="rgb(236,234,236)" stroke="none" stroke-width="1"/><circle id="eacyee2g6wjg26" r="2.300000" transform="matrix(1 0 0 1 125.70000000000000 156.50000000000000)" fill="rgb(255,255,255)" stroke="none" stroke-width="1"/><path id="eacyee2g6wjg27" d="M123.800000,158.800000C123.700000,158.800000,123.600000,158.800000,123.500000,158.700000C123.300000,158.500000,123.300000,158.300000,123.500000,158.200000L132.400000,149.300000C132.600000,149.100000,132.800000,149.100000,132.900000,149.300000C133.100000,149.500000,133.100000,149.700000,132.900000,149.800000L124,158.700000C123.900000,158.800000,123.800000,158.800000,123.800000,158.800000Z" fill="rgb(93,83,96)" stroke="none" stroke-width="1"/><path id="eacyee2g6wjg28" d="M119.700000,166.900000C119.900000,166.600000,120.100000,166.200000,120.400000,165.800000C117.200000,163.800000,115.100000,160.500000,114.800000,156.600000L113.800000,156.600000C113.700000,161,116.100000,164.800000,119.700000,166.900000Z" fill="rgb(120,194,164)" stroke="none" stroke-width="1"/><circle id="eacyee2g6wjg29" r="1.200000" transform="matrix(1 0 0 1 125.70000000000000 156.50000000000000)" fill="rgb(111,101,113)" stroke="none" stroke-width="1"/><circle id="eacyee2g6wjg30" r="0.400000" transform="matrix(1 0 0 1 125.70000000000000 156.50000000000000)" fill="rgb(75,63,78)" stroke="none" stroke-width="1"/><path id="eacyee2g6wjg31" d="M113.700000,156.500000L114.700000,156.500000C114.700000,156.200000,114.700000,155.900000,114.700000,155.500000C114.700000,152.500000,115.800000,149.700000,117.700000,147.500000C115.200000,149.800000,113.700000,153,113.700000,156.500000Z" fill="rgb(179,229,159)" stroke="none" stroke-width="1"/><path id="eacyee2g6wjg32" d="M120.400000,165.800000L119.700000,166.900000C121.500000,167.900000,123.500000,168.500000,125.700000,168.500000C127.900000,168.500000,129.900000,167.900000,131.700000,166.900000L131.500000,166.500000C130,167.100000,128.400000,167.500000,126.700000,167.500000C124.300000,167.500000,122.200000,166.900000,120.400000,165.800000L120.400000,165.800000Z" fill="rgb(111,101,113)" stroke="none" stroke-width="1"/><path id="eacyee2g6wjg33" d="M147,145.900000C146.300000,146.300000,145.600000,146.800000,145,147.400000C142.600000,149.600000,141.500000,153.800000,142,156.300000L147,157.800000L154.400000,155.600000L147,145.900000Z" fill="rgb(204,244,159)" stroke="none" stroke-width="1"/><path id="eacyee2g6wjg34" d="M147.600000,165.500000C143.900000,164,141.600000,160.900000,142,156.300000L153,156.300000L149.800000,163.900000L147.600000,165.500000Z" fill="rgb(149,214,164)" stroke="none" stroke-width="1"/><path id="eacyee2g6wjg35" d="M153,167.900000C155.200000,167.900000,157.300000,167.400000,158.800000,166.300000L159.100000,165.500000L158,161.200000L153,156.200000L147.700000,165.400000C148.500000,167,150.800000,167.900000,153,167.900000Z" fill="rgb(133,126,135)" stroke="none" stroke-width="1"/><path id="eacyee2g6wjg36" d="M159,166.300000C159,166.300000,161,165.200000,161.900000,164.200000C163.800000,162.100000,165,159.300000,165,156.200000L161.100000,154.700000L153,156.200000C153,156.200000,156.700000,162.700000,158.800000,166.200000L159,166.300000Z" fill="rgb(255,128,134)" stroke="none" stroke-width="1"/><path id="eacyee2g6wjg37" d="M159,145.900000C162.600000,148,165,151.800000,165,156.300000L153,156.300000L155.900000,148.600000L159,145.900000Z" fill="rgb(255,169,95)" stroke="none" stroke-width="1"/><path id="eacyee2g6wjg38" d="M153,144.300000C150.800000,144.300000,148.800000,144.900000,147,145.900000L148.300000,148.100000L153,156.300000L159,145.900000C157.200000,144.900000,155.200000,144.300000,153,144.300000L153,144.300000Z" fill="rgb(255,224,125)" stroke="none" stroke-width="1"/><path id="eacyee2g6wjg39" d="M161.900000,164.300000C161,165.100000,159.900000,165.800000,158.700000,166.300000C158.800000,166.400000,158.800000,166.500000,158.900000,166.700000C160.100000,166,161.100000,165.200000,161.900000,164.300000L161.900000,164.300000Z" fill="rgb(229,100,110)" stroke="none" stroke-width="1"/><circle id="eacyee2g6wjg40" r="8.100000" transform="matrix(1 0 0 1 153 156.30000000000001)" fill="rgb(218,216,219)" stroke="none" stroke-width="1"/><circle id="eacyee2g6wjg41" r="7" transform="matrix(1 0 0 1 153 156.30000000000001)" fill="rgb(236,234,236)" stroke="none" stroke-width="1"/><circle id="eacyee2g6wjg42" r="2.300000" transform="matrix(1 0 0 1 153 156.30000000000001)" fill="rgb(255,255,255)" stroke="none" stroke-width="1"/><path id="eacyee2g6wjg43" d="M151,158.600000C150.900000,158.600000,150.800000,158.600000,150.700000,158.500000C150.500000,158.300000,150.500000,158.100000,150.700000,158L159.600000,149.100000C159.800000,148.900000,160,148.900000,160.100000,149.100000C160.300000,149.300000,160.300000,149.500000,160.100000,149.600000L151.200000,158.500000C151.200000,158.600000,151.100000,158.600000,151,158.600000Z" fill="rgb(93,83,96)" stroke="none" stroke-width="1"/><path id="eacyee2g6wjg44" d="M334.100000,230.200000L331.300000,228C331.400000,227.200000,331.400000,226.500000,331.300000,225.700000L334.100000,223.500000C334.600000,223.100000,334.800000,222.300000,334.400000,221.700000L331.500000,216.600000C331.200000,216,330.400000,215.700000,329.800000,216L326.500000,217.300000C325.900000,216.800000,325.200000,216.500000,324.500000,216.100000L324,212.600000C323.900000,211.900000,323.300000,211.400000,322.600000,211.400000L316.700000,211.400000C316,211.400000,315.400000,211.900000,315.400000,212.600000L314.900000,216.100000C314.200000,216.400000,313.500000,216.800000,312.900000,217.300000L309.600000,216C309,215.800000,308.200000,216,307.900000,216.600000L305,221.700000C304.700000,222.300000,304.800000,223,305.300000,223.500000L308.100000,225.700000C308,226.500000,308,227.200000,308.100000,228L305.300000,230.200000C304.800000,230.600000,304.600000,231.400000,305,232L307.900000,237.100000C308.200000,237.700000,309,238,309.600000,237.700000L312.900000,236.400000C313.500000,236.900000,314.200000,237.200000,314.900000,237.600000L315.400000,241.100000C315.500000,241.800000,316.100000,242.300000,316.700000,242.300000L322.600000,242.300000C323.300000,242.300000,323.900000,241.800000,324,241.100000L324.500000,237.600000C325.200000,237.300000,325.900000,236.900000,326.500000,236.400000L329.800000,237.700000C330.400000,237.900000,331.200000,237.700000,331.500000,237.100000L334.400000,232C334.800000,231.400000,334.600000,230.600000,334.100000,230.200000ZM319.700000,233.200000C316.200000,233.200000,313.300000,230.300000,313.300000,226.800000C313.300000,223.300000,316.200000,220.400000,319.700000,220.400000C323.200000,220.400000,326.100000,223.300000,326.100000,226.800000C326.100000,230.400000,323.200000,233.200000,319.700000,233.200000Z" fill="rgb(69,90,100)" stroke="none" stroke-width="1"/><path id="eacyee2g6wjg45" d="M147,166.700000C147.200000,166.400000,147.400000,166,147.700000,165.600000C144.500000,163.600000,142.400000,160.300000,142.100000,156.400000L141.100000,156.400000C141,160.700000,143.400000,164.600000,147,166.700000Z" fill="rgb(120,194,164)" stroke="none" stroke-width="1"/><circle id="eacyee2g6wjg46" r="1.200000" transform="matrix(1 0 0 1 153 156.30000000000001)" fill="rgb(111,101,113)" stroke="none" stroke-width="1"/><circle id="eacyee2g6wjg47" r="0.400000" transform="matrix(1 0 0 1 153 156.30000000000001)" fill="rgb(75,63,78)" stroke="none" stroke-width="1"/><path id="eacyee2g6wjg48" d="M141,156.300000L142,156.300000C142,156,142,155.700000,142,155.300000C142,152.300000,143.100000,149.500000,145,147.300000C142.500000,149.600000,141,152.700000,141,156.300000Z" fill="rgb(179,229,159)" stroke="none" stroke-width="1"/><path id="eacyee2g6wjg49" d="M147.600000,165.500000L146.900000,166.600000C148.700000,167.600000,150.700000,168.200000,152.900000,168.200000C155.100000,168.200000,157.100000,167.600000,158.900000,166.600000L158.700000,166.200000C157.200000,166.800000,155.600000,167.200000,153.900000,167.200000C151.600000,167.300000,149.500000,166.600000,147.600000,165.500000L147.600000,165.500000Z" fill="rgb(111,101,113)" stroke="none" stroke-width="1"/></g><circle id="eacyee2g6wjg50" r="9.900000" transform="matrix(1 0 0 1 140.40000000000001 185.69999999999999)" fill="rgb(172,170,194)" stroke="none" stroke-width="1"/><circle id="eacyee2g6wjg51" r="9.900000" transform="matrix(1 0 0 1 165.30000000000001 185.69999999999999)" fill="rgb(172,170,194)" stroke="none" stroke-width="1"/><circle id="eacyee2g6wjg52" r="9.900000" transform="matrix(1 0 0 1 115.90000000000001 185.69999999999999)" fill="rgb(172,170,194)" stroke="none" stroke-width="1"/><rect id="eacyee2g6wjg53" width="31.800000" height="9.900000" rx="0" ry="0" transform="matrix(0.55320000000000 -0.83300000000000 0.83300000000000 0.55320000000000 190.34907999999996 235.58311999999995)" fill="rgb(72,71,86)" stroke="none" stroke-width="1"/><path id="eacyee2g6wjg54" d="M221.200000,228L178.200000,228C177.600000,228,177.200000,228.400000,177.200000,229L177.200000,256.400000C177.200000,257,177.600000,257.400000,178.200000,257.400000L221.200000,257.400000C221.800000,257.400000,222.200000,257,222.200000,256.400000L222.200000,229C222.200000,228.500000,221.700000,228,221.200000,228Z" fill="rgb(172,170,194)" stroke="none" stroke-width="1"/><circle id="eacyee2g6wjg55" r="8.400000" transform="matrix(1 0 0 1 213.50000000000000 208.90000000000001)" fill="rgb(244,89,130)" stroke="none" stroke-width="1"/><path id="eacyee2g6wjg56" d="M214.200000,237.100000L184.600000,237.100000C182.900000,237.100000,181.600000,235.700000,181.600000,234.100000L181.600000,234.100000C181.600000,232.400000,183,231.100000,184.600000,231.100000L214.200000,231.100000C215.900000,231.100000,217.200000,232.500000,217.200000,234.100000L217.200000,234.100000C217.200000,235.700000,215.800000,237.100000,214.200000,237.100000Z" fill="rgb(228,225,239)" stroke="none" stroke-width="1"/><rect id="eacyee2g6wjg57" width="9" height="84.200000" rx="0" ry="0" transform="matrix(1 0 0 1 373 251.80000000000001)" fill="rgb(68,70,90)" stroke="none" stroke-width="1"/><rect id="eacyee2g6wjg58" width="9" height="84.200000" rx="0" ry="0" transform="matrix(1 0 0 1 548 250.09999999999999)" fill="rgb(68,70,90)" stroke="none" stroke-width="1"/><rect id="eacyee2g6wjg59" width="381.500000" height="7.500000" rx="0" ry="0" transform="matrix(1 0 0 1 249 247.50000000000000)" fill="rgb(68,70,90)" stroke="none" stroke-width="1"/><path id="eacyee2g6wjg60" d="M391.100000,345.200000L363.100000,345.200000C363.100000,337.500000,369.400000,331.200000,377.100000,331.200000C384.800000,331.200000,391.100000,337.400000,391.100000,345.200000Z" fill="rgb(68,70,90)" stroke="none" stroke-width="1"/><path id="eacyee2g6wjg61" d="M567.200000,345.200000L539.200000,345.200000C539.200000,337.500000,545.500000,331.200000,553.200000,331.200000C560.900000,331.200000,567.200000,337.400000,567.200000,345.200000Z" fill="rgb(68,70,90)" stroke="none" stroke-width="1"/><path id="eacyee2g6wjg62" d="M431.100000,230.200000L428.300000,228C428.400000,227.200000,428.400000,226.500000,428.300000,225.700000L431.100000,223.500000C431.600000,223.100000,431.800000,222.300000,431.400000,221.700000L428.500000,216.600000C428.200000,216,427.400000,215.700000,426.800000,216L423.500000,217.300000C422.900000,216.800000,422.200000,216.500000,421.500000,216.100000L421,212.600000C420.900000,211.900000,420.300000,211.400000,419.600000,211.400000L413.700000,211.400000C413,211.400000,412.400000,211.900000,412.400000,212.600000L411.900000,216.100000C411.200000,216.400000,410.500000,216.800000,409.900000,217.300000L406.600000,216C406,215.800000,405.200000,216,404.900000,216.600000L402,221.700000C401.700000,222.300000,401.800000,223,402.300000,223.500000L405.100000,225.700000C405,226.500000,405,227.200000,405.100000,228L402.300000,230.200000C401.800000,230.600000,401.600000,231.400000,402,232L404.900000,237.100000C405.200000,237.700000,406,238,406.600000,237.700000L409.900000,236.400000C410.500000,236.900000,411.200000,237.200000,411.900000,237.600000L412.400000,241.100000C412.500000,241.800000,413.100000,242.300000,413.700000,242.300000L419.600000,242.300000C420.300000,242.300000,420.900000,241.800000,421,241.100000L421.500000,237.600000C422.200000,237.300000,422.900000,236.900000,423.500000,236.400000L426.800000,237.700000C427.400000,237.900000,428.200000,237.700000,428.500000,237.100000L431.400000,232C431.800000,231.400000,431.600000,230.600000,431.100000,230.200000ZM416.700000,233.200000C413.200000,233.200000,410.300000,230.300000,410.300000,226.800000C410.300000,223.300000,413.200000,220.400000,416.700000,220.400000C420.200000,220.400000,423.100000,223.300000,423.100000,226.800000C423.100000,230.400000,420.200000,233.200000,416.700000,233.200000Z" fill="rgb(69,90,100)" stroke="none" stroke-width="1"/><path id="eacyee2g6wjg63" d="M522.500000,230.200000L519.700000,228C519.800000,227.200000,519.800000,226.500000,519.700000,225.700000L522.500000,223.500000C523,223.100000,523.200000,222.300000,522.800000,221.700000L519.900000,216.600000C519.600000,216,518.800000,215.700000,518.200000,216L514.900000,217.300000C514.300000,216.800000,513.600000,216.500000,512.900000,216.100000L512.400000,212.600000C512.300000,211.900000,511.700000,211.400000,511,211.400000L505.100000,211.400000C504.400000,211.400000,503.800000,211.900000,503.800000,212.600000L503.300000,216.100000C502.600000,216.400000,501.900000,216.800000,501.300000,217.300000L498,216C497.400000,215.800000,496.600000,216,496.300000,216.600000L493.400000,221.700000C493.100000,222.300000,493.200000,223,493.700000,223.500000L496.500000,225.700000C496.400000,226.500000,496.400000,227.200000,496.500000,228L493.700000,230.200000C493.200000,230.600000,493,231.400000,493.400000,232L496.300000,237.100000C496.600000,237.700000,497.400000,238,498,237.700000L501.300000,236.400000C501.900000,236.900000,502.600000,237.200000,503.300000,237.600000L503.800000,241.100000C503.900000,241.800000,504.500000,242.300000,505.100000,242.300000L511,242.300000C511.700000,242.300000,512.300000,241.800000,512.400000,241.100000L512.900000,237.600000C513.600000,237.300000,514.300000,236.900000,514.900000,236.400000L518.200000,237.700000C518.800000,237.900000,519.600000,237.700000,519.900000,237.100000L522.800000,232C523.200000,231.400000,523,230.600000,522.500000,230.200000ZM508.100000,233.200000C504.600000,233.200000,501.700000,230.300000,501.700000,226.800000C501.700000,223.300000,504.600000,220.400000,508.100000,220.400000C511.600000,220.400000,514.500000,223.300000,514.500000,226.800000C514.500000,230.400000,511.600000,233.200000,508.100000,233.200000Z" fill="rgb(69,90,100)" stroke="none" stroke-width="1"/><path id="eacyee2g6wjg64" d="M610.400000,230.200000L607.600000,228C607.700000,227.200000,607.700000,226.500000,607.600000,225.700000L610.400000,223.500000C610.900000,223.100000,611.100000,222.300000,610.700000,221.700000L607.800000,216.600000C607.500000,216,606.700000,215.700000,606.100000,216L602.800000,217.300000C602.200000,216.800000,601.500000,216.500000,600.800000,216.100000L600.300000,212.600000C600.200000,211.900000,599.600000,211.400000,598.900000,211.400000L593,211.400000C592.300000,211.400000,591.700000,211.900000,591.700000,212.600000L591.200000,216.100000C590.500000,216.400000,589.800000,216.800000,589.200000,217.300000L585.900000,216C585.300000,215.800000,584.500000,216,584.200000,216.600000L581.300000,221.700000C581,222.300000,581.100000,223,581.600000,223.500000L584.400000,225.700000C584.300000,226.500000,584.300000,227.200000,584.400000,228L581.600000,230.200000C581.100000,230.600000,580.900000,231.400000,581.300000,232L584.200000,237.100000C584.500000,237.700000,585.300000,238,585.900000,237.700000L589.200000,236.400000C589.800000,236.900000,590.500000,237.200000,591.200000,237.600000L591.700000,241.100000C591.800000,241.800000,592.400000,242.300000,593,242.300000L598.900000,242.300000C599.600000,242.300000,600.200000,241.800000,600.300000,241.100000L600.800000,237.600000C601.500000,237.300000,602.200000,236.900000,602.800000,236.400000L606.100000,237.700000C606.700000,237.900000,607.500000,237.700000,607.800000,237.100000L610.700000,232C611.100000,231.400000,611,230.600000,610.400000,230.200000ZM596,233.200000C592.500000,233.200000,589.600000,230.300000,589.600000,226.800000C589.600000,223.300000,592.500000,220.400000,596,220.400000C599.500000,220.400000,602.400000,223.300000,602.400000,226.800000C602.400000,230.400000,599.600000,233.200000,596,233.200000Z" fill="rgb(69,90,100)" stroke="none" stroke-width="1"/><g id="eacyee2g6wjg65"><path id="eacyee2g6wjg66" d="M139.300000,90.100000C139.200000,90.500000,139.400000,90.800000,139.700000,91C142.600000,93.300000,145.500000,95.600000,148.400000,98C148.800000,98.400000,149.200000,98.400000,149.700000,98.200000C151.300000,97.800000,152.600000,98.300000,153.600000,99.500000C154.600000,100.800000,154.800000,102.200000,154,103.600000C153.300000,105,152,105.900000,150.500000,105.600000C149.300000,105.400000,148.700000,106,148,106.500000C146.400000,107.800000,144.700000,109.100000,143.100000,110.400000C142.600000,110.800000,142.100000,111,141.500000,110.900000C140.800000,110.800000,140.200000,110.400000,140,109.700000C139.800000,108.900000,139.900000,108.300000,140.600000,107.700000C142,106.500000,143.500000,105.400000,145,104.200000C145.400000,103.900000,145.800000,103.500000,146.200000,103.200000C146.800000,102.800000,147,102.400000,146.900000,101.700000C146.900000,101.400000,146.800000,101.100000,146.500000,100.900000C143.500000,98.500000,140.400000,96.100000,137.400000,93.700000C137.100000,93.500000,136.800000,93.400000,136.400000,93.500000C134.300000,94.100000,132.200000,92.800000,131.700000,90.600000C131.200000,88.600000,132.600000,86.600000,134.600000,86.100000C137.100000,85.700000,139.300000,87.500000,139.300000,90.100000Z" transform="matrix(1 0 0 1 -4.69813425499876 0.99008118499978)" fill="rgb(6,6,6)" stroke="none" stroke-width="1"/><path id="eacyee2g6wjg67" d="M135.500000,110.400000C137.600000,110.400000,139.400000,112.100000,139.300000,114.300000C139.300000,116.400000,137.500000,118.100000,135.500000,118.100000C133.400000,118.100000,131.700000,116.300000,131.700000,114.200000C131.600000,112.100000,133.300000,110.400000,135.500000,110.400000Z" transform="matrix(1 0 0 1 -4.56453147999991 -0.33443541999999)" fill="rgb(242,58,68)" stroke="none" stroke-width="1"/></g></g><script><![CDATA[!function(t,n){"object"==typeof exports&&"undefined"!=typeof module?module.exports=n():"function"==typeof define&&define.amd?define(n):(t=t||self).__SVGATOR_PLAYER__=n()}(this,(function(){"use strict";function t(n){return(t="function"==typeof Symbol&&"symbol"==typeof Symbol.iterator?function(t){return typeof t}:function(t){return t&&"function"==typeof Symbol&&t.constructor===Symbol&&t!==Symbol.prototype?"symbol":typeof t})(n)}function n(t,n){if(!(t instanceof n))throw new TypeError("Cannot call a class as a function")}function r(t,n){for(var r=0;r<n.length;r++){var e=n[r];e.enumerable=e.enumerable||!1,e.configurable=!0,"value"in e&&(e.writable=!0),Object.defineProperty(t,e.key,e)}}function e(t,n,e){return n&&r(t.prototype,n),e&&r(t,e),t}function i(t){return(i=Object.setPrototypeOf?Object.getPrototypeOf:function(t){return t.__proto__||Object.getPrototypeOf(t)})(t)}function o(t,n){return(o=Object.setPrototypeOf||function(t,n){return t.__proto__=n,t})(t,n)}function u(t,n){return!n||"object"!=typeof n&&"function"!=typeof n?function(t){if(void 0===t)throw new ReferenceError("this hasn't been initialised - super() hasn't been called");return t}(t):n}function a(t){var n=function(){if("undefined"==typeof Reflect||!Reflect.construct)return!1;if(Reflect.construct.sham)return!1;if("function"==typeof Proxy)return!0;try{return Date.prototype.toString.call(Reflect.construct(Date,[],(function(){}))),!0}catch(t){return!1}}();return function(){var r,e=i(t);if(n){var o=i(this).constructor;r=Reflect.construct(e,arguments,o)}else r=e.apply(this,arguments);return u(this,r)}}function l(t,n,r){return(l="undefined"!=typeof Reflect&&Reflect.get?Reflect.get:function(t,n,r){var e=function(t,n){for(;!Object.prototype.hasOwnProperty.call(t,n)&&null!==(t=i(t)););return t}(t,n);if(e){var o=Object.getOwnPropertyDescriptor(e,n);return o.get?o.get.call(r):o.value}})(t,n,r||t)}var f=Math.abs;function s(t){return t}function c(t,n,r){var e=1-r;return 3*r*e*(t*e+n*r)+r*r*r}function h(){var t=arguments.length>0&&void 0!==arguments[0]?arguments[0]:0,n=arguments.length>1&&void 0!==arguments[1]?arguments[1]:0,r=arguments.length>2&&void 0!==arguments[2]?arguments[2]:1,e=arguments.length>3&&void 0!==arguments[3]?arguments[3]:1;return t<0||t>1||r<0||r>1?null:f(t-n)<=1e-5&&f(r-e)<=1e-5?s:function(i){if(i<=0)return t>0?i*n/t:0===n&&r>0?i*e/r:0;if(i>=1)return r<1?1+(i-1)*(e-1)/(r-1):1===r&&t<1?1+(i-1)*(n-1)/(t-1):1;for(var o,u=0,a=1;u<a;){var l=c(t,r,o=(u+a)/2);if(f(i-l)<1e-5)break;l<i?u=o:a=o}return c(n,e,o)}}function v(){return 1}function y(t){return 1===t?1:0}function d(){var t=arguments.length>0&&void 0!==arguments[0]?arguments[0]:1,n=arguments.length>1&&void 0!==arguments[1]?arguments[1]:0;if(1===t){if(0===n)return y;if(1===n)return v}var r=1/t;return function(t){return t>=1?1:(t+=n*r)-t%r}}function g(t){var n=arguments.length>1&&void 0!==arguments[1]?arguments[1]:2;if(Number.isInteger(t))return t;var r=Math.pow(10,n);return Math.round(t*r)/r}var p=Math.PI/180;function m(t,n,r){return t>=.5?r:n}function w(t,n,r){return 0===t||n===r?n:t*(r-n)+n}function b(t,n,r){var e=w(t,n,r);return e<=0?0:e}function k(t,n,r){return 0===t?n:1===t?r:{x:w(t,n.x,r.x),y:w(t,n.y,r.y)}}function x(t,n,r){var e=function(t,n,r){return Math.round(w(t,n,r))}(t,n,r);return e<=0?0:e>=255?255:e}function A(t,n,r){return 0===t?n:1===t?r:{r:x(t,n.r,r.r),g:x(t,n.g,r.g),b:x(t,n.b,r.b),a:w(t,null==n.a?1:n.a,null==r.a?1:r.a)}}function _(t,n,r){if(0===t)return n;if(1===t)return r;var e=n.length;if(e!==r.length)return m(t,n,r);for(var i=[],o=0;o<e;o++)i.push(A(t,n[o],r[o]));return i}function S(t,n){for(var r=[],e=0;e<t;e++)r.push(n);return r}function O(t,n){if(--n<=0)return t;var r=(t=Object.assign([],t)).length;do{for(var e=0;e<r;e++)t.push(t[e])}while(--n>0);return t}var M,j=function(){function t(r){n(this,t),this.list=r,this.length=r.length}return e(t,[{key:"setAttribute",value:function(t,n){for(var r=this.list,e=0;e<this.length;e++)r[e].setAttribute(t,n)}},{key:"removeAttribute",value:function(t){for(var n=this.list,r=0;r<this.length;r++)n[r].removeAttribute(t)}},{key:"style",value:function(t,n){for(var r=this.list,e=0;e<this.length;e++)r[e].style[t]=n}}]),t}(),F=/-./g,P=function(t,n){return n.toUpperCase()};function I(t){return"function"==typeof t?t:m}function q(t){return t?"function"==typeof t?t:Array.isArray(t)?function(t){var n=arguments.length>1&&void 0!==arguments[1]?arguments[1]:s;if(!Array.isArray(t))return n;switch(t.length){case 1:return d(t[0])||n;case 2:return d(t[0],t[1])||n;case 4:return h(t[0],t[1],t[2],t[3])||n}return n}(t,null):function(t,n){var r=arguments.length>2&&void 0!==arguments[2]?arguments[2]:s;switch(t){case"linear":return s;case"steps":return d(n.steps||1,n.jump||0)||r;case"bezier":case"cubic-bezier":return h(n.x1||0,n.y1||0,n.x2||0,n.y2||0)||r}return r}(t.type,t.value,null):null}function B(t,n,r){var e=arguments.length>3&&void 0!==arguments[3]&&arguments[3],i=n.length-1;if(t<=n[0].t)return e?[0,0,n[0].v]:n[0].v;if(t>=n[i].t)return e?[i,1,n[i].v]:n[i].v;var o,u=n[0],a=null;for(o=1;o<=i;o++){if(!(t>n[o].t)){a=n[o];break}u=n[o]}return null==a?e?[i,1,n[i].v]:n[i].v:u.t===a.t?e?[o,1,a.v]:a.v:(t=(t-u.t)/(a.t-u.t),u.e&&(t=u.e(t)),e?[o,t,r(t,u.v,a.v)]:r(t,u.v,a.v))}function R(t,n){var r=arguments.length>2&&void 0!==arguments[2]?arguments[2]:null;return t&&t.length?"function"!=typeof n?null:("function"!=typeof r&&(r=null),function(e){var i=B(e,t,n);return null!=i&&r&&(i=r(i)),i}):null}function E(t,n){return t.t-n.t}function T(n,r,e,i,o){var u,a="@"===e[0],l="#"===e[0],f=M[e],s=m;switch(a?(u=e.substr(1),e=u.replace(F,P)):l&&(e=e.substr(1)),t(f)){case"function":if(s=f(i,o,B,q,e,a,r,n),l)return s;break;case"string":s=R(i,I(f));break;case"object":if((s=R(i,I(f.i),f.f))&&"function"==typeof f.u)return f.u(r,s,e,a,n)}return s?function(t,n,r){var e=arguments.length>3&&void 0!==arguments[3]&&arguments[3];if(e)return t instanceof j?function(e){return t.style(n,r(e))}:function(e){return t.style[n]=r(e)};if(Array.isArray(n)){var i=n.length;return function(e){var o=r(e);if(null==o)for(var u=0;u<i;u++)t[u].removeAttribute(n);else for(var a=0;a<i;a++)t[a].setAttribute(n,o)}}return function(e){var i=r(e);null==i?t.removeAttribute(n):t.setAttribute(n,i)}}(r,e,s,a):null}function z(n,r,e,i){if(!i||"object"!==t(i))return null;var o=null,u=null;return Array.isArray(i)?u=function(t){if(!t||!t.length)return null;for(var n=0;n<t.length;n++)t[n].e&&(t[n].e=q(t[n].e));return t.sort(E)}(i):(u=i.keys,o=i.data||null),u?T(n,r,e,u,o):null}function C(t,n,r){if(!r)return null;var e=[];for(var i in r)if(r.hasOwnProperty(i)){var o=z(t,n,i,r[i]);o&&e.push(o)}return e.length?e:null}function D(t,n){if(!n.duration||n.duration<0)return null;var r=function(t,n){if(!n)return null;var r=[];if(Array.isArray(n))for(var e=n.length,i=0;i<e;i++){var o=n[i];if(2===o.length){var u=null;if("string"==typeof o[0])u=t.getElementById(o[0]);else if(Array.isArray(o[0])){u=[];for(var a=0;a<o[0].length;a++)if("string"==typeof o[0][a]){var l=t.getElementById(o[0][a]);l&&u.push(l)}u=u.length?1===u.length?u[0]:new j(u):null}if(u){var f=C(t,u,o[1]);f&&(r=r.concat(f))}}}else for(var s in n)if(n.hasOwnProperty(s)){var c=t.getElementById(s);if(c){var h=C(t,c,n[s]);h&&(r=r.concat(h))}}return r.length?r:null}(t,n.elements);return r?function(t,n){var r=arguments.length>2&&void 0!==arguments[2]?arguments[2]:1/0,e=arguments.length>3&&void 0!==arguments[3]?arguments[3]:1,i=arguments.length>4&&void 0!==arguments[4]&&arguments[4],o=arguments.length>5&&void 0!==arguments[5]?arguments[5]:1,u=t.length,a=e>0?n:0;i&&r%2==0&&(a=n-a);var l=null;return function(f,s){var c=f%n,h=1+(f-c)/n;s*=e,i&&h%2==0&&(s=-s);var v=!1;if(h>r)c=a,v=!0,-1===o&&(c=e>0?0:n);else if(s<0&&(c=n-c),c===l)return!1;l=c;for(var y=0;y<u;y++)t[y](c);return v}}(r,n.duration,n.iterations||1/0,n.direction||1,!!n.alternate,n.fill||1):null}function N(t,n){if(M=n,!t||!t.root||!Array.isArray(t.animations))return null;var r=window.document.getElementById(t.root);if(!r)return null;var e=t.animations.map((function(t){return D(r,t)})).filter((function(t){return!!t}));return e.length?{element:r,animations:e,animationSettings:t.animationSettings,options:t.options||void 0}:null}var L=function(){function t(r,e){var i=arguments.length>2&&void 0!==arguments[2]?arguments[2]:{};n(this,t),this._id=0,this._running=!1,this._rollingBack=!1,this._animations=r,this.duration=e.duration,this.alternate=e.alternate,this.fill=e.fill,this.iterations=e.iterations,this.direction=i.direction||1,this.speed=i.speed||1,this.fps=i.fps||100,this.offset=i.offset||0,this.rollbackStartOffset=0}return e(t,[{key:"_rollback",value:function(){var t=this,n=1/0,r=null;this.rollbackStartOffset=this.offset,this._rollingBack||(this._rollingBack=!0,this._running=!0);this._id=window.requestAnimationFrame((function e(i){if(t._rollingBack){null==r&&(r=i);var o=i-r,u=t.rollbackStartOffset-o,a=Math.round(u*t.speed);if(a>t.duration&&n!=1/0){var l=!!t.alternate&&a/t.duration%2>1,f=a%t.duration;a=(f+=l?t.duration:0)||t.duration}var s=t.fps?1e3/t.fps:0,c=Math.max(0,a);if(c<n-s){t.offset=c,n=c;for(var h=t._animations,v=h.length,y=0;y<v;y++)h[y](c,t.direction)}var d=!1;if(t.iterations>0&&-1===t.fill){var g=t.iterations*t.duration,p=g==a;a=p?0:a,t.offset=p?0:t.offset,d=a>g}a>0&&t.offset>=a&&!d?t._id=window.requestAnimationFrame(e):t.stop()}}))}},{key:"_start",value:function(){var t=this,n=arguments.length>0&&void 0!==arguments[0]?arguments[0]:0,r=-1/0,e=null,i={},o=function o(u){t._running=!0,null==e&&(e=u);var a=Math.round((u-e+n)*t.speed),l=t.fps?1e3/t.fps:0;if(a>r+l&&!t._rollingBack){t.offset=a,r=a;for(var f=t._animations,s=f.length,c=0,h=0;h<s;h++)i[h]?c++:(i[h]=f[h](a,t.direction),i[h]&&c++);if(c===s)return void t._stop()}t._id=window.requestAnimationFrame(o)};this._id=window.requestAnimationFrame(o)}},{key:"_stop",value:function(){this._id&&window.cancelAnimationFrame(this._id),this._running=!1,this._rollingBack=!1}},{key:"play",value:function(){!this._rollingBack&&this._running||(this._rollingBack=!1,this.rollbackStartOffset>this.duration&&(this.offset=this.rollbackStartOffset-(this.rollbackStartOffset-this.offset)%this.duration,this.rollbackStartOffset=0),this._start(this.offset))}},{key:"stop",value:function(){this._stop(),this.offset=0,this.rollbackStartOffset=0;var t=this.direction,n=this._animations;window.requestAnimationFrame((function(){for(var r=0;r<n.length;r++)n[r](0,t)}))}},{key:"reachedToEnd",value:function(){return this.iterations>0&&this.offset>=this.iterations*this.duration}},{key:"restart",value:function(){this._stop(),this.offset=0,this._start()}},{key:"pause",value:function(){this._stop()}},{key:"reverse",value:function(){this.direction=-this.direction}}],[{key:"build",value:function(n,r){return(n=N(n,r))?{el:n.element,options:n.options||{},player:new t(n.animations,n.animationSettings,n.options)}:null}}]),t}();!function(){for(var t=0,n=["ms","moz","webkit","o"],r=0;r<n.length&&!window.requestAnimationFrame;++r)window.requestAnimationFrame=window[n[r]+"RequestAnimationFrame"],window.cancelAnimationFrame=window[n[r]+"CancelAnimationFrame"]||window[n[r]+"CancelRequestAnimationFrame"];window.requestAnimationFrame||(window.requestAnimationFrame=function(n){var r=Date.now(),e=Math.max(0,16-(r-t)),i=window.setTimeout((function(){n(r+e)}),e);return t=r+e,i},window.cancelAnimationFrame=window.clearTimeout)}();var V=/\.0+$/g;function $(t){return Number.isInteger(t)?t+"":t.toFixed(6).replace(V,"")}function G(t){var n=arguments.length>1&&void 0!==arguments[1]?arguments[1]:" ";return t&&t.length?t.map($).join(n):""}function H(t){return t?null==t.a||t.a>=1?"rgb("+t.r+","+t.g+","+t.b+")":"rgba("+t.r+","+t.g+","+t.b+","+t.a+")":"transparent"}var Q={f:null,i:function(t,n,r){return 0===t?n:1===t?r:{x:b(t,n.x,r.x),y:b(t,n.y,r.y)}},u:function(t,n){return function(r){var e=n(r);t.setAttribute("rx",$(e.x)),t.setAttribute("ry",$(e.y))}}},U={f:null,i:function(t,n,r){return 0===t?n:1===t?r:{width:b(t,n.width,r.width),height:b(t,n.height,r.height)}},u:function(t,n){return function(r){var e=n(r);t.setAttribute("width",$(e.width)),t.setAttribute("height",$(e.height))}}},Y=Math.sin,Z=Math.cos,J=Math.acos,K=Math.asin,W=Math.tan,X=Math.atan2,tt=Math.PI/180,nt=180/Math.PI,rt=Math.sqrt,et=function(){function t(){var r=arguments.length>0&&void 0!==arguments[0]?arguments[0]:1,e=arguments.length>1&&void 0!==arguments[1]?arguments[1]:0,i=arguments.length>2&&void 0!==arguments[2]?arguments[2]:0,o=arguments.length>3&&void 0!==arguments[3]?arguments[3]:1,u=arguments.length>4&&void 0!==arguments[4]?arguments[4]:0,a=arguments.length>5&&void 0!==arguments[5]?arguments[5]:0;n(this,t),this.m=[r,e,i,o,u,a],this.i=null,this.w=null,this.s=null}return e(t,[{key:"point",value:function(t,n){var r=this.m;return{x:r[0]*t+r[2]*n+r[4],y:r[1]*t+r[3]*n+r[5]}}},{key:"translateSelf",value:function(){var t=arguments.length>0&&void 0!==arguments[0]?arguments[0]:0,n=arguments.length>1&&void 0!==arguments[1]?arguments[1]:0;if(!t&&!n)return this;var r=this.m;return r[4]+=r[0]*t+r[2]*n,r[5]+=r[1]*t+r[3]*n,this.w=this.s=this.i=null,this}},{key:"rotateSelf",value:function(){var t=arguments.length>0&&void 0!==arguments[0]?arguments[0]:0;if(t%=360){var n=Y(t*=tt),r=Z(t),e=this.m,i=e[0],o=e[1];e[0]=i*r+e[2]*n,e[1]=o*r+e[3]*n,e[2]=e[2]*r-i*n,e[3]=e[3]*r-o*n,this.w=this.s=this.i=null}return this}},{key:"scaleSelf",value:function(){var t=arguments.length>0&&void 0!==arguments[0]?arguments[0]:1,n=arguments.length>1&&void 0!==arguments[1]?arguments[1]:1;if(1!==t||1!==n){var r=this.m;r[0]*=t,r[1]*=t,r[2]*=n,r[3]*=n,this.w=this.s=this.i=null}return this}},{key:"skewSelf",value:function(t,n){if(n%=360,(t%=360)||n){var r=this.m,e=r[0],i=r[1],o=r[2],u=r[3];t&&(t=W(t*tt),r[2]+=e*t,r[3]+=i*t),n&&(n=W(n*tt),r[0]+=o*n,r[1]+=u*n),this.w=this.s=this.i=null}return this}},{key:"resetSelf",value:function(){var t=arguments.length>0&&void 0!==arguments[0]?arguments[0]:1,n=arguments.length>1&&void 0!==arguments[1]?arguments[1]:0,r=arguments.length>2&&void 0!==arguments[2]?arguments[2]:0,e=arguments.length>3&&void 0!==arguments[3]?arguments[3]:1,i=arguments.length>4&&void 0!==arguments[4]?arguments[4]:0,o=arguments.length>5&&void 0!==arguments[5]?arguments[5]:0,u=this.m;return u[0]=t,u[1]=n,u[2]=r,u[3]=e,u[4]=i,u[5]=o,this.w=this.s=this.i=null,this}},{key:"recomposeSelf",value:function(){var t=arguments.length>0&&void 0!==arguments[0]?arguments[0]:null,n=arguments.length>1&&void 0!==arguments[1]?arguments[1]:null,r=arguments.length>2&&void 0!==arguments[2]?arguments[2]:null,e=arguments.length>3&&void 0!==arguments[3]?arguments[3]:null,i=arguments.length>4&&void 0!==arguments[4]?arguments[4]:null;return this.isIdentity||this.resetSelf(),t&&(t.x||t.y)&&this.translateSelf(t.x,t.y),n&&this.rotateSelf(n),r&&(r.x&&this.skewSelf(r.x,0),r.y&&this.skewSelf(0,r.y)),!e||1===e.x&&1===e.y||this.scaleSelf(e.x,e.y),i&&(i.x||i.y)&&this.translateSelf(i.x,i.y),this}},{key:"decompose",value:function(){var t=arguments.length>0&&void 0!==arguments[0]?arguments[0]:0,n=arguments.length>1&&void 0!==arguments[1]?arguments[1]:0,r=this.m,e=r[0]*r[0]+r[1]*r[1],i=[[r[0],r[1]],[r[2],r[3]]],o=rt(e);if(0===o)return{origin:{x:r[4],y:r[5]},translate:{x:t,y:n},scale:{x:0,y:0},skew:{x:0,y:0},rotate:0};i[0][0]/=o,i[0][1]/=o;var u=r[0]*r[3]-r[1]*r[2]<0;u&&(o=-o);var a=i[0][0]*i[1][0]+i[0][1]*i[1][1];i[1][0]-=i[0][0]*a,i[1][1]-=i[0][1]*a;var l=rt(i[1][0]*i[1][0]+i[1][1]*i[1][1]);if(0===l)return{origin:{x:r[4],y:r[5]},translate:{x:t,y:n},scale:{x:o,y:0},skew:{x:0,y:0},rotate:0};i[1][0]/=l,i[1][1]/=l,a/=l;var f=0;return i[1][1]<0?(f=J(i[1][1])*nt,i[0][1]<0&&(f=360-f)):f=K(i[0][1])*nt,u&&(f=-f),a=X(a,rt(i[0][0]*i[0][0]+i[0][1]*i[0][1]))*nt,{origin:{x:r[4],y:r[5]},translate:{x:t,y:n},scale:{x:o,y:l},skew:{x:a,y:0},rotate:f}}},{key:"toString",value:function(){return null===this.s&&(this.s="matrix("+this.m.map(ot).join(" ")+")"),this.s}},{key:"determinant",get:function(){var t=this.m;return t[0]*t[3]-t[1]*t[2]}},{key:"isIdentity",get:function(){if(null===this.i){var t=this.m;this.i=1===t[0]&&0===t[1]&&0===t[2]&&1===t[3]&&0===t[4]&&0===t[5]}return this.i}}]),t}(),it=/\.0+$/;function ot(t){return Number.isInteger(t)?t:t.toFixed(14).replace(it,"")}Object.freeze({M:2,L:2,Z:0,H:1,V:1,C:6,Q:4,T:2,S:4,A:7});function ut(t,n,r){return t+(n-t)*r}function at(t,n,r){var e=arguments.length>3&&void 0!==arguments[3]&&arguments[3],i={x:ut(t.x,n.x,r),y:ut(t.y,n.y,r)};return e&&(i.a=lt(t,n)),i}function lt(t,n){return Math.atan2(n.y-t.y,n.x-t.x)}function ft(t,n,r,e){var i=1-e;return i*i*t+2*i*e*n+e*e*r}function st(t,n,r,e){return 2*(1-e)*(n-t)+2*e*(r-n)}function ct(t,n,r,e){var i=arguments.length>4&&void 0!==arguments[4]&&arguments[4],o={x:ft(t.x,n.x,r.x,e),y:ft(t.y,n.y,r.y,e)};return i&&(o.a=ht(t,n,r,e)),o}function ht(t,n,r,e){return Math.atan2(st(t.y,n.y,r.y,e),st(t.x,n.x,r.x,e))}function vt(t,n,r,e,i){var o=i*i;return i*o*(e-t+3*(n-r))+3*o*(t+r-2*n)+3*i*(n-t)+t}function yt(t,n,r,e,i){var o=1-i;return 3*(o*o*(n-t)+2*o*i*(r-n)+i*i*(e-r))}function dt(t,n,r,e,i){var o=arguments.length>5&&void 0!==arguments[5]&&arguments[5],u={x:vt(t.x,n.x,r.x,e.x,i),y:vt(t.y,n.y,r.y,e.y,i)};return o&&(u.a=gt(t,n,r,e,i)),u}function gt(t,n,r,e,i){return Math.atan2(yt(t.y,n.y,r.y,e.y,i),yt(t.x,n.x,r.x,e.x,i))}function pt(t,n,r){var e=arguments.length>3&&void 0!==arguments[3]&&arguments[3];if(wt(n)){if(bt(r))return ct(n,r.start,r,t,e)}else if(wt(r)){if(n.end)return ct(n,n.end,r,t,e)}else{if(n.end)return r.start?dt(n,n.end,r.start,r,t,e):ct(n,n.end,r,t,e);if(r.start)return ct(n,r.start,r,t,e)}return at(n,r,t,e)}function mt(t,n,r){var e=pt(t,n,r,!0);return e.a=function(t){var n=arguments.length>1&&void 0!==arguments[1]&&arguments[1];return n?t+Math.PI:t}(e.a)/p,e}function wt(t){return!t.type||"corner"===t.type}function bt(t){return null!=t.start&&!wt(t)}var kt=new et;var xt={f:$,i:w},At={f:$,i:function(t,n,r){var e=w(t,n,r);return e<=0?0:e>=1?1:e}};function _t(t,n,r,e,i,o,u,a){return n=function(t,n,r){for(var e,i,o,u=t.length-1,a={},l=0;l<=u;l++)(e=t[l]).e&&(e.e=n(e.e)),e.v&&"g"===(i=e.v).t&&i.r&&(o=r.getElementById(i.r))&&(a[i.r]=o.querySelectorAll("stop"));return a}(t,e,a),function(e){var i,o=r(e,t,St);return o?"c"===o.t?H(o.v):"g"===o.t?(n[o.r]&&function(t,n){for(var r=0,e=t.length;r<e;r++)t[r].setAttribute("stop-color",H(n[r]))}(n[o.r],o.v),(i=o.r)?"url(#"+i+")":"none"):"none":"none"}}function St(t,n,r){if(0===t)return n;if(1===t)return r;if(n&&r){var e=n.t;if(e===r.t)switch(n.t){case"c":return{t:e,v:A(t,n.v,r.v)};case"g":if(n.r===r.r)return{t:e,v:_(t,n.v,r.v),r:n.r}}}return m(t,n,r)}var Ot={fill:_t,"fill-opacity":At,stroke:_t,"stroke-opacity":At,"stroke-width":xt,"stroke-dashoffset":{f:$,i:w},"stroke-dasharray":{f:function(t){var n=arguments.length>1&&void 0!==arguments[1]?arguments[1]:" ";return t&&t.length>0&&(t=t.map((function(t){return Math.floor(1e4*t)/1e4}))),G(t,n)},i:function(t,n,r){var e,i,o,u=n.length,a=r.length;if(u!==a)if(0===u)n=S(u=a,0);else if(0===a)a=u,r=S(u,0);else{var l=(o=(e=u)*(i=a)/function(t,n){for(var r;n;)r=n,n=t%n,t=r;return t||1}(e,i))<0?-o:o;n=O(n,Math.floor(l/u)),r=O(r,Math.floor(l/a)),u=a=l}for(var f=[],s=0;s<u;s++)f.push(g(b(t,n[s],r[s]),6));return f}},opacity:At,transform:function(n,r,e,i){if(!(n=function(n,r){if(!n||"object"!==t(n))return null;var e=!1;for(var i in n)n.hasOwnProperty(i)&&(n[i]&&n[i].length?(n[i].forEach((function(t){t.e&&(t.e=r(t.e))})),e=!0):delete n[i]);return e?n:null}(n,i)))return null;var o=function(t,i,o){var u=arguments.length>3&&void 0!==arguments[3]?arguments[3]:null;return n[t]?e(i,n[t],o):r&&r[t]?r[t]:u};return r&&r.a&&n.o?function(t){var r=e(t,n.o,mt);return kt.recomposeSelf(r,o("r",t,w,0)+r.a,o("k",t,k),o("s",t,k),o("t",t,k)).toString()}:function(t){return kt.recomposeSelf(o("o",t,pt,null),o("r",t,w,0),o("k",t,k),o("s",t,k),o("t",t,k)).toString()}},r:xt,"#size":U,"#radius":Q,_:function(t,n){if(Array.isArray(t))for(var r=0;r<t.length;r++)this[t[r]]=n;else this[t]=n}};return function(t){!function(t,n){if("function"!=typeof n&&null!==n)throw new TypeError("Super expression must either be null or a function");t.prototype=Object.create(n&&n.prototype,{constructor:{value:t,writable:!0,configurable:!0}}),n&&o(t,n)}(u,t);var r=a(u);function u(){return n(this,u),r.apply(this,arguments)}return e(u,null,[{key:"build",value:function(t){var n=l(i(u),"build",this).call(this,t,Ot),r=(n.el,n.options,n.player);return function(t){t.play()}(r),r}}]),u}(L)}));
__SVGATOR_PLAYER__.build({"root":"eacyee2g6wjg1","animations":[{"duration":5000,"direction":1,"iterations":0,"fill":1,"alternate":false,"elements":{"eacyee2g6wjg44":{"transform":{"data":{"o":{"x":319.70001220703125,"y":226.8499984741211,"type":"corner"},"t":{"x":-319.70001220703125,"y":-226.8499984741211}},"keys":{"r":[{"t":0,"v":1440},{"t":3920,"v":0}]}}},"eacyee2g6wjg62":{"transform":{"data":{"o":{"x":416.70001220703125,"y":226.8499984741211,"type":"corner"},"t":{"x":-416.70001220703125,"y":-226.8499984741211}},"keys":{"r":[{"t":0,"v":1440},{"t":3920,"v":0}]}}},"eacyee2g6wjg63":{"transform":{"data":{"o":{"x":508.1000061035156,"y":226.85000610351562,"type":"corner"},"t":{"x":-508.1000061035156,"y":-226.85000610351562}},"keys":{"r":[{"t":0,"v":1440},{"t":3920,"v":0}]}}},"eacyee2g6wjg64":{"transform":{"data":{"o":{"x":596.0135803222656,"y":226.8499984741211,"type":"corner"},"t":{"x":-596.0135803222656,"y":-226.8499984741211}},"keys":{"r":[{"t":0,"v":1440},{"t":3920,"v":0}]}}}}}],"options":{"start":"load","hover":"freeze","click":"freeze","scroll":25,"exportedIds":"unique","title":"factory"},"animationSettings":{"duration":5000,"direction":1,"iterations":0,"fill":1,"alternate":false}})]]></script></svg>