<?xml version="1.0" encoding="utf-8"?>
<!-- Generator: Adobe Illustrator 22.1.0, SVG Export Plug-In . SVG Version: 6.00 Build 0)  -->
<svg version="1.1" xmlns="http://www.w3.org/2000/svg" xmlns:xlink="http://www.w3.org/1999/xlink" x="0px" y="0px"
	 viewBox="0 0 903.8 439.3" style="enable-background:new 0 0 903.8 439.3;" xml:space="preserve">
<style type="text/css">
	.st0{display:none;}
	.st1{display:inline;}
	.st2{fill:#BE2D44;}
	.st3{fill:#FD4D59;}
	.st4{fill:#E83A56;}
	.st5{fill:#FED9AB;}
	.st6{fill:#EFCBA2;}
	.st7{opacity:0.4;fill:#EFCBA2;}
	.st8{fill:#9C8A75;}
	.st9{fill:#060606;}
	.st10{fill:#F23A44;}
	.st11{display:none;fill:#44465A;}
	.st12{fill:#BCB6C0;stroke:#464655;stroke-width:2;stroke-miterlimit:10;}
	.st13{display:none;fill:#ACAAC2;}
	.st14{display:none;fill:#D7D7E3;}
	.st15{display:none;opacity:0.1;fill:#ACAAC2;enable-background:new    ;}
	.st16{display:none;fill:#41475A;}
	.st17{display:inline;fill:#FFFFFF;}
	.st18{display:inline;fill:#44465A;}
	.st19{display:inline;fill:#CCF49F;}
	.st20{display:inline;fill:#95D6A4;}
	.st21{display:inline;fill:#857E87;}
	.st22{display:inline;fill:#FF8086;}
	.st23{display:inline;fill:#FFA95F;}
	.st24{display:inline;fill:#FFE07D;}
	.st25{display:inline;fill:#E5646E;}
	.st26{display:inline;fill:#DAD8DB;}
	.st27{display:inline;fill:#ECEAEC;}
	.st28{display:inline;fill:#5D5360;}
	.st29{display:inline;fill:#78C2A4;}
	.st30{display:inline;fill:#6F6571;}
	.st31{display:inline;fill:#4B3F4E;}
	.st32{display:inline;fill:#B3E59F;}
	.st33{display:none;fill:#484756;}
	.st34{display:none;fill:#F45982;}
	.st35{display:none;fill:#E4E1EF;}
	.st36{display:inline;fill:#060606;}
	.st37{display:inline;fill:#F23A44;}
	.st38{fill:#464655;}
	.st39{fill:#BCB6C0;}
	.st40{fill:#F5F5F5;}
	.st41{fill:#BCB6C0;stroke:#ACA8C1;stroke-width:2;stroke-miterlimit:10;}
	.st42{fill:#D5D6DB;}
	.st43{fill:#3A556A;}
	.st44{fill:#E56353;}
	.st45{opacity:0.3;fill:#464655;}
	.st46{fill:#D15241;}
	.st47{fill:#D5D3D4;stroke:#353D50;stroke-width:6;stroke-miterlimit:10;}
	.st48{fill:#D5D3D4;}
	.st49{fill:#F5B592;}
	.st50{fill-rule:evenodd;clip-rule:evenodd;fill:#464655;}
	.st51{fill-rule:evenodd;clip-rule:evenodd;fill:#E83A56;}
	.st52{fill-rule:evenodd;clip-rule:evenodd;fill:#0E3D5E;}
	.st53{fill:#F19F88;}
	.st54{fill-rule:evenodd;clip-rule:evenodd;fill:#D5D3D4;}
	.st55{fill:#D6E5FC;}
	.st56{fill-rule:evenodd;clip-rule:evenodd;fill:#21888B;}
	.st57{fill-rule:evenodd;clip-rule:evenodd;fill:#232C55;}
	.st58{fill-rule:evenodd;clip-rule:evenodd;fill:#3E4664;}
	.st59{fill-rule:evenodd;clip-rule:evenodd;fill:#6ABBD3;}
</style>
<g id="Layer_6" class="st0">
	<g id="bg" class="st1">
		
			<image style="overflow:visible;" width="1983" height="976" id="Layer_0" xlink:href="9BFB908D67538EFA.png"  transform="matrix(0.4267 0 0 0.4267 50.8154 11.4354)">
		</image>
	</g>
</g>
<g id="Gear">
	<path class="st2" d="M100.4,257.4l-7.7-6.6c0.4-2.3,0.5-4.3,0.3-6.6l8.3-5.9c1.5-1.1,2.1-3.3,1.1-5.1l-7.6-14.9
		c-0.8-1.7-3-2.7-4.8-1.9l-9.6,3.3c-1.6-1.5-3.6-2.4-5.6-3.7l-1-10c-0.2-2-1.8-3.5-3.8-3.6l-16.8-0.7c-2-0.1-3.8,1.3-3.9,3.3
		l-1.9,9.9c-2,0.8-4.1,1.8-5.9,3.2l-9.3-4.1c-1.7-0.6-4-0.2-4.9,1.5l-8.9,14.2c-0.9,1.7-0.7,3.7,0.6,5.2l7.7,6.6
		c-0.4,2.3-0.5,4.3-0.3,6.6l-8.3,5.9c-1.5,1.1-2.1,3.3-1.1,5.1l7.6,14.9c0.8,1.7,3,2.7,4.8,1.9l9.6-3.3c1.6,1.5,3.6,2.4,5.6,3.7
		l1,10c0.2,2,1.8,3.5,3.6,3.6l16.8,0.7c2,0.1,3.8-1.3,4.1-3.2l1.9-9.9c2-0.8,4.1-1.8,5.9-3.2l9.3,4.1c1.7,0.6,4,0.2,4.9-1.5
		l8.9-14.2C102.3,260.9,102.1,258.6,100.4,257.4z M59,264.2c-10-0.4-17.9-9.1-17.5-19.1s9.1-17.9,19.1-17.5
		c10,0.4,17.9,9.1,17.5,19.1C77.6,257,69.2,264.6,59,264.2z"/>
	<path class="st3" d="M161.7,386.9l-6.9-5.4c0.2-2,0.2-3.7,0-5.7l6.9-5.4c1.2-1,1.7-3,0.7-4.4l-7.1-12.6c-0.7-1.5-2.7-2.2-4.2-1.5
		l-8.1,3.2c-1.5-1.2-3.2-2-4.9-3l-1.2-8.6c-0.2-1.7-1.7-3-3.4-3h-14.5c-1.7,0-3.2,1.2-3.2,3l-1.2,8.6c-1.7,0.7-3.4,1.7-4.9,3
		l-8.1-3.2c-1.5-0.5-3.4,0-4.2,1.5L90.1,366c-0.7,1.5-0.5,3.2,0.7,4.4l6.9,5.4c-0.2,2-0.2,3.7,0,5.7l-6.9,5.4c-1.2,1-1.7,3-0.7,4.4
		l7.1,12.6c0.7,1.5,2.7,2.2,4.2,1.5l8.1-3.2c1.5,1.2,3.2,2,4.9,3l1.2,8.6c0.2,1.7,1.7,3,3.2,3h14.5c1.7,0,3.2-1.2,3.4-3l1.2-8.6
		c1.7-0.7,3.4-1.7,4.9-3l8.1,3.2c1.5,0.5,3.4,0,4.2-1.5l7.1-12.6C163.4,389.9,163.2,387.9,161.7,386.9z M126.3,394.3
		c-8.6,0-15.8-7.1-15.8-15.8c0-8.6,7.1-15.8,15.8-15.8c8.6,0,15.8,7.1,15.8,15.8C142,387.4,135.1,394.3,126.3,394.3z"/>
	<g id="G0rFPi.tif" class="st0">
		
			<image style="display:inline;overflow:visible;" width="539" height="513" id="Layer_0_1_" xlink:href="9BFB908D67538EF8.png"  transform="matrix(1.458195e-07 -0.5727 0.5727 1.935036e-07 386.081 -0.9765)">
		</image>
	</g>
	<path class="st4" d="M804.2,416.8l8.4-14c3.7,0,6.9-0.4,10.5-1.3l11.6,11.4c2.1,2,5.9,2.5,8.4,0.3l21.5-16.2
		c2.6-1.7,3.5-5.5,1.7-8.1l-7.8-14.2c1.9-3,2.9-6.4,4.3-9.8l15.6-4.3c3.1-0.9,5-3.9,4.6-7.1l-3.4-26.8c-0.4-3.2-3-5.6-6.2-5.2
		l-16.2-0.2c-1.8-3-4-6-6.6-8.4l4-15.8c0.6-2.8-0.8-6.4-3.7-7.4l-24.9-10.2c-2.9-1-6-0.2-8,2.4l-8.4,14c-3.7,0-6.9,0.4-10.5,1.3
		l-11.6-11.4c-2.1-2-5.9-2.5-8.4-0.3l-21.5,16.2c-2.6,1.7-3.5,5.5-1.7,8.1l7.8,14.2c-1.9,3-2.9,6.4-4.3,9.8l-15.6,4.3
		c-3.1,0.9-5,3.9-4.7,6.6l3.4,26.8c0.4,3.2,3,5.6,6.3,5.7l16.2,0.2c1.8,3,4,6,6.6,8.4l-4,15.8c-0.6,2.8,0.8,6.4,3.7,7.4l24.9,10.2
		C799.1,420.7,802.7,419.8,804.2,416.8z M782.1,353.1c-2-15.9,9.5-30.8,25.4-32.8s30.8,9.5,32.8,25.4c2,15.9-9.5,30.8-25.4,32.8
		C798.6,380.5,784.2,369.4,782.1,353.1z"/>
</g>
<g id="box">
	<g id="_x31__1_">
		<rect x="319.8" y="295.3" class="st5" width="58.8" height="52.4"/>
		<rect x="315.5" y="288.1" class="st5" width="68.1" height="16"/>
		<rect x="319.8" y="303.6" class="st6" width="58.8" height="6.2"/>
		<rect x="315.5" y="288.5" class="st7" width="68.1" height="16"/>
		<rect x="343.3" y="288.5" class="st8" width="11.4" height="14.3"/>
		<g>
			<path class="st9" d="M347.1,316.1c-0.1,0.4,0.1,0.7,0.4,0.9c2.7,2.2,5.5,4.4,8.2,6.6c0.4,0.4,0.8,0.4,1.2,0.2
				c1.5-0.4,2.7,0.1,3.7,1.2c0.9,1.2,1.1,2.6,0.4,3.9c-0.7,1.3-1.9,2.2-3.3,1.9c-1.1-0.2-1.7,0.4-2.4,0.9c-1.5,1.2-3.1,2.5-4.6,3.7
				c-0.5,0.4-0.9,0.6-1.5,0.5c-0.7-0.1-1.2-0.5-1.4-1.1c-0.2-0.8-0.1-1.3,0.6-1.9c1.3-1.1,2.7-2.2,4.2-3.3c0.4-0.3,0.8-0.7,1.1-0.9
				c0.6-0.4,0.8-0.8,0.7-1.4c0-0.3-0.1-0.6-0.4-0.8c-2.8-2.3-5.8-4.5-8.6-6.8c-0.3-0.2-0.6-0.3-0.9-0.2c-2,0.6-4-0.7-4.5-2.7
				c-0.5-1.9,0.9-3.8,2.7-4.3C345,312,347.1,313.7,347.1,316.1z"/>
			<path class="st10" d="M343.5,335.3c2,0,3.7,1.6,3.6,3.7c0,2-1.7,3.6-3.6,3.6c-2,0-3.6-1.7-3.6-3.7
				C339.8,337,341.4,335.3,343.5,335.3z"/>
		</g>
	</g>
	<g id="_x32__1_">
		<rect x="415.8" y="274.5" class="st5" width="83.6" height="74.4"/>
		<rect x="409.7" y="264.2" class="st5" width="96.8" height="22.8"/>
		<rect x="415.8" y="286.2" class="st6" width="83.6" height="8.8"/>
		<rect x="409.7" y="264.8" class="st7" width="96.8" height="22.8"/>
		<rect x="449.1" y="264.8" class="st8" width="16.2" height="20.3"/>
		<g>
			<path class="st9" d="M454.5,304c-0.1,0.5,0.1,0.9,0.5,1.2c3.9,3.1,7.8,6.2,11.7,9.4c0.5,0.5,1.1,0.5,1.7,0.3
				c2.2-0.5,3.9,0.1,5.2,1.7c1.3,1.7,1.6,3.6,0.5,5.5c-0.9,1.9-2.7,3.1-4.7,2.7c-1.6-0.3-2.4,0.5-3.4,1.2c-2.2,1.7-4.4,3.5-6.6,5.2
				c-0.7,0.5-1.3,0.8-2.2,0.7c-0.9-0.1-1.7-0.7-2-1.6c-0.3-1.1-0.1-1.9,0.8-2.7c1.9-1.6,3.9-3.1,5.9-4.7c0.5-0.4,1.1-0.9,1.6-1.3
				c0.8-0.5,1.1-1.1,0.9-2c0-0.4-0.1-0.8-0.5-1.1c-4-3.2-8.2-6.5-12.2-9.7c-0.4-0.3-0.8-0.4-1.3-0.3c-2.8,0.8-5.7-0.9-6.3-3.9
				c-0.7-2.7,1.2-5.4,3.9-6.1C451.5,298.1,454.5,300.5,454.5,304z"/>
			<path class="st10" d="M449.4,331.4c2.8,0,5.2,2.3,5.1,5.2c0,2.8-2.4,5.1-5.1,5.1c-2.8,0-5.1-2.4-5.1-5.2
				C444.1,333.6,446.4,331.4,449.4,331.4z"/>
		</g>
	</g>
	<g id="_x33__1_">
		<rect x="533" y="311" class="st5" width="41.7" height="37.2"/>
		<rect x="530" y="305.9" class="st5" width="48.4" height="11.4"/>
		<rect x="533" y="316.9" class="st6" width="41.7" height="4.4"/>
		<rect x="530" y="306.2" class="st7" width="48.4" height="11.4"/>
		<rect x="549.6" y="306.2" class="st8" width="8.1" height="10.1"/>
		<g>
			<path class="st9" d="M552.3,325.8c-0.1,0.3,0.1,0.5,0.3,0.6c1.9,1.5,3.9,3.1,5.8,4.7c0.3,0.3,0.5,0.3,0.9,0.1
				c1.1-0.3,1.9,0.1,2.6,0.9c0.7,0.9,0.8,1.8,0.3,2.8c-0.5,0.9-1.3,1.5-2.4,1.3c-0.8-0.1-1.2,0.3-1.7,0.6c-1.1,0.9-2.2,1.7-3.3,2.6
				c-0.3,0.3-0.7,0.4-1.1,0.3c-0.5-0.1-0.9-0.3-1-0.8c-0.1-0.5-0.1-0.9,0.4-1.3c0.9-0.8,1.9-1.5,3-2.4c0.3-0.2,0.5-0.5,0.8-0.7
				c0.4-0.3,0.5-0.5,0.5-1c0-0.2-0.1-0.4-0.3-0.5c-2-1.6-4.1-3.2-6.1-4.8c-0.2-0.1-0.4-0.2-0.7-0.1c-1.4,0.4-2.8-0.5-3.2-1.9
				c-0.3-1.3,0.6-2.7,1.9-3C550.8,322.8,552.3,324,552.3,325.8z"/>
			<path class="st10" d="M549.8,339.4c1.4,0,2.6,1.1,2.6,2.6c0,1.4-1.2,2.6-2.6,2.6c-1.4,0-2.6-1.2-2.6-2.6
				C547.2,340.6,548.3,339.4,549.8,339.4z"/>
		</g>
	</g>
</g>
<g id="belt">
	<rect x="268" y="301.3" class="st11" width="55.6" height="6.7"/>
	<path class="st12" d="M766.5,377.4H259.9c-4.1,0-7.5-3.4-7.5-7.5v-12.4c0-4.1,3.4-7.5,7.5-7.5h506.7c4.1,0,7.5,3.4,7.5,7.5v12.4
		C774.1,374,770.7,377.4,766.5,377.4z"/>
	<rect x="266.9" y="361.4" class="st13" width="55.6" height="59"/>
	<polyline class="st11" points="329,375.6 337.3,375.6 337.3,333.4 329,325.8 	"/>
	<path class="st14" d="M327.1,379.3h-64.7c-1.2,0-2.2-1-2.2-2.2v-67.9c0-1.2,1-2.2,2.2-2.2h64.8c1.2,0,2.2,1,2.2,2.2v67.9
		C329.3,378.3,328.3,379.3,327.1,379.3z"/>
	<path class="st15" d="M261.9,378.9c-1.2,0-2.2-1-2.2-2.2v-67.9c0-1.2,1-2.2,2.2-2.2h64.8c1.2,0,2.2,1,2.2,2.2L261.9,378.9z"/>
	<path class="st16" d="M312.6,399.3h-31.8c-1.1,0-2-0.9-2-2l0,0c0-1.1,0.9-2,2-2h31.8c1.1,0,2,0.9,2,2l0,0
		C314.6,398.4,313.7,399.3,312.6,399.3z"/>
	<path class="st16" d="M312.4,409.2h-31.7c-1.1,0-2-0.9-2-2l0,0c0-1.1,0.9-2,2-2h31.8c1.1,0,2,0.9,2,2l0,0
		C314.4,408.4,313.6,409.2,312.4,409.2z"/>
	<path class="st16" d="M312.7,389.3H281c-1.1,0-2-0.9-2-2l0,0c0-1.1,0.9-2,2-2h31.8c1.1,0,2,0.9,2,2l0,0
		C314.7,388.4,313.8,389.3,312.7,389.3z"/>
	<path class="st13" d="M327,329.4"/>
	<g class="st0">
		<path class="st17" d="M277.8,334.5c-0.5,0-0.9-0.4-0.9-0.9v-20.4c0-0.5,0.4-0.9,0.9-0.9h34.4c0.5,0,0.9,0.4,0.9,0.9v20.4
			c0,0.5-0.4,0.9-0.9,0.9H277.8z"/>
		<path class="st18" d="M312.2,313.2v20.4h-34.4v-20.4H312.2 M312.2,311.4h-34.4c-1,0-1.8,0.8-1.8,1.8v20.4c0,1,0.8,1.8,1.8,1.8
			h34.4c1,0,1.8-0.8,1.8-1.8v-20.4C314,312.2,313.1,311.4,312.2,311.4L312.2,311.4z"/>
	</g>
	<g id="Layer_3" class="st0">
		<path class="st19" d="M287.3,339.2c-0.3,0.1-0.5,0.3-0.7,0.5c-0.9,0.8-1.3,2.3-1.1,3.2l1.8,0.5l2.7-0.8L287.3,339.2z"/>
		<path class="st20" d="M287.5,346.3c-1.3-0.5-2.2-1.7-2-3.3h4l-1.2,2.7L287.5,346.3z"/>
		<path class="st21" d="M289.4,347.1c0.8,0,1.6-0.2,2.1-0.6l0.1-0.3l-0.4-1.6l-1.8-1.8l-1.9,3.3
			C287.8,346.8,288.6,347.1,289.4,347.1z"/>
		<path class="st22" d="M291.6,346.6c0,0,0.7-0.4,1-0.8c0.7-0.8,1.1-1.8,1.1-2.9l-1.4-0.5l-2.9,0.5
			C289.5,342.9,290.8,345.3,291.6,346.6L291.6,346.6z"/>
		<path class="st23" d="M291.6,339.2c1.3,0.8,2.2,2.1,2.2,3.7h-4.3l1-2.8L291.6,339.2z"/>
		<path class="st24" d="M289.4,338.6c-0.8,0-1.5,0.2-2.2,0.6l0.5,0.8l1.7,3l2.2-3.7C290.9,338.8,290.2,338.6,289.4,338.6
			L289.4,338.6z"/>
		<path class="st25" d="M292.6,345.8c-0.3,0.3-0.7,0.5-1.2,0.7c0,0,0,0.1,0.1,0.1C292,346.5,292.3,346.2,292.6,345.8L292.6,345.8z"
			/>
		<circle class="st26" cx="289.4" cy="342.9" r="2.9"/>
		<circle class="st27" cx="289.4" cy="342.9" r="2.5"/>
		<circle class="st17" cx="289.4" cy="342.9" r="0.8"/>
		<path class="st28" d="M288.7,343.7c0,0-0.1,0-0.1,0c-0.1-0.1-0.1-0.1,0-0.2l3.2-3.2c0.1-0.1,0.1-0.1,0.2,0c0.1,0.1,0.1,0.1,0,0.2
			L288.7,343.7C288.8,343.7,288.7,343.7,288.7,343.7z"/>
		<path class="st29" d="M287.3,346.7c0.1-0.1,0.1-0.3,0.3-0.4c-1.2-0.7-1.9-1.9-2-3.3h-0.4C285.1,344.5,286,345.9,287.3,346.7z"/>
		<circle class="st30" cx="289.4" cy="342.9" r="0.4"/>
		<circle class="st31" cx="289.4" cy="342.9" r="0.1"/>
		<path class="st32" d="M285.1,342.9h0.4c0-0.1,0-0.2,0-0.4c0-1.1,0.4-2.1,1.1-2.9C285.6,340.5,285.1,341.7,285.1,342.9z"/>
		<path class="st30" d="M287.5,346.3l-0.3,0.4c0.6,0.4,1.4,0.6,2.2,0.6s1.5-0.2,2.2-0.6l-0.1-0.1c-0.5,0.2-1.1,0.4-1.7,0.4
			C288.9,346.9,288.2,346.7,287.5,346.3L287.5,346.3z"/>
		<path class="st19" d="M297.1,339.1c-0.3,0.1-0.5,0.3-0.7,0.5c-0.9,0.8-1.3,2.3-1.1,3.2l1.8,0.5l2.7-0.8L297.1,339.1z"/>
		<path class="st20" d="M297.3,346.2c-1.3-0.5-2.2-1.7-2-3.3h4l-1.2,2.7L297.3,346.2z"/>
		<path class="st21" d="M299.3,347c0.8,0,1.6-0.2,2.1-0.6l0.1-0.3l-0.4-1.6l-1.8-1.8l-1.9,3.3C297.6,346.7,298.5,347,299.3,347z"/>
		<path class="st22" d="M301.4,346.5c0,0,0.7-0.4,1-0.8c0.7-0.8,1.1-1.8,1.1-2.9l-1.4-0.5l-2.9,0.5
			C299.3,342.8,300.6,345.2,301.4,346.5L301.4,346.5z"/>
		<path class="st23" d="M301.4,339.1c1.3,0.8,2.2,2.1,2.2,3.7h-4.3l1-2.8L301.4,339.1z"/>
		<path class="st24" d="M299.3,338.5c-0.8,0-1.5,0.2-2.2,0.6l0.5,0.8l1.7,3l2.2-3.7C300.8,338.7,300.1,338.5,299.3,338.5
			L299.3,338.5z"/>
		<path class="st25" d="M302.5,345.7c-0.3,0.3-0.7,0.5-1.2,0.7c0,0,0,0.1,0.1,0.1C301.8,346.3,302.2,346.1,302.5,345.7L302.5,345.7z
			"/>
		<circle class="st26" cx="299.3" cy="342.8" r="2.9"/>
		<circle class="st27" cx="299.3" cy="342.8" r="2.5"/>
		<circle class="st17" cx="299.3" cy="342.8" r="0.8"/>
		<path class="st28" d="M298.5,343.7c0,0-0.1,0-0.1,0c-0.1-0.1-0.1-0.1,0-0.2l3.2-3.2c0.1-0.1,0.1-0.1,0.2,0c0.1,0.1,0.1,0.1,0,0.2
			L298.5,343.7C298.6,343.7,298.6,343.7,298.5,343.7z"/>
		<path class="st29" d="M297.1,346.6c0.1-0.1,0.1-0.3,0.3-0.4c-1.2-0.7-1.9-1.9-2-3.3H295C294.9,344.4,295.8,345.8,297.1,346.6z"/>
		<circle class="st30" cx="299.3" cy="342.8" r="0.4"/>
		<circle class="st31" cx="299.3" cy="342.8" r="0.1"/>
		<path class="st32" d="M294.9,342.8h0.4c0-0.1,0-0.2,0-0.4c0-1.1,0.4-2.1,1.1-2.9C295.5,340.4,294.9,341.6,294.9,342.8z"/>
		<path class="st30" d="M297.3,346.2l-0.3,0.4c0.6,0.4,1.4,0.6,2.2,0.6s1.5-0.2,2.2-0.6l-0.1-0.1c-0.5,0.2-1.1,0.4-1.7,0.4
			C298.8,346.8,298,346.6,297.3,346.2L297.3,346.2z"/>
	</g>
	<circle class="st13" cx="294.7" cy="354" r="3.6"/>
	<circle class="st13" cx="303.7" cy="354" r="3.6"/>
	<circle class="st13" cx="285.9" cy="354" r="3.6"/>
	
		<rect x="311.7" y="366.4" transform="matrix(0.5532 -0.833 0.833 0.5532 -164.9178 428.8905)" class="st33" width="11.5" height="3.6"/>
	<path class="st13" d="M323.8,369.2h-15.5c-0.2,0-0.4,0.1-0.4,0.4v9.9c0,0.2,0.1,0.4,0.4,0.4h15.5c0.2,0,0.4-0.1,0.4-0.4v-9.9
		C324.2,369.4,324,369.2,323.8,369.2z"/>
	<circle class="st34" cx="321.1" cy="362.4" r="3"/>
	<path class="st35" d="M321.3,372.5h-10.7c-0.6,0-1.1-0.5-1.1-1.1l0,0c0-0.6,0.5-1.1,1.1-1.1h10.7c0.6,0,1.1,0.5,1.1,1.1l0,0
		C322.4,372,321.9,372.5,321.3,372.5z"/>
	<g class="st0">
		<path class="st36" d="M294.3,319c0,0.1,0,0.3,0.1,0.3c1,0.8,2.1,1.7,3.1,2.5c0.1,0.1,0.3,0.1,0.5,0.1c0.6-0.1,1,0,1.4,0.5
			c0.4,0.5,0.4,1,0.1,1.5c-0.3,0.5-0.7,0.8-1.3,0.7c-0.4-0.1-0.6,0.1-0.9,0.3c-0.6,0.5-1.2,0.9-1.8,1.4c-0.2,0.1-0.4,0.2-0.6,0.2
			c-0.3,0-0.5-0.2-0.5-0.4c-0.1-0.3,0-0.5,0.2-0.7c0.5-0.4,1-0.8,1.6-1.3c0.1-0.1,0.3-0.3,0.4-0.4c0.2-0.1,0.3-0.3,0.3-0.5
			c0-0.1,0-0.2-0.1-0.3c-1.1-0.9-2.2-1.7-3.3-2.6c-0.1-0.1-0.2-0.1-0.4-0.1c-0.8,0.2-1.5-0.3-1.7-1c-0.2-0.7,0.3-1.4,1-1.6
			C293.5,317.4,294.3,318,294.3,319z"/>
		<path class="st37" d="M293,326.3c0.8,0,1.4,0.6,1.4,1.4c0,0.8-0.6,1.4-1.4,1.4c-0.8,0-1.4-0.6-1.4-1.4
			C291.5,326.9,292.2,326.3,293,326.3z"/>
	</g>
	<polyline class="st11" points="260.2,326.4 251.9,334 251.9,376.2 260.2,376.2 	"/>
	<g id="Layer_1_1_" class="st0">
	</g>
	<g class="st0">
		<path class="st36" d="M392.6,326.4c-0.1,0.3,0.1,0.5,0.3,0.7c2.2,1.8,4.5,3.6,6.7,5.4c0.3,0.3,0.6,0.3,1,0.2c1.2-0.3,2.2,0.1,3,1
			c0.8,1,0.9,2.1,0.3,3.2c-0.5,1.1-1.6,1.8-2.7,1.6c-0.9-0.2-1.4,0.3-1.9,0.7c-1.2,1-2.6,2-3.8,3c-0.4,0.3-0.8,0.5-1.2,0.4
			c-0.5-0.1-1-0.4-1.2-0.9c-0.2-0.6-0.1-1.1,0.5-1.6c1.1-0.9,2.2-1.8,3.4-2.7c0.3-0.2,0.6-0.5,0.9-0.8c0.5-0.3,0.6-0.6,0.5-1.2
			c0-0.2-0.1-0.5-0.3-0.6c-2.3-1.9-4.7-3.7-7.1-5.6c-0.2-0.2-0.5-0.2-0.8-0.2c-1.6,0.5-3.3-0.5-3.6-2.2c-0.4-1.6,0.7-3.1,2.2-3.5
			C390.9,323,392.6,324.3,392.6,326.4z"/>
		<path class="st37" d="M389.6,342.1c1.6,0,3,1.3,2.9,3c0,1.6-1.4,2.9-2.9,2.9c-1.6,0-2.9-1.4-2.9-3
			C386.6,343.4,387.9,342.1,389.6,342.1z"/>
	</g>
	<path id="_x31_" class="st38" d="M322.2,365.6l-1.7-1.3c0.1-0.5,0.1-0.9,0-1.4l1.7-1.3c0.3-0.2,0.4-0.7,0.2-1.1l-1.7-3
		c-0.2-0.4-0.7-0.5-1-0.4l-2,0.8c-0.4-0.3-0.8-0.5-1.2-0.7l-0.3-2.1c-0.1-0.4-0.4-0.7-0.8-0.7h-3.5c-0.4,0-0.8,0.3-0.8,0.7l-0.3,2.1
		c-0.4,0.2-0.8,0.4-1.2,0.7l-2-0.8c-0.4-0.1-0.8,0-1,0.4l-1.7,3c-0.2,0.4-0.1,0.8,0.2,1.1l1.7,1.3c-0.1,0.5-0.1,0.9,0,1.4l-1.7,1.3
		c-0.3,0.2-0.4,0.7-0.2,1.1l1.7,3c0.2,0.4,0.7,0.5,1,0.4l2-0.8c0.4,0.3,0.8,0.5,1.2,0.7l0.3,2.1c0.1,0.4,0.4,0.7,0.8,0.7h3.5
		c0.4,0,0.8-0.3,0.8-0.7l0.3-2.1c0.4-0.2,0.8-0.4,1.2-0.7l2,0.8c0.4,0.1,0.8,0,1-0.4l1.7-3C322.6,366.3,322.6,365.8,322.2,365.6z
		 M313.6,367.4c-2.1,0-3.8-1.7-3.8-3.8s1.7-3.8,3.8-3.8c2.1,0,3.8,1.7,3.8,3.8C317.4,365.7,315.8,367.4,313.6,367.4z"/>
	<path id="_x32_" class="st38" d="M392.2,365.6l-1.7-1.3c0.1-0.5,0.1-0.9,0-1.4l1.7-1.3c0.3-0.2,0.4-0.7,0.2-1.1l-1.7-3
		c-0.2-0.4-0.7-0.5-1-0.4l-2,0.8c-0.4-0.3-0.8-0.5-1.2-0.7l-0.3-2.1c-0.1-0.4-0.4-0.7-0.8-0.7h-3.5c-0.4,0-0.8,0.3-0.8,0.7l-0.3,2.1
		c-0.4,0.2-0.8,0.4-1.2,0.7l-2-0.8c-0.4-0.1-0.8,0-1,0.4l-1.7,3c-0.2,0.4-0.1,0.8,0.2,1.1l1.7,1.3c-0.1,0.5-0.1,0.9,0,1.4l-1.7,1.3
		c-0.3,0.2-0.4,0.7-0.2,1.1l1.7,3c0.2,0.4,0.7,0.5,1,0.4l2-0.8c0.4,0.3,0.8,0.5,1.2,0.7l0.3,2.1c0.1,0.4,0.4,0.7,0.8,0.7h3.5
		c0.4,0,0.8-0.3,0.8-0.7l0.3-2.1c0.4-0.2,0.8-0.4,1.2-0.7l2,0.8c0.4,0.1,0.8,0,1-0.4l1.7-3C392.7,366.3,392.6,365.8,392.2,365.6z
		 M383.7,367.4c-2.1,0-3.8-1.7-3.8-3.8s1.7-3.8,3.8-3.8c2.1,0,3.8,1.7,3.8,3.8C387.5,365.7,385.8,367.4,383.7,367.4z"/>
	<path id="_x33_" class="st38" d="M470.3,365.6l-1.7-1.3c0.1-0.5,0.1-0.9,0-1.4l1.7-1.3c0.3-0.2,0.4-0.7,0.2-1.1l-1.7-3
		c-0.2-0.4-0.7-0.5-1-0.4l-2,0.8c-0.4-0.3-0.8-0.5-1.2-0.7l-0.3-2.1c-0.1-0.4-0.4-0.7-0.8-0.7h-3.5c-0.4,0-0.8,0.3-0.8,0.7l-0.3,2.1
		c-0.4,0.2-0.8,0.4-1.2,0.7l-2-0.8c-0.4-0.1-0.8,0-1,0.4l-1.7,3c-0.2,0.4-0.1,0.8,0.2,1.1l1.7,1.3c-0.1,0.5-0.1,0.9,0,1.4l-1.7,1.3
		c-0.3,0.2-0.4,0.7-0.2,1.1l1.7,3c0.2,0.4,0.7,0.5,1,0.4l2-0.8c0.4,0.3,0.8,0.5,1.2,0.7l0.3,2.1c0.1,0.4,0.4,0.7,0.8,0.7h3.5
		c0.4,0,0.8-0.3,0.8-0.7l0.3-2.1c0.4-0.2,0.8-0.4,1.2-0.7l2,0.8c0.4,0.1,0.8,0,1-0.4l1.7-3C470.7,366.3,470.7,365.8,470.3,365.6z
		 M461.7,367.4c-2.1,0-3.8-1.7-3.8-3.8s1.7-3.8,3.8-3.8c2.1,0,3.8,1.7,3.8,3.8C465.5,365.7,463.9,367.4,461.7,367.4z"/>
	<path id="_x34_" class="st38" d="M541.6,365.5l-1.7-1.3c0.1-0.5,0.1-0.9,0-1.4l1.7-1.3c0.3-0.2,0.4-0.7,0.2-1.1l-1.7-3
		c-0.2-0.4-0.7-0.5-1-0.4l-2,0.8c-0.4-0.3-0.8-0.5-1.2-0.7l-0.3-2.1c-0.1-0.4-0.4-0.7-0.8-0.7h-3.5c-0.4,0-0.8,0.3-0.8,0.7l-0.3,2.1
		c-0.4,0.2-0.8,0.4-1.2,0.7l-2-0.8c-0.4-0.1-0.8,0-1,0.4l-1.7,3c-0.2,0.4-0.1,0.8,0.2,1.1l1.7,1.3c-0.1,0.5-0.1,0.9,0,1.4l-1.7,1.3
		c-0.3,0.2-0.4,0.7-0.2,1.1l1.7,3c0.2,0.4,0.7,0.5,1,0.4l2-0.8c0.4,0.3,0.8,0.5,1.2,0.7l0.3,2.1c0.1,0.4,0.4,0.7,0.8,0.7h3.5
		c0.4,0,0.8-0.3,0.8-0.7l0.3-2.1c0.4-0.2,0.8-0.4,1.2-0.7l2,0.8c0.4,0.1,0.8,0,1-0.4l1.7-3C542,366.2,541.9,365.8,541.6,365.5z
		 M533,367.3c-2.1,0-3.8-1.7-3.8-3.8c0-2.1,1.7-3.8,3.8-3.8c2.1,0,3.8,1.7,3.8,3.8C536.8,365.7,535.1,367.3,533,367.3z"/>
	<path id="_x35_" class="st38" d="M605.1,365.7l-1.7-1.3c0.1-0.5,0.1-0.9,0-1.4l1.7-1.3c0.3-0.2,0.4-0.7,0.2-1.1l-1.7-3
		c-0.2-0.4-0.7-0.5-1-0.4l-2,0.8c-0.4-0.3-0.8-0.5-1.2-0.7l-0.3-2.1c-0.1-0.4-0.4-0.7-0.8-0.7h-3.5c-0.4,0-0.8,0.3-0.8,0.7l-0.3,2.1
		c-0.4,0.2-0.8,0.4-1.2,0.7l-2-0.8c-0.4-0.1-0.8,0-1,0.4l-1.7,3c-0.2,0.4-0.1,0.8,0.2,1.1l1.7,1.3c-0.1,0.5-0.1,0.9,0,1.4l-1.7,1.3
		c-0.3,0.2-0.4,0.7-0.2,1.1l1.7,3c0.2,0.4,0.7,0.5,1,0.4l2-0.8c0.4,0.3,0.8,0.5,1.2,0.7l0.3,2.1c0.1,0.4,0.4,0.7,0.8,0.7h3.5
		c0.4,0,0.8-0.3,0.8-0.7l0.3-2.1c0.4-0.2,0.8-0.4,1.2-0.7l2,0.8c0.4,0.1,0.8,0,1-0.4l1.7-3C605.5,366.4,605.4,366,605.1,365.7z
		 M596.5,367.5c-2.1,0-3.8-1.7-3.8-3.8c0-2.1,1.7-3.8,3.8-3.8s3.8,1.7,3.8,3.8C600.3,365.8,598.6,367.5,596.5,367.5z"/>
</g>
<g id="hud">
	<g>
		<path class="st38" d="M257.5,381.5h-81.4c-6.1,0-11-5-11-11V246.6c0-6.1,4.9-11,11-11h81.4c6.1,0,11,4.9,11,11v123.9
			C268.5,376.5,263.6,381.5,257.5,381.5z"/>
		<g>
			<circle class="st39" cx="175.5" cy="244.1" r="3.4"/>
			<circle class="st39" cx="184" cy="243.9" r="3.4"/>
			<circle class="st39" cx="193" cy="243.9" r="3.4"/>
		</g>
		<g>
			<path class="st3" d="M236.5,344.2l-8.8,3.6c-0.5-1.2-1.2-2.2-2.1-3.1l6.7-6.7C234.1,339.8,235.5,341.9,236.5,344.2L236.5,344.2z"
				/>
			<path class="st3" d="M237.9,351.5h-9.5c0-1.2-0.2-2.5-0.7-3.6l8.8-3.6C237.4,346.5,237.9,349,237.9,351.5L237.9,351.5z"/>
			<path class="st3" d="M237.9,351.5c0,2.5-0.5,5-1.4,7.3l-8.8-3.6c0.5-1.2,0.7-2.4,0.7-3.6H237.9z"/>
			<path class="st3" d="M210.2,355.1l-8.8,3.6c-1-2.3-1.4-4.8-1.4-7.3h9.5C209.5,352.7,209.7,354,210.2,355.1z"/>
			<path class="st3" d="M232.4,338.1l-6.7,6.7c-0.9-0.9-1.9-1.6-3.1-2.1l3.6-8.8C228.5,334.9,230.6,336.3,232.4,338.1L232.4,338.1z"
				/>
			<path class="st3" d="M218.9,332.5v9.5c1.2,0,2.5,0.2,3.6,0.7l3.6-8.8C223.9,333,221.4,332.5,218.9,332.5L218.9,332.5z"/>
			<path class="st3" d="M218.9,332.5v9.5c-1.2,0-2.5,0.2-3.6,0.7l-3.6-8.8C214,333,216.5,332.5,218.9,332.5L218.9,332.5z"/>
			<path class="st3" d="M215.3,342.7c-1.2,0.5-2.2,1.2-3.1,2.1l-6.7-6.7c1.8-1.8,3.8-3.2,6.1-4.1L215.3,342.7z"/>
			<path class="st3" d="M210.2,347.9c-0.5,1.2-0.7,2.4-0.7,3.6H200c0-2.5,0.5-5,1.4-7.3L210.2,347.9z"/>
			<path class="st3" d="M212.2,344.8c-0.9,0.9-1.6,1.9-2.1,3.1l-8.8-3.6c1-2.3,2.4-4.4,4.1-6.1L212.2,344.8z"/>
			<path class="st38" d="M221.9,348.7c-1.2-1.2-3.1-1.2-4.3,0s-1.2,3.1,0,4.3c1.2,1.2,3.1,1.2,4.3,0c0,0,0,0,0,0
				C223.1,351.8,223.1,349.9,221.9,348.7z"/>
			<path class="st40" d="M218.9,355.5l9.8-13.6c0.1-0.1,0.1-0.3,0-0.4c-0.1-0.1-0.3-0.1-0.4,0l-13.1,10.3c-0.3,0.2-0.3,0.6-0.1,0.8
				c0,0,0,0,0.1,0.1l2.8,2.8C218.2,355.8,218.6,355.8,218.9,355.5C218.9,355.6,218.9,355.5,218.9,355.5L218.9,355.5z"/>
		</g>
		<g>
			<path class="st40" d="M194.1,276.8h48.1v33.1h-48.1V276.8z"/>
			<path class="st41" d="M242.5,273.9h-48.7c-0.8,0-1.5,0.7-1.5,1.5s0.7,1.5,1.5,1.5h48.7c0.8,0,1.5-0.7,1.5-1.5
				S243.3,273.9,242.5,273.9z"/>
			<path class="st42" d="M233,300.9h-3v-2.8h3v-0.2h-3V295h3v-0.2h-3V292h3v-0.2h-3v-2.8h3v-0.2h-3v-2.8h3v-0.2h-3v-2.8h3v-0.3h-3
				v-2.3h-0.2v2.3h-3v-2.3h-0.2v2.3h-2.8v-2.3h-0.2v2.3h-2.8v-2.3h-0.2v2.3h-2.9v-2.3h-0.2v2.3h-2.8v-2.3h-0.2v2.3h-2.8v-2.3h-0.2
				v2.3h-2.8v-2.3h-0.2v2.3h-3v0.3h3v2.8h-3v0.2h3v2.8h-3v0.2h3v2.8h-3v0.2h3v2.8h-3v0.2h3v2.8h-3v0.2h3v2.8h-3v0.2h3v2.3h0.2v-2.3
				h2.8v2.3h0.2v-2.3h2.8v2.3h0.2v-2.3h2.8v2.3h0.2v-2.3h2.8v2.3h0.3v-2.3h2.8v2.3h0.2v-2.3h2.8v2.3h0.2v-2.3h3v2.3h0.2v-2.3h3
				L233,300.9z M211.3,300.9h-2.8v-2.8h2.8L211.3,300.9z M211.3,297.8h-2.8V295h2.8L211.3,297.8z M211.3,294.8h-2.8V292h2.8
				L211.3,294.8z M211.3,291.7h-2.8v-2.8h2.8L211.3,291.7z M211.3,288.7h-2.8v-2.8h2.8L211.3,288.7z M211.3,285.6h-2.8v-2.8h2.8
				L211.3,285.6z M214.4,300.9h-2.8v-2.8h2.8V300.9z M214.4,297.8h-2.8V295h2.8V297.8z M214.4,294.8h-2.8V292h2.8V294.8z
				 M214.4,291.7h-2.8v-2.8h2.8V291.7z M214.4,288.7h-2.8v-2.8h2.8V288.7z M214.4,285.6h-2.8v-2.8h2.8V285.6z M217.4,300.9h-2.8
				v-2.8h2.8L217.4,300.9z M217.4,297.8h-2.8V295h2.8L217.4,297.8z M217.4,294.8h-2.8V292h2.8L217.4,294.8z M217.4,291.7h-2.8v-2.8
				h2.8L217.4,291.7z M217.4,288.7h-2.8v-2.8h2.8L217.4,288.7z M217.4,285.6h-2.8v-2.8h2.8L217.4,285.6z M220.5,300.9h-2.8v-2.8h2.8
				L220.5,300.9z M220.5,297.8h-2.8V295h2.8L220.5,297.8z M220.5,294.8h-2.8V292h2.8L220.5,294.8z M220.5,291.7h-2.8v-2.8h2.8
				L220.5,291.7z M220.5,288.7h-2.8v-2.8h2.8L220.5,288.7z M220.5,285.6h-2.8v-2.8h2.8L220.5,285.6z M223.5,300.9h-2.8v-2.9h2.8
				L223.5,300.9z M223.5,297.9h-2.8V295h2.8L223.5,297.9z M223.5,294.8h-2.8V292h2.8L223.5,294.8z M223.5,291.7h-2.8v-2.9h2.8
				L223.5,291.7z M223.5,288.7h-2.8v-2.9h2.8L223.5,288.7z M223.5,285.6h-2.8v-2.8h2.8L223.5,285.6z M226.6,300.9h-2.8v-2.9h2.8
				L226.6,300.9z M226.6,297.9h-2.8V295h2.8L226.6,297.9z M226.6,294.8h-2.8V292h2.8L226.6,294.8z M226.6,291.8h-2.8v-2.9h2.8
				L226.6,291.8z M226.6,288.7h-2.8v-2.9h2.8L226.6,288.7z M226.6,285.6h-2.8v-2.8h2.8L226.6,285.6z M229.8,300.9h-3v-2.9h3
				L229.8,300.9z M229.8,297.9h-3V295h3L229.8,297.9z M229.8,294.8h-3V292h3L229.8,294.8z M229.8,291.8h-3v-2.9h3L229.8,291.8z
				 M229.8,288.7h-3v-2.9h3L229.8,288.7z M229.8,285.7h-3v-2.8h3L229.8,285.7z"/>
			<path class="st38" d="M233.4,303.6H205v-23.3h0.4v22.8h27.9V303.6z"/>
			<path class="st43" d="M203,282.5h1.4v0.2H203V282.5z"/>
			<path class="st43" d="M203,285.6h1.4v0.2H203V285.6z"/>
			<path class="st43" d="M203,288.7h1.4v0.2H203V288.7z"/>
			<path class="st43" d="M203,291.8h1.4v0.2H203V291.8z"/>
			<path class="st43" d="M203,295h1.4v0.2H203V295z"/>
			<path class="st43" d="M203,298.1h1.4v0.2H203V298.1z"/>
			<path class="st43" d="M203,301.2h1.4v0.2H203V301.2z"/>
			<path class="st2" d="M207.1,299.6l-0.6-0.2l3.3-7.1c0.5-1,1.5-1.7,2.6-1.7c1.1,0,2.1,0.6,2.6,1.6l1.2,2.4c0.6,1.1,1.9,1.6,3.1,1
				c0.4-0.2,0.7-0.5,1-0.9l1.9-3.3c0.8-1.4,2.6-1.9,4-1c0.5,0.3,0.9,0.8,1.2,1.3l0.9,2.1c0.5,1.2,1.9,1.7,3,1.2
				c0.5-0.2,0.8-0.5,1.1-1l0.8-1.4l0.6,0.3l-0.8,1.4c-0.8,1.4-2.6,1.9-4,1.1c-0.6-0.3-1-0.8-1.3-1.4l-0.9-2.1
				c-0.5-1.2-1.9-1.7-3-1.2c-0.4,0.2-0.8,0.5-1.1,0.9l-1.9,3.3c-0.8,1.4-2.7,1.8-4,1c-0.5-0.3-0.8-0.7-1.1-1.2l-1.2-2.4
				c-0.4-0.8-1.2-1.3-2.1-1.3c-0.9,0-1.7,0.5-2.1,1.3L207.1,299.6z"/>
			<path class="st44" d="M222,297.7c-1.5,0-2.8-0.8-3.5-2.1l-3.2-6.3c-0.8-1.6-2.8-2.2-4.4-1.4c-0.5,0.2-0.9,0.6-1.2,1l-3.3,4.7
				l-0.5-0.4l3.3-4.7c1.2-1.8,3.7-2.2,5.4-0.9c0.5,0.4,0.9,0.9,1.2,1.4l3.2,6.3c0.5,1.1,1.7,1.8,2.9,1.8h0.1c1.2,0,2.4-0.7,2.9-1.9
				l2.2-4.6c0.6-1.4,2.3-1.9,3.6-1.3c0.4,0.2,0.8,0.5,1.1,0.9l-0.5,0.4c-0.7-0.9-1.9-1.2-2.9-0.5c-0.3,0.2-0.5,0.5-0.7,0.8l-2.2,4.6
				C224.9,296.8,223.6,297.7,222,297.7L222,297.7L222,297.7z"/>
			<path class="st41" d="M242.5,308.4h-48.7c-0.8,0-1.5,0.7-1.5,1.5s0.7,1.5,1.5,1.5h48.7c0.8,0,1.5-0.7,1.5-1.5
				S243.3,308.4,242.5,308.4z"/>
		</g>
	</g>
	<g>
		<path class="st38" d="M144.4,376.4H63c-6,0-11-5-11-11V241.5c0-6,5-11,11-11h81.4c6.1,0,11,4.9,11,11v123.9
			C155.4,371.4,150.5,376.4,144.4,376.4z"/>
		<g>
			<path class="st40" d="M126.9,305.8H85.7c-2.2,0-4-1.8-4-4v-33.1c0-2.2,1.8-4,4-4h41.2c2.2,0,4,1.8,4,4v33.1
				C130.9,304,129.1,305.8,126.9,305.8z"/>
			<path class="st39" d="M98.1,277.7h5.8v23.9h-5.8V277.7z"/>
			<path class="st45" d="M98.1,277.7h1.8v23.9h-1.8V277.7z"/>
			<path class="st44" d="M114.4,272.9h5.8v28.7h-5.8V272.9z"/>
			<path class="st46" d="M114.4,272.9h1.8v28.7h-1.8V272.9z"/>
			<g>
				<path class="st38" d="M92.4,301.6v-32.5h-0.9v32.5v0.9h0.9h34.9v-0.9H92.4z"/>
				<path class="st38" d="M85.8,270.4h3.3v0.7h-3.3V270.4z"/>
				<path class="st38" d="M85.8,274.7h3.3v0.7h-3.3V274.7z"/>
				<path class="st38" d="M85.8,279h3.3v0.7h-3.3V279z"/>
				<path class="st38" d="M85.8,283.3h3.3v0.7h-3.3V283.3z"/>
				<path class="st38" d="M85.8,287.5h3.3v0.7h-3.3V287.5z"/>
				<path class="st38" d="M85.8,291.8h3.3v0.7h-3.3V291.8z"/>
				<path class="st38" d="M85.8,296.1h3.3v0.7h-3.3V296.1z"/>
				<path class="st38" d="M85.8,300.4h3.3v0.7h-3.3V300.4z"/>
			</g>
			<path class="st39" d="M106.3,288.6h5.8v12.9h-5.8V288.6z"/>
			<path class="st45" d="M106.3,288.7h1.8v12.8h-1.8V288.7z"/>
		</g>
		<g>
			<path class="st40" d="M100.5,327.9c-0.6-0.1-0.8,0.2-1.4,0.4c-0.7,0.3-1.2,0-1.9-0.1c-0.4-0.1-0.7-0.2-1.1-0.3
				c-0.4-0.1-0.8-0.1-1.2-0.1c-1,0-2.3-0.2-3.2,0.2c-0.5,0.2-1,0.3-1.5,0.2c-0.7,0-0.7,0.2-1.2,0.6c-0.2,0.2-0.5,0.4-0.8,0.3
				c-0.2-0.1-0.3-0.4-0.5-0.3c-0.3,0-0.9,0.7-1.1,0.9c-0.6-0.2-0.5-0.8-1.2-0.5c-0.3,0.1-0.5,0.2-0.7,0.4c-0.3,0.2-0.6,0.4-0.9,0.6
				c-0.4,0.3-0.6,0.5-1.2,0.4c-0.3-0.1-0.6-0.1-0.9-0.2c-0.3,0-0.6,0-0.9,0c-0.9,0-1.9,0-2.8-0.1c-0.5-0.1-1,0-1.4,0.3
				c-0.1,0.1-0.2,0.3-0.3,0.5c-0.2,0.1-0.5,0.2-0.7,0.3c-0.6,0.3-0.8,0.9-1.5,1.1c-0.3,0.1-0.7,0-0.7,0.4c0,0.3,0.7,0.4,1,0.4
				c0.3,0,0.4-0.2,0.6-0.3c0.2-0.1,0.4-0.1,0.7-0.1c0.4-0.1,0.3-0.3,0.6-0.4c0.6-0.3,1,0,1.3,0.5c0.3,0.4,0.4,0.9,0.4,1.3
				c0,0.4,0,0.7,0,1.1c-0.1,0.4-0.4,0.5-0.6,0.9c-0.2,0.4,0,0.9,0,1.4c0,0.2-0.2,0.3-0.1,0.6c0,0.2,0.3,0.5,0.4,0.7
				c0.2,0.5,0.1,1.1,0.6,1.5c0.2,0.1,0.4,0.1,0.5,0.3s0,0.5,0,0.7c0,0.2,0.1,0.4,0.2,0.5c0.1,0.3,0.2,0.5,0.3,0.7
				c0.2,0.3,0.3,0.2,0.7,0.2c0.6,0.1,1.2,0.2,1.8,0.2c0.2,0.3,0,0.7,0.1,1.1s0.2,0.2,0.4,0.4c0.5,0.2,0.9,0.4,1.2,0.8
				c0.2,0.2,0.2,0.6,0.5,0.7c0.1,0,0.4-0.1,0.5,0c0.3,0.2,0,0.9-0.2,1.1c0,0.4-0.2,0.5-0.2,0.9c0,0.3,0,0.5,0,0.8
				c0.1,0.2,0.2,0.5,0.4,0.7c0.1,0.3,0.2,0.5,0.3,0.8c0.2,0.6,0.6,1.1,1.1,1.5c0.3,0.2,0.4,0.2,0.6,0.5c0.2,0.4,0.2,0.8,0.2,1.1
				c0,0.2,0,0.5,0,0.7c0,0.5,0.2,0.6,0.4,1c0.2,0.6-0.2,1.2-0.1,1.8c0.1,0.6,0.3,1.2,0.5,1.7c0.1,0.3,0.1,0.6,0.2,0.9
				c0.1,0.3,0.3,0.7,0.4,0.9c0.4,0.5,0.7,1.2,1.3,1.4c0.2,0.1,0.7,0.2,0.9,0c0.1-0.3,0.1-0.6,0-0.9l-0.1,0.2c-0.4-0.3-0.9-0.6-1-1.1
				c-0.1-0.4,0-0.9,0-1.2c-0.1-0.4-0.1-0.8,0-1.2c0.1-0.5,0.7-0.7,1-1.1c0.1-0.2,0.3-0.3,0.4-0.5c0.2-0.2,0.2-0.4,0.3-0.6
				c0.1-0.2,0.4-0.2,0.5-0.5s-0.1-0.5,0-0.8c0-0.2,0.2-0.4,0.2-0.6c0.1-0.4,0.1-0.4,0.5-0.7c0.6-0.4,1.1-0.4,1.2-1.2
				c0.1-0.2,0.1-0.5,0.2-0.7s0.3-0.5,0.4-0.8c0.1-0.5,0.2-1,0.1-1.5c-0.1-0.4-0.6-0.8-1-0.9c-0.3,0-0.6-0.1-0.9-0.2
				c-0.3-0.1-0.3-0.3-0.5-0.4c-0.2-0.1-0.5,0-0.6-0.3c-0.1-0.2-0.2-0.5-0.2-0.8c-0.1-0.4-0.1-0.4-0.5-0.5c-0.2-0.1-0.3-0.1-0.5-0.2
				c-0.2-0.1-0.4-0.2-0.5-0.3c-0.3-0.1-0.6-0.2-0.9-0.3c-0.2-0.1-0.4-0.2-0.5-0.2c-0.3-0.1-0.6-0.2-0.9-0.2
				c-0.5-0.1-1.1-0.2-1.6-0.1c-0.4,0.1-0.1,0.2-0.3,0.5c-0.3,0.1-0.7,0.2-1,0c-0.2-0.2-0.3-0.4-0.4-0.6c-0.1-0.2,0.3-0.4,0.1-0.7
				c-0.2-0.5-1.2,0-1.4-0.5c0.2-0.3,0.8-0.5,0.6-1s-0.7-0.3-0.9,0.1c-0.1,0.2,0,0.3-0.3,0.4c-0.2,0-0.4,0-0.6,0
				c-0.4-0.1-0.7-0.4-0.7-0.8c-0.1-0.2-0.1-0.4-0.1-0.6c0.1-0.3,0.2-0.2,0.4-0.4s0.2-0.5,0.5-0.8c0.3-0.2,0.7-0.3,1.1-0.3
				c0.6,0,1.1-0.1,1.4,0.3c0.4,0.4,0.5,0.9,1.2,0.9c0.1-0.1,0.1-0.3,0.1-0.4c-0.4-0.2-0.1-1,0.2-1.2c0.2-0.2,0.4-0.3,0.5-0.6
				c0.1-0.3,0.1-0.5,0.4-0.8c0.2-0.2,0.5-0.4,0.7-0.6c0.1-0.1,0.2-0.4,0.3-0.5c0.1-0.1,0.5-0.1,0.7-0.1c1,0,0.2-0.9,1-1.1
				c0.3-0.1,0.5,0.2,0.8,0.1c0.4-0.1,0.1-0.5,0.1-0.7c-0.1-0.5-0.1-0.3,0.4-0.3c0.4-0.1,0.4-0.5,0.8-0.3c0.6,0.2-0.1,1.3,0.9,1
				s-0.3-0.7-0.3-1.1c0-0.1,0.2-0.3,0.2-0.5c0-0.2,0-0.4-0.1-0.5c-0.1-0.1-0.2-0.1-0.3-0.2c-0.1-0.1-0.1-0.3-0.1-0.4
				c-0.1-0.2-0.3-0.9-0.6-0.8c-0.3,0.1-0.3,0.7-0.4,0.9c-0.5-0.2,0.1-1.6-0.8-1.3c-0.4,0.1-0.3,0.5-0.6,0.8
				c-0.1,0.1-0.3,0.2-0.4,0.3c-0.1,0.1,0.1,0.4,0,0.5c-0.1,0.1-0.2,0.2-0.2,0.4c-0.1,0.2-0.1,0.3-0.1,0.5c-0.2,0.6-0.8,1.1-1,0.2
				c0-0.2,0-0.3,0-0.5l0.2-0.4c-0.1-0.4-0.4,0-0.7-0.1c-0.4-0.1-0.2-0.2-0.4-0.4c-0.1-0.1-0.3-0.3-0.4-0.4c-0.3-0.8,0.5-0.6,1-0.7
				c0.1,0,0.2-0.2,0.3-0.2c0.1,0,0.3,0.1,0.4,0.1c0.2,0,0.4,0,0.6,0c0.2-0.1,0.3-0.3,0.4-0.5c0.3-0.3,0.1-0.2,0.5-0.4
				s0.5-0.4,0.8-0.7c0.6-0.4,0.6,0.1,0.6,0.6c0,0.3,0.1,0.9,0.4,1.1c0.3,0.1,0.7,0,0.8-0.3c0,0,0,0,0,0c0-0.1,0.1-0.4,0.1-0.5
				c0.1-0.1,0.3-0.1,0.4-0.1c0.3-0.4-0.2-0.5-0.4-0.8c-0.1-0.2-0.1-0.3-0.2-0.5c-0.1-0.2-0.4-0.2-0.4-0.5c0-0.3,0.1-0.5,0.3-0.7
				c0.3-0.3,0.4-0.2,0.8-0.3c0.2-0.1,0.4,0,0.6,0.1c0.2,0.1,0.3,0.4,0.5,0.5c0.2,0.1,0.7,0.2,0.9,0.4c0.2,0.3,0.4,0.7,0.4,1
				c-0.1,0.3-0.3,0.3-0.5,0.5c-0.2,0.4-0.2,0.8-0.1,1.1c0.1,0.3,0.4,0.6,0.7,0.5c0.1,0,0.1,0,0.2-0.1c0.1-0.1,0.3-0.4,0.4-0.6
				c0.3-0.3,0.7-0.4,1-0.6c0.3-0.2,0.5-0.4,0.8-0.6c0.5-0.3,1.1-0.4,1.5-0.7c0.2-0.1,0.3-0.3,0.5-0.4c0.3-0.2,0.4-0.1,0.7-0.2
				c0.6-0.2,0.4-0.8,0.8-1.2c0.1-0.1,0.4,0,0.4-0.3C101,328,100.7,328,100.5,327.9L100.5,327.9z"/>
			<path class="st40" d="M107.1,356.3c0.8,0,0.8,0,1-0.7c0.1-0.2,0.2-0.8,0.3-0.9c0.2-0.3,0.3-0.4,0.6-0.7c0.4-0.4,0.4-1,0.7-1.5
				c0.4-0.5,0.7-1,1-1.5c0.5-1.2-0.4-2.3,0.3-3.5c0.5-0.9,2.6-1.6,2.1-2.8c-0.7,0-1.2,0.4-1.4-0.4c-0.2-0.8,0-1.2,0.8-1.2
				s1.7,0.2,2.2-0.4c0.5-0.6,0.3-1.2,0.4-1.8c0.4,0.2,0.4,0.6,0.6,0.8c0.4,0.4,0.9,0.7,1.4,0.8c0.5,0.1,0.6-0.2,1.1,0.3
				c0.3,0.3,0.2,0.4,0.2,0.9c0,0.6,0,1.2,0.5,1.6c0.2,0.1,0.5,0.5,0.8,0.4c0.4-0.1-0.3-1.6-0.3-1.9c0.6-0.4,1.2-0.2,1.6-0.6
				c0.4-0.4,0.2-1.1,1-0.9c0.7,0.2,0.3,1.1,0.5,1.6c0.2,0.5,1,0.9,1,1.6c0,0.3-0.5,0.7-0.4,1.1c0.1,0.3,0.2,0.3,0.5,0.6
				c0.5,0.4,0.7,1.1,1.3,1.5c0.4,0.3,0.8,0.6,1.2,0.8c0.6,0.3,1.1,0.1,1.7,0.4c0.4,0.2,0.9,0.5,1.4,0.6c0.5,0.1,0.5-0.4,0.6,0.4
				c0.1,0.7-0.7,0.9-1.1,1.1c-0.4,0.4-0.9,0.7-1.4,1c-0.6,0.3-0.9,0.4-0.9,1.1c-0.1,1.2,0.3,2.8,1.9,2.3c0.6-0.2,0.8-1.1,1.6-0.6
				c0.3,0.2,0.3,0.6,0.5,0.9c0.3,0.4,0.7,0.7,1.2,0.7c0.4,0.1,1.3,0.4,1.7,0c0.2-0.2,0.1-0.6,0.2-0.9c0.1-0.2,0.7-0.7,0.9-1.1
				c0.2-0.4,0.4-0.4,0.4-0.8c0-0.9-0.9-1.5-0.9-2.5c0-0.7,0.2-1.9-0.8-2.1c0.1,0.6,0.8,2.5-0.5,2.5c-0.7,0-0.9-1.2-1-1.7
				c-0.1-0.7,0.2-0.9-0.5-1.1c-0.4-0.1-0.6,0.2-1,0.1c-0.7,0-1.3-0.3-1.8-0.8c-0.6-0.8,0.5-0.7,1-0.8c0.2-0.1,0.2-0.3,0.6-0.3
				c0.4,0,0.8,0.4,1.1,0.6c0.7,0.5,1.6,0.8,2.5,0.9c0.2,0,1.1,0.1,1.2-0.1c0.4-0.5-0.4-0.6-0.6-0.7c-0.7-0.2-1.1-0.1-1.5-0.7
				c-0.3-0.4-0.1-0.7-0.8-0.9c-0.4-0.1-0.5,0-0.7-0.3c-0.1-0.1,0-0.4-0.1-0.5c-0.1-0.1-0.4,0-0.6-0.2c-0.3-0.2-0.5-0.5-0.6-0.8
				c-0.1-0.3-0.1-0.6-0.3-0.9c-0.3-0.7-0.8-1.3-1.6-1c-0.7,0.3-0.5,1.2-0.6,1.8c-0.1,0.3,0,0.6-0.3,0.8c-0.5,0.5-1.1-0.2-1.1-0.7
				c-0.1-0.6,0.2-1.2,0.1-1.8c0-0.3-0.2-0.8-0.1-1.2c0.2-0.6,0.7-0.3,1.2-0.5c0.7-0.2,1-0.9,0.8-1.6c0-0.1-0.1-0.2-0.1-0.3
				c-0.3-0.5-1.2-1.3-0.6-2c0.7-0.7,1.4,0.7,1.8,1c0.6,0.4,2.3,0.3,1.9-0.9c-0.6-0.1-1.3,0.1-1.8-0.3c-0.2-0.8,0-1.6,0.5-2.2
				c0.3-0.3,0.5-0.4,0.2-0.8c-0.5-0.6-1.7-0.1-2.2-0.5c-0.3-0.2-0.4-0.6-0.3-1c0.4-0.7,1,0.1,1.6-0.1c0.3-0.1,0.6-0.6,1-0.7
				c0.4-0.1,0.7,0.2,1,0c0.3,0.5-0.1,1.2,0.3,1.7c0.4,0.3,0.8,0.6,1.3,0.8c0.2-0.2,0.2-0.4,0.3-0.6c-0.4-0.3-0.6-0.8-0.4-1.2
				c0.3-0.6,1.4-0.6,0.8-1.5c-0.5-0.9-2.3-1-3.1-1.4c-0.5-0.3-1-0.4-1.5-0.3c-0.5,0-1,0.3-1.4,0.3c-0.3,0-0.4-0.2-0.7-0.2
				c-0.2,0-0.6,0.1-0.9,0c-0.3-0.1-0.4-0.3-0.6-0.4c-0.3,0-0.6,0-0.9,0.1c-1.1,0.1-2.4,0.4-3.6,0.2c-0.8-0.1-0.9-0.6-1.6-0.6
				c-0.7,0-1.4,0-2.1,0.1c-0.6,0.1-1.1,0.3-1.6,0.5c-0.7,0.2-1.4,0.4-2.1,0.4c-0.8,0.1-1.5,0.3-2.2,0.6c-0.5,0.4-1.2,0.5-1.8,0.1
				c-0.2-0.1-0.4-0.4-0.6-0.5c-0.6-0.1-1.2-0.2-1.7-0.1c-0.5,0-1.1,0.1-1.6,0.3c-0.4,0.2-0.4,0.4-0.6,0.7c-0.2,0.3-0.7,0.8-1,1.2
				c-0.5,0.7-0.2,0.9-0.3,1.7c-0.2,1.5-1.2-0.6-1.7-0.6c-1.9-0.2-0.1,2.7-0.2,3.2c-0.1,0.5-0.8,0.6-1.2,1c-0.4,0.3-0.5,0.8-0.5,1.2
				c0,0.5-0.2,1-0.6,1.3c-0.3,0.2-0.6,0.6-0.8,1c-0.3,1-0.3,2.1,0,3c0.3,0.9,1.3,2.3,2.3,2.2c0.7-0.1,1.4-0.6,2.2-0.4
				c1,0.2,1,0.9,1.1,1.7c0.1,0.6,0.7,0.7,0.7,1.2c0,0.3-0.3,0.5-0.3,0.8c0,0.3,0.1,0.4,0.1,0.7c0,0.4,0.1,0.7,0.2,1.1
				c0.1,0.2,0.5,0.4,0.6,0.6c0.1,0.5,0.1,1,0,1.4c0,0.3-0.2,0.4-0.2,0.8c0.1,0.3,0.5,0.6,0.7,0.8C106.2,355.7,107,357.3,107.1,356.3
				L107.1,356.3z"/>
			<path class="st39" d="M133.5,342.1h-8.4v5.3h3l1.2,2.2l1.1-2.2h3.1V342.1z"/>
			<path class="st39" d="M111.9,324.7h-8.4v5.3h3l1.2,2.2l1.1-2.2h3.1V324.7z"/>
			<path class="st39" d="M95.5,342.3h-8.4v5.3h3l1.2,2.2l1.1-2.2h3.1L95.5,342.3z"/>
			<g>
				<path class="st9" d="M129.4,343.6c0,0.1,0,0.1,0.1,0.1c0.4,0.3,0.8,0.6,1.2,1c0.1,0.1,0.1,0.1,0.2,0c0.2-0.1,0.4,0,0.5,0.2
					c0.1,0.2,0.2,0.4,0.1,0.6c-0.1,0.2-0.3,0.3-0.5,0.3c-0.2,0-0.2,0.1-0.3,0.1c-0.2,0.2-0.4,0.4-0.7,0.5c-0.1,0.1-0.1,0.1-0.2,0.1
					c-0.1,0-0.2-0.1-0.2-0.2c0-0.1,0-0.2,0.1-0.3c0.2-0.2,0.4-0.3,0.6-0.5c0.1,0,0.1-0.1,0.2-0.1c0.1-0.1,0.1-0.1,0.1-0.2
					c0,0,0-0.1-0.1-0.1c-0.4-0.3-0.8-0.7-1.2-1c0,0-0.1,0-0.1,0c-0.3,0.1-0.6-0.1-0.6-0.4c-0.1-0.3,0.1-0.5,0.4-0.6
					C129.1,343,129.4,343.3,129.4,343.6z"/>
				<path class="st10" d="M128.9,346.4c0.3,0,0.5,0.2,0.5,0.5c0,0.3-0.2,0.5-0.5,0.5c-0.3,0-0.5-0.2-0.5-0.5
					C128.3,346.6,128.6,346.4,128.9,346.4z"/>
			</g>
		</g>
		<g>
			<circle class="st39" cx="62.9" cy="238.7" r="3.4"/>
			<circle class="st39" cx="71.4" cy="238.4" r="3.4"/>
			<circle class="st39" cx="80.4" cy="238.4" r="3.4"/>
		</g>
	</g>
</g>
<g id="hands">
	
		<rect id="e4hrmuigvk16166_2_" x="14.5" y="46.5" transform="matrix(0.5737 -0.8191 0.8191 0.5737 -16.9629 68.5733)" class="st38" width="85.7" height="8.1"/>
	<circle id="e4hrmuigvk16167_2_" class="st47" cx="38.7" cy="77.7" r="9.9"/>
	<polygon id="e4hrmuigvk16170_2_" class="st38" points="84.4,109.1 92.9,89.9 113.4,87.9 123.6,101.7 117.8,106.8 109.6,96.2 
		98.6,98.4 94.4,107.9 100.6,116.4 113.6,115.2 115.2,122.8 96.4,126.3 	"/>
	<polygon id="e4hrmuigvk16176_2_" class="st38" points="84.4,109.1 92.9,89.9 98.6,98.4 94.4,107.9 100.6,116.4 113.6,115.2 
		115.2,122.8 96.4,126.3 	"/>
	
		<rect id="e4hrmuigvk16177_2_" x="64.1" y="65.7" transform="matrix(0.4035 -0.915 0.915 0.4035 -42.0328 116.101)" class="st38" width="7.9" height="49.2"/>
	
		<rect id="e4hrmuigvk16178_2_" x="68.8" y="88.6" transform="matrix(0.4191 -0.9079 0.9079 0.4191 -40.5683 127.0568)" class="st48" width="20.3" height="13.3"/>
	
		<ellipse id="e4hrmuigvk16179_2_" transform="matrix(0.4315 -0.9021 0.9021 0.4315 -39.9978 132.592)" class="st48" cx="85.2" cy="98" rx="10.2" ry="10"/>
	<ellipse id="e4hrmuigvk16180_2_" class="st38" cx="90.8" cy="96.1" rx="1.6" ry="1.6"/>
	<ellipse id="e4hrmuigvk16181_2_" class="st38" cx="87.6" cy="102.8" rx="1.6" ry="1.6"/>
	
		<ellipse id="e4hrmuigvk16188_2_" transform="matrix(1.329273e-02 -0.9999 0.9999 1.329273e-02 65.4585 98.5879)" class="st48" cx="82.7" cy="16.1" rx="10" ry="11.1"/>
	
		<rect id="e4hrmuigvk16187_2_" x="76.2" y="-2.6" transform="matrix(1.353070e-02 -0.9999 0.9999 1.353070e-02 73.2505 91.1518)" class="st48" width="13.3" height="22.1"/>
	
		<rect id="e4hrmuigvk16166_1_" x="864.3" y="6.3" transform="matrix(0.8191 -0.5737 0.5737 0.8191 128.8891 507.0765)" class="st38" width="8.1" height="85.7"/>
	<circle id="e4hrmuigvk16167_1_" class="st47" cx="887" cy="76.3" r="9.9"/>
	<polygon id="e4hrmuigvk16170_1_" class="st38" points="829.4,124.9 810.6,121.4 812.2,113.8 825.2,115 831.4,106.5 827.2,97 
		816.2,94.8 808,105.4 802.2,100.3 812.3,86.5 832.9,88.5 841.4,107.7 	"/>
	<polygon id="e4hrmuigvk16176_1_" class="st38" points="829.4,124.9 810.6,121.4 812.2,113.8 825.2,115 831.4,106.5 827.2,97 
		832.9,88.5 841.4,107.7 	"/>
	
		<rect id="e4hrmuigvk16177_1_" x="833.2" y="84.9" transform="matrix(0.915 -0.4035 0.4035 0.915 37.0705 353.7057)" class="st38" width="49.2" height="7.9"/>
	
		<rect id="e4hrmuigvk16178_1_" x="840.1" y="83.7" transform="matrix(0.9079 -0.4191 0.4191 0.9079 38.6318 363.5421)" class="st48" width="13.3" height="20.3"/>
	
		<ellipse id="e4hrmuigvk16179_1_" transform="matrix(0.9021 -0.4315 0.4315 0.9021 40.5733 372.1435)" class="st48" cx="840.6" cy="96.6" rx="10" ry="10.2"/>
	<ellipse id="e4hrmuigvk16180_1_" class="st38" cx="835" cy="94.7" rx="1.6" ry="1.6"/>
	<ellipse id="e4hrmuigvk16181_1_" class="st38" cx="838.2" cy="101.4" rx="1.6" ry="1.6"/>
	
		<ellipse id="e4hrmuigvk16188_1_" transform="matrix(0.9999 -1.329273e-02 1.329273e-02 0.9999 -0.1214 11.2084)" class="st48" cx="843.1" cy="14.7" rx="11.1" ry="10"/>
	
		<rect id="e4hrmuigvk16187_1_" x="831.9" y="0.4" transform="matrix(0.9999 -1.353070e-02 1.353070e-02 0.9999 -1.835512e-02 11.4065)" class="st48" width="22.1" height="13.3"/>
</g>
<g id="smartphone">
	<g>
		<path class="st38" d="M760.3,410.6h-92.6c-12.1,0-22-9.9-22-22V169c0-12.1,9.9-22,22-22h92.6c12.1,0,22,9.9,22,22v219.6
			C782.3,400.7,772.4,410.6,760.3,410.6z"/>
		<path class="st41" d="M756.1,401.9h-84.2c-9.9,0-18-8.1-18-18V175.4c0-9.9,8.1-18,18-18h84.2c9.9,0,18,8.1,18,18v208.5
			C774.1,393.8,766,401.9,756.1,401.9z"/>
		<path class="st40" d="M748.4,325.6h-64.2c-6,0-11-4.9-11-11v-99.5c0-6.1,5-11,11-11h64.2c6.1,0,11,4.9,11,11v99.5
			C759.4,320.7,754.5,325.6,748.4,325.6z"/>
		<path class="st4" d="M748.7,257.6H712c-3.4,0-6.1-2.7-6.1-6.1v0c0-3.4,2.7-6.1,6.1-6.1h36.7c3.4,0,6.1,2.7,6.1,6.1v0
			C754.8,254.8,752.1,257.6,748.7,257.6z"/>
		<path class="st4" d="M733.7,277.1h-48c-3.4,0-6.1-2.7-6.1-6.1v0c0-3.4,2.7-6.1,6.1-6.1h48c3.4,0,6.1,2.7,6.1,6.1v0
			C739.8,274.3,737.1,277.1,733.7,277.1z"/>
		<path class="st38" d="M739.7,165.7h-48.6c-0.5,0-0.8-0.4-0.8-0.8v0c0-0.5,0.4-0.8,0.8-0.8h48.6c0.5,0,0.8,0.4,0.8,0.8v0
			C740.6,165.4,740.2,165.7,739.7,165.7z"/>
		<path class="st38" d="M746.7,286.5L746.7,286.5c3.4,0,6.1,2.7,6.1,6.1l0,0c0,3.4-2.7,6.1-6.1,6.1h0c-3.4,0-6.1-2.7-6.1-6.1l0,0
			C740.6,289.3,743.3,286.5,746.7,286.5z"/>
	</g>
</g>
<g id="Layer_8">
	<g>
		<path class="st49" d="M724.3,125.7c-0.1,1-0.2,2,0.3,2.9c0.5,0.9,1.6,1.5,2.5,1c0.5-0.3,0.8-0.8,1-1.3c1.4-2.8,2.8-5.6,4.3-8.4
			c1.2-2.3,2.4-4.7,2.2-7.3c-0.1-1.2-0.4-2.4-1.2-3.3c-0.6-0.8-2-2.2-2.9-1.2c-0.9,1-1.6,2.7-2.2,3.9c-1.4,2.8-2.4,5.7-3.1,8.7
			C724.8,122.3,724.5,124,724.3,125.7z"/>
		<path class="st50" d="M734.6,113.2c-0.1-1.3-0.5-2.6-1.3-3.7c-0.7-0.9-1.1-3.3-2.2-2.2c-1,1.1-2.9,3.8-3.5,5.1
			c-0.9,1.8-1.6,3.6-2.3,5.4l6.8,3.3C733.4,118.6,734.7,116,734.6,113.2z"/>
		<path class="st38" d="M724.5,125.5c0.7-0.8,1.9-1.1,3-1c1.1,0.1,2.1,0.6,3.1,1.1c1.8,0.9,3.6,1.7,5.4,2.6c1.9,0.9,3.7,1.8,5.6,2.7
			c0.3,0.1,0.6,0.3,0.7,0.6c0.1,0.3-0.1,0.7-0.4,0.9c-0.3,0.2-0.7,0.2-1,0.2c-2.8,0.1-5.6-0.1-8.3-0.8c-1.4-0.3-2.7-0.8-4-1.3
			c-1.1-0.4-2.7-0.9-3.6-1.8C724,127.9,723.7,126.4,724.5,125.5z"/>
		<path class="st51" d="M736.2,131.8c2.1-0.3,11.9-0.3,14,0c2.6,0.4,2.2,3.6,1.9,5.5c-0.4,2.1-0.8,4.4-2.3,5.8
			c-1.5,1.4-11.6,1.4-13.1,0c-1.5-1.5-2-3.7-2.3-5.8C734,135.4,733.6,132.2,736.2,131.8z"/>
		<path class="st51" d="M772.4,140.6c1.1,1.2,1.8,3.2,0.9,4.4c-0.8,1.1-23.1-1-26.4-1c-2.3-3-2.2-7.5,3.8-10.6
			c1.3-0.7,2.7,0,4.1,0.3C758.8,134.6,769.7,137.6,772.4,140.6z"/>
		<path class="st51" d="M724.3,119.4c-1.6-0.1-3.4,0.5-4.2,1.9c-0.6,1.2-0.5,2.6,0,3.8c0.5,1.2,1.4,2.2,2.3,3.2
			c12.7,14.2,12.9,14.9,15.1,15.4c3.6,1,8,0,4.8-8.3C741.8,134,728.3,119.7,724.3,119.4z"/>
		<path class="st49" d="M735.6,148.5c-0.8-0.5-2.5-2.7-4.5-5.6l3.7-1.3C736,145.9,736.5,149,735.6,148.5z"/>
		<path class="st51" d="M721,119.6c2.3-1.1,4.5-0.8,6.3,2.1c2.4,3.9,5.7,13.6,7.5,19.9l-4.3,1.9c-2.7-6.1-8-14.1-10-17.7
			C719.3,123.8,719.2,120.4,721,119.6z"/>
		<path class="st49" d="M746.8,144.4l1.8,3.4c-2.7,0.2-5,0.2-5.9-0.2C741.8,147.3,743.7,145.9,746.8,144.4z"/>
		<path class="st51" d="M768.6,140.6c3.4,0,5.1,1.8,5.1,3c0,2.1-1.3,4.4-4.6,4.4c-4.1,0-14.5-0.1-20.9,0.3l-1.5-3.8
			C751.5,142.2,763.6,140.6,768.6,140.6z"/>
		<path class="st52" d="M741.4,147.2c0.1-0.1,1.1-1.5,1.7-1.7c0.4-0.1,0.8-0.4,1.2-0.2c0.4,0.2,0.5,0.8,0.7,1.2
			c0.2,0.3,0.5,0.5,0.8,0.6l0.6-0.8c2.1,1,0.4,3.5,2.6,4.5c0.5,0.2,1.1,0.4,1.5,0.8c0.4,0.4,0.7,1,0.4,1.5c-0.1,0.2-0.3,0.3-0.5,0.4
			l-6.9-3.3c0,0,0-1.4,0.2-1.5c-0.2,0.1-0.8,0.3-1,0.4L741.4,147.2z"/>
		<path class="st52" d="M730.9,148.6c0-0.6,0.2-1,0.5-1.2c0.2-0.1,0.6-1.1,1.1-2.5c0.2-0.6,1.5-0.8,2.2,0.3c0.2,0.4,0.4,0.6,0.6,0.6
			c0.2,0,0.4-0.3,0.6-0.1c0.2,0.2,0.2,0.7,0.3,1.1c0.1,0.6,0.1,1.3,0.2,1.9c0,0.1,0,0.3,0,0.4h-5.4C731,149,730.9,148.8,730.9,148.6
			z"/>
		<path class="st49" d="M762.2,125.7c0.1,1,0.2,2-0.3,2.9c-0.5,0.9-1.6,1.5-2.5,1c-0.5-0.3-0.8-0.8-1-1.3c-1.4-2.8-2.8-5.6-4.3-8.4
			c-1.2-2.3-2.4-4.7-2.2-7.3c0.1-1.2,0.4-2.4,1.2-3.3c0.6-0.8,2-2.2,2.9-1.2c0.9,1,1.6,2.7,2.2,3.9c1.4,2.8,2.4,5.7,3.1,8.7
			C761.7,122.3,762,124,762.2,125.7z"/>
		<path class="st50" d="M751.9,113.2c0.1-1.3,0.5-2.6,1.3-3.7c0.7-0.9,1.1-3.3,2.2-2.2c1,1.1,2.9,3.8,3.5,5.1
			c0.9,1.8,1.6,3.6,2.3,5.4l-6.8,3.3C753,118.6,751.7,116,751.9,113.2z"/>
		<path class="st49" d="M761.8,126c-0.7-0.8-1.9-1.1-3-1c-1.1,0.1-2.1,0.6-3.1,1.1c-1.8,0.9-3.6,1.7-5.4,2.6
			c-1.9,0.9-3.7,1.8-5.6,2.7c-0.3,0.1-0.6,0.3-0.7,0.6c-0.1,0.3,0.1,0.7,0.4,0.9c0.3,0.2,0.7,0.2,1,0.2c2.8,0.1,5.6-0.1,8.3-0.8
			c1.4-0.3,2.7-0.8,4-1.3c1.1-0.4,2.7-0.9,3.6-1.8C762.3,128.4,762.5,126.9,761.8,126z"/>
		<path class="st50" d="M730.8,107.6c0.7-0.8,1.7-1.2,2.6-1.6c2.9-1.1,9.5-3.8,9.7-3.8c0.2,0,6.9,2.8,9.7,3.8c1,0.4,2,0.8,2.6,1.6
			c0.9,1.1,1,2.6,0.7,4c-0.3,1.4-1,2.6-1.6,3.8c-0.8,1.6-1.4,3.2-1.9,4.9c-0.9,3-1.3,6.2-1.3,9.3c0,1,0.5,2.6,0.2,3.5
			c-0.4,1.1-2.3,1.4-3.3,1.5c-1.7,0.2-3.4,0.3-5.1,0.2c-1.7,0.1-3.4,0-5.1-0.2c-1-0.1-3-0.4-3.3-1.5c-0.3-0.9,0.2-2.5,0.2-3.5
			c0-3.1-0.4-6.3-1.3-9.3c-0.5-1.7-1.1-3.3-1.9-4.9c-0.6-1.3-1.3-2.5-1.6-3.8C729.8,110.2,729.9,108.7,730.8,107.6z"/>
		<g>
			<path class="st53" d="M741.1,101.8c0.3-0.9,0.4-2.5,0.9-3.1c0.3-0.3,2-0.3,2.3,0c0.5,0.6,0.7,2.2,0.9,3.1c0.3,1,0.6,2.1,0.2,3.1
				c-0.2,0.7-0.7,1.1-1.2,1.2c-0.4,0.1-2,0.1-2.4,0c-0.5-0.1-0.9-0.5-1.2-1.2C740.5,104,740.8,102.8,741.1,101.8z"/>
			<path class="st49" d="M739.6,94.5c0.5-1.6,6.6-1.6,7.1,0c0.4,1.3,0.5,2.7,0.2,4c-0.2,1.2-0.7,2.4-1.4,3.3
				c-0.5,0.6-1.1,1.6-1.8,1.9h-1.1c-0.7-0.3-1.3-1.3-1.8-1.9c-0.7-0.9-1.2-2.1-1.4-3.3C739.1,97.2,739.2,95.8,739.6,94.5z"/>
			<path class="st52" d="M739.8,98.7c-0.1-0.4-0.2-0.7-0.3-1.1c-0.1-0.4-0.2-0.8,0.1-1.1c0.2,1.1,0.7,2.3,1.1,3.4
				c0.1,0.2,0.2,0.5,0.3,0.7c0.2,0.2,0.5,0.3,0.8,0.4c0.3,0.1,1.2-0.3,1.3-0.3c0.1,0,1,0.4,1.3,0.3c0.3-0.1,0.6-0.1,0.8-0.4
				c0.2-0.2,0.3-0.4,0.3-0.7c0.4-1.1,0.7-2.2,0.9-3.4c0.3,0.3,0.3,0.7,0.2,1.1s-0.2,0.7-0.3,1.1c0,0,0,0.1,0,0.1
				c0,0.2,0,0.5,0.1,0.7c0,0.1,0.1,0.2,0.1,0.3c0,0.1,0,0.2-0.1,0.3c-0.1,0.5-0.2,1-0.4,1.5c-0.2,0.5-0.4,0.9-0.7,1.4
				c-0.1,0.2-0.3,0.4-0.4,0.6c-0.1,0.1-0.4,0.6-0.5,0.6l-1.2,0.3h-0.5l-1.2-0.3c-0.1,0-0.4-0.5-0.5-0.6c-0.2-0.2-0.3-0.4-0.4-0.6
				c-0.3-0.4-0.5-0.9-0.7-1.4c-0.2-0.5-0.3-1-0.4-1.5c0-0.1-0.1-0.2-0.1-0.3c0-0.1,0.1-0.2,0.1-0.3C739.8,99.3,739.8,99,739.8,98.7
				C739.8,98.8,739.8,98.7,739.8,98.7z"/>
			<path class="st52" d="M737.3,91.3c0.7-1,2.1-1.4,3.2-0.9c0.5,0.2,0.9,0.5,1.3,0.6c0.6,0.1,1.1-0.1,1.7-0.3
				c0.5-0.2,1.1-0.4,1.7-0.4s1.1,0.6,1,1.2c0.8-0.3,1.7,0,2.2,0.6c0.5,0.7,0.6,1.7,0.3,2.4c-0.2,0.5-0.6,0.8-0.8,1.3
				c-0.2,0.6,0,1.9-0.6,2.2c-0.5,0.2-0.8-3.9-2.3-4c-0.8,0.8-2.1,1-3,0.5c-0.4-0.2-0.8-0.5-1.1-0.4c-0.3,0.1-0.6,0.2-0.8,0.4
				c-0.4,0.6-0.3,3.1-0.9,3.5c-0.3-0.9-0.4-1.9-0.4-2.8c-0.3,0-0.5,0-0.7-0.1c-0.7-0.3-1.2,0-1.3-0.7
				C736.6,93.7,736.8,91.9,737.3,91.3z"/>
			<path class="st49" d="M747.6,98.4c0.1-0.3,0.3-0.6,0.2-0.9c0-0.3-0.3-0.6-0.6-0.6c-0.2,0-0.3,0.2-0.4,0.3
				c-0.1,0.2-0.1,0.4-0.2,0.5c-0.1,0.3-0.1,0.7-0.2,1c-0.1,0.3-0.1,0.6,0.1,0.8C747,99.9,747.5,98.7,747.6,98.4z"/>
			<path class="st49" d="M738.7,98.4c-0.1-0.3-0.3-0.6-0.2-0.9c0-0.3,0.3-0.6,0.6-0.6c0.2,0,0.3,0.2,0.4,0.3
				c0.1,0.2,0.1,0.4,0.2,0.5c0.1,0.3,0.1,0.7,0.2,1c0.1,0.3,0.1,0.6-0.1,0.8C739.4,99.9,738.9,98.7,738.7,98.4z"/>
		</g>
		<path class="st48" d="M734.3,133.4h18.3c0.9,0,1.6-0.7,1.6-1.5l0.9-11.3c0.1-1-0.7-1.8-1.6-1.8h-20.2c-1,0-1.7,0.8-1.6,1.8
			l0.9,11.3C732.7,132.8,733.4,133.4,734.3,133.4z"/>
		<path class="st48" d="M755.1,121.1c-0.2-0.7-0.8-1.3-1.6-1.3h-20.2c-0.8,0-1.4,0.5-1.6,1.3l0-0.5c-0.1-1,0.7-1.8,1.6-1.8h20.2
			c1,0,1.7,0.8,1.6,1.8L755.1,121.1z"/>
	</g>
	<g>
		<path class="st49" d="M193,219.3c0,1.8,1.9,6.6,2.3,11.7c0.1,0.3,1.7,0.3,1.8,0c0.2-5.8,1.3-12.7,0.7-16.2
			c-0.2-1.2-2.3-3.2-3.2-1.9C193.7,214.3,193,217.8,193,219.3z"/>
		<path class="st50" d="M194.6,233.1c0-0.5-0.1-1,0.1-1.5c0.1-0.5,0.3-0.9,0.7-1.3c0.1,0.2,0.3,0.6,0.6,0.6c0.2,0,1.2-0.4,1.4-0.3
			c0.1,0,0.4,2,1,2.4c0.6,0.4,1.3,0.6,2,0.9c0.2,0.1,0.5,0.2,0.6,0.4c0.2,0.2,0.3,0.5,0.2,0.7c0,0,0,0,0,0.1h-4.4
			c-0.1-0.1-0.2-0.3-0.3-0.5c-0.3-0.6-0.6-1.1-0.9-1.7c-0.2,0.7-0.2,1.5-0.2,2.2h-0.5C194.7,234.4,194.6,233.7,194.6,233.1z"/>
		<path class="st49" d="M200.4,218.9c-0.2,1.8,0.8,6.7,0.5,11.8c0,0.3,1.6,0.5,1.8,0.2c1.1-5.7,3.3-12.4,3.3-15.9
			c0-1.2-1.8-3.4-2.9-2.1C201.8,214,200.6,217.4,200.4,218.9z"/>
		<path class="st50" d="M200.2,233.1c0-0.5-0.1-1,0.1-1.5c0.1-0.5,0.3-0.9,0.7-1.3c0.1,0.2,0.3,0.6,0.6,0.6c0.2,0,1.2-0.4,1.4-0.3
			c0.1,0,0.4,2,1,2.4c0.6,0.4,1.3,0.6,2,0.9c0.2,0.1,0.5,0.2,0.6,0.4c0.2,0.2,0.3,0.5,0.2,0.7c0,0,0,0,0,0.1h-4.4
			c-0.1-0.1-0.2-0.3-0.3-0.5c-0.3-0.6-0.6-1.1-0.9-1.7c-0.2,0.7-0.2,1.5-0.2,2.2h-0.5C200.2,234.4,200.2,233.7,200.2,233.1z"/>
		<path class="st50" d="M202.5,192.5c-3.3-5.3-9.5-3-11.1,0.2c-1,1.9-1.2,4.4-0.2,6.2c0.5,2.6,1,1.7,2.4,15.6c0.5,1.2,9,1,11.6,0.5
			c0.8-0.1,0.8-0.2,0.8-0.8C206.8,207.4,204.6,195.8,202.5,192.5z"/>
		<path class="st54" d="M202.1,187.4c0.5-1.1,0.6-2.8,1.1-3.9c0.8-1.7,1.6-2.4,1.6-3.8c0-2.2-2.5-2.9-3.9-5.5
			c-0.7-1.4-2-1.4-3.2-1.4c-1.2,0-2.5,3.2-2.5,4.6c0.1,2.7,1.7,4.7,1.3,7.4c-0.4,2.9-2,4.2-4.2,6.6l10.8,2.1
			C202.7,192.4,200.9,190.2,202.1,187.4z"/>
		<path class="st54" d="M195.9,177.6c0.1,1,0.4,1.9,0.7,2.9c0.9,2.5,2,4.9,3.5,7.1c0.2,0.4,0.5,0.7,0.9,1c0.4,0.2,0.9,0.3,1.3,0.1
			c0.6-0.3,0.6-1.1,0.6-1.8c-0.2-3-0.9-6-1.6-9c-0.2-1.1-0.5-2.2-1.3-3c-0.7-0.7-2.1-1-3.1-0.5C195.8,175,195.9,176.7,195.9,177.6z"
			/>
		<path class="st54" d="M209.5,183.5c0.4,0.1,0.4,0.7,0.2,1.1c-0.4,1.1-7,4.8-7.9,4.2c-0.5-0.3-1.5-1.4-1.4-2
			C200.4,186.1,209.3,183.5,209.5,183.5z"/>
		<path class="st49" d="M209.1,183.5c0.5-1.2,0.9-2.5,1.4-3c0.4-0.4,0.2,0.7,0.2,1.2c0.8-1.4,1.4-1.2,2.5-1.6
			c1.1-0.3-2.1,4.6-3.9,4.8L209.1,183.5z"/>
		<path class="st53" d="M197.7,168.3c0.2-0.4,2.3,0.7,2.4,1c0.1,0.3,0.3,3.1,0.7,4.9c0.1,0.4-3.8-0.8-3.5-1.3
			C197.8,172.1,198.2,169.2,197.7,168.3z"/>
		<path class="st49" d="M203.7,165.7c-0.7-3-4.8-2.3-5.7-2c-1,0.3-1,1.7-1.1,2.7c-0.1,0.6,0.2,1.2,0.5,1.7c0.4,0.5,1.9,1.2,2,1.2
			c0.6,1,1.5,2.1,2.4,2.1c0.4,0,0.8-0.3,1.1-0.6c0.2-0.3,0.4-0.8,0.5-1.2C203.8,168.3,204,166.9,203.7,165.7z"/>
		<path class="st4" d="M196.7,167.4c-0.4-0.4-0.6-0.9-0.7-1.5c-0.1-0.6,0.1-1.3,0.5-1.9c0.7-1,2.3-2.2,3.7-2.2
			c1.5,0,3.9,1.4,3.7,3.2c-0.1,0.5-0.4,0.5-0.9,0.7c-0.7,0.2-1.6,0.4-2.1,0.8c-0.7,0.5-0.4,1.8-1.7,2.2c-0.4,0.1-0.9,0.9-1.2,1.5
			C197.6,169.9,197,167.8,196.7,167.4z"/>
		<path class="st49" d="M198.5,167.6c-0.1,0.1-0.1,0.2-0.1,0.3c-0.1,0.3,0,0.6,0.2,0.9c0.2,0.3,0.4,0.4,0.7,0.5c0.1,0,0.3,0,0.4,0
			c0.4-0.2,0.2-1,0-1.3C199.4,167.6,198.8,167.3,198.5,167.6z"/>
		<path class="st4" d="M195.1,168.5c-0.6,0.5-0.9,1.3-0.8,2.1c0.1,0.7,0.5,1.4,0.5,2.1c0,0.6-0.3,1.1-0.6,1.7
			c-0.8,1.3-1.7,2.4-2.9,3.4c-0.1,0.1-0.3,0.2-0.2,0.4c0,0.2,0.3,0.3,0.5,0.3c0.8,0,1.5,0,2.3-0.1c0.7-0.2,1.5-0.5,2-1
			c0.6-0.6,0.9-1.4,1-2.3c0.1-0.8-0.1-1.7-0.4-2.5c-0.2-0.5-0.4-0.9-0.6-1.4c-0.1-0.5-0.1-1,0.1-1.4c0.2-0.4,0.6-0.6,0.9-0.9
			c0.1-0.2,0.3-0.5,0.3-0.7c0-0.3-0.4-0.2-0.6-0.2C196.1,167.9,195.6,168.1,195.1,168.5z"/>
		<path class="st50" d="M196.1,168.4c0.1,0.2,0.2,0.3,0.4,0.5c0.1,0.1,0.3,0.2,0.4,0.3c0.2,0.1,0.4,0.1,0.5,0
			c0.2-0.1,0.3-0.4,0.2-0.6c-0.1-0.4-0.4-1.1-0.8-1.1C196.4,167.5,195.9,167.9,196.1,168.4z"/>
		<g>
			<path class="st38" d="M233.7,213.9c-0.4,0.9-1,1.9-1.8,2.1c-0.6,0.2-2.2-0.9-2.5-1.3c-0.3-0.4,0.7-21.2,1.4-22.5
				c1-1.7,8.5,0.6,8.3,3.6c-0.3,3.8-1.4,7.8-2.7,11.5C235.7,209.5,234.8,211.8,233.7,213.9z"/>
			<path class="st53" d="M247.3,233.2c-0.8,0.1-1.7,0.1-2.5-0.2c0-1-0.1-2-0.1-2.9c0-0.1,0-0.3,0-0.4c0.1-0.2,0.3-0.2,0.4-0.2
				c0.7-0.1,1.7-0.2,1.8,0.7C247.1,231.2,247.2,232.2,247.3,233.2z"/>
			<path class="st53" d="M229.4,233.2c-0.8,0.1-1.7,0.1-2.5-0.2c0.2-1,0.4-2,0.5-2.9c0-0.1,0-0.3,0.1-0.4c0.1-0.2,0.3-0.2,0.5-0.2
				c0.7-0.1,1.7-0.2,1.6,0.7C229.7,231.2,229.5,232.2,229.4,233.2z"/>
			<path class="st38" d="M229.7,211.5c1.1-1.7,3.7-2.9,4.8,0.1c1.7,4.6-3.6,13.1-4.4,18.6h-2.8C227.1,229.7,229.1,212.5,229.7,211.5
				z"/>
			<path class="st52" d="M243.4,197.3c-0.7,0.5-1.6,0.6-2.5,0.6c-7,0-11.1-2.3-10.1-5.5c1-3.3,7.3-2.8,10.6-1.7
				c0.7,0.2,1.7,0.5,2.2,1.1C244.3,192.7,245.1,195.9,243.4,197.3z"/>
			<path class="st38" d="M222.5,180.2c-0.7,0.2-1.5,0.3-2-0.3c-0.3-0.3-0.4-0.7-0.3-1.1c0.1-0.4,0.2-0.8,0.5-1.1
				c1.6-2.8,8.8-7.8,11.8-9.5c1.3-0.8,0.9,6.1,0.4,6.9C232.4,175.8,225.7,179.4,222.5,180.2z"/>
			<path class="st38" d="M245.9,213.8c-0.1,0.9-1.3,2-2,2.2c-0.5,0.2-2.4-0.9-2.9-1.3c-0.5-0.4-5.5-17.9-5.2-19.1
				c0.4-1.7,1.9-2.8,3.4-3.1c2.3-0.4,4.7,0.4,5.6,3.3C247.1,202.7,244.3,207.9,245.9,213.8z"/>
			<path class="st55" d="M218,167.2c-0.3-0.4-0.7-0.8-1.1-0.8c-0.4,0-0.7,0.4-0.9,0.8c0,0.1,0.3,1.5,0.7,3l2.5-1
				C218.7,168.2,218.3,167.5,218,167.2z"/>
			<path class="st38" d="M219.2,169.2l-3,0.9c0.9,3.5,3.1,8.9,4.3,9.9c0.9,0.7,1.8,0.4,2.5-0.3C223.8,178.8,221,172.6,219.2,169.2z"
				/>
			<path class="st38" d="M240,211.5c0.5-1.7,3-3.1,4.8,0.1c2.9,5.1,2.2,12.7,2.4,18.6l-2.8,0C244.2,229.7,239.8,212.5,240,211.5z"/>
			<path class="st38" d="M230,170.9c-0.7,1.1-0.5,2.6-0.3,3.8c0.4,2.6,0.3,21.2,0.2,21.6c0,0.4,0.1,0.9,0.6,1.1
				c0.2,0.1,0.5,0.1,0.8,0.1c3.7,0,9.6,0,13.3-0.1c0.2,0,0.5,0,0.7-0.1c0.4-0.3,0.3-0.9,0.1-1.3c-1.1-3.1-1.6-11.2-0.6-14.3
				c1-3.1,2.1-6.9,1.6-10.1c-1.3-1.6-4-5.3-9.3-5.3C233.5,166.2,230.7,170,230,170.9z"/>
			<path class="st38" d="M244.4,169.6c-0.5-0.2-4.1,0.1-3.1,2.6c1.2,3.1,3.5,5.7,5.5,8.4c0.6,0.8,1.2,1.7,2,2.3
				c0.8,0.7,1.8,1.1,2.8,1c0.5,0,1.3-0.3,1.6-0.8c0.2-0.4-0.1-1.1-0.1-1.5C252.8,180.1,247.2,170.4,244.4,169.6z"/>
			<path class="st56" d="M249.1,179C249.1,179,249.1,179,249.1,179C249.1,179,249.1,179,249.1,179z"/>
			<path class="st55" d="M241.5,190.5c0,0.5,1,1,1.5,1.1c0.1,0,0.9-0.7,2-1.5l-1.6-1.7C242.6,189.4,241.6,190.4,241.5,190.5z"/>
			<path class="st39" d="M234.2,185.1c0.7-3.6,1.4-7.1,2.2-10.3c0.8-3,2.6-5.2,4.9-7.2c-1.9-1.5-5.2-1.6-6.8,0.3
				c-2,2.4-1.4,6.7-1.3,9.6C233.1,179.8,233.8,185.1,234.2,185.1z"/>
			<path class="st4" d="M236.4,169c0.3-0.4,0.6-0.8,0.5-1.2c-0.1-0.3-0.3-0.6-0.6-0.6c-1.1-0.2-0.6,1.1-0.4,1.6
				c-1.1,1.6-2.4,5-2.8,9.1c0.1,2.4,0.7,7.3,1.1,7.3c0.5-2.4,0.9-4.8,1.4-7.2C235.7,175.3,235.9,169.7,236.4,169z"/>
			<path class="st38" d="M253.3,182.4c-0.1-0.5-0.6-0.8-1.1-0.9c-0.8-0.3-1.8-0.5-2.6-0.3c-0.6,0.1-0.8,0.6-1.1,1.1
				c-0.8,1.1-4.1,4.9-5.7,6.9l1.8,2.2c2.6-1.8,7.4-6.4,8.2-7.5C253.1,183.5,253.5,182.9,253.3,182.4z"/>
			<path class="st57" d="M236.6,156.7c0.4-0.4,3.2-1.5,4.1,0.6c0.3,0.7,0.4,1.9,0.3,2.7c-0.2,1-1.2,4.3-0.5,4.7
				c-0.7,0.2-1.5,0-2-0.4c-0.6-0.4-0.9-1.1-0.9-1.9c0-0.8,0.4-1.6,0.2-2.4c-0.1-0.5-0.5-0.8-0.8-1.2c-0.3-0.3-0.7-0.6-0.8-1
				C236.1,157.5,236.3,157,236.6,156.7z"/>
			<path class="st57" d="M234,158c0-0.3,0.2-0.7,0.4-0.9c0.4-0.4,1.1-0.3,1.5-0.1c0.3,0.1,0.5,0.3,0.5,0.6c0,0.2-0.2,0.4-0.4,0.6
				c-0.4,0.4-1,0.9-1.6,1.1C233.8,159.5,233.9,158.4,234,158z"/>
			<path class="st53" d="M235.7,162.5c0.4-1.6,1.6-2,2.3-1.6c0.5,3,0.9,4.3,2.1,6c-1.5,0.9-4,0.8-4.5,0
				C235.5,166.6,235.5,163.3,235.7,162.5z"/>
			<path class="st49" d="M238.6,158.7c-0.7-1.6-2.9-2-4.2-0.6c-1.1,1.3-1.3,4.7-0.9,5.5c0.7,1.5,3.4,0.8,4,0.1
				C238.4,162.5,239.2,160.1,238.6,158.7z"/>
			<path class="st57" d="M234.2,158.4c0,0.4,0,0.8-0.1,1.1c-0.1,0.4-0.3,0.7-0.7,0.9c0.2-0.3,0.2-0.7,0.1-1c-0.1-0.3-0.2-0.7-0.3-1
				c-0.1-0.7,0.2-1.5,0.7-2.1c0.6-0.5,1.4-0.7,2.1-0.6c0.4,0.1,0.8,0.3,1,0.7c0.2,0.4,0.2,0.9-0.1,1.1c-0.3,0.2-0.6,0.3-1,0.2
				c-0.3-0.1-0.4-0.2-0.6-0.4C234.7,157,234.2,157.9,234.2,158.4z"/>
			<path class="st49" d="M239.8,161.7c-0.1,0.4-0.3,0.8-0.6,1c-1,0.7-1.3-0.7-0.9-1.4C238.6,160.5,240,160.7,239.8,161.7z"/>
			<path class="st57" d="M236.3,157.6c0,0.3,0.8,0.8,1,1c0.2,0.2,0.4,0.4,0.6,0.7c0.2,0.4,0.1,0.8,0,1.2c-0.1,0.4-0.2,0.8-0.3,1.2
				c0,0.4,0.1,0.8,0.4,1.1c-0.1-0.4,0-0.8,0.2-1.1c0.2-0.3,0.5-0.6,0.7-0.9c0.4-0.6,0.5-1.5,0.1-2.2c-0.2-0.5-0.8-1.3-1.3-1.5
				C237.5,156.8,236.3,156.9,236.3,157.6z"/>
			<path class="st50" d="M221.5,234.7c0-0.4,0.3-0.7,0.7-0.8c0.4-0.1,0.8,0,1.2,0c1.2,0,2.3-0.7,2.8-1.7c0.1-0.1,0.1-0.3,0.3-0.4
				c0.2-0.1,0.4,0,0.6,0.1c0.2,0.1,0.3,0.3,0.4,0.5c0.3,0.3,0.7,0.4,1,0.4c0.3,0,0.7-0.2,1-0.1c0.3,0.1,0.3,0.5,0.4,0.8
				c0.1,0.5,0.2,0.9,0.3,1.4c0,0.1,0,0.2,0.1,0.3h-2.2c-0.1-0.1-0.2-0.6-0.2-0.7c0,0.2-0.1,0.6-0.2,0.7h-6.1
				C221.6,234.9,221.6,234.8,221.5,234.7z"/>
			<path class="st50" d="M243.8,234.7c0-0.4,0.2-0.7,0.3-0.8c0.2-0.1,0.4-0.8,0.8-1.8c0.2-0.5,1.1-0.6,1.5,0.2
				c0.1,0.3,0.3,0.4,0.5,0.4c0.1,0,0.3-0.2,0.4-0.1c0.1,0.1,0.2,0.5,0.2,0.8c0.1,0.5,0.1,0.9,0.1,1.4c0,0.1,0,0.2,0,0.3h-3.8
				C243.8,234.9,243.8,234.8,243.8,234.7z"/>
			<path class="st39" d="M234.8,168.4c0.2-0.2,0.5-0.3,0.7-0.5c0.2-0.1,0.4-0.2,0.6-0.2c0.2,0,0.4,0.2,0.5,0.3
				c0.2,0.3,0.5,0.5,0.7,0.8c0.1,0.1,0.2,0.3,0.4,0.3c0.2,0,0.4-0.1,0.6-0.2c0.7-0.6,1.5-1.2,2.1-1.9c0.1-0.1,0.1-0.1,0.1-0.2
				c0-0.1,0-0.1-0.1-0.2c-0.3-0.4-0.6-0.7-0.9-1.1c-0.6,0.3-1.3,0.6-2,0.7c-0.6,0.1-1.1,0-1.6-0.2c-0.1,0-0.2-0.2-0.3-0.1
				c-0.1,0-0.1,0.3-0.1,0.4c-0.1,0.3-0.2,0.7-0.3,1C235,167.7,234.9,168,234.8,168.4z"/>
			<path class="st49" d="M240.8,192c-0.1,0.5-0.1,1,0.2,1.4c0.2,0.3,0.7,0.5,1.1,0.6c0.4,0.1,0.8,0,1.3-0.1c0.3-0.1,0.6-0.1,0.8-0.4
				c0.2-0.2,0.3-0.6,0-0.8c-0.3-0.2-0.7,0-1-0.2c-0.3-0.2-0.2-0.7-0.2-1c0-0.5-0.6-1.2-1.2-1.1C241.2,190.5,240.9,191.4,240.8,192z"
				/>
			<g>
				<path class="st49" d="M215.2,165.4c0.4-0.9,1.4-1.4,2.3-1.3c0.1-1-0.7-3.6,0.2-3.1c0.4,0.2,1,3.6,0.7,5.4
					c-0.1,0.6-0.3,1.2-0.8,1.6C216.1,169.4,214.7,166.6,215.2,165.4z"/>
				<g>
					<path class="st53" d="M216.9,168.3C216.8,168.3,216.8,168.3,216.9,168.3c-0.3-0.1-0.4-0.4-0.4-0.7c0-0.2,0.1-0.3,0.1-0.4
						c0-0.1,0-0.1,0.1-0.2c0.1-0.4,0-0.9-0.3-1.3c0,0,0-0.1-0.1-0.1c-0.1-0.1-0.1-0.1-0.2-0.2c-0.1-0.2-0.1-0.4,0-0.5
						c0.2-0.3,0.5-0.2,0.7-0.2c0.7,0.2,1.2,0.8,1.3,1.5c0,0.1,0,0.2-0.1,0.2c-0.1,0-0.2,0-0.2-0.1c-0.1-0.6-0.6-1.1-1.2-1.3
						c-0.1-0.1-0.3-0.1-0.4,0c0,0.1,0,0.2,0,0.2c0,0.1,0.1,0.1,0.2,0.2c0,0,0.1,0.1,0.1,0.1c0.4,0.4,0.5,1,0.4,1.6
						c0,0.1,0,0.2-0.1,0.2c0,0.1-0.1,0.2-0.1,0.4c0,0.2,0,0.3,0.2,0.4c0.1,0,0.1,0.1,0.1,0.2C217,168.2,216.9,168.3,216.9,168.3z"/>
				</g>
			</g>
			<g>
				<path class="st38" d="M236.5,192.4c-0.4,0-0.7-0.3-0.7-0.7c0-0.4,0.3-0.7,0.7-0.7s0.7,0.3,0.7,0.7
					C237.2,192.1,236.8,192.4,236.5,192.4z M236.5,191.3c-0.2,0-0.4,0.2-0.4,0.4c0,0.2,0.2,0.4,0.4,0.4c0.2,0,0.4-0.2,0.4-0.4
					C236.9,191.5,236.7,191.3,236.5,191.3z"/>
			</g>
		</g>
	</g>
	<g>
		<path class="st58" d="M115.6,229.8c0-0.4,0.3-0.7,0.7-0.8c0.4-0.1,0.8,0,1.1,0c1.1,0,2.2-0.7,2.7-1.6c0.1-0.1,0.1-0.3,0.3-0.4
			c0.2-0.1,0.4,0,0.6,0.1c0.2,0.1,0.3,0.3,0.4,0.4c0.3,0.3,0.6,0.4,1,0.4c0.3,0,0.6-0.2,0.9-0.1c0.3,0.1,0.3,0.5,0.4,0.7
			c0.1,0.4,0.2,0.9,0.3,1.3c0,0.1,0,0.2,0.1,0.3h-2.1c-0.1-0.1-0.2-0.5-0.2-0.7c0,0.2-0.1,0.6-0.2,0.7h-5.7
			C115.6,230.1,115.6,230,115.6,229.8z"/>
		<path class="st50" d="M124.8,206.2c-0.3,1-0.8,2.1-1.7,2.4c-0.6,0.2-2.6-1-3-1.5c-0.4-0.5-2.7-23.9-2.1-25.3
			c0.8-1.9,9.7,0.7,9.9,4c0.2,4.2-0.3,8.7-1.1,12.9C126.2,201.2,125.6,203.7,124.8,206.2z"/>
		<path class="st53" d="M140.2,225.3c-0.8,0.4-1.8,0.7-2.7,0.7c-0.3-1.1-0.6-2.1-0.9-3.2c0-0.1-0.1-0.3,0-0.4c0-0.2,0.2-0.3,0.4-0.4
			c0.7-0.4,1.8-0.8,2.1,0.1C139.5,223.2,139.8,224.3,140.2,225.3z"/>
		<path class="st53" d="M123,227.9c-0.9,0.1-1.9,0.1-2.8-0.2c0-1.1,0.1-2.2,0.1-3.3c0-0.1,0-0.3,0.1-0.4c0.1-0.2,0.3-0.2,0.5-0.3
			c0.8-0.1,1.9-0.2,2,0.8C123,225.6,123,226.7,123,227.9z"/>
		<path class="st50" d="M119.8,203.5c0.9-1.9,3.7-3.3,5.4,0.1c2.6,5.1-1.9,14.8-1.9,21h-3.2C119.9,223.9,119.3,204.6,119.8,203.5z"
			/>
		<path class="st50" d="M132,187.4c-0.8,0.6-1.8,0.7-2.8,0.7c-7.9,0-11.4-1.9-11.4-6.2c0-3.9,8.2-3.1,11.9-1.9
			c0.8,0.3,2,0.5,2.5,1.3C133,182.3,133.8,185.9,132,187.4z"/>
		<path class="st53" d="M121.1,161.8c-0.3,3.6-1,7.4-3,10.4c-0.4,0.7-1.1,1.3-1.9,1.2c-0.5,0-0.9-0.4-1.1-0.8
			c-0.2-0.4-0.4-0.8-0.4-1.3c-0.7-3.6,0.4-7.2,1.5-10.6c0.4-1.4,1-3.9,2.5-4.7c1.5-0.8,2.3,1.7,2.4,2.7
			C121.2,159.7,121.2,160.8,121.1,161.8z"/>
		<path class="st59" d="M121.3,156.6c-0.1-0.6-0.2-1.3-0.8-1.6c-0.6-0.3-1.2,0.1-1.7,0.5c-2.8,2.5-3.8,6-4.3,9.8l6.7,0.4
			C121.6,162.8,121.6,159.7,121.3,156.6z"/>
		<path class="st50" d="M131.3,206.2c-0.3,1-0.7,2.1-1.5,2.4c-0.6,0.2-1.9-2.3-2.3-2.8c-0.5-0.5-4.9-18.8-4.4-20.3
			c0.7-1.9,2.4-3.1,4.2-3.4c2.6-0.4,5.6,0.4,6,3.7c0.5,4.2,0.2,8.7-0.4,12.9C132.5,201.2,131.9,203.7,131.3,206.2z"/>
		<path class="st49" d="M112,171.6c-0.2,0.4,0,0.9,0.3,1.2c0.3,0.3,2.7,1.4,5,0.4c1.2-0.5,1.3-1.6,0.9-2.7
			C117.7,169.1,112.2,171.1,112,171.6z"/>
		<path class="st50" d="M126.8,204.2c0.1-2.1,2.4-4.5,5.1-1.7c4.4,4.5,5.7,13.2,7.5,19.6l-3,1.1C136,222.7,126.8,205.3,126.8,204.2z
			"/>
		<path class="st51" d="M133.6,169.9c1.1-3.5,2.4-7.8,1.8-11.4c-1.5-1.8-4.5-6-10.4-6c-4.2,0-7.3,4.2-8,5.3
			c-0.8,1.2-0.5,2.9-0.3,4.3c0.4,2.9,1.7,14.5,0.6,22.6h16.9C134,180.8,132.5,173.3,133.6,169.9z"/>
		<path class="st53" d="M137.4,165.6c-0.8-3.2-2.6-6.1-5.1-8.3c-0.4-0.4-1-0.8-1.6-0.6c-0.3,0.1-0.5,0.4-0.6,0.7
			c-0.1,0.3-0.1,0.6-0.1,1c0.2,3.8,0.8,7.5,1.5,11.2c0.2,1.1,0.4,2.3,0.9,3.3c0.5,1,1.3,2,2.4,2.4c0.6,0.2,1.5,0.3,2-0.1
			c0.4-0.3,0.5-1.2,0.6-1.6c0.4-1.7,0.5-3.4,0.4-5.2C137.9,167.6,137.7,166.6,137.4,165.6z"/>
		<path class="st51" d="M130,156.6c0-0.6,0.1-1.3,0.7-1.6c0.6-0.3,1.6,0.2,2.1,0.7c2.9,2.5,4.6,5.9,5.3,9.7l-7.4,0.4
			C130.1,162.8,129.9,159.7,130,156.6z"/>
		<g>
			<path class="st53" d="M123.3,148.3c0.4-1.8,1.8-2.2,2.6-1.8c0.5,3.4,1,4.9,2.3,6.7c-1.6,1.1-4.4,0.9-5.1,0
				C123.1,153,123.1,149.3,123.3,148.3z"/>
			<path class="st49" d="M123.4,144.1c-1.6-1.1-4-0.1-4.3,1.9c-0.3,1.9,1.6,5.2,2.5,5.7c1.6,0.9,3.7-1.3,3.8-2.4
				C125.5,147.8,124.7,145.1,123.4,144.1z"/>
			<path class="st57" d="M124.5,144.5c0.1-0.1,0.3-0.1,0.4,0c0.1,0.1,0.3,0.2,0.4,0.3c0.4,0.4,0.8,0.7,1.1,1.1
				c0.3,0.4,0.5,0.9,0.5,1.4c0,0.3-0.1,0.7,0,1c0.1,0.3,0.4,0.5,0.3,0.8c-0.1,0.2-0.3,0.3-0.5,0.3s-0.4-0.2-0.6-0.3
				c-0.1-0.2-0.2-0.4-0.4-0.6c-0.4-0.6-0.9-1.2-1.3-1.8c-0.4-0.6-0.6-1.5-0.3-2.1L124.5,144.5z"/>
			<path class="st57" d="M117,145.3c0.4-0.1,0.7-0.3,1.1-0.4c-0.2,0.2-0.3,0.4-0.4,0.7c-0.1,0.2,0,0.6,0.2,0.7
				c0.2,0.1,0.4,0.1,0.6,0c0.2-0.1,0.3-0.2,0.5-0.4c-0.1,0.1-0.1,0.3-0.1,0.4c0,0.2,0.1,0.3,0.3,0.3c0.1,0,0.2-0.1,0.3-0.1
				c0.5-0.4,1-0.8,1.4-1.1c0,0.1-0.1,0.3,0,0.5c0,0.2,0.1,0.3,0.3,0.4c0.2,0.1,0.5-0.1,0.7-0.3c0.2-0.2,0.3-0.5,0.6-0.5
				c0.3,0,0.5,0.2,0.7,0.5c0,0,0.1,0.1,0.1,0.1c0.3,0.4,0.7,0.9,1,1.3c0.1,0.1,0.2,0.3,0.3,0.4c0.1,0.1,0.3,0.1,0.5,0.1
				c0.3-0.1,3.2-4.4-0.5-5.7c-0.5-0.2-1.3,0-1.9,0.2c-0.5,0.2-1.1,0.4-1.6,0.5c-0.4,0.1-0.9,0-1.4,0.1
				C118.2,142.9,117,144,117,145.3z"/>
			<path class="st49" d="M126.2,146.3c0.2,0.4,0.2,0.9,0,1.3c-0.5,1.2-1.7,0.1-1.7-0.7C124.4,145.8,125.8,145.1,126.2,146.3z"/>
		</g>
		<path class="st58" d="M137,228.2c-0.2-0.4-0.1-0.8,0-1c0.1-0.2,0.2-1,0.2-2.2c0-0.5,0.9-1,1.7-0.4c0.3,0.2,0.5,0.3,0.6,0.3
			c0.1-0.1,0.2-0.4,0.4-0.3c0.2,0.1,0.4,0.5,0.5,0.8c0.2,0.5,0.4,0.9,0.7,1.4c0,0.1,0.1,0.2,0.1,0.3l-4.1,1.4
			C137.1,228.5,137,228.4,137,228.2z"/>
		<path class="st48" d="M125.4,176.6h-10.1c-0.6,0-1.2-0.5-1.4-1.1l-4.5-15.9c-0.2-0.6,0.2-1.1,0.8-1.1h10.1c0.6,0,1.2,0.5,1.4,1.1
			l4.5,15.9C126.3,176.1,126,176.6,125.4,176.6z"/>
		<path class="st38" d="M126.1,175.5l-4.5-15.9c-0.2-0.6-0.8-1.1-1.4-1.1h-1.1c0.6,0,1.2,0.5,1.4,1.1l4.5,15.9
			c0.2,0.6-0.2,1.1-0.8,1.1h1.1C126,176.6,126.3,176.1,126.1,175.5z"/>
		<path class="st49" d="M124.7,171.8c-0.5,0.3-0.6,1.1-0.3,1.6c0.3,0.5,8.9,2.6,10.9,2.6c0.6,0,1.4-0.1,1.7-0.6
			c0.3-0.5,0.2-1.1,0.1-1.6c-0.3-0.9-0.8-1.9-1.6-2.5C135,170.8,125,171.6,124.7,171.8z"/>
		<path class="st49" d="M121.6,170.3c-0.2-0.3-0.4-0.7-0.2-1c0.1-0.2,0.4-0.2,0.6-0.2c0.2,0.1,0.4,0.2,0.6,0.4
			c0.2,0.2,0.5,0.4,0.8,0.4s0.7-0.1,0.8-0.4c0.1-0.3-0.2-0.8,0.1-1c0.1-0.1,0.4-0.1,0.5,0c0.2,0.1,0.3,0.2,0.4,0.4
			c0.6,0.8,1.2,1.6,1.4,2.5c0.2,0.9,0,2.1-0.8,2.6c-0.7,0.5-1.7,0.4-2.4-0.1c-0.6-0.5-0.8-1.1-0.9-1.8
			C122.4,171.4,122.1,171,121.6,170.3z"/>
		<path class="st49" d="M111.5,169.5c0-0.1,0.1-1.8,0.2-1.9c0.2-0.1,0.8,1.9,0.6,2.1c0.4,0,0.6-0.1,1-0.1c0.3,0,0.7,0,0.8,0.3
			c0.1,0.2-0.1,0.5-0.3,0.7c-0.2,0.4,0.1,2.7-0.1,2.9c-0.7,0.7-2.2-0.5-2.5-1.2C111,171.2,111.1,170.4,111.5,169.5z"/>
	</g>
	<g>
		<path class="st51" d="M658.3,135.5c-4.1,0-8.5,1.1-12.5,2.4c-2.4,0.8-4.8,1.8-7.2,3c-0.9,0.5-2.1,1.6-2.4,2.7
			c-0.1,0.5-0.3,3.9,0.9,3.9h22.6C661.4,147.6,664.4,135.5,658.3,135.5z"/>
		<path class="st49" d="M642.1,143.5c-1.6-4.5-5.7-1.9-6.9,0.5c-0.7,1.4,0.6,28.4,0.3,29.7c1.1,0.4,2.3,0.5,3.5,0.3
			C639.2,172.5,644.6,150.7,642.1,143.5z"/>
		<path class="st51" d="M639.3,175.3c0.5,0,0.9-0.5,1-1c0.1-1.2,0.2-2.8-0.4-2.8c-0.5,0-1.1,0.4-1.5,0.7c-0.3,0.2-2.6-1.5-2.6-1.5
			c-2.3,0.1-1.6,3.2-5.1,3.8c-0.4,0.1-0.7,0.3-0.9,0.6c-0.3,0.5-0.1,0.9,0.1,1.2C634.4,178,637.2,175.5,639.3,175.3z"/>
		<g>
			<path class="st48" d="M660.3,119.3l-6.7,0.1c0.2,2.9,1.7,5.2,1.8,7c-0.7,1.1-9.3,7.9-9.4,8c-0.3,0.7,1,1.7,1.6,2.1
				c4-1.2,12.4-7.2,12.5-7.7C660.4,127.8,660.7,123.2,660.3,119.3z"/>
			<path class="st48" d="M657.8,108.7c-0.2-0.2-1-2.4-1.8-2c-3.5,2-3.6,8.2-3.3,12.6l8.1-0.1C660.3,114.9,659.4,110.2,657.8,108.7z"
				/>
			<path class="st48" d="M646.7,134.2c-0.5-0.5-1.1-0.8-1.8-0.8c-0.6,0-1.1,0.4-1.5,0.9s-0.6,1-0.8,1.6c-0.1,0.4-0.3,0.8-0.2,1.2
				c0.1,0.4,0.6,0.8,0.9,0.6c0.5-0.2,0.6-0.9,1-1.1c0.5-0.2,0.9,0.3,1.3,0.5c0.7,0.4,1.9,0.2,2.2-0.6
				C648.2,135.8,647.2,134.7,646.7,134.2z"/>
		</g>
		<path class="st48" d="M654.1,109c-1,1.5-0.5,5-0.2,6.8c0.5,3.7-0.3,22.3-0.4,22.9c-0.1,0.6,0.2,1.2,0.8,1.5
			c0.3,0.2,0.7,0.2,1.1,0.2c5.2,0,13.5-0.1,18.7-0.1c0.3,0,0.7,0,1-0.2c0.6-0.4,0.4-1.2,0.2-1.9c-1.5-4.3-2.2-8.7-0.9-13.1
			c1.4-4.3,2.8-9.5,1.9-14.1c-0.7-3.4-5.3-7.6-12.7-7.6C658.4,103.3,655.1,107.7,654.1,109z"/>
		<path class="st57" d="M653.6,137.4c-1.2,4.4,5.2,8.3,16.2,8.3c1.4,0,2.8-0.1,3.9-0.9c2.1-1.5,0.7-3.9-0.1-5.8L653.6,137.4z"/>
		<g>
			<path class="st57" d="M658.2,91.8c0.2-0.8,3-4,5.5-2.1c0.9,0.7,1.8,2.1,2.1,3.1c0.4,1.4,1.4,6.1,2.6,6.2c-0.7,0.7-1.8,1-2.8,0.8
				c-1-0.2-1.9-0.8-2.3-1.7c-0.5-1-0.5-2.3-1.3-3.1c-0.5-0.5-1.2-0.7-1.8-0.9c-0.5-0.2-1.3-0.2-1.7-0.7
				C658.1,93.1,658,92.4,658.2,91.8z"/>
			<path class="st57" d="M655.8,95.2c-0.2-0.5-0.3-1-0.1-1.4c0.3-0.7,1.1-1.1,1.9-1.1c0.4,0,0.9,0.1,1.1,0.4c0.2,0.3,0.1,0.7-0.1,1
				c-0.3,0.8-0.7,1.9-1.3,2.4C656.6,97.2,656,95.7,655.8,95.2z"/>
			<path class="st53" d="M661.6,98.1c0.5-2.3,2.2-2.8,3.2-2.2c0.6,4.2,1.3,6.1,2.9,8.4c-2.1,1.3-5.6,1.1-6.3,0
				C661.3,103.9,661.3,99.3,661.6,98.1z"/>
			<path class="st49" d="M662.1,93c-1.9-1.6-5-0.6-5.6,2c-0.6,2.4,1.5,6.6,2.6,7.4c1.9,1.3,4.8-1.3,5-2.6
				C664.4,97.8,663.7,94.3,662.1,93z"/>
			<path class="st57" d="M656.3,95.6c0.2,0.5,0.5,1,0.6,1.5c0.1,0.5,0.1,1.1-0.3,1.5c0-0.5-0.2-0.9-0.5-1.3c-0.3-0.4-0.7-0.7-1-1.1
				c-0.6-0.8-0.8-2-0.5-3s1.2-1.8,2.2-2.1c0.6-0.2,1.2-0.2,1.7,0.1c0.5,0.3,0.8,0.9,0.6,1.5c-0.2,0.4-0.6,0.8-1.1,0.9
				c-0.4,0.1-0.6-0.1-1-0.1C656.1,93.5,656.1,94.8,656.3,95.6z"/>
			<path class="st49" d="M665.5,95.9c0.2,0.5,0.1,1.2-0.1,1.7c-0.7,1.4-2.1,0-2.1-1.1C663.3,95.2,665,94.5,665.5,95.9z"/>
			<path class="st57" d="M658.4,93c0.2,0.4,1.6,0.4,2,0.6c0.4,0.1,0.9,0.2,1.2,0.4c0.5,0.3,0.7,0.9,0.8,1.4c0.1,0.5,0.2,1.1,0.4,1.6
				c0.2,0.5,0.7,1,1.2,1c-0.4-0.4-0.5-1-0.4-1.5c0.1-0.6,0.3-1.1,0.4-1.6c0.1-1.1-0.4-2.2-1.3-2.8c-0.6-0.4-2-1-2.7-0.9
				C659.4,91.3,658,92.2,658.4,93z"/>
		</g>
		<path class="st49" d="M678.8,119.3l-6.7,0.1c0.2,2.9,1.7,5.2,1.8,7c-0.7,1.1-9.3,7.9-9.4,8c-0.3,0.7,1,1.7,1.6,2.1
			c4-1.2,12.4-7.2,12.5-7.7C678.9,127.8,679.2,123.2,678.8,119.3z"/>
		<path class="st48" d="M675.8,108.8c-0.5-0.5-3.8-2.1-4.2,1.7c0,0-0.6,4.4-0.3,8.8l8.1-0.1C678.8,114.9,677.3,110.3,675.8,108.8z"
			/>
		<path class="st49" d="M665.2,134.2c-0.5-0.5-1.1-0.8-1.8-0.8c-0.6,0-1.1,0.4-1.5,0.9c-0.4,0.5-0.6,1-0.8,1.6
			c-0.1,0.4-0.3,0.8-0.2,1.2c0.1,0.4,0.6,0.8,0.9,0.6c0.5-0.2,0.6-0.9,1-1.1c0.5-0.2,0.9,0.3,1.3,0.5c0.7,0.4,1.9,0.2,2.2-0.6
			C666.7,135.8,665.7,134.7,665.2,134.2z"/>
		<path class="st51" d="M671.9,137.9c-4.1,0-8,0-12.5,0c-2.4,0.8-4.8,1.8-7.2,3c-0.9,0.5-2.1,1.6-2.4,2.7c-0.1,0.5-0.3,3.9,0.9,3.9
			h22.6C675,147.6,677.9,137.9,671.9,137.9z"/>
		<g>
			<path class="st49" d="M655.7,143.5c-1.6-4.5-5.7-1.9-6.9,0.5c-0.7,1.4,0.6,28.4,0.3,29.7c1.1,0.4,2.3,0.5,3.5,0.3
				C652.8,172.5,658.2,150.7,655.7,143.5z"/>
		</g>
		<path class="st51" d="M654.1,174.5c0.5-0.2,0.7-0.8,0.6-1.3c-0.3-1.1-0.8-2.7-1.3-2.5c-0.4,0.2-0.9,0.8-1.2,1.1
			c-0.2,0.3-2.9-0.6-2.9-0.6c-2.2,0.9-0.3,3.6-3.5,5.4c-0.3,0.2-0.6,0.5-0.6,0.9c-0.1,0.5,0.2,0.9,0.5,1.1
			C650.4,178.6,652.1,175.4,654.1,174.5z"/>
		<g>
			<path class="st38" d="M660.5,139.6c0.9,0,1.6-0.7,1.4-1.7l-2.2-15.3c-0.1-0.9-1-1.7-1.9-1.7h-20.5c-0.9,0-1.6,0.7-1.4,1.7
				l2.2,15.3c0.1,0.9,1,1.7,1.9,1.7H660.5z"/>
			<path class="st38" d="M671.2,137.3h-12v2.2h12c0.6,0,1.1-0.5,1.1-1.1l0,0C672.4,137.8,671.9,137.3,671.2,137.3z"/>
			<path class="st38" d="M659.2,139.6c0.9,0,1.6-0.7,1.4-1.7l-2.2-15.3c-0.1-0.9-1-1.7-1.9-1.7h-20.5c-0.9,0-1.6,0.7-1.4,1.7
				l2.2,15.3c0.1,0.9,1,1.7,1.9,1.7H659.2z"/>
		</g>
	</g>
	<g id="R3UQB9.tif" class="st0">
		
			<image style="display:inline;overflow:visible;" width="372" height="249" id="Layer_0_2_" xlink:href="9BFB908D67538EE5.png"  transform="matrix(1 0 0 1 15.4111 -237.7136)">
		</image>
	</g>
</g>
</svg>
