<?xml version="1.0" encoding="utf-8"?>
<!-- Generator: Adobe Illustrator 22.1.0, SVG Export Plug-In . SVG Version: 6.00 Build 0)  -->
<svg version="1.1" id="Layer_1" xmlns="http://www.w3.org/2000/svg" xmlns:xlink="http://www.w3.org/1999/xlink" x="0px" y="0px"
	 viewBox="0 0 720 350" style="enable-background:new 0 0 720 350;" xml:space="preserve">
<style type="text/css">
	.st0{fill:#ACAAC2;}
	.st1{fill:#9D9BAF;}
	.st2{fill:#F5F5FA;stroke:#ACA8C1;stroke-width:8;stroke-miterlimit:10;}
	.st3{fill:#44465A;}
	.st4{fill:#D7D7E3;}
	.st5{opacity:0.1;fill:#ACAAC2;enable-background:new    ;}
	.st6{fill:#41475A;}
	.st7{fill:#FFFFFF;}
	.st8{fill:#CCF49F;}
	.st9{fill:#95D6A4;}
	.st10{fill:#857E87;}
	.st11{fill:#FF8086;}
	.st12{fill:#FFA95F;}
	.st13{fill:#FFE07D;}
	.st14{fill:#E5646E;}
	.st15{fill:#DAD8DB;}
	.st16{fill:#ECEAEC;}
	.st17{fill:#5D5360;}
	.st18{fill:#78C2A4;}
	.st19{fill:#6F6571;}
	.st20{fill:#4B3F4E;}
	.st21{fill:#B3E59F;}
	.st22{fill:#484756;}
	.st23{fill:#F45982;}
	.st24{fill:#E4E1EF;}
	.st25{fill:#455A64;}
	.st26{fill:#060606;}
	.st27{fill:#F23A44;}
</style>
<g id="Layer_2_1_">
	<rect x="63.3" y="206.2" class="st0" width="154.3" height="137.3"/>
	<rect x="63.3" y="257.4" class="st1" width="154.3" height="18.6"/>
	<path class="st2" d="M682.3,250.8H165.5c-11.9,0-21.7-8.7-21.7-19.3v-8.8c0-10.6,9.8-19.3,21.7-19.3h516.8
		c11.9,0,21.7,8.7,21.7,19.3v8.8C704,242.1,694.2,250.8,682.3,250.8z"/>
	<polyline class="st3" points="231,255 254,255 254,138 231,117 	"/>
	<path class="st4" d="M230.2,257.4H50.6c-3.3,0-6-2.7-6-6V63.1c0-3.3,2.7-6,6-6h179.7c3.3,0,6,2.7,6,6v188.3
		C236.2,254.7,233.6,257.4,230.2,257.4z"/>
	<path class="st5" d="M49.5,256.4c-3.3,0-6-2.7-6-6V62.1c0-3.3,2.7-6,6-6h179.7c3.3,0,6,2.7,6,6L49.5,256.4z"/>
	<path class="st6" d="M200.6,313.5h-48.4c-1.7,0-3-1.4-3-3l0,0c0-1.7,1.4-3,3-3h48.4c1.7,0,3,1.4,3,3l0,0
		C203.6,312.2,202.2,313.5,200.6,313.5z"/>
	<path class="st6" d="M200.3,328.7H152c-1.7,0-3-1.4-3-3l0,0c0-1.7,1.4-3,3-3h48.4c1.7,0,3,1.4,3,3l0,0
		C203.3,327.4,202,328.7,200.3,328.7z"/>
	<path class="st6" d="M200.7,298.3h-48.4c-1.7,0-3-1.4-3-3l0,0c0-1.7,1.4-3,3-3h48.4c1.7,0,3,1.4,3,3l0,0
		C203.7,296.9,202.3,298.3,200.7,298.3z"/>
	<path class="st0" d="M230,119"/>
	<g>
		<path class="st7" d="M93.5,133.2c-1.4,0-2.5-1.1-2.5-2.5V74.1c0-1.4,1.1-2.5,2.5-2.5h95.3c1.4,0,2.5,1.1,2.5,2.5v56.6
			c0,1.4-1.1,2.5-2.5,2.5H93.5z"/>
		<path class="st3" d="M188.8,74.1v56.6H93.5V74.1H188.8 M188.8,69.1H93.5c-2.8,0-5,2.2-5,5v56.6c0,2.8,2.2,5,5,5h95.3
			c2.8,0,5-2.2,5-5V74.1C193.8,71.3,191.5,69.1,188.8,69.1L188.8,69.1z"/>
	</g>
	<g id="Layer_3">
		<path class="st8" d="M119.7,146.1c-0.7,0.4-1.4,0.9-2,1.5c-2.4,2.2-3.5,6.4-3,8.9l5,1.5l7.4-2.2L119.7,146.1z"/>
		<path class="st9" d="M120.4,165.8c-3.7-1.5-6-4.6-5.6-9.2h11l-3.2,7.6L120.4,165.8z"/>
		<path class="st10" d="M125.7,168.1c2.2,0,4.3-0.5,5.8-1.6l0.3-0.8l-1.1-4.3l-5-5l-5.3,9.2C121.2,167.2,123.5,168.1,125.7,168.1z"
			/>
		<path class="st11" d="M131.8,166.6c0,0,2-1.1,2.9-2.1c1.9-2.1,3.1-4.9,3.1-8l-3.9-1.5l-8.1,1.5c0,0,3.7,6.5,5.8,10L131.8,166.6z"
			/>
		<path class="st12" d="M131.7,146.1c3.6,2.1,6,5.9,6,10.4h-12l2.9-7.7L131.7,146.1z"/>
		<path class="st13" d="M125.7,144.5c-2.2,0-4.2,0.6-6,1.6l1.3,2.2l4.7,8.2l6-10.4C129.9,145.1,127.9,144.5,125.7,144.5L125.7,144.5
			z"/>
		<path class="st14" d="M134.6,164.5c-0.9,0.8-2,1.5-3.2,2c0.1,0.1,0.1,0.2,0.2,0.4C132.8,166.3,133.8,165.5,134.6,164.5
			L134.6,164.5z"/>
		<circle class="st15" cx="125.7" cy="156.5" r="8.1"/>
		<circle class="st16" cx="125.7" cy="156.5" r="7"/>
		<circle class="st7" cx="125.7" cy="156.5" r="2.3"/>
		<path class="st17" d="M123.8,158.8c-0.1,0-0.2,0-0.3-0.1c-0.2-0.2-0.2-0.4,0-0.5l8.9-8.9c0.2-0.2,0.4-0.2,0.5,0
			c0.2,0.2,0.2,0.4,0,0.5l-8.9,8.9C123.9,158.8,123.8,158.8,123.8,158.8z"/>
		<path class="st18" d="M119.7,166.9c0.2-0.3,0.4-0.7,0.7-1.1c-3.2-2-5.3-5.3-5.6-9.2h-1C113.7,161,116.1,164.8,119.7,166.9z"/>
		<circle class="st19" cx="125.7" cy="156.5" r="1.2"/>
		<circle class="st20" cx="125.7" cy="156.5" r="0.4"/>
		<path class="st21" d="M113.7,156.5h1c0-0.3,0-0.6,0-1c0-3,1.1-5.8,3-8C115.2,149.8,113.7,153,113.7,156.5z"/>
		<path class="st19" d="M120.4,165.8l-0.7,1.1c1.8,1,3.8,1.6,6,1.6s4.2-0.6,6-1.6l-0.2-0.4c-1.5,0.6-3.1,1-4.8,1
			C124.3,167.5,122.2,166.9,120.4,165.8L120.4,165.8z"/>
		<path class="st8" d="M147,145.9c-0.7,0.4-1.4,0.9-2,1.5c-2.4,2.2-3.5,6.4-3,8.9l5,1.5l7.4-2.2L147,145.9z"/>
		<path class="st9" d="M147.6,165.5c-3.7-1.5-6-4.6-5.6-9.2h11l-3.2,7.6L147.6,165.5z"/>
		<path class="st10" d="M153,167.9c2.2,0,4.3-0.5,5.8-1.6l0.3-0.8l-1.1-4.3l-5-5l-5.3,9.2C148.5,167,150.8,167.9,153,167.9z"/>
		<path class="st11" d="M159,166.3c0,0,2-1.1,2.9-2.1c1.9-2.1,3.1-4.9,3.1-8l-3.9-1.5l-8.1,1.5c0,0,3.7,6.5,5.8,10L159,166.3z"/>
		<path class="st12" d="M159,145.9c3.6,2.1,6,5.9,6,10.4h-12l2.9-7.7L159,145.9z"/>
		<path class="st13" d="M153,144.3c-2.2,0-4.2,0.6-6,1.6l1.3,2.2l4.7,8.2l6-10.4C157.2,144.9,155.2,144.3,153,144.3L153,144.3z"/>
		<path class="st14" d="M161.9,164.3c-0.9,0.8-2,1.5-3.2,2c0.1,0.1,0.1,0.2,0.2,0.4C160.1,166,161.1,165.2,161.9,164.3L161.9,164.3z
			"/>
		<circle class="st15" cx="153" cy="156.3" r="8.1"/>
		<circle class="st16" cx="153" cy="156.3" r="7"/>
		<circle class="st7" cx="153" cy="156.3" r="2.3"/>
		<path class="st17" d="M151,158.6c-0.1,0-0.2,0-0.3-0.1c-0.2-0.2-0.2-0.4,0-0.5l8.9-8.9c0.2-0.2,0.4-0.2,0.5,0
			c0.2,0.2,0.2,0.4,0,0.5l-8.9,8.9C151.2,158.6,151.1,158.6,151,158.6z"/>
		<path class="st18" d="M147,166.7c0.2-0.3,0.4-0.7,0.7-1.1c-3.2-2-5.3-5.3-5.6-9.2h-1C141,160.7,143.4,164.6,147,166.7z"/>
		<circle class="st19" cx="153" cy="156.3" r="1.2"/>
		<circle class="st20" cx="153" cy="156.3" r="0.4"/>
		<path class="st21" d="M141,156.3h1c0-0.3,0-0.6,0-1c0-3,1.1-5.8,3-8C142.5,149.6,141,152.7,141,156.3z"/>
		<path class="st19" d="M147.6,165.5l-0.7,1.1c1.8,1,3.8,1.6,6,1.6s4.2-0.6,6-1.6l-0.2-0.4c-1.5,0.6-3.1,1-4.8,1
			C151.6,167.3,149.5,166.6,147.6,165.5L147.6,165.5z"/>
	</g>
	<circle class="st0" cx="140.4" cy="185.7" r="9.9"/>
	<circle class="st0" cx="165.3" cy="185.7" r="9.9"/>
	<circle class="st0" cx="115.9" cy="185.7" r="9.9"/>
	
		<rect x="187.4" y="220.1" transform="matrix(0.5532 -0.833 0.833 0.5532 -96.6639 269.9281)" class="st22" width="31.8" height="9.9"/>
	<path class="st0" d="M221.2,228h-43c-0.6,0-1,0.4-1,1v27.4c0,0.6,0.4,1,1,1h43c0.6,0,1-0.4,1-1V229
		C222.2,228.5,221.7,228,221.2,228z"/>
	<circle class="st23" cx="213.5" cy="208.9" r="8.4"/>
	<path class="st24" d="M214.2,237.1h-29.6c-1.7,0-3-1.4-3-3l0,0c0-1.7,1.4-3,3-3h29.6c1.7,0,3,1.4,3,3l0,0
		C217.2,235.7,215.8,237.1,214.2,237.1z"/>
	<rect x="373" y="251.8" class="st3" width="9" height="84.2"/>
	<rect x="548" y="250.1" class="st3" width="9" height="84.2"/>
	<rect x="249" y="247.5" class="st3" width="381.5" height="7.5"/>
	<path class="st3" d="M391.1,345.2h-28c0-7.7,6.3-14,14-14S391.1,337.4,391.1,345.2z"/>
	<path class="st3" d="M567.2,345.2h-28c0-7.7,6.3-14,14-14S567.2,337.4,567.2,345.2z"/>
	<path class="st25" d="M334.1,230.2l-2.8-2.2c0.1-0.8,0.1-1.5,0-2.3l2.8-2.2c0.5-0.4,0.7-1.2,0.3-1.8l-2.9-5.1
		c-0.3-0.6-1.1-0.9-1.7-0.6l-3.3,1.3c-0.6-0.5-1.3-0.8-2-1.2l-0.5-3.5c-0.1-0.7-0.7-1.2-1.4-1.2h-5.9c-0.7,0-1.3,0.5-1.3,1.2
		l-0.5,3.5c-0.7,0.3-1.4,0.7-2,1.2l-3.3-1.3c-0.6-0.2-1.4,0-1.7,0.6l-2.9,5.1c-0.3,0.6-0.2,1.3,0.3,1.8l2.8,2.2
		c-0.1,0.8-0.1,1.5,0,2.3l-2.8,2.2c-0.5,0.4-0.7,1.2-0.3,1.8l2.9,5.1c0.3,0.6,1.1,0.9,1.7,0.6l3.3-1.3c0.6,0.5,1.3,0.8,2,1.2
		l0.5,3.5c0.1,0.7,0.7,1.2,1.3,1.2h5.9c0.7,0,1.3-0.5,1.4-1.2l0.5-3.5c0.7-0.3,1.4-0.7,2-1.2l3.3,1.3c0.6,0.2,1.4,0,1.7-0.6l2.9-5.1
		C334.8,231.4,334.6,230.6,334.1,230.2z M319.7,233.2c-3.5,0-6.4-2.9-6.4-6.4s2.9-6.4,6.4-6.4s6.4,2.9,6.4,6.4
		C326.1,230.4,323.2,233.2,319.7,233.2z"/>
	<path class="st25" d="M431.1,230.2l-2.8-2.2c0.1-0.8,0.1-1.5,0-2.3l2.8-2.2c0.5-0.4,0.7-1.2,0.3-1.8l-2.9-5.1
		c-0.3-0.6-1.1-0.9-1.7-0.6l-3.3,1.3c-0.6-0.5-1.3-0.8-2-1.2l-0.5-3.5c-0.1-0.7-0.7-1.2-1.4-1.2h-5.9c-0.7,0-1.3,0.5-1.3,1.2
		l-0.5,3.5c-0.7,0.3-1.4,0.7-2,1.2l-3.3-1.3c-0.6-0.2-1.4,0-1.7,0.6l-2.9,5.1c-0.3,0.6-0.2,1.3,0.3,1.8l2.8,2.2
		c-0.1,0.8-0.1,1.5,0,2.3l-2.8,2.2c-0.5,0.4-0.7,1.2-0.3,1.8l2.9,5.1c0.3,0.6,1.1,0.9,1.7,0.6l3.3-1.3c0.6,0.5,1.3,0.8,2,1.2
		l0.5,3.5c0.1,0.7,0.7,1.2,1.3,1.2h5.9c0.7,0,1.3-0.5,1.4-1.2l0.5-3.5c0.7-0.3,1.4-0.7,2-1.2l3.3,1.3c0.6,0.2,1.4,0,1.7-0.6l2.9-5.1
		C431.8,231.4,431.6,230.6,431.1,230.2z M416.7,233.2c-3.5,0-6.4-2.9-6.4-6.4s2.9-6.4,6.4-6.4s6.4,2.9,6.4,6.4
		C423.1,230.4,420.2,233.2,416.7,233.2z"/>
	<path class="st25" d="M522.5,230.2l-2.8-2.2c0.1-0.8,0.1-1.5,0-2.3l2.8-2.2c0.5-0.4,0.7-1.2,0.3-1.8l-2.9-5.1
		c-0.3-0.6-1.1-0.9-1.7-0.6l-3.3,1.3c-0.6-0.5-1.3-0.8-2-1.2l-0.5-3.5c-0.1-0.7-0.7-1.2-1.4-1.2h-5.9c-0.7,0-1.3,0.5-1.3,1.2
		l-0.5,3.5c-0.7,0.3-1.4,0.7-2,1.2L498,216c-0.6-0.2-1.4,0-1.7,0.6l-2.9,5.1c-0.3,0.6-0.2,1.3,0.3,1.8l2.8,2.2
		c-0.1,0.8-0.1,1.5,0,2.3l-2.8,2.2c-0.5,0.4-0.7,1.2-0.3,1.8l2.9,5.1c0.3,0.6,1.1,0.9,1.7,0.6l3.3-1.3c0.6,0.5,1.3,0.8,2,1.2
		l0.5,3.5c0.1,0.7,0.7,1.2,1.3,1.2h5.9c0.7,0,1.3-0.5,1.4-1.2l0.5-3.5c0.7-0.3,1.4-0.7,2-1.2l3.3,1.3c0.6,0.2,1.4,0,1.7-0.6l2.9-5.1
		C523.2,231.4,523,230.6,522.5,230.2z M508.1,233.2c-3.5,0-6.4-2.9-6.4-6.4s2.9-6.4,6.4-6.4s6.4,2.9,6.4,6.4
		C514.5,230.4,511.6,233.2,508.1,233.2z"/>
	<path class="st25" d="M610.4,230.2l-2.8-2.2c0.1-0.8,0.1-1.5,0-2.3l2.8-2.2c0.5-0.4,0.7-1.2,0.3-1.8l-2.9-5.1
		c-0.3-0.6-1.1-0.9-1.7-0.6l-3.3,1.3c-0.6-0.5-1.3-0.8-2-1.2l-0.5-3.5c-0.1-0.7-0.7-1.2-1.4-1.2H593c-0.7,0-1.3,0.5-1.3,1.2
		l-0.5,3.5c-0.7,0.3-1.4,0.7-2,1.2l-3.3-1.3c-0.6-0.2-1.4,0-1.7,0.6l-2.9,5.1c-0.3,0.6-0.2,1.3,0.3,1.8l2.8,2.2
		c-0.1,0.8-0.1,1.5,0,2.3l-2.8,2.2c-0.5,0.4-0.7,1.2-0.3,1.8l2.9,5.1c0.3,0.6,1.1,0.9,1.7,0.6l3.3-1.3c0.6,0.5,1.3,0.8,2,1.2
		l0.5,3.5c0.1,0.7,0.7,1.2,1.3,1.2h5.9c0.7,0,1.3-0.5,1.4-1.2l0.5-3.5c0.7-0.3,1.4-0.7,2-1.2l3.3,1.3c0.6,0.2,1.4,0,1.7-0.6l2.9-5.1
		C611.1,231.4,611,230.6,610.4,230.2z M596,233.2c-3.5,0-6.4-2.9-6.4-6.4s2.9-6.4,6.4-6.4s6.4,2.9,6.4,6.4
		C602.4,230.4,599.6,233.2,596,233.2z"/>
	<g>
		<path class="st26" d="M139.3,90.1c-0.1,0.4,0.1,0.7,0.4,0.9c2.9,2.3,5.8,4.6,8.7,7c0.4,0.4,0.8,0.4,1.3,0.2
			c1.6-0.4,2.9,0.1,3.9,1.3c1,1.3,1.2,2.7,0.4,4.1c-0.7,1.4-2,2.3-3.5,2c-1.2-0.2-1.8,0.4-2.5,0.9c-1.6,1.3-3.3,2.6-4.9,3.9
			c-0.5,0.4-1,0.6-1.6,0.5c-0.7-0.1-1.3-0.5-1.5-1.2c-0.2-0.8-0.1-1.4,0.6-2c1.4-1.2,2.9-2.3,4.4-3.5c0.4-0.3,0.8-0.7,1.2-1
			c0.6-0.4,0.8-0.8,0.7-1.5c0-0.3-0.1-0.6-0.4-0.8c-3-2.4-6.1-4.8-9.1-7.2c-0.3-0.2-0.6-0.3-1-0.2c-2.1,0.6-4.2-0.7-4.7-2.9
			c-0.5-2,0.9-4,2.9-4.5C137.1,85.7,139.3,87.5,139.3,90.1z"/>
		<path class="st27" d="M135.5,110.4c2.1,0,3.9,1.7,3.8,3.9c0,2.1-1.8,3.8-3.8,3.8c-2.1,0-3.8-1.8-3.8-3.9
			C131.6,112.1,133.3,110.4,135.5,110.4z"/>
	</g>
</g>
<g id="Layer_1_1_">
</g>
</svg>
