<?xml version="1.0" encoding="utf-8"?>
<!-- Generator: Adobe Illustrator 22.1.0, SVG Export Plug-In . SVG Version: 6.00 Build 0)  -->
<svg version="1.1" id="_x32_71e5882-3c8d-41ed-8a0a-1cb2b4d0cbc1"
	 xmlns="http://www.w3.org/2000/svg" xmlns:xlink="http://www.w3.org/1999/xlink" x="0px" y="0px" viewBox="0 0 1137.7 859.7"
	 style="enable-background:new 0 0 1137.7 859.7;" xml:space="preserve">
<style type="text/css">
	.st0{opacity:0.1;fill:#E20817;enable-background:new    ;}
	.st1{opacity:0.1;enable-background:new    ;}
	.st2{fill:#FFB9B9;}
	.st3{fill:#D0CDE1;}
	.st4{fill:#E0E0E0;}
	.st5{fill:#2F2E41;}
	.st6{fill:#E20817;}
	.st7{fill:#332326;}
	.st8{fill:#C9C9C9;}
	.st9{fill:#A0616A;}
	.st10{fill:#060606;}
	.st11{fill:#F23A44;}
</style>
<circle class="st0" cx="601.4" cy="410.4" r="320.5"/>
<title>team spirit</title>
<polygon class="st1" points="712,484 798.4,397.9 712,311.8 738.3,285.5 851,397.9 738.3,510.2 "/>
<polygon class="st1" points="466.1,483.1 379.6,397 466,310.9 439.7,284.7 327.1,397 439.7,509.3 "/>
<path class="st2" d="M840.1,374.7c0,0-27-20.5-29.1-13s19.8,24.6,19.8,24.6L840.1,374.7z"/>
<path class="st1" d="M840.1,374.7c0,0-27-20.5-29.1-13s19.8,24.6,19.8,24.6L840.1,374.7z"/>
<path class="st3" d="M929.3,309.7c0,0-32.1,57.4-32.8,65.6s-0.7,8.9-3.4,8.2c-2.7-0.7-40.3-4.8-43.8-3.4c-3.4,1.4-10.3-8.2-10.3-8.2
	s-13,13-10.3,15.7s10.9,4.1,12.3,7.5c1.4,3.4,3.4,6.8,9.6,6.2c6.2-0.7,47.9,10.9,53.3,8.9c5.5-2.1,6.8-5.5,9.6-5.5
	c2.7,0,8.2-2.7,8.2-3.4c0-0.7,19.1-36.9,19.1-36.9S963.5,315.2,929.3,309.7z"/>
<path class="st4" d="M929.3,309.7c0,0-32.1,57.4-32.8,65.6s-0.7,8.9-3.4,8.2c-2.7-0.7-40.3-4.8-43.8-3.4c-3.4,1.4-10.3-8.2-10.3-8.2
	s-13,13-10.3,15.7s10.9,4.1,12.3,7.5c1.4,3.4,3.4,6.8,9.6,6.2c6.2-0.7,47.9,10.9,53.3,8.9c5.5-2.1,6.8-5.5,9.6-5.5
	c2.7,0,8.2-2.7,8.2-3.4c0-0.7,19.1-36.9,19.1-36.9S963.5,315.2,929.3,309.7z"/>
<path class="st5" d="M882.7,271.8c-0.3,3.6-0.2,7.3,0.2,10.9c1,7.9,4.7,16,1.2,23.4c-1.2,2.7-3.3,5-4.5,7.7
	c-2.4,5.7-0.2,12-0.6,18.1c-0.4,7.8-5.4,15.4-13,19.7c13,0.4,25.3-6,33.4-14.7c8.2-8.7,12.7-19.6,16.1-30.4
	c1.7-5.1,2.9-10.4,3.3-15.7c0.3-3.1-0.1-6.2-1.1-9.1c-1.2-2.9-2.8-5.6-4.7-8c-2-2.9-4.1-5.8-7.2-7.9c-3.7-2.6-10.9-5.3-15.8-4.9
	C884.2,261.2,882.9,267.7,882.7,271.8z"/>
<path class="st2" d="M902.6,293.3c0,0,7.5,26.7,1.4,34.2c-6.2,7.5,36.9-3.4,36.9-3.4s-21.2-21.2-10.9-34.9L902.6,293.3z"/>
<path class="st1" d="M902.6,293.3c0,0,7.5,26.7,1.4,34.2c-6.2,7.5,36.9-3.4,36.9-3.4s-21.2-21.2-10.9-34.9L902.6,293.3z"/>
<polygon class="st6" points="712,467.3 798.4,381.2 712,295.1 738.3,268.9 851,381.2 738.3,493.5 "/>
<polygon class="st2" points="878,648.8 878,668.6 888.3,680.9 897.1,676.8 894.4,648.1 "/>
<path class="st7" d="M882.1,667.3c0,0-2.7-9.6-7.5-2.7s-9.6,21.9-12.3,22.6c-2.7,0.7-21.9,21.9-2.7,21.9c19.1,0,25.3-8.9,25.3-8.9
	s19.1-7.5,19.1-8.9s-2.7-26.7-4.1-26.7c-1.4,0-2.1,4.8-5.5,4.8S882.1,667.3,882.1,667.3z"/>
<polygon class="st2" points="923.8,652.2 923.1,670.7 939.5,677.5 939.5,650.9 "/>
<path class="st7" d="M941.6,670.7c0,0-8.9-9.6-13.7-7.5c-2.4,1-4.7,2.1-6.8,3.4c0,0-2.7,8.9-4.1,16.4c-1.4,7.5-2.1,10.9-3.4,13.7
	c-1.4,2.7-2.7,13,10.9,14.4c13.7,1.4,17.8-6.2,17.8-6.2l3.4-17.8C945.7,687.1,944.3,670.7,941.6,670.7z"/>
<path class="st5" d="M886.9,455.3c0,0-19.8,44.4-17.1,84.8c0,0-6.8,15.7-2.7,40.3s9.6,73.8,9.6,73.8s18.5,2.1,19.8-1.4
	c0,0,1.4-34.2,2.7-35.6c1.4-1.4-0.7-32.8-2.7-39c-2.1-6.2,19.1-67,19.1-67l-5.5-75.9L886.9,455.3z"/>
<path class="st1" d="M886.9,455.3c0,0-19.8,44.4-17.1,84.8c0,0-6.8,15.7-2.7,40.3s9.6,73.8,9.6,73.8s18.5,2.1,19.8-1.4
	c0,0,1.4-34.2,2.7-35.6c1.4-1.4-0.7-32.8-2.7-39c-2.1-6.2,19.1-67,19.1-67l-5.5-75.9L886.9,455.3z"/>
<path class="st5" d="M881.4,452.6l13,28c0,0,6.2,63.6,9.6,71.8c0,0,1.4,23.2,7.5,30.8c6.2,7.5,10.9,73.8,10.9,73.8s17.1,4.8,18.5,0
	s5.5-37.6,5.5-37.6s1.4-28-6.2-46.5s8.9-84.8,8.9-84.8s17.1-32.1-7.5-58.1L881.4,452.6z"/>
<circle class="st2" cx="917.6" cy="273.5" r="28"/>
<path class="st4" d="M943.6,315.9c0,0-29.4,0-33.5,3.4c-2.1,2-5.4,2-7.5,0c0,0-10.3,0.7-13,8.9c-2.7,8.2-10.9,19.1-10.9,19.1
	s-12.3,8.9-5.5,32.1s1.4,60.8,1.4,60.8s-5.5,8.2,0,11.6s7.5,4.8,6.8,7.5s62.2-22.6,62.2-27.3c0-4.8-1.4-8.9,0-10.9
	c1.4-2.1,2.7-5.5,1.4-8.9c-1.4-3.4,1.4-4.1,0.7-7.5s3.4-28.7,6.2-39.7C954.6,354.1,953.9,316.5,943.6,315.9z"/>
<path class="st2" d="M840.1,382.9c0,0-27-20.5-29.1-13s19.8,24.6,19.8,24.6L840.1,382.9z"/>
<path class="st8" d="M929.3,319.3c0,0-32.1,57.4-32.8,65.6s-0.7,8.9-3.4,8.2c-2.7-0.7-40.3-4.8-43.8-3.4c-3.4,1.4-10.3-8.2-10.3-8.2
	s-13,13-10.3,15.7s10.9,4.1,12.3,7.5c1.4,3.4,3.4,6.8,9.6,6.2c6.2-0.7,47.9,10.9,53.3,8.9c5.5-2.1,6.8-5.5,9.6-5.5
	c2.7,0,8.2-2.7,8.2-3.4c0-0.7,19.1-36.9,19.1-36.9S963.5,324.7,929.3,319.3z"/>
<path class="st5" d="M903.8,291.4c-0.4-2.8-1.8-5.3-2.5-8c-1.2-4.4-0.5-9,1.9-12.9c4-6.5,11.9-9.4,17.4-14.7c0.1,2.7,2,5,4.1,6.7
	s4.4,3.1,6.2,5.2c1.7,2.2,2.9,4.7,3.6,7.3c1.1,3.1,1.6,6.3,1.4,9.6c-0.2,3.3-1.7,6.4-4.2,8.5c-2.1,1.6-4.9,2.5-5.9,5
	c-0.4,1.2-0.5,2.5-0.3,3.7c0.5,7.5,0.9,15.2-0.9,22.5c-1.8,7.3-6.1,14.4-12.9,17.6c5.6,0.4,11.3,0.8,16.7-0.6s10.6-5,12.5-10.2
	c0.9-2.6,1-5.5,2.3-7.9c3.3-6.2,12.5-6.4,17-11.8c1.8-2.1,2.7-4.9,3.3-7.6c3.8-16,1.1-33.1-4.7-48.5c-2-5.3-4.5-10.7-8.7-14.4
	c-3.6-3.2-8.3-4.9-12.9-6.4c-6.7-2.2-13.6-4-20.7-4.2c-3.1-0.2-6.1,0.2-9.1,1.1c-2.9,1-5.6,2.6-8,4.5c-11,8.6-18.6,22.3-17.6,36.3
	c0.6,8.4,4.2,16.4,8.8,23.5c1.6,2.5,5.4,7.8,8.9,6.2C902.8,300.5,904.2,294.4,903.8,291.4z"/>
<ellipse class="st5" cx="309.7" cy="224.6" rx="29.5" ry="23"/>
<path class="st9" d="M314.7,383.2c0,0,26.6,1.8,31.3-1.8c4.7-3.5,24.8,4.7,26.6,9.5c1.8,4.7-28.4,5.3-33.1,5.3s-27.2,7.1-27.2,7.1
	L314.7,383.2z"/>
<path class="st5" d="M260,658.4c0,0-12.4,31.2-5.9,35s74.3,1.1,74.3,1.1s11.3-7-1.6-11.9c0,0-10.8-0.5-17.8-4.8
	s-15.1-12.4-15.1-12.4s-0.5-11.9-4.8-9.2c-2.6,1.7-4.4,4.5-4.8,7.5L260,658.4z"/>
<path class="st7" d="M260,658.4c0,0-12.4,31.2-5.9,35s74.3,1.1,74.3,1.1s11.3-7-1.6-11.9c0,0-10.8-0.5-17.8-4.8
	s-15.1-12.4-15.1-12.4s-0.5-11.9-4.8-9.2c-2.6,1.7-4.4,4.5-4.8,7.5L260,658.4z"/>
<polygon class="st6" points="466.1,466.4 379.6,380.3 466,294.2 439.7,268 327.1,380.3 439.7,492.6 "/>
<path class="st7" d="M240.9,667.9c0,0-13.6,34.3-6.5,38.4c7.1,4.1,81.5,1.2,81.5,1.2s12.4-7.7-1.8-13c0,0-11.8-0.6-19.5-5.3
	s-16.5-13.6-16.5-13.6s-0.6-13-5.3-10c-2.9,1.9-4.8,4.9-5.3,8.3L240.9,667.9z"/>
<path class="st5" d="M310.6,450.5l-8.3,74.4c0,0-3,35.4-11.8,43.1c0,0,0,11.2-3,14.8l-4.1,46.7c0,0,5.9,17.1,5.3,20.1
	s2.4,12.4,1.8,13.6c-0.6,1.2-28.4,0-28.4,0l5.9-95.1l18.3-132.3L310.6,450.5z"/>
<path class="st1" d="M310.6,450.5l-8.3,74.4c0,0-3,35.4-11.8,43.1c0,0,0,11.2-3,14.8l-4.1,46.7c0,0,5.9,17.1,5.3,20.1
	s2.4,12.4,1.8,13.6c-0.6,1.2-28.4,0-28.4,0l5.9-95.1l18.3-132.3L310.6,450.5z"/>
<path class="st5" d="M295.8,448.2c0,0-6.5,60.8-9.5,73.8c-1.9,8.6-3,17.3-3.5,26c0,0-0.6,18.9-5.9,24.2c-3.1,3.1-4.9,7.4-4.7,11.8
	c0,0-5.3,59.7-2.4,66.8s5.9,13,3,17.7s-35.4,4.7-35.4,1.2s0-6.5-1.8-8.3s0-13,0-13s-7.1-52.6-0.6-67.9c6.5-15.4,9.5-57.3,9.5-57.3
	s-4.7-47.9-10.6-55.5s1.2-34.9,1.2-34.9L295.8,448.2z"/>
<path class="st9" d="M279.2,259.2c0.7,1.6,2.3,2.4,3.8,3.3c8.7,4.8,15.9,11.7,23.1,18.6c-1.8-6-1.4-12.5,1.1-18.3
	c0.9-2,2-4.1,1.4-6.2c-0.4-1.5-1.7-2.6-3-3.6c-2.9-2.3-6-4.3-9.1-6.2c-2.2-1.3-6.8-4.8-9.3-4.5c-0.1,3.4-0.2,6.5-1.7,9.7
	C285,252.7,279.4,259.8,279.2,259.2z"/>
<circle class="st9" cx="309.4" cy="242.6" r="24.2"/>
<path class="st4" d="M310.6,299.9c0,0,4.1-20.7-7.7-27.8c-11.8-7.1-25.4-15.4-25.4-15.4s-4.1-0.6-5.9,8.3c0,0-33.7,6.5-37.2,38.4
	s2.4,78.6,2.4,78.6s-5.3,40.8-11.8,62.6c0,0-5.3,4.7,18.3-2.4s65,20.1,65,20.1s4.1-4.1,4.1-7.1s4.7-20.1,4.7-20.1s4.1-72.7,5.9-80.9
	S315.9,301.1,310.6,299.9z"/>
<path class="st5" d="M303.7,245.1c1.5-0.8,3.1-1.2,4.8-1.3c1.7,0,3.3-0.5,4.7-1.4c2.3-1.8,2.5-5.2,4.1-7.5c2.4-3.4,7.3-3.8,11.4-3.6
	c2.6,0.1,5.3,0.3,7.4-1.1c2.2-1.4,3.2-4.1,4-6.6c0.9-3,1.4-6.6-0.7-8.8c-1.5-1.5-3.9-1.8-5.6-3.2s-2.5-3.7-3.4-5.7
	c-1.1-2.5-2.8-4.6-4.9-6.2c-3.2-2.2-7.2-2.7-11.1-2.7s-7.7,0.5-11.6,0.1c-3.1-0.4-6.3-1.4-9.4-1c-4,0.6-7.3,3.6-9.3,7.1
	s-2.8,7.5-3.6,11.5l-2.2,10.7c-0.7,3.3-1.4,6.8-0.9,10.1c1.1,7,7.3,12.5,7.7,19.5c0.8-3.9,3.6-7.2,7.3-8.7c0.5-0.2,1-0.3,1.5-0.2
	c0.6,0.2,1,0.8,1.4,1.3c1,1.3,4.2,3.4,6,2.4C302.9,249.1,301.7,246.5,303.7,245.1z"/>
<path class="st9" d="M242.6,355.4c0,0-4.1,26,13,23.6c0,0,8.9-1.2,10,0c1.2,1.2,44.9-6.5,50.8-13c0,0,7.1-2.4,10.6,1.2
	c3.5,3.5,39,7.1,28.4-3.5s-27.2-13-27.2-13l-22.4,1.2c0,0-11.8,3.5-18.9,0s-27.2-2.4-27.2-2.4L242.6,355.4z"/>
<path class="st4" d="M266.9,273.3c0,0-26.6,3-26.6,41.4v49c0,0,14.8-6.5,17.7-5.9c3,0.6,14.8-7.7,14.8-7.7s13.6-31.9,12.4-40.8
	S284.6,274.5,266.9,273.3z"/>
<ellipse class="st5" cx="309.4" cy="227.5" rx="22.7" ry="11.8"/>
<ellipse class="st5" cx="288.1" cy="229.6" rx="8" ry="19.8"/>
<rect x="435.6" y="372.5" transform="matrix(0.474 -0.8805 0.8805 0.474 -30.1034 726.2559)" class="st6" width="314.4" height="31.6"/>
<rect x="444.1" y="374.1" transform="matrix(0.474 -0.8805 0.8805 0.474 -27.0185 734.5725)" class="st1" width="314.4" height="31.6"/>
<g>
	<path class="st10" d="M930.8,349c-0.1,0.2,0,0.5,0.2,0.6c1.6,1.7,3.2,3.5,4.8,5.2c0.2,0.3,0.5,0.3,0.8,0.3c1-0.1,1.8,0.4,2.3,1.2
		c0.5,0.9,0.5,1.8-0.1,2.6c-0.6,0.8-1.5,1.2-2.4,0.9c-0.7-0.3-1.2,0.1-1.7,0.3c-1.1,0.6-2.3,1.3-3.5,1.9c-0.4,0.2-0.7,0.3-1.1,0.2
		c-0.5-0.1-0.7-0.5-0.8-0.9c0-0.5,0.1-0.9,0.6-1.2c1-0.6,2-1.1,3.2-1.7c0.3-0.2,0.6-0.4,0.8-0.5c0.4-0.2,0.6-0.4,0.6-0.8
		c0-0.2,0-0.4-0.2-0.6c-1.6-1.8-3.4-3.6-5-5.4c-0.2-0.2-0.4-0.3-0.6-0.2c-1.4,0.2-2.6-0.9-2.7-2.2c-0.1-1.3,1-2.4,2.3-2.5
		C929.8,346.2,931,347.5,930.8,349z"/>
	<path class="st11" d="M926.3,361.1c1.3,0.2,2.3,1.4,2,2.8c-0.2,1.3-1.5,2.1-2.8,1.9c-1.3-0.2-2.2-1.5-2-2.8
		C923.7,361.8,924.9,360.9,926.3,361.1z"/>
</g>
</svg>
