<?xml version="1.0" encoding="utf-8"?>
<!-- Generator: Adobe Illustrator 22.1.0, SVG Export Plug-In . SVG Version: 6.00 Build 0)  -->
<svg version="1.1" xmlns="http://www.w3.org/2000/svg" xmlns:xlink="http://www.w3.org/1999/xlink" x="0px" y="0px"
	 viewBox="0 0 1024 426" style="enable-background:new 0 0 1024 426;" xml:space="preserve">
<style type="text/css">
	.st0{opacity:0.4;}
	.st1{fill:#E0E0E0;}
	.st2{opacity:0.2;fill:#BCB6C0;stroke:#ACA8C1;stroke-width:0.25;stroke-miterlimit:10;}
	.st3{fill:none;stroke:#ACA8C1;stroke-width:8;stroke-miterlimit:10;}
	.st4{fill:none;stroke:#ACA8C1;stroke-width:7;stroke-miterlimit:10;}
	.st5{fill:#ACA8C1;stroke:#ACA8C1;stroke-width:6;stroke-miterlimit:10;}
	.st6{fill:#ACA8C1;stroke:#ACA8C1;stroke-width:0.25;stroke-miterlimit:10;}
	.st7{fill:none;stroke:#F23A44;stroke-width:6;stroke-miterlimit:10;}
	.st8{fill:#F23A44;}
	.st9{fill:#F2F2F2;}
	.st10{fill:#E0E0E0;stroke:#E0E0E0;stroke-width:1.5;}
	.st11{fill:none;stroke:#E0E0E0;stroke-width:3;}
	.st12{fill:#F69D5E;}
	.st13{fill:#221F1F;}
	.st14{fill:#464655;}
	.st15{fill:#BCB6C0;stroke:#ACA8C1;stroke-width:0.25;stroke-miterlimit:10;}
	.st16{fill:#060606;}
	.st17{fill:#D6D6D6;}
	.st18{fill:#9B9A9A;}
	.st19{fill:none;stroke:#555A6E;stroke-width:0.5;stroke-miterlimit:10;}
	.st20{fill:#555A6E;}
	.st21{fill:#D5D6DB;stroke:#464655;stroke-width:7;stroke-miterlimit:10;}
	.st22{fill:none;stroke:#555A6E;stroke-miterlimit:10;}
	.st23{fill:#BCB6C0;}
	.st24{fill:none;stroke:#555A6E;stroke-width:5;stroke-miterlimit:10;}
	.st25{fill:none;stroke:#BCB6C0;stroke-miterlimit:10;}
	.st26{fill:#EBF0F3;stroke:#555A6E;stroke-width:5;stroke-miterlimit:10;}
	.st27{fill:#D5D6DB;}
	.st28{fill:#EBF0F3;stroke:#555A6E;stroke-width:4;stroke-miterlimit:10;}
	.st29{fill:none;stroke:#464655;stroke-miterlimit:10;}
	.st30{fill:#EBF0F3;}
</style>
<g id="skyrscraper" shape-rendering="geometricPrecision" text-rendering="geometricPrecision">
	<g class="st0">
		<rect id="etoa9ta9qgia3" x="856.8" y="321" class="st1" width="10.9" height="22.6"/>
		<path id="etoa9ta9qgia4" class="st1" d="M633.2,332.3v14.1h142v-13.7c0-0.2-0.2-0.4-0.4-0.4H633.2z"/>
		<rect id="etoa9ta9qgia5" x="759.1" y="306.2" class="st1" width="24.8" height="40.2"/>
		<polygon id="etoa9ta9qgia6" class="st1" points="779.8,292.3 764.2,298.5 764.2,318 779.8,311.7 		"/>
		
			<rect id="etoa9ta9qgia7" x="705" y="323.6" transform="matrix(1 -9.840523e-03 9.840523e-03 1 -3.2683 7.186)" class="st1" width="47.1" height="24.2"/>
		<rect id="etoa9ta9qgia8" x="694.8" y="325.6" class="st1" width="14.3" height="20.2"/>
		<rect id="etoa9ta9qgia9" x="697.7" y="319.4" class="st1" width="8.2" height="12.7"/>
		<rect id="etoa9ta9qgia10" x="700.6" y="318" class="st1" width="2.7" height="2.9"/>
		<rect id="etoa9ta9qgia11" x="665.2" y="319.9" class="st1" width="26.1" height="21.4"/>
		<rect id="etoa9ta9qgia12" x="662.7" y="325.7" class="st1" width="5.1" height="20.8"/>
		<polygon id="etoa9ta9qgia13" class="st1" points="656.2,338.5 656.2,310.8 654,310.8 654,298.7 650.2,292.9 634.8,292.9 
			634.9,341 		"/>
		<rect id="etoa9ta9qgia15" x="844.6" y="311" class="st1" width="16.3" height="33.1"/>
		<rect id="etoa9ta9qgia16" x="837.2" y="328.4" class="st1" width="8.1" height="15.6"/>
		<rect id="etoa9ta9qgia17" x="847.9" y="301.4" class="st1" width="8.1" height="15.6"/>
		<rect id="etoa9ta9qgia18" x="866.4" y="298.1" class="st1" width="24.5" height="45.9"/>
		<polygon id="etoa9ta9qgia19" class="st1" points="870.9,285.4 886.4,290.9 886.4,308 870.9,302.5 		"/>
		<polygon id="etoa9ta9qgia20" class="st1" points="875.2,284.1 881,286.1 881,292.6 875.2,290.5 		"/>
		<rect id="etoa9ta9qgia27" x="788.4" y="315.5" class="st1" width="20.2" height="29.2"/>
		<rect id="etoa9ta9qgia28" x="688.8" y="320.1" class="st1" width="8.1" height="33.3"/>
		<rect id="etoa9ta9qgia30" x="774.8" y="329.6" class="st1" width="4.5" height="16.8"/>
		<rect id="etoa9ta9qgia31" x="777.1" y="334.7" class="st1" width="4.3" height="11.7"/>
		<rect id="etoa9ta9qgia32" x="673.2" y="317.3" class="st1" width="11.5" height="4.2"/>
		<rect id="etoa9ta9qgia33" x="675.7" y="315.6" class="st1" width="6.7" height="2.4"/>
		<rect id="etoa9ta9qgia34" x="829.3" y="327" class="st1" width="5.5" height="15.6"/>
		<rect id="etoa9ta9qgia43" x="877.1" y="324.8" class="st1" width="13.6" height="23.6"/>
		<rect id="etoa9ta9qgia44" x="850.5" y="329.3" class="st1" width="9.3" height="23.6"/>
		<rect id="etoa9ta9qgia45" x="879.3" y="322.5" class="st1" width="9.5" height="4.6"/>
		<rect id="etoa9ta9qgia46" x="881.4" y="320.7" class="st1" width="5.5" height="2.7"/>
		<polygon id="etoa9ta9qgia47" class="st1" points="929.3,346.4 929.3,329.1 927.5,329.1 927.5,321.5 924.4,317.9 911.7,317.9 
			911.7,347.9 		"/>
		<rect id="etoa9ta9qgia48" x="899.8" y="336.8" class="st1" width="5.6" height="22.3"/>
		<rect id="etoa9ta9qgia49" x="895.5" y="340.4" class="st1" width="5.6" height="22.3"/>
		<rect id="etoa9ta9qgia50" x="893.3" y="330.7" class="st1" width="9.3" height="22.3"/>
		<rect id="etoa9ta9qgia53" x="665.5" y="307.6" class="st1" width="24.5" height="52.6"/>
		<rect id="etoa9ta9qgia54" x="701.8" y="317.3" class="st1" width="18.1" height="38"/>
		<rect id="etoa9ta9qgia55" x="719.4" y="323.4" class="st1" width="25.8" height="26.5"/>
		<rect id="etoa9ta9qgia56" x="725.9" y="320.1" class="st1" width="11.4" height="5.1"/>
		<rect id="etoa9ta9qgia57" x="728.2" y="318.1" class="st1" width="6.6" height="3"/>
		<rect id="etoa9ta9qgia58" x="742.6" y="330.4" class="st1" width="5" height="26.5"/>
		<rect id="etoa9ta9qgia59" x="805.3" y="318.6" class="st1" width="16.3" height="26.5"/>
		<rect id="etoa9ta9qgia60" x="821.7" y="323.3" class="st1" width="16.3" height="26.5"/>
		<rect id="etoa9ta9qgia61" x="840" y="323.7" class="st1" width="11.2" height="26.5"/>
		<polygon id="etoa9ta9qgia62" class="st1" points="757,342.8 757,323.5 759.1,323.5 759.1,315 762.9,310.9 778.1,310.9 778,344.6 
					"/>
		<rect id="etoa9ta9qgia63" x="776" y="326.7" class="st1" width="6.7" height="25"/>
		<rect id="etoa9ta9qgia64" x="781.3" y="329.8" class="st1" width="6.7" height="25"/>
		<rect id="etoa9ta9qgia65" x="786.5" y="333.8" class="st1" width="6.7" height="25"/>
		<rect id="etoa9ta9qgia66" x="796.2" y="325.2" class="st1" width="6.8" height="25"/>
		<rect id="etoa9ta9qgia67" x="633" y="333.5" class="st1" width="4.2" height="25.5"/>
		<rect id="etoa9ta9qgia78" x="628.3" y="337.7" class="st1" width="6" height="22.3"/>
		<rect id="etoa9ta9qgia103" x="162.7" y="247.4" class="st1" width="47.4" height="111.3"/>
		<path id="etoa9ta9qgia104" class="st1" d="M489.2,316.7c1.9,0.4,3.8-0.7,4.2-2.6c0.4-1.8-0.8-3.7-2.6-4.1
			c-1.9-0.4-3.8,0.8-4.2,2.6C486.1,314.4,487.3,316.3,489.2,316.7L489.2,316.7z"/>
		<path id="etoa9ta9qgia105" class="st1" d="M497,320.8c1.9,0.4,3.8-0.7,4.2-2.6c0.4-1.8-0.7-3.7-2.6-4.1c-1.9-0.4-3.8,0.7-4.2,2.6
			C493.9,318.5,495.1,320.4,497,320.8L497,320.8z"/>
		<path id="etoa9ta9qgia106" class="st1" d="M554.3,299.9c-1.6,1.1-3.8,0.7-4.9-0.9c-1.1-1.6-0.7-3.7,0.9-4.8
			c1.6-1.1,3.8-0.7,4.8,0.9C556.3,296.7,555.9,298.9,554.3,299.9L554.3,299.9z"/>
		<path id="etoa9ta9qgia107" class="st1" d="M548.6,308c-1.6,1.1-3.8,0.7-4.9-0.9c-1.1-1.6-0.7-3.7,0.9-4.8c1.6-1.1,3.8-0.6,4.9,0.9
			C550.6,304.8,550.2,306.9,548.6,308L548.6,308z"/>
		<path id="etoa9ta9qgia108" class="st1" d="M541.8,314.2c-1.6,1.1-3.8,0.7-4.9-0.9s-0.7-3.7,0.9-4.8c1.6-1.1,3.8-0.7,4.8,0.9
			C543.8,311,543.4,313.1,541.8,314.2L541.8,314.2z"/>
		<path id="etoa9ta9qgia109" class="st1" d="M522,322.4c-1.7-0.9-2.4-2.9-1.6-4.6c0.9-1.7,3-2.4,4.7-1.5c1.7,0.9,2.4,2.9,1.5,4.6
			C525.8,322.6,523.7,323.2,522,322.4L522,322.4z"/>
		<path id="etoa9ta9qgia110" class="st1" d="M530.7,319.4c-1.7-0.8-2.4-2.9-1.5-4.6c0.9-1.7,3-2.4,4.7-1.5c1.7,0.9,2.4,2.9,1.6,4.6
			C534.6,319.5,532.5,320.2,530.7,319.4L530.7,319.4z"/>
		<path id="etoa9ta9qgia111" class="st1" d="M505.1,323.8c-1.7-0.9-2.4-2.9-1.6-4.6c0.9-1.7,3-2.4,4.7-1.5c1.7,0.8,2.4,2.9,1.5,4.6
			C508.9,324,506.8,324.7,505.1,323.8L505.1,323.8z"/>
		<path id="etoa9ta9qgia112" class="st1" d="M513.2,324c-1.7-0.8-2.4-2.9-1.6-4.6c0.9-1.7,3-2.4,4.7-1.5c1.7,0.9,2.4,2.9,1.5,4.6
			C517,324.1,514.9,324.8,513.2,324L513.2,324z"/>
		<rect id="etoa9ta9qgia113" x="221.7" y="272" class="st1" width="28.2" height="64.6"/>
		<rect id="etoa9ta9qgia114" x="225" y="267.4" class="st1" width="21.6" height="17.2"/>
		<rect id="etoa9ta9qgia115" x="226.4" y="264" class="st1" width="18.8" height="4.3"/>
		<rect id="etoa9ta9qgia116" x="228.7" y="262.8" class="st1" width="14.1" height="2.8"/>
		<rect id="etoa9ta9qgia117" x="230.2" y="259.1" class="st1" width="11.2" height="4"/>
		<rect id="etoa9ta9qgia118" x="381.1" y="313.6" class="st1" width="12.4" height="25.8"/>
		<polygon id="etoa9ta9qgia122" class="st1" points="208.5,316.8 262,316.3 262.3,343.9 208.8,344.5 		"/>
		<rect id="etoa9ta9qgia123" x="197.1" y="318.8" class="st1" width="16.2" height="23.1"/>
		<rect id="etoa9ta9qgia124" x="200.3" y="311.8" class="st1" width="9.3" height="14.5"/>
		<rect id="etoa9ta9qgia125" x="203.7" y="310.2" class="st1" width="3.1" height="3.3"/>
		<rect id="etoa9ta9qgia126" x="163.5" y="312.3" class="st1" width="29.7" height="24.5"/>
		<rect id="etoa9ta9qgia127" x="160.7" y="318.9" class="st1" width="5.8" height="23.8"/>
		<rect id="etoa9ta9qgia128" x="286.8" y="335.3" class="st1" width="348.5" height="7.3"/>
		<rect id="etoa9ta9qgia129" x="367.3" y="302.1" class="st1" width="18.5" height="37.9"/>
		<rect id="etoa9ta9qgia130" x="358.8" y="322" class="st1" width="9.2" height="17.9"/>
		<rect id="etoa9ta9qgia131" x="371" y="291.2" class="st1" width="9.2" height="17.9"/>
		<rect id="etoa9ta9qgia132" x="392" y="287.4" class="st1" width="27.8" height="52.5"/>
		<rect id="etoa9ta9qgia135" x="461" y="324.8" class="st1" width="10" height="12.2"/>
		<rect id="etoa9ta9qgia136" x="462.4" y="310.8" class="st1" width="11.1" height="28.4"/>
		<rect id="etoa9ta9qgia137" x="490.6" y="299.7" class="st1" width="22.8" height="39.8"/>
		<rect id="etoa9ta9qgia138" x="549" y="292.8" class="st1" width="12.6" height="45.4"/>
		<rect id="etoa9ta9qgia139" x="574.4" y="305.4" class="st1" width="5.6" height="32.4"/>
		<rect id="etoa9ta9qgia140" x="587.7" y="285.8" class="st1" width="16.3" height="53.5"/>
		<rect id="etoa9ta9qgia141" x="495.2" y="294.8" class="st1" width="11.8" height="22.5"/>
		<rect id="etoa9ta9qgia142" x="293.6" y="307.3" class="st1" width="12.9" height="33.3"/>
		<rect id="etoa9ta9qgia143" x="190.3" y="312.5" class="st1" width="9.2" height="38.1"/>
		<rect id="etoa9ta9qgia144" x="172.6" y="309.3" class="st1" width="13.1" height="4.8"/>
		<rect id="etoa9ta9qgia145" x="175.4" y="307.4" class="st1" width="7.6" height="2.8"/>
		<rect id="etoa9ta9qgia146" x="349.8" y="320.4" class="st1" width="6.2" height="17.9"/>
		<rect id="etoa9ta9qgia147" x="473.3" y="324.9" class="st1" width="5.2" height="12.3"/>
		<rect id="etoa9ta9qgia148" x="533.4" y="322.7" class="st1" width="19.7" height="15.5"/>
		<rect id="etoa9ta9qgia149" x="560.9" y="324.4" class="st1" width="14.5" height="13.2"/>
		<path id="etoa9ta9qgia151" class="st1" d="M479.5,326.6c-0.2,0-0.4,0.2-0.4,0.5v29.7c0,0.3,0.2,0.5,0.4,0.5h156v-30.7H479.5
			L479.5,326.6z"/>
		<path id="etoa9ta9qgia152" class="st1" d="M374,338.4L374,338.4l-0.1,25.7c0,0.3,0.2,0.4,0.3,0.4h105.4v-26.1H374z"/>
		<rect id="etoa9ta9qgia153" x="474.6" y="322.8" class="st1" width="5" height="27"/>
		<rect id="etoa9ta9qgia154" x="472.3" y="330" class="st1" width="4.8" height="27"/>
		<rect id="etoa9ta9qgia155" x="373.9" y="323" class="st1" width="10.6" height="27"/>
		<polygon id="etoa9ta9qgia156" class="st1" points="443.5,344.4 463.4,342.6 463.4,322.8 461.4,322.8 461.4,314.1 457.8,310 
			443.4,310 		"/>
		<rect id="etoa9ta9qgia157" x="425.1" y="335.8" class="st1" width="6.4" height="25.5"/>
		<path id="etoa9ta9qgia158" class="st1" d="M132.3,333.8c-0.2,0-0.4,0.2-0.4,0.5V364c0,0.3,0.2,0.5,0.4,0.5h243
			c0.2,0,0.4-0.2,0.4-0.5v-30.1c0,0,0,0-0.1,0H132.3z"/>
		<rect id="etoa9ta9qgia160" x="163.8" y="298.3" class="st1" width="27.8" height="60.2"/>
		<rect id="etoa9ta9qgia161" x="205.1" y="324.3" class="st1" width="16" height="28.5"/>
		<rect id="etoa9ta9qgia162" x="208.7" y="315.6" class="st1" width="9.2" height="18"/>
		<rect id="etoa9ta9qgia163" x="211.6" y="313.6" class="st1" width="3" height="4.1"/>
		<rect id="etoa9ta9qgia164" x="225" y="316.3" class="st1" width="29.3" height="30.3"/>
		<rect id="etoa9ta9qgia165" x="232.4" y="312.5" class="st1" width="12.9" height="5.9"/>
		<rect id="etoa9ta9qgia166" x="235" y="310.2" class="st1" width="7.5" height="3.4"/>
		<rect id="etoa9ta9qgia167" x="251.4" y="324.4" class="st1" width="5.7" height="30.3"/>
		<rect id="etoa9ta9qgia168" x="320" y="310.9" class="st1" width="18.5" height="30.3"/>
		<rect id="etoa9ta9qgia169" x="341.1" y="316.2" class="st1" width="18.6" height="30.3"/>
		<rect id="etoa9ta9qgia170" x="362" y="316.6" class="st1" width="12.7" height="30.3"/>
		<rect id="etoa9ta9qgia171" x="295.4" y="323.7" class="st1" width="7.6" height="28.6"/>
		<rect id="etoa9ta9qgia172" x="301.2" y="328.2" class="st1" width="7.6" height="28.6"/>
		<rect id="etoa9ta9qgia173" x="306.5" y="318.4" class="st1" width="9.6" height="28.6"/>
		<rect id="etoa9ta9qgia175" x="479.1" y="310.8" class="st1" width="27.8" height="46.5"/>
		<polygon id="etoa9ta9qgia176" class="st1" points="483.7,298.4 501.2,304 501.2,321.2 483.7,315.7 		"/>
		<rect id="etoa9ta9qgia177" x="512" y="291" class="st1" width="27.8" height="60.3"/>
		<rect id="etoa9ta9qgia178" x="538.5" y="305.3" class="st1" width="9.2" height="38.1"/>
		<rect id="etoa9ta9qgia179" x="553.3" y="317" class="st1" width="16" height="28.6"/>
		<rect id="etoa9ta9qgia180" x="556.9" y="308.4" class="st1" width="9.1" height="18"/>
		<rect id="etoa9ta9qgia181" x="559.8" y="306.4" class="st1" width="3" height="4.1"/>
		<rect id="etoa9ta9qgia182" x="573.2" y="309.1" class="st1" width="29.3" height="30.3"/>
		<rect id="etoa9ta9qgia183" x="580.6" y="305.3" class="st1" width="12.9" height="5.9"/>
		<rect id="etoa9ta9qgia184" x="583.3" y="303" class="st1" width="7.4" height="3.4"/>
		<polygon id="etoa9ta9qgia185" class="st1" points="631,333.3 607.1,331.3 607.1,309.2 609.5,309.2 609.5,299.4 613.8,294.8 
			631.1,294.8 		"/>
		<rect id="etoa9ta9qgia193" x="171.5" y="334.6" class="st1" width="31.9" height="30.4"/>
		<rect id="etoa9ta9qgia195" x="319.3" y="321.9" class="st1" width="27.8" height="31.1"/>
		<polygon id="etoa9ta9qgia196" class="st1" points="323.8,309.5 341.3,315 341.3,332.3 323.8,326.8 		"/>
		<polygon id="etoa9ta9qgia197" class="st1" points="329.2,307.7 335.9,309.8 335.9,316.4 329.2,314.3 		"/>
		<rect id="etoa9ta9qgia198" x="367.5" y="312.3" class="st1" width="23.3" height="50.4"/>
		<rect id="etoa9ta9qgia199" x="372.9" y="310.6" class="st1" width="12.5" height="3.2"/>
		<rect id="etoa9ta9qgia200" x="372.1" y="307.6" class="st1" width="14.2" height="3.6"/>
		<rect id="etoa9ta9qgia201" x="374.3" y="305" class="st1" width="9.8" height="3.6"/>
		<rect id="etoa9ta9qgia203" x="476.3" y="326.7" class="st1" width="452.9" height="37.8"/>
		<rect id="etoa9ta9qgia206" x="539.5" y="298.6" class="st1" width="20.2" height="11.2"/>
		<rect id="etoa9ta9qgia207" x="542.1" y="293.3" class="st1" width="14.9" height="8.3"/>
		<rect id="etoa9ta9qgia208" x="340.7" y="328.3" class="st1" width="16.3" height="29.3"/>
		<rect id="etoa9ta9qgia209" x="353.6" y="336.9" class="st1" width="16.3" height="24.2"/>
		<rect id="etoa9ta9qgia210" x="382.4" y="333.8" class="st1" width="16.3" height="26.2"/>
		<rect id="etoa9ta9qgia211" x="390.9" y="345.2" class="st1" width="129" height="16"/>
		<rect id="etoa9ta9qgia212" x="499.2" y="351.6" class="st1" width="54.3" height="9.6"/>
		<path id="etoa9ta9qgia214" class="st1" d="M161.2,308.5c9.1-2.4,12.7,3.2,15.7,9.8v42.4h-15.7V308.5z"/>
	</g>
	<g id="etoa9ta9qgia216">
		<polygon id="etoa9ta9qgia217" class="st1" points="892.9,241.3 933,241.3 930.8,279.4 936.1,347.2 892.9,347.9 		"/>
		<polygon id="etoa9ta9qgia218" class="st1" points="824.9,241.3 865.1,241.3 862.9,279.4 868.2,347.2 824.9,347.9 		"/>
		<polygon id="etoa9ta9qgia219" class="st1" points="801.8,240 761.6,240 763.8,278 758.6,345.9 801.8,346.5 		"/>
		<path id="etoa9ta9qgia220" class="st1" d="M758.3,234.4l194.2,2.5c6.6,6.2,29.5,3.6,3.6,8.2l-192.3-4
			C758.3,240.4,758.7,237.6,758.3,234.4L758.3,234.4z"/>
		<polygon id="etoa9ta9qgia221" class="st1" points="759.4,230 941.7,231.8 952.5,236.9 759.4,237 		"/>
		<rect id="etoa9ta9qgia222" x="913.1" y="228.1" class="st1" width="12.4" height="7.1"/>
		<rect id="etoa9ta9qgia223" x="875.4" y="228.1" class="st1" width="12.4" height="7.1"/>
		<rect id="etoa9ta9qgia224" x="776.3" y="226.5" class="st1" width="12.4" height="7.1"/>
	</g>
	<g id="etoa9ta9qgia225" transform="matrix(1.41981650114624 0 0 1.41981650114624 -200.89732092699273 -165.20573120397921)">
		<path id="etoa9ta9qgia226" class="st1" d="M604.3,342.1c-0.1,0-0.2,0-0.3,0c-1.6,0-3.3-0.4-4.8-1c0.6,2.3,1.5,4.5,2.7,6.6
			c4.8,8.9,14.2,15.3,24.4,16.3c-7.8-3.1-14.7-8.8-19.1-16.1C606,346,605.1,344.2,604.3,342.1L604.3,342.1z"/>
		<path id="etoa9ta9qgia227" class="st1" d="M602.2,334.7l3.1-0.3c7.6,19.5,17.3,21.9,28.5,30.5l-11.3-0.1
			C610.3,357.9,601.1,352.2,602.2,334.7L602.2,334.7z"/>
		<path id="etoa9ta9qgia228" class="st1" d="M618,326.2l9.9,0c2.2,14.7,7.8,27.3,15.2,38.8l-20.5-0.2
			C613.9,354.6,613.5,338.6,618,326.2L618,326.2z"/>
		<path id="etoa9ta9qgia229" class="st1" d="M653.5,322.3l-11.6-0.5c-3,14.6-11.2,31.9-19.3,43l27.2,0.4
			C658.9,355.4,657.3,334.8,653.5,322.3L653.5,322.3z"/>
		<path id="etoa9ta9qgia230" class="st1" d="M655,352.3l6.5-0.2c-0.2,5.5-4.7,9.2-8.7,13.2l-3.1-0.1L655,352.3z"/>
	</g>
	<g id="etoa9ta9qgia231">
		<g id="etoa9ta9qgia232">
			<path id="etoa9ta9qgia233" class="st1" d="M156.3,345.9c-3.5,0-6.9-0.1-10.4-0.1c0-0.5,0-0.9,0-1.4c-0.5-5-1.1-10-1.6-15
				c-0.8-9.2-1.7-18.5-2.3-27.7c-0.7-11.6-1.5-23.2-1.7-34.8c-0.2-13.3-0.4-26.6,1.1-39.8c0.8-7.5,2.1-14.9,4.6-22.1
				c0.7-2.1,2.6-6.2,2.6-6.2s5.7,6.3,8.2,9.7c3.1,4.1,5.9,8.4,8.8,12.6c0.6,0.9,1.1,2.1,1.1,3.1c0.1,10.6,0,21.3,0,31.9
				c-0.1,29.2-0.2,58.5-0.3,87.7c0,0.6,0,1.2,0,2c-1.1,0-2.1,0-3,0C161,345.8,158.6,345.8,156.3,345.9z"/>
		</g>
	</g>
	<g id="etoa9ta9qgia234" transform="matrix(1 0 0 1 -4 0)">
		<polygon id="etoa9ta9qgia235" class="st1" points="178.3,238.8 178.2,347.2 201.1,347.2 201.2,256.8 		"/>
		<path id="etoa9ta9qgia236" class="st2" d="M201,256.8l-22.6,22.6c0,0,23.5,22.2,22.6,22.3"/>
		<path id="etoa9ta9qgia237" class="st2" d="M200.7,302.4l-22.4,22.7c0,0,23.6,22,22.7,22.1"/>
	</g>
	<g id="etoa9ta9qgia238">
		<path id="etoa9ta9qgia239" class="st1" d="M333,289C333,289,333,289,333,289c0.1-0.1,1.1-3.2,4.6-6.6c3.2-3.2,9.1-7.4,19.1-9.2
			c0.2,0,0.3-0.2,0.2-0.3c0-0.2-0.2-0.3-0.3-0.2c-2.3,0.4-4.5,1-6.4,1.6c0.2-0.3,0.4-0.7,0.5-1.1c0.3-0.2,1.4-0.7,3-1.1
			c0.2,0,0.3-0.2,0.2-0.4c0-0.2-0.2-0.3-0.4-0.2c-2.1,0.5-3.2,1.2-3.3,1.2c-0.1,0.1-0.1,0.1-0.1,0.2c0,0.8-0.9,1.6-0.9,1.6
			c0,0,0,0-0.1,0.1c-3.2,1.2-5.8,2.6-7.9,4c0.1-0.5,0.1-1.3-0.1-1.9c0.4-0.3,1.4-0.8,2.3-1.1c0.2-0.1,0.2-0.2,0.2-0.4
			c-0.1-0.2-0.2-0.2-0.4-0.2c-1.3,0.4-2.6,1.3-2.6,1.3c-0.1,0.1-0.2,0.2-0.1,0.4c0.3,0.8,0.1,2,0,2.4c-1.3,1-2.4,1.9-3.3,2.8
			c-1.3,1.3-2.3,2.6-3,3.7c0-0.3-0.2-0.7-0.4-1c0.3-0.5,1.1-2.1,1.9-2.7c0.1-0.1,0.2-0.3,0.1-0.4c-0.1-0.1-0.3-0.2-0.4-0.1
			c-1.2,0.8-2.2,3-2.2,3.1c-0.1,0.1,0,0.3,0.1,0.3c0.4,0.3,0.4,1.3,0.3,1.6c-0.2,0.4-0.4,0.7-0.5,1l0,0l-0.8,1.6c0,0-0.8-1-0.7-1.6
			h0c0.2-0.7,1.1-3.9,2.8-7.2c0.3-0.1,1.2-0.3,2.9-0.1c0.1,0,0.2,0,0.3-0.1c0,0,0.8-1.4,2.2-2.2c0.1-0.1,0.2-0.3,0.1-0.4
			c-0.1-0.1-0.3-0.2-0.4-0.1c-1.2,0.7-2,1.8-2.3,2.2c-1.1-0.1-1.9-0.1-2.5,0c0.3-0.5,0.5-0.9,0.8-1.4c0.3,0,1.3-0.1,2.3-0.2
			c0.2,0,0.3-0.2,0.3-0.3c0-0.2-0.2-0.3-0.3-0.3c-0.7,0-1.4,0.1-1.8,0.1c0.4-0.7,0.9-1.3,1.4-1.9c0.4-0.2,2.6-1,4.5-1c0,0,0,0,0.1,0
			c0,0,0,0,0,0c0,0,0,0,0,0c0,0,0,0,0,0c0,0,0,0,0,0c0,0,0,0,0,0l0,0c0,0,0.4-0.4,1.3-0.8c0.3,0.2,1,0.5,1.6,1
			c0.1,0.1,0.1,0.1,0.2,0.1c0.1,0,0.1,0,0.2-0.1c0,0,1.2-0.8,3.2-1.1c0.2,0,0.3-0.2,0.3-0.3c0-0.2-0.2-0.3-0.3-0.3
			c-1.6,0.2-2.8,0.8-3.2,1.1c-0.4-0.3-0.8-0.6-1.1-0.8c0.3-0.1,0.6-0.3,1-0.4l0,0c0,0,1.6-0.5,3.1-0.5c0.1,0,0.1,0,0.1,0l2.8-1.5
			c0.1-0.1,0.2-0.3,0.1-0.4c-0.1-0.1-0.3-0.2-0.4-0.1l-2.8,1.5c-1.1,0-2.2,0.3-2.8,0.4l0.2-1.4l0.8-0.8c0.1-0.1,0.1-0.3,0-0.4
			c-0.1-0.1-0.3-0.1-0.4,0l-0.8,0.9c0,0.1-0.1,0.1-0.1,0.2l-0.2,1.7c-1.2,0.4-2,0.9-2.4,1.2v-0.9c0.3-0.2,1.2-0.9,1.5-1.6
			c0.1-0.1,0-0.3-0.1-0.4c-0.1-0.1-0.3,0-0.4,0.1c-0.3,0.5-1.2,1.2-1.5,1.4c-0.1,0.1-0.1,0.1-0.1,0.2v1.4c-1.6,0.1-3.3,0.6-4.1,0.9
			v-1.7l2-1.7l1.5-0.3c0.1,0,0.2-0.1,0.2-0.2c0,0,0.3-0.7,1.2-0.9c0.2,0,0.3-0.2,0.2-0.4c0-0.2-0.2-0.3-0.4-0.2
			c-0.9,0.2-1.4,0.8-1.6,1.1l-1.2,0.3l-0.2-0.4l0.6-0.8c0.1-0.1,0.1-0.3-0.1-0.4c-0.1-0.1-0.3-0.1-0.4,0.1l-0.7,1
			c-0.1,0.1-0.1,0.2,0,0.3l0.3,0.6L337,273l-0.6-1.2l1.4-1.6c0.1-0.1,0.1-0.3,0-0.4c-0.1-0.1-0.3-0.1-0.4,0l-1.6,1.8
			c-0.1,0.1-0.1,0.2,0,0.3l1,1.8v1.8c-0.6,0.8-1.2,1.6-1.7,2.4c0,0,0,0,0,0.1c-0.3,0.4-0.6,0.9-0.8,1.4c0-0.6-0.1-1.5-0.2-2.5
			l1.4-1.9c0-0.1,0.1-0.1,0.1-0.2v-0.2c0-0.1,0-1.5-0.8-2.1c-0.1-0.1-0.3-0.1-0.4,0.1c-0.1,0.1-0.1,0.3,0.1,0.4
			c0.6,0.5,0.6,1.6,0.6,1.6v0.1l-1.4,1.9c-0.1,0.1-0.1,0.1-0.1,0.2c0.3,2.1,0.2,3.5,0.2,3.7c-0.5,1.1-1,2.1-1.4,3.1l-0.3-0.8
			l0.9-1.7c0.1-0.1,0-0.3-0.1-0.4c-0.1-0.1-0.3,0-0.4,0.1l-0.9,1.9c0,0.1,0,0.2,0,0.2l0.6,1.6c-0.6,1.7-0.9,3-1,3.2h-0.3v-4.7
			c0-0.1,0.1-0.2,0-0.2c0,0,0,0,0-0.1v-0.2c0.2-0.6,0.7-1.6,1.4-2.4c0.1-0.1,0.1-0.2,0.1-0.3l-0.4-1.1l0.8-1.2c0,0,0-0.1,0-0.1
			c0-0.1,0.1-0.1,0.1-0.2V275c0-0.1,0-0.1-0.1-0.2l-0.6-0.8l0.5-0.6c0-0.1,0.1-0.1,0.1-0.2c0-0.3,0-0.7,0.1-1.2l2-0.5
			c0.1,0,0.1-0.1,0.2-0.1l1.2-1.5c0.1-0.1,0.1-0.3,0-0.4c-0.1-0.1-0.3-0.1-0.4,0l-1.1,1.4l-1.7,0.4c0.1-0.5,0.3-1.1,0.7-1.4
			c0.1-0.1,0.1-0.3,0-0.4c-0.1-0.1-0.3-0.1-0.4,0c-1,0.9-1.1,3-1.1,3.5l-0.4,0.6c0,0,0,0-0.1,0c-0.1,0.1-0.1,0.1-0.1,0.2l-0.6,0.7
			v-4.8c0-0.2-0.1-0.3-0.3-0.3l0,0l0,0c-0.2,0-0.3,0.1-0.3,0.3v4.8l-0.6-0.8c0,0,0-0.1-0.1-0.1l-0.5-0.6c0-0.5,0-2.6-1.1-3.5
			c-0.1-0.1-0.3-0.1-0.4,0c-0.1,0.1-0.1,0.3,0,0.4c0.3,0.3,0.5,0.8,0.7,1.4l-1.7-0.4l-1.1-1.4c-0.1-0.1-0.3-0.1-0.4,0
			c-0.1,0.1-0.1,0.3,0,0.4l1.2,1.5c0,0.1,0.1,0.1,0.2,0.1l2,0.5c0.1,0.5,0.1,0.9,0.1,1.2c0,0.1,0,0.1,0.1,0.2l0.4,0.6l-0.6,0.8
			c0,0.1-0.1,0.1-0.1,0.2v2.2c0,0.1,0,0.2,0.1,0.2c0,0,0,0.1,0,0.1l0.8,1.2l-0.4,1.1c0,0.1,0,0.2,0.1,0.3c0.7,0.8,1.2,1.8,1.4,2.4
			v0.2c0,0,0,0.1,0,0.1c0,0.1,0,0.2,0,0.2v4.7h-0.3c-0.1-0.2-0.4-1.5-1-3.2l0.6-1.6c0-0.1,0-0.2,0-0.2l-0.9-1.9
			c-0.1-0.1-0.3-0.2-0.4-0.1c-0.1,0.1-0.2,0.3-0.1,0.4l0.9,1.7l-0.3,0.8c-0.4-0.9-0.8-2-1.4-3.1c0-0.2-0.2-1.6,0.2-3.7
			c0-0.1,0-0.2-0.1-0.2l-1.4-1.9v-0.1c0,0,0-1.2,0.6-1.6c0.1-0.1,0.2-0.3,0.1-0.4c-0.1-0.1-0.3-0.2-0.4-0.1
			c-0.9,0.7-0.8,2.1-0.8,2.1v0.2c0,0.1,0,0.1,0.1,0.2l1.4,1.9c-0.2,1-0.2,1.9-0.2,2.5c-0.3-0.5-0.5-0.9-0.8-1.4c0,0,0,0,0-0.1
			c-0.5-0.8-1.1-1.6-1.7-2.4v-1.8l1-1.8c0.1-0.1,0-0.2,0-0.3l-1.6-1.8c-0.1-0.1-0.3-0.1-0.4,0c-0.1,0.1-0.1,0.3,0,0.4l1.4,1.6
			l-0.6,1.2l-1.8-1.5l0.3-0.6c0.1-0.1,0-0.2,0-0.3l-0.7-1c-0.1-0.1-0.3-0.2-0.4-0.1c-0.1,0.1-0.2,0.3-0.1,0.4l0.6,0.8l-0.2,0.4
			l-1.2-0.2c-0.2-0.3-0.6-0.9-1.6-1.1c-0.2,0-0.3,0.1-0.4,0.2c0,0.2,0.1,0.3,0.2,0.4c0.9,0.2,1.2,0.9,1.2,0.9c0,0.1,0.1,0.2,0.2,0.2
			l1.5,0.3l2,1.7v1.7c-0.8-0.3-2.5-0.9-4.1-0.9v-1.4c0-0.1-0.1-0.2-0.1-0.2c-0.3-0.2-1.2-0.9-1.5-1.4c-0.1-0.1-0.3-0.2-0.4-0.1
			c-0.1,0.1-0.2,0.3-0.1,0.4c0.3,0.6,1.2,1.3,1.5,1.6v0.9c-0.5-0.3-1.3-0.8-2.4-1.2l-0.2-1.7c0-0.1,0-0.1-0.1-0.2l-0.8-0.9
			c-0.1-0.1-0.3-0.1-0.4,0c-0.1,0.1-0.1,0.3,0,0.4l0.8,0.8l0.2,1.4c-0.6-0.2-1.7-0.4-2.8-0.4l-2.8-1.5c-0.1-0.1-0.3,0-0.4,0.1
			c-0.1,0.1,0,0.3,0.1,0.4l2.8,1.5c0,0,0.1,0,0.1,0c1.6,0,3.1,0.5,3.1,0.5l0,0c0.4,0.1,0.7,0.3,1,0.4c-0.3,0.2-0.7,0.4-1.1,0.8
			c-0.4-0.3-1.6-0.9-3.2-1.1c-0.2,0-0.3,0.1-0.3,0.3c0,0.2,0.1,0.3,0.3,0.3c1.9,0.3,3.1,1.1,3.2,1.1c0.1,0,0.1,0.1,0.2,0.1
			c0.1,0,0.1,0,0.2-0.1c0.6-0.5,1.3-0.9,1.6-1c0.8,0.4,1.3,0.8,1.3,0.8l0,0c0,0,0,0,0,0c0,0,0,0,0,0c0,0,0,0,0,0s0,0,0,0
			c0,0,0,0,0,0c0,0,0,0,0.1,0c1.9,0,4.1,0.9,4.5,1c0.5,0.6,1,1.2,1.4,1.9c-0.5,0-1.1-0.1-1.8-0.1c-0.2,0-0.3,0.1-0.3,0.3
			c0,0.2,0.1,0.3,0.3,0.3c1,0.1,1.9,0.1,2.3,0.2c0.3,0.4,0.5,0.9,0.8,1.4c-0.5-0.1-1.3-0.2-2.5,0c-0.3-0.4-1.1-1.5-2.3-2.2
			c-0.1-0.1-0.3,0-0.4,0.1c-0.1,0.1,0,0.3,0.1,0.4c1.3,0.7,2.2,2.1,2.2,2.2c0.1,0.1,0.2,0.2,0.3,0.1c1.7-0.2,2.7,0,2.9,0.1
			c1.7,3.3,2.6,6.5,2.8,7.2c0.2,0.6-0.7,1.6-0.7,1.6l-0.8-1.6c-0.1-0.3-0.3-0.6-0.6-1c-0.1-0.4-0.1-1.3,0.3-1.6
			c0.1-0.1,0.1-0.2,0.1-0.3c0-0.1-1-2.3-2.2-3.1c-0.1-0.1-0.3-0.1-0.4,0.1c-0.1,0.1-0.1,0.3,0.1,0.4c0.8,0.6,1.6,2.1,1.9,2.7
			c-0.2,0.3-0.3,0.6-0.4,1c-0.7-1.1-1.7-2.3-3-3.7c-0.9-0.9-2-1.9-3.3-2.8c-0.1-0.3-0.3-1.6,0-2.4c0.1-0.1,0-0.3-0.1-0.4
			c-0.1,0-1.4-0.9-2.6-1.3c-0.2-0.1-0.3,0-0.4,0.2c-0.1,0.2,0,0.3,0.2,0.4c0.9,0.3,1.9,0.9,2.3,1.1c-0.2,0.6-0.1,1.4-0.1,1.9
			c-2.1-1.4-4.7-2.9-7.9-4c0,0,0-0.1-0.1-0.1c0,0-0.8-0.8-0.9-1.6c0-0.1-0.1-0.2-0.1-0.2c-0.1,0-1.2-0.7-3.3-1.2
			c-0.2,0-0.3,0.1-0.4,0.2c0,0.2,0.1,0.3,0.2,0.4c1.6,0.4,2.6,0.9,3,1.1c0.1,0.4,0.3,0.8,0.5,1.1c-1.9-0.6-4-1.2-6.4-1.6
			c-0.2,0-0.3,0.1-0.3,0.2c0,0.2,0.1,0.3,0.2,0.3c10,1.8,15.9,6,19.1,9.2c3.4,3.4,4.5,6.5,4.5,6.5c0,0,0,0.1,0.1,0.1
			c0,0.1,0,0.3,0,0.4c0,7.9-0.5,26-3,64.8h2l0,0h0.3l0,0h3.4l0,0h0.2l0,0h3.3l0,0h0.2l0,0h2.1c-2.5-38.8-3-56.9-3-64.8
			C333,289.3,333,289.2,333,289z M331.4,274.5l0.5,0.6v2.1l0,0c-0.2,0.3-0.3,0.5-0.5,0.8l-0.7-2.6l0,0L331.4,274.5z M328.6,277.2
			C328.6,277.2,328.6,277.1,328.6,277.2l0-2.1l0.5-0.6l0.7,0.9c0,0,0,0,0,0l-0.7,2.5L328.6,277.2z M330,281.1L330,281.1L330,281.1
			c-0.2-0.4-0.5-0.9-0.9-1.3l0.4-1.1c0,0,0,0,0,0c0,0,0-0.1,0.1-0.1l0.7-2.7l0.7,2.7c0,0.1,0.1,0.1,0.1,0.2l0.4,1
			c-0.3,0.4-0.6,0.9-0.8,1.3l0,0l-0.3,0.6L330,281.1z"/>
		<path id="etoa9ta9qgia240" class="st1" d="M378.8,296.7C378.9,296.7,378.9,296.6,378.8,296.7c0.1-0.1,1.1-3.1,4.4-6.4
			c3.1-3.1,8.8-7.2,18.5-8.9c0.2,0,0.3-0.2,0.2-0.3c0-0.2-0.2-0.3-0.3-0.2c-2.3,0.4-4.4,0.9-6.2,1.6c0.2-0.3,0.4-0.7,0.5-1.1
			c0.3-0.2,1.3-0.7,2.9-1c0.2,0,0.3-0.2,0.2-0.3c0-0.2-0.2-0.3-0.3-0.2c-2,0.4-3.1,1.1-3.2,1.2c-0.1,0-0.1,0.1-0.1,0.2
			c0,0.8-0.8,1.6-0.8,1.6c0,0,0,0,0,0.1c-3.1,1.1-5.7,2.5-7.7,3.9c0.1-0.5,0.1-1.2-0.1-1.8c0.4-0.2,1.3-0.8,2.2-1.1
			c0.2,0,0.2-0.2,0.2-0.4c0-0.2-0.2-0.2-0.4-0.2c-1.2,0.4-2.5,1.2-2.5,1.3c-0.1,0.1-0.2,0.2-0.1,0.3c0.3,0.8,0.1,2,0,2.3
			c-1.3,0.9-2.4,1.9-3.2,2.8c-1.3,1.3-2.3,2.5-2.9,3.6c0-0.3-0.1-0.7-0.4-0.9c0.3-0.5,1-2,1.9-2.6c0.1-0.1,0.2-0.3,0.1-0.4
			c-0.1-0.1-0.3-0.2-0.4-0.1c-1.1,0.8-2.1,2.9-2.1,3c-0.1,0.1,0,0.3,0.1,0.3c0.4,0.3,0.4,1.2,0.3,1.6c-0.2,0.4-0.4,0.7-0.5,1l0,0
			L378,297c0,0-0.8-1-0.7-1.6h0c0.2-0.7,1-3.8,2.7-7c0.3-0.1,1.2-0.3,2.8-0.1c0.1,0,0.2,0,0.3-0.1c0,0,0.8-1.4,2.1-2.1
			c0.1-0.1,0.2-0.3,0.1-0.4c-0.1-0.1-0.3-0.2-0.4-0.1c-1.2,0.7-2,1.7-2.2,2.1c-1.1-0.1-1.9-0.1-2.4,0c0.2-0.4,0.5-0.9,0.8-1.3
			c0.3,0,1.2-0.1,2.2-0.2c0.2,0,0.3-0.2,0.3-0.3c0-0.2-0.2-0.3-0.3-0.3c-0.7,0-1.3,0.1-1.8,0.1c0.4-0.6,0.9-1.2,1.4-1.8
			c0.4-0.2,2.5-1,4.3-1c0,0,0,0,0.1,0c0,0,0,0,0,0c0,0,0,0,0,0c0,0,0,0,0,0c0,0,0,0,0,0l0,0l0,0c0,0,0.4-0.4,1.2-0.8
			c0.3,0.2,0.9,0.5,1.5,1c0.1,0,0.1,0.1,0.2,0.1c0.1,0,0.1,0,0.2,0c0,0,1.2-0.8,3.1-1.1c0.2,0,0.3-0.2,0.2-0.3
			c0-0.2-0.2-0.3-0.3-0.2c-1.6,0.2-2.7,0.8-3.1,1c-0.4-0.3-0.8-0.6-1.1-0.7c0.3-0.1,0.6-0.3,1-0.4l0,0c0,0,1.5-0.5,3-0.5
			c0,0,0.1,0,0.1,0l2.8-1.5c0.1-0.1,0.2-0.2,0.1-0.4c-0.1-0.1-0.2-0.2-0.4-0.1l-2.7,1.4c-1.1,0-2.2,0.3-2.7,0.4l0.2-1.3l0.7-0.8
			c0.1-0.1,0.1-0.3,0-0.4c-0.1-0.1-0.3-0.1-0.4,0l-0.8,0.8c0,0-0.1,0.1-0.1,0.2l-0.2,1.7c-1.1,0.4-1.9,0.9-2.4,1.2v-0.9
			c0.3-0.2,1.2-0.9,1.5-1.5c0.1-0.1,0-0.3-0.1-0.4c-0.1-0.1-0.3,0-0.4,0.1c-0.3,0.5-1.1,1.2-1.4,1.4c-0.1,0.1-0.1,0.1-0.1,0.2v1.3
			c-1.6,0.1-3.2,0.6-3.9,0.9v-1.6l2-1.7l1.5-0.3c0.1,0,0.2-0.1,0.2-0.2c0,0,0.3-0.7,1.2-0.9c0.2,0,0.3-0.2,0.2-0.3
			c0-0.2-0.2-0.3-0.3-0.2c-0.9,0.2-1.3,0.8-1.5,1.1l-1.2,0.2l-0.2-0.4l0.6-0.8c0.1-0.1,0.1-0.3-0.1-0.4c-0.1-0.1-0.3-0.1-0.4,0.1
			l-0.7,1c-0.1,0.1-0.1,0.2,0,0.3l0.3,0.6l-1.7,1.5l-0.6-1.2l1.4-1.6c0.1-0.1,0.1-0.3,0-0.4c-0.1-0.1-0.3-0.1-0.4,0l-1.5,1.7
			c-0.1,0.1-0.1,0.2,0,0.3l0.9,1.8v1.8c-0.6,0.7-1.2,1.5-1.7,2.3c0,0,0,0,0,0.1c-0.3,0.4-0.5,0.9-0.8,1.3c0-0.6-0.1-1.4-0.2-2.4
			l1.3-1.9c0,0,0-0.1,0-0.2v-0.2c0-0.1,0-1.4-0.8-2.1c-0.1-0.1-0.3-0.1-0.4,0.1c-0.1,0.1-0.1,0.3,0.1,0.4c0.6,0.5,0.6,1.6,0.6,1.6
			v0.1l-1.3,1.9c0,0.1-0.1,0.1,0,0.2c0.3,2.1,0.2,3.4,0.2,3.6c-0.5,1-1,2.1-1.3,3l-0.3-0.8l0.9-1.7c0.1-0.1,0-0.3-0.1-0.4
			c-0.1-0.1-0.3,0-0.4,0.1l-0.9,1.8c0,0.1,0,0.2,0,0.2l0.5,1.5c-0.6,1.7-0.9,2.9-1,3.1h-0.3v-4.6c0-0.1,0-0.2,0-0.2c0,0,0,0,0-0.1
			v-0.2c0.2-0.6,0.7-1.5,1.4-2.3c0.1-0.1,0.1-0.2,0-0.3l-0.4-1.1l0.7-1.1c0,0,0-0.1,0-0.1c0,0,0-0.1,0-0.2v-2.2c0-0.1,0-0.1-0.1-0.2
			l-0.6-0.8l0.4-0.6c0-0.1,0.1-0.1,0.1-0.2c0-0.2,0-0.7,0-1.1l2-0.5c0.1,0,0.1,0,0.2-0.1l1.1-1.4c0.1-0.1,0.1-0.3,0-0.4
			c-0.1-0.1-0.3-0.1-0.4,0l-1.1,1.3l-1.6,0.4c0.1-0.5,0.3-1,0.7-1.3c0.1-0.1,0.1-0.3,0-0.4c-0.1-0.1-0.3-0.1-0.4,0
			c-1,0.9-1,2.9-1,3.4l-0.4,0.6c0,0,0,0-0.1,0c-0.1,0-0.1,0.1-0.1,0.2l-0.5,0.7V278c0-0.2-0.1-0.3-0.3-0.3l0,0l0,0
			c-0.2,0-0.3,0.1-0.3,0.3v4.7l-0.6-0.8c0,0,0-0.1-0.1-0.1l-0.5-0.6c0-0.5,0-2.6-1-3.4c-0.1-0.1-0.3-0.1-0.4,0
			c-0.1,0.1-0.1,0.3,0,0.4c0.3,0.3,0.5,0.8,0.7,1.3l-1.6-0.4l-1.1-1.3c-0.1-0.1-0.3-0.1-0.4,0c-0.1,0.1-0.1,0.3,0,0.4l1.1,1.4
			c0,0,0.1,0.1,0.2,0.1l2,0.5c0.1,0.5,0.1,0.9,0,1.1c0,0.1,0,0.1,0.1,0.2l0.4,0.6l-0.6,0.8c0,0-0.1,0.1-0.1,0.2v2.2
			c0,0.1,0,0.2,0.1,0.2c0,0,0,0,0,0.1l0.7,1.1l-0.4,1.1c0,0.1,0,0.2,0,0.3c0.7,0.8,1.1,1.8,1.4,2.3v0.2c0,0,0,0.1,0,0.1
			c0,0.1,0,0.2,0,0.2v4.6h-0.3c0-0.2-0.4-1.4-1-3.1l0.5-1.5c0-0.1,0-0.2,0-0.2l-0.9-1.8c-0.1-0.1-0.2-0.2-0.4-0.1
			c-0.1,0.1-0.2,0.2-0.1,0.4l0.9,1.7l-0.3,0.8c-0.4-0.9-0.8-1.9-1.3-3c0-0.2-0.2-1.5,0.2-3.6c0-0.1,0-0.2,0-0.2l-1.3-1.9v-0.1
			c0,0,0-1.1,0.6-1.6c0.1-0.1,0.2-0.3,0.1-0.4c-0.1-0.1-0.3-0.2-0.4-0.1c-0.8,0.6-0.8,2-0.8,2.1v0.2c0,0.1,0,0.1,0,0.2l1.3,1.9
			c-0.2,1-0.2,1.8-0.2,2.4c-0.2-0.4-0.5-0.9-0.8-1.3c0,0,0,0,0-0.1c-0.5-0.8-1.1-1.6-1.7-2.3v-1.8l0.9-1.8c0.1-0.1,0-0.2,0-0.3
			l-1.5-1.7c-0.1-0.1-0.3-0.1-0.4,0c-0.1,0.1-0.1,0.3,0,0.4l1.4,1.6l-0.6,1.2l-1.7-1.5l0.3-0.6c0-0.1,0-0.2,0-0.3l-0.7-1
			c-0.1-0.1-0.3-0.2-0.4-0.1c-0.1,0.1-0.2,0.3-0.1,0.4l0.6,0.8l-0.2,0.4l-1.2-0.2c-0.2-0.3-0.6-0.9-1.5-1.1c-0.2,0-0.3,0.1-0.3,0.2
			c0,0.2,0.1,0.3,0.2,0.3c0.9,0.2,1.2,0.8,1.2,0.9c0,0.1,0.1,0.2,0.2,0.2l1.5,0.3l2,1.7v1.6c-0.7-0.3-2.4-0.8-3.9-0.9V281
			c0-0.1,0-0.2-0.1-0.2c-0.3-0.2-1.2-0.9-1.4-1.4c-0.1-0.1-0.2-0.2-0.4-0.1c-0.1,0.1-0.2,0.2-0.1,0.4c0.3,0.6,1.2,1.3,1.5,1.5v0.9
			c-0.5-0.3-1.2-0.8-2.4-1.2l-0.2-1.7c0-0.1,0-0.1-0.1-0.2l-0.8-0.9c-0.1-0.1-0.3-0.1-0.4,0c-0.1,0.1-0.1,0.3,0,0.4l0.7,0.8l0.2,1.3
			c-0.6-0.2-1.6-0.4-2.7-0.4l-2.7-1.4c-0.1-0.1-0.3,0-0.4,0.1c-0.1,0.1,0,0.3,0.1,0.4l2.8,1.5c0,0,0.1,0,0.1,0c1.5,0,3,0.5,3,0.5
			l0,0c0.4,0.1,0.7,0.3,1,0.4c-0.3,0.2-0.7,0.4-1.1,0.7c-0.4-0.2-1.5-0.8-3.1-1c-0.2,0-0.3,0.1-0.3,0.2c0,0.2,0.1,0.3,0.2,0.3
			c1.9,0.3,3,1.1,3.1,1.1c0,0,0.1,0,0.2,0c0.1,0,0.1,0,0.2-0.1c0.6-0.5,1.2-0.9,1.5-1c0.8,0.4,1.2,0.8,1.2,0.8l0,0l0,0c0,0,0,0,0,0
			c0,0,0,0,0,0s0,0,0,0h0c0,0,0,0,0.1,0c1.8,0,4,0.8,4.3,1c0.5,0.6,1,1.2,1.4,1.8c-0.4,0-1.1-0.1-1.8-0.1c-0.2,0-0.3,0.1-0.3,0.3
			c0,0.2,0.1,0.3,0.3,0.3c1,0.1,1.8,0.1,2.2,0.2c0.3,0.4,0.5,0.9,0.8,1.3c-0.5-0.1-1.3-0.2-2.4,0c-0.3-0.4-1.1-1.5-2.2-2.1
			c-0.1-0.1-0.3,0-0.4,0.1c-0.1,0.1,0,0.3,0.1,0.4c1.3,0.7,2.1,2.1,2.1,2.1c0.1,0.1,0.2,0.2,0.3,0.1c1.7-0.2,2.6,0,2.8,0.1
			c1.7,3.2,2.5,6.3,2.7,7c0.2,0.6-0.7,1.6-0.7,1.6l-0.8-1.6c-0.1-0.3-0.3-0.6-0.5-1c-0.1-0.4-0.1-1.3,0.3-1.6
			c0.1-0.1,0.1-0.2,0.1-0.3c0-0.1-1-2.2-2.1-3c-0.1-0.1-0.3-0.1-0.4,0.1c-0.1,0.1-0.1,0.3,0.1,0.4c0.8,0.6,1.6,2.1,1.9,2.6
			c-0.2,0.3-0.3,0.6-0.4,0.9c-0.7-1-1.6-2.3-2.9-3.6c-0.9-0.9-1.9-1.8-3.2-2.8c-0.1-0.3-0.3-1.6,0-2.3c0.1-0.1,0-0.3-0.1-0.3
			c-0.1,0-1.3-0.9-2.5-1.3c-0.2,0-0.3,0-0.4,0.2c0,0.2,0,0.3,0.2,0.4c0.9,0.3,1.8,0.8,2.2,1.1c-0.2,0.6-0.1,1.3-0.1,1.8
			c-2-1.4-4.6-2.8-7.7-3.9c0,0,0,0,0-0.1c0,0-0.8-0.8-0.8-1.6c0-0.1-0.1-0.2-0.1-0.2c0,0-1.2-0.7-3.2-1.2c-0.2,0-0.3,0.1-0.3,0.2
			c0,0.2,0.1,0.3,0.2,0.3c1.6,0.3,2.6,0.8,2.9,1c0.1,0.4,0.2,0.8,0.5,1.1c-1.9-0.6-3.9-1.2-6.2-1.6c-0.2,0-0.3,0.1-0.3,0.2
			c0,0.2,0.1,0.3,0.2,0.3c9.7,1.7,15.4,5.8,18.5,8.9c3.3,3.3,4.4,6.3,4.4,6.3c0,0,0,0.1,0,0.1c0,0.1,0,0.2,0,0.4
			c0,7.6-0.5,25.2-2.9,62.8h2l0,0h0.2l0,0h3.3l0,0h0.2l0,0h3.2l0,0h0.2l0,0h2c-2.5-37.6-2.9-55.2-2.9-62.8
			C378.8,296.9,378.8,296.8,378.8,296.7z M377.3,282.5l0.5,0.6v2l0,0c-0.2,0.3-0.3,0.5-0.5,0.8l-0.7-2.6l0,0L377.3,282.5z
			 M374.6,285.2C374.6,285.2,374.6,285.1,374.6,285.2l0-2l0.5-0.6l0.7,0.9c0,0,0,0,0,0l-0.6,2.5L374.6,285.2z M375.9,289L375.9,289
			L375.9,289c-0.2-0.4-0.5-0.9-0.8-1.3l0.3-1c0,0,0,0,0,0c0,0,0-0.1,0-0.1l0.7-2.7l0.7,2.7c0,0.1,0.1,0.1,0.1,0.2l0.3,1
			c-0.3,0.4-0.6,0.8-0.8,1.3l0,0l-0.3,0.6L375.9,289z"/>
		<path id="etoa9ta9qgia241" class="st1" d="M358.1,248c0,0,0.1-0.1,0.1-0.1c0-0.1,1.7-4.9,7.2-10.4c5.1-5.1,14.5-11.8,30.4-14.6
			c0.3-0.1,0.4-0.3,0.4-0.6c-0.1-0.3-0.3-0.4-0.6-0.4c-3.8,0.7-7.2,1.6-10.2,2.6c0.3-0.5,0.6-1.2,0.7-1.8c0.6-0.3,2.2-1.1,4.8-1.7
			c0.3-0.1,0.4-0.3,0.4-0.6c-0.1-0.3-0.3-0.4-0.6-0.4c-3.3,0.7-5.2,1.9-5.3,1.9c-0.1,0.1-0.2,0.2-0.2,0.4c-0.1,1.2-1.4,2.6-1.4,2.6
			c0,0-0.1,0.1-0.1,0.1c-5.2,1.9-9.3,4.1-12.7,6.4c0.1-0.9,0.2-2-0.1-3c0.6-0.4,2.2-1.3,3.6-1.8c0.2-0.1,0.4-0.3,0.3-0.6
			s-0.3-0.4-0.6-0.3c-2,0.6-4.1,2.1-4.2,2.1c-0.2,0.1-0.3,0.4-0.2,0.6c0.5,1.2,0.1,3.3,0,3.8c-2.1,1.6-3.9,3.1-5.3,4.5
			c-2.1,2.1-3.7,4.2-4.8,5.9c-0.1-0.5-0.2-1.1-0.6-1.5c0.4-0.8,1.7-3.3,3.1-4.2c0.2-0.2,0.3-0.4,0.1-0.7c-0.2-0.2-0.4-0.3-0.7-0.1
			c-1.8,1.3-3.4,4.8-3.5,4.9c-0.1,0.2,0,0.4,0.1,0.6c0.7,0.6,0.6,2,0.5,2.6c-0.4,0.6-0.6,1.1-0.9,1.6l0,0l-1.4,2.6
			c0,0-1.3-1.6-1.1-2.6h0c0.3-1.2,1.7-6.2,4.4-11.5c0.4-0.2,1.9-0.5,4.7-0.2c0.2,0,0.4-0.1,0.5-0.2c0,0,1.4-2.3,3.5-3.4
			c0.2-0.1,0.3-0.4,0.2-0.6c-0.1-0.2-0.4-0.3-0.6-0.2c-1.9,1.1-3.2,2.8-3.7,3.5c-1.8-0.2-3.1-0.1-3.9,0c0.4-0.7,0.8-1.4,1.3-2.2
			c0.6,0,2-0.2,3.6-0.3c0.3,0,0.5-0.2,0.4-0.5c0-0.3-0.2-0.5-0.5-0.4c-1.1,0.1-2.2,0.1-2.9,0.2c0.7-1,1.4-2,2.3-3
			c0.6-0.3,4.1-1.6,7.2-1.6c0,0,0.1,0,0.1,0c0,0,0,0,0,0c0,0,0,0,0.1,0c0,0,0,0,0,0c0,0,0,0,0,0c0,0,0,0,0,0c0,0,0,0,0,0
			c0,0,0.7-0.6,2-1.3c0.4,0.2,1.6,0.9,2.5,1.7c0.1,0.1,0.2,0.1,0.3,0.1c0.1,0,0.2,0,0.3-0.1c0,0,2-1.3,5-1.7c0.3,0,0.4-0.3,0.4-0.5
			c0-0.3-0.3-0.4-0.5-0.4c-2.6,0.4-4.4,1.3-5.1,1.7c-0.6-0.5-1.3-0.9-1.8-1.2c0.5-0.2,1-0.4,1.6-0.7l0,0c0.1,0,2.5-0.9,5-0.9
			c0.1,0,0.2,0,0.2-0.1l4.5-2.4c0.2-0.1,0.3-0.4,0.2-0.6c-0.1-0.2-0.4-0.3-0.6-0.2l-4.4,2.3c-1.8,0-3.6,0.4-4.5,0.7l0.3-2.2l1.2-1.3
			c0.2-0.2,0.2-0.5,0-0.7c-0.2-0.2-0.5-0.2-0.7,0l-1.3,1.4c-0.1,0.1-0.1,0.2-0.1,0.3l-0.3,2.7c-1.8,0.7-3.1,1.4-3.9,2v-1.5
			c0.5-0.4,2-1.5,2.5-2.5c0.1-0.2,0-0.5-0.2-0.6c-0.2-0.1-0.5,0-0.6,0.2c-0.4,0.8-1.8,1.9-2.4,2.3c-0.1,0.1-0.2,0.2-0.2,0.4v2.2
			c-2.6,0.1-5.3,1-6.5,1.5v-2.7l3.2-2.7l2.4-0.5c0.2,0,0.3-0.1,0.3-0.3c0-0.1,0.5-1.1,1.9-1.4c0.3-0.1,0.4-0.3,0.4-0.6
			c-0.1-0.3-0.3-0.4-0.6-0.4c-1.5,0.3-2.2,1.3-2.5,1.7l-1.9,0.4L368,219l0.9-1.3c0.1-0.2,0.1-0.5-0.1-0.7c-0.2-0.1-0.5-0.1-0.7,0.1
			l-1.1,1.6c-0.1,0.1-0.1,0.3,0,0.5l0.5,0.9l-2.9,2.4l-1-1.9l2.3-2.6c0.2-0.2,0.2-0.5,0-0.7c-0.2-0.2-0.5-0.2-0.7,0l-2.5,2.8
			c-0.1,0.1-0.2,0.4-0.1,0.5l1.5,2.9v2.9c-1,1.2-1.9,2.5-2.8,3.8c0,0,0,0.1-0.1,0.1c-0.5,0.7-0.9,1.4-1.3,2.2c0-1-0.1-2.3-0.4-3.9
			l2.2-3.1c0.1-0.1,0.1-0.2,0.1-0.3v-0.3c0-0.1,0.1-2.3-1.3-3.4c-0.2-0.2-0.5-0.1-0.7,0.1c-0.2,0.2-0.1,0.5,0.1,0.7
			c1,0.8,0.9,2.6,0.9,2.6v0.2l-2.2,3.1c-0.1,0.1-0.1,0.2-0.1,0.3c0.6,3.4,0.4,5.6,0.3,5.9c-0.9,1.7-1.6,3.4-2.2,4.9l-0.4-1.3
			l1.4-2.8c0.1-0.2,0-0.5-0.2-0.6c-0.2-0.1-0.5,0-0.6,0.2l-1.5,3c-0.1,0.1-0.1,0.3,0,0.4l0.9,2.5c-1,2.8-1.5,4.8-1.6,5.1h-0.4v-7.5
			c0.1-0.1,0.1-0.3,0-0.4c0,0,0-0.1,0-0.1v-0.3c0.4-0.9,1.2-2.5,2.2-3.8c0.1-0.1,0.1-0.3,0.1-0.4l-0.6-1.7l1.2-1.9
			c0-0.1,0.1-0.1,0.1-0.2c0.1-0.1,0.1-0.2,0.1-0.3v-3.6c0-0.1,0-0.2-0.1-0.3l-1-1.3l0.7-1c0.1-0.1,0.1-0.2,0.1-0.3
			c0-0.4,0-1.1,0.1-1.9l3.2-0.7c0.1,0,0.2-0.1,0.3-0.2l1.9-2.3c0.2-0.2,0.1-0.5-0.1-0.7c-0.2-0.2-0.5-0.1-0.7,0.1l-1.8,2.2l-2.7,0.6
			c0.2-0.9,0.5-1.7,1.1-2.2c0.2-0.2,0.2-0.5,0.1-0.7c-0.2-0.2-0.5-0.2-0.7-0.1c-1.7,1.4-1.7,4.8-1.7,5.6l-0.7,0.9c0,0-0.1,0-0.1,0.1
			c-0.1,0.1-0.2,0.2-0.2,0.3l-0.9,1.2v-7.7c0-0.3-0.2-0.5-0.5-0.5c0,0,0,0,0,0c0,0,0,0,0,0c-0.3,0-0.5,0.2-0.5,0.5v7.7l-1-1.3
			c0-0.1-0.1-0.1-0.1-0.1l-0.8-1c0-0.8,0-4.2-1.7-5.6c-0.2-0.2-0.5-0.1-0.7,0.1c-0.2,0.2-0.1,0.5,0.1,0.7c0.6,0.5,0.9,1.3,1.1,2.2
			l-2.7-0.6l-1.8-2.2c-0.2-0.2-0.5-0.2-0.7-0.1c-0.2,0.2-0.2,0.5-0.1,0.7l1.9,2.3c0.1,0.1,0.2,0.1,0.3,0.2l3.2,0.7
			c0.1,0.8,0.1,1.5,0.1,1.9c0,0.1,0,0.2,0.1,0.3l0.7,0.9l-1,1.3c-0.1,0.1-0.1,0.2-0.1,0.3v3.6c0,0.1,0.1,0.3,0.2,0.4
			c0,0,0,0.1,0.1,0.1l1.2,1.9l-0.6,1.7c-0.1,0.2,0,0.3,0.1,0.4c1.1,1.3,1.8,2.9,2.2,3.8v0.3c0,0.1,0,0.1,0,0.1c-0.1,0.1,0,0.3,0,0.4
			v7.5h-0.4c-0.1-0.3-0.6-2.3-1.6-5.1l0.9-2.5c0-0.1,0-0.3,0-0.4l-1.5-3c-0.1-0.2-0.4-0.3-0.6-0.2c-0.2,0.1-0.3,0.4-0.2,0.6l1.4,2.8
			l-0.4,1.3c-0.6-1.5-1.3-3.2-2.2-4.9c0-0.3-0.2-2.5,0.3-5.9c0-0.1,0-0.2-0.1-0.3l-2.2-3.1v-0.2c0,0,0-1.9,0.9-2.6
			c0.2-0.2,0.2-0.4,0.1-0.7c-0.2-0.2-0.4-0.2-0.7-0.1c-1.4,1.1-1.3,3.3-1.3,3.4v0.3c0,0.1,0,0.2,0.1,0.3l2.2,3.1
			c-0.3,1.6-0.3,2.9-0.4,3.9c-0.4-0.7-0.8-1.5-1.3-2.2c0,0,0-0.1-0.1-0.1c-0.8-1.3-1.8-2.6-2.8-3.8v-2.9l1.5-2.9
			c0.1-0.2,0.1-0.4-0.1-0.5l-2.5-2.8c-0.2-0.2-0.5-0.2-0.7,0c-0.2,0.2-0.2,0.5,0,0.7l2.3,2.6l-1,1.9l-2.9-2.4l0.5-0.9
			c0.1-0.2,0.1-0.3,0-0.5l-1.1-1.6c-0.1-0.2-0.4-0.3-0.7-0.1c-0.2,0.1-0.3,0.4-0.1,0.7l0.9,1.3l-0.3,0.7l-1.9-0.4
			c-0.3-0.4-1-1.4-2.5-1.7c-0.3-0.1-0.5,0.1-0.6,0.4c-0.1,0.3,0.1,0.5,0.4,0.6c1.4,0.3,1.9,1.4,1.9,1.4c0.1,0.1,0.2,0.2,0.3,0.3
			l2.4,0.5l3.2,2.7v2.7c-1.2-0.5-3.9-1.4-6.5-1.5v-2.2c0-0.2-0.1-0.3-0.2-0.4c-0.5-0.4-1.9-1.5-2.4-2.3c-0.1-0.2-0.4-0.3-0.6-0.2
			c-0.2,0.1-0.3,0.4-0.2,0.6c0.5,1,1.9,2.1,2.5,2.5v1.5c-0.8-0.5-2-1.3-3.9-2l-0.3-2.7c0-0.1-0.1-0.2-0.1-0.3l-1.3-1.4
			c-0.2-0.2-0.5-0.2-0.7,0c-0.2,0.2-0.2,0.5,0,0.7l1.2,1.3l0.3,2.2c-0.9-0.3-2.7-0.7-4.5-0.7l-4.4-2.3c-0.2-0.1-0.5,0-0.6,0.2
			c-0.1,0.2,0,0.5,0.2,0.6l4.5,2.4c0.1,0,0.1,0.1,0.2,0.1c2.5,0,5,0.8,5,0.9l0,0c0.6,0.2,1.1,0.4,1.6,0.7c-0.5,0.3-1.2,0.7-1.8,1.2
			c-0.7-0.4-2.5-1.4-5.1-1.7c-0.3,0-0.5,0.1-0.5,0.4c0,0.3,0.1,0.5,0.4,0.5c3.1,0.4,5,1.7,5,1.7c0.1,0.1,0.2,0.1,0.3,0.1
			c0.1,0,0.2,0,0.3-0.1c0.9-0.8,2-1.4,2.5-1.7c1.3,0.7,2,1.3,2,1.3c0,0,0,0,0,0c0,0,0,0,0,0c0,0,0,0,0,0c0,0,0,0,0,0c0,0,0,0,0.1,0
			s0,0,0,0c0,0,0.1,0,0.1,0c3,0,6.5,1.4,7.2,1.6c0.8,0.9,1.6,2,2.3,3c-0.7-0.1-1.8-0.1-2.9-0.2c-0.3,0-0.5,0.2-0.5,0.4
			c0,0.3,0.2,0.5,0.4,0.5c1.6,0.1,3,0.2,3.6,0.3c0.4,0.7,0.9,1.4,1.3,2.2c-0.8-0.1-2.1-0.2-3.9,0c-0.4-0.7-1.7-2.5-3.7-3.5
			c-0.2-0.1-0.5,0-0.6,0.2c-0.1,0.2,0,0.5,0.2,0.6c2.1,1.2,3.5,3.4,3.5,3.4c0.1,0.2,0.3,0.3,0.5,0.2c2.7-0.4,4.2,0,4.7,0.2
			c2.7,5.3,4.1,10.3,4.4,11.5c0.3,1-1.1,2.6-1.1,2.6l-1.4-2.6c-0.2-0.5-0.5-1-0.9-1.6c-0.1-0.6-0.2-2.1,0.5-2.6
			c0.2-0.1,0.2-0.4,0.1-0.6c-0.1-0.1-1.7-3.6-3.5-4.9c-0.2-0.2-0.5-0.1-0.7,0.1c-0.2,0.2-0.1,0.5,0.1,0.7c1.4,1,2.6,3.4,3.1,4.2
			c-0.4,0.4-0.5,1-0.6,1.5c-1.1-1.7-2.7-3.7-4.8-5.9c-1.4-1.4-3.2-3-5.3-4.5c-0.1-0.6-0.5-2.6,0-3.8c0.1-0.2,0-0.4-0.2-0.6
			c-0.1-0.1-2.2-1.5-4.2-2.1c-0.2-0.1-0.5,0.1-0.6,0.3c-0.1,0.2,0.1,0.5,0.3,0.6c1.4,0.5,3,1.4,3.6,1.8c-0.3,1-0.2,2.2-0.1,3
			c-3.3-2.3-7.5-4.6-12.7-6.4c0,0-0.1-0.1-0.1-0.1c0,0-1.3-1.3-1.4-2.6c0-0.2-0.1-0.3-0.2-0.4c-0.1-0.1-1.9-1.2-5.3-1.9
			c-0.3-0.1-0.5,0.1-0.6,0.4c-0.1,0.3,0.1,0.5,0.4,0.6c2.6,0.6,4.2,1.4,4.8,1.7c0.1,0.7,0.4,1.3,0.7,1.8c-3.1-1-6.5-1.9-10.2-2.6
			c-0.3-0.1-0.5,0.1-0.6,0.4c-0.1,0.3,0.1,0.5,0.4,0.6c16,2.8,25.4,9.5,30.4,14.6c5.5,5.5,7.2,10.4,7.2,10.4c0,0.1,0.1,0.1,0.1,0.1
			c0,0.2,0,0.4,0,0.6c0,12.5-0.8,41.5-4.8,103.4h3.2c0,0,0,0,0,0h0.4c0,0,0,0,0,0h5.4v0h0.4v0h5.3c0,0,0,0,0,0h0.4c0,0,0,0,0,0h3.3
			c-4.1-61.9-4.8-90.8-4.8-103.4C358.1,248.4,358.1,248.2,358.1,248z M355.6,224.8l0.7,1v3.4l0,0c-0.2,0.4-0.5,0.9-0.7,1.3l-1.1-4.2
			c0,0,0,0,0,0L355.6,224.8z M351.1,229.1C351.1,229.1,351.1,229,351.1,229.1l-0.1-3.4l0.8-1l1.1,1.4c0,0,0,0,0,0.1l-1,4.1
			L351.1,229.1z M353.3,235.4L353.3,235.4L353.3,235.4c-0.4-0.7-0.8-1.4-1.4-2.1l0.6-1.7c0,0,0,0,0-0.1c0-0.1,0.1-0.1,0.1-0.2
			l1.1-4.4l1.1,4.4c0,0.1,0.1,0.2,0.2,0.3l0.6,1.7c-0.5,0.7-1,1.4-1.3,2.1l0,0l-0.5,1L353.3,235.4z"/>
	</g>
	<path class="st1" d="M956.3,364H847.9H58.3c-4.8,0-8.7-3.9-8.7-8.7v0c0-4.8,3.9-8.7,8.7-8.7h898c4.8,0,8.7,3.9,8.7,8.7v0
		C965,360.1,961.1,364,956.3,364z"/>
</g>
<g id="lines">
	<path class="st3" d="M585.4,244.3h43.9c0,0,36.4,0.5,36.4-36.4"/>
	<path class="st4" d="M474.1,239.7h-13.9c0,0-36.4,0.5-36.4-36.4"/>
	<path class="st4" d="M718,145.6c0,0,67.9,0,112.4,0s40.2,40.2,40.2,40.2v64.4"/>
	<path class="st4" d="M252,192.5c0,0,0-8.6,0-33.5s24.3-24.3,24.3-24.3h103.8"/>
	<line class="st5" x1="513.2" y1="201.5" x2="513.2" y2="55.6"/>
	<circle class="st6" cx="258.7" cy="140.7" r="6.5"/>
	<circle class="st6" cx="513.4" cy="163.6" r="6.5"/>
	<circle class="st6" cx="631.1" cy="243.6" r="6.5"/>
	<circle class="st6" cx="871" cy="196.3" r="6.5"/>
	<path class="st7" d="M892.9,363.6v36.3c0,0-1.9,16.1,16.3,16.1c18.2,0,116.2,0,116.2,0"/>
	<path class="st7" d="M133,363.6v36.3c0,0,1.9,16.1-16.3,16.1S0.5,416,0.5,416"/>
	<circle class="st8" cx="132.4" cy="397.6" r="7.8"/>
	<circle class="st8" cx="936.1" cy="416.4" r="7.8"/>
	<path class="st7" d="M106.1,349.8v32.9c0,0,2.4,14.6-20.4,14.6s-145.4,0-145.4,0"/>
	<path class="st7" d="M838,365.1"/>
	<path class="st7" d="M855.2,363.6c0,0,0,18.3,0,32.5c0,14.1,14.1,14.1,14.1,14.1h30.4c0,0,12.9-2.6,12.9-12.9c0-10.4,0-10.4,0-10.4
		s-2-8.7,8.7-8.7c10.7,0,123,0,123,0"/>
	<circle class="st8" cx="855.2" cy="381.6" r="7.8"/>
	<path class="st1" d="M955.7,363.5H847.3H57.6c-4.8,0-8.7-3.9-8.7-8.7v0c0-4.8,3.9-8.7,8.7-8.7h898c4.8,0,8.7,3.9,8.7,8.7v0
		C964.3,359.6,960.4,363.5,955.7,363.5z"/>
</g>
<g id="clouds_right">
	<g>
		<path class="st9" d="M770,207.4L770,207.4c0,1.3,1,2.3,2.3,2.3h42.4c7.6,0,14.2-5.9,14.3-13.6c0.2-6.4-4-11.9-9.8-13.6
			c-1.8-6.4-7.6-11-14.5-11c-1,0-2,0.1-3,0.3c1.1,1.3,2,2.7,2.7,4.3c0.5,1.1,1.4,1.9,2.5,2.4c4.9,2.2,8.4,7.2,8.3,12.9
			c-0.1,7.7-6.7,13.7-14.4,13.7h-28.5C771.1,205.1,770,206.1,770,207.4z"/>
		<path class="st1" d="M743.6,191.4c0,7.7,6.2,13.9,13.9,13.9h44c7.7,0,13.9-6.2,13.9-13.9c0-6.3-4.1-11.5-9.8-13.3
			c-1.8-6.4-7.6-11-14.5-11c-1,0-2,0.1-3,0.3c-3.2-3.7-7.9-6.1-13.2-6.1c-9.2,0-16.7,7.2-17.3,16.2c0,0,0,0-0.1,0
			C749.8,177.5,743.6,183.7,743.6,191.4z"/>
	</g>
</g>
<g id="clouds_left">
	<g>
		<path class="st9" d="M197.9,178.9h-28.5c-7.7,0-14.2-6-14.4-13.7c-0.1-5.8,3.3-10.7,8.3-12.9c1.1-0.5,2-1.3,2.5-2.4
			c0.7-1.6,1.6-3,2.7-4.3c-1-0.2-2-0.3-3-0.3c-6.9,0-12.7,4.7-14.5,11c-5.8,1.8-10,7.2-9.8,13.6c0.2,7.6,6.7,13.6,14.3,13.6h42.4
			c1.3,0,2.3-1,2.3-2.3l0,0C200.2,179.9,199.2,178.9,197.9,178.9z"/>
		<path class="st1" d="M212.8,151.3C212.8,151.3,212.8,151.3,212.8,151.3c-0.7-9-8.2-16.2-17.4-16.2c-5.3,0-10,2.4-13.2,6.1
			c-1-0.2-2-0.3-3-0.3c-6.9,0-12.7,4.7-14.5,11c-5.7,1.7-9.8,7-9.8,13.3c0,7.7,6.2,13.9,13.9,13.9h44c7.7,0,13.9-6.2,13.9-13.9
			C226.7,157.5,220.5,151.3,212.8,151.3z"/>
	</g>
</g>
<g id="merlion">
	<path class="st1" d="M634.9,336.3h-2.2c0,0,0,0,0,0c0.1,0,0.1-0.1,0.2-0.1c0,0,0.1-0.1,0.1-0.1c0.1,0,0.1-0.1,0.1-0.1c0,0,0,0,0,0
		c0,0,0,0,0,0c0,0,0.1-0.1,0.1-0.1c0,0,0.1-0.1,0.1-0.1c0,0,0.1-0.1,0.1-0.1c0,0,0.1-0.1,0.1-0.1c0,0,0.1-0.1,0.1-0.1
		c0,0,0.1-0.1,0.1-0.1c0,0,0-0.1,0.1-0.1c0-0.1,0-0.1,0.1-0.2c0,0,0,0,0,0c0,0,0,0,0,0c0,0,0-0.1,0-0.1c0-0.1,0-0.1,0-0.2
		c0-0.1,0-0.1,0-0.2c0,0,0-0.1,0-0.1c0-0.1,0-0.1,0-0.2c0,0,0-0.1,0-0.1c0,0,0-0.1,0-0.1c0-0.1,0-0.1-0.1-0.2c0-0.1-0.1-0.2-0.1-0.3
		c0,0,0-0.1-0.1-0.1c0-0.1-0.1-0.1-0.1-0.2c0-0.1-0.1-0.1-0.1-0.1c0,0-0.1-0.1-0.1-0.1c0,0-0.1,0-0.1-0.1c-0.1,0-0.1-0.1-0.2-0.1
		c-0.1-0.1-0.2-0.1-0.3-0.2c0,0,0,0,0,0c-0.1,0-0.2-0.1-0.3-0.1c0,0-0.1,0-0.1,0c-0.1,0-0.1,0-0.2,0c-0.1,0-0.1,0-0.2,0
		c0,0-0.1,0-0.1,0c0,0,0,0,0,0c0,0,0,0,0,0c-0.1,0-0.2,0-0.3,0c-0.1,0-0.1,0-0.2,0c-0.1,0-0.2,0-0.2,0.1c0,0,0,0-0.1,0c0,0,0,0,0,0
		c-0.1,0-0.1,0.1-0.2,0.1c0,0-0.1,0-0.1,0.1c0,0,0,0-0.1,0c0,0,0,0,0,0c0,0,0,0,0,0c0,0,0,0,0,0c0,0,0,0-0.1,0.1
		c0,0-0.1,0.1-0.1,0.1c0,0,0,0-0.1,0.1c0,0,0,0,0,0c0,0,0,0,0,0.1c-0.1,0.1-0.1,0.1-0.1,0.2c0,0,0,0,0,0c0,0,0,0,0,0c0,0,0,0,0,0
		c0,0.1-0.1,0.2-0.1,0.3c0,0,0,0,0,0c0,0,0,0,0,0c0,0.2,0,0.3,0,0.3s-0.1-0.1-0.4-0.3c0,0,0,0,0,0c0,0,0,0,0,0c0,0-0.1,0-0.1-0.1
		c0,0-0.1-0.1-0.1-0.1c0,0,0,0,0,0c0,0,0,0,0,0c0,0,0,0,0,0c0,0,0,0,0,0c-0.1-0.1-0.2-0.2-0.3-0.2c0,0-0.1,0-0.1-0.1
		c-0.1-0.1-0.3-0.2-0.4-0.3c-0.5-0.3-1.1-0.7-1.6-1c-0.6-0.3-1.1-0.6-1.7-0.8c-0.6-0.2-1.2-0.5-1.8-0.6c-0.6-0.2-1.2-0.3-1.8-0.5
		c-0.6-0.1-1.3-0.2-1.9-0.2c-0.1,0-0.1,0-0.2,0c0.1-0.1,0.1-0.1,0.2-0.2c0,0,0,0,0,0c0,0,0,0,0,0c0.1-0.1,0.2-0.1,0.2-0.2
		c0,0,0,0,0.1-0.1c0.1-0.1,0.1-0.1,0.1-0.2c0,0,0,0,0-0.1c0.1-0.1,0.1-0.1,0.1-0.2c0,0,0,0,0,0c0,0,0-0.1,0.1-0.1c0,0,0,0,0,0
		c0,0,0,0,0,0c0,0,0,0,0,0c0,0,0-0.1,0.1-0.1c0,0,0,0,0-0.1c0.1-0.1,0.1-0.1,0.2-0.2c0.1-0.1,0.1-0.1,0.2-0.2c0,0,0,0,0,0
		c0,0,0,0,0-0.1c0.1-0.1,0.1-0.2,0.2-0.3c0.1-0.1,0.1-0.2,0.2-0.2c0.1-0.1,0.1-0.1,0.2-0.2c0,0,0,0,0,0c0,0,0,0,0,0
		c0.1-0.1,0.1-0.2,0.2-0.2c0,0,0,0,0.1-0.1c0.1-0.1,0.2-0.2,0.3-0.3c0,0-0.1-0.6-0.5-0.9c0,0,0,0-0.1-0.1c0,0,0,0,0,0
		c0-0.1,0-0.1,0-0.2c0,0,0-0.1,0-0.1c0,0,0,0,0,0c0,0,0.1-0.1,0.1-0.1c0,0,0,0,0-0.1c0,0,0.1-0.1,0.1-0.1c0,0,0,0,0-0.1
		c0,0,0.1-0.1,0.1-0.1c0,0,0-0.1,0-0.1c0-0.1,0.1-0.1,0.1-0.2c0,0,0,0,0,0c0.2-0.5,0.4-0.9,0.4-1c0,0,0,0,0-0.1
		c0.3-0.9,0.5-1.7,0.5-1.7c0,0,0,0,0,0c0,0,0-0.1,0-0.1c0,0,0,0,0-0.1c0-0.1,0.1-0.2,0.1-0.3c0,0,0-0.1,0-0.1c0-0.1,0.1-0.2,0.1-0.3
		c0,0,0,0,0,0c0,0,0,0,0,0c0-0.1-0.1-0.1-0.2-0.3c0,0,0,0,0,0c-0.1,0-0.1-0.1-0.2-0.1c0,0,0,0,0,0c0,0,0,0,0,0c0-0.1,0-0.2,0-0.4
		c0,0,0-0.1,0-0.1c0-0.1,0-0.3,0-0.4c0,0,0,0,0,0c0-0.1,0-0.3,0-0.4c0,0,0-0.1,0-0.1c0-0.1,0-0.3-0.1-0.4c0,0,0,0,0,0
		c0-0.1-0.1-0.3-0.1-0.4c0,0,0,0,0-0.1c-0.1-0.1-0.1-0.3-0.2-0.4c0,0,0,0,0,0c-0.1-0.1-0.2-0.2-0.3-0.3c0,0,0,0-0.1,0
		c-0.1-0.1-0.2-0.2-0.4-0.2c0,0,0,0,0,0c0,0,0,0,0,0c0-0.1,0-0.2,0-0.3c0,0,0,0,0,0c0-0.1,0-0.2,0-0.3c0,0,0,0,0,0
		c0-0.1,0-0.2-0.1-0.3c0,0,0-0.1,0-0.1c0-0.1,0-0.2-0.1-0.2c0,0,0-0.1,0-0.1c0-0.1-0.1-0.2-0.1-0.2c0,0,0,0,0-0.1
		c-0.1-0.2-0.2-0.4-0.3-0.5c0,0,0,0,0,0c-0.1-0.1-0.1-0.1-0.2-0.2c0,0,0,0,0,0c0,0,0,0,0,0c0,0,0-0.1,0-0.1c0,0,0-0.1-0.1-0.1
		c0,0,0-0.1-0.1-0.1c0,0,0-0.1-0.1-0.1c0,0,0-0.1-0.1-0.1c0-0.1-0.1-0.1-0.1-0.2c0,0,0-0.1-0.1-0.1c0-0.1-0.1-0.2-0.2-0.2
		c0,0,0,0,0-0.1c0-0.1-0.1-0.1-0.1-0.2c0,0,0,0-0.1-0.1c0,0-0.1-0.1-0.1-0.1c0,0,0,0-0.1-0.1c0-0.1-0.1-0.2-0.1-0.2
		c-0.1-0.3-0.2-0.6-0.3-1c0-0.1-0.1-0.3-0.1-0.4c-0.1-0.3-0.2-0.7-0.2-1c0-0.1-0.1-0.2-0.1-0.3c-0.1-0.4-0.2-0.8-0.2-1.1
		c0,0,0-0.1,0-0.1c-0.1-0.8-0.2-1.6-0.2-2.4c0-0.1,0-0.2,0-0.3c0-0.3,0-0.6,0-0.8c0-0.1,0-0.2,0-0.3c0-0.2,0-0.5,0-0.7
		c0-0.1,0-0.2,0-0.3c0-0.2,0-0.4,0.1-0.6c0-0.1,0-0.2,0-0.3c0-0.2,0.1-0.4,0.1-0.6c0-0.1,0-0.2,0.1-0.3c0-0.2,0.1-0.4,0.2-0.6
		c0-0.1,0-0.1,0-0.2c0.1-0.3,0.1-0.5,0.2-0.7c0-0.1,0-0.1,0.1-0.2c0.1-0.2,0.1-0.3,0.2-0.5c0-0.1,0.1-0.2,0.1-0.3
		c0-0.1,0.1-0.2,0.1-0.3c0-0.1,0.1-0.2,0.1-0.3c0.2-0.5,0.5-0.9,0.7-1.2c0.5-0.7,0.8-1.4,0.9-2.1c0,0,0-0.1,0-0.1c0,0,0,0,0,0
		c0-0.3,0-0.6,0-0.8c0,0,0-0.1,0-0.1c0-0.1-0.1-0.2-0.1-0.3c0,0,0-0.1,0-0.1c0-0.1-0.1-0.2-0.1-0.2c0,0,0,0,0-0.1
		c-0.1-0.1-0.1-0.2-0.2-0.3c0,0,0,0-0.1,0c-0.1-0.1-0.1-0.1-0.2-0.2c0,0-0.1,0-0.1-0.1c-0.1,0-0.1-0.1-0.2-0.1c0,0-0.1,0-0.1,0
		c-0.1,0-0.2-0.1-0.4-0.1c-0.1,0-0.3,0-0.4,0c0,0-0.1,0-0.1,0c-0.1,0-0.2,0-0.3,0c0,0-0.1,0-0.1,0c-0.1,0-0.2,0-0.2,0.1
		c0,0-0.1,0-0.1,0c-0.1,0-0.2,0.1-0.3,0.2c0,0,0,0,0,0c0,0,0,0,0,0c-0.9,0.5-1.4,1.5-1.4,1.5c-0.6-0.4-1.3,0-1.5,0.1
		c0.2-0.7,0.3-1.8,0.3-1.8c0-0.2,0.1-0.4,0.1-0.6c0,0.1,0,0.2,0,0.2c0,0.1,0,0.3-0.1,0.4c0,0,1-0.6,1.5-2.7c0.7-2.6-0.5-4.4-0.5-4.4
		c0,0,0,0.1,0,0.1c-0.2-0.3-0.3-0.5-0.4-0.6c0-0.3-0.1-0.5-0.2-0.7c0,0,0,0,0-0.1c0,0,0,0,0,0c-0.2-0.5-0.5-0.8-0.5-0.8
		c0.2,0,0.4,0,0.6,0.1c0.1,0,0.1,0,0.2,0c0.1,0,0.3,0,0.4,0c0,0,0.1,0,0.1,0c0.2,0,0.3,0,0.4-0.1c0,0,0,0,0,0c0.1,0,0.2-0.1,0.4-0.1
		c0,0,0.1,0,0.1,0c0.1,0,0.2-0.1,0.3-0.1c0,0,0.1,0,0.1,0c0.1,0,0.2-0.1,0.3-0.2c0,0,0,0,0,0c0.1,0,0.2-0.1,0.2-0.2c0,0,0,0,0.1-0.1
		c0.1,0,0.1-0.1,0.2-0.2c0,0,0,0,0,0c0.1-0.1,0.1-0.1,0.2-0.2c0,0,0,0,0,0c0-0.1,0.1-0.1,0.1-0.2c0,0,0,0,0-0.1
		c0-0.1,0.1-0.1,0.1-0.2c0,0,0,0,0,0c0-0.1,0.1-0.1,0.1-0.2c0,0,0,0,0,0c0.1-0.3,0.2-0.5,0.2-0.6c0.1-0.4-0.2-0.4-0.2-0.4s0,0,0,0
		c0.1-0.4,0.2-0.8-0.1-1.6c0,0,0-0.1,0-0.1c0-0.1-0.1-0.1-0.2,0.1l-0.3,0.8c0,0,0,0-0.1,0c-0.7,0-1.6,0-2.7,0c0,0-0.1-0.9-0.5-1.2
		c0,0,0,0,0,0c0,0,0,0,0,0c0,0,0,0,0,0c-0.2-0.1-0.2,0.1-0.3,0.4c0,0.1-0.1,0.1-0.1,0.2c0,0,0,0,0,0c0,0.1-0.1,0.2-0.2,0.2
		c0,0,0,0,0,0c-0.1,0.1-0.2,0.2-0.2,0.3c0,0,0,0,0,0c-0.1,0.1-0.2,0.2-0.4,0.3c-1.2-0.3-2.3-1.1-2.4-2.4c-0.1-2,2-2,2-2s0,0,0.1,0
		c0.4,0,0.8,0,1.2,0.1c0,0,0,0,0,0c0.1,0,0.1,0.1,0.2,0.1c0,0,0,0,0,0c0,0,0.1,0.1,0.1,0.1c0,0,0,0,0,0c0,0,0.1,0.1,0.1,0.1
		c0,0,0,0,0,0c0.1,0.1,0.1,0.1,0.1,0.2c0,0,0,0,0,0c0,0.1,0.1,0.1,0.1,0.2c0,0,0,0,0,0c0,0,0,0.1,0.1,0.1c0.1,0.3,0.1,0.6,0.3,0.5
		c0,0,0,0,0,0c0,0,0,0,0,0c0,0,0,0,0,0c0.4-0.3,0.6-1.1,0.6-1.1c1.1,0.1,2,0.2,2.7,0.3c0,0,0,0,0,0l0.1,0.8c0,0.1,0,0.1,0,0.1
		c0,0,0,0,0,0c0,0,0,0,0,0c0,0,0,0,0,0c0,0,0,0,0,0c0,0,0,0,0,0c0,0,0,0,0,0c0,0,0,0,0,0c0,0,0,0,0,0c0,0,0-0.1,0-0.1
		c0.3-0.4,0.5-0.9,0.5-1.3c0,0,0,0,0,0c0-0.1,0-0.2,0-0.2c0,0,0.1,0,0.1,0c0,0,0,0,0.1,0c0,0,0.1,0,0.1,0c0,0,0.1,0,0.1,0
		c0,0,0.1,0,0.1,0c0,0,0.1,0,0.1-0.1c0,0,0,0,0.1,0c0,0,0,0,0,0c0.3-0.2,0.5-0.6,0.7-1.2c0.4-1.7-0.5-2.7-0.5-2.7
		c0.1-0.1,0.1-0.2,0.2-0.3c0,0,0-0.1,0.1-0.1c0-0.1,0.1-0.1,0.1-0.2c0-0.1,0-0.1,0-0.2c0-0.1,0-0.1,0-0.2c0-0.1,0-0.1,0-0.2
		c0,0,0-0.1,0-0.1c0,0,0,0,0,0c0,0,0-0.1,0-0.1c0-0.1,0-0.2,0-0.3c0,0,0,0,0,0c-0.1-0.9-0.4-1.3-0.8-1.4c-0.3-0.2-0.6-0.2-0.6-0.2
		c-0.2-0.1-0.5-0.1-0.7-0.2c-0.9-0.3-1.7-0.5-2.4-0.6c-0.1-0.3-0.7-1.7-2.9-2.9c0,0-1.2-5.7-8.9-6.2c-0.2,0-0.4,0-0.7,0
		c-6.6-0.1-11,3.6-14.4,2.6c0,0-0.6,2.4,1.3,4.3c0,0-2,3.4-2.5,9.8c-0.5,7-3.2,8.5-3.2,8.5s0.4,1.6,1.4,3.1c0,0,0,0,0,0
		c-0.4,1.3-0.9,2.9-1.2,4c0,0,0.9,0.5,2.6,0.4c-0.5,2.2-1.5,5.4-3.2,7.4c0,0,0.2,0.6,0.7,0.8c-0.2,0.3-0.4,0.5-0.7,0.7
		c0.1,0,0.2,0,0.2,0v1l-0.1,0.2l-1,1.5c0,0,0,0.3,0.3,0.6c0,0,0,0,0,0c0,0,0.1,0.1,0.1,0.1c0,0,0,0,0,0c0,0,0.1,0.1,0.1,0.1
		c0,0,0,0,0,0c0,0,0,0,0,0c0,0,0,0,0,0c0,0,0,0,0,0c0,0,0,0,0,0c0,0,0,0,0,0c0,0,0,0-0.1,0.1c0,0,0,0,0,0c0,0,0,0,0,0c0,0,0,0,0,0
		c0,0,0,0-0.1,0.1c0,0,0,0.1-0.1,0.1c0,0,0,0,0,0c0,0,0,0,0,0c0,0,0,0,0,0c0,0,0,0,0,0c0,0,0,0,0,0c0,0,0,0,0,0c0,0,0,0,0,0
		c0,0,0,0,0,0c0,0,0,0,0,0c0,0,0,0,0,0c0,0,0,0,0,0c0,0,0,0,0,0c0,0,0,0,0,0c0,0,0,0,0,0c0,0,0,0,0,0c0,0,0,0,0,0c0,0,0,0,0,0
		c0,0,0,0,0,0c0,0,0,0,0,0c0,0,0,0,0,0c0,0,0,0,0,0l-0.1,0.2l0,0.1l-0.3,0.6l-0.2,0.4l-0.3,0.6l0,0l-0.5,0.9c0,0,0,0,0,0
		c0,0,0,0,0,0c0,0,0,0,0,0c0,0,0,0,0,0.1c0,0,0,0,0,0c0,0,0,0,0,0.1c0,0,0,0,0,0c0,0,0,0.1,0,0.1c0,0,0,0,0,0.1c0,0,0,0.1,0.1,0.1
		c0,0,0,0,0,0.1c0,0,0.1,0.1,0.1,0.1c0,0,0,0,0.1,0.1c0,0,0.1,0.1,0.1,0.1c0,0,0,0,0,0l-0.3,1.7l-0.2,1c0,0,0,0,0,0c0,0,0,0,0,0
		c0,0,0,0,0,0c0,0,0,0,0,0c0,0,0,0,0,0c0,0,0,0,0,0.1c0,0,0,0,0,0c0,0,0,0,0.1,0.1c0,0,0,0,0,0c0,0,0.1,0,0.1,0.1c0,0,0,0,0,0
		c0.1,0.1,0.1,0.1,0.2,0.1c0,0,0,0,0.1,0l0,0l-0.1,0.2l0,0.2l-0.1,0.5l0,0.1l-0.4,1.6c0,0,0,0,0,0c0,0,0,0,0,0c0,0,0.1,0.1,0.1,0.1
		c0,0,0,0,0,0c0,0.1,0.1,0.1,0.2,0.2c0,0,0,0,0,0c0.1,0.1,0.1,0.1,0.2,0.2c0,0,0,0,0,0l0,0.7l-0.1,1.3c0,0,0.1,0.1,0.2,0.2
		c0,0,0,0,0,0c0,0,0.1,0.1,0.1,0.1c0,0,0,0,0,0l-0.3,1c0,0,0.1,0.3,0.5,0.5c0,0,0,0,0,0c0,0,0.1,0.1,0.1,0.1c0,0,0,0,0,0
		c0,0,0.1,0.1,0.1,0.1c0,0,0,0,0.1,0l0,0.6l0,0.3l0,0.9l0,1c0,0,0.1,0.1,0.1,0.1c0,0,0,0,0,0c0,0,0.1,0,0.1,0.1c0,0,0,0,0,0
		c0,0,0.1,0,0.1,0.1c0,0,0,0,0,0c0,0,0.1,0,0.1,0.1c0,0,0,0,0.1,0c0,0,0.1,0,0.1,0c0,0,0,0,0.1,0c0,0,0.1,0,0.1,0c0,0,0,0,0.1,0l0,0
		l-0.1,1.6l-0.1,1c0,0,0,0,0,0c0,0,0,0,0,0c0,0.1,0.1,0.1,0.3,0.2c0,0,0,0,0,0c0.1,0,0.1,0.1,0.2,0.1c0,0,0,0,0,0c0,0,0,0,0,0
		c0,0,0,0,0,0c0,0,0,0,0,0c0,0,0,0,0,0.1c0,0,0,0,0,0c0,0,0,0,0,0c0,0,0,0,0,0.1c0,0,0,0,0,0c0,0,0,0,0,0c0,0,0,0,0,0c0,0,0,0,0,0
		c0,0,0,0,0,0c0,0,0,0,0,0c0,0,0,0,0,0l0.1,0.2l0.1,0.3l0.1,0.3l0.1,0.6l0.4,1.7c0,0,0,0,0,0c0,0,0,0,0,0c0,0,0.1,0,0.2,0.1
		c0,0,0,0,0,0c0.1,0,0.1,0.1,0.2,0.1c0,0,0,0,0,0c0.1,0,0.2,0,0.3,0c0,0,0,0,0,0l0,0.1l0.1,0.4l0,0.1l0.3,0.9l0.1,0.3l-0.1,0
		l-0.2-0.1l-0.2-0.1c-0.3-0.1-0.6-0.2-0.8-0.3l-0.8-0.2c-0.6-0.1-1.1-0.2-1.7-0.3c-0.6-0.1-1.2-0.1-1.8-0.1c-0.6,0-1.2,0.1-1.7,0.2
		c-0.6,0.1-1.1,0.2-1.7,0.4c-0.6,0.2-1.1,0.3-1.7,0.6c-0.5,0.2-1.1,0.4-1.6,0.7c-0.5,0.3-1,0.5-1.5,0.9c-0.1,0.1-0.2,0.2-0.4,0.2
		c0,0,0,0-0.1,0c-0.1,0.1-0.3,0.2-0.4,0.3c-0.4,0.3-0.6,0.5-0.6,0.5s0-0.1,0-0.3c0,0,0,0,0,0c0-0.1,0-0.2-0.1-0.2c0,0,0,0,0,0
		c0-0.1-0.1-0.1-0.1-0.2c0,0,0,0,0,0c0,0,0,0-0.1-0.1c0,0-0.1-0.1-0.1-0.1c0,0,0,0-0.1-0.1c0,0,0,0,0,0c0,0,0,0,0,0c0,0,0,0-0.1,0
		c0,0,0,0,0,0c0,0-0.1,0-0.1-0.1c0,0-0.1-0.1-0.1-0.1c0,0,0,0,0,0c0,0,0,0,0,0c-0.1,0-0.2-0.1-0.2-0.1c-0.1,0-0.1,0-0.2,0
		c-0.1,0-0.2,0-0.3,0c0,0,0,0,0,0c0,0,0,0,0,0c0,0,0,0-0.1,0c-0.1,0-0.2,0-0.2,0c-0.1,0-0.1,0-0.2,0c0,0-0.1,0-0.1,0
		c-0.1,0-0.1,0-0.2,0.1c0,0-0.1,0-0.1,0c-0.1,0-0.1,0.1-0.2,0.1c0,0,0,0,0,0c0,0,0,0,0,0c0,0,0,0,0,0c0,0-0.1,0.1-0.1,0.1
		c0,0-0.1,0-0.1,0.1c0,0,0,0-0.1,0.1c0,0-0.1,0.1-0.1,0.1c0,0-0.1,0.1-0.1,0.1c0,0-0.1,0.1-0.1,0.1c-0.1,0.1-0.1,0.2-0.1,0.3
		c0,0,0,0,0,0c0,0,0,0,0,0c0,0,0,0,0,0c0,0.1,0,0.1-0.1,0.2c0,0,0,0.1,0,0.1c0,0,0,0.1,0,0.1c0,0.1,0,0.1,0,0.2c0,0,0,0.1,0,0.1
		c0,0.1,0,0.1,0,0.2c0,0,0,0.1,0,0.1c0,0,0,0.1,0,0.1c0,0,0,0,0,0c0,0,0,0,0,0c0,0,0,0.1,0,0.1c0,0,0,0.1,0,0.1c0,0.1,0,0.1,0.1,0.1
		c0,0,0,0.1,0.1,0.1c0,0.1,0.1,0.1,0.1,0.2c0,0,0,0.1,0.1,0.1c0,0,0,0.1,0.1,0.1h-0.3c-0.5,0-0.9,0.4-0.9,0.9c0,0.5,0.4,0.9,0.9,0.9
		h0.7v1.3v16.7h63.7v-16.7v-1.3h0.4c0.5,0,0.9-0.4,0.9-0.9C635.9,336.7,635.4,336.3,634.9,336.3z M612.9,316.8
		C612.9,316.8,613,316.8,612.9,316.8c0.1,0.1,0.1,0.2,0.2,0.3c0,0,0,0,0,0c0,0,0,0,0,0c0.1,0.1,0.1,0.2,0.1,0.2
		c0,0.1,0.1,0.1,0.1,0.2c0,0,0,0,0,0c-0.5,0.1-1,0.4-1,0.4c0,0.1,0,0.2,0,0.4c0,0,0,0,0,0.1c0,0.1,0,0.2,0,0.3c0,0,0,0.1,0,0.1
		c0,0,0,0.1,0,0.1c0,0,0,0,0,0c0,0.1,0,0.2,0,0.3c0,0.1,0,0.2,0,0.3c0,0.2,0,0.2,0,0.4c0,0,0,0.1,0,0.1c0,0,0,0.1,0,0.1
		c0,0.1,0,0.1,0,0.2c0,0,0,0.1,0,0.1c0-0.2-0.1-0.3-0.2-0.4c-0.2-0.2-0.3-0.3-0.4-0.2l-0.1,0c0,0,0,0,0,0c-0.3,0.1-0.7,0.5-1.9,0.2
		c-2-0.4-2.7-3.5-0.6-4.9c2-1.4,4.2,0.6,4.2,0.6l0,0c0,0,0,0,0-0.1c0,0,0,0.1,0,0.1c0,0-0.1,0.1-0.1,0.1c-0.4,0.2-0.6,0.7-0.6,0.7
		C612.8,316.6,612.9,316.7,612.9,316.8z"/>
</g>
<g id="eye_of_sg">
	<g id="wheel">
		<circle id="etoa9ta9qgia244_1_" class="st1" cx="133.1" cy="266.6" r="5.5"/>
		<circle id="etoa9ta9qgia264_1_" class="st1" cx="68.1" cy="317.5" r="5.5"/>
		<circle id="etoa9ta9qgia265_1_" class="st1" cx="86.2" cy="318.5" r="5.5"/>
		<g>
			<circle id="etoa9ta9qgia246_1_" class="st1" cx="35.2" cy="255.5" r="5.5"/>
			<circle id="etoa9ta9qgia247_1_" class="st1" cx="32.3" cy="272.8" r="5.5"/>
			<circle id="etoa9ta9qgia248_1_" class="st1" cx="37.5" cy="291.5" r="5.5"/>
			<line id="etoa9ta9qgia249_1_" class="st10" x1="80.4" y1="225.2" x2="85.7" y2="310"/>
			<line id="etoa9ta9qgia250_1_" class="st10" x1="124.6" y1="267" x2="39.8" y2="272.3"/>
			<line id="etoa9ta9qgia251_1_" class="st10" x1="111.3" y1="237.7" x2="55.1" y2="301.4"/>
			<line id="etoa9ta9qgia252_1_" class="st10" x1="115.2" y1="297.5" x2="51.5" y2="241.3"/>
			<line id="etoa9ta9qgia253_1_" class="st10" x1="124.2" y1="281.2" x2="42.5" y2="257.6"/>
			<line id="etoa9ta9qgia254_1_" class="st10" x1="122.4" y1="252.6" x2="44.3" y2="286.2"/>
			<line id="etoa9ta9qgia255_1_" class="st10" x1="95.2" y1="228.6" x2="71.5" y2="310.2"/>
			<line id="etoa9ta9qgia256_1_" class="st10" x1="64.7" y1="232.3" x2="102.1" y2="308.6"/>
			<circle id="etoa9ta9qgia257_1_" class="st1" cx="99.2" cy="221.6" r="5.5"/>
			<circle id="etoa9ta9qgia258_1_" class="st1" cx="115.9" cy="232.5" r="5.5"/>
			<circle id="etoa9ta9qgia259_1_" class="st1" cx="61.3" cy="223.7" r="5.5"/>
			<circle id="etoa9ta9qgia260_1_" class="st1" cx="46.1" cy="236.8" r="5.5"/>
			<circle id="etoa9ta9qgia261_1_" class="st1" cx="79" cy="218.7" r="5.5"/>
			<circle id="etoa9ta9qgia262_1_" class="st1" cx="128.1" cy="250.8" r="5.5"/>
			<circle id="etoa9ta9qgia263_1_" class="st1" cx="50.4" cy="306.7" r="5.5"/>
			<circle id="etoa9ta9qgia266_1_" class="st1" cx="130.2" cy="283.7" r="5.5"/>
			<circle id="etoa9ta9qgia267_1_" class="st1" cx="119.4" cy="304.4" r="5.5"/>
			<circle id="etoa9ta9qgia268_1_" class="st1" cx="105.1" cy="315.4" r="5.5"/>
			<circle id="etoa9ta9qgia269_1_" class="st11" cx="82.7" cy="269.6" r="44.5"/>
		</g>
	</g>
	<g id="legs">
		<polygon id="etoa9ta9qgia271_1_" class="st1" points="81.5,269.8 83.2,270 75.5,346.7 73.8,346.5 		"/>
		<polygon id="etoa9ta9qgia272_1_" class="st1" points="84.2,270.2 82.4,270.4 90.1,347.1 91.8,346.9 		"/>
		<circle id="etoa9ta9qgia273_1_" class="st1" cx="82.4" cy="269.9" r="7"/>
	</g>
</g>
<g id="hand">
	<g id="_x33__fingers">
	</g>
	<path class="st12" d="M537.9,283.5l-2.1,2.6c-1.7,2.1-3.6,5.8-0.3,9c4.1,3.9,8.3-0.3,9.9-2l1.8-2.3c1.7-2.1,4.1-5.9,0.5-9.3
		C543.7,277.6,539.5,281.8,537.9,283.5z"/>
	<path class="st12" d="M537.9,266.9l-2.1,2.6c-1.7,2.1-3.6,5.8-0.3,9c4.1,3.9,8.3-0.3,9.9-2l1.8-2.3c1.7-2.1,4.1-5.9,0.5-9.3
		C543.7,261,539.5,265.2,537.9,266.9z"/>
	<path class="st12" d="M537.9,250.1l-2.1,2.6c-1.7,2.1-3.6,5.8-0.3,9c4.1,3.9,8.3-0.3,9.9-2l1.8-2.3c1.7-2.1,4.1-5.9,0.5-9.3
		C543.7,244.2,539.5,248.4,537.9,250.1z"/>
	<path class="st12" d="M539.3,227.8l-6.4,8.4c-1.7,2.1-9.4,5.8-6.1,9c4.1,3.9,9,4,10.6,2.3l11.3-12.5c1.7-2.1,4.1-6,0.5-9.3
		C545.1,221.9,540.8,226.1,539.3,227.8z"/>
	<path class="st12" d="M479.9,255.7c-0.2,13.5-1.4,43.3-1.4,43.3s-0.5,6.1,1.9,8.9c2.4,2.8,6.1,4,6.1,4l-6.1,12.6l36.7,7.8l18.2-26
		l-47.5-44.4C487.9,261.9,489.3,255,479.9,255.7z"/>
	<polygon class="st13" points="481.9,312.9 450.3,364.4 499.1,364.4 520.1,330.2 	"/>
	<g id="smartphone_1_">
		<g>
			<path class="st14" d="M530.8,313.3h-36.3c-4.7,0-8.6-3.9-8.6-8.6v-86c0-4.7,3.9-8.6,8.6-8.6h36.3c4.7,0,8.6,3.9,8.6,8.6v86
				C539.4,309.4,535.5,313.3,530.8,313.3z"/>
			<path class="st15" d="M529.1,309.9h-33c-3.9,0-7.1-3.2-7.1-7.1v-81.7c0-3.9,3.2-7.1,7.1-7.1h33c3.9,0,7.1,3.2,7.1,7.1v81.7
				C536.2,306.7,533,309.9,529.1,309.9z"/>
			<path class="st14" d="M522.7,217.4h-19c-0.2,0-0.3-0.2-0.3-0.3l0,0c0-0.2,0.2-0.3,0.3-0.3h19c0.2,0,0.3,0.2,0.3,0.3l0,0
				C523,217.3,522.9,217.4,522.7,217.4z"/>
		</g>
	</g>
	<g>
		<path class="st16" d="M510,247c-0.1,0.5,0.1,0.8,0.5,1c3.1,2.5,6.3,5.1,9.4,7.6c0.5,0.5,0.9,0.5,1.4,0.2c1.7-0.5,3.1,0.1,4.3,1.4
			c1,1.4,1.3,3,0.5,4.5s-2.2,2.5-3.8,2.2c-1.3-0.2-2,0.5-2.8,1c-1.7,1.4-3.6,2.9-5.3,4.3c-0.6,0.5-1,0.7-1.7,0.6
			c-0.8-0.1-1.4-0.6-1.6-1.3c-0.2-0.9-0.1-1.5,0.7-2.2c1.5-1.3,3.1-2.5,4.8-3.8c0.5-0.3,0.9-0.8,1.3-1c0.7-0.5,0.9-0.9,0.8-1.6
			c0-0.3-0.1-0.7-0.5-0.9c-3.2-2.6-6.7-5.2-9.9-7.8c-0.3-0.2-0.7-0.3-1-0.2c-2.3,0.7-4.6-0.8-5.2-3.1c-0.6-2.2,1-4.4,3.1-4.9
			C507.6,242.3,510,244.2,510,247z"/>
		<path class="st8" d="M505.9,269.1c2.3,0,4.3,1.8,4.1,4.3c0,2.3-2,4.1-4.1,4.1c-2.3,0-4.1-2-4.1-4.3
			C501.7,271,503.5,269.1,505.9,269.1z"/>
	</g>
</g>
<g id="hackathon_laptop">
	<g>
		<path class="st14" d="M625.3,105.3H711c1.6,0,3,1.3,3,3v53.5c0,1.6-1.3,3-3,3h-85.7c-1.6,0-3-1.3-3-3v-53.5
			C622.3,106.6,623.6,105.3,625.3,105.3L625.3,105.3z"/>
		<path class="st17" d="M627.7,110.3h80.7v49.4h-80.7V110.3z"/>
		<path class="st14" d="M712,164.7h-87.9c-1.1,0-2,0.5-2.7,1.4l-16.8,29.5c-0.8,1.5-0.3,2.6,1.2,2.6h124.4c1.5,0,2-1.2,1.2-2.6
			l-16.8-29.5C714.1,165.2,713.1,164.7,712,164.7L712,164.7z"/>
		<path class="st18" d="M708.4,168.6h-80.6c-1.1,0-2.2,0.6-2.8,1.5l-4.4,8.7c-0.5,1,0,1.9,1.3,1.9h92.2c1.3,0,1.9-0.9,1.3-1.9
			l-4.4-8.7C710.6,169.2,709.5,168.6,708.4,168.6z"/>
		<g>
			<line class="st19" x1="670" y1="130.7" x2="666.1" y2="139.9"/>
			<circle class="st20" cx="670.1" cy="130.6" r="0.8"/>
			<circle class="st19" cx="668" cy="135.2" r="16.3"/>
			<circle class="st20" cx="666.1" cy="139.8" r="0.8"/>
			<polyline class="st19" points="671.4,137.3 676.7,134.7 671.4,132.3 			"/>
			<circle class="st20" cx="671.4" cy="137.3" r="0.8"/>
			<circle class="st20" cx="671.4" cy="132.4" r="0.8"/>
			<g>
				<polyline class="st19" points="664.8,132.3 659.5,134.9 664.8,137.2 				"/>
				<circle class="st20" cx="664.7" cy="132.3" r="0.8"/>
				<circle class="st20" cx="664.7" cy="137.2" r="0.8"/>
			</g>
		</g>
	</g>
</g>
<g id="test_tube_ipad_1_">
	<g id="Layer_1_1_">
	</g>
	<g>
		<g>
			<path class="st20" d="M1524.3,449.4c1.9,0,1.9-3,0-3C1522.4,446.4,1522.4,449.4,1524.3,449.4L1524.3,449.4z"/>
		</g>
	</g>
	<g>
		<path class="st21" d="M908.6,351.1h-99.8c-4.4,0-8-3.6-8-8v-77.8c0-4.4,3.6-8,8-8h99.8c4.4,0,8,3.6,8,8v77.8
			C916.6,347.5,913,351.1,908.6,351.1z"/>
		<circle class="st20" cx="863.6" cy="286.1" r="1.3"/>
		<circle class="st20" cx="863.6" cy="295.7" r="1.3"/>
		<circle class="st20" cx="873.4" cy="295.7" r="1.3"/>
		<circle class="st20" cx="873.4" cy="305.1" r="1.3"/>
		<circle class="st20" cx="863.6" cy="305.1" r="1.3"/>
		<circle class="st20" cx="863.6" cy="315.1" r="1.3"/>
		<circle class="st20" cx="853.1" cy="305.1" r="1.3"/>
		<circle class="st20" cx="843.8" cy="295.7" r="1.3"/>
		<circle class="st20" cx="843.8" cy="305.1" r="1.3"/>
		<circle class="st20" cx="853.1" cy="315.3" r="1.3"/>
		<polyline class="st22" points="863.4,285.9 873.4,295.9 853.1,315.1 		"/>
		<line class="st22" x1="873.4" y1="305.1" x2="863.5" y2="315"/>
		<line class="st22" x1="863.6" y1="295.7" x2="853.1" y2="305.1"/>
		<g>
			<circle class="st23" cx="853.1" cy="293.8" r="0.9"/>
			<rect x="851.8" y="295" class="st23" width="2.9" height="2.9"/>
		</g>
		<g>
			<circle class="st23" cx="873.4" cy="313.4" r="0.9"/>
			<rect x="872" y="314.6" class="st23" width="2.9" height="2.9"/>
		</g>
		<g>
			<circle class="st20" cx="853.1" cy="284" r="0.9"/>
			<rect x="851.8" y="285.2" class="st20" width="2.9" height="2.9"/>
		</g>
		<g>
			<circle class="st20" cx="844.2" cy="312.8" r="0.9"/>
			<rect x="842.8" y="314" class="st20" width="2.9" height="2.9"/>
		</g>
		<circle class="st23" cx="873.4" cy="286.3" r="1.3"/>
		<circle class="st23" cx="843.8" cy="286.3" r="1.3"/>
		<line class="st22" x1="853.1" y1="286.7" x2="843.8" y2="295.7"/>
		<circle class="st22" cx="858.7" cy="300.6" r="32.8"/>
	</g>
</g>
<g id="search">
	<g id="Layer_1_2_">
	</g>
	<g>
		<path class="st14" d="M397,185l-5.6-5.6l9.9-9.9l5.6,5.6L397,185z"/>
		<path class="st14" d="M452.4,124c-14.1-14-36.9-14-50.9,0.1c-14,14.1-14,36.9,0.1,50.9c14.1,14,36.8,14,50.9,0
			C466.5,161,466.5,138.2,452.4,124C452.4,124.1,452.4,124,452.4,124z M406.4,170c-11.3-11.3-11.3-29.7,0-41
			c11.3-11.3,29.7-11.3,41,0c11.3,11.3,11.3,29.7,0,41C436.1,181.3,417.8,181.3,406.4,170C406.4,170,406.4,170,406.4,170L406.4,170z
			"/>
		<path class="st14" d="M400.8,183.8l-8.2-8.2c-1-1-2.7-1-3.7,0l-31.2,31.2c-1,1-1,2.7,0,3.7l8.2,8.2c1,1,2.7,1,3.7,0l31.2-31.2
			C401.8,186.5,401.8,184.9,400.8,183.8"/>
		<path class="st18" d="M399.2,186l-1.5-1.5l-21.6,22.1l1.5,1.5L399.2,186z"/>
		<g>
			<circle class="st23" cx="414.7" cy="144.1" r="3.7"/>
			<rect x="408.8" y="149.4" class="st23" width="12.2" height="12.2"/>
		</g>
		<g>
			<circle class="st20" cx="441.5" cy="144.1" r="3.7"/>
			<rect x="435.7" y="149.4" class="st20" width="12.2" height="12.2"/>
		</g>
		<line class="st22" x1="432.3" y1="152.8" x2="423.8" y2="152.8"/>
		<path class="st24" d="M430.7,151.6"/>
		<circle class="st20" cx="432.3" cy="152.7" r="1.5"/>
		<line class="st25" x1="424.6" y1="157.4" x2="432.1" y2="157.4"/>
		<path class="st24" d="M426,158.5"/>
		<circle class="st23" cx="424.6" cy="157.5" r="1.3"/>
		<polyline class="st20" points="424.2,151.2 422.1,152.7 424.2,154.1 		"/>
		<polyline class="st23" points="431.7,158.8 433.6,157.5 431.7,156.2 		"/>
	</g>
</g>
<g id="palne">
	<g id="surface1_1_">
		<path class="st1" d="M549.1,189l4.3,2.7l-1,0.3c-0.3,0.1-0.5,0.4-0.4,0.8l0.9,3.3c0,0.2,0.1,0.3,0.3,0.4c0.1,0.1,0.3,0.1,0.4,0.1
			l10.7-3.6l0.3-1.4l0.5-1.9c0.1-0.3,0.3-0.4,0.5-0.4c0.2,0,0.3,0.2,0.3,0.3c0,0.1,0,0.2,0,0.2l-3.1,13.2c0.2,0.2,0.5,0.4,0.9,0.3
			c0.5-0.1,0.9-0.6,1.4-1.4l6.8-14.3l0.2-0.4c0.1-0.2,0.4-0.3,0.6-0.2c0.2,0.1,0.3,0.4,0.2,0.6c0,0,0,0,0,0l-0.7,1.4l-0.7,1.6
			l8.4-2.8c2.4-0.8,3.9-3,3.4-4.9c-0.3-1-1.1-1.8-2-2c-1.1-0.3-2.2-0.3-3.2,0.1l-9.5,3.2l-8.9-5.4c-1.1-0.7-2.1-0.8-2.8-0.4
			c-0.6,0.4-1.1,1.1-1.2,1.9c0,0.2,0,0.4,0.2,0.5l5.7,5.7l-3.9,1.4l-5.9-2.6c-0.2-0.1-0.5,0-0.7,0.2l-2,2.8
			C548.8,188.4,548.8,188.8,549.1,189C549.1,189,549.1,189,549.1,189z"/>
	</g>
</g>
<g id="Layer_9">
	<g>
		<path class="st26" d="M722.8,252.6h-60.6v47.3h71.4v-36.5L722.8,252.6z"/>
		<path class="st27" d="M722.8,263.4h10.8l-10.8-10.7V263.4z"/>
		<g>
			<g>
				<circle class="st23" cx="678.2" cy="268.6" r="3.3"/>
				<rect x="673.1" y="273.3" class="st23" width="10.8" height="10.8"/>
			</g>
			<g>
				<circle class="st20" cx="690.9" cy="268.6" r="3.3"/>
				<rect x="685.7" y="273.3" class="st20" width="10.8" height="10.8"/>
			</g>
			<g>
				<circle class="st13" cx="703.3" cy="268.6" r="3.3"/>
				<rect x="698.2" y="273.3" class="st13" width="10.8" height="10.8"/>
			</g>
			<g>
				<circle class="st1" cx="715.5" cy="268.6" r="3.3"/>
				<rect x="710.4" y="273.3" class="st1" width="10.8" height="10.8"/>
			</g>
		</g>
	</g>
</g>
<g id="Layer_10">
	<g>
		<path class="st28" d="M388.2,303.4h60.6v-47.3h-71.4v36.5L388.2,303.4z"/>
		<path class="st27" d="M388.2,292.7h-10.8l10.8,10.7V292.7z"/>
		<g>
			<g>
				<path class="st29" d="M428.4,284.5c-0.8,3.7-4,6.5-8,6.5c-4.5,0-8.1-3.6-8.1-8.1c0-4.5,3.6-8.1,8.1-8.1c2.6,0-0.8,2.7,0.6,5.4
					c0.5,0.9,2.9-0.2,4.4,0.5C427.4,281.6,428.5,284.4,428.4,284.5z"/>
				<rect x="419.8" y="272" class="st14" width="2.3" height="9.4"/>
				
					<rect x="426.7" y="279.1" transform="matrix(0.8926 -0.4508 0.4508 0.8926 -81.8655 223.3521)" class="st14" width="2.3" height="8.9"/>
				
					<rect x="422.4" y="276.6" transform="matrix(3.380058e-11 -1 1 3.380058e-11 143.3299 703.6613)" class="st14" width="2.3" height="7"/>
				<circle class="st14" cx="420.9" cy="271.4" r="3.1"/>
				
					<rect x="430.4" y="284.9" transform="matrix(-8.220755e-03 -1 1 -8.220755e-03 147.5505 720.7216)" class="st14" width="1.6" height="4.6"/>
			</g>
			<g>
				<circle class="st13" cx="401.8" cy="272.3" r="3.6"/>
				<rect x="396.2" y="277.4" class="st13" width="11.8" height="11.8"/>
			</g>
		</g>
	</g>
</g>
<g id="projects">
	<g>
		<path class="st14" d="M267.4,316.2H257V203.5c0-1.7-1.4-3.1-3.1-3.1c-1.7,0-3.1,1.4-3.1,3.1v112.7h-10.5c-1.1,0-2,0.9-2,2v0v3.4
			h31.3v-3.4C269.5,317.1,268.6,316.2,267.4,316.2C267.5,316.2,267.5,316.2,267.4,316.2z"/>
		<path class="st30" d="M205.5,216.4h95v65.3h-95V216.4z"/>
		<path class="st14" d="M301.1,210.6H205c-1.6,0-2.9,1.3-2.9,2.9s1.3,2.9,2.9,2.9h96.1c1.6,0,2.9-1.3,2.9-2.9
			S302.7,210.6,301.1,210.6z"/>
		<path class="st14" d="M301.7,279.9h-97.4c-0.8,0-1.4,0.6-1.4,1.4s0.6,1.4,1.4,1.4h97.4c0.8,0,1.4-0.6,1.4-1.4
			S302.5,279.9,301.7,279.9z"/>
		<g id="Layer_2_1_">
			<circle class="st20" cx="241.2" cy="244.7" r="0.5"/>
			<circle class="st20" cx="240.6" cy="251.5" r="0.5"/>
			<rect x="244.8" y="234.4" class="st22" width="19.4" height="19.4"/>
			<line class="st22" x1="251.3" y1="234.2" x2="251.3" y2="231.1"/>
			<line class="st22" x1="258.7" y1="253.7" x2="258.7" y2="257.6"/>
			<line class="st22" x1="264.1" y1="238.4" x2="268.1" y2="238.4"/>
			<line class="st22" x1="240.6" y1="251.5" x2="244.8" y2="251.5"/>
			<polyline class="st22" points="241.2,244.8 239,240.8 244.7,237.9 			"/>
			<polyline class="st22" points="267.6,242.7 269.8,246.7 264.1,249.6 			"/>
			<circle class="st20" cx="251.3" cy="231.1" r="0.5"/>
			<circle class="st20" cx="267.6" cy="242.7" r="0.5"/>
			<circle class="st20" cx="268" cy="238.4" r="0.5"/>
			<circle class="st20" cx="258.7" cy="257.6" r="0.5"/>
			<rect x="249.6" y="239.2" class="st22" width="9.7" height="9.7"/>
			<g>
				<path class="st16" d="M253.8,242.7c0,0.1,0,0.1,0.1,0.1c0.3,0.3,0.6,0.5,0.9,0.8c0.1,0.1,0.1,0.1,0.1,0c0.2-0.1,0.3,0,0.4,0.1
					c0.1,0.1,0.1,0.3,0.1,0.4c-0.1,0.2-0.2,0.3-0.4,0.2c-0.1,0-0.2,0.1-0.3,0.1c-0.2,0.1-0.4,0.3-0.5,0.4c-0.1,0.1-0.1,0.1-0.2,0.1
					c-0.1,0-0.1-0.1-0.2-0.1c0-0.1,0-0.2,0.1-0.2c0.2-0.1,0.3-0.3,0.5-0.4c0.1,0,0.1-0.1,0.1-0.1c0.1-0.1,0.1-0.1,0.1-0.2
					c0,0,0-0.1-0.1-0.1c-0.3-0.3-0.7-0.5-1-0.8c0,0-0.1,0-0.1,0c-0.2,0.1-0.5-0.1-0.5-0.3c-0.1-0.2,0.1-0.4,0.3-0.5
					C253.6,242.2,253.8,242.4,253.8,242.7z"/>
				<path class="st8" d="M253.4,244.9c0.2,0,0.4,0.2,0.4,0.4c0,0.2-0.2,0.4-0.4,0.4s-0.4-0.2-0.4-0.4
					C253,245.1,253.2,244.9,253.4,244.9z"/>
			</g>
			<circle class="st22" cx="253.9" cy="243.9" r="22.4"/>
		</g>
	</g>
</g>
</svg>
