<svg id="exyo8y3l89as1" xmlns="http://www.w3.org/2000/svg" xmlns:xlink="http://www.w3.org/1999/xlink" viewBox="0 0 720 350" shape-rendering="geometricPrecision" text-rendering="geometricPrecision"><style><![CDATA[#exyo8y3l89as160_tr {animation: exyo8y3l89as160_tr__tr 4000ms linear infinite normal forwards}@keyframes exyo8y3l89as160_tr__tr { 0% {transform: translate(548.530881px,46.378306px) rotate(0deg)} 57.500000% {transform: translate(548.530881px,46.378306px) rotate(-40deg)} 100% {transform: translate(548.530881px,46.378306px) rotate(0deg)} }#exyo8y3l89as170_tr {animation: exyo8y3l89as170_tr__tr 4000ms linear infinite normal forwards}@keyframes exyo8y3l89as170_tr__tr { 0% {transform: translate(166.887461px,154.893226px) rotate(-60deg)} 32.500000% {transform: translate(166.887461px,154.893226px) rotate(0deg)} 64.500000% {transform: translate(166.887461px,154.893226px) rotate(0deg)} 100% {transform: translate(166.887461px,154.893226px) rotate(-60deg)} }]]></style><g id="exyo8y3l89as2" display="none"><rect id="exyo8y3l89as3" width="720.800000" height="348.300000" rx="0" ry="0" transform="matrix(1 0 0 1 -0.80000000000001 1.69999999999999)" fill="rgb(107,233,247)" stroke="none" stroke-width="1"/></g><g id="exyo8y3l89as4"><path id="exyo8y3l89as5" d="M386,79.500000L324,79.500000C320.700000,79.500000,318,76.800000,318,73.500000L318,61.500000C318,58.200000,320.700000,55.500000,324,55.500000L386,55.500000C389.300000,55.500000,392,58.200000,392,61.500000L392,73.500000C392,76.800000,389.300000,79.500000,386,79.500000Z" transform="matrix(1 0 0 1 0.84581599999996 0)" fill="rgb(104,104,104)" stroke="none" stroke-width="1"/><path id="exyo8y3l89as6" d="M398.700000,212.200000L311.400000,212.200000C308.100000,212.200000,305.400000,209.500000,305.400000,206.200000L305.400000,104C305.400000,100.700000,308.100000,98,311.400000,98L398.700000,98C402,98,404.700000,100.700000,404.700000,104L404.700000,206.200000C404.700000,209.500000,402,212.200000,398.700000,212.200000Z" fill="rgb(215,215,227)" stroke="none" stroke-width="1"/><path id="exyo8y3l89as7" d="M379,89.700000L331.700000,89.700000C328.400000,89.700000,325.700000,87,325.700000,83.700000L325.700000,51.300000C325.700000,48,328.400000,45.300000,331.700000,45.300000L379,45.300000C382.300000,45.300000,385,48,385,51.300000L385,83.600000C385,87,382.300000,89.700000,379,89.700000Z" transform="matrix(1 0 0 1 -0.41573500000004 -0.41573500000001)" fill="rgb(215,215,227)" stroke="none" stroke-width="1"/><polyline id="exyo8y3l89as8" points="404.700000,107.800000 416.800000,113.300000 416.800000,129.300000 404.700000,134.300000" fill="rgb(68,70,90)" stroke="none" stroke-width="1"/><rect id="exyo8y3l89as9" width="26.200000" height="13" rx="0" ry="0" transform="matrix(-1 0 -0 -1 442.94999999999999 127.63300000000005)" fill="rgb(215,215,227)" stroke="none" stroke-width="1"/><rect id="exyo8y3l89as10" width="13.300000" height="73.400000" rx="0" ry="0" transform="matrix(-1 0 -0 -1 449.19999999999999 197.92200000000008)" fill="rgb(215,215,227)" stroke="none" stroke-width="1"/><circle id="exyo8y3l89as11" r="9.300000" transform="matrix(1 0 0 1 442.39999999999998 120.90000000000001)" fill="rgb(68,70,90)" stroke="none" stroke-width="1"/><rect id="exyo8y3l89as12" width="19.700000" height="83.500000" rx="0" ry="0" transform="matrix(1 0 0 1 320.10000000000002 212.19999999999999)" fill="rgb(215,215,227)" stroke="none" stroke-width="1"/><rect id="exyo8y3l89as13" width="23.300000" height="6.400000" rx="0" ry="0" transform="matrix(1 0 0 1 318.19999999999999 211.20962900000001)" fill="rgb(68,70,90)" stroke="none" stroke-width="1"/><path id="exyo8y3l89as14" d="M336.800000,263.300000L323,263.300000C319.600000,263.300000,316.800000,260.500000,316.800000,257.100000L316.800000,257.100000C316.800000,253.700000,319.600000,250.900000,323,250.900000L336.800000,250.900000C340.200000,250.900000,343,253.700000,343,257.100000L343,257.100000C343,260.600000,340.200000,263.300000,336.800000,263.300000Z" transform="matrix(1 0 0 1 0 -0.99037099999998)" fill="rgb(68,70,90)" stroke="none" stroke-width="1"/><path id="exyo8y3l89as15" d="M316,317.100000L316,296.800000C316,296.800000,316.300000,287.800000,322.300000,287.800000C328.300000,287.800000,330.300000,287.800000,337.600000,287.800000C344.900000,287.800000,344.900000,296.100000,344.900000,296.100000L344.900000,317.100000L316,317.100000Z" transform="matrix(1 0 0 1 0 -0.99037099999998)" fill="rgb(68,70,90)" stroke="none" stroke-width="1"/><polygon id="exyo8y3l89as16" points="316,317.100000 312.300000,323 349,323 345,317.100000" fill="rgb(255,255,255)" stroke="none" stroke-width="1"/><path id="exyo8y3l89as17" d="M398.700000,212.200000L311.400000,212.200000C308,212.200000,398.700000,98,398.700000,98C402,98,404.700000,100.700000,404.700000,104L404.700000,206.200000C404.700000,209.500000,402,212.200000,398.700000,212.200000Z" opacity="0.1" fill="rgb(175,175,175)" stroke="none" stroke-width="1"/><path id="exyo8y3l89as18" d="M381.200000,89.700000L325.700000,89.700000C323.600000,89.700000,381.200000,45.400000,381.200000,45.400000C383.300000,45.400000,385,46.400000,385,47.700000L385,87.400000C385,88.600000,383.300000,89.700000,381.200000,89.700000Z" transform="matrix(1 0 0 1 0 -0.41573500000000)" opacity="0.08" fill="rgb(215,215,227)" stroke="none" stroke-width="1"/><rect id="exyo8y3l89as19" width="19.700000" height="83.500000" rx="0" ry="0" transform="matrix(1 0 0 1 372.39999999999998 212.19999999999999)" fill="rgb(215,215,227)" stroke="none" stroke-width="1"/><rect id="exyo8y3l89as20" width="23.300000" height="6.400000" rx="0" ry="0" transform="matrix(1 0 0 1 370.60000000000002 211.20962900000001)" fill="rgb(68,70,90)" stroke="none" stroke-width="1"/><path id="exyo8y3l89as21" d="M389.200000,263.300000L375.400000,263.300000C372,263.300000,369.200000,260.500000,369.200000,257.100000L369.200000,257.100000C369.200000,253.700000,372,250.900000,375.400000,250.900000L389.200000,250.900000C392.600000,250.900000,395.400000,253.700000,395.400000,257.100000L395.400000,257.100000C395.300000,260.600000,392.600000,263.300000,389.200000,263.300000Z" transform="matrix(1 0 0 1 0 -0.99037099999998)" fill="rgb(68,70,90)" stroke="none" stroke-width="1"/><path id="exyo8y3l89as22" d="M368.300000,317.100000L368.300000,296.800000C368.300000,296.800000,368.600000,287.800000,374.600000,287.800000C380.600000,287.800000,382.600000,287.800000,389.900000,287.800000C397.200000,287.800000,397.200000,296.100000,397.200000,296.100000L397.200000,317.100000L368.300000,317.100000Z" transform="matrix(1 0 0 1 0 -0.99037099999998)" fill="rgb(68,70,90)" stroke="none" stroke-width="1"/><polygon id="exyo8y3l89as23" points="368.300000,317.100000 364.700000,323 401.300000,323 397.300000,317.100000" fill="rgb(255,255,255)" stroke="none" stroke-width="1"/><g id="exyo8y3l89as24" display="none"><path id="exyo8y3l89as25" d="M351,60.700000L340.300000,60.700000C340.300000,57.700000,342.700000,55.300000,345.700000,55.300000C348.700000,55.300000,351,57.700000,351,60.700000Z" fill="rgb(226,8,23)" stroke="none" stroke-width="1"/><path id="exyo8y3l89as26" d="M373,60.700000L362.300000,60.700000C362.300000,57.700000,364.700000,55.300000,367.700000,55.300000C370.700000,55.300000,373,57.700000,373,60.700000Z" fill="rgb(226,8,23)" stroke="none" stroke-width="1"/></g><path id="exyo8y3l89as27" d="M345,68.500000L367,68.500000C367,74.600000,362.100000,79.500000,356,79.500000C349.900000,79.500000,345,74.600000,345,68.500000Z" fill="rgb(250,247,247)" stroke="none" stroke-width="1"/><path id="exyo8y3l89as28" d="M356.406905,74.203452L367,74.203452C367,77.140629,364.640629,79.500000,361.703452,79.500000C358.766276,79.500000,356.406905,77.140629,356.406905,74.203452Z" transform="matrix(-1 0 -0 -1 708.67411700000002 135.44925999999995)" fill="rgb(244,112,112)" stroke="none" stroke-width="1"/><path id="exyo8y3l89as29" d="M356.406905,74.203452L367,74.203452C367,77.140629,364.640629,79.500000,361.703452,79.500000C358.766276,79.500000,356.406905,77.140629,356.406905,74.203452Z" transform="matrix(-1 0 -0 -1 728.67411700000002 135.44925999999995)" fill="rgb(244,112,112)" stroke="none" stroke-width="1"/><polygon id="exyo8y3l89as30" points="434.800000,197.200000 450.200000,197 457.800000,210.200000 451.700000,221.200000 446.500000,218.800000 451.100000,210.100000 446.300000,203.400000 438.700000,203.500000 435,210.300000 439.600000,218.600000 435.100000,222 427.100000,210.500000" fill="rgb(68,70,90)" stroke="none" stroke-width="1"/><path id="exyo8y3l89as31" d="M385.300000,191.200000L326.700000,191.200000C323,191.200000,319.900000,188.100000,319.900000,184.400000L319.900000,125.800000C319.900000,122.100000,323,119,326.700000,119L385.300000,119C389,119,392.100000,122.100000,392.100000,125.800000L392.100000,184.400000C392.100000,188.200000,389.100000,191.200000,385.300000,191.200000Z" fill="rgb(255,255,255)" stroke="rgb(53,61,80)" stroke-width="3" stroke-miterlimit="10"/><g id="exyo8y3l89as32"><g id="exyo8y3l89as33"><path id="exyo8y3l89as34" display="none" d="M445.200000,309.900000C445.300000,311.200000,445.400000,312.500000,444.800000,313.600000C444.200000,314.700000,442.800000,315.500000,441.600000,314.900000C441,314.600000,440.600000,313.900000,440.300000,313.200000C438.500000,309.600000,436.700000,306.100000,434.800000,302.500000C433.300000,299.600000,431.800000,296.400000,431.900000,293.100000C432,291.600000,432.500000,290.100000,433.400000,288.800000C434.200000,287.700000,436,286,437.200000,287.300000C438.400000,288.500000,439.200000,290.700000,440,292.200000C441.700000,295.700000,443.100000,299.500000,444,303.300000C444.600000,305.600000,445,307.700000,445.200000,309.900000Z" fill="rgb(245,181,146)" stroke="none" stroke-width="1"/><path id="exyo8y3l89as35" display="none" d="M432.100000,293.900000C432.200000,292.200000,432.700000,290.500000,433.800000,289.200000C434.700000,288,435.200000,285,436.600000,286.400000C437.900000,287.800000,440.300000,291.300000,441.100000,293C442.200000,295.200000,443.200000,297.600000,444,299.900000L435.300000,304.100000C433.500000,300.900000,431.900000,297.500000,432.100000,293.900000Z" clip-rule="evenodd" fill="rgb(251,208,84)" fill-rule="evenodd" stroke="none" stroke-width="1"/><path id="exyo8y3l89as36" display="none" d="M444.900000,309.700000C444,308.600000,442.500000,308.200000,441.100000,308.400000C439.700000,308.600000,438.400000,309.200000,437.200000,309.800000C434.900000,310.900000,432.600000,312,430.300000,313.100000C427.900000,314.200000,425.500000,315.400000,423.100000,316.500000C422.700000,316.700000,422.300000,316.900000,422.200000,317.300000C422.100000,317.700000,422.400000,318.200000,422.700000,318.400000C423.100000,318.600000,423.500000,318.700000,424,318.700000C427.600000,318.900000,431.200000,318.500000,434.700000,317.700000C436.500000,317.300000,438.200000,316.700000,439.900000,316.100000C441.300000,315.500000,443.400000,314.900000,444.600000,313.800000C445.600000,312.700000,445.900000,310.900000,444.900000,309.700000Z" fill="rgb(245,181,146)" stroke="none" stroke-width="1"/></g><g id="exyo8y3l89as37"><path id="exyo8y3l89as38" display="none" d="M430,317.700000C427.300000,317.300000,414.700000,317.300000,412.100000,317.700000C408.800000,318.200000,409.300000,322.300000,409.700000,324.800000C410.200000,327.500000,410.700000,330.400000,412.700000,332.200000C414.600000,334,427.500000,334,429.400000,332.200000C431.400000,330.300000,431.900000,327.400000,432.400000,324.800000C432.800000,322.300000,433.300000,318.200000,430,317.700000Z" clip-rule="evenodd" fill="rgb(35,44,83)" fill-rule="evenodd" stroke="none" stroke-width="1"/><path id="exyo8y3l89as39" display="none" d="M383.700000,329C382.300000,330.500000,381.400000,333,382.600000,334.600000C383.600000,335.900000,412.100000,333.300000,416.300000,333.300000C419.300000,329.500000,419.200000,323.700000,411.500000,319.800000C409.900000,319,408.100000,319.800000,406.300000,320.200000C401.100000,321.300000,387.100000,325.200000,383.700000,329Z" clip-rule="evenodd" fill="rgb(35,44,83)" fill-rule="evenodd" stroke="none" stroke-width="1"/><path id="exyo8y3l89as40" display="none" d="M445.300000,301.800000C447.400000,301.600000,449.600000,302.400000,450.600000,304.200000C451.400000,305.700000,451.200000,307.500000,450.600000,309.100000C449.900000,310.600000,448.800000,311.900000,447.600000,313.200000C431.300000,331.400000,431.100000,332.200000,428.300000,332.900000C423.700000,334.100000,418.100000,332.900000,422.200000,322.200000C422.900000,320.500000,440.200000,302.200000,445.300000,301.800000Z" clip-rule="evenodd" fill="rgb(35,44,83)" fill-rule="evenodd" stroke="none" stroke-width="1"/><path id="exyo8y3l89as41" display="none" d="M430.800000,339C431.900000,338.400000,434,335.600000,436.500000,331.900000L431.800000,330.200000C430.200000,335.700000,429.600000,339.700000,430.800000,339Z" fill="rgb(245,181,146)" stroke="none" stroke-width="1"/><path id="exyo8y3l89as42" display="none" d="M449.400000,302.100000C446.500000,300.700000,443.700000,301.100000,441.400000,304.800000C438.300000,309.800000,434.100000,322.100000,431.800000,330.200000L437.200000,332.700000C440.600000,324.900000,447.400000,314.700000,450,310.100000C451.500000,307.400000,451.700000,303.200000,449.400000,302.100000Z" clip-rule="evenodd" fill="rgb(14,61,94)" fill-rule="evenodd" stroke="none" stroke-width="1"/><g id="exyo8y3l89as43" display="none"><path id="exyo8y3l89as44" display="none" d="M416.400000,333.900000L414,338.300000C417.500000,338.500000,420.300000,338.600000,421.500000,338.100000C422.800000,337.500000,420.400000,335.800000,416.400000,333.900000Z" fill="rgb(245,181,146)" stroke="none" stroke-width="1"/><path id="exyo8y3l89as45" display="none" d="M388.600000,328.900000C384.200000,328.900000,382,331.200000,382,332.700000C382,335.400000,383.700000,338.300000,387.800000,338.300000C393.100000,338.300000,406.300000,338.100000,414.500000,338.700000L416.400000,333.800000C410.400000,331,395,328.900000,388.600000,328.900000Z" clip-rule="evenodd" fill="rgb(14,61,94)" fill-rule="evenodd" stroke="none" stroke-width="1"/><path id="exyo8y3l89as46" display="none" d="M423.300000,337.400000C423.100000,337.300000,421.900000,335.500000,421.100000,335.200000C420.600000,335,420,334.700000,419.500000,335C418.900000,335.300000,418.900000,336,418.600000,336.500000C418.400000,336.900000,418,337.100000,417.600000,337.300000L416.800000,336.300000C414.100000,337.600000,416.200000,340.700000,413.500000,342C412.800000,342.300000,412.100000,342.500000,411.600000,343C411,343.500000,410.700000,344.300000,411.100000,344.900000C411.200000,345.100000,411.500000,345.300000,411.700000,345.400000L420.500000,341.100000C420.500000,341.100000,420.600000,339.300000,420.300000,339.100000C420.600000,339.200000,421.300000,339.500000,421.600000,339.600000L423.300000,337.400000Z" clip-rule="evenodd" fill="rgb(14,61,94)" fill-rule="evenodd" stroke="none" stroke-width="1"/></g><path id="exyo8y3l89as47" display="none" d="M436.700000,339.200000C436.700000,338.500000,436.400000,337.900000,436.100000,337.700000C435.800000,337.500000,435.300000,336.300000,434.700000,334.500000C434.400000,333.700000,432.800000,333.500000,431.900000,334.900000C431.600000,335.400000,431.400000,335.700000,431.100000,335.600000C430.800000,335.600000,430.600000,335.200000,430.300000,335.400000C430.100000,335.700000,430,336.300000,430,336.800000C429.900000,337.600000,429.800000,338.500000,429.700000,339.300000C429.700000,339.500000,429.700000,339.700000,429.700000,339.900000L436.600000,339.900000C436.600000,339.700000,436.700000,339.500000,436.700000,339.200000Z" clip-rule="evenodd" fill="rgb(14,61,94)" fill-rule="evenodd" stroke="none" stroke-width="1"/></g><g id="exyo8y3l89as48" display="none"><path id="exyo8y3l89as49" d="M396.800000,309.900000C396.700000,311.200000,396.600000,312.500000,397.200000,313.600000C397.800000,314.700000,399.200000,315.500000,400.400000,314.900000C401,314.600000,401.400000,313.900000,401.700000,313.200000C403.500000,309.600000,405.300000,306.100000,407.200000,302.500000C408.700000,299.600000,410.200000,296.400000,410.100000,293.100000C410,291.600000,409.500000,290.100000,408.600000,288.800000C407.800000,287.700000,406,286,404.800000,287.300000C403.600000,288.500000,402.800000,290.700000,402,292.200000C400.300000,295.700000,398.900000,299.500000,398,303.300000C397.400000,305.600000,397,307.700000,396.800000,309.900000Z" fill="rgb(245,181,146)" stroke="none" stroke-width="1"/><path id="exyo8y3l89as50" d="M409.900000,293.900000C409.800000,292.200000,409.300000,290.500000,408.200000,289.200000C407.300000,288,406.800000,285,405.400000,286.400000C404.100000,287.800000,401.700000,291.300000,400.900000,293C399.800000,295.200000,398.800000,297.600000,398,299.900000L406.700000,304.100000C408.500000,300.900000,410.100000,297.500000,409.900000,293.900000Z" clip-rule="evenodd" fill="rgb(251,208,84)" fill-rule="evenodd" stroke="none" stroke-width="1"/><path id="exyo8y3l89as51" d="M397.300000,310.300000C398.200000,309.200000,399.700000,308.800000,401.100000,309C402.500000,309.200000,403.800000,309.800000,405,310.400000C407.300000,311.500000,409.600000,312.600000,411.900000,313.700000C414.300000,314.800000,416.700000,316,419.100000,317.100000C419.500000,317.300000,419.900000,317.500000,420,317.900000C420.100000,318.300000,419.800000,318.800000,419.500000,319C419.100000,319.200000,418.700000,319.300000,418.200000,319.300000C414.600000,319.500000,411,319.100000,407.500000,318.300000C405.700000,317.900000,404,317.300000,402.300000,316.700000C400.900000,316.100000,398.800000,315.500000,397.600000,314.400000C396.600000,313.300000,396.300000,311.500000,397.300000,310.300000Z" fill="rgb(245,181,146)" stroke="none" stroke-width="1"/></g><path id="exyo8y3l89as52" display="none" d="M436.900000,286.800000C436,285.800000,434.800000,285.200000,433.500000,284.700000C429.800000,283.300000,421.400000,279.800000,421,279.800000C420.700000,279.800000,412.200000,283.300000,408.500000,284.700000C407.200000,285.200000,406,285.700000,405.100000,286.800000C404,288.200000,403.800000,290.100000,404.200000,291.900000C404.600000,293.600000,405.500000,295.200000,406.300000,296.800000C407.300000,298.800000,408.100000,300.900000,408.700000,303C409.800000,306.900000,410.400000,310.900000,410.400000,314.900000C410.400000,316.100000,409.700000,318.200000,410.100000,319.400000C410.600000,320.900000,413.100000,321.200000,414.400000,321.400000C416.600000,321.700000,418.800000,321.800000,421,321.700000C423.200000,321.800000,425.400000,321.700000,427.600000,321.400000C428.900000,321.200000,431.400000,320.900000,431.900000,319.400000C432.300000,318.200000,431.600000,316.200000,431.600000,314.900000C431.600000,310.900000,432.200000,306.900000,433.300000,303C433.900000,300.900000,434.700000,298.800000,435.700000,296.800000C436.500000,295.200000,437.400000,293.600000,437.800000,291.900000C438.100000,290.100000,438,288.100000,436.900000,286.800000Z" clip-rule="evenodd" fill="rgb(251,208,84)" fill-rule="evenodd" stroke="none" stroke-width="1"/><g id="exyo8y3l89as53" display="none"><path id="exyo8y3l89as54" d="M423.800000,279.400000C423.500000,278.300000,423.300000,276.200000,422.600000,275.500000C422.200000,275.100000,420,275.100000,419.600000,275.500000C418.900000,276.200000,418.700000,278.300000,418.400000,279.400000C418,280.600000,417.700000,282.100000,418.100000,283.400000C418.400000,284.300000,419,284.800000,419.600000,284.900000C420.100000,285,422.200000,285,422.700000,284.900000C423.300000,284.700000,423.900000,284.200000,424.200000,283.400000C424.500000,282.100000,424.200000,280.600000,423.800000,279.400000Z" fill="rgb(241,159,136)" stroke="none" stroke-width="1"/><path id="exyo8y3l89as55" d="M425.600000,270.100000C424.900000,268.100000,417.200000,268.100000,416.500000,270.100000C416,271.700000,415.900000,273.500000,416.200000,275.200000C416.500000,276.800000,417.100000,278.200000,418,279.400000C418.600000,280.200000,419.400000,281.400000,420.300000,281.800000L421.700000,281.800000C422.600000,281.400000,423.400000,280.200000,424,279.400000C424.900000,278.200000,425.500000,276.800000,425.800000,275.200000C426.300000,273.500000,426.200000,271.700000,425.600000,270.100000Z" fill="rgb(245,181,146)" stroke="none" stroke-width="1"/><path id="exyo8y3l89as56" d="M425.400000,275.400000C425.500000,274.900000,425.700000,274.500000,425.800000,274C425.900000,273.500000,426.100000,273,425.700000,272.600000C425.400000,274.100000,424.800000,275.500000,424.300000,276.900000C424.200000,277.200000,424.100000,277.500000,423.900000,277.800000C423.600000,278.100000,423.200000,278.200000,422.800000,278.300000C422.400000,278.400000,421.200000,277.900000,421.100000,277.900000C421,277.900000,419.800000,278.400000,419.400000,278.300000C419,278.200000,418.600000,278.100000,418.300000,277.800000C418.100000,277.600000,418,277.300000,417.900000,276.900000C417.400000,275.500000,417,274,416.700000,272.600000C416.400000,272.900000,416.300000,273.500000,416.400000,274C416.500000,274.500000,416.700000,274.900000,416.800000,275.400000C416.800000,275.400000,416.800000,275.500000,416.800000,275.500000C416.800000,275.800000,416.800000,276.100000,416.700000,276.400000C416.600000,276.500000,416.600000,276.600000,416.600000,276.800000C416.600000,276.900000,416.700000,277.100000,416.700000,277.200000C416.800000,277.800000,417,278.500000,417.300000,279.100000C417.500000,279.700000,417.800000,280.300000,418.200000,280.900000C418.400000,281.200000,418.600000,281.500000,418.800000,281.700000C418.900000,281.800000,419.300000,282.400000,419.400000,282.400000L420.900000,282.800000L421.600000,282.800000L423.100000,282.400000C423.200000,282.400000,423.600000,281.800000,423.700000,281.700000C423.900000,281.400000,424.100000,281.200000,424.300000,280.900000C424.600000,280.300000,424.900000,279.800000,425.200000,279.100000C425.400000,278.500000,425.600000,277.900000,425.800000,277.200000C425.800000,277.100000,425.900000,276.900000,425.900000,276.800000C425.900000,276.700000,425.800000,276.600000,425.800000,276.400000C425.700000,276.100000,425.700000,275.800000,425.700000,275.500000C425.400000,275.500000,425.400000,275.500000,425.400000,275.400000Z" clip-rule="evenodd" fill="rgb(14,61,94)" fill-rule="evenodd" stroke="none" stroke-width="1"/><path id="exyo8y3l89as57" d="M428.600000,265.900000C427.700000,264.700000,425.900000,264.200000,424.600000,264.800000C424,265.100000,423.500000,265.500000,422.900000,265.600000C422.200000,265.800000,421.400000,265.500000,420.800000,265.200000C420.100000,264.900000,419.400000,264.600000,418.700000,264.700000C418,264.800000,417.300000,265.500000,417.400000,266.300000C416.400000,265.900000,415.200000,266.200000,414.500000,267.100000C413.800000,267.900000,413.700000,269.200000,414.200000,270.200000C414.500000,270.800000,415,271.300000,415.200000,271.900000C415.400000,272.600000,415.200000,274.400000,416,274.700000C416.700000,275,417,269.700000,418.900000,269.500000C419.900000,270.600000,421.500000,270.800000,422.800000,270.100000C423.300000,269.800000,423.800000,269.400000,424.300000,269.600000C424.600000,269.700000,425,269.900000,425.300000,270.200000C425.800000,270.900000,425.700000,274.200000,426.400000,274.700000C426.800000,273.500000,426.900000,272.300000,426.900000,271.100000C427.200000,271.100000,427.600000,271.100000,427.900000,270.900000C428.800000,270.500000,429.400000,270.900000,429.600000,269.900000C429.500000,269.100000,429.200000,266.700000,428.600000,265.900000Z" clip-rule="evenodd" fill="rgb(14,61,94)" fill-rule="evenodd" stroke="none" stroke-width="1"/><path id="exyo8y3l89as58" d="M415.400000,275.100000C415.200000,274.800000,415.100000,274.400000,415.100000,274C415.200000,273.600000,415.500000,273.200000,415.800000,273.300000C416,273.300000,416.200000,273.500000,416.300000,273.700000C416.400000,273.900000,416.500000,274.200000,416.500000,274.400000C416.600000,274.800000,416.700000,275.200000,416.800000,275.600000C416.900000,275.900000,416.900000,276.400000,416.600000,276.600000C416.200000,276.900000,415.600000,275.400000,415.400000,275.100000Z" fill="rgb(245,181,146)" stroke="none" stroke-width="1"/><path id="exyo8y3l89as59" d="M426.800000,275.100000C427,274.800000,427.100000,274.400000,427.100000,274C427,273.600000,426.700000,273.200000,426.400000,273.300000C426.200000,273.300000,426,273.500000,425.900000,273.700000C425.800000,273.900000,425.700000,274.200000,425.700000,274.400000C425.600000,274.800000,425.500000,275.200000,425.400000,275.600000C425.300000,275.900000,425.300000,276.400000,425.600000,276.600000C425.900000,276.900000,426.600000,275.400000,426.800000,275.100000Z" fill="rgb(245,181,146)" stroke="none" stroke-width="1"/></g><path id="exyo8y3l89as60" display="none" d="M432.500000,319.800000L409.200000,319.800000C408.100000,319.800000,407.200000,319,407.100000,317.900000L405.900000,303.500000C405.800000,302.300000,406.800000,301.200000,408,301.200000L433.800000,301.200000C435,301.200000,436,302.300000,435.900000,303.500000L434.700000,317.900000C434.500000,319,433.500000,319.800000,432.500000,319.800000Z" fill="rgb(163,208,233)" stroke="none" stroke-width="1"/><path id="exyo8y3l89as61" display="none" d="M405.900000,304.100000C406.100000,303.200000,406.900000,302.500000,407.900000,302.500000L433.700000,302.500000C434.700000,302.500000,435.500000,303.200000,435.700000,304.100000L435.800000,303.500000C435.900000,302.300000,434.900000,301.200000,433.700000,301.200000L407.900000,301.200000C406.700000,301.200000,405.700000,302.300000,405.800000,303.500000L405.900000,304.100000Z" fill="rgb(63,122,163)" stroke="none" stroke-width="1"/></g><g id="exyo8y3l89as62" display="none"><path id="exyo8y3l89as63" d="M487.600000,295.600000C488.100000,297.200000,488.900000,298.900000,490.300000,299.400000C491.300000,299.700000,494.400000,297.800000,495.100000,297C495.800000,296.200000,499.500000,259,498.500000,256.700000C497.200000,253.700000,483,257.900000,482.700000,263.100000C482.300000,269.800000,483.200000,277,484.500000,283.700000C485.300000,287.800000,486.300000,291.700000,487.600000,295.600000Z" clip-rule="evenodd" fill="rgb(181,0,12)" fill-rule="evenodd" stroke="none" stroke-width="1"/><path id="exyo8y3l89as64" d="M463,326.200000C464.300000,326.900000,465.800000,327.300000,467.300000,327.300000C467.800000,325.600000,468.300000,323.900000,468.800000,322.200000C468.900000,322,468.900000,321.800000,468.900000,321.500000C468.800000,321.200000,468.500000,321,468.300000,320.800000C467.200000,320.200000,465.500000,319.500000,465,320.900000C464.200000,322.700000,463.600000,324.500000,463,326.200000Z" fill="rgb(241,159,136)" stroke="none" stroke-width="1"/><path id="exyo8y3l89as65" d="M490.300000,330.200000C491.800000,330.400000,493.300000,330.300000,494.800000,329.800000C494.700000,328.100000,494.700000,326.300000,494.600000,324.600000C494.600000,324.400000,494.600000,324.100000,494.500000,324C494.300000,323.700000,494,323.600000,493.700000,323.600000C492.500000,323.400000,490.600000,323.300000,490.600000,324.800000C490.400000,326.600000,490.400000,328.400000,490.300000,330.200000Z" fill="rgb(241,159,136)" stroke="none" stroke-width="1"/><path id="exyo8y3l89as66" d="M495.500000,291.300000C494,288.200000,489.700000,286.100000,486.900000,291.500000C482.700000,299.700000,490,315,489.900000,324.900000L495,324.900000C495.300000,323.900000,496.300000,293,495.500000,291.300000Z" clip-rule="evenodd" fill="rgb(181,0,12)" fill-rule="evenodd" stroke="none" stroke-width="1"/><path id="exyo8y3l89as67" d="M476.100000,265.800000C477.300000,266.800000,479,266.900000,480.500000,266.900000C493.100000,266.900000,498.700000,263.900000,498.700000,257C498.700000,250.800000,485.600000,252,479.700000,253.900000C478.400000,254.300000,476.600000,254.700000,475.700000,255.900000C474.500000,257.600000,473.100000,263.400000,476.100000,265.800000Z" clip-rule="evenodd" fill="rgb(181,0,12)" fill-rule="evenodd" stroke="none" stroke-width="1"/><path id="exyo8y3l89as68" d="M493.400000,224.900000C493.800000,230.700000,494.900000,236.700000,498.200000,241.500000C498.900000,242.500000,499.900000,243.600000,501.200000,243.500000C501.900000,243.400000,502.600000,242.900000,503,242.300000C503.400000,241.700000,503.600000,241,503.700000,240.200000C504.800000,234.500000,503,228.700000,501.300000,223.200000C500.600000,220.900000,499.600000,216.900000,497.300000,215.700000C494.900000,214.400000,493.700000,218.400000,493.500000,220C493.200000,221.600000,493.300000,223.300000,493.400000,224.900000Z" fill="rgb(241,159,136)" stroke="none" stroke-width="1"/><path id="exyo8y3l89as69" d="M493.100000,216.700000C493.200000,215.700000,493.500000,214.600000,494.400000,214.200000C495.300000,213.800000,496.300000,214.400000,497.100000,215.100000C501.500000,219.100000,503.200000,224.700000,504,230.700000L493.400000,231.400000C492.700000,226.500000,492.600000,221.600000,493.100000,216.700000Z" clip-rule="evenodd" fill="rgb(106,187,211)" fill-rule="evenodd" stroke="none" stroke-width="1"/><path id="exyo8y3l89as70" d="M477.200000,295.600000C477.600000,297.200000,478.300000,298.900000,479.700000,299.400000C480.700000,299.700000,482.700000,295.800000,483.400000,295C484.100000,294.200000,491.200000,265,490.400000,262.700000C489.300000,259.700000,486.500000,257.700000,483.700000,257.200000C479.600000,256.500000,474.800000,257.800000,474.200000,263.100000C473.400000,269.800000,473.900000,277,474.800000,283.700000C475.300000,287.800000,476.100000,291.700000,477.200000,295.600000Z" clip-rule="evenodd" fill="rgb(96,0,6)" fill-rule="evenodd" stroke="none" stroke-width="1"/><path id="exyo8y3l89as71" d="M507.900000,240.600000C508.200000,241.300000,507.900000,242.100000,507.400000,242.600000C506.900000,243.100000,503.100000,244.900000,499.500000,243.200000C497.700000,242.400000,497.400000,240.600000,498,238.900000C498.900000,236.600000,507.600000,239.800000,507.900000,240.600000Z" fill="rgb(245,181,146)" stroke="none" stroke-width="1"/><path id="exyo8y3l89as72" d="M484.300000,292.400000C484.200000,289.100000,480.500000,285.200000,476.100000,289.700000C469,296.900000,467,310.700000,464.200000,320.900000L469,322.600000C469.700000,321.900000,484.400000,294.300000,484.300000,292.400000Z" clip-rule="evenodd" fill="rgb(96,0,6)" fill-rule="evenodd" stroke="none" stroke-width="1"/><path id="exyo8y3l89as73" d="M473.600000,237.800000C471.900000,232.300000,469.800000,225.400000,470.700000,219.700000C473,216.800000,477.800000,210.200000,487.300000,210.200000C494,210.200000,498.900000,216.900000,500.100000,218.600000C501.400000,220.500000,500.900000,223.200000,500.600000,225.400000C499.900000,230.100000,497.900000,248.500000,499.600000,261.300000L472.700000,261.300000C472.800000,255.200000,475.300000,243.300000,473.600000,237.800000Z" clip-rule="evenodd" fill="rgb(255,91,102)" fill-rule="evenodd" stroke="none" stroke-width="1"/><path id="exyo8y3l89as74" d="M467.400000,231C468.700000,225.900000,471.600000,221.300000,475.500000,217.700000C476.200000,217.100000,477.200000,216.400000,478,216.800000C478.500000,217,478.800000,217.500000,478.900000,218C479,218.500000,479,219,479,219.500000C478.800000,225.500000,477.700000,231.400000,476.600000,237.400000C476.300000,239.200000,475.900000,241.100000,475.100000,242.700000C474.300000,244.400000,473,245.900000,471.300000,246.500000C470.400000,246.800000,468.900000,247,468.100000,246.400000C467.400000,245.900000,467.300000,244.500000,467.100000,243.800000C466.500000,241.100000,466.300000,238.300000,466.500000,235.600000C466.700000,234.100000,467,232.600000,467.400000,231Z" fill="rgb(255,184,189)" stroke="none" stroke-width="1"/><path id="exyo8y3l89as75" d="M465.900000,233C465.900000,233,465.900000,233.100000,465.900000,233.100000C465.900000,233,465.900000,233,465.900000,233Z" clip-rule="evenodd" fill="rgb(33,136,139)" fill-rule="evenodd" stroke="none" stroke-width="1"/><path id="exyo8y3l89as76" d="M479.200000,216.700000C479.100000,215.700000,479,214.600000,478.100000,214.200000C477.200000,213.800000,475.500000,214.600000,474.700000,215.200000C470,219.200000,467.400000,224.600000,466.200000,230.600000L478,231.300000C479.100000,226.500000,479.400000,221.600000,479.200000,216.700000Z" clip-rule="evenodd" fill="rgb(255,91,102)" fill-rule="evenodd" stroke="none" stroke-width="1"/><path id="exyo8y3l89as77" d="M490,203.500000C489.300000,200.600000,487.200000,200,485.900000,200.600000C485.100000,206,484.300000,208.400000,482.200000,211.300000C484.800000,213,489.300000,212.700000,490.300000,211.300000C490.200000,210.900000,490.300000,205,490,203.500000Z" fill="rgb(255,184,189)" stroke="none" stroke-width="1"/><path id="exyo8y3l89as78" d="M489.800000,196.700000C492.400000,194.900000,496.100000,196.500000,496.700000,199.800000C497.200000,202.800000,494.100000,208.100000,492.700000,208.900000C490.200000,210.400000,486.800000,206.800000,486.600000,205.100000C486.500000,202.700000,487.600000,198.300000,489.800000,196.700000Z" fill="rgb(255,184,189)" stroke="none" stroke-width="1"/><path id="exyo8y3l89as79" d="M488,197.400000C487.800000,197.300000,487.500000,197.300000,487.300000,197.400000C487.100000,197.500000,486.900000,197.700000,486.700000,197.800000C486.100000,198.400000,485.500000,198.900000,485,199.600000C484.500000,200.300000,484.200000,201.100000,484.200000,201.900000C484.200000,202.400000,484.300000,203,484.200000,203.500000C484,204,483.600000,204.400000,483.700000,204.800000C483.800000,205.100000,484.200000,205.300000,484.500000,205.300000C484.900000,205.300000,485.200000,205,485.400000,204.800000C485.600000,204.500000,485.800000,204.200000,486,203.900000C486.600000,202.900000,487.500000,202,488.100000,201C488.700000,200,489.100000,198.700000,488.500000,197.600000L488,197.400000Z" clip-rule="evenodd" fill="rgb(35,44,85)" fill-rule="evenodd" stroke="none" stroke-width="1"/><path id="exyo8y3l89as80" d="M500,198.700000C499.400000,198.500000,498.900000,198.200000,498.300000,198C498.600000,198.300000,498.800000,198.700000,498.900000,199C499,199.400000,498.900000,199.900000,498.500000,200.100000C498.200000,200.300000,497.900000,200.200000,497.600000,200.100000C497.300000,200,497.100000,199.700000,496.900000,199.500000C497,199.700000,497.100000,199.900000,497.100000,200.200000C497.100000,200.400000,496.900000,200.700000,496.700000,200.700000C496.500000,200.700000,496.300000,200.600000,496.200000,200.500000C495.400000,199.900000,494.700000,199.300000,493.900000,198.700000C493.900000,198.900000,494,199.200000,494,199.400000C494,199.600000,493.800000,199.900000,493.600000,200C493.200000,200.200000,492.800000,199.800000,492.600000,199.500000C492.400000,199.100000,492.100000,198.700000,491.700000,198.700000C491.200000,198.600000,490.800000,199.100000,490.500000,199.400000C490.400000,199.500000,490.400000,199.500000,490.300000,199.600000C489.800000,200.300000,489.200000,201,488.700000,201.700000C488.500000,201.900000,488.400000,202.100000,488.100000,202.300000C487.900000,202.500000,487.600000,202.500000,487.300000,202.400000C486.900000,202.200000,482.200000,195.400000,488.200000,193.300000C489.100000,193,490.300000,193.300000,491.100000,193.600000C492,193.900000,492.800000,194.300000,493.700000,194.500000C494.400000,194.600000,495.100000,194.600000,495.900000,194.700000C498.100000,194.800000,500,196.700000,500,198.700000Z" clip-rule="evenodd" fill="rgb(35,44,85)" fill-rule="evenodd" stroke="none" stroke-width="1"/><path id="exyo8y3l89as81" d="M485.200000,200.200000C484.900000,200.900000,484.900000,201.600000,485.200000,202.300000C486,204.200000,487.900000,202.500000,488,201.100000C488.100000,199.500000,486,198.400000,485.200000,200.200000Z" fill="rgb(245,181,146)" stroke="none" stroke-width="1"/><path id="exyo8y3l89as82" d="M504.200000,332.800000C504.300000,332.100000,503.600000,331.500000,502.900000,331.300000C502.200000,331.100000,501.400000,331.300000,500.700000,331.300000C498.600000,331.300000,496.600000,330,495.600000,328.200000C495.500000,327.900000,495.300000,327.700000,495.100000,327.500000C494.800000,327.300000,494.300000,327.500000,494,327.700000C493.700000,327.900000,493.500000,328.300000,493.200000,328.500000C492.700000,329,492,329.300000,491.300000,329.200000C490.700000,329.200000,490.100000,328.800000,489.500000,329C489,329.300000,488.900000,329.900000,488.800000,330.400000C488.600000,331.200000,488.400000,332.100000,488.200000,332.900000C488.200000,333.100000,488.100000,333.300000,488.100000,333.500000L492.100000,333.500000C492.300000,333.200000,492.400000,332.500000,492.500000,332.200000C492.500000,332.500000,492.600000,333.300000,492.800000,333.500000L503.700000,333.500000C504.100000,333.300000,504.200000,333.100000,504.200000,332.800000Z" clip-rule="evenodd" fill="rgb(106,187,211)" fill-rule="evenodd" stroke="none" stroke-width="1"/><path id="exyo8y3l89as83" d="M468.200000,330.700000C468.500000,330,468.400000,329.400000,468.100000,329.100000C467.900000,328.800000,467.800000,327.500000,467.800000,325.600000C467.800000,324.700000,466.300000,324,465.100000,325C464.700000,325.300000,464.400000,325.500000,464.100000,325.400000C463.900000,325.300000,463.700000,324.800000,463.400000,325C463.100000,325.200000,462.800000,325.800000,462.600000,326.200000C462.200000,326.900000,461.900000,327.700000,461.500000,328.500000C461.400000,328.700000,461.300000,328.800000,461.300000,329L467.800000,331.300000C467.900000,331.200000,468.100000,331,468.200000,330.700000Z" clip-rule="evenodd" fill="rgb(106,187,211)" fill-rule="evenodd" stroke="none" stroke-width="1"/><g id="exyo8y3l89as84"><path id="exyo8y3l89as85" d="M486.600000,248.500000L502.700000,248.500000C503.700000,248.500000,504.600000,247.700000,504.900000,246.800000L512,221.500000C512.300000,220.500000,511.700000,219.800000,510.800000,219.800000L494.700000,219.800000C493.700000,219.800000,492.800000,220.600000,492.500000,221.500000L485.400000,246.800000C485.100000,247.700000,485.700000,248.500000,486.600000,248.500000Z" fill="rgb(198,198,198)" stroke="none" stroke-width="1"/><path id="exyo8y3l89as86" d="M485.400000,246.700000L492.500000,221.400000C492.800000,220.400000,493.800000,219.700000,494.700000,219.700000L496.400000,219.700000C495.400000,219.700000,494.500000,220.500000,494.200000,221.400000L487.100000,246.700000C486.800000,247.700000,487.400000,248.400000,488.300000,248.400000L486.600000,248.400000C485.700000,248.500000,485.100000,247.700000,485.400000,246.700000Z" fill="rgb(79,79,79)" stroke="none" stroke-width="1"/></g><path id="exyo8y3l89as87" d="M487.700000,240.900000C488.500000,241.400000,488.600000,242.600000,488.200000,243.400000C487.800000,244.200000,474.100000,247.600000,470.800000,247.500000C469.800000,247.500000,468.600000,247.400000,468,246.600000C467.500000,245.900000,467.600000,244.900000,467.900000,244C468.400000,242.600000,469.200000,241,470.400000,240C471.200000,239.400000,487.200000,240.600000,487.700000,240.900000Z" fill="rgb(255,184,189)" stroke="none" stroke-width="1"/><path id="exyo8y3l89as88" d="M492.600000,238.500000C492.900000,238,493.300000,237.400000,492.900000,237C492.700000,236.700000,492.200000,236.600000,491.900000,236.800000C491.500000,236.900000,491.200000,237.200000,491,237.400000C490.600000,237.700000,490.200000,238,489.700000,238.100000C489.200000,238.200000,488.600000,237.900000,488.500000,237.400000C488.400000,236.900000,488.800000,236.200000,488.400000,235.800000C488.200000,235.600000,487.800000,235.600000,487.600000,235.800000C487.300000,235.900000,487.200000,236.200000,487,236.400000C486.100000,237.600000,485.100000,238.900000,484.800000,240.400000C484.400000,241.900000,484.800000,243.700000,486,244.600000C487.100000,245.400000,488.800000,245.300000,489.900000,244.400000C490.800000,243.700000,491.200000,242.600000,491.300000,241.500000C491.300000,240.200000,491.900000,239.600000,492.600000,238.500000Z" fill="rgb(255,184,189)" stroke="none" stroke-width="1"/><path id="exyo8y3l89as89" d="M508.800000,237.200000C508.700000,237,508.600000,234.300000,508.500000,234.100000C508.200000,233.900000,507.300000,237.100000,507.500000,237.400000C506.800000,237.300000,506.600000,237.300000,505.900000,237.200000C505.400000,237.100000,504.700000,237.200000,504.600000,237.700000C504.500000,238.100000,504.800000,238.500000,505,238.800000C505.400000,239.400000,504.800000,243,505.100000,243.300000C506.200000,244.400000,508.700000,242.500000,509.100000,241.400000C509.600000,240,509.300000,238.700000,508.800000,237.200000Z" fill="rgb(245,181,146)" stroke="none" stroke-width="1"/></g><g id="exyo8y3l89as90" display="none"><path id="exyo8y3l89as91" d="M276.800000,307C277.400000,308.200000,278.100000,309.600000,279.300000,309.900000C280.100000,310.100000,282.300000,308.600000,282.700000,308C283.100000,307.400000,281.800000,278.200000,280.800000,276.500000C279.500000,274.100000,269.100000,277.400000,269.500000,281.500000C270,286.800000,271.400000,292.400000,273.200000,297.600000C274.200000,300.900000,275.400000,304,276.800000,307Z" clip-rule="evenodd" fill="rgb(35,44,83)" fill-rule="evenodd" stroke="none" stroke-width="1"/><path id="exyo8y3l89as92" d="M264,334.100000C265.100000,334.300000,266.300000,334.200000,267.400000,333.800000C267.300000,332.400000,267.200000,331.100000,267.200000,329.700000C267.200000,329.500000,267.200000,329.300000,267.100000,329.200000C267,329,266.700000,328.900000,266.500000,328.900000C265.600000,328.700000,264.200000,328.700000,264.100000,329.900000C264,331.300000,264,332.700000,264,334.100000Z" fill="rgb(241,159,136)" stroke="none" stroke-width="1"/><path id="exyo8y3l89as93" d="M282.700000,334.100000C283.900000,334.300000,285,334.200000,286.100000,333.800000C285.900000,332.400000,285.600000,331.100000,285.400000,329.700000C285.400000,329.500000,285.300000,329.300000,285.200000,329.200000C285,329,284.800000,328.900000,284.500000,328.900000C283.600000,328.700000,282.100000,328.700000,282.300000,329.900000C282.400000,331.300000,282.600000,332.700000,282.700000,334.100000Z" fill="rgb(241,159,136)" stroke="none" stroke-width="1"/><path id="exyo8y3l89as94" d="M282.400000,303.700000C280.900000,301.300000,277.400000,299.600000,275.900000,303.800000C273.600000,310.200000,280.900000,322.200000,281.900000,329.900000L285.800000,329.900000C285.800000,329.200000,283.200000,305,282.400000,303.700000Z" clip-rule="evenodd" fill="rgb(35,44,83)" fill-rule="evenodd" stroke="none" stroke-width="1"/><path id="exyo8y3l89as95" d="M263.600000,283.700000C264.500000,284.500000,265.800000,284.600000,267,284.600000C276.600000,284.600000,282.200000,281.400000,280.900000,276.800000C279.500000,272.100000,270.900000,272.900000,266.400000,274.400000C265.400000,274.700000,264,275,263.300000,276C262.300000,277.300000,261.300000,281.800000,263.600000,283.700000Z" clip-rule="evenodd" fill="rgb(14,61,94)" fill-rule="evenodd" stroke="none" stroke-width="1"/><path id="exyo8y3l89as96" d="M276.800000,251.700000C277.100000,256.200000,278,260.900000,280.500000,264.700000C281,265.500000,281.800000,266.400000,282.800000,266.300000C283.400000,266.200000,283.800000,265.800000,284.100000,265.400000C284.400000,264.900000,284.500000,264.300000,284.600000,263.800000C285.400000,259.400000,284.100000,254.800000,282.800000,250.500000C282.300000,248.700000,281.500000,245.600000,279.800000,244.600000C278,243.600000,277,246.700000,276.900000,247.900000C276.700000,249.200000,276.700000,250.400000,276.800000,251.700000Z" fill="rgb(241,159,136)" stroke="none" stroke-width="1"/><path id="exyo8y3l89as97" d="M276.600000,245.300000C276.700000,244.500000,276.900000,243.700000,277.600000,243.300000C278.300000,243,279.100000,243.500000,279.600000,244C283,247.100000,284.300000,251.500000,284.900000,256.200000L276.800000,256.700000C276.200000,253,276.100000,249.100000,276.600000,245.300000Z" clip-rule="evenodd" fill="rgb(33,136,139)" fill-rule="evenodd" stroke="none" stroke-width="1"/><path id="exyo8y3l89as98" d="M264.400000,307C264.700000,308.200000,265.200000,309.600000,266.300000,309.900000C267,310.100000,269.500000,308.600000,270.100000,308C270.700000,307.400000,275.100000,282.900000,274.500000,281.200000C273.700000,278.800000,271.500000,277.300000,269.400000,276.900000C266.200000,276.400000,262.600000,277.400000,262.100000,281.500000C261.500000,286.800000,261.900000,292.400000,262.600000,297.600000C263,300.900000,263.600000,304,264.400000,307Z" clip-rule="evenodd" fill="rgb(14,61,94)" fill-rule="evenodd" stroke="none" stroke-width="1"/><path id="exyo8y3l89as99" d="M290.700000,252.100000C291.200000,251.700000,291.900000,251.300000,292.500000,251.500000C293,251.700000,293.300000,252.300000,293.300000,252.900000C293.300000,253.500000,286.600000,264.700000,283.700000,265.900000C282.300000,266.500000,281.100000,265.700000,280.600000,264.400000C279.800000,262.600000,288.700000,253.600000,290.700000,252.100000Z" fill="rgb(245,181,146)" stroke="none" stroke-width="1"/><path id="exyo8y3l89as100" d="M270.800000,303.700000C269.900000,301.300000,266.300000,299.400000,264.200000,303.800000C260.900000,311,262.900000,321.700000,263.500000,329.900000L267.400000,329.900000C267.800000,329.200000,271.300000,305,270.800000,303.700000Z" clip-rule="evenodd" fill="rgb(14,61,94)" fill-rule="evenodd" stroke="none" stroke-width="1"/><path id="exyo8y3l89as101" d="M281.900000,246.800000C282.900000,248.300000,282.500000,250.400000,282.300000,252.100000C281.800000,255.800000,280.500000,259.400000,279.800000,263C279.100000,266.700000,278.900000,270.500000,280.400000,274C280.600000,274.500000,280.900000,275.100000,281,275.700000C281,276.300000,280.800000,276.900000,280.200000,277.200000C279.900000,277.400000,279.500000,277.400000,279.100000,277.400000C274,277.400000,269,277.300000,263.900000,277.300000C263.600000,277.300000,263.200000,277.300000,262.900000,277.100000C262.300000,276.700000,262.500000,275.900000,262.700000,275.200000C264.200000,270.900000,262.900000,266.200000,261.600000,261.900000C260.300000,257.600000,258.700000,252.200000,259.400000,247.700000C261.200000,245.500000,264.800000,240.300000,272.100000,240.300000C277.200000,240.200000,281,245.400000,281.900000,246.800000Z" clip-rule="evenodd" fill="rgb(33,136,139)" fill-rule="evenodd" stroke="none" stroke-width="1"/><path id="exyo8y3l89as102" d="M254.300000,249.800000C257,246.800000,260.700000,244.700000,264.500000,243.700000C265.200000,243.500000,266.100000,243.400000,266.500000,244C266.700000,244.300000,266.800000,244.800000,266.700000,245.200000C266.600000,245.600000,266.400000,245.900000,266.200000,246.300000C263.900000,250.300000,261,254,258.100000,257.700000C257.200000,258.800000,256.300000,260,255.200000,260.800000C254.100000,261.700000,252.600000,262.200000,251.200000,262C250.500000,261.900000,249.400000,261.500000,249.100000,260.700000C248.800000,260.100000,249.300000,259.100000,249.400000,258.500000C250,256.400000,250.900000,254.400000,252,252.600000C252.700000,251.600000,253.500000,250.700000,254.300000,249.800000Z" fill="rgb(245,181,146)" stroke="none" stroke-width="1"/><path id="exyo8y3l89as103" d="M255.800000,258C255.800000,258,255.700000,258.100000,255.800000,258C255.800000,258.100000,255.800000,258,255.800000,258Z" clip-rule="evenodd" fill="rgb(33,136,139)" fill-rule="evenodd" stroke="none" stroke-width="1"/><path id="exyo8y3l89as104" d="M267.900000,244.600000C268.200000,243.900000,268.600000,243.100000,268.200000,242.500000C267.800000,241.800000,266.300000,241.700000,265.600000,241.800000C261,242.600000,257.100000,245.100000,254,248.700000L261.500000,253.900000C263.900000,251.100000,266.100000,248,267.900000,244.600000Z" clip-rule="evenodd" fill="rgb(33,136,139)" fill-rule="evenodd" stroke="none" stroke-width="1"/><path id="exyo8y3l89as105" d="M266.600000,269.900000C266.800000,270.600000,266.300000,271.400000,265.600000,271.600000C264.900000,271.900000,253.900000,267,249.900000,262.200000C247,258.600000,253,254.500000,254.600000,257.700000C256.300000,261,266.500000,269.400000,266.600000,269.900000Z" fill="rgb(245,181,146)" stroke="none" stroke-width="1"/><g id="exyo8y3l89as106"><path id="exyo8y3l89as107" d="M278.500000,232.800000C278.300000,233.200000,278,233.100000,278,232.600000C278,231.100000,278.100000,230.800000,277.400000,229.500000C277,228.700000,276.900000,228.700000,277.200000,228.400000C278.400000,227.600000,280.500000,229.400000,278.500000,232.800000Z" clip-rule="evenodd" fill="rgb(35,44,85)" fill-rule="evenodd" stroke="none" stroke-width="1"/><path id="exyo8y3l89as108" d="M274.200000,235C273.700000,232.800000,272,232.200000,271.100000,232.800000C270.500000,237,269.900000,238.900000,268.200000,241.200000C270.200000,242.500000,273.600000,242.300000,274.300000,241.200000C274.400000,240.800000,274.400000,236.100000,274.200000,235Z" fill="rgb(241,159,136)" stroke="none" stroke-width="1"/><path id="exyo8y3l89as109" d="M272.200000,229C273.700000,227.100000,276.800000,227.400000,277.900000,229.800000C278.900000,232,277.800000,236.600000,276.900000,237.500000C275.400000,239.200000,272.100000,237.300000,271.600000,236C271,234.200000,270.900000,230.600000,272.200000,229Z" fill="rgb(245,181,146)" stroke="none" stroke-width="1"/><path id="exyo8y3l89as110" d="M273,229.600000C273.100000,229.900000,272.300000,234.600000,272.200000,234.500000C271.800000,234.300000,271.200000,233,270.300000,233.100000C270,233.100000,269.700000,233.300000,269.700000,232.700000C269.600000,229.200000,269.500000,229.400000,270.100000,229.100000C271.400000,228.400000,272.800000,229,273,229.600000Z" clip-rule="evenodd" fill="rgb(35,44,85)" fill-rule="evenodd" stroke="none" stroke-width="1"/><path id="exyo8y3l89as111" d="M269.200000,227.400000C272,225.400000,276.500000,224.600000,277.900000,225.400000C279.900000,226.600000,278.400000,230,277.700000,230.200000C277.400000,230.300000,277.100000,230,276.800000,229.800000C275.400000,228.800000,274.200000,229.600000,273.200000,229.800000C271.300000,230.100000,266.900000,229.100000,269.200000,227.400000Z" clip-rule="evenodd" fill="rgb(35,44,85)" fill-rule="evenodd" stroke="none" stroke-width="1"/><path id="exyo8y3l89as112" d="M269.500000,232.600000C269.400000,233.200000,269.600000,233.700000,270,234.200000C271,235.500000,272,233.800000,271.800000,232.700000C271.500000,231.400000,269.700000,231,269.500000,232.600000Z" fill="rgb(245,181,146)" stroke="none" stroke-width="1"/></g><path id="exyo8y3l89as113" d="M293.500000,336.100000C293.500000,335.500000,293,335.100000,292.500000,334.900000C292,334.800000,291.400000,334.900000,290.800000,334.900000C289.200000,334.900000,287.700000,333.900000,286.900000,332.500000C286.800000,332.300000,286.700000,332.100000,286.500000,332C286.200000,331.900000,285.900000,332,285.700000,332.200000C285.500000,332.400000,285.300000,332.600000,285.100000,332.900000C284.700000,333.300000,284.200000,333.500000,283.700000,333.500000C283.300000,333.500000,282.800000,333.200000,282.400000,333.400000C282,333.600000,281.900000,334.100000,281.800000,334.500000C281.600000,335.100000,281.500000,335.800000,281.300000,336.400000C281.300000,336.500000,281.200000,336.700000,281.200000,336.800000L284.200000,336.800000C284.300000,336.600000,284.500000,336,284.500000,335.800000C284.500000,336.100000,284.600000,336.600000,284.800000,336.800000L293.100000,336.800000C293.400000,336.500000,293.500000,336.300000,293.500000,336.100000Z" clip-rule="evenodd" fill="rgb(14,61,94)" fill-rule="evenodd" stroke="none" stroke-width="1"/><path id="exyo8y3l89as114" d="M268.900000,336.100000C268.900000,335.500000,268.700000,335.100000,268.500000,334.900000C268.300000,334.800000,267.900000,333.800000,267.400000,332.400000C267.200000,331.800000,265.900000,331.600000,265.300000,332.700000C265.100000,333.100000,264.900000,333.300000,264.700000,333.300000C264.500000,333.300000,264.300000,333,264.100000,333.200000C263.900000,333.400000,263.900000,333.900000,263.900000,334.300000C263.800000,334.900000,263.800000,335.600000,263.700000,336.200000C263.700000,336.300000,263.700000,336.500000,263.700000,336.600000L268.900000,336.600000C268.800000,336.500000,268.900000,336.300000,268.900000,336.100000Z" clip-rule="evenodd" fill="rgb(14,61,94)" fill-rule="evenodd" stroke="none" stroke-width="1"/><path id="exyo8y3l89as115" d="M295,247.600000C294.800000,246.500000,294.500000,245.900000,293.600000,245.200000C293.400000,245,293.200000,244.800000,292.900000,244.800000C292.600000,244.800000,292.300000,245,292.100000,245.300000C291.400000,246.100000,290.900000,247.200000,290.600000,248.200000C290.500000,248.800000,290.300000,249.500000,290.300000,250.200000C290.200000,250.100000,290,250.100000,289.900000,249.900000C289.500000,249.500000,289.200000,248.900000,288.600000,248.800000C288.100000,248.700000,288.600000,250.100000,288.700000,250.700000C289,252.600000,291.400000,254.400000,292.800000,253.700000C293.500000,253.300000,293.300000,252.100000,294,250.400000C294.400000,249.600000,295.200000,248.500000,295,247.600000Z" fill="rgb(245,181,146)" stroke="none" stroke-width="1"/><path id="exyo8y3l89as116" d="M267.100000,274.600000C266.800000,275.200000,266.300000,275.800000,265.700000,276.100000C264.600000,276.600000,263.400000,276.300000,262.200000,276C262,276,261.800000,275.900000,261.700000,275.800000C261.600000,275.700000,261.500000,275.400000,261.600000,275.300000C261.700000,275,262.100000,275.100000,262.400000,275C262.700000,274.900000,262.800000,274.500000,262.800000,274.100000C262.800000,273.800000,262.700000,273.400000,262.600000,273.100000C262.500000,272.200000,263.100000,271.400000,263.800000,270.800000C264.600000,270.200000,266.300000,269.200000,267,270.300000C267.700000,271.500000,267.700000,273.300000,267.100000,274.600000Z" fill="rgb(245,181,146)" stroke="none" stroke-width="1"/></g><g id="exyo8y3l89as117" display="none"><path id="exyo8y3l89as118" d="M544.400000,279.700000C545.600000,276.900000,546.700000,274.200000,547.900000,271.400000C549.100000,268.400000,550.400000,265.400000,550.700000,262.300000C551,259.200000,551.400000,255.200000,549,253.200000C546,250.700000,540.600000,249.800000,538.600000,254C531.600000,268.600000,536.500000,292.100000,537.300000,297.400000C537.500000,298.900000,537.800000,300.300000,538.100000,301.800000L543.100000,301.800000C544.100000,293.500000,546,284.100000,544.400000,279.700000Z" clip-rule="evenodd" fill="rgb(106,100,205)" fill-rule="evenodd" stroke="none" stroke-width="1"/><path id="exyo8y3l89as119" d="M543.200000,301.800000L538.200000,301.800000C538.500000,303.500000,538.900000,305.200000,539.400000,306.900000C539.500000,307.500000,539.800000,308.200000,540.500000,308.300000C541.400000,308.500000,542.800000,307.800000,542.800000,307.100000C542.800000,305.400000,543,303.600000,543.200000,301.800000Z" fill="rgb(241,159,136)" stroke="none" stroke-width="1"/><path id="exyo8y3l89as120" d="M553.800000,283.200000C554.400000,284.500000,555.500000,286,557.100000,286.100000C558.100000,286.100000,559,285.600000,559.600000,284.800000C560.200000,284.100000,560.500000,283.200000,560.700000,282.400000C561.900000,278.700000,563.100000,275.100000,564.200000,271.400000C565.200000,268.400000,566.100000,265.400000,566.100000,262.300000C566,259.200000,564.800000,256,562.100000,254.100000C558.600000,251.600000,552.300000,251.900000,551.100000,256.100000C549.500000,261.700000,549.500000,267.900000,550.600000,273.500000C551.300000,276.800000,552.400000,280.100000,553.800000,283.200000Z" clip-rule="evenodd" fill="rgb(115,108,223)" fill-rule="evenodd" stroke="none" stroke-width="1"/><path id="exyo8y3l89as121" d="M561.500000,278.600000C558.200000,275,552.100000,277.300000,553.500000,281.600000C555.100000,286.900000,557.800000,292.100000,560.400000,297.100000C561.100000,298.400000,561.800000,299.700000,562.600000,301.100000L567.700000,299.800000C566,291.700000,564.900000,282.300000,561.500000,278.600000Z" clip-rule="evenodd" fill="rgb(115,108,223)" fill-rule="evenodd" stroke="none" stroke-width="1"/><path id="exyo8y3l89as122" d="M567.700000,299.900000L562.600000,301.200000C563.600000,302.900000,564.600000,304.500000,565.600000,306.200000C565.900000,306.800000,566.400000,307.400000,567.200000,307.500000C568.200000,307.600000,569.400000,306.800000,569.200000,306C568.700000,304,568.200000,302,567.700000,299.900000Z" fill="rgb(245,181,146)" stroke="none" stroke-width="1"/><path id="exyo8y3l89as123" d="M570.800000,308.300000C570.700000,307.600000,570.600000,306.900000,570.300000,306.200000C569.900000,305.600000,569.700000,304.900000,568.900000,304.500000C568.800000,304.900000,568.200000,305.400000,567.800000,305.500000C567.400000,305.600000,565.400000,305,565.100000,305.200000C564.900000,305.300000,565.100000,308.300000,564.100000,309C563.100000,309.700000,561.900000,310.200000,560.800000,310.800000C560.400000,311,560,311.200000,559.800000,311.500000C559.500000,311.800000,559.500000,312.200000,559.700000,312.500000C559.700000,312.500000,559.800000,312.600000,559.800000,312.600000L567.900000,311.600000C568,311.400000,568.200000,311.100000,568.300000,310.900000C568.700000,310,569.100000,309.100000,569.500000,308.200000C570,309.200000,570.400000,310.200000,570.500000,311.300000L571.400000,311.200000C571,310.200000,570.900000,309.300000,570.800000,308.300000Z" clip-rule="evenodd" fill="rgb(115,108,223)" fill-rule="evenodd" stroke="none" stroke-width="1"/><path id="exyo8y3l89as124" d="M549.900000,262.700000C552.600000,262.600000,572.300000,264,561.400000,250.600000C559.900000,248.700000,556,248.500000,553.200000,248.300000C549.400000,247.900000,541.900000,248,540,250.600000C534.300000,259,547,262.700000,549.900000,262.700000Z" clip-rule="evenodd" fill="rgb(115,108,223)" fill-rule="evenodd" stroke="none" stroke-width="1"/><circle id="exyo8y3l89as125" r="9.200000" transform="matrix(1 0 0 1 548.55098700000008 47.39510199999999)" fill="rgb(249,245,233)" stroke="rgb(53,61,80)" stroke-width="6" stroke-miterlimit="10"/><path id="exyo8y3l89as126" d="M546.700000,233C547.500000,230.800000,548.100000,228.300000,547.200000,226.100000C546.900000,225.400000,546.900000,225.300000,546,225.600000C545.400000,225.900000,544.800000,226.400000,544.300000,226.800000C543.300000,227.600000,542.400000,228.500000,541.700000,229.500000C540.900000,230.500000,540.300000,231.600000,539.700000,232.700000L545.800000,235.100000C546.200000,234.500000,546.500000,233.700000,546.700000,233Z" clip-rule="evenodd" fill="rgb(251,208,84)" fill-rule="evenodd" stroke="none" stroke-width="1"/><path id="exyo8y3l89as127" d="M539.800000,232.700000C539.400000,233.400000,539,234.200000,538.700000,234.900000C536.700000,238.900000,534.600000,242.900000,532.600000,247C532.400000,247.400000,532.200000,247.800000,532.400000,248.200000C532.600000,248.800000,533.700000,249.100000,534.500000,248.900000C535.300000,248.700000,535.900000,248.200000,536.500000,247.700000C540.700000,244,543.900000,239.800000,546,235.200000L539.800000,232.700000Z" fill="rgb(241,159,136)" stroke="none" stroke-width="1"/><path id="exyo8y3l89as128" d="M529.300000,234.100000C529.400000,233.700000,529.700000,233.200000,530.200000,233.100000C530.700000,233.100000,531.100000,233.500000,531.400000,233.800000C533.600000,236.900000,536.400000,246.900000,535.200000,248.200000C534.100000,249.400000,532.800000,249.500000,531.700000,248.200000C529.600000,245.800000,528.800000,235.800000,529.300000,234.100000Z" fill="rgb(245,181,146)" stroke="none" stroke-width="1"/><path id="exyo8y3l89as129" d="M528.900000,233.100000C528.800000,232.200000,529.100000,231.200000,529.900000,230.500000C530.600000,230,531.600000,229.700000,532.500000,229.700000C532.900000,229.700000,533.500000,229.700000,533.600000,230C533.700000,230.300000,533.400000,230.500000,533.300000,230.800000C533,231.400000,533.400000,232.100000,533.500000,232.800000C533.600000,233.500000,533.300000,234.300000,532.700000,234.800000C532.200000,235.200000,530.800000,236,530.100000,235.600000C529.300000,235.300000,529,233.700000,528.900000,233.100000Z" fill="rgb(245,181,146)" stroke="none" stroke-width="1"/><path id="exyo8y3l89as130" d="M557.300000,244.100000C556.600000,238.900000,563.800000,234.600000,563.100000,229.400000C562.600000,225.900000,558.100000,223.100000,553.500000,223.100000C548.900000,223.100000,544.700000,225.700000,543,229C542.200000,230.600000,542,232.300000,542.200000,234C542.400000,235.200000,542.800000,236.300000,543.100000,237.500000C543.600000,239.900000,543.300000,242.300000,542.600000,244.600000C542,246.600000,540.600000,248.600000,539.900000,250.600000L561.300000,250.600000C560.800000,249.700000,557.500000,245.500000,557.300000,244.100000Z" clip-rule="evenodd" fill="rgb(251,208,84)" fill-rule="evenodd" stroke="none" stroke-width="1"/><path id="exyo8y3l89as131" d="M544.200000,309.600000C544.300000,308.900000,544.300000,308.200000,544.100000,307.500000C543.900000,306.800000,543.600000,306.100000,542.900000,305.700000C542.700000,306,542.300000,306.500000,541.800000,306.500000C541.400000,306.500000,539.600000,305.900000,539.200000,306C538.900000,306.100000,538.500000,308.900000,537.400000,309.500000C536.300000,310.100000,535,310.400000,533.700000,310.900000C533.300000,311.100000,532.800000,311.200000,532.500000,311.500000C532.200000,311.800000,532,312.200000,532.200000,312.500000C532.200000,312.500000,532.200000,312.600000,532.300000,312.600000L540.500000,312.600000C540.700000,312.400000,540.900000,312.100000,541,311.900000C541.600000,311.100000,542.100000,310.200000,542.700000,309.400000C543,310.400000,543.200000,311.500000,543.100000,312.600000L544,312.600000C544,311.600000,544.100000,310.600000,544.200000,309.600000Z" clip-rule="evenodd" fill="rgb(106,100,205)" fill-rule="evenodd" stroke="none" stroke-width="1"/><g id="exyo8y3l89as132"><path id="exyo8y3l89as133" d="M564.800000,232C564.800000,230.200000,564.200000,228.400000,562.800000,227C562.500000,226.700000,562,226.300000,561.400000,226.400000C560.900000,226.400000,560.500000,226.800000,560.200000,227.200000C558.400000,229.500000,557.900000,232.300000,557.500000,235L564.300000,235.700000C564.600000,234.400000,564.900000,233.200000,564.800000,232Z" clip-rule="evenodd" fill="rgb(251,208,84)" fill-rule="evenodd" stroke="none" stroke-width="1"/><path id="exyo8y3l89as134" d="M564,237.300000C564.200000,236.700000,564.300000,236.200000,564.400000,235.600000L557.600000,234.900000C557.600000,235.200000,557.500000,235.400000,557.500000,235.700000C557.100000,238.400000,556.700000,241.100000,556.300000,243.800000C556.200000,244.800000,555.700000,246,556.600000,246.900000C557.200000,247.500000,558.400000,247.900000,559.400000,247.700000C560.300000,247.500000,561,246.900000,561.400000,246.300000C561.800000,245.700000,562,245,562.200000,244.300000C562.800000,241.900000,563.400000,239.600000,564,237.300000Z" fill="rgb(245,181,146)" stroke="none" stroke-width="1"/></g><path id="exyo8y3l89as135" d="M541.200000,246.800000C540.400000,246.900000,538.500000,247.100000,538.600000,247.700000C538.600000,248.200000,540.300000,248.500000,540.900000,248.500000C545.200000,248.700000,559.400000,248.100000,560.400000,247.800000C561.900000,247.300000,562.600000,244.200000,560.300000,243.600000C558,243.200000,548.500000,246.100000,541.200000,246.800000Z" fill="rgb(245,181,146)" stroke="none" stroke-width="1"/><path id="exyo8y3l89as136" d="M538.900000,246.300000C537.600000,246.200000,536.400000,246.200000,535.100000,246.100000C534.900000,246.200000,535,246.500000,535.200000,246.600000C535.400000,246.700000,535.700000,246.700000,536,246.700000C536.300000,246.800000,536.500000,246.900000,536.500000,247.100000C536.400000,247.300000,536.100000,247.300000,535.800000,247.300000C534.500000,247.200000,533.300000,247.200000,532,247.100000C531.600000,247.800000,532,248.700000,532.800000,249.200000C533.600000,249.700000,534.600000,249.900000,535.600000,249.900000C537,250,538.400000,249.800000,539.700000,249.500000C540.500000,249.300000,541.300000,249,541.700000,248.500000C542.800000,247.300000,540.200000,246.300000,538.900000,246.300000Z" fill="rgb(245,181,146)" stroke="none" stroke-width="1"/><path id="exyo8y3l89as137" d="M547.600000,208.600000C548.200000,207.500000,549.500000,206.700000,551,206.600000C552.500000,206.500000,554.100000,207,555,207.900000C555.500000,208.400000,555.800000,209,556.400000,209.300000C557.200000,209.800000,558.300000,209.700000,559.300000,209.900000C560.800000,210.200000,562,211.200000,562.400000,212.300000C563.100000,214.700000,560.300000,217,560.800000,219.400000C561.100000,220.500000,562,221.400000,563,222.200000C564,223,565,223.800000,565.600000,224.800000C566.200000,225.800000,566.300000,227.100000,565.300000,227.900000C564.600000,228.500000,563.600000,228.700000,562.600000,228.900000C561.500000,229.100000,560.400000,229.100000,559.200000,229.100000C556.600000,229.100000,556.600000,224.900000,556.400000,221.700000C556.300000,219.800000,550.700000,219.600000,550,217.800000C549.600000,216.800000,550.100000,215.800000,549.900000,214.700000C549.800000,213.700000,549.100000,213,548.300000,212.300000C547.700000,211.800000,547.300000,210.900000,547.200000,210.200000C547.200000,209.700000,547.300000,209.200000,547.600000,208.600000Z" clip-rule="evenodd" fill="rgb(35,44,85)" fill-rule="evenodd" stroke="none" stroke-width="1"/><path id="exyo8y3l89as138" d="M551.100000,219C551.400000,220.300000,551.300000,221.700000,550.800000,222.900000C550.700000,223.300000,550.500000,223.800000,550.800000,224.100000C551.100000,224.400000,551.700000,224.500000,552.200000,224.500000C553,224.500000,553.900000,224.500000,554.700000,224.400000C555.500000,224.200000,556.300000,223.800000,556.600000,223.200000C556.800000,222.700000,556.700000,222.100000,556.500000,221.600000C556.200000,220.600000,555.900000,219.600000,555.700000,218.500000C555.600000,218.200000,555.500000,217.900000,555.300000,217.700000C554.900000,217.300000,554.100000,217.300000,553.500000,217.600000C552.900000,217.800000,552.500000,218.300000,552.100000,218.700000L551.100000,219Z" fill="rgb(241,159,136)" stroke="none" stroke-width="1"/><path id="exyo8y3l89as139" d="M548.600000,218.600000C548.200000,217.900000,548.100000,217.200000,548,216.500000C547.900000,215.500000,547.700000,214.500000,548,213.500000C548.200000,212.500000,548.800000,211.500000,549.900000,210.900000C551.200000,210.200000,553,210.200000,554.500000,210.600000C555.800000,210.900000,557,211.600000,557.600000,212.600000C557.900000,213.100000,557.900000,213.700000,558,214.300000C558,215,558.100000,215.800000,557.800000,216.500000C557.500000,217.300000,556.700000,218,555.900000,218.500000C555,219,554.100000,219.300000,553.100000,219.700000C552.500000,219.900000,551.900000,220.100000,551.300000,220.100000C549.900000,220.100000,549.100000,219.400000,548.600000,218.600000Z" fill="rgb(245,181,146)" stroke="none" stroke-width="1"/><path id="exyo8y3l89as140" d="M553.900000,212.400000C554.500000,213.400000,554.200000,214.600000,555.100000,215.400000C555.800000,216.100000,557.200000,216.200000,558.100000,215.800000C558.800000,215.500000,559.200000,214.800000,559.300000,214.200000C559.400000,213.600000,559.100000,212.900000,558.600000,212.400000C558.100000,211.900000,557.500000,211.400000,556.800000,211C555.800000,210.400000,554.600000,209.900000,553.300000,209.700000C552.500000,209.600000,551.700000,209.600000,550.900000,209.700000C550.300000,209.800000,549.100000,210.100000,549,210.600000C548.800000,211.100000,549.500000,211.200000,550,211.100000C550.800000,210.900000,551.500000,210.900000,552.200000,211.100000C552.900000,211.300000,553.600000,211.800000,553.900000,212.400000Z" clip-rule="evenodd" fill="rgb(35,44,85)" fill-rule="evenodd" stroke="none" stroke-width="1"/><path id="exyo8y3l89as141" d="M556.900000,215.200000C557.100000,215.100000,557.400000,215.100000,557.600000,215.100000C557.900000,215.100000,558.100000,215.200000,558.300000,215.300000C558.500000,215.500000,558.500000,215.800000,558.400000,216.100000C558.200000,216.700000,557.400000,217.200000,556.600000,217.100000C555.900000,217,555.700000,216.500000,555.800000,216C555.900000,215.500000,556.400000,215.300000,556.900000,215.200000Z" fill="rgb(245,181,146)" stroke="none" stroke-width="1"/></g><g id="exyo8y3l89as142" display="none"><path id="exyo8y3l89as143" d="M204.800000,301C204.900000,303.800000,207.700000,311.200000,208.400000,319.200000C208.500000,319.700000,211,319.700000,211.100000,319.200000C211.400000,310.200000,213.200000,299.600000,212.200000,294.100000C211.900000,292.300000,208.700000,289.100000,207.200000,291.200000C205.800000,293.100000,204.700000,298.700000,204.800000,301Z" fill="rgb(245,181,146)" stroke="none" stroke-width="1"/><path id="exyo8y3l89as144" d="M207.200000,322.300000C207.100000,321.500000,207.100000,320.800000,207.300000,320C207.500000,319.300000,207.700000,318.500000,208.300000,318C208.400000,318.400000,208.800000,318.900000,209.200000,318.900000C209.500000,318.900000,211.100000,318.300000,211.300000,318.400000C211.500000,318.500000,211.900000,321.500000,212.800000,322.100000C213.700000,322.700000,214.800000,323.100000,215.800000,323.600000C216.200000,323.800000,216.500000,324,216.800000,324.200000C217.100000,324.500000,217.200000,324.900000,217.100000,325.300000C217.100000,325.300000,217.100000,325.400000,217.100000,325.400000L210.300000,325.400000C210.100000,325.200000,210,324.900000,209.900000,324.700000C209.400000,323.800000,209,322.900000,208.500000,322C208.200000,323.100000,208.100000,324.300000,208.200000,325.400000L207.400000,325.400000C207.400000,324.400000,207.300000,323.300000,207.200000,322.300000Z" clip-rule="evenodd" fill="rgb(49,149,188)" fill-rule="evenodd" stroke="none" stroke-width="1"/><path id="exyo8y3l89as145" d="M216.200000,300.400000C215.800000,303.200000,217.500000,310.800000,216.900000,318.700000C216.900000,319.200000,219.400000,319.400000,219.600000,319C221.400000,310.100000,224.800000,299.800000,224.600000,294.300000C224.600000,292.500000,221.900000,289,220.100000,291C218.500000,292.700000,216.500000,298.100000,216.200000,300.400000Z" fill="rgb(245,181,146)" stroke="none" stroke-width="1"/><path id="exyo8y3l89as146" d="M215.900000,322.300000C215.800000,321.500000,215.800000,320.800000,216,320C216.200000,319.300000,216.400000,318.500000,217,318C217.100000,318.400000,217.500000,318.900000,217.900000,318.900000C218.200000,318.900000,219.800000,318.300000,220,318.400000C220.200000,318.500000,220.600000,321.500000,221.500000,322.100000C222.400000,322.700000,223.500000,323.100000,224.500000,323.600000C224.900000,323.800000,225.200000,324,225.500000,324.200000C225.800000,324.500000,225.900000,324.900000,225.800000,325.300000C225.800000,325.300000,225.800000,325.400000,225.800000,325.400000L219,325.400000C218.800000,325.200000,218.700000,324.900000,218.600000,324.700000C218.100000,323.800000,217.700000,322.900000,217.200000,322C216.900000,323.100000,216.800000,324.300000,216.900000,325.400000L216.100000,325.400000C216,324.400000,215.900000,323.300000,215.900000,322.300000Z" clip-rule="evenodd" fill="rgb(49,149,188)" fill-rule="evenodd" stroke="none" stroke-width="1"/><path id="exyo8y3l89as147" d="M219.400000,259.300000C214.200000,251.100000,204.600000,254.600000,202.200000,259.600000C200.700000,262.600000,200.400000,266.400000,201.900000,269.200000C202.800000,273.200000,203.400000,271.900000,205.700000,293.400000C206.500000,295.300000,219.600000,295,223.700000,294.200000C224.900000,294.100000,225,293.900000,225,292.900000C226.200000,282.600000,222.700000,264.600000,219.400000,259.300000Z" clip-rule="evenodd" fill="rgb(49,149,188)" fill-rule="evenodd" stroke="none" stroke-width="1"/><path id="exyo8y3l89as148" d="M218.800000,251.400000C219.500000,249.700000,219.700000,247,220.500000,245.300000C221.800000,242.700000,222.900000,241.500000,222.900000,239.400000C222.900000,235.900000,219,234.900000,216.900000,230.900000C215.800000,228.700000,213.700000,228.800000,211.900000,228.800000C210.100000,228.800000,208,233.800000,208,235.900000C208.100000,240,210.600000,243.300000,210.100000,247.400000C209.500000,251.900000,206.900000,253.900000,203.500000,257.600000L220.200000,260.900000C219.800000,259.200000,217,255.800000,218.800000,251.400000Z" clip-rule="evenodd" fill="rgb(35,44,83)" fill-rule="evenodd" stroke="none" stroke-width="1"/><path id="exyo8y3l89as149" d="M209.300000,236.400000C209.400000,237.900000,209.900000,239.400000,210.300000,240.900000C211.600000,244.800000,213.500000,248.500000,215.700000,251.900000C216.100000,252.500000,216.500000,253.100000,217.100000,253.400000C217.700000,253.800000,218.500000,253.900000,219,253.600000C219.900000,253.100000,219.900000,251.900000,219.900000,250.900000C219.500000,246.200000,218.500000,241.600000,217.400000,237C217,235.300000,216.600000,233.500000,215.300000,232.300000C214.100000,231.200000,212,230.700000,210.500000,231.500000C209.200000,232.200000,209.200000,235,209.300000,236.400000Z" clip-rule="evenodd" fill="rgb(14,61,94)" fill-rule="evenodd" stroke="none" stroke-width="1"/><path id="exyo8y3l89as150" d="M230.400000,245.500000C231,245.700000,231,246.600000,230.700000,247.200000C230,248.900000,219.800000,254.600000,218.400000,253.800000C217.600000,253.300000,216.100000,251.700000,216.200000,250.700000C216.200000,249.400000,230.100000,245.400000,230.400000,245.500000Z" clip-rule="evenodd" fill="rgb(14,61,94)" fill-rule="evenodd" stroke="none" stroke-width="1"/><path id="exyo8y3l89as151" d="M229.800000,245.500000C230.600000,243.700000,231.200000,241.600000,232,240.900000C232.700000,240.300000,232.300000,241.900000,232.300000,242.800000C233.500000,240.700000,234.500000,240.900000,236.100000,240.400000C237.800000,239.900000,232.900000,247.500000,230.100000,247.800000L229.800000,245.500000Z" fill="rgb(245,181,146)" stroke="none" stroke-width="1"/><g id="exyo8y3l89as152"><path id="exyo8y3l89as153" d="M212.100000,221.800000C212.400000,221.300000,215.600000,222.900000,215.800000,223.300000C216,223.700000,216.200000,228.200000,216.900000,231C217,231.600000,211.100000,229.800000,211.500000,229C212.200000,227.800000,212.900000,223.300000,212.100000,221.800000Z" fill="rgb(241,159,136)" stroke="none" stroke-width="1"/><path id="exyo8y3l89as154" d="M221.300000,217.800000C220.200000,213.200000,213.900000,214.200000,212.400000,214.600000C210.900000,215.100000,210.900000,217.200000,210.700000,218.700000C210.600000,219.700000,211,220.600000,211.500000,221.400000C212,222.100000,214.400000,223.200000,214.600000,223.300000C215.500000,224.800000,216.900000,226.600000,218.400000,226.500000C219.100000,226.500000,219.700000,226.100000,220,225.500000C220.400000,225,220.600000,224.300000,220.800000,223.700000C221.600000,221.800000,221.800000,219.800000,221.300000,217.800000Z" fill="rgb(245,181,146)" stroke="none" stroke-width="1"/><path id="exyo8y3l89as155" d="M210.500000,220.400000C210,219.700000,209.500000,219,209.400000,218.100000C209.300000,217.100000,209.600000,216.100000,210.200000,215.200000C211.200000,213.700000,213.800000,211.800000,215.900000,211.700000C218.200000,211.700000,222,213.900000,221.700000,216.700000C221.600000,217.500000,221.100000,217.500000,220.300000,217.800000C219.200000,218.200000,217.800000,218.400000,217,219.100000C216,219.900000,216.400000,221.900000,214.300000,222.500000C213.600000,222.700000,212.900000,223.900000,212.400000,224.900000C211.800000,224.300000,211,221.100000,210.500000,220.400000Z" fill="rgb(201,55,111)" stroke="none" stroke-width="1"/><path id="exyo8y3l89as156" d="M213.300000,220.800000C213.200000,220.900000,213.100000,221.100000,213.100000,221.200000C213,221.700000,213.100000,222.200000,213.300000,222.600000C213.600000,223,214,223.300000,214.500000,223.400000C214.700000,223.400000,214.900000,223.400000,215.100000,223.300000C215.700000,223,215.400000,221.800000,215.100000,221.300000C214.800000,220.900000,213.800000,220.300000,213.300000,220.800000Z" fill="rgb(245,181,146)" stroke="none" stroke-width="1"/><path id="exyo8y3l89as157" d="M208.100000,222.200000C207.200000,223,206.700000,224.300000,206.900000,225.500000C207,226.600000,207.700000,227.700000,207.700000,228.800000C207.700000,229.700000,207.300000,230.600000,206.800000,231.400000C205.600000,233.400000,204.100000,235.200000,202.300000,236.700000C202.100000,236.900000,201.900000,237.100000,201.900000,237.300000C202,237.600000,202.300000,237.700000,202.700000,237.700000C203.900000,237.800000,205.100000,237.700000,206.200000,237.500000C207.300000,237.200000,208.500000,236.700000,209.300000,235.900000C210.200000,235,210.700000,233.700000,210.900000,232.400000C211,231.100000,210.700000,229.800000,210.200000,228.600000C209.900000,227.900000,209.500000,227.200000,209.300000,226.500000C209.100000,225.800000,209.100000,224.900000,209.500000,224.300000C209.900000,223.700000,210.500000,223.400000,210.900000,222.800000C211.100000,222.500000,211.400000,222,211.400000,221.700000C211.300000,221.300000,210.900000,221.400000,210.500000,221.400000C209.600000,221.300000,208.700000,221.600000,208.100000,222.200000Z" fill="rgb(201,55,111)" stroke="none" stroke-width="1"/><path id="exyo8y3l89as158" d="M209.700000,222.100000C209.800000,222.400000,210.100000,222.600000,210.300000,222.800000C210.500000,223,210.700000,223.200000,211,223.300000C211.300000,223.400000,211.600000,223.400000,211.800000,223.300000C212.100000,223.100000,212.200000,222.700000,212.200000,222.400000C212.100000,221.800000,211.600000,220.800000,210.900000,220.700000C210,220.600000,209.300000,221.200000,209.700000,222.100000Z" clip-rule="evenodd" fill="rgb(14,61,94)" fill-rule="evenodd" stroke="none" stroke-width="1"/></g></g></g><g id="exyo8y3l89as159"><g id="exyo8y3l89as160_tr" transform="translate(548.530881,46.378306) rotate(0)"><g id="exyo8y3l89as160" transform="translate(-536.165662,-54.581297)"><path id="exyo8y3l89as161" d="M0,0L48.800645,0L48.800645,7.400000L0,7.400000L0,0Z" transform="matrix(-0.07161000000000 0.99740000000000 -0.99740000000000 -0.07161000000000 539.47941881312272 64.51969858731550)" fill="rgb(47,97,182)" stroke="none" stroke-width="1"/><path id="exyo8y3l89as162" d="M523.640334,93.500000L544.524453,94.900000L553.261686,112.300000L543.672040,125.600000L536.959287,122L544.204798,111.500000L538.451010,102.600000L528.222054,101.900000L522.361714,110L527.689296,121L521.189646,124.800000L511.600000,109.400000Z" transform="matrix(1 0 0 1 -1.50653955687744 13.82039458731562)" fill="rgb(47,97,182)" stroke="none" stroke-width="1"/><path id="exyo8y3l89as163" d="M523.640334,93.500000L544.524453,94.900000L538.451010,102.600000L528.222054,101.900000L522.361714,110L527.689296,121L521.189646,124.800000L511.600000,109.400000Z" transform="matrix(1 0 0 1 -2.08218718687738 13.82039458731562)" fill="rgb(47,97,182)" stroke="none" stroke-width="1"/><path id="exyo8y3l89as164" d="M0,0L20.138257,0L20.138257,12.400000L0,12.400000L0,0Z" transform="matrix(-0.99610000000000 -0.08859800000000 0.08859800000000 -0.99610000000000 542.15977641312236 105.26602258731531)" fill="rgb(87,87,87)" stroke="none" stroke-width="1"/><path id="exyo8y3l89as165" d="M-9.909301,0C-9.909301,-5.246705,-5.472756,-9.500000,0,-9.500000C5.472756,-9.500000,9.909301,-5.246705,9.909301,0C9.909301,5.246705,5.472756,9.500000,0,9.500000C-5.472756,9.500000,-9.909301,5.246705,-9.909301,0Z" transform="matrix(0.10220000000000 -0.99480000000000 1.06369879546681 0.10927826386883 532.37920367703691 103.13465011826815)" fill="rgb(87,87,87)" stroke="none" stroke-width="1"/></g></g><rect id="exyo8y3l89as166" width="107" height="10.100000" rx="0" ry="0" transform="matrix(-0.77130000000000 -0.63650000000000 0.63650000000000 -0.77130000000000 171.08131999999995 164.14004000000000)" fill="rgb(47,97,182)" stroke="none" stroke-width="1"/><circle id="exyo8y3l89as167" r="12.400000" transform="matrix(1 0 0 1 167.40000000000001 154.10962900000001)" fill="rgb(249,245,233)" stroke="rgb(47,97,182)" stroke-width="6" stroke-miterlimit="10"/><circle id="exyo8y3l89as168" r="12.400000" transform="matrix(1 0 0 1 167.40000000000001 154.10962900000001)" fill="rgb(249,245,233)" stroke="rgb(47,97,182)" stroke-width="6" stroke-miterlimit="10"/><g id="exyo8y3l89as169"/><g id="exyo8y3l89as170_tr" transform="translate(166.887461,154.893226) rotate(-60)"><g id="exyo8y3l89as170" transform="translate(-166.887461,-154.893226)"><polygon id="exyo8y3l89as171" points="238.800000,160.600000 236,134.500000 257,119.500000 276.600000,128.100000 273.500000,137.300000 258,130.900000 247.500000,140.100000 248.900000,153 260.900000,158.300000 274.200000,149 280.700000,156.200000 262.600000,171.700000" fill="rgb(47,97,182)" stroke="none" stroke-width="1"/><polygon id="exyo8y3l89as172" points="298.900000,94.500000 286.900000,100.300000 287.300000,116.300000 299.500000,121" fill="rgb(68,70,90)" stroke="none" stroke-width="1"/><rect id="exyo8y3l89as173" width="26.200000" height="13" rx="0" ry="0" transform="matrix(0.99970000000000 -0.02267000000000 0.02267000000000 0.99970000000000 260.64423300000004 102.19549400000002)" fill="rgb(215,215,227)" stroke="none" stroke-width="1"/><polygon id="exyo8y3l89as174" points="269.700000,185.300000 256.400000,185.600000 256,166.400000 255.700000,154 254.700000,112.200000 268.100000,111.900000" fill="rgb(215,215,227)" stroke="none" stroke-width="1"/><circle id="exyo8y3l89as175" r="9.300000" transform="matrix(1 0 0 1 261.39999999999998 108.50000000000000)" fill="rgb(68,70,90)" stroke="none" stroke-width="1"/><polygon id="exyo8y3l89as176" points="255,184.900000 270.300000,184.400000 278.200000,197.400000 272.300000,208.500000 267.100000,206.300000 271.500000,197.400000 266.600000,190.900000 259,191.100000 255.400000,198 260.200000,206.200000 255.800000,209.700000 247.500000,198.400000" fill="rgb(68,70,90)" stroke="none" stroke-width="1"/><polygon id="exyo8y3l89as177" points="238.800000,160.600000 236,134.500000 247.500000,140.100000 248.900000,153 260.900000,158.300000 274.200000,149 280.700000,156.200000 262.600000,171.700000" transform="matrix(-1 0 0 1 516.69166104138708 0.00481450000001)" fill="rgb(47,97,182)" stroke="none" stroke-width="1"/><rect id="exyo8y3l89as178" width="61.400000" height="9.900000" rx="0" ry="0" transform="matrix(0.99420000000000 -0.10800000000000 0.10800000000000 0.99420000000000 178.35253999999995 148.84139999999996)" fill="rgb(47,97,182)" stroke="none" stroke-width="1"/><rect id="exyo8y3l89as179" width="25.400000" height="16.600000" rx="0" ry="0" transform="matrix(0.09099800000000 0.99590000000000 -0.99590000000000 0.09099800000000 231.47663680000011 135.53495880000000)" fill="rgb(87,87,87)" stroke="none" stroke-width="1"/><ellipse id="exyo8y3l89as180" rx="12.500000" ry="12.700000" transform="matrix(0.99700000000000 -0.07737200000000 0.07737300000000 0.99700000000000 232.79874130000002 148.10099839999998)" fill="rgb(87,87,87)" stroke="none" stroke-width="1"/></g></g><g id="exyo8y3l89as181"><g id="exyo8y3l89as182"><g id="exyo8y3l89as183"/></g></g><g id="exyo8y3l89as184"><rect id="exyo8y3l89as185" width="79.800000" height="7.500000" rx="0" ry="0" transform="matrix(-0.87970000000000 -0.47550000000000 0.47550000000000 -0.87970000000000 540.54566999999975 47.46353000000023)" fill="rgb(47,97,182)" stroke="none" stroke-width="1"/><rect id="exyo8y3l89as186" width="27.600000" height="16.600000" rx="0" ry="0" transform="matrix(-0.09234600000000 0.99570000000000 -0.99570000000000 -0.09234600000000 93.73573159999999 77.66910420000002)" fill="rgb(87,87,87)" stroke="none" stroke-width="1"/><ellipse id="exyo8y3l89as187" rx="13.800000" ry="12.500000" transform="matrix(0.09210700000000 -0.99570000000000 0.99570000000000 0.09210700000000 92.63822889999993 91.32297909999993)" fill="rgb(87,87,87)" stroke="none" stroke-width="1"/></g></g><circle id="exyo8y3l89as188" r="12.400000" transform="matrix(1 0 0 1 547.50345299999992 48.59238500000003)" fill="rgb(249,245,233)" stroke="rgb(47,97,182)" stroke-width="6" stroke-miterlimit="10"/></svg>