<?xml version="1.0" encoding="utf-8"?>
<!-- Generator: Adobe Illustrator 22.1.0, SVG Export Plug-In . SVG Version: 6.00 Build 0)  -->
<svg version="1.1" id="_x32_71e5882-3c8d-41ed-8a0a-1cb2b4d0cbc1"
	 xmlns="http://www.w3.org/2000/svg" xmlns:xlink="http://www.w3.org/1999/xlink" x="0px" y="0px" viewBox="0 0 1137.7 859.7"
	 style="enable-background:new 0 0 1137.7 859.7;" xml:space="preserve">
<style type="text/css">
	.st0{opacity:0.1;fill:#E20817;enable-background:new    ;}
	.st1{fill:#2F2E41;}
	.st2{fill:#FFB8B8;}
	.st3{fill:#F2F2F2;}
	.st4{fill:#FFFFFF;}
	.st5{fill:#E20817;}
	.st6{fill:#CCCCCC;}
	.st7{fill:#332326;}
	.st8{opacity:0.1;enable-background:new    ;}
	.st9{fill:#E0E0E0;}
	.st10{fill:#A0616A;}
	.st11{fill:#3F3D56;}
	.st12{fill:#060606;}
	.st13{fill:#F23A44;}
</style>
<circle class="st0" cx="601.4" cy="410.4" r="320.5"/>
<title>team spirit</title>
<path class="st1" d="M645.5,131.9c7.5,16-8.4,20.5-26.7,29.1s-31.9,17.9-39.4,1.9s-13.6-47.7,12.2-59.9
	C618.3,90.5,637.9,115.9,645.5,131.9z"/>
<circle class="st2" cx="608.2" cy="138.8" r="24.6"/>
<path class="st1" d="M729.9,247.7c-0.9-1.1-1.7-2.2-2.6-3.3c-1.1-1.4-2.2-2.7-3.4-4c-12.7-14.7-26.3-23.9-41.2-24.9h0l-0.2,0
	l-29.7,29l-10.1,9.8l0.2,0.5l5.4,13.6h95.5C739.6,261.2,734.9,254.3,729.9,247.7z"/>
<path class="st1" d="M581.5,148.6L581.5,148.6l8.8-4.1l-1.2-12.7l5.9,10.5l4.2-2l-0.7-7.4l3.4,6.1l31.2-14.7l0,0
	c-6.1-13-21.6-18.6-34.6-12.5l-4.5,2.1C581,120.2,575.4,135.6,581.5,148.6z"/>
<path class="st3" d="M785,594.5H272.2c-9.1,0-16.5-7.4-16.5-16.5V269.8c0-6.7,5.4-12.1,12.1-12.1h521.5c6.8,0,12.3,5.5,12.3,12.3
	V578C801.5,587.1,794.1,594.5,785,594.5z"/>
<path class="st4" d="M288.2,578H769c8.8,0,16-7.2,16-16V300.4c0-8.8-7.2-16-16-16H288.2c-8.8,0-16,7.2-16,16V562
	C272.2,570.8,279.3,578,288.2,578z"/>
<path class="st5" d="M801.3,268.9H255.4v-8.4c0-9.1,7.4-16.5,16.6-16.5h512.7c9.1,0,16.5,7.4,16.6,16.5V268.9z"/>
<circle class="st4" cx="285.5" cy="256.4" r="4.3"/>
<circle class="st4" cx="301.8" cy="256.4" r="4.3"/>
<circle class="st4" cx="318.1" cy="256.4" r="4.3"/>
<path class="st6" d="M543.6,521.2h-43c-5.2,0-9.5-4.3-9.5-9.5v-43c0-5.2,4.3-9.5,9.5-9.5h43c5.2,0,9.5,4.3,9.5,9.5v43
	C553.1,517,548.8,521.2,543.6,521.2z M500.6,461.2c-4.1,0-7.5,3.4-7.5,7.5v43c0,4.1,3.4,7.5,7.5,7.5h43c4.1,0,7.5-3.4,7.5-7.5v-43
	c0-4.1-3.4-7.5-7.5-7.5H500.6z"/>
<path class="st6" d="M492.2,439.1h-43c-5.2,0-9.5-4.3-9.5-9.5v-43c0-5.2,4.3-9.5,9.5-9.5h43c5.2,0,9.5,4.3,9.5,9.5v43
	C501.7,434.9,497.4,439.1,492.2,439.1z M449.2,379.1c-4.1,0-7.5,3.4-7.5,7.5v43c0,4.1,3.4,7.5,7.5,7.5h43c4.1,0,7.5-3.4,7.5-7.5v-43
	c0-4.1-3.4-7.5-7.5-7.5H449.2z"/>
<path class="st6" d="M441.6,521.2h-43c-5.2,0-9.5-4.3-9.5-9.5v-43c0-5.2,4.3-9.5,9.5-9.5h43c5.2,0,9.5,4.3,9.5,9.5v43
	C451.1,517,446.8,521.2,441.6,521.2z M398.6,461.2c-4.1,0-7.5,3.4-7.5,7.5v43c0,4.1,3.4,7.5,7.5,7.5h43c4.1,0,7.5-3.4,7.5-7.5v-43
	c0-4.1-3.4-7.5-7.5-7.5H398.6z"/>
<polygon class="st2" points="837.8,775.3 825.6,775.3 819.7,728.1 837.8,728.1 "/>
<path class="st7" d="M841,787.2l-39.5,0v-0.5c0-8.5,6.9-15.4,15.4-15.4c0,0,0,0,0,0h0l24.1,0L841,787.2z"/>
<polygon class="st2" points="887.8,775.3 875.6,775.3 869.7,728.1 887.8,728.1 "/>
<path class="st7" d="M891,787.2l-39.5,0v-0.5c0-8.5,6.9-15.4,15.4-15.4c0,0,0,0,0,0h0l24.1,0L891,787.2z"/>
<path class="st1" d="M884.2,754.8l-11.4-3.5c-1.7-0.5-3-2-3.2-3.8L859,647.2c0-0.3-0.2-0.4-0.5-0.4c-0.3,0-0.5,0.2-0.5,0.4
	l-17.7,97.2c-0.4,2.4-2.8,4.1-5.2,3.6c0,0-0.1,0-0.1,0l-14.5-3c-2.2-0.5-3.7-2.5-3.6-4.7L827.7,581l73.1-7.9L890,750.8
	c-0.1,2.4-2.1,4.2-4.5,4.2C885,755,884.6,755,884.2,754.8z"/>
<circle class="st2" cx="884.1" cy="417.7" r="24.6"/>
<path class="st5" d="M827.6,581.9l15.9-99.9c3.3-20.6,22.7-34.7,43.3-31.4c1.6,0.3,3.1,0.6,4.7,1.1l0,0
	c18.7,5.4,30.2,24.1,26.6,43.3l-16.6,89.2L827.6,581.9z"/>
<path class="st2" d="M890.9,599.8c4.6-3.1,5.9-9.3,2.9-13.9c-0.3-0.5-0.7-1-1.1-1.4l16.4-31.8l-18.5,2l-12.7,29.8
	c-3.8,4.1-3.5,10.5,0.6,14.3C881.8,602,887,602.4,890.9,599.8L890.9,599.8z"/>
<path class="st5" d="M894.4,578.9c-0.9-0.1-1.8-0.5-2.4-1.2l-6.3-5.8c-1.4-1.3-1.8-3.3-1.1-5.1l12.5-29.7l-1.8-58.7
	c1.1-7.9,8.4-13.5,16.3-12.4c7.9,1.1,13.5,8.4,12.4,16.3c0,0,0,0,0,0l3,36.9c0.9,11.2-2.3,22.4-8.9,31.4l-19.6,26.4
	c-0.8,1-1.9,1.7-3.2,1.8C895.1,578.9,894.7,578.9,894.4,578.9z"/>
<path class="st2" d="M742.6,404.3c1,5.5,6.3,9.1,11.7,8.1c0.6-0.1,1.2-0.3,1.7-0.5l22.8,27.5l5.4-17.8l-22.5-23.4
	c-2.3-5.1-8.3-7.3-13.4-5C744.1,395.1,741.8,399.7,742.6,404.3z"/>
<path class="st5" d="M760.5,415.7c0.5-0.8,1.2-1.4,2-1.8l7.8-3.5c1.7-0.8,3.8-0.4,5.1,1l22.5,23.1l54.8,21.3
	c6.9,4.1,9.2,13,5.1,19.9s-13,9.2-19.9,5.1c0,0,0,0,0,0l-35.2-11.6c-10.7-3.5-19.7-10.8-25.4-20.5l-16.7-28.3
	c-0.6-1.1-0.8-2.4-0.4-3.6C760.2,416.3,760.4,416,760.5,415.7z"/>
<polygon class="st8" points="904,502.8 903,534.8 884.6,566.9 900,531.2 "/>
<path class="st1" d="M881.3,422.3c-3.2,0.4-6.2-1.6-7-4.7c-0.8-3.5-3.5-6.3-7-7.3c-4.5-1-10,1.1-13.3-2.3c-1.4-1.6-2-3.8-1.6-5.8
	c0.6-3.3,3-5.8,5.6-7.8c5.4-4.2,12-6.7,18.9-7.1c3.5-0.1,7.1,0.1,10.6,0.5c3.7,0.2,7.3,0.9,10.9,2c8.2,3.1,14.2,10.1,16,18.7
	c1.6,8.5-0.6,17.4-6.1,24.1c-3.2,4-7.4,7.2-12.2,9.3c-1.1,0.5-2.4,0.6-3.6,0.2c-3-1.2-2.5-4.8-1.1-7.3c1.4-2.6,3.7-5.1,2.5-8.3
	c-0.6-1.5-1.7-2.7-3.1-3.4C887.8,421.6,884.5,421.9,881.3,422.3L881.3,422.3z"/>
<circle class="st0" cx="662.8" cy="387.3" r="94"/>
<path class="st2" d="M744.5,231.6c-1.6-2.6-4.2-4.5-7.2-5.1c-0.5-0.1-1.1-0.2-1.7-0.2l-76.2-68.1c-1.5-1.5-3.5-2.5-5.6-2.7
	c-0.4,0-0.8-0.1-1.3,0c-5,0.2-8.9,4.5-8.6,9.5c0.1,2.3,1.1,4.4,2.7,6l29.2,25.4l47.9,41.8c0,0.8,0.2,1.6,0.4,2.3
	c1.2,4.5,5,7.9,9.7,8.4c2.1,0.2,4.2-0.1,6.1-1c1.5-0.7,2.8-1.7,3.9-3c0.1-0.1,0.2-0.2,0.3-0.4C746.8,240.7,747,235.6,744.5,231.6
	L744.5,231.6z"/>
<path class="st2" d="M614.2,297.2l-0.7-28.9l-0.6-23.9l-0.4-16.8l-0.8-32.7c-0.5-5-4.9-8.6-9.8-8.2c-2.3,0.2-4.4,1.3-5.9,2.9
	c-0.3,0.3-0.5,0.6-0.8,1c-1.2,1.8-1.8,3.9-1.6,6.1l1.8,47.7l0.9,24l1.1,30.5c-0.3,0.4-0.6,0.9-0.9,1.4c-1.4,2.7-1.7,5.9-0.7,8.8
	c2,5.9,8.4,9.1,14.3,7.1c0.4-0.1,0.8-0.3,1.2-0.5c5.6-2.7,8.1-9.4,5.4-15C616.2,299.4,615.3,298.2,614.2,297.2L614.2,297.2z"/>
<path class="st9" d="M682.8,215.5l-7.1-19.1l-11.4-31c-1.7-4.6-5.3-8.1-10-9.7c-0.2-0.1-0.4-0.1-0.5-0.2c-4.5-1.4-9.3-0.7-13.2,1.8
	L602,181.7c-7.3,4.6-9.7,14.3-5.3,21.8c4.8,8.3,10.1,16.4,15.7,24.2c4.5,6.1,12.9,6.8,14.3,16.8h28.4l28.8-25.8L682.8,215.5z"/>
<circle class="st10" cx="241.6" cy="426.3" r="23.2"/>
<path class="st10" d="M298.5,410.4c0.2,0.2,0.4,0.4,0.7,0.6c4.2,3.9,4.4,10.5,0.4,14.7c-0.3,0.3-0.6,0.6-0.9,0.8
	c-0.3,0.2-0.5,0.4-0.8,0.6l1.6,52.9c0.1,3.6-2.2,6.8-5.5,7.9l-0.1,0l-43,4.6c-4.9,0.5-9.3-3-9.8-7.9c-0.5-4.9,3-9.3,7.9-9.8
	c0.1,0,0.1,0,0.2,0l30.6-2.7l5.3-45.9c-0.3-0.3-0.7-0.6-1-1c-3.7-4.4-3.1-10.9,1.2-14.6C289.2,407.4,294.7,407.3,298.5,410.4
	L298.5,410.4z"/>
<polygon class="st10" points="279.8,748.8 291.4,748.8 296.9,704.2 279.8,704.2 "/>
<path class="st7" d="M276.9,745.1l22.8,0h0c8,0,14.5,6.5,14.5,14.5c0,0,0,0,0,0v0.5l-37.3,0L276.9,745.1z"/>
<polygon class="st10" points="164.9,732.8 174.8,738.8 202.3,703.2 187.7,694.5 "/>
<path class="st7" d="M164.2,728.1l19.6,11.7l0,0c6.9,4.1,9.1,13,5,19.9c0,0,0,0,0,0l-0.2,0.4l-32-19.1L164.2,728.1z"/>
<path class="st1" d="M294.1,733.1h-13c-2.2,0-4-1.6-4.2-3.8l-13.1-122.7c-0.1-0.8-0.8-1.3-1.6-1.3c-0.5,0.1-0.9,0.4-1.1,0.8
	l-23.6,52.2l-41.7,68c-1.1,1.8-3.4,2.5-5.3,1.7l-16.7-7.3c-2.1-0.9-3.1-3.5-2.2-5.6c0.1-0.2,0.2-0.3,0.2-0.5l38.3-64.2l11.8-54.1
	c-3.7-23.5,12.2-58.3,12.3-58.7l0.1-0.2l43.7-17.1l0.2,0.3c17.2,56.5,27.7,117.3,20,208.6C298.1,731.4,296.3,733.1,294.1,733.1z"/>
<path class="st11" d="M232.7,543.1l-0.2-0.4c-0.1-0.2-9.8-20.7-17.3-42.6c-2.9-8.6-2.1-17.9,2.2-25.9c4.4-8,11.9-13.8,20.8-16l0,0
	c15.7-3.8,31.9,4.6,37.9,19.6c5.9,14.8,4,30.7,2.3,43.2l0,0.2l-0.2,0.1L232.7,543.1z"/>
<path class="st1" d="M269.7,413.3H233v-16c8.1-3.2,16-5.9,20.8,0C262.6,397.2,269.7,404.4,269.7,413.3L269.7,413.3z"/>
<path class="st1" d="M230.9,394.4c-22,0-28.2,27.6-28.2,43.1c0,8.7,3.9,11.8,10.1,12.8l2.2-11.6l5.1,12.1c1.7,0,3.6,0,5.4-0.1
	l1.7-3.6l3.9,3.5c15.4,0,27.9,2.3,27.9-13.2C259.1,422,253.7,394.4,230.9,394.4z"/>
<path class="st4" d="M337.1,432.1h-43c-5.2,0-9.5-4.3-9.5-9.5v-43c0-5.2,4.3-9.5,9.5-9.5h43c5.2,0,9.5,4.3,9.5,9.5v43
	C346.6,427.9,342.3,432.1,337.1,432.1z"/>
<path class="st11" d="M337.1,432.1h-43c-5.2,0-9.5-4.3-9.5-9.5v-43c0-5.2,4.3-9.5,9.5-9.5h43c5.2,0,9.5,4.3,9.5,9.5v43
	C346.6,427.9,342.3,432.1,337.1,432.1z M294.1,372.1c-4.1,0-7.5,3.4-7.5,7.5v43c0,4.1,3.4,7.5,7.5,7.5h43c4.1,0,7.5-3.4,7.5-7.5v-43
	c0-4.1-3.4-7.5-7.5-7.5H294.1z"/>
<path class="st5" d="M329.6,414.6h-28c-1.7,0-3-1.3-3-3v-21c0-1.7,1.3-3,3-3h7.9c1,0,2,0.5,2.6,1.4l2.2,3.6h15.4c1.7,0,3,1.3,3,3v16
	C332.6,413.3,331.3,414.6,329.6,414.6z"/>
<path class="st10" d="M328.7,425.2c0.1,0.3,0.3,0.5,0.4,0.8c2.3,5.2,0,11.4-5.3,13.7c-0.4,0.2-0.7,0.3-1.1,0.4
	c-0.3,0.1-0.7,0.2-1,0.2l-19.1,49.4c-1.3,3.3-4.6,5.4-8.2,5.1l-0.1,0l-41.4-12.5c-4.7-1.4-7.4-6.4-6-11.1c1.4-4.7,6.4-7.4,11.1-6
	c0.1,0,0.1,0,0.2,0l29.3,9.4l22.7-40.2c-0.2-0.4-0.4-0.8-0.5-1.3c-1.7-5.5,1.3-11.3,6.8-13C321.2,418.9,326.3,420.9,328.7,425.2
	L328.7,425.2z"/>
<g>
	<path class="st12" d="M660,340.2c-0.4,1.5,0.4,2.7,1.5,3.4c10.3,8.4,21,16.8,31.3,25.2c1.5,1.5,3.1,1.5,4.6,0.8
		c5.7-1.5,10.3,0.4,14.1,4.6c3.4,4.6,4.2,9.9,1.5,14.9c-2.7,5-7.2,8.4-12.6,7.2c-4.2-0.8-6.5,1.5-9.2,3.4
		c-5.7,4.6-11.8,9.5-17.5,14.1c-1.9,1.5-3.4,2.3-5.7,1.9c-2.7-0.4-4.6-1.9-5.3-4.2c-0.8-3.1-0.4-5,2.3-7.2c5-4.2,10.3-8.4,16-12.6
		c1.5-1.1,3.1-2.7,4.2-3.4c2.3-1.5,3.1-3.1,2.7-5.3c0-1.1-0.4-2.3-1.5-3.1c-10.7-8.8-22.1-17.2-32.8-25.9c-1.1-0.8-2.3-1.1-3.4-0.8
		c-7.6,2.3-15.3-2.7-17.2-10.3c-1.9-7.2,3.4-14.5,10.3-16.4C652,324.5,660,331,660,340.2z"/>
	<path class="st13" d="M646.3,413.4c7.6,0,14.1,6.1,13.7,14.1c0,7.6-6.5,13.7-13.7,13.7c-7.6,0-13.7-6.5-13.7-14.1
		C632.2,419.9,638.3,413.4,646.3,413.4z"/>
</g>
</svg>
