<?xml version="1.0" encoding="utf-8"?>
<!-- Generator: Adobe Illustrator 22.1.0, SVG Export Plug-In . SVG Version: 6.00 Build 0)  -->
<svg version="1.1" xmlns="http://www.w3.org/2000/svg" xmlns:xlink="http://www.w3.org/1999/xlink" x="0px" y="0px"
	 viewBox="0 0 300 300" style="enable-background:new 0 0 300 300;" xml:space="preserve">
<style type="text/css">
	.st0{fill:#555A6E;}
	.st1{fill:none;stroke:#555A6E;stroke-width:3;stroke-miterlimit:10;}
	.st2{fill:none;stroke:#555A6E;stroke-width:2;stroke-miterlimit:10;}
	.st3{fill:#060606;}
	.st4{fill:#F23A44;}
</style>
<g id="Layer_1">
</g>
<g id="Layer_2">
	<g>
		<circle class="st0" cx="76.4" cy="153.1" r="2.8"/>
		<circle class="st0" cx="73.2" cy="192.3" r="2.8"/>
		<g>
			<rect x="97.3" y="93" class="st1" width="112.1" height="112.1"/>
			<line class="st1" x1="134.9" y1="92.2" x2="134.9" y2="73.8"/>
			<line class="st1" x1="178" y1="205.1" x2="178" y2="227.5"/>
			<line class="st1" x1="209.4" y1="116.4" x2="232.6" y2="116.4"/>
			<line class="st1" x1="73.2" y1="192.3" x2="97.3" y2="192.3"/>
			<polyline class="st1" points="76.8,153.2 64.1,130.3 97.1,113.2 			"/>
			<polyline class="st1" points="229.3,141.2 242,164.2 209.1,181.3 			"/>
			<circle class="st0" cx="134.9" cy="73.8" r="2.8"/>
			<circle class="st0" cx="229.4" cy="141.1" r="2.8"/>
			<circle class="st0" cx="231.8" cy="116.2" r="2.8"/>
			<circle class="st0" cx="178.1" cy="227.5" r="2.8"/>
			<g>
				<rect x="125.3" y="121" class="st2" width="56.1" height="56.1"/>
				<g>
					<g>
						<path class="st3" d="M149.7,141.1c-0.1,0.3,0.1,0.5,0.3,0.6c1.8,1.5,3.7,3,5.5,4.4c0.3,0.3,0.5,0.3,0.8,0.1
							c1-0.3,1.8,0.1,2.5,0.8c0.6,0.8,0.7,1.8,0.3,2.6c-0.5,0.9-1.3,1.5-2.2,1.3c-0.7-0.1-1.1,0.3-1.6,0.6c-1,0.8-2.1,1.7-3.1,2.5
							c-0.3,0.3-0.6,0.4-1,0.3c-0.5-0.1-0.8-0.3-0.9-0.7c-0.1-0.5-0.1-0.9,0.4-1.3c0.9-0.7,1.8-1.5,2.8-2.2c0.3-0.2,0.5-0.5,0.7-0.6
							c0.4-0.3,0.5-0.5,0.5-0.9c0-0.2-0.1-0.4-0.3-0.5c-1.9-1.5-3.9-3-5.8-4.6c-0.2-0.1-0.4-0.2-0.6-0.1c-1.3,0.4-2.7-0.5-3-1.8
							c-0.3-1.3,0.6-2.6,1.8-2.9C148.3,138.3,149.7,139.5,149.7,141.1z"/>
						<path class="st4" d="M147.2,154c1.3,0,2.5,1.1,2.4,2.5c0,1.3-1.1,2.4-2.4,2.4c-1.3,0-2.4-1.1-2.4-2.5
							C144.8,155.2,145.8,154,147.2,154z"/>
					</g>
					<circle class="st0" cx="134.1" cy="121" r="2.8"/>
					<circle class="st0" cx="180.5" cy="128.3" r="2.8"/>
					<circle class="st0" cx="172.5" cy="177.1" r="2.8"/>
					<circle class="st0" cx="124.5" cy="172.3" r="2.8"/>
				</g>
			</g>
		</g>
	</g>
	<circle class="st1" cx="150" cy="148" r="129.5"/>
</g>
</svg>
