<?xml version="1.0" encoding="utf-8"?>
<!-- Generator: Adobe Illustrator 22.1.0, SVG Export Plug-In . SVG Version: 6.00 Build 0)  -->
<svg version="1.1" id="Layer_1" xmlns="http://www.w3.org/2000/svg" xmlns:xlink="http://www.w3.org/1999/xlink" x="0px" y="0px"
	 viewBox="0 0 792.6 1194" style="enable-background:new 0 0 792.6 1194;" xml:space="preserve">
<style type="text/css">
	.st0{fill:none;stroke:#465259;stroke-width:17.2642;stroke-miterlimit:10;}
	.st1{fill:#DB2C56;}
	.st2{fill:#332326;}
	.st3{fill:#E0E0E0;}
	.st4{fill:none;stroke:#E6BB8F;stroke-width:0.9986;stroke-miterlimit:10;}
	.st5{fill:none;stroke:#332326;stroke-width:0.9986;stroke-linecap:round;stroke-linejoin:round;stroke-miterlimit:10;}
	.st6{fill:none;stroke:#DB2C56;stroke-width:0.9986;stroke-miterlimit:10;}
	.st7{display:none;}
	.st8{display:inline;}
	.st9{fill:#F69D5E;}
	.st10{fill:#221F1F;}
	.st11{fill:#464655;}
	.st12{fill:#BCB6C0;stroke:#ACA8C1;stroke-width:0.25;stroke-miterlimit:10;}
	.st13{fill:#060606;}
	.st14{fill:#F23A44;}
	.st15{fill:#D6D6D6;}
	.st16{fill:#9B9A9A;}
	.st17{fill:none;stroke:#555A6E;stroke-width:0.5;stroke-miterlimit:10;}
	.st18{fill:#555A6E;}
	.st19{fill:#D5D6DB;stroke:#464655;stroke-width:7;stroke-miterlimit:10;}
	.st20{fill:none;stroke:#555A6E;stroke-miterlimit:10;}
	.st21{fill:#BCB6C0;}
	.st22{fill:none;stroke:#555A6E;stroke-width:1.0191;stroke-miterlimit:10;}
	.st23{fill:none;stroke:#555A6E;stroke-width:5.0953;stroke-miterlimit:10;}
	.st24{fill:none;stroke:#BCB6C0;stroke-width:1.0191;stroke-miterlimit:10;}
	.st25{fill:none;stroke:#6B6B6B;stroke-width:12;stroke-miterlimit:10;}
	.st26{fill:#EBF0F3;stroke:#555A6E;stroke-width:5;stroke-miterlimit:10;}
	.st27{fill:#D5D6DB;}
	.st28{fill:#EBF0F3;stroke:#555A6E;stroke-width:4;stroke-miterlimit:10;}
	.st29{fill:none;stroke:#464655;stroke-miterlimit:10;}
	.st30{fill:#FFFFFF;}
	.st31{fill:none;stroke:#FFFFFF;stroke-width:0.7175;stroke-miterlimit:10;}
	.st32{fill:#DFDFDF;}
	.st33{fill:#D83058;}
	.st34{fill:none;stroke:#332326;stroke-width:1.0249;stroke-miterlimit:10;}
	.st35{fill:none;stroke:#FFFFFF;stroke-width:0.8702;stroke-miterlimit:10;}
	.st36{fill:none;stroke:#332326;stroke-width:0.6808;stroke-miterlimit:10;}
	.st37{fill:none;stroke:#465259;stroke-width:1.5742;stroke-linecap:round;stroke-miterlimit:10;}
	
		.st38{fill:none;stroke:#465259;stroke-width:1.5742;stroke-linecap:round;stroke-miterlimit:10;stroke-dasharray:2.859,5.718,22.872,11.436,5.718,2.859;}
	
		.st39{fill:none;stroke:#465259;stroke-width:1.5742;stroke-linecap:round;stroke-miterlimit:10;stroke-dasharray:15.7417,7.8708,3.9354,7.8708,31.4833;}
	.st40{fill:none;stroke:#465259;stroke-width:1.5742;stroke-linecap:round;stroke-miterlimit:10;stroke-dasharray:15.7417,7.8708;}
	.st41{fill:#E4BA91;stroke:#332326;stroke-width:1.0447;stroke-linecap:round;stroke-linejoin:round;stroke-miterlimit:10;}
	.st42{fill:none;stroke:#332326;stroke-width:1.0447;stroke-linecap:round;stroke-linejoin:round;stroke-miterlimit:10;}
	.st43{fill:#FFFFFF;stroke:#332326;stroke-width:1.0447;stroke-linecap:round;stroke-linejoin:round;stroke-miterlimit:10;}
	.st44{fill:none;stroke:#332326;stroke-width:0.8842;stroke-linecap:round;stroke-linejoin:round;stroke-miterlimit:10;}
	.st45{fill:none;stroke:#465259;stroke-width:13.3499;stroke-miterlimit:10;}
	.st46{fill:#818181;}
	.st47{fill:none;}
	.st48{fill:#464654;}
	.st49{fill:#841B27;}
	.st50{fill:none;stroke:#332326;stroke-width:1.7487;stroke-miterlimit:10;}
	.st51{fill:none;stroke:#E9E9E9;stroke-width:1.7487;stroke-miterlimit:10;}
	.st52{fill:none;stroke:#332326;stroke-width:0.9494;stroke-linecap:round;stroke-linejoin:round;stroke-miterlimit:10;}
</style>
<g id="skyrscraper" text-rendering="geometricPrecision" shape-rendering="geometricPrecision">
</g>
<path class="st0" d="M560.8,274.9"/>
<path class="st0" d="M425.6-128.3"/>
<path class="st0" d="M273.9,262.6"/>
<g id="boat">
</g>
<g id="artscience">
	<g>
		<rect x="57.9" y="112" class="st1" width="25.3" height="1.7"/>
		<g>
			<polygon class="st2" points="79.4,106.1 61.8,106.1 57.9,98.1 83.3,98.1 			"/>
			<polygon class="st3" points="79.4,106.1 61.8,106.1 57.9,112 83.3,112 			"/>
			<rect x="66.8" y="100.5" class="st1" width="7.5" height="2.9"/>
			<path class="st1" d="M38.2,59h-3.4c0,0-5.8,29.7,29,35.8l11.1-5.1C74.9,89.6,48.6,84.3,38.2,59z"/>
			<path class="st1" d="M86.2,45.5h3.4c0,0,16.2,44.9-11.8,49.7l-14.6-3.7C63.2,91.6,81.6,76.1,86.2,45.5z"/>
			<path class="st1" d="M26.5,68h-1.4c0,0-1.1,19.7,29.7,25.3l0.6-4.2C55.4,89.2,34.8,82.3,26.5,68z"/>
			<path class="st1" d="M70,49.2h-1.8c0,0-1.6,17.2,4.8,43.8l9.3-0.8C82.3,92.2,75.6,79.2,70,49.2z"/>
			<path class="st3" d="M89.6,45.5h12.5c0,0,9.1,48.1-18.8,52.9H67.7C67.7,98.5,85.7,75.5,89.6,45.5z"/>
			<path class="st3" d="M68.2,49.2H54.1c0,0-14.1,49.3,13,49.3h15.6C82.6,98.5,73.8,79.2,68.2,49.2z"/>
			<path class="st3" d="M34.8,59h-7.7c0,0-1,33.4,33.9,39.5h11.1C72,98.5,47.2,90.3,34.8,59z"/>
			<path class="st3" d="M25,68h-3.7c0,0,5.8,24.9,36.6,30.5H69C69,98.5,40.3,92.3,25,68z"/>
		</g>
	</g>
</g>
<g id="trees">
</g>
<g id="clouds_right">
</g>
<g>
	<g>
		<line class="st4" x1="65" y1="237.6" x2="65" y2="335"/>
		<line class="st4" x1="52.4" y1="239.3" x2="77.6" y2="333.3"/>
		<line class="st4" x1="40.7" y1="244.2" x2="89.3" y2="328.5"/>
		<line class="st4" x1="30.6" y1="251.9" x2="99.4" y2="320.7"/>
		<line class="st4" x1="22.8" y1="262" x2="107.2" y2="310.7"/>
		<line class="st4" x1="18" y1="273.7" x2="112" y2="298.9"/>
		<line class="st4" x1="16.3" y1="286.3" x2="113.7" y2="286.3"/>
		<line class="st4" x1="18" y1="298.9" x2="112" y2="273.7"/>
		<line class="st4" x1="22.8" y1="310.7" x2="107.2" y2="262"/>
		<line class="st4" x1="30.6" y1="320.7" x2="99.4" y2="251.9"/>
		<line class="st4" x1="40.7" y1="328.5" x2="89.3" y2="244.2"/>
		<line class="st4" x1="52.4" y1="333.3" x2="77.6" y2="239.3"/>
	</g>
	<path class="st1" d="M70.4,286.3c0,3-2.4,5.4-5.4,5.4c-3,0-5.4-2.4-5.4-5.4s2.4-5.4,5.4-5.4C68,281,70.4,283.4,70.4,286.3z"/>
	<path class="st2" d="M67.4,286.3c0,1.4-1.1,2.5-2.5,2.5c-1.4,0-2.5-1.1-2.5-2.5c0-1.4,1.1-2.5,2.5-2.5
		C66.3,283.9,67.4,285,67.4,286.3z"/>
	<path class="st5" d="M115.3,286.3c0,27.8-22.5,50.3-50.3,50.3s-50.3-22.5-50.3-50.3c0-27.8,22.5-50.3,50.3-50.3
		S115.3,258.5,115.3,286.3z"/>
	<path class="st5" d="M109.9,286.3c0,24.8-20.1,44.9-44.9,44.9s-44.9-20.1-44.9-44.9s20.1-44.9,44.9-44.9S109.9,261.5,109.9,286.3z"
		/>
	<path class="st6" d="M106.6,286.3c0,22.9-18.6,41.6-41.6,41.6s-41.6-18.6-41.6-41.6S42,244.7,65,244.7
		C87.9,244.8,106.6,263.4,106.6,286.3z"/>
	<polyline class="st5" points="79.5,357.7 65,286.3 50.5,357.7 	"/>
	<g>
		<g>
			<path class="st2" d="M67.1,234c0,1.1-0.9,2.1-2.1,2.1c-1.1,0-2.1-0.9-2.1-2.1c0-1.1,0.9-2.1,2.1-2.1
				C66.1,231.9,67.1,232.8,67.1,234z"/>
			<path class="st2" d="M67.1,338.7c0,1.1-0.9,2.1-2.1,2.1c-1.1,0-2.1-0.9-2.1-2.1c0-1.1,0.9-2.1,2.1-2.1
				C66.1,336.6,67.1,337.6,67.1,338.7z"/>
		</g>
		<g>
			<path class="st2" d="M53.4,235.2c0.3,1.1-0.4,2.2-1.5,2.5s-2.2-0.4-2.5-1.5s0.4-2.2,1.5-2.5S53.1,234.1,53.4,235.2z"/>
			<path class="st2" d="M80.5,336.4c0.3,1.1-0.4,2.2-1.5,2.5c-1.1,0.3-2.2-0.4-2.5-1.5c-0.3-1.1,0.4-2.2,1.5-2.5
				C79.1,334.6,80.3,335.3,80.5,336.4z"/>
		</g>
		<g>
			<path class="st2" d="M40.6,239.9c0.6,1,0.2,2.3-0.8,2.8c-1,0.6-2.3,0.2-2.8-0.8c-0.6-1-0.2-2.3,0.8-2.8
				C38.8,238.6,40,238.9,40.6,239.9z"/>
			<path class="st2" d="M93,330.6c0.6,1,0.2,2.3-0.8,2.8c-1,0.6-2.3,0.2-2.8-0.8c-0.6-1-0.2-2.3,0.8-2.8
				C91.1,329.3,92.4,329.7,93,330.6z"/>
		</g>
		<g>
			<path class="st2" d="M29.4,247.8c0.8,0.8,0.8,2.1,0,2.9c-0.8,0.8-2.1,0.8-2.9,0c-0.8-0.8-0.8-2.1,0-2.9
				C27.3,247,28.6,247,29.4,247.8z"/>
			<path class="st2" d="M103.5,321.9c0.8,0.8,0.8,2.1,0,2.9s-2.1,0.8-2.9,0s-0.8-2.1,0-2.9C101.4,321.1,102.7,321.1,103.5,321.9z"/>
		</g>
		<g>
			<path class="st2" d="M20.7,258.4c1,0.6,1.3,1.8,0.8,2.8c-0.6,1-1.8,1.3-2.8,0.8c-1-0.6-1.3-1.8-0.8-2.8
				C18.4,258.1,19.7,257.8,20.7,258.4z"/>
			<path class="st2" d="M111.4,310.7c1,0.6,1.3,1.8,0.8,2.8c-0.6,1-1.8,1.3-2.8,0.8c-1-0.6-1.3-1.8-0.8-2.8
				C109.1,310.5,110.4,310.2,111.4,310.7z"/>
		</g>
		<g>
			<path class="st2" d="M14.9,270.8c1.1,0.3,1.8,1.4,1.5,2.5c-0.3,1.1-1.4,1.8-2.5,1.5s-1.8-1.4-1.5-2.5
				C12.7,271.1,13.8,270.5,14.9,270.8z"/>
			<path class="st2" d="M116.1,297.9c1.1,0.3,1.8,1.4,1.5,2.5c-0.3,1.1-1.4,1.8-2.5,1.5c-1.1-0.3-1.8-1.4-1.5-2.5
				C113.9,298.2,115,297.6,116.1,297.9z"/>
		</g>
		<g>
			<path class="st2" d="M12.6,284.3c1.1,0,2.1,0.9,2.1,2.1c0,1.1-0.9,2.1-2.1,2.1c-1.1,0-2.1-0.9-2.1-2.1
				C10.5,285.2,11.5,284.3,12.6,284.3z"/>
			<path class="st2" d="M117.4,284.3c1.1,0,2.1,0.9,2.1,2.1c0,1.1-0.9,2.1-2.1,2.1c-1.1,0-2.1-0.9-2.1-2.1
				C115.3,285.2,116.2,284.3,117.4,284.3z"/>
		</g>
		<g>
			<path class="st2" d="M13.9,297.9c1.1-0.3,2.2,0.4,2.5,1.5c0.3,1.1-0.4,2.2-1.5,2.5s-2.2-0.4-2.5-1.5
				C12.1,299.3,12.8,298.2,13.9,297.9z"/>
			<path class="st2" d="M115,270.8c1.1-0.3,2.2,0.4,2.5,1.5c0.3,1.1-0.4,2.2-1.5,2.5c-1.1,0.3-2.2-0.4-2.5-1.5
				C113.3,272.2,113.9,271.1,115,270.8z"/>
		</g>
		<g>
			<path class="st2" d="M18.6,310.7c1-0.6,2.3-0.2,2.8,0.8c0.6,1,0.2,2.3-0.8,2.8c-1,0.6-2.3,0.2-2.8-0.8
				C17.3,312.6,17.6,311.3,18.6,310.7z"/>
			<path class="st2" d="M109.3,258.4c1-0.6,2.3-0.2,2.8,0.8c0.6,1,0.2,2.3-0.8,2.8c-1,0.6-2.3,0.2-2.8-0.8
				C108,260.2,108.3,258.9,109.3,258.4z"/>
		</g>
		<g>
			<path class="st2" d="M26.5,321.9c0.8-0.8,2.1-0.8,2.9,0c0.8,0.8,0.8,2.1,0,2.9s-2.1,0.8-2.9,0C25.7,324,25.7,322.7,26.5,321.9z"
				/>
			<path class="st2" d="M100.6,247.8c0.8-0.8,2.1-0.8,2.9,0s0.8,2.1,0,2.9c-0.8,0.8-2.1,0.8-2.9,0C99.8,250,99.7,248.6,100.6,247.8z
				"/>
		</g>
		<g>
			<path class="st2" d="M37,330.7c0.6-1,1.8-1.3,2.8-0.8c1,0.6,1.3,1.8,0.8,2.8c-0.6,1-1.8,1.3-2.8,0.8
				C36.8,332.9,36.4,331.6,37,330.7z"/>
			<path class="st2" d="M89.4,239.9c0.6-1,1.8-1.3,2.8-0.8c1,0.6,1.3,1.8,0.8,2.8c-0.6,1-1.8,1.3-2.8,0.8S88.8,240.9,89.4,239.9z"/>
		</g>
		<g>
			<path class="st2" d="M49.4,336.4c0.3-1.1,1.4-1.8,2.5-1.5s1.8,1.4,1.5,2.5c-0.3,1.1-1.4,1.8-2.5,1.5
				C49.8,338.6,49.1,337.5,49.4,336.4z"/>
			<path class="st2" d="M76.5,235.2c0.3-1.1,1.4-1.8,2.5-1.5c1.1,0.3,1.8,1.4,1.5,2.5s-1.4,1.8-2.5,1.5
				C76.9,237.5,76.2,236.3,76.5,235.2z"/>
		</g>
	</g>
	<rect x="44.4" y="355.1" class="st3" width="43.1" height="8.1"/>
	<rect x="44.4" y="363.2" class="st2" width="43.1" height="2.2"/>
</g>
<g id="hand" class="st7">
	<g class="st8">
		<path class="st9" d="M564.9,327.5l-2.1,2.6c-1.7,2.1-3.6,5.8-0.3,9c4.1,3.9,8.3-0.3,9.9-2l1.8-2.3c1.7-2.1,4.1-5.9,0.5-9.3
			C570.7,321.6,566.5,325.8,564.9,327.5z"/>
		<path class="st9" d="M564.9,310.9l-2.1,2.6c-1.7,2.1-3.6,5.8-0.3,9c4.1,3.9,8.3-0.3,9.9-2l1.8-2.3c1.7-2.1,4.1-5.9,0.5-9.3
			C570.7,305,566.5,309.2,564.9,310.9z"/>
		<path class="st9" d="M564.9,294.1l-2.1,2.6c-1.7,2.1-3.6,5.8-0.3,9c4.1,3.9,8.3-0.3,9.9-2l1.8-2.3c1.7-2.1,4.1-5.9,0.5-9.3
			C570.7,288.2,566.5,292.4,564.9,294.1z"/>
		<g id="hand_1_">
			<path class="st9" d="M566.3,271.8l-6.4,8.4c-1.7,2.1-9.4,5.8-6.1,9c4.1,3.9,9,4,10.6,2.3l11.3-12.5c1.7-2.1,4.1-6,0.5-9.3
				C572.1,265.9,567.8,270.1,566.3,271.8z"/>
			<path class="st9" d="M506.9,299.7c-0.2,13.5-1.4,43.3-1.4,43.3s-0.5,6.1,1.9,8.9s6.1,4,6.1,4l-6.1,12.6l36.7,7.8l18.2-26
				l-47.5-44.4C514.9,305.9,516.3,299,506.9,299.7z"/>
			<polygon class="st10" points="506.1,357.1 471,424.6 525.3,424.6 548.6,379.7 			"/>
		</g>
		<g id="smartphone_1_">
			<g>
				<path class="st11" d="M557.8,357.3h-36.3c-4.7,0-8.6-3.9-8.6-8.6v-86c0-4.7,3.9-8.6,8.6-8.6h36.3c4.7,0,8.6,3.9,8.6,8.6v86
					C566.4,353.4,562.5,357.3,557.8,357.3z"/>
				<path class="st12" d="M556.1,353.9h-33c-3.9,0-7.1-3.2-7.1-7.1v-81.7c0-3.9,3.2-7.1,7.1-7.1h33c3.9,0,7.1,3.2,7.1,7.1v81.7
					C563.2,350.7,560,353.9,556.1,353.9z"/>
				<path class="st11" d="M549.7,261.4h-19c-0.2,0-0.3-0.2-0.3-0.3l0,0c0-0.2,0.2-0.3,0.3-0.3h19c0.2,0,0.3,0.2,0.3,0.3l0,0
					C550,261.3,549.9,261.4,549.7,261.4z"/>
			</g>
		</g>
	</g>
	<g id="_x33__fingers" class="st8">
	</g>
	<g class="st8">
		<path class="st13" d="M537,291c-0.1,0.5,0.1,0.8,0.5,1c3.1,2.5,6.3,5.1,9.4,7.6c0.5,0.5,0.9,0.5,1.4,0.2c1.7-0.5,3.1,0.1,4.3,1.4
			c1,1.4,1.3,3,0.5,4.5s-2.2,2.5-3.8,2.2c-1.3-0.2-2,0.5-2.8,1c-1.7,1.4-3.6,2.9-5.3,4.3c-0.6,0.5-1,0.7-1.7,0.6
			c-0.8-0.1-1.4-0.6-1.6-1.3c-0.2-0.9-0.1-1.5,0.7-2.2c1.5-1.3,3.1-2.5,4.8-3.8c0.5-0.3,0.9-0.8,1.3-1c0.7-0.5,0.9-0.9,0.8-1.6
			c0-0.3-0.1-0.7-0.5-0.9c-3.2-2.6-6.7-5.2-9.9-7.8c-0.3-0.2-0.7-0.3-1-0.2c-2.3,0.7-4.6-0.8-5.2-3.1c-0.6-2.2,1-4.4,3.1-4.9
			C534.6,286.3,537,288.2,537,291z"/>
		<path class="st14" d="M532.9,313.1c2.3,0,4.3,1.8,4.1,4.3c0,2.3-2,4.1-4.1,4.1c-2.3,0-4.1-2-4.1-4.3
			C528.7,315,530.5,313.1,532.9,313.1z"/>
	</g>
</g>
<g id="hackathon_laptop" class="st7">
	<g class="st8">
		<path class="st11" d="M625.3,149.3H711c1.6,0,3,1.3,3,3v53.5c0,1.6-1.3,3-3,3h-85.7c-1.6,0-3-1.3-3-3v-53.5
			C622.3,150.6,623.6,149.3,625.3,149.3L625.3,149.3z"/>
		<path class="st15" d="M627.7,154.3h80.7v49.4h-80.7V154.3z"/>
		<path class="st11" d="M712,208.7h-87.9c-1.1,0-2,0.5-2.7,1.4l-16.8,29.5c-0.8,1.5-0.3,2.6,1.2,2.6h124.4c1.5,0,2-1.2,1.2-2.6
			l-16.8-29.5C714.1,209.2,713.1,208.7,712,208.7L712,208.7z"/>
		<path class="st16" d="M708.4,212.6h-80.6c-1.1,0-2.2,0.6-2.8,1.5l-4.4,8.7c-0.5,1,0,1.9,1.3,1.9h92.2c1.3,0,1.9-0.9,1.3-1.9
			l-4.4-8.7C710.6,213.2,709.5,212.6,708.4,212.6z"/>
		<g>
			<line class="st17" x1="670" y1="174.7" x2="666.1" y2="183.9"/>
			<circle class="st18" cx="670.1" cy="174.6" r="0.8"/>
			<circle class="st17" cx="668" cy="179.2" r="16.3"/>
			<circle class="st18" cx="666.1" cy="183.8" r="0.8"/>
			<polyline class="st17" points="671.4,181.3 676.7,178.7 671.4,176.3 			"/>
			<circle class="st18" cx="671.4" cy="181.3" r="0.8"/>
			<circle class="st18" cx="671.4" cy="176.4" r="0.8"/>
			<g>
				<polyline class="st17" points="664.8,176.3 659.5,178.9 664.8,181.2 				"/>
				<circle class="st18" cx="664.7" cy="176.3" r="0.8"/>
				<circle class="st18" cx="664.7" cy="181.2" r="0.8"/>
			</g>
		</g>
	</g>
</g>
<g id="test_tube_ipad_1_" class="st7">
	<g id="Layer_1_1_" class="st8">
	</g>
	<g class="st8">
		<g>
			<path class="st18" d="M1524.3,449.4c1.9,0,1.9-3,0-3S1522.4,449.4,1524.3,449.4L1524.3,449.4z"/>
		</g>
	</g>
	<g class="st8">
		<path class="st19" d="M908.6,395.1h-99.8c-4.4,0-8-3.6-8-8v-77.8c0-4.4,3.6-8,8-8h99.8c4.4,0,8,3.6,8,8v77.8
			C916.6,391.5,913,395.1,908.6,395.1z"/>
		<circle class="st18" cx="863.6" cy="330.1" r="1.3"/>
		<circle class="st18" cx="863.6" cy="339.7" r="1.3"/>
		<circle class="st18" cx="873.4" cy="339.7" r="1.3"/>
		<circle class="st18" cx="873.4" cy="349.1" r="1.3"/>
		<circle class="st18" cx="863.6" cy="349.1" r="1.3"/>
		<circle class="st18" cx="863.6" cy="359.1" r="1.3"/>
		<circle class="st18" cx="853.1" cy="349.1" r="1.3"/>
		<circle class="st18" cx="843.8" cy="339.7" r="1.3"/>
		<circle class="st18" cx="843.8" cy="349.1" r="1.3"/>
		<circle class="st18" cx="853.1" cy="359.3" r="1.3"/>
		<polyline class="st20" points="863.4,329.9 873.4,339.9 853.1,359.1 		"/>
		<line class="st20" x1="873.4" y1="349.1" x2="863.5" y2="359"/>
		<line class="st20" x1="863.6" y1="339.7" x2="853.1" y2="349.1"/>
		<g>
			<circle class="st21" cx="853.1" cy="337.8" r="0.9"/>
			<rect x="851.8" y="339" class="st21" width="2.9" height="2.9"/>
		</g>
		<g>
			<circle class="st21" cx="873.4" cy="357.4" r="0.9"/>
			<rect x="872" y="358.6" class="st21" width="2.9" height="2.9"/>
		</g>
		<g>
			<circle class="st18" cx="853.1" cy="328" r="0.9"/>
			<rect x="851.8" y="329.2" class="st18" width="2.9" height="2.9"/>
		</g>
		<g>
			<circle class="st18" cx="844.2" cy="356.8" r="0.9"/>
			<rect x="842.8" y="358" class="st18" width="2.9" height="2.9"/>
		</g>
		<circle class="st21" cx="873.4" cy="330.3" r="1.3"/>
		<circle class="st21" cx="843.8" cy="330.3" r="1.3"/>
		<line class="st20" x1="853.1" y1="330.7" x2="843.8" y2="339.7"/>
		<circle class="st20" cx="858.7" cy="344.6" r="32.8"/>
	</g>
</g>
<g id="search" class="st7">
	<g id="Layer_1_2_" class="st8">
	</g>
	<g class="st8">
		<path class="st11" d="M452.4,98.5l-5.7-5.7l10.1-10.1l5.7,5.7L452.4,98.5z"/>
		<path class="st11" d="M508.8,36.3C494.5,22,471.2,22,456.9,36.4C442.6,50.7,442.6,74,457,88.3c14.3,14.3,37.5,14.3,51.8,0
			S523.2,50.8,508.8,36.3C508.8,36.4,508.8,36.4,508.8,36.3z M462,83.2c-11.5-11.5-11.5-30.2,0-41.8c11.5-11.5,30.2-11.5,41.8,0
			c11.5,11.5,11.5,30.2,0,41.7C492.2,94.7,473.5,94.7,462,83.2C461.9,83.2,461.9,83.2,462,83.2L462,83.2z"/>
		<path class="st11" d="M456.2,97.2l-8.3-8.3c-1.1-1-2.7-1-3.8,0l-31.8,31.8c-1,1.1-1,2.7,0,3.8l8.3,8.3c1.1,1,2.7,1,3.8,0
			l31.8-31.8C457.2,100,457.2,98.4,456.2,97.2"/>
		<path class="st16" d="M454.6,99.5l-1.5-1.5l-22,22.6l1.5,1.5L454.6,99.5z"/>
		<g>
			<circle class="st21" cx="470.4" cy="56.8" r="3.7"/>
			<rect x="464.4" y="62.2" class="st21" width="12.4" height="12.4"/>
		</g>
		<g>
			<circle class="st18" cx="497.7" cy="56.8" r="3.7"/>
			<rect x="491.8" y="62.2" class="st18" width="12.4" height="12.4"/>
		</g>
		<line class="st22" x1="488.3" y1="65.6" x2="479.7" y2="65.6"/>
		<path class="st23" d="M486.7,64.4"/>
		<circle class="st18" cx="488.3" cy="65.5" r="1.5"/>
		<line class="st24" x1="480.5" y1="70.4" x2="488.1" y2="70.4"/>
		<path class="st23" d="M481.9,71.5"/>
		<circle class="st21" cx="480.5" cy="70.5" r="1.3"/>
		<polyline class="st18" points="480,64.1 477.9,65.5 480,67 		"/>
		<polyline class="st21" points="487.8,71.8 489.6,70.5 487.8,69.2 		"/>
	</g>
</g>
<g>
	<path class="st25" d="M792.6,308h-29.9c0,0-16.2,0.9-16.2-20.9c0-21.7,0-50.2,0-68.1c0-17.9-13.5-17.5-13.5-17.5H630.9"/>
	<g>
		<path class="st25" d="M1.1,373l282.8-0.3l229.8-0.3c0,0,24.4,1.9,24.4-34.4s19.1-34.6,19.1-34.6h33c0,0,40.7,8.6,40.7-34.3
			S629.4,122,629.4,122s0.7-8.7,0.7-54s34.5-46.6,34.5-46.6h127.2"/>
		<path class="st25" d="M792.6,491.1h-63.7c0,0-27,2.6-27,33c0,30.4,0,10.5,0,41.7S673.9,601,673.9,601L216,597
			c0,0-71.6-1.1-71.6-76.1s0-147.4,0-147.4v-86.2c0,0,0-44.4,0-107.3s-44.9-58-44.9-58H2.1"/>
	</g>
</g>
<g id="Layer_9" class="st7">
	<g class="st8">
		<path class="st26" d="M722.6,326.1H662v47.3h71.4v-36.5L722.6,326.1z"/>
		<path class="st27" d="M722.6,336.9h10.8l-10.8-10.7V336.9z"/>
		<g>
			<g>
				<circle class="st21" cx="678" cy="342.1" r="3.3"/>
				<rect x="672.8" y="346.8" class="st21" width="10.8" height="10.8"/>
			</g>
			<g>
				<circle class="st18" cx="690.7" cy="342.1" r="3.3"/>
				<rect x="685.5" y="346.8" class="st18" width="10.8" height="10.8"/>
			</g>
			<g>
				<circle class="st10" cx="703.1" cy="342.1" r="3.3"/>
				<rect x="697.9" y="346.8" class="st10" width="10.8" height="10.8"/>
			</g>
			<g>
				<circle class="st3" cx="715.3" cy="342.1" r="3.3"/>
				<rect x="710.1" y="346.8" class="st3" width="10.8" height="10.8"/>
			</g>
		</g>
	</g>
</g>
<g id="Layer_10" class="st7">
	<g class="st8">
		<path class="st28" d="M370.1,399.3h60.6V352h-71.4v36.5L370.1,399.3z"/>
		<path class="st27" d="M370.1,388.5h-10.8l10.8,10.7V388.5z"/>
		<g>
			<g>
				<path class="st29" d="M410.3,380.4c-0.8,3.7-4,6.5-8,6.5c-4.5,0-8.1-3.6-8.1-8.1s3.6-8.1,8.1-8.1c2.6,0-0.8,2.7,0.6,5.4
					c0.5,0.9,2.9-0.2,4.4,0.5C409.3,377.5,410.4,380.2,410.3,380.4z"/>
				<rect x="401.7" y="367.8" class="st11" width="2.3" height="9.4"/>
				
					<rect x="408.6" y="374.9" transform="matrix(0.8926 -0.4508 0.4508 0.8926 -127.0128 225.4408)" class="st11" width="2.3" height="8.9"/>
				<rect x="401.9" y="374.9" class="st11" width="7" height="2.3"/>
				<circle class="st11" cx="402.8" cy="367.3" r="3.1"/>
				
					<rect x="410.8" y="382.2" transform="matrix(1 -8.220199e-03 8.220199e-03 1 -3.1345 3.4088)" class="st11" width="4.6" height="1.6"/>
			</g>
			<g>
				<circle class="st10" cx="383.7" cy="368.2" r="3.6"/>
				<rect x="378.1" y="373.3" class="st10" width="11.8" height="11.8"/>
			</g>
		</g>
	</g>
</g>
<g id="Layer_25">
</g>
<g id="banks">
	<g>
		<g>
			<rect x="646.7" y="130" class="st2" width="19.2" height="65.6"/>
			<rect x="648.7" y="113.8" class="st2" width="15.2" height="18.7"/>
			<rect x="651.6" y="105.9" class="st2" width="9.5" height="16.5"/>
			<rect x="654.1" y="109.9" class="st30" width="4.3" height="3"/>
			<rect x="654.1" y="107.4" class="st30" width="4.3" height="1.4"/>
			<g>
				<line class="st31" x1="651.3" y1="118.3" x2="661.3" y2="118.3"/>
				<line class="st31" x1="651.3" y1="120.9" x2="661.3" y2="120.9"/>
				<line class="st31" x1="651.3" y1="123.5" x2="661.3" y2="123.5"/>
				<line class="st31" x1="651.3" y1="126.1" x2="661.3" y2="126.1"/>
			</g>
			<g>
				<line class="st31" x1="649.9" y1="133.9" x2="662.7" y2="133.9"/>
				<line class="st31" x1="649.9" y1="136.7" x2="662.7" y2="136.7"/>
				<line class="st31" x1="649.9" y1="139.4" x2="662.7" y2="139.4"/>
				<line class="st31" x1="649.9" y1="142.2" x2="662.7" y2="142.2"/>
				<line class="st31" x1="649.9" y1="145" x2="662.7" y2="145"/>
				<line class="st31" x1="649.9" y1="147.8" x2="662.7" y2="147.8"/>
				<line class="st31" x1="649.9" y1="150.6" x2="662.7" y2="150.6"/>
				<line class="st31" x1="649.9" y1="153.3" x2="662.7" y2="153.3"/>
				<line class="st31" x1="649.9" y1="156.1" x2="662.7" y2="156.1"/>
				<line class="st31" x1="649.9" y1="158.9" x2="662.7" y2="158.9"/>
				<line class="st31" x1="649.9" y1="161.7" x2="662.7" y2="161.7"/>
				<line class="st31" x1="649.9" y1="164.5" x2="662.7" y2="164.5"/>
				<line class="st31" x1="649.9" y1="167.2" x2="662.7" y2="167.2"/>
				<line class="st31" x1="649.9" y1="170" x2="662.7" y2="170"/>
				<line class="st31" x1="649.9" y1="172.8" x2="662.7" y2="172.8"/>
				<line class="st31" x1="649.9" y1="175.6" x2="662.7" y2="175.6"/>
				<line class="st31" x1="649.9" y1="178.4" x2="662.7" y2="178.4"/>
				<line class="st31" x1="649.9" y1="181.1" x2="662.7" y2="181.1"/>
				<line class="st31" x1="649.9" y1="183.9" x2="662.7" y2="183.9"/>
				<line class="st31" x1="649.9" y1="186.7" x2="662.7" y2="186.7"/>
			</g>
		</g>
		<g>
			<rect x="670.4" y="125.8" class="st32" width="23.6" height="69.8"/>
			<path class="st33" d="M686.2,195.6c-2,0-5.9,0-7.9,0c0-50.5-7.9-69.8-7.9-69.8H694C694.1,125.8,686.2,145.6,686.2,195.6z"/>
			<rect x="675.5" y="129.5" class="st30" width="13.6" height="1.9"/>
			<g>
				<line class="st34" x1="672.7" y1="137.9" x2="691.7" y2="137.9"/>
				<line class="st34" x1="672.7" y1="140.5" x2="691.7" y2="140.5"/>
				<line class="st34" x1="672.7" y1="143.2" x2="691.7" y2="143.2"/>
				<line class="st34" x1="672.7" y1="145.9" x2="691.7" y2="145.9"/>
				<line class="st34" x1="672.7" y1="148.5" x2="691.7" y2="148.5"/>
				<line class="st34" x1="672.7" y1="151.2" x2="691.7" y2="151.2"/>
				<line class="st34" x1="672.7" y1="153.8" x2="691.7" y2="153.8"/>
				<line class="st34" x1="672.7" y1="156.5" x2="691.7" y2="156.5"/>
				<line class="st34" x1="672.7" y1="159.2" x2="691.7" y2="159.2"/>
				<line class="st34" x1="672.7" y1="161.8" x2="691.7" y2="161.8"/>
				<line class="st34" x1="672.7" y1="164.5" x2="691.7" y2="164.5"/>
				<line class="st34" x1="672.7" y1="167.1" x2="691.7" y2="167.1"/>
				<line class="st34" x1="672.7" y1="169.8" x2="691.7" y2="169.8"/>
				<line class="st34" x1="672.7" y1="172.4" x2="691.7" y2="172.4"/>
				<line class="st34" x1="672.7" y1="175.1" x2="691.7" y2="175.1"/>
				<line class="st34" x1="672.7" y1="177.8" x2="691.7" y2="177.8"/>
			</g>
		</g>
		<g>
			<g id="etoa9ta9qgia231_1_">
				<g id="etoa9ta9qgia232_1_">
					<path id="etoa9ta9qgia233_1_" class="st2" d="M728.3,195.5c-2.3,0-4.7,0-7-0.1c0-0.3,0-0.6,0-1c-0.3-3.4-0.8-6.8-1-10.3
						c-0.5-6.3-1.1-12.5-1.6-18.9c-0.5-7.9-1-15.7-1.1-23.6c-0.2-9-0.3-18.1,0.8-27c0.5-5,1.5-10.1,3.1-15c0.5-1.4,1.7-4.2,1.7-4.2
						s3.8,4.3,5.6,6.5c2.1,2.8,4,5.6,6,8.6c0.4,0.6,0.7,1.4,0.7,2.2c0,7.2,0,14.4,0,21.6c-0.1,19.9-0.2,39.7-0.3,59.6
						c0,0.4,0,0.9,0,1.4c-0.8,0-1.4,0-2.1,0C731.5,195.4,729.9,195.4,728.3,195.5z"/>
				</g>
			</g>
			<polygon id="etoa9ta9qgia235_1_" class="st2" points="699.6,122.5 699.6,196.2 715.1,196.2 715.1,134.8 			"/>
			<path id="etoa9ta9qgia236_1_" class="st33" d="M715,134.8l-15.3,15.4c0,0,16,15,15.4,15.1"/>
			<path id="etoa9ta9qgia237_1_" class="st33" d="M714.9,165.7l-15.2,15.5c0,0,16.1,14.9,15.5,15"/>
		</g>
		<g>
			<g>
				<line class="st35" x1="723.8" y1="112.5" x2="733.3" y2="112.5"/>
				<line class="st35" x1="723.8" y1="115.7" x2="733.3" y2="115.7"/>
				<line class="st35" x1="723.8" y1="118.9" x2="733.3" y2="118.9"/>
				<line class="st35" x1="723.8" y1="122.2" x2="733.3" y2="122.2"/>
				<line class="st35" x1="723.8" y1="125.5" x2="733.3" y2="125.5"/>
				<line class="st35" x1="723.8" y1="128.7" x2="733.3" y2="128.7"/>
				<line class="st35" x1="723.8" y1="131.9" x2="733.3" y2="131.9"/>
				<line class="st35" x1="723.8" y1="135.1" x2="733.3" y2="135.1"/>
				<line class="st35" x1="723.8" y1="138.4" x2="733.3" y2="138.4"/>
				<line class="st35" x1="723.8" y1="141.6" x2="733.3" y2="141.6"/>
				<line class="st35" x1="723.8" y1="144.8" x2="733.3" y2="144.8"/>
				<line class="st35" x1="723.8" y1="148" x2="733.3" y2="148"/>
				<line class="st35" x1="723.8" y1="151.3" x2="733.3" y2="151.3"/>
				<line class="st35" x1="723.8" y1="154.6" x2="733.3" y2="154.6"/>
				<line class="st35" x1="723.8" y1="157.8" x2="733.3" y2="157.8"/>
				<line class="st35" x1="723.8" y1="161" x2="733.3" y2="161"/>
				<line class="st35" x1="723.8" y1="164.2" x2="733.3" y2="164.2"/>
				<line class="st35" x1="723.8" y1="167.5" x2="733.3" y2="167.5"/>
				<line class="st35" x1="723.8" y1="170.7" x2="733.3" y2="170.7"/>
				<line class="st35" x1="723.8" y1="173.9" x2="733.3" y2="173.9"/>
				<line class="st35" x1="723.8" y1="177.2" x2="733.3" y2="177.2"/>
				<line class="st35" x1="723.8" y1="180.4" x2="733.3" y2="180.4"/>
				<line class="st35" x1="723.8" y1="183.7" x2="733.3" y2="183.7"/>
				<line class="st35" x1="723.8" y1="186.9" x2="733.3" y2="186.9"/>
				<line class="st35" x1="723.8" y1="190.1" x2="733.3" y2="190.1"/>
				<line class="st35" x1="723.8" y1="193.3" x2="733.3" y2="193.3"/>
			</g>
		</g>
	</g>
</g>
<g id="boat_1_">
	<rect x="586.7" y="401.3" class="st30" width="37.3" height="1.3"/>
	<polygon class="st33" points="586.7,407.2 624.1,407.2 624.1,402.6 586.7,402.6 	"/>
	<polygon class="st2" points="586.8,411 624.7,411 626.1,406.4 580.8,406.4 	"/>
	<rect x="587.1" y="393.2" class="st2" width="37.7" height="1.8"/>
	<polyline class="st36" points="623.7,401.3 623.7,399 589.7,399 589.7,401.3 	"/>
	<line class="st36" x1="623.7" y1="394.5" x2="623.7" y2="398.8"/>
	<line class="st36" x1="618" y1="394.5" x2="618" y2="401.3"/>
	<line class="st36" x1="612.2" y1="394.5" x2="612.2" y2="401.3"/>
	<line class="st36" x1="606.4" y1="394.5" x2="606.4" y2="401.3"/>
	<line class="st36" x1="595.4" y1="399" x2="595.4" y2="401.3"/>
	<line class="st36" x1="601" y1="399" x2="601" y2="401.3"/>
	<line class="st36" x1="589.7" y1="394.5" x2="589.7" y2="401.3"/>
	<g>
		<path class="st33" d="M622.6,396.1c0,0.6,0.5,1.1,1.1,1.1s1.1-0.5,1.1-1.1c0-0.6-0.5-1.1-1.1-1.1
			C623.1,395,622.6,395.5,622.6,396.1z"/>
		<path class="st33" d="M616.9,396.1c0,0.6,0.5,1.1,1.1,1.1s1.1-0.5,1.1-1.1c0-0.6-0.5-1.1-1.1-1.1
			C617.4,395,616.9,395.5,616.9,396.1z"/>
		<path class="st33" d="M611.1,396.1c0,0.6,0.5,1.1,1.1,1.1s1.1-0.5,1.1-1.1c0-0.6-0.5-1.1-1.1-1.1S611.1,395.5,611.1,396.1z"/>
		<path class="st33" d="M605.3,396.1c0,0.6,0.5,1.1,1.1,1.1s1.1-0.5,1.1-1.1c0-0.6-0.5-1.1-1.1-1.1S605.3,395.5,605.3,396.1z"/>
		<path class="st33" d="M599.9,396.1c0,0.6,0.5,1.1,1.1,1.1s1.1-0.5,1.1-1.1c0-0.6-0.5-1.1-1.1-1.1
			C600.4,395,599.9,395.5,599.9,396.1z"/>
		<path class="st33" d="M594.1,396.1c0,0.6,0.5,1.1,1.1,1.1s1.1-0.5,1.1-1.1c0-0.6-0.5-1.1-1.1-1.1S594.1,395.5,594.1,396.1z"/>
		<path class="st33" d="M588.6,396.1c0,0.6,0.5,1.1,1.1,1.1s1.1-0.5,1.1-1.1c0-0.6-0.5-1.1-1.1-1.1
			C589.1,395,588.6,395.5,588.6,396.1z"/>
	</g>
</g>
<g>
	<g>
		<line class="st37" x1="549.1" y1="419.1" x2="556.9" y2="419.1"/>
		<line class="st38" x1="562.6" y1="419.1" x2="631.3" y2="419.1"/>
		<line class="st37" x1="642.7" y1="419.1" x2="650.5" y2="419.1"/>
	</g>
</g>
<line class="st39" x1="761.5" y1="419.1" x2="660" y2="419.1"/>
<g>
	<g>
		<line class="st37" x1="552.3" y1="425.9" x2="560.1" y2="425.9"/>
		<line class="st38" x1="565.9" y1="425.9" x2="634.5" y2="425.9"/>
		<line class="st37" x1="645.9" y1="425.9" x2="653.8" y2="425.9"/>
	</g>
</g>
<line class="st40" x1="566.5" y1="433.4" x2="622.6" y2="433.4"/>
<line class="st40" x1="668.5" y1="428.1" x2="712.8" y2="428.1"/>
<line class="st40" x1="697.1" y1="428.1" x2="769.6" y2="428.1"/>
<line class="st40" x1="697.3" y1="436.9" x2="720.7" y2="436.9"/>
<path class="st40" d="M707.4,373"/>
<g id="merlion">
	<path class="st32" d="M678.2,323.9c0,0,0.7-4,5.2-4.9c0,0,2.2-3.4,12.1-0.8c0,0,8.8,2,10.6,10.1c1.8,8,2.6,10.9,2.6,10.9l-2.9,2.6
		l4.1,14.7c0,0-2.2,0-4,0l5,10.6c0,0-2.2,1.4-4.9,1.4c0,0,1.5,4.7,0.6,17.7c-0.9,13-5,17.2-14.4,17.1c-9.3-0.2-17.7-0.2-20.4-6
		c-2.8-5.8,1.6-12.9,1.6-18.8c0-6.1-1.9-10.5-4.8-15.1c-2.9-4.6-4.5-4.3-3.8-6s3-1.2,4.3-0.6c0,0,1.4-1.3,2.7,0.3
		c0,0-0.8-3.5,0.9-8.7c0,0-2.8-0.1-3-2.3s1.2-3.3,1.7-3.7l0.4-1.7l0.9,1.2c0,0,4.1,0.6,4.8-1.1s0.6-3.6-1-3.7s-4,0.8-4,0.8l-0.7,2.4
		l-1.5-0.6l-0.3,1.5c0,0-1.3-0.3-1.9-0.7s-2.2-2.2-1.8-5.1c0,0-1.7-1.7-0.6-3.2s2.1-1.9,4.1-2c0,0,1.8-1,3.1-1.3
		C673.7,326.4,675,324.8,678.2,323.9z"/>
	<path class="st41" d="M682.5,390.1c0,0-2.7,0.5-2.9-2.1c-0.1-2.6,1.4-3.4,3.4-3C685,385.4,686.1,389.5,682.5,390.1z"/>
	<path class="st42" d="M668.7,340.3c-0.1-0.3,0.1-0.8,0.3-1c0.3-0.3,3.6-1.8,3.6-1.8s2.4-0.9,4-0.8c1.6,0.1,1.7,2,1,3.7
		s-4.8,1.1-4.8,1.1l-1.3,0.3"/>
	<path class="st42" d="M687,318.7c0,0,3.4,2.2,3.4,6.9c0.1,7.3-6.9,17-6.8,31l22.4-0.2"/>
	<path class="st42" d="M692.4,323.3c0,0,1.5,2.7-0.7,11.3c-2.2,8.6-3.9,13.7-2.4,22"/>
	<path class="st42" d="M694.8,323.3c0,0,1.4,4.3,0,11.3c-1.6,7.2-2.1,16.4-0.8,22"/>
	<path class="st42" d="M697.6,323.3c0,0,2.4,5.1,1.5,11.3c-1.8,11.5-1,16.7,0.4,22"/>
	<path class="st42" d="M701.8,323.2c4.1,5.7,1.4,10.4,4,18.4"/>
	<path class="st42" d="M695.4,356.5l-0.3,10.6c0,0,2.4,1.4,10.9,1.3"/>
	<path class="st42" d="M683.3,319c0,0,6,3.4,2.6,12.7c-2.7,7.4-14,16.7-13.9,25.1c0,7.5,0.1,10.6,0.1,10.6l13.5-4.5v-6.3"/>
	<path class="st42" d="M677.8,365.7c0,0,0.9,1.4,0.4,3.4c0,0,1.9-2.4,4.1-1.4c2.5,1.2,1.4,4.1,1.4,4.1s2.2-1.1,4,0.5
		c2,1.9,0.3,4.6,0.3,4.6s2.5-0.6,3.4,2.3c0.7,2.6-2.1,4-2.1,4s2.5,1.1,1.6,3.9s-3.8,2.3-3.8,2.3s0.5,3-2.5,3.5
		c-2.9,0.4-4.7-1.4-4.9-4.5"/>
	<path class="st2" d="M675.4,328.8c0,0-0.1-1.5,1.1-1.8c1.1-0.2,2.8,0.1,2.8,0.1S677.3,329,675.4,328.8z"/>
	<path class="st42" d="M666.5,335.1c0,0,0.5,0.2,0.8-0.3c0.8-0.8,2.5-3.2,2.6-5"/>
	<path class="st42" d="M667.1,335.2c0,0,0.2,2.9,1.9,4.1"/>
	<polygon class="st43" points="679.4,323.5 683.8,317.4 685.5,324.7 	"/>
	<polygon class="st2" points="680.7,323 683,319.8 683.6,323.7 	"/>
	<path class="st42" d="M672.9,367.3c1.3,3.4,2.1,7.8,1.9,13.4"/>
	<path class="st42" d="M667.6,358.4c0,0,2.4,2.2,4.5,6.6"/>
	<path class="st42" d="M675.4,366.5c1,3.6,1.6,8.4,0.8,14.1"/>
	<path class="st42" d="M671.4,358c0,0,0.3,0.3,0.6,0.8"/>
	<path class="st42" d="M681.4,369.8c0,0-1.3,4-4,11"/>
	<path class="st42" d="M686.2,373.9c0,0-4.3,1.6-7.8,7.4"/>
	<path class="st42" d="M679.3,381.9c0,0,4.1-3.7,10-2.1"/>
	<path class="st42" d="M680,382.9c2.7-1.5,8-0.6,9.1,3.6"/>
	<path class="st42" d="M680.4,384.2c4.9-2.3,8.7,4.6,3.4,7.5"/>
	<g>
		<path class="st33" d="M684.2,365.4c0,0,0.6,1.7,2.4,1.6c1.3,0,1.9-1.6,1.9-1.6s-0.1,2.4-2.1,2.4
			C684.5,367.8,684.2,365.4,684.2,365.4z"/>
		<path class="st33" d="M686.8,363.7c0,0,0.6,1.7,2.4,1.6c1.3,0,1.9-1.6,1.9-1.6s-0.1,2.4-2.1,2.4
			C687.1,366.1,686.8,363.7,686.8,363.7z"/>
		<path class="st33" d="M689.8,365.4c0,0,0.6,1.7,2.4,1.6c1.3,0,1.9-1.6,1.9-1.6s-0.1,2.4-2.1,2.4
			C690,367.9,689.8,365.4,689.8,365.4z"/>
	</g>
	<g>
		<path class="st33" d="M695.8,376.9c0,0,0.6,1.7,2.4,1.6c1.3-0.1,1.9-1.6,1.9-1.6s-0.1,2.4-2.1,2.4
			C696.1,379.3,695.8,376.9,695.8,376.9z"/>
		<path class="st33" d="M698.4,375.1c0,0,0.6,1.7,2.4,1.6c1.3,0,1.9-1.6,1.9-1.6s-0.1,2.4-2.1,2.4
			C698.7,377.6,698.4,375.1,698.4,375.1z"/>
		<path class="st33" d="M701.4,377c0,0,0.6,1.7,2.4,1.6c1.3-0.1,1.9-1.6,1.9-1.6s-0.1,2.4-2.1,2.4C701.6,379.4,701.4,377,701.4,377z
			"/>
	</g>
	<g>
		<path class="st33" d="M686.8,392.5c0,0,0.6,1.7,2.4,1.6c1.3,0,1.9-1.6,1.9-1.6s-0.1,2.4-2.1,2.4
			C687.1,394.9,686.8,392.5,686.8,392.5z"/>
		<path class="st33" d="M689.4,390.7c0,0,0.6,1.7,2.4,1.6c1.3,0,1.9-1.6,1.9-1.6s-0.1,2.4-2.1,2.4
			C689.7,393.1,689.4,390.7,689.4,390.7z"/>
		<path class="st33" d="M692.5,392.5c0,0,0.6,1.7,2.4,1.6c1.3-0.1,1.9-1.6,1.9-1.6s-0.1,2.4-2.1,2.4
			C692.7,394.9,692.5,392.5,692.5,392.5z"/>
	</g>
	<g>
		<path class="st33" d="M673.9,395.5c0,0,0.5,1.5,2.2,1.4c1.2,0,1.7-1.4,1.7-1.4s-0.1,2.2-1.9,2.2
			C674,397.7,673.9,395.5,673.9,395.5z"/>
		<path class="st33" d="M676.1,394c0,0,0.5,1.5,2.2,1.4c1.2,0,1.7-1.4,1.7-1.4s-0.1,2.2-1.9,2.2C676.4,396.2,676.1,394,676.1,394z"
			/>
		<path class="st33" d="M678.9,395.6c0,0,0.5,1.5,2.2,1.4c1.2,0,1.7-1.4,1.7-1.4s-0.1,2.2-1.9,2.2
			C679.1,397.8,678.9,395.6,678.9,395.6z"/>
	</g>
	<g>
		<path class="st33" d="M695.8,371.7c0,0,0.6,1.7,2.4,1.6c1.3,0,1.9-1.6,1.9-1.6s-0.1,2.4-2.1,2.4
			C696.1,374.2,695.8,371.7,695.8,371.7z"/>
		<path class="st33" d="M692.5,370.1c0,0,0.6,1.7,2.4,1.6c1.3-0.1,1.9-1.6,1.9-1.6s-0.1,2.4-2.1,2.4
			C692.8,372.5,692.5,370.1,692.5,370.1z"/>
	</g>
	<g>
		<path class="st33" d="M689.7,361.7c0,0,0.6,1.7,2.4,1.6c1.3-0.1,1.9-1.6,1.9-1.6s-0.1,2.4-2.1,2.4
			C689.9,364.1,689.7,361.7,689.7,361.7z"/>
		<path class="st33" d="M686.4,360c0,0,0.6,1.7,2.4,1.6c1.3,0,1.9-1.6,1.9-1.6s-0.1,2.4-2.1,2.4C686.7,362.4,686.4,360,686.4,360z"
			/>
	</g>
	<g>
		<path class="st33" d="M696.2,384.8c0,0,0.6,1.7,2.4,1.6c1.3,0,1.9-1.6,1.9-1.6s-0.1,2.4-2.1,2.4
			C696.5,387.2,696.2,384.8,696.2,384.8z"/>
		<path class="st33" d="M692.9,383.1c0,0,0.6,1.7,2.4,1.6c1.3,0,1.9-1.6,1.9-1.6s-0.1,2.4-2.1,2.4
			C693.1,385.6,692.9,383.1,692.9,383.1z"/>
	</g>
	<g>
		<path class="st33" d="M697,397.8c0,0,0.6,1.7,2.4,1.6c1.3,0,1.9-1.6,1.9-1.6s-0.1,2.4-2.1,2.4C697.3,400.2,697,397.8,697,397.8z"
			/>
		<path class="st33" d="M693.7,396.1c0,0,0.6,1.7,2.4,1.6c1.3,0,1.9-1.6,1.9-1.6s-0.1,2.4-2.1,2.4
			C694,398.5,693.7,396.1,693.7,396.1z"/>
	</g>
	<g>
		<path class="st33" d="M675.4,388c0,0,0.5,1.3,1.9,1.2c1,0,1.4-1.3,1.4-1.3s-0.1,1.9-1.6,1.9C675.6,389.8,675.4,388,675.4,388z"/>
		<path class="st33" d="M672.9,386.7c0,0,0.5,1.3,1.9,1.2c1,0,1.4-1.3,1.4-1.3s0,1.9-1.6,1.9C673,388.7,672.9,386.7,672.9,386.7z"/>
	</g>
	<g>
		<path class="st33" d="M644.3,412.2c0,0,5.3-8.7,16.4-11.1c11.1-2.4,16.7,1.9,29.3,1.9c12.6-0.1,17.2-6.2,27.9-4.5
			s17.8,13.3,17.8,13.3L644.3,412.2z"/>
		<path class="st42" d="M732.3,411.7c-2.2-3.8-7.2-9.2-14.6-10.3c-10.2-1.6-15.6,4-27.6,4c-11.9,0.1-17.9-3.8-28.5-1.5
			c-7.2,1.5-11.3,5.7-13.5,8.3"/>
		<path class="st42" d="M728.8,411.7c-3.2-3.6-6.3-6.4-12.2-7.2c-9.7-1.3-15.5,3-26.8,3.1c-11.4,0.1-15.9-3-25.9-1.2
			c-5.4,1-8.6,3.2-10.9,5.6"/>
		<path class="st42" d="M724.7,411.7c-1.4-1.8-6.1-4.8-11.5-4.5c-8.8,0.4-12.4,2.9-22.7,3c-12.4,0.1-14.3-2-23.4-1.2
			c-4.9,0.4-7.5,2-8.8,3.1"/>
	</g>
</g>
<g>
	<g id="Layer_19">
		<g>
			<g>
				<path class="st30" d="M443.3,591.6c0,0,10.9-16.2,34-16.2c17.6,0,18.8,16.2,18.8,16.2H443.3z"/>
				<path class="st33" d="M477.3,575.4c-23.1,0-34,16.2-34,16.2h1.7c0,0,10.4-15,32.2-15c16.6,0,17.9,15,17.9,15h1
					C496.1,591.6,494.9,575.4,477.3,575.4z"/>
				<path class="st44" d="M448,586.5c0,0,5,2.1,6.8,5.2"/>
				<path class="st44" d="M452.8,582.8c0,0,7,2.9,9.6,8.8"/>
				<path class="st44" d="M459.6,579.1c0,0,7.8,3.8,9.6,12.6"/>
				<path class="st44" d="M468.6,576.3c0,0,7.2,5.6,7.2,15.4"/>
				<path class="st44" d="M479.5,575.4c0,0,2.6,5.3,2.2,16.2"/>
				<path class="st44" d="M487.3,577.8c0,0,1.8,7.2-0.4,13.9"/>
				<path class="st44" d="M493.5,584.1c0,0,0.4,3.6-1.6,7.6"/>
			</g>
			<g>
				<path class="st30" d="M393.5,591.6c0,0,10.9-29.9,34-29.9c17.6,0,18.8,29.9,18.8,29.9H393.5z"/>
				<path class="st33" d="M427.5,561.7c-23.1,0-34,29.9-34,29.9h1.6c0,0,10.4-28.7,32.3-28.7c16.6,0,17.9,28.7,17.9,28.7h1
					C446.3,591.6,445.1,561.7,427.5,561.7z"/>
				<path class="st44" d="M398,582.1c0,0,5.1,3.8,6.9,9.5"/>
				<path class="st44" d="M402.9,575.4c0,0,7.1,5.3,9.7,16.2"/>
				<path class="st44" d="M409.8,568.6c0,0,7.9,7,9.7,23.1"/>
				<path class="st44" d="M418.9,563.3c0,0,7.3,10.3,7.3,28.3"/>
				<path class="st44" d="M429.8,561.9c0,0,2.7,9.7,2.3,29.8"/>
				<path class="st44" d="M437.7,566.1c0,0,1.8,13.2-0.4,25.5"/>
				<path class="st44" d="M443.8,577.7c0,0,0.4,6.7-1.6,14"/>
			</g>
		</g>
		<path class="st45" d="M688.4,359"/>
		<path class="st45" d="M374.8,359"/>
		<path class="st45" d="M369.4,445.6"/>
		<path class="st45" d="M498.5,445.6"/>
		<g>
			<path class="st46" d="M809.3,444.8c0-2.6,1.1-5,2.8-6.7c-2.6,1.7-4.3,4.6-4.3,7.9c0,5.3,4.3,9.5,9.5,9.5c2.6,0,5-1.1,6.7-2.8
				c-1.5,1-3.3,1.6-5.3,1.6C813.6,454.3,809.3,450.1,809.3,444.8z"/>
			<g>
				<line class="st47" x1="817.4" y1="464.1" x2="817.4" y2="441.2"/>
				<polygon class="st48" points="816.1,464.1 817.4,441.2 818.8,464.1 				"/>
			</g>
			<g>
				<line class="st47" x1="817.4" y1="446.3" x2="820.3" y2="443"/>
				<polygon class="st48" points="817.1,446.1 820.3,443 817.8,446.7 				"/>
			</g>
			<g>
				<line class="st47" x1="817.4" y1="452.5" x2="812.1" y2="446.8"/>
				<polygon class="st48" points="816.8,453 812.1,446.8 818,452 				"/>
			</g>
			<g>
				<line class="st47" x1="817.5" y1="453.4" x2="823.2" y2="448.1"/>
				<polygon class="st48" points="817.1,453.1 823.2,448.1 817.8,453.7 				"/>
			</g>
		</g>
	</g>
	<g id="MBS">
		<g>
			<rect x="386.7" y="494.4" class="st49" width="6.5" height="4.6"/>
			<rect x="289.1" y="494.4" class="st49" width="6.5" height="4.6"/>
			<polygon class="st33" points="407.4,505.8 284.4,505.8 262.2,498.3 407.4,498.3 			"/>
			<polygon class="st2" points="407.4,505.8 284.4,505.8 262.2,498.3 407.4,501.6 			"/>
			<rect x="328.2" y="508.6" class="st32" width="31.2" height="83.4"/>
			<g>
				<line class="st50" x1="331.7" y1="512.3" x2="355.8" y2="512.3"/>
				<line class="st50" x1="331.7" y1="516.2" x2="355.8" y2="516.2"/>
				<line class="st50" x1="331.7" y1="520.3" x2="355.8" y2="520.3"/>
				<line class="st50" x1="331.7" y1="524.3" x2="355.8" y2="524.3"/>
				<line class="st50" x1="331.7" y1="528.2" x2="355.8" y2="528.2"/>
				<line class="st50" x1="331.7" y1="532.3" x2="355.8" y2="532.3"/>
				<line class="st50" x1="331.7" y1="536.2" x2="355.8" y2="536.2"/>
				<line class="st50" x1="331.7" y1="540.2" x2="355.8" y2="540.2"/>
				<line class="st50" x1="331.7" y1="544.2" x2="355.8" y2="544.2"/>
				<line class="st50" x1="331.7" y1="548.2" x2="355.8" y2="548.2"/>
				<line class="st50" x1="331.7" y1="552.1" x2="355.8" y2="552.1"/>
				<line class="st50" x1="331.7" y1="556.1" x2="355.8" y2="556.1"/>
				<line class="st50" x1="331.7" y1="560.1" x2="355.8" y2="560.1"/>
				<line class="st50" x1="331.7" y1="564.1" x2="355.8" y2="564.1"/>
				<line class="st50" x1="331.7" y1="568.1" x2="355.8" y2="568.1"/>
				<line class="st50" x1="331.7" y1="572.1" x2="355.8" y2="572.1"/>
				<line class="st50" x1="331.7" y1="576.1" x2="355.8" y2="576.1"/>
			</g>
			<rect x="289.1" y="508.6" class="st32" width="31.2" height="83.4"/>
			<rect x="289.1" y="508.6" class="st2" width="5.9" height="83.4"/>
			<g>
				<line class="st50" x1="298.4" y1="512.3" x2="316.7" y2="512.3"/>
				<line class="st50" x1="298.4" y1="516.2" x2="316.7" y2="516.2"/>
				<line class="st50" x1="298.4" y1="520.3" x2="316.7" y2="520.3"/>
				<line class="st50" x1="298.4" y1="524.3" x2="316.7" y2="524.3"/>
				<line class="st50" x1="298.4" y1="528.2" x2="316.7" y2="528.2"/>
				<line class="st50" x1="298.4" y1="532.3" x2="316.7" y2="532.3"/>
				<line class="st50" x1="298.4" y1="536.2" x2="316.7" y2="536.2"/>
				<line class="st50" x1="298.4" y1="540.2" x2="316.7" y2="540.2"/>
				<line class="st50" x1="298.4" y1="544.2" x2="316.7" y2="544.2"/>
				<line class="st50" x1="298.4" y1="548.2" x2="316.7" y2="548.2"/>
				<line class="st50" x1="298.4" y1="552.1" x2="316.7" y2="552.1"/>
				<line class="st50" x1="298.4" y1="556.1" x2="316.7" y2="556.1"/>
				<line class="st50" x1="298.4" y1="560.1" x2="316.7" y2="560.1"/>
				<line class="st50" x1="298.4" y1="564.1" x2="316.7" y2="564.1"/>
				<line class="st50" x1="298.4" y1="568.1" x2="316.7" y2="568.1"/>
				<line class="st50" x1="298.4" y1="572.1" x2="316.7" y2="572.1"/>
				<line class="st50" x1="298.4" y1="576.1" x2="316.7" y2="576.1"/>
			</g>
			<rect x="367.3" y="508.6" class="st32" width="31.2" height="83.4"/>
			<rect x="392.5" y="508.6" class="st2" width="5.9" height="83.4"/>
			<g>
				<line class="st50" x1="389.1" y1="512.3" x2="370.8" y2="512.3"/>
				<line class="st50" x1="389.1" y1="516.2" x2="370.8" y2="516.2"/>
				<line class="st51" x1="389.1" y1="520.3" x2="370.8" y2="520.3"/>
				<line class="st50" x1="389.1" y1="524.3" x2="370.8" y2="524.3"/>
				<line class="st50" x1="389.1" y1="528.2" x2="370.8" y2="528.2"/>
				<line class="st50" x1="389.1" y1="532.3" x2="370.8" y2="532.3"/>
				<line class="st50" x1="389.1" y1="536.2" x2="370.8" y2="536.2"/>
				<line class="st50" x1="389.1" y1="540.2" x2="370.8" y2="540.2"/>
				<line class="st50" x1="389.1" y1="544.2" x2="370.8" y2="544.2"/>
				<line class="st50" x1="389.1" y1="548.2" x2="370.8" y2="548.2"/>
				<line class="st50" x1="389.1" y1="552.1" x2="370.8" y2="552.1"/>
				<line class="st50" x1="389.1" y1="556.1" x2="370.8" y2="556.1"/>
				<line class="st50" x1="389.1" y1="560.1" x2="370.8" y2="560.1"/>
				<line class="st50" x1="389.1" y1="564.1" x2="370.8" y2="564.1"/>
				<line class="st50" x1="389.1" y1="568.1" x2="370.8" y2="568.1"/>
				<line class="st50" x1="389.1" y1="572.1" x2="370.8" y2="572.1"/>
				<line class="st50" x1="389.1" y1="576.1" x2="370.8" y2="576.1"/>
			</g>
		</g>
		<g>
			<g>
				<path class="st33" d="M564.5,532.1c0,0-4.1-5.1,9.7-5.1c13.5,0,9.5,5.1,9.5,5.1s-6.4,3.9-6.4,25.4c0,21.4,3.4,35.4,3.4,35.4
					h-13.5c0,0,3.6-11.1,3.6-35.6C570.9,532.8,564.5,532.1,564.5,532.1z"/>
				<path class="st30" d="M570.4,532.3c0,0-1.6-5.1,3.8-5.1c5.3,0,3.7,5.1,3.7,5.1s-2.5,3.9-2.5,25.4c0,21.4,1.3,35.3,1.3,35.3h-5.3
					c0,0,1.4-11.1,1.4-35.6C572.9,532.9,570.4,532.3,570.4,532.3z"/>
				<g>
					<path class="st52" d="M570.2,593c0,0,1.5-22.4,1.5-42.2c0-24.5-9.8-33.6-9.8-33.6"/>
					<path class="st52" d="M577.9,593c0,0-1.5-22.4-1.5-42.2c0-24.5,9.8-33.6,9.8-33.6"/>
				</g>
				<g>
					<path class="st52" d="M566,593c0,0,3.6-22.1,3.6-41.6c0-24.1-22.7-29.2-22.7-29.2"/>
					<path class="st52" d="M582.2,593c0,0-3.6-22.1-3.6-41.6c0-24.1,22.7-29.2,22.7-29.2"/>
				</g>
				<line class="st52" x1="574.1" y1="593" x2="574.1" y2="515.3"/>
				<g>
					<line class="st52" x1="550.1" y1="523.1" x2="548.9" y2="520"/>
					<line class="st52" x1="554.2" y1="524.8" x2="552.8" y2="521.1"/>
					<line class="st52" x1="557.8" y1="526.9" x2="557" y2="523.3"/>
					<line class="st52" x1="560.7" y1="529.3" x2="560.5" y2="525.3"/>
					<line class="st52" x1="563.4" y1="531.9" x2="563.4" y2="528.5"/>
					<line class="st52" x1="565.6" y1="535.5" x2="565.8" y2="531.3"/>
					<line class="st52" x1="567.9" y1="539.8" x2="569.1" y2="535.4"/>
					<line class="st52" x1="569" y1="543.8" x2="570.5" y2="540.2"/>
					<line class="st52" x1="549.8" y1="522.3" x2="551.3" y2="519.1"/>
					<line class="st52" x1="553.7" y1="523.3" x2="555.7" y2="519"/>
					<line class="st52" x1="554.6" y1="521.2" x2="553.5" y2="518.5"/>
					<line class="st52" x1="557.7" y1="525.3" x2="560.2" y2="522.6"/>
					<line class="st52" x1="559" y1="523.4" x2="556.1" y2="517.6"/>
					<line class="st52" x1="557.9" y1="521.2" x2="558.5" y2="516.9"/>
					<line class="st52" x1="560.7" y1="527.6" x2="564.1" y2="524.4"/>
					<line class="st52" x1="562.8" y1="525.4" x2="560.8" y2="520.7"/>
					<line class="st52" x1="562.1" y1="523.1" x2="563.3" y2="521"/>
					<line class="st52" x1="563.4" y1="530" x2="566.7" y2="527.7"/>
					<line class="st52" x1="565.6" y1="528.4" x2="564.7" y2="525.6"/>
					<line class="st52" x1="565.8" y1="532.8" x2="569.3" y2="531.9"/>
					<line class="st52" x1="567.8" y1="532.2" x2="567.5" y2="529.8"/>
					<line class="st52" x1="568.4" y1="537.3" x2="567" y2="534.9"/>
					<line class="st52" x1="570.1" y1="535" x2="568.5" y2="535"/>
					<line class="st52" x1="568.3" y1="539" x2="570.2" y2="537.9"/>
					<line class="st52" x1="569.6" y1="541.8" x2="569.1" y2="540.4"/>
					<line class="st52" x1="571.2" y1="540.7" x2="569.7" y2="539.3"/>
					<line class="st52" x1="562.8" y1="522.4" x2="565.7" y2="522.6"/>
					<line class="st52" x1="565.3" y1="526.5" x2="567.5" y2="526.5"/>
					<line class="st52" x1="558.6" y1="519.6" x2="563.7" y2="519.6"/>
					<line class="st52" x1="561.2" y1="519.5" x2="559.8" y2="517"/>
					<line class="st52" x1="566.3" y1="529.7" x2="568.5" y2="529.8"/>
				</g>
				<g>
					<line class="st52" x1="598.2" y1="523.1" x2="599.4" y2="520"/>
					<line class="st52" x1="594.2" y1="524.8" x2="595.5" y2="521.1"/>
					<line class="st52" x1="590.6" y1="526.9" x2="591.3" y2="523.3"/>
					<line class="st52" x1="587.6" y1="529.3" x2="587.9" y2="525.3"/>
					<line class="st52" x1="585" y1="531.9" x2="584.9" y2="528.5"/>
					<line class="st52" x1="582.7" y1="535.5" x2="582.5" y2="531.3"/>
					<line class="st52" x1="580.5" y1="539.8" x2="579.2" y2="535.4"/>
					<line class="st52" x1="579.4" y1="543.8" x2="577.9" y2="540.2"/>
					<line class="st52" x1="598.5" y1="522.3" x2="597.1" y2="519.1"/>
					<line class="st52" x1="594.7" y1="523.3" x2="592.7" y2="519"/>
					<line class="st52" x1="593.8" y1="521.2" x2="594.8" y2="518.5"/>
					<line class="st52" x1="590.7" y1="525.3" x2="588.2" y2="522.6"/>
					<line class="st52" x1="589.3" y1="523.4" x2="592.3" y2="517.6"/>
					<line class="st52" x1="590.3" y1="521.2" x2="589.8" y2="516.9"/>
					<line class="st52" x1="587.6" y1="527.6" x2="584.3" y2="524.4"/>
					<line class="st52" x1="585.5" y1="525.4" x2="587.6" y2="520.7"/>
					<line class="st52" x1="586.3" y1="523.1" x2="585" y2="521"/>
					<line class="st52" x1="584.9" y1="530" x2="581.7" y2="527.7"/>
					<line class="st52" x1="582.8" y1="528.4" x2="583.7" y2="525.6"/>
					<line class="st52" x1="582.5" y1="532.8" x2="579.1" y2="531.9"/>
					<line class="st52" x1="580.5" y1="532.2" x2="580.8" y2="529.8"/>
					<line class="st52" x1="580" y1="537.3" x2="581.3" y2="534.9"/>
					<line class="st52" x1="578.3" y1="535" x2="579.8" y2="535"/>
					<line class="st52" x1="580.1" y1="539" x2="578.1" y2="537.9"/>
					<line class="st52" x1="578.8" y1="541.8" x2="579.2" y2="540.4"/>
					<line class="st52" x1="577.1" y1="540.7" x2="578.6" y2="539.3"/>
					<line class="st52" x1="585.6" y1="522.4" x2="582.7" y2="522.6"/>
					<line class="st52" x1="583.1" y1="526.5" x2="580.8" y2="526.5"/>
					<line class="st52" x1="589.7" y1="519.6" x2="584.5" y2="519.6"/>
					<line class="st52" x1="587.1" y1="519.5" x2="588.6" y2="517"/>
					<line class="st52" x1="582.1" y1="529.7" x2="579.8" y2="529.8"/>
				</g>
				<g>
					<line class="st52" x1="563.4" y1="518.4" x2="564.4" y2="515.5"/>
					<line class="st52" x1="565.8" y1="522.3" x2="567" y2="518.3"/>
					<line class="st52" x1="567.5" y1="525.2" x2="568.7" y2="522.1"/>
					<line class="st52" x1="569" y1="529.3" x2="570.1" y2="526.7"/>
					<line class="st52" x1="570.3" y1="534" x2="572.8" y2="531"/>
					<line class="st52" x1="571.3" y1="539.8" x2="573.9" y2="537"/>
					<line class="st52" x1="563.7" y1="517.5" x2="568" y2="516.1"/>
					<line class="st52" x1="566.6" y1="516.6" x2="567.4" y2="514.2"/>
					<line class="st52" x1="566.4" y1="520.7" x2="571.6" y2="519.1"/>
					<line class="st52" x1="568.7" y1="520" x2="569.3" y2="518"/>
					<line class="st52" x1="567.8" y1="524.3" x2="572.8" y2="523.4"/>
					<line class="st52" x1="569.8" y1="523.8" x2="570.4" y2="522.2"/>
					<line class="st52" x1="569.6" y1="528.5" x2="573.2" y2="528.3"/>
					<line class="st52" x1="571.4" y1="528.3" x2="572.3" y2="526.1"/>
					<line class="st52" x1="571.3" y1="533" x2="572.9" y2="532.9"/>
					<line class="st52" x1="571.2" y1="532.6" x2="571.1" y2="530.6"/>
					<line class="st52" x1="572.3" y1="538.7" x2="571.9" y2="535.9"/>
					<line class="st52" x1="572.2" y1="534.5" x2="574" y2="535.9"/>
					<line class="st52" x1="572" y1="530.2" x2="573.8" y2="531.9"/>
					<line class="st52" x1="571.6" y1="525.4" x2="574" y2="527.1"/>
					<line class="st52" x1="571.2" y1="522" x2="574" y2="524.2"/>
					<line class="st52" x1="570.5" y1="518" x2="574" y2="521"/>
					<line class="st52" x1="570.6" y1="514.3" x2="573.7" y2="517.3"/>
					<line class="st52" x1="569.3" y1="516" x2="572.3" y2="516.2"/>
				</g>
				<g>
					<line class="st52" x1="584.9" y1="518.4" x2="583.9" y2="515.5"/>
					<line class="st52" x1="582.5" y1="522.3" x2="581.3" y2="518.3"/>
					<line class="st52" x1="580.8" y1="525.2" x2="579.6" y2="522.1"/>
					<line class="st52" x1="579.3" y1="529.3" x2="578.2" y2="526.7"/>
					<line class="st52" x1="578" y1="534" x2="575.5" y2="531"/>
					<line class="st52" x1="577" y1="539.8" x2="574.4" y2="537"/>
					<line class="st52" x1="584.6" y1="517.5" x2="580.3" y2="516.1"/>
					<line class="st52" x1="581.8" y1="516.6" x2="580.9" y2="514.2"/>
					<line class="st52" x1="581.9" y1="520.7" x2="576.7" y2="519.1"/>
					<line class="st52" x1="579.6" y1="520" x2="579" y2="518"/>
					<line class="st52" x1="580.5" y1="524.3" x2="575.5" y2="523.4"/>
					<line class="st52" x1="578.5" y1="523.8" x2="577.9" y2="522.2"/>
					<line class="st52" x1="578.7" y1="528.5" x2="575.2" y2="528.3"/>
					<line class="st52" x1="577" y1="528.3" x2="576.1" y2="526.1"/>
					<line class="st52" x1="577" y1="533" x2="575.4" y2="532.9"/>
					<line class="st52" x1="577.1" y1="532.6" x2="577.2" y2="530.6"/>
					<line class="st52" x1="576" y1="538.7" x2="576.4" y2="535.9"/>
					<line class="st52" x1="576.1" y1="534.5" x2="574.3" y2="535.9"/>
					<line class="st52" x1="576.3" y1="530.2" x2="574.5" y2="531.9"/>
					<line class="st52" x1="576.7" y1="525.4" x2="574.3" y2="527.1"/>
					<line class="st52" x1="577.1" y1="522" x2="574.3" y2="524.2"/>
					<line class="st52" x1="577.8" y1="518" x2="574.3" y2="521"/>
					<line class="st52" x1="577.7" y1="514.3" x2="574.3" y2="517.6"/>
					<line class="st52" x1="579" y1="516" x2="576" y2="516.2"/>
				</g>
			</g>
			<g>
				<path class="st33" d="M492.5,532.1c0,0-4.1-5.1,9.7-5.1c13.5,0,9.5,5.1,9.5,5.1s-6.4,3.9-6.4,25.4c0,21.4,3.4,35.4,3.4,35.4
					h-13.5c0,0,3.6-11.1,3.6-35.6C498.8,532.8,492.5,532.1,492.5,532.1z"/>
				<path class="st30" d="M498.3,532.3c0,0-1.6-5.1,3.8-5.1c5.3,0,3.7,5.1,3.7,5.1s-2.5,3.9-2.5,25.4c0,21.4,1.3,35.3,1.3,35.3h-5.3
					c0,0,1.4-11.1,1.4-35.6C500.8,532.9,498.3,532.3,498.3,532.3z"/>
				<g>
					<path class="st52" d="M498.2,593c0,0,1.5-22.4,1.5-42.2c0-24.5-9.8-33.6-9.8-33.6"/>
					<path class="st52" d="M505.8,593c0,0-1.5-22.4-1.5-42.2c0-24.5,9.8-33.6,9.8-33.6"/>
				</g>
				<g>
					<path class="st52" d="M493.9,593c0,0,3.6-22.1,3.6-41.6c0-24.1-22.7-29.2-22.7-29.2"/>
					<path class="st52" d="M510.1,593c0,0-3.6-22.1-3.6-41.6c0-24.1,22.7-29.2,22.7-29.2"/>
				</g>
				<line class="st52" x1="502" y1="593" x2="502" y2="515.3"/>
				<g>
					<line class="st52" x1="478.1" y1="523.1" x2="476.8" y2="520"/>
					<line class="st52" x1="482.1" y1="524.8" x2="480.8" y2="521.1"/>
					<line class="st52" x1="485.7" y1="526.9" x2="485" y2="523.3"/>
					<line class="st52" x1="488.6" y1="529.3" x2="488.4" y2="525.3"/>
					<line class="st52" x1="491.3" y1="531.9" x2="491.3" y2="528.5"/>
					<line class="st52" x1="493.5" y1="535.5" x2="493.8" y2="531.3"/>
					<line class="st52" x1="495.9" y1="539.8" x2="497" y2="535.4"/>
					<line class="st52" x1="496.9" y1="543.8" x2="498.4" y2="540.2"/>
					<line class="st52" x1="477.8" y1="522.3" x2="479.2" y2="519.1"/>
					<line class="st52" x1="481.6" y1="523.3" x2="483.6" y2="519"/>
					<line class="st52" x1="482.6" y1="521.2" x2="481.5" y2="518.5"/>
					<line class="st52" x1="485.6" y1="525.3" x2="488.1" y2="522.6"/>
					<line class="st52" x1="486.9" y1="523.4" x2="484" y2="517.6"/>
					<line class="st52" x1="485.9" y1="521.2" x2="486.4" y2="516.9"/>
					<line class="st52" x1="488.6" y1="527.6" x2="492" y2="524.4"/>
					<line class="st52" x1="490.8" y1="525.4" x2="488.7" y2="520.7"/>
					<line class="st52" x1="490.1" y1="523.1" x2="491.2" y2="521"/>
					<line class="st52" x1="491.4" y1="530" x2="494.6" y2="527.7"/>
					<line class="st52" x1="493.5" y1="528.4" x2="492.6" y2="525.6"/>
					<line class="st52" x1="493.8" y1="532.8" x2="497.2" y2="531.9"/>
					<line class="st52" x1="495.7" y1="532.2" x2="495.5" y2="529.8"/>
					<line class="st52" x1="496.3" y1="537.3" x2="494.9" y2="534.9"/>
					<line class="st52" x1="498" y1="535" x2="496.5" y2="535"/>
					<line class="st52" x1="496.2" y1="539" x2="498.1" y2="537.9"/>
					<line class="st52" x1="497.6" y1="541.8" x2="497" y2="540.4"/>
					<line class="st52" x1="499.1" y1="540.7" x2="497.6" y2="539.3"/>
					<line class="st52" x1="490.8" y1="522.4" x2="493.6" y2="522.6"/>
					<line class="st52" x1="493.2" y1="526.5" x2="495.5" y2="526.5"/>
					<line class="st52" x1="486.5" y1="519.6" x2="491.7" y2="519.6"/>
					<line class="st52" x1="489.1" y1="519.5" x2="487.7" y2="517"/>
					<line class="st52" x1="494.2" y1="529.7" x2="496.5" y2="529.8"/>
				</g>
				<g>
					<line class="st52" x1="526.1" y1="523.1" x2="527.3" y2="520"/>
					<line class="st52" x1="522.1" y1="524.8" x2="523.5" y2="521.1"/>
					<line class="st52" x1="518.5" y1="526.9" x2="519.2" y2="523.3"/>
					<line class="st52" x1="515.6" y1="529.3" x2="515.8" y2="525.3"/>
					<line class="st52" x1="512.9" y1="531.9" x2="512.9" y2="528.5"/>
					<line class="st52" x1="510.6" y1="535.5" x2="510.5" y2="531.3"/>
					<line class="st52" x1="508.4" y1="539.8" x2="507.1" y2="535.4"/>
					<line class="st52" x1="507.2" y1="543.8" x2="505.8" y2="540.2"/>
					<line class="st52" x1="526.5" y1="522.3" x2="525" y2="519.1"/>
					<line class="st52" x1="522.6" y1="523.3" x2="520.6" y2="519"/>
					<line class="st52" x1="521.7" y1="521.2" x2="522.8" y2="518.5"/>
					<line class="st52" x1="518.6" y1="525.3" x2="516" y2="522.6"/>
					<line class="st52" x1="517.3" y1="523.4" x2="520.2" y2="517.6"/>
					<line class="st52" x1="518.3" y1="521.2" x2="517.7" y2="516.9"/>
					<line class="st52" x1="515.6" y1="527.6" x2="512.2" y2="524.4"/>
					<line class="st52" x1="513.4" y1="525.4" x2="515.5" y2="520.7"/>
					<line class="st52" x1="514.2" y1="523.1" x2="512.9" y2="521"/>
					<line class="st52" x1="512.8" y1="530" x2="509.6" y2="527.7"/>
					<line class="st52" x1="510.7" y1="528.4" x2="511.6" y2="525.6"/>
					<line class="st52" x1="510.5" y1="532.8" x2="507" y2="531.9"/>
					<line class="st52" x1="508.5" y1="532.2" x2="508.7" y2="529.8"/>
					<line class="st52" x1="507.9" y1="537.3" x2="509.2" y2="534.9"/>
					<line class="st52" x1="506.1" y1="535" x2="507.7" y2="535"/>
					<line class="st52" x1="507.9" y1="539" x2="506.1" y2="537.9"/>
					<line class="st52" x1="506.7" y1="541.8" x2="507.1" y2="540.4"/>
					<line class="st52" x1="505.1" y1="540.7" x2="506.5" y2="539.3"/>
					<line class="st52" x1="513.4" y1="522.4" x2="510.6" y2="522.6"/>
					<line class="st52" x1="511" y1="526.5" x2="508.7" y2="526.5"/>
					<line class="st52" x1="517.7" y1="519.6" x2="512.5" y2="519.6"/>
					<line class="st52" x1="515" y1="519.5" x2="516.5" y2="517"/>
					<line class="st52" x1="510" y1="529.7" x2="507.8" y2="529.8"/>
				</g>
				<g>
					<line class="st52" x1="491.3" y1="518.4" x2="492.4" y2="515.5"/>
					<line class="st52" x1="493.8" y1="522.3" x2="494.9" y2="518.3"/>
					<line class="st52" x1="495.4" y1="525.2" x2="496.6" y2="522.1"/>
					<line class="st52" x1="496.9" y1="529.3" x2="498" y2="526.7"/>
					<line class="st52" x1="498.3" y1="534" x2="500.7" y2="531"/>
					<line class="st52" x1="499.2" y1="539.8" x2="501.8" y2="537"/>
					<line class="st52" x1="491.7" y1="517.5" x2="495.9" y2="516.1"/>
					<line class="st52" x1="494.5" y1="516.6" x2="495.3" y2="514.2"/>
					<line class="st52" x1="494.3" y1="520.7" x2="499.6" y2="519.1"/>
					<line class="st52" x1="496.6" y1="520" x2="497.2" y2="518"/>
					<line class="st52" x1="495.8" y1="524.3" x2="500.7" y2="523.4"/>
					<line class="st52" x1="497.7" y1="523.8" x2="498.3" y2="522.2"/>
					<line class="st52" x1="497.6" y1="528.5" x2="501.1" y2="528.3"/>
					<line class="st52" x1="499.3" y1="528.3" x2="500.1" y2="526.1"/>
					<line class="st52" x1="499.3" y1="533" x2="500.8" y2="532.9"/>
					<line class="st52" x1="499.2" y1="532.6" x2="499" y2="530.6"/>
					<line class="st52" x1="500.2" y1="538.7" x2="499.8" y2="535.9"/>
					<line class="st52" x1="500.1" y1="534.5" x2="501.9" y2="535.9"/>
					<line class="st52" x1="500" y1="530.2" x2="501.7" y2="531.9"/>
					<line class="st52" x1="499.5" y1="525.4" x2="501.9" y2="527.1"/>
					<line class="st52" x1="499.2" y1="522" x2="501.9" y2="524.2"/>
					<line class="st52" x1="498.4" y1="518" x2="501.9" y2="521"/>
					<line class="st52" x1="498.6" y1="514.3" x2="501.7" y2="517.3"/>
					<line class="st52" x1="497.2" y1="516" x2="500.3" y2="516.2"/>
				</g>
				<g>
					<line class="st52" x1="512.9" y1="518.4" x2="511.8" y2="515.5"/>
					<line class="st52" x1="510.4" y1="522.3" x2="509.2" y2="518.3"/>
					<line class="st52" x1="508.8" y1="525.2" x2="507.5" y2="522.1"/>
					<line class="st52" x1="507.2" y1="529.3" x2="506.1" y2="526.7"/>
					<line class="st52" x1="505.9" y1="534" x2="503.4" y2="531"/>
					<line class="st52" x1="504.9" y1="539.8" x2="502.4" y2="537"/>
					<line class="st52" x1="512.5" y1="517.5" x2="508.2" y2="516.1"/>
					<line class="st52" x1="509.6" y1="516.6" x2="508.8" y2="514.2"/>
					<line class="st52" x1="509.9" y1="520.7" x2="504.6" y2="519.1"/>
					<line class="st52" x1="507.5" y1="520" x2="506.9" y2="518"/>
					<line class="st52" x1="508.4" y1="524.3" x2="503.4" y2="523.4"/>
					<line class="st52" x1="506.4" y1="523.8" x2="505.8" y2="522.2"/>
					<line class="st52" x1="506.6" y1="528.5" x2="503" y2="528.3"/>
					<line class="st52" x1="504.9" y1="528.3" x2="504" y2="526.1"/>
					<line class="st52" x1="504.9" y1="533" x2="503.4" y2="532.9"/>
					<line class="st52" x1="505" y1="532.6" x2="505.1" y2="530.6"/>
					<line class="st52" x1="503.9" y1="538.7" x2="504.4" y2="535.9"/>
					<line class="st52" x1="504.1" y1="534.5" x2="502.3" y2="535.9"/>
					<line class="st52" x1="504.2" y1="530.2" x2="502.4" y2="531.9"/>
					<line class="st52" x1="504.7" y1="525.4" x2="502.3" y2="527.1"/>
					<line class="st52" x1="505" y1="522" x2="502.3" y2="524.2"/>
					<line class="st52" x1="505.8" y1="518" x2="502.3" y2="521"/>
					<line class="st52" x1="505.6" y1="514.3" x2="502.2" y2="517.6"/>
					<line class="st52" x1="506.9" y1="516" x2="503.9" y2="516.2"/>
				</g>
			</g>
			<g>
				<path class="st33" d="M530,542.2c0,0-3.4-4.3,8-4.3c11.3,0,8,4.3,8,4.3s-5.4,3.3-5.4,21.3s2.9,29.5,2.9,29.5h-11.3
					c0,0,3-9.2,3-29.8C535.4,542.7,530,542.2,530,542.2z"/>
				<path class="st30" d="M535,542.2c0,0-1.3-4.3,3.2-4.3c4.4,0,3.1,4.3,3.1,4.3s-2.1,3.3-2.1,21.2c0,17.9,1.1,29.5,1.1,29.5h-4.4
					c0,0,1.2-9.2,1.2-29.7C537,542.8,535,542.2,535,542.2z"/>
				<g>
					<path class="st52" d="M534.8,593c0,0,1.2-18.7,1.2-35.3c0-20.5-8.2-28.1-8.2-28.1"/>
					<path class="st52" d="M541.2,593c0,0-1.2-18.7-1.2-35.3c0-20.5,8.2-28.1,8.2-28.1"/>
				</g>
				<g>
					<path class="st52" d="M531.3,593c0,0,3-18.5,3-34.8c0-20.2-18.9-24.4-18.9-24.4"/>
					<path class="st52" d="M544.8,593c0,0-3-18.5-3-34.8c0-20.2,18.9-24.4,18.9-24.4"/>
				</g>
				<line class="st52" x1="538.1" y1="593" x2="538.1" y2="528.1"/>
				<g>
					<line class="st52" x1="518" y1="534.7" x2="517" y2="531.9"/>
					<line class="st52" x1="521.4" y1="536" x2="520.3" y2="532.9"/>
					<line class="st52" x1="524.4" y1="537.8" x2="523.8" y2="534.7"/>
					<line class="st52" x1="526.9" y1="539.8" x2="526.7" y2="536.4"/>
					<line class="st52" x1="529.1" y1="542" x2="529.1" y2="539.1"/>
					<line class="st52" x1="531" y1="544.9" x2="531.1" y2="541.5"/>
					<line class="st52" x1="532.9" y1="548.6" x2="533.9" y2="544.9"/>
					<line class="st52" x1="533.8" y1="551.9" x2="535" y2="548.9"/>
					<line class="st52" x1="517.7" y1="533.9" x2="519" y2="531.2"/>
					<line class="st52" x1="521" y1="534.7" x2="522.7" y2="531.2"/>
					<line class="st52" x1="521.8" y1="533" x2="520.9" y2="530.8"/>
					<line class="st52" x1="524.4" y1="536.4" x2="526.5" y2="534.2"/>
					<line class="st52" x1="525.5" y1="534.9" x2="523" y2="530"/>
					<line class="st52" x1="524.6" y1="533" x2="525" y2="529.5"/>
					<line class="st52" x1="526.9" y1="538.4" x2="529.6" y2="535.7"/>
					<line class="st52" x1="528.6" y1="536.6" x2="526.9" y2="532.6"/>
					<line class="st52" x1="528" y1="534.6" x2="529" y2="532.9"/>
					<line class="st52" x1="529.2" y1="540.4" x2="531.8" y2="538.4"/>
					<line class="st52" x1="531" y1="539" x2="530.2" y2="536.7"/>
					<line class="st52" x1="531.1" y1="542.7" x2="534.1" y2="541.9"/>
					<line class="st52" x1="532.8" y1="542.2" x2="532.6" y2="540.2"/>
					<line class="st52" x1="533.3" y1="546.5" x2="532.1" y2="544.5"/>
					<line class="st52" x1="534.8" y1="544.6" x2="533.4" y2="544.6"/>
					<line class="st52" x1="533.2" y1="547.9" x2="534.8" y2="546.9"/>
					<line class="st52" x1="534.3" y1="550.2" x2="533.9" y2="549"/>
					<line class="st52" x1="535.6" y1="549.3" x2="534.4" y2="548.1"/>
					<line class="st52" x1="528.6" y1="534" x2="531" y2="534.2"/>
					<line class="st52" x1="530.7" y1="537.4" x2="532.6" y2="537.5"/>
					<line class="st52" x1="525.1" y1="531.6" x2="529.4" y2="531.6"/>
					<line class="st52" x1="527.3" y1="531.6" x2="526.1" y2="529.5"/>
					<line class="st52" x1="531.5" y1="540.1" x2="533.4" y2="540.1"/>
				</g>
				<g>
					<line class="st52" x1="558.2" y1="534.7" x2="559.2" y2="531.9"/>
					<line class="st52" x1="554.9" y1="536" x2="555.9" y2="532.9"/>
					<line class="st52" x1="551.8" y1="537.8" x2="552.4" y2="534.7"/>
					<line class="st52" x1="549.4" y1="539.8" x2="549.5" y2="536.4"/>
					<line class="st52" x1="547.2" y1="542" x2="547.1" y2="539.1"/>
					<line class="st52" x1="545.3" y1="544.9" x2="545.1" y2="541.5"/>
					<line class="st52" x1="543.3" y1="548.6" x2="542.3" y2="544.9"/>
					<line class="st52" x1="542.4" y1="551.9" x2="541.2" y2="548.9"/>
					<line class="st52" x1="558.5" y1="533.9" x2="557.3" y2="531.2"/>
					<line class="st52" x1="555.2" y1="534.7" x2="553.5" y2="531.2"/>
					<line class="st52" x1="554.5" y1="533" x2="555.4" y2="530.8"/>
					<line class="st52" x1="551.9" y1="536.4" x2="549.8" y2="534.2"/>
					<line class="st52" x1="550.8" y1="534.9" x2="553.2" y2="530"/>
					<line class="st52" x1="551.7" y1="533" x2="551.2" y2="529.5"/>
					<line class="st52" x1="549.4" y1="538.4" x2="546.6" y2="535.7"/>
					<line class="st52" x1="547.6" y1="536.6" x2="549.3" y2="532.6"/>
					<line class="st52" x1="548.2" y1="534.6" x2="547.2" y2="532.9"/>
					<line class="st52" x1="547" y1="540.4" x2="544.4" y2="538.4"/>
					<line class="st52" x1="545.3" y1="539" x2="546" y2="536.7"/>
					<line class="st52" x1="545.1" y1="542.7" x2="542.2" y2="541.9"/>
					<line class="st52" x1="543.4" y1="542.2" x2="543.6" y2="540.2"/>
					<line class="st52" x1="542.9" y1="546.5" x2="544.1" y2="544.5"/>
					<line class="st52" x1="541.6" y1="544.6" x2="542.8" y2="544.6"/>
					<line class="st52" x1="543" y1="547.9" x2="541.5" y2="546.9"/>
					<line class="st52" x1="541.9" y1="550.2" x2="542.3" y2="549"/>
					<line class="st52" x1="540.6" y1="549.3" x2="541.8" y2="548.1"/>
					<line class="st52" x1="547.6" y1="534" x2="545.2" y2="534.2"/>
					<line class="st52" x1="545.6" y1="537.4" x2="543.6" y2="537.5"/>
					<line class="st52" x1="551.1" y1="531.6" x2="546.8" y2="531.6"/>
					<line class="st52" x1="548.9" y1="531.6" x2="550.1" y2="529.5"/>
					<line class="st52" x1="544.7" y1="540.1" x2="542.9" y2="540.1"/>
				</g>
				<g>
					<line class="st52" x1="529.1" y1="530.7" x2="530" y2="528.2"/>
					<line class="st52" x1="531.2" y1="533.9" x2="532.1" y2="530.6"/>
					<line class="st52" x1="532.5" y1="536.4" x2="533.6" y2="533.8"/>
					<line class="st52" x1="533.8" y1="539.8" x2="534.7" y2="537.6"/>
					<line class="st52" x1="534.9" y1="543.8" x2="537" y2="541.2"/>
					<line class="st52" x1="535.7" y1="548.6" x2="537.8" y2="546.2"/>
					<line class="st52" x1="529.4" y1="529.9" x2="533" y2="528.8"/>
					<line class="st52" x1="531.8" y1="529.1" x2="532.4" y2="527.2"/>
					<line class="st52" x1="531.6" y1="532.6" x2="536" y2="531.2"/>
					<line class="st52" x1="533.6" y1="532" x2="534.1" y2="530.4"/>
					<line class="st52" x1="532.8" y1="535.6" x2="537" y2="534.9"/>
					<line class="st52" x1="534.4" y1="535.2" x2="535" y2="533.8"/>
					<line class="st52" x1="534.4" y1="539.1" x2="537.3" y2="539"/>
					<line class="st52" x1="535.8" y1="539" x2="536.5" y2="537.1"/>
					<line class="st52" x1="535.7" y1="542.9" x2="537" y2="542.8"/>
					<line class="st52" x1="535.7" y1="542.5" x2="535.5" y2="540.9"/>
					<line class="st52" x1="536.5" y1="547.6" x2="536.2" y2="545.3"/>
					<line class="st52" x1="536.5" y1="544.1" x2="537.9" y2="545.3"/>
					<line class="st52" x1="536.3" y1="540.6" x2="537.8" y2="541.9"/>
					<line class="st52" x1="536" y1="536.6" x2="537.9" y2="537.9"/>
					<line class="st52" x1="535.7" y1="533.6" x2="537.9" y2="535.5"/>
					<line class="st52" x1="535.1" y1="530.4" x2="537.9" y2="532.8"/>
					<line class="st52" x1="535.2" y1="527.2" x2="537.8" y2="529.7"/>
					<line class="st52" x1="534.1" y1="528.7" x2="536.6" y2="528.9"/>
				</g>
				<g>
					<line class="st52" x1="547.1" y1="530.7" x2="546.2" y2="528.2"/>
					<line class="st52" x1="545" y1="533.9" x2="544.1" y2="530.6"/>
					<line class="st52" x1="543.7" y1="536.4" x2="542.6" y2="533.8"/>
					<line class="st52" x1="542.4" y1="539.8" x2="541.5" y2="537.6"/>
					<line class="st52" x1="541.3" y1="543.8" x2="539.2" y2="541.2"/>
					<line class="st52" x1="540.5" y1="548.6" x2="538.3" y2="546.2"/>
					<line class="st52" x1="546.8" y1="529.9" x2="543.3" y2="528.8"/>
					<line class="st52" x1="544.4" y1="529.1" x2="543.8" y2="527.2"/>
					<line class="st52" x1="544.6" y1="532.6" x2="540.2" y2="531.2"/>
					<line class="st52" x1="542.6" y1="532" x2="542.2" y2="530.4"/>
					<line class="st52" x1="543.3" y1="535.6" x2="539.2" y2="534.9"/>
					<line class="st52" x1="541.8" y1="535.2" x2="541.2" y2="533.8"/>
					<line class="st52" x1="541.9" y1="539.1" x2="538.9" y2="539"/>
					<line class="st52" x1="540.4" y1="539" x2="539.7" y2="537.1"/>
					<line class="st52" x1="540.5" y1="542.9" x2="539.2" y2="542.8"/>
					<line class="st52" x1="540.6" y1="542.5" x2="540.7" y2="540.9"/>
					<line class="st52" x1="539.6" y1="547.6" x2="540" y2="545.3"/>
					<line class="st52" x1="539.8" y1="544.1" x2="538.3" y2="545.3"/>
					<line class="st52" x1="539.9" y1="540.6" x2="538.4" y2="541.9"/>
					<line class="st52" x1="540.2" y1="536.6" x2="538.3" y2="537.9"/>
					<line class="st52" x1="540.6" y1="533.6" x2="538.3" y2="535.5"/>
					<line class="st52" x1="541.2" y1="530.4" x2="538.3" y2="532.8"/>
					<line class="st52" x1="541" y1="527.2" x2="538.2" y2="530"/>
					<line class="st52" x1="542.2" y1="528.7" x2="539.6" y2="528.9"/>
				</g>
			</g>
		</g>
	</g>
</g>
</svg>
