<?xml version="1.0" encoding="utf-8"?>
<!-- Generator: Adobe Illustrator 22.1.0, SVG Export Plug-In . SVG Version: 6.00 Build 0)  -->
<svg version="1.1" id="Layer_1" xmlns="http://www.w3.org/2000/svg" xmlns:xlink="http://www.w3.org/1999/xlink" x="0px" y="0px"
	 viewBox="0 0 300 200" style="enable-background:new 0 0 300 200;" xml:space="preserve">
<style type="text/css">
	.st0{fill:#E0E0E0;}
	.st1{opacity:0.3;fill:#6B6B6B;enable-background:new    ;}
	.st2{fill:#332326;}
	.st3{fill:#FFFFFF;}
	.st4{fill:#DB2C56;}
	.st5{fill:none;stroke:#332326;stroke-width:0.3415;stroke-linecap:round;stroke-linejoin:round;stroke-miterlimit:10;}
	.st6{fill:none;stroke:#465259;stroke-width:4.7586;stroke-miterlimit:10;}
	.st7{fill:#871924;}
	.st8{fill:none;stroke:#332326;stroke-width:0.6778;stroke-miterlimit:10;}
	.st9{fill:none;stroke:#EAEAEA;stroke-width:0.6778;stroke-miterlimit:10;}
	.st10{fill:none;stroke:#332326;stroke-width:0.2604;stroke-linecap:round;stroke-linejoin:round;stroke-miterlimit:10;}
	.st11{fill:#FFFFFF;stroke:#332326;stroke-width:0.2604;stroke-linecap:round;stroke-linejoin:round;stroke-miterlimit:10;}
	.st12{fill:none;stroke:#FFFFFF;stroke-width:0.2604;stroke-miterlimit:10;}
	.st13{fill:none;stroke:#871924;stroke-width:0.2604;stroke-miterlimit:10;}
	.st14{fill:none;stroke:#FFFFFF;stroke-width:0.2749;stroke-miterlimit:10;}
	.st15{fill:none;stroke:#332326;stroke-width:0.3928;stroke-miterlimit:10;}
	.st16{fill:none;stroke:#FFFFFF;stroke-width:0.3334;stroke-miterlimit:10;}
	.st17{fill:none;stroke:#EAEAEA;stroke-width:0.5513;stroke-miterlimit:10;stroke-dasharray:3.3076;}
	.st18{opacity:0.5;fill:#332326;enable-background:new    ;}
	.st19{fill:none;stroke:#332326;stroke-width:0.223;stroke-miterlimit:10;}
	.st20{fill:none;stroke:#465259;stroke-width:0.5157;stroke-linecap:round;stroke-miterlimit:10;}
	
		.st21{fill:none;stroke:#465259;stroke-width:0.5157;stroke-linecap:round;stroke-miterlimit:10;stroke-dasharray:0.9367,1.8734,7.4935,3.7467,1.8734,0.9367;}
	
		.st22{fill:none;stroke:#465259;stroke-width:0.5157;stroke-linecap:round;stroke-miterlimit:10;stroke-dasharray:5.1574,2.5787,1.2893,2.5787,10.3147;}
	.st23{fill:none;stroke:#465259;stroke-width:0.5157;stroke-linecap:round;stroke-miterlimit:10;stroke-dasharray:5.1574,2.5787;}
	.st24{fill:#E6BB8F;stroke:#332326;stroke-width:0.3423;stroke-linecap:round;stroke-linejoin:round;stroke-miterlimit:10;}
	.st25{fill:none;stroke:#332326;stroke-width:0.3423;stroke-linecap:round;stroke-linejoin:round;stroke-miterlimit:10;}
	.st26{fill:#FFFFFF;stroke:#332326;stroke-width:0.3423;stroke-linecap:round;stroke-linejoin:round;stroke-miterlimit:10;}
	.st27{fill:none;stroke:#E6BB8F;stroke-width:0.3376;stroke-miterlimit:10;}
	.st28{fill:none;stroke:#332326;stroke-width:0.3376;stroke-linecap:round;stroke-linejoin:round;stroke-miterlimit:10;}
	.st29{fill:none;stroke:#DB2C56;stroke-width:0.3376;stroke-miterlimit:10;}
	.st30{fill:#828282;}
	.st31{fill:none;}
	.st32{fill:#464655;}
	.st33{fill:none;stroke:#6B6B6B;stroke-width:4.6791;stroke-miterlimit:10;}
	.st34{fill:none;stroke:#332326;stroke-width:0.3181;stroke-linecap:round;stroke-linejoin:round;stroke-miterlimit:10;}
	.st35{fill:#9BD6D9;}
	.st36{fill:#9BD6DA;}
</style>
<g id="tree_1">
	<path class="st0" d="M75.3,121.1c0,1.8-1.5,3.3-3.3,3.3s-3.3-1.5-3.3-3.3s1.5-3.3,3.3-3.3S75.3,119.2,75.3,121.1z"/>
	<ellipse class="st0" cx="71.9" cy="126.9" rx="4.1" ry="4.1"/>
	<path class="st1" d="M68.4,126.4c0-1.1,0.4-2.1,1.2-2.8c-1.1,0.7-1.8,1.9-1.8,3.3c0,2.2,1.8,4,4,4c1.1,0,2.1-0.4,2.8-1.1
		c-0.6,0.4-1.4,0.7-2.2,0.7C70.2,130.4,68.4,128.6,68.4,126.4z"/>
	<path class="st1" d="M69,120.6c0-0.9,0.3-1.7,1-2.3c-0.9,0.6-1.5,1.6-1.5,2.7c0,1.8,1.5,3.3,3.3,3.3c0.9,0,1.7-0.3,2.3-0.9
		c-0.5,0.3-1.1,0.5-1.8,0.5C70.5,123.9,69,122.5,69,120.6z"/>
	<g>
		<polygon class="st2" points="71.1,134 71.9,120.5 72.7,134 		"/>
	</g>
	<g>
		<polygon class="st2" points="71.6,127.2 74.3,124.8 72.1,127.7 		"/>
	</g>
	<g>
		<polygon class="st2" points="71.7,123.4 73.6,121.6 72.1,123.8 		"/>
	</g>
	<g>
		<polygon class="st2" points="71.3,129.4 69,126.7 71.8,129 		"/>
	</g>
</g>
<g>
	<g>
		<path class="st3" d="M181.6,185.7c0,0,4.2-6.3,13.1-6.3c6.8,0,7.2,6.3,7.2,6.3H181.6z"/>
		<path class="st4" d="M194.8,179.4c-8.9,0-13.1,6.3-13.1,6.3h0.7c0,0,4-5.8,12.4-5.8c6.4,0,6.9,5.8,6.9,5.8h0.4
			C202,185.7,201.5,179.4,194.8,179.4z"/>
		<path class="st5" d="M183.4,183.7c0,0,1.9,0.8,2.6,2"/>
		<path class="st5" d="M185.3,182.3c0,0,2.7,1.1,3.7,3.4"/>
		<path class="st5" d="M187.9,180.8c0,0,3,1.5,3.7,4.9"/>
		<path class="st5" d="M191.4,179.7c0,0,2.8,2.1,2.8,5.9"/>
		<path class="st5" d="M195.6,179.4c0,0,1,2,0.9,6.3"/>
		<path class="st5" d="M198.6,180.3c0,0,0.7,2.8-0.2,5.4"/>
		<path class="st5" d="M201,182.7c0,0,0.2,1.4-0.6,2.9"/>
	</g>
	<g>
		<path class="st3" d="M162.4,185.7c0,0,4.2-11.5,13.1-11.5c6.8,0,7.2,11.5,7.2,11.5H162.4z"/>
		<path class="st4" d="M175.5,174.1c-8.9,0-13.1,11.5-13.1,11.5h0.6c0,0,4-11.1,12.5-11.1c6.4,0,6.9,11.1,6.9,11.1h0.4
			C182.8,185.7,182.3,174.1,175.5,174.1z"/>
		<path class="st5" d="M164.1,182c0,0,2,1.5,2.7,3.7"/>
		<path class="st5" d="M166,179.4c0,0,2.8,2.1,3.7,6.3"/>
		<path class="st5" d="M168.7,176.8c0,0,3.1,2.7,3.7,8.9"/>
		<path class="st5" d="M172.2,174.8c0,0,2.8,4,2.8,10.9"/>
		<path class="st5" d="M176.4,174.2c0,0,1,3.7,0.9,11.5"/>
		<path class="st5" d="M179.4,175.8c0,0,0.7,5.1-0.2,9.8"/>
		<path class="st5" d="M181.8,180.3c0,0,0.2,2.6-0.6,5.4"/>
	</g>
</g>
<path class="st6" d="M119.1-16"/>
<path class="st6" d="M16.3,16"/>
<path class="st6" d="M14.4,46.9"/>
<path class="st6" d="M51.4,14.9"/>
<g>
	<rect x="156.3" y="147.6" class="st7" width="2.5" height="1.8"/>
	<rect x="118.5" y="147.6" class="st7" width="2.5" height="1.8"/>
	<polygon class="st4" points="164.3,152.1 116.6,152.1 108,149.2 164.3,149.2 	"/>
	<polygon class="st2" points="164.3,152.1 116.6,152.1 108,149.2 164.3,150.4 	"/>
	<rect x="133.6" y="153.1" class="st0" width="12.1" height="32.3"/>
	<g>
		<line class="st8" x1="135" y1="154.6" x2="144.3" y2="154.6"/>
		<line class="st8" x1="135" y1="156.1" x2="144.3" y2="156.1"/>
		<line class="st8" x1="135" y1="157.7" x2="144.3" y2="157.7"/>
		<line class="st8" x1="135" y1="159.2" x2="144.3" y2="159.2"/>
		<line class="st8" x1="135" y1="160.8" x2="144.3" y2="160.8"/>
		<line class="st8" x1="135" y1="162.3" x2="144.3" y2="162.3"/>
		<line class="st8" x1="135" y1="163.8" x2="144.3" y2="163.8"/>
		<line class="st8" x1="135" y1="165.4" x2="144.3" y2="165.4"/>
		<line class="st8" x1="135" y1="166.9" x2="144.3" y2="166.9"/>
		<line class="st8" x1="135" y1="168.5" x2="144.3" y2="168.5"/>
		<line class="st8" x1="135" y1="170" x2="144.3" y2="170"/>
		<line class="st8" x1="135" y1="171.6" x2="144.3" y2="171.6"/>
		<line class="st8" x1="135" y1="173.1" x2="144.3" y2="173.1"/>
		<line class="st8" x1="135" y1="174.6" x2="144.3" y2="174.6"/>
		<line class="st8" x1="135" y1="176.2" x2="144.3" y2="176.2"/>
		<line class="st8" x1="135" y1="177.8" x2="144.3" y2="177.8"/>
		<line class="st8" x1="135" y1="179.3" x2="144.3" y2="179.3"/>
	</g>
	<rect x="118.5" y="153.1" class="st0" width="12.1" height="32.3"/>
	<rect x="118.5" y="153.1" class="st2" width="2.3" height="32.3"/>
	<g>
		<line class="st8" x1="122.1" y1="154.6" x2="129.2" y2="154.6"/>
		<line class="st8" x1="122.1" y1="156.1" x2="129.2" y2="156.1"/>
		<line class="st8" x1="122.1" y1="157.7" x2="129.2" y2="157.7"/>
		<line class="st8" x1="122.1" y1="159.2" x2="129.2" y2="159.2"/>
		<line class="st8" x1="122.1" y1="160.8" x2="129.2" y2="160.8"/>
		<line class="st8" x1="122.1" y1="162.3" x2="129.2" y2="162.3"/>
		<line class="st8" x1="122.1" y1="163.8" x2="129.2" y2="163.8"/>
		<line class="st8" x1="122.1" y1="165.4" x2="129.2" y2="165.4"/>
		<line class="st8" x1="122.1" y1="166.9" x2="129.2" y2="166.9"/>
		<line class="st8" x1="122.1" y1="168.5" x2="129.2" y2="168.5"/>
		<line class="st8" x1="122.1" y1="170" x2="129.2" y2="170"/>
		<line class="st8" x1="122.1" y1="171.6" x2="129.2" y2="171.6"/>
		<line class="st8" x1="122.1" y1="173.1" x2="129.2" y2="173.1"/>
		<line class="st8" x1="122.1" y1="174.6" x2="129.2" y2="174.6"/>
		<line class="st8" x1="122.1" y1="176.2" x2="129.2" y2="176.2"/>
		<line class="st8" x1="122.1" y1="177.8" x2="129.2" y2="177.8"/>
		<line class="st8" x1="122.1" y1="179.3" x2="129.2" y2="179.3"/>
	</g>
	<rect x="148.7" y="153.1" class="st0" width="12.1" height="32.3"/>
	<rect x="158.6" y="153.1" class="st2" width="2.3" height="32.3"/>
	<g>
		<line class="st8" x1="157.2" y1="154.6" x2="150.1" y2="154.6"/>
		<line class="st8" x1="157.2" y1="156.1" x2="150.1" y2="156.1"/>
		<line class="st9" x1="157.2" y1="157.7" x2="150.1" y2="157.7"/>
		<line class="st8" x1="157.2" y1="159.2" x2="150.1" y2="159.2"/>
		<line class="st8" x1="157.2" y1="160.8" x2="150.1" y2="160.8"/>
		<line class="st8" x1="157.2" y1="162.3" x2="150.1" y2="162.3"/>
		<line class="st8" x1="157.2" y1="163.8" x2="150.1" y2="163.8"/>
		<line class="st8" x1="157.2" y1="165.4" x2="150.1" y2="165.4"/>
		<line class="st8" x1="157.2" y1="166.9" x2="150.1" y2="166.9"/>
		<line class="st8" x1="157.2" y1="168.5" x2="150.1" y2="168.5"/>
		<line class="st8" x1="157.2" y1="170" x2="150.1" y2="170"/>
		<line class="st8" x1="157.2" y1="171.6" x2="150.1" y2="171.6"/>
		<line class="st8" x1="157.2" y1="173.1" x2="150.1" y2="173.1"/>
		<line class="st8" x1="157.2" y1="174.6" x2="150.1" y2="174.6"/>
		<line class="st8" x1="157.2" y1="176.2" x2="150.1" y2="176.2"/>
		<line class="st8" x1="157.2" y1="177.8" x2="150.1" y2="177.8"/>
		<line class="st8" x1="157.2" y1="179.3" x2="150.1" y2="179.3"/>
	</g>
</g>
<g id="standrew">
	<g>
		<path class="st2" d="M23.9,28.2c0,0.2-0.1,0.3-0.2,0.3c-0.1,0-0.2-0.1-0.2-0.3c0-0.2,0.1-0.3,0.2-0.3C23.8,27.9,23.9,28,23.9,28.2
			z"/>
		<path class="st4" d="M24.9,29.9c0,0.9-0.6,1.6-1.3,1.6c-0.7,0-1.3-0.7-1.3-1.6s0.6-1.6,1.3-1.6C24.3,28.3,24.9,29,24.9,29.9z"/>
		<polygon class="st0" points="42.4,60 32.6,60 32.6,47.6 37.5,44.2 42.4,47.6 		"/>
		<polygon class="st4" points="34.5,47.6 37.5,45.6 40.4,47.6 41,47.6 37.5,45.2 34,47.6 		"/>
		<polyline class="st10" points="33.9,47.6 37.5,45.1 41.1,47.6 		"/>
		<rect x="12.9" y="49" class="st0" width="21.5" height="11"/>
		<rect x="21" y="35.1" class="st0" width="5.4" height="20.5"/>
		<rect x="21.5" y="32" class="st0" width="4.4" height="4"/>
		<rect x="22.3" y="29.9" class="st0" width="2.6" height="3.4"/>
		<rect x="21" y="35.1" class="st4" width="5.4" height="0.4"/>
		<rect x="21.5" y="32" class="st4" width="4.4" height="0.4"/>
		<g>
			<rect x="22.3" y="32.8" class="st2" width="0.5" height="2"/>
			<rect x="23" y="32.8" class="st2" width="0.5" height="2"/>
			<rect x="23.8" y="32.8" class="st2" width="0.5" height="2"/>
			<rect x="24.5" y="32.8" class="st2" width="0.5" height="2"/>
		</g>
		<path class="st4" d="M22.3,35.5c0-0.7,0.6-1.3,1.3-1.3c0.7,0,1.3,0.6,1.3,1.3H22.3z"/>
		<path class="st3" d="M24.6,35.5c0,0.5-0.4,0.9-0.9,0.9c-0.5,0-0.9-0.4-0.9-0.9c0-0.5,0.4-0.9,0.9-0.9C24.1,34.6,24.6,35,24.6,35.5
			z"/>
		<path class="st4" d="M21.2,49c0-1.3,1.1-2.4,2.4-2.4c1.3,0,2.4,1.1,2.4,2.4H21.2z"/>
		<path class="st7" d="M21.6,49c0-1.1,0.9-2,2-2c1.1,0,2,0.9,2,2H21.6z"/>
		<path class="st0" d="M25.3,49c0,1-0.7,1.7-1.7,1.7c-1,0-1.7-0.7-1.7-1.7c0-1,0.7-1.7,1.7-1.7C24.6,47.3,25.3,48,25.3,49z"/>
		<path class="st2" d="M24.3,35.5c0,0.4-0.3,0.7-0.7,0.7c-0.4,0-0.7-0.3-0.7-0.7c0-0.4,0.3-0.7,0.7-0.7C24,34.9,24.3,35.1,24.3,35.5
			z"/>
		<g>
			<polyline class="st10" points="20.7,54.3 20.7,48.9 21.8,48.9 21.8,54.3 			"/>
			<polyline class="st10" points="20.7,60 20.7,55 21.8,55 21.8,60 			"/>
			<rect x="20.3" y="48.5" class="st11" width="1.8" height="0.7"/>
			<rect x="20.3" y="54.3" class="st11" width="1.8" height="0.7"/>
		</g>
		<g>
			<polyline class="st10" points="25.4,54.3 25.4,48.9 26.6,48.9 26.6,54.3 			"/>
			<polyline class="st10" points="25.4,60 25.4,55 26.6,55 26.6,60 			"/>
			<rect x="25.1" y="48.5" class="st11" width="1.8" height="0.7"/>
			<rect x="25.1" y="54.3" class="st11" width="1.8" height="0.7"/>
		</g>
		<line class="st10" x1="22.2" y1="48.9" x2="25" y2="48.9"/>
		<line class="st10" x1="22.2" y1="54.7" x2="25" y2="54.7"/>
		<line class="st10" x1="14.7" y1="54.7" x2="20.3" y2="54.7"/>
		<rect x="33.7" y="48.9" class="st4" width="7.6" height="5.9"/>
		<line class="st10" x1="27" y1="54.7" x2="32.5" y2="54.7"/>
		<line class="st10" x1="34" y1="54.7" x2="41.3" y2="54.7"/>
		<line class="st10" x1="21.8" y1="59.4" x2="25.4" y2="59.4"/>
		<path class="st2" d="M23.6,56.4c-0.5,0-0.9,0.4-0.9,0.9v2h1.8v-2C24.5,56.8,24.1,56.4,23.6,56.4z"/>
		<path class="st2" d="M35.1,56.4c-0.4,0-0.7,0.3-0.7,0.7V60h1.4v-2.9C35.8,56.7,35.5,56.4,35.1,56.4z"/>
		<path class="st2" d="M37.5,56.4c-0.4,0-0.7,0.3-0.7,0.7V60h1.4v-2.9C38.2,56.7,37.9,56.4,37.5,56.4z"/>
		<path class="st2" d="M39.8,56.4c-0.4,0-0.7,0.3-0.7,0.7V60h1.4v-2.9C40.6,56.7,40.2,56.4,39.8,56.4z"/>
		<g>
			<rect x="22.7" y="50" class="st4" width="2" height="3.8"/>
			<rect x="22.9" y="50.2" class="st2" width="1.5" height="3.3"/>
			<g>
				<line class="st12" x1="22.9" y1="50.9" x2="24.4" y2="50.9"/>
				<line class="st12" x1="22.9" y1="51.8" x2="24.4" y2="51.8"/>
				<line class="st12" x1="23.6" y1="50.2" x2="23.6" y2="53.5"/>
				<line class="st12" x1="22.9" y1="52.7" x2="24.4" y2="52.7"/>
			</g>
		</g>
		<g>
			<rect x="27.3" y="50" class="st4" width="2" height="3.8"/>
			<rect x="27.6" y="50.2" class="st2" width="1.5" height="3.3"/>
			<g>
				<line class="st12" x1="27.6" y1="50.9" x2="29.1" y2="50.9"/>
				<line class="st12" x1="27.6" y1="51.8" x2="29.1" y2="51.8"/>
				<line class="st12" x1="28.3" y1="50.2" x2="28.3" y2="53.5"/>
				<line class="st12" x1="27.6" y1="52.7" x2="29.1" y2="52.7"/>
			</g>
		</g>
		<g>
			<rect x="30" y="50" class="st4" width="2" height="3.8"/>
			<rect x="30.2" y="50.2" class="st2" width="1.5" height="3.3"/>
			<g>
				<line class="st12" x1="30.2" y1="50.9" x2="31.7" y2="50.9"/>
				<line class="st12" x1="30.2" y1="51.8" x2="31.7" y2="51.8"/>
				<line class="st12" x1="31" y1="50.2" x2="31" y2="53.5"/>
				<line class="st12" x1="30.2" y1="52.7" x2="31.7" y2="52.7"/>
			</g>
		</g>
		<g>
			<rect x="15.4" y="50" class="st4" width="2" height="3.8"/>
			<rect x="15.6" y="50.2" class="st2" width="1.5" height="3.3"/>
			<g>
				<line class="st12" x1="15.6" y1="50.9" x2="17.1" y2="50.9"/>
				<line class="st12" x1="15.6" y1="51.8" x2="17.1" y2="51.8"/>
				<line class="st12" x1="16.4" y1="50.2" x2="16.4" y2="53.5"/>
				<line class="st12" x1="15.6" y1="52.7" x2="17.1" y2="52.7"/>
			</g>
		</g>
		<g>
			<rect x="18" y="50" class="st4" width="2" height="3.8"/>
			<rect x="18.2" y="50.2" class="st2" width="1.5" height="3.3"/>
			<g>
				<line class="st12" x1="18.2" y1="50.9" x2="19.7" y2="50.9"/>
				<line class="st12" x1="18.2" y1="51.8" x2="19.7" y2="51.8"/>
				<line class="st12" x1="18.9" y1="50.2" x2="18.9" y2="53.5"/>
				<line class="st12" x1="18.2" y1="52.7" x2="19.7" y2="52.7"/>
			</g>
		</g>
		<g>
			<rect x="27.3" y="55.6" class="st4" width="2" height="3.8"/>
			<rect x="27.6" y="55.8" class="st2" width="1.5" height="3.3"/>
			<g>
				<line class="st12" x1="27.6" y1="56.6" x2="29.1" y2="56.6"/>
				<line class="st12" x1="27.6" y1="57.5" x2="29.1" y2="57.5"/>
				<line class="st12" x1="28.3" y1="55.8" x2="28.3" y2="59.1"/>
				<line class="st12" x1="27.6" y1="58.3" x2="29.1" y2="58.3"/>
			</g>
		</g>
		<g>
			<rect x="30" y="55.6" class="st4" width="2" height="3.8"/>
			<rect x="30.2" y="55.8" class="st2" width="1.5" height="3.3"/>
			<g>
				<line class="st12" x1="30.2" y1="56.6" x2="31.7" y2="56.6"/>
				<line class="st12" x1="30.2" y1="57.5" x2="31.7" y2="57.5"/>
				<line class="st12" x1="31" y1="55.8" x2="31" y2="59.1"/>
				<line class="st12" x1="30.2" y1="58.3" x2="31.7" y2="58.3"/>
			</g>
		</g>
		<g>
			<rect x="15.4" y="55.6" class="st4" width="2" height="3.8"/>
			<rect x="15.6" y="55.8" class="st2" width="1.5" height="3.3"/>
			<g>
				<line class="st12" x1="15.6" y1="56.6" x2="17.1" y2="56.6"/>
				<line class="st12" x1="15.6" y1="57.5" x2="17.1" y2="57.5"/>
				<line class="st12" x1="16.4" y1="55.8" x2="16.4" y2="59.1"/>
				<line class="st12" x1="15.6" y1="58.3" x2="17.1" y2="58.3"/>
			</g>
		</g>
		<g>
			<rect x="18" y="55.6" class="st4" width="2" height="3.8"/>
			<rect x="18.2" y="55.8" class="st2" width="1.5" height="3.3"/>
			<g>
				<line class="st12" x1="18.2" y1="56.6" x2="19.7" y2="56.6"/>
				<line class="st12" x1="18.2" y1="57.5" x2="19.7" y2="57.5"/>
				<line class="st12" x1="18.9" y1="55.8" x2="18.9" y2="59.1"/>
				<line class="st12" x1="18.2" y1="58.3" x2="19.7" y2="58.3"/>
			</g>
		</g>
		<line class="st10" x1="42.4" y1="47.6" x2="32.6" y2="47.6"/>
		<line class="st10" x1="42.4" y1="48.9" x2="32.6" y2="48.9"/>
		<g>
			<polyline class="st10" points="32.6,54.3 32.6,48.9 33.7,48.9 33.7,54.3 			"/>
			<line class="st10" x1="32.6" y1="60" x2="32.6" y2="55"/>
			<rect x="32.3" y="48.5" class="st11" width="1.8" height="0.7"/>
			<rect x="32.3" y="54.3" class="st11" width="1.8" height="0.7"/>
		</g>
		<g>
			<polyline class="st10" points="41.4,54.3 41.4,48.9 42.5,48.9 42.5,54.3 			"/>
			<rect x="41" y="48.5" class="st11" width="1.8" height="0.7"/>
			<rect x="41" y="54.3" class="st11" width="1.8" height="0.7"/>
		</g>
		<g>
			<rect x="36.9" y="48.9" class="st11" width="1.1" height="5.4"/>
			<rect x="36.6" y="48.5" class="st11" width="1.8" height="0.7"/>
			<rect x="36.6" y="54.3" class="st11" width="1.8" height="0.7"/>
		</g>
		<polygon class="st0" points="4.8,60 14.7,60 14.7,47.6 9.8,44.2 4.8,47.6 		"/>
		<polygon class="st4" points="12.7,47.6 9.8,45.6 6.8,47.6 6.3,47.6 9.8,45.2 13.3,47.6 		"/>
		<polyline class="st10" points="13.4,47.6 9.8,45.1 6.1,47.6 		"/>
		<rect x="6" y="48.9" class="st4" width="7.6" height="5.9"/>
		<line class="st10" x1="13.2" y1="54.7" x2="6" y2="54.7"/>
		<path class="st2" d="M12.1,56.4c0.4,0,0.7,0.3,0.7,0.7V60h-1.4v-2.9C11.4,56.7,11.8,56.4,12.1,56.4z"/>
		<path class="st2" d="M9.8,56.4c0.4,0,0.7,0.3,0.7,0.7V60H9.1v-2.9C9.1,56.7,9.4,56.4,9.8,56.4z"/>
		<path class="st2" d="M7.4,56.4c0.4,0,0.7,0.3,0.7,0.7V60H6.7v-2.9C6.7,56.7,7,56.4,7.4,56.4z"/>
		<line class="st10" x1="4.8" y1="47.6" x2="14.7" y2="47.6"/>
		<line class="st10" x1="4.8" y1="48.9" x2="14.7" y2="48.9"/>
		<g>
			<polyline class="st10" points="14.7,54.3 14.7,48.9 13.5,48.9 13.5,54.3 			"/>
			<line class="st10" x1="14.7" y1="60" x2="14.7" y2="55"/>
			<rect x="13.2" y="48.5" class="st11" width="1.8" height="0.7"/>
			<rect x="13.2" y="54.3" class="st11" width="1.8" height="0.7"/>
		</g>
		<g>
			<polyline class="st10" points="5.9,54.3 5.9,48.9 4.8,48.9 4.8,54.3 			"/>
			<rect x="4.4" y="48.5" class="st11" width="1.8" height="0.7"/>
			<rect x="4.4" y="54.3" class="st11" width="1.8" height="0.7"/>
		</g>
		<g>
			<rect x="9.2" y="48.9" class="st11" width="1.1" height="5.4"/>
			<rect x="8.9" y="48.5" class="st11" width="1.8" height="0.7"/>
			<rect x="8.9" y="54.3" class="st11" width="1.8" height="0.7"/>
		</g>
		<path class="st13" d="M23.1,29.8c0-0.9,0.6-1.4,0.6-1.4s0.6,0.5,0.6,1.4"/>
	</g>
</g>
<g id="banks">
	<g>
		<g>
			<rect x="244.1" y="58.6" class="st2" width="7.4" height="25.1"/>
			<rect x="244.9" y="52.4" class="st2" width="5.8" height="7.2"/>
			<rect x="246" y="49.4" class="st2" width="3.6" height="6.3"/>
			<rect x="247" y="50.9" class="st3" width="1.7" height="1.2"/>
			<rect x="247" y="49.9" class="st3" width="1.7" height="0.5"/>
			<g>
				<line class="st14" x1="245.9" y1="54.1" x2="249.7" y2="54.1"/>
				<line class="st14" x1="245.9" y1="55.1" x2="249.7" y2="55.1"/>
				<line class="st14" x1="245.9" y1="56.1" x2="249.7" y2="56.1"/>
				<line class="st14" x1="245.9" y1="57.1" x2="249.7" y2="57.1"/>
			</g>
			<g>
				<line class="st14" x1="245.4" y1="60.1" x2="250.3" y2="60.1"/>
				<line class="st14" x1="245.4" y1="61.1" x2="250.3" y2="61.1"/>
				<line class="st14" x1="245.4" y1="62.2" x2="250.3" y2="62.2"/>
				<line class="st14" x1="245.4" y1="63.3" x2="250.3" y2="63.3"/>
				<line class="st14" x1="245.4" y1="64.3" x2="250.3" y2="64.3"/>
				<line class="st14" x1="245.4" y1="65.4" x2="250.3" y2="65.4"/>
				<line class="st14" x1="245.4" y1="66.5" x2="250.3" y2="66.5"/>
				<line class="st14" x1="245.4" y1="67.5" x2="250.3" y2="67.5"/>
				<line class="st14" x1="245.4" y1="68.6" x2="250.3" y2="68.6"/>
				<line class="st14" x1="245.4" y1="69.7" x2="250.3" y2="69.7"/>
				<line class="st14" x1="245.4" y1="70.7" x2="250.3" y2="70.7"/>
				<line class="st14" x1="245.4" y1="71.8" x2="250.3" y2="71.8"/>
				<line class="st14" x1="245.4" y1="72.8" x2="250.3" y2="72.8"/>
				<line class="st14" x1="245.4" y1="73.9" x2="250.3" y2="73.9"/>
				<line class="st14" x1="245.4" y1="75" x2="250.3" y2="75"/>
				<line class="st14" x1="245.4" y1="76" x2="250.3" y2="76"/>
				<line class="st14" x1="245.4" y1="77.1" x2="250.3" y2="77.1"/>
				<line class="st14" x1="245.4" y1="78.2" x2="250.3" y2="78.2"/>
				<line class="st14" x1="245.4" y1="79.2" x2="250.3" y2="79.2"/>
				<line class="st14" x1="245.4" y1="80.3" x2="250.3" y2="80.3"/>
			</g>
		</g>
		<g>
			<rect x="253.2" y="57" class="st0" width="9.1" height="26.7"/>
			<path class="st4" d="M259.3,83.7c-0.8,0-2.3,0-3,0c0-19.3-3-26.7-3-26.7h9.1C262.3,57,259.3,64.6,259.3,83.7z"/>
			<rect x="255.2" y="58.4" class="st3" width="5.2" height="0.7"/>
			<g>
				<line class="st15" x1="254.1" y1="61.6" x2="261.4" y2="61.6"/>
				<line class="st15" x1="254.1" y1="62.6" x2="261.4" y2="62.6"/>
				<line class="st15" x1="254.1" y1="63.6" x2="261.4" y2="63.6"/>
				<line class="st15" x1="254.1" y1="64.7" x2="261.4" y2="64.7"/>
				<line class="st15" x1="254.1" y1="65.7" x2="261.4" y2="65.7"/>
				<line class="st15" x1="254.1" y1="66.7" x2="261.4" y2="66.7"/>
				<line class="st15" x1="254.1" y1="67.7" x2="261.4" y2="67.7"/>
				<line class="st15" x1="254.1" y1="68.7" x2="261.4" y2="68.7"/>
				<line class="st15" x1="254.1" y1="69.8" x2="261.4" y2="69.8"/>
				<line class="st15" x1="254.1" y1="70.8" x2="261.4" y2="70.8"/>
				<line class="st15" x1="254.1" y1="71.8" x2="261.4" y2="71.8"/>
				<line class="st15" x1="254.1" y1="72.8" x2="261.4" y2="72.8"/>
				<line class="st15" x1="254.1" y1="73.8" x2="261.4" y2="73.8"/>
				<line class="st15" x1="254.1" y1="74.8" x2="261.4" y2="74.8"/>
				<line class="st15" x1="254.1" y1="75.9" x2="261.4" y2="75.9"/>
				<line class="st15" x1="254.1" y1="76.9" x2="261.4" y2="76.9"/>
			</g>
		</g>
		<g>
			<g id="etoa9ta9qgia231_1_">
				<g id="etoa9ta9qgia232_1_">
					<path id="etoa9ta9qgia233_1_" class="st2" d="M275.4,83.7c-0.9,0-1.8,0-2.7,0c0-0.1,0-0.2,0-0.4c-0.1-1.3-0.3-2.6-0.4-3.9
						c-0.2-2.4-0.4-4.8-0.6-7.2c-0.2-3-0.4-6-0.4-9.1c-0.1-3.5-0.1-6.9,0.3-10.4c0.2-1.9,0.6-3.9,1.2-5.8c0.2-0.5,0.7-1.6,0.7-1.6
						s1.5,1.6,2.1,2.5c0.8,1.1,1.5,2.2,2.3,3.3c0.2,0.2,0.3,0.5,0.3,0.8c0,2.8,0,5.5,0,8.3c0,7.6-0.1,15.2-0.1,22.9
						c0,0.2,0,0.3,0,0.5c-0.3,0-0.5,0-0.8,0C276.6,83.7,276,83.7,275.4,83.7z"/>
				</g>
			</g>
			<polygon id="etoa9ta9qgia235_1_" class="st2" points="264.4,55.7 264.4,84 270.4,84 270.4,60.4 			"/>
			<path id="etoa9ta9qgia236_1_" class="st4" d="M270.3,60.4l-5.9,5.9c0,0,6.1,5.8,5.9,5.8"/>
			<path id="etoa9ta9qgia237_1_" class="st4" d="M270.3,72.3l-5.8,5.9c0,0,6.1,5.7,5.9,5.8"/>
		</g>
		<g>
			<g>
				<line class="st16" x1="273.7" y1="51.9" x2="277.3" y2="51.9"/>
				<line class="st16" x1="273.7" y1="53.1" x2="277.3" y2="53.1"/>
				<line class="st16" x1="273.7" y1="54.4" x2="277.3" y2="54.4"/>
				<line class="st16" x1="273.7" y1="55.6" x2="277.3" y2="55.6"/>
				<line class="st16" x1="273.7" y1="56.8" x2="277.3" y2="56.8"/>
				<line class="st16" x1="273.7" y1="58.1" x2="277.3" y2="58.1"/>
				<line class="st16" x1="273.7" y1="59.3" x2="277.3" y2="59.3"/>
				<line class="st16" x1="273.7" y1="60.6" x2="277.3" y2="60.6"/>
				<line class="st16" x1="273.7" y1="61.8" x2="277.3" y2="61.8"/>
				<line class="st16" x1="273.7" y1="63" x2="277.3" y2="63"/>
				<line class="st16" x1="273.7" y1="64.3" x2="277.3" y2="64.3"/>
				<line class="st16" x1="273.7" y1="65.5" x2="277.3" y2="65.5"/>
				<line class="st16" x1="273.7" y1="66.7" x2="277.3" y2="66.7"/>
				<line class="st16" x1="273.7" y1="68" x2="277.3" y2="68"/>
				<line class="st16" x1="273.7" y1="69.2" x2="277.3" y2="69.2"/>
				<line class="st16" x1="273.7" y1="70.5" x2="277.3" y2="70.5"/>
				<line class="st16" x1="273.7" y1="71.7" x2="277.3" y2="71.7"/>
				<line class="st16" x1="273.7" y1="73" x2="277.3" y2="73"/>
				<line class="st16" x1="273.7" y1="74.2" x2="277.3" y2="74.2"/>
				<line class="st16" x1="273.7" y1="75.4" x2="277.3" y2="75.4"/>
				<line class="st16" x1="273.7" y1="76.7" x2="277.3" y2="76.7"/>
				<line class="st16" x1="273.7" y1="77.9" x2="277.3" y2="77.9"/>
				<line class="st16" x1="273.7" y1="79.2" x2="277.3" y2="79.2"/>
				<line class="st16" x1="273.7" y1="80.4" x2="277.3" y2="80.4"/>
				<line class="st16" x1="273.7" y1="81.6" x2="277.3" y2="81.6"/>
				<line class="st16" x1="273.7" y1="82.9" x2="277.3" y2="82.9"/>
			</g>
		</g>
	</g>
</g>
<g id="artscience">
	<g>
		<rect x="123.2" y="48.5" class="st4" width="7.6" height="0.5"/>
		<g>
			<polygon class="st2" points="129.7,46.7 124.4,46.7 123.2,44.3 130.9,44.3 			"/>
			<polygon class="st0" points="129.7,46.7 124.4,46.7 123.2,48.5 130.9,48.5 			"/>
			<rect x="125.9" y="45" class="st4" width="2.2" height="0.9"/>
			<path class="st4" d="M117.3,32.6h-1c0,0-1.7,8.9,8.7,10.7l3.3-1.5C128.3,41.8,120.5,40.2,117.3,32.6z"/>
			<path class="st4" d="M131.7,28.6h1c0,0,4.9,13.5-3.5,14.9l-4.4-1.1C124.8,42.4,130.3,37.7,131.7,28.6z"/>
			<path class="st4" d="M113.8,35.3h-0.4c0,0-0.3,5.9,8.9,7.6l0.2-1.3C122.5,41.7,116.3,39.6,113.8,35.3z"/>
			<path class="st4" d="M126.9,29.7h-0.5c0,0-0.5,5.2,1.4,13.1l2.8-0.2C130.6,42.6,128.5,38.7,126.9,29.7z"/>
			<path class="st0" d="M132.7,28.6h3.7c0,0,2.7,14.4-5.6,15.9h-4.7C126.2,44.4,131.6,37.6,132.7,28.6z"/>
			<path class="st0" d="M126.3,29.7h-4.2c0,0-4.2,14.8,3.9,14.8h4.7C130.6,44.4,128,38.7,126.3,29.7z"/>
			<path class="st0" d="M116.3,32.6H114c0,0-0.3,10,10.2,11.8h3.3C127.5,44.4,120,42,116.3,32.6z"/>
			<path class="st0" d="M113.4,35.3h-1.1c0,0,1.7,7.5,11,9.1h3.3C126.6,44.4,118,42.6,113.4,35.3z"/>
		</g>
	</g>
</g>
<g id="water_lines">
	<path class="st17" d="M151.1,59.8"/>
</g>
<g id="clouds_left">
	<path class="st18" d="M189.9,32h1l0,0h0c0.2,0,0.4,0.2,0.4,0.4l0,0c0,0.2-0.2,0.4-0.4,0.4h0l0,0h-5.6c-0.2,0-0.4,0.2-0.4,0.4l0,0
		c0,0.2,0.2,0.4,0.4,0.4h4.7h0h0.3c0.2,0,0.4,0.2,0.4,0.4l0,0c0,0.2-0.2,0.4-0.4,0.4H190h0h-0.7c-0.2,0-0.4,0.2-0.4,0.4l0,0
		c0,0.2,0.2,0.4,0.4,0.4h5.1c0.2,0,0.4-0.2,0.4-0.4l0,0c0-0.2-0.2-0.4-0.4-0.4h-0.5c0,0-0.1,0-0.1,0h-0.2c-0.2,0-0.4-0.2-0.4-0.4
		l0,0c0-0.2,0.2-0.4,0.4-0.4h1.9c0.2,0,0.3-0.2,0.3-0.4l0,0c0-0.2-0.2-0.4-0.4-0.4H193l0,0h-0.2c-0.2,0-0.4-0.2-0.4-0.4l0,0
		c0-0.2,0.2-0.4,0.4-0.4l0,0c0,0,4.5,0,4.5,0c0.1,0,0.2-0.2,0.2-0.3v-0.2c0-0.1-0.2-0.3-0.3-0.3h-4.5h-0.3h-2.6
		c-0.2,0-0.3,0.1-0.3,0.3v0.1C189.5,31.8,189.7,32,189.9,32z"/>
	<path class="st18" d="M173.3,37.7h-3.5l0,0h0c-0.2,0-0.4-0.2-0.4-0.4l0,0c0-0.2,0.2-0.4,0.4-0.4l0,0l0,0h1.5c0.2,0,0.4-0.2,0.4-0.4
		l0,0c0-0.2-0.2-0.4-0.4-0.4h-0.7h0h-0.3c-0.2,0-0.4-0.2-0.4-0.4l0,0c0-0.2,0.2-0.4,0.4-0.4h0.3h0h1.5c0.2,0,0.4-0.2,0.4-0.4l0,0
		c0-0.2-0.2-0.4-0.4-0.4h-5.7c-0.2,0-0.4,0.2-0.4,0.4l0,0c0,0.2,0.2,0.4,0.4,0.4h0.5c0,0,0.1,0,0.1,0h0.2c0.2,0,0.4,0.2,0.4,0.4l0,0
		c0,0.2-0.2,0.4-0.4,0.4h-3.1c-0.2,0-0.3,0.2-0.3,0.4l0,0c0,0.2,0.2,0.4,0.4,0.4h3.6l0,0h0.2c0.2,0,0.4,0.2,0.4,0.4l0,0
		c0,0.2-0.2,0.4-0.4,0.4l0,0c-0.1,0-0.2,0.1-0.2,0.2v0.3c0,0.1,0.1,0.2,0.2,0.2h0.3h5c0.2,0,0.3-0.1,0.3-0.3V38
		C173.6,37.8,173.5,37.7,173.3,37.7z"/>
	<path class="st18" d="M206.2,39.8h-0.6c0,0,0,0,0,0h-0.3c-0.2,0-0.3-0.1-0.3-0.3l0,0c0-0.2,0.1-0.3,0.3-0.3h0.3c0,0,0,0,0,0h1.3
		c0.2,0,0.3-0.1,0.3-0.3l0,0c0-0.2-0.1-0.3-0.3-0.3h-7.7c-0.2,0-0.3,0.1-0.3,0.3l0,0c0,0.2,0.1,0.3,0.3,0.3h3.1c0,0,0.1,0,0.1,0h0.2
		c0.2,0,0.3,0.1,0.3,0.3l0,0c0,0.2-0.1,0.3-0.3,0.3h-1.7c-0.1,0-0.3,0.2-0.3,0.3l0,0c0,0.2,0.1,0.3,0.3,0.3h5.2
		c0.2,0,0.3-0.1,0.3-0.3l0,0C206.5,39.9,206.4,39.8,206.2,39.8z"/>
</g>
<g id="boat_1_">
	<rect x="252.9" y="155.2" class="st3" width="12.2" height="0.4"/>
	<polygon class="st4" points="252.9,157.1 265.1,157.1 265.1,155.6 252.9,155.6 	"/>
	<polygon class="st2" points="252.9,158.3 265.3,158.3 265.8,156.8 251,156.8 	"/>
	<rect x="253" y="152.5" class="st2" width="12.3" height="0.6"/>
	<polyline class="st19" points="265,155.2 265,154.4 253.9,154.4 253.9,155.2 	"/>
	<line class="st19" x1="265" y1="152.9" x2="265" y2="154.3"/>
	<line class="st19" x1="263.1" y1="152.9" x2="263.1" y2="155.2"/>
	<line class="st19" x1="261.2" y1="152.9" x2="261.2" y2="155.2"/>
	<line class="st19" x1="259.3" y1="152.9" x2="259.3" y2="155.2"/>
	<line class="st19" x1="255.7" y1="154.4" x2="255.7" y2="155.2"/>
	<line class="st19" x1="257.6" y1="154.4" x2="257.6" y2="155.2"/>
	<line class="st19" x1="253.9" y1="152.9" x2="253.9" y2="155.2"/>
	<g>
		<path class="st4" d="M264.7,153.4c0,0.2,0.2,0.4,0.4,0.4c0.2,0,0.4-0.2,0.4-0.4s-0.2-0.4-0.4-0.4
			C264.8,153.1,264.7,153.3,264.7,153.4z"/>
		<path class="st4" d="M262.8,153.4c0,0.2,0.2,0.4,0.4,0.4c0.2,0,0.4-0.2,0.4-0.4s-0.2-0.4-0.4-0.4S262.8,153.3,262.8,153.4z"/>
		<path class="st4" d="M260.9,153.4c0,0.2,0.2,0.4,0.4,0.4c0.2,0,0.4-0.2,0.4-0.4s-0.2-0.4-0.4-0.4
			C261,153.1,260.9,153.3,260.9,153.4z"/>
		<path class="st4" d="M259,153.4c0,0.2,0.2,0.4,0.4,0.4c0.2,0,0.4-0.2,0.4-0.4s-0.2-0.4-0.4-0.4C259.1,153.1,259,153.3,259,153.4z"
			/>
		<path class="st4" d="M257.2,153.4c0,0.2,0.2,0.4,0.4,0.4c0.2,0,0.4-0.2,0.4-0.4s-0.2-0.4-0.4-0.4
			C257.4,153.1,257.2,153.3,257.2,153.4z"/>
		<path class="st4" d="M255.3,153.4c0,0.2,0.2,0.4,0.4,0.4s0.4-0.2,0.4-0.4s-0.2-0.4-0.4-0.4S255.3,153.3,255.3,153.4z"/>
		<path class="st4" d="M253.5,153.4c0,0.2,0.2,0.4,0.4,0.4s0.4-0.2,0.4-0.4s-0.2-0.4-0.4-0.4C253.7,153.1,253.5,153.3,253.5,153.4z"
			/>
	</g>
</g>
<g>
	<g>
		<line class="st20" x1="239.8" y1="161.8" x2="242.4" y2="161.8"/>
		<line class="st21" x1="244.2" y1="161.8" x2="266.7" y2="161.8"/>
		<line class="st20" x1="270.5" y1="161.8" x2="273" y2="161.8"/>
	</g>
</g>
<line class="st22" x1="260.9" y1="134" x2="227.6" y2="134"/>
<line class="st22" x1="250.8" y1="134" x2="284" y2="134"/>
<g>
	<g>
		<line class="st20" x1="244.8" y1="164" x2="247.3" y2="164"/>
		<line class="st21" x1="249.2" y1="164" x2="271.7" y2="164"/>
		<line class="st20" x1="275.5" y1="164" x2="278" y2="164"/>
	</g>
</g>
<line class="st23" x1="249.4" y1="166.5" x2="267.8" y2="166.5"/>
<line class="st23" x1="246.3" y1="136.9" x2="260.8" y2="136.9"/>
<line class="st23" x1="262.5" y1="136.9" x2="286.3" y2="136.9"/>
<g id="merlion">
	<path class="st0" d="M256.7,101.1c0,0,0.2-1.3,1.7-1.6c0,0,0.7-1.1,4-0.3c0,0,2.9,0.7,3.5,3.3c0.6,2.6,0.9,3.6,0.9,3.6l-0.9,0.9
		l1.4,4.8c0,0-0.7,0-1.3,0l1.7,3.5c0,0-0.7,0.5-1.6,0.5c0,0,0.5,1.5,0.2,5.8c-0.3,4.2-1.7,5.6-4.7,5.6c-3.1-0.1-5.8-0.1-6.7-2
		c-0.9-1.9,0.5-4.2,0.5-6.2c0-2-0.6-3.4-1.6-5s-1.5-1.4-1.2-2s1-0.4,1.4-0.2c0,0,0.5-0.4,0.9,0.1c0,0-0.2-1.2,0.3-2.9
		c0,0-0.9,0-1-0.7s0.4-1.1,0.6-1.2l0.1-0.6l0.3,0.4c0,0,1.4,0.2,1.6-0.4c0.2-0.6,0.2-1.2-0.3-1.2c-0.5,0-1.3,0.3-1.3,0.3l-0.2,0.8
		l-0.5-0.2l-0.1,0.5c0,0-0.4-0.1-0.6-0.2s-0.7-0.7-0.6-1.7c0,0-0.6-0.6-0.2-1s0.7-0.6,1.4-0.7c0,0,0.6-0.3,1-0.4
		C255.2,102,255.7,101.4,256.7,101.1z"/>
	<path class="st24" d="M258.1,122.8c0,0-0.9,0.2-0.9-0.7c0-0.9,0.5-1.1,1.1-1S259.3,122.6,258.1,122.8z"/>
	<path class="st25" d="M253.6,106.5c0-0.1,0-0.3,0.1-0.3c0.1-0.1,1.2-0.6,1.2-0.6s0.8-0.3,1.3-0.3s0.6,0.7,0.3,1.2
		c-0.2,0.6-1.6,0.4-1.6,0.4l-0.4,0.1"/>
	<path class="st25" d="M259.6,99.4c0,0,1.1,0.7,1.1,2.3c0,2.4-2.3,5.6-2.2,10.1l7.3-0.1"/>
	<path class="st25" d="M261.3,100.9c0,0,0.5,0.9-0.2,3.7c-0.7,2.8-1.3,4.5-0.8,7.2"/>
	<path class="st25" d="M262.1,100.9c0,0,0.5,1.4,0,3.7c-0.5,2.4-0.7,5.4-0.2,7.2"/>
	<path class="st25" d="M263.1,100.9c0,0,0.8,1.7,0.5,3.7c-0.6,3.8-0.3,5.5,0.1,7.2"/>
	<path class="st25" d="M264.4,100.9c1.4,1.9,0.5,3.4,1.3,6"/>
	<path class="st25" d="M262.3,111.8l-0.1,3.5c0,0,0.8,0.5,3.6,0.4"/>
	<path class="st25" d="M258.4,99.5c0,0,2,1.1,0.9,4.2c-0.9,2.4-4.6,5.5-4.5,8.2c0,2.5,0,3.5,0,3.5l4.4-1.5v-2.1"/>
	<path class="st25" d="M256.6,114.8c0,0,0.3,0.5,0.1,1.1c0,0,0.6-0.8,1.4-0.5c0.8,0.4,0.5,1.4,0.5,1.4s0.7-0.4,1.3,0.2
		c0.7,0.6,0.1,1.5,0.1,1.5s0.8-0.2,1.1,0.7c0.2,0.9-0.7,1.3-0.7,1.3s0.8,0.4,0.5,1.3c-0.3,0.9-1.2,0.7-1.2,0.7s0.2,1-0.8,1.2
		c-0.9,0.1-1.5-0.5-1.6-1.5"/>
	<path class="st2" d="M255.8,102.7c0,0,0-0.5,0.4-0.6c0.4-0.1,0.9,0,0.9,0S256.4,102.8,255.8,102.7z"/>
	<path class="st25" d="M252.9,104.8c0,0,0.2,0.1,0.3-0.1c0.2-0.3,0.8-1,0.9-1.6"/>
	<path class="st25" d="M253.1,104.8c0,0,0.1,0.9,0.6,1.4"/>
	<polygon class="st26" points="257.1,101 258.5,99 259.1,101.4 	"/>
	<polygon class="st2" points="257.5,100.9 258.3,99.8 258.5,101.1 	"/>
	<path class="st25" d="M255,115.3c0.4,1.1,0.7,2.6,0.6,4.4"/>
	<path class="st25" d="M253.2,112.4c0,0,0.8,0.7,1.5,2.2"/>
	<path class="st25" d="M255.8,115.1c0.3,1.2,0.5,2.8,0.3,4.6"/>
	<path class="st25" d="M254.5,112.3c0,0,0.1,0.1,0.2,0.3"/>
	<path class="st25" d="M257.8,116.2c0,0-0.4,1.3-1.3,3.6"/>
	<path class="st25" d="M259.3,117.5c0,0-1.4,0.5-2.6,2.4"/>
	<path class="st25" d="M257.1,120.1c0,0,1.4-1.2,3.3-0.7"/>
	<path class="st25" d="M257.3,120.5c0.9-0.5,2.6-0.2,3,1.2"/>
	<path class="st25" d="M257.4,120.9c1.6-0.7,2.8,1.5,1.1,2.5"/>
	<g>
		<path class="st4" d="M258.7,114.7c0,0,0.2,0.6,0.8,0.5c0.4,0,0.6-0.5,0.6-0.5s0,0.8-0.7,0.8C258.8,115.5,258.7,114.7,258.7,114.7z
			"/>
		<path class="st4" d="M259.5,114.2c0,0,0.2,0.6,0.8,0.5c0.4,0,0.6-0.5,0.6-0.5s0,0.8-0.7,0.8C259.6,115,259.5,114.2,259.5,114.2z"
			/>
		<path class="st4" d="M260.5,114.7c0,0,0.2,0.6,0.8,0.5c0.4,0,0.6-0.5,0.6-0.5s0,0.8-0.7,0.8C260.6,115.5,260.5,114.7,260.5,114.7z
			"/>
	</g>
	<g>
		<path class="st4" d="M262.5,118.5c0,0,0.2,0.6,0.8,0.5c0.4,0,0.6-0.5,0.6-0.5s0,0.8-0.7,0.8C262.6,119.3,262.5,118.5,262.5,118.5z
			"/>
		<path class="st4" d="M263.3,117.9c0,0,0.2,0.6,0.8,0.5c0.4,0,0.6-0.5,0.6-0.5s0,0.8-0.7,0.8C263.4,118.7,263.3,117.9,263.3,117.9z
			"/>
		<path class="st4" d="M264.3,118.5c0,0,0.2,0.6,0.8,0.5c0.4,0,0.6-0.5,0.6-0.5s0,0.8-0.7,0.8C264.4,119.3,264.3,118.5,264.3,118.5z
			"/>
	</g>
	<g>
		<path class="st4" d="M259.5,123.6c0,0,0.2,0.6,0.8,0.5c0.4,0,0.6-0.5,0.6-0.5s0,0.8-0.7,0.8C259.6,124.4,259.5,123.6,259.5,123.6z
			"/>
		<path class="st4" d="M260.4,123c0,0,0.2,0.6,0.8,0.5c0.4,0,0.6-0.5,0.6-0.5s0,0.8-0.7,0.8C260.5,123.8,260.4,123,260.4,123z"/>
		<path class="st4" d="M261.4,123.6c0,0,0.2,0.6,0.8,0.5c0.4,0,0.6-0.5,0.6-0.5s0,0.8-0.7,0.8C261.5,124.4,261.4,123.6,261.4,123.6z
			"/>
	</g>
	<g>
		<path class="st4" d="M255.3,124.6c0,0,0.2,0.5,0.7,0.5c0.4,0,0.6-0.5,0.6-0.5s0,0.7-0.6,0.7C255.3,125.3,255.3,124.6,255.3,124.6z
			"/>
		<path class="st4" d="M256,124.1c0,0,0.2,0.5,0.7,0.5c0.4,0,0.6-0.5,0.6-0.5s0,0.7-0.6,0.7C256.1,124.8,256,124.1,256,124.1z"/>
		<path class="st4" d="M256.9,124.6c0,0,0.2,0.5,0.7,0.5c0.4,0,0.6-0.5,0.6-0.5s0,0.7-0.6,0.7C257,125.3,256.9,124.6,256.9,124.6z"
			/>
	</g>
	<g>
		<path class="st4" d="M262.5,116.8c0,0,0.2,0.6,0.8,0.5c0.4,0,0.6-0.5,0.6-0.5s0,0.8-0.7,0.8C262.6,117.6,262.5,116.8,262.5,116.8z
			"/>
		<path class="st4" d="M261.4,116.3c0,0,0.2,0.6,0.8,0.5c0.4,0,0.6-0.5,0.6-0.5s0,0.8-0.7,0.8C261.5,117.1,261.4,116.3,261.4,116.3z
			"/>
	</g>
	<g>
		<path class="st4" d="M260.5,113.5c0,0,0.2,0.6,0.8,0.5c0.4,0,0.6-0.5,0.6-0.5s0,0.8-0.7,0.8C260.5,114.3,260.5,113.5,260.5,113.5z
			"/>
		<path class="st4" d="M259.4,113c0,0,0.2,0.6,0.8,0.5c0.4,0,0.6-0.5,0.6-0.5s0,0.8-0.7,0.8C259.5,113.8,259.4,113,259.4,113z"/>
	</g>
	<g>
		<path class="st4" d="M262.6,121.1c0,0,0.2,0.6,0.8,0.5c0.4,0,0.6-0.5,0.6-0.5s0,0.8-0.7,0.8C262.7,121.9,262.6,121.1,262.6,121.1z
			"/>
		<path class="st4" d="M261.5,120.5c0,0,0.2,0.6,0.8,0.5c0.4,0,0.6-0.5,0.6-0.5s0,0.8-0.7,0.8C261.6,121.3,261.5,120.5,261.5,120.5z
			"/>
	</g>
	<g>
		<path class="st4" d="M262.9,125.3c0,0,0.2,0.6,0.8,0.5c0.4,0,0.6-0.5,0.6-0.5s0,0.8-0.7,0.8C262.9,126.1,262.9,125.3,262.9,125.3z
			"/>
		<path class="st4" d="M261.8,124.8c0,0,0.2,0.6,0.8,0.5c0.4,0,0.6-0.5,0.6-0.5s0,0.8-0.7,0.8C261.9,125.6,261.8,124.8,261.8,124.8z
			"/>
	</g>
	<g>
		<path class="st4" d="M255.8,122.1c0,0,0.2,0.4,0.6,0.4c0.3,0,0.5-0.4,0.5-0.4s0,0.6-0.5,0.6C255.8,122.7,255.8,122.1,255.8,122.1z
			"/>
		<path class="st4" d="M255,121.7c0,0,0.2,0.4,0.6,0.4c0.3,0,0.5-0.4,0.5-0.4s0,0.6-0.5,0.6C255,122.4,255,121.7,255,121.7z"/>
	</g>
	<g>
		<path class="st4" d="M245.6,130.1c0,0,1.7-2.9,5.4-3.6c3.6-0.8,5.5,0.6,9.6,0.6c4.1,0,5.7-2,9.2-1.5c3.5,0.6,5.8,4.4,5.8,4.4
			L245.6,130.1z"/>
		<path class="st25" d="M274.4,129.9c-0.7-1.2-2.3-3-4.8-3.4c-3.3-0.5-5.1,1.3-9,1.3c-3.9,0-5.9-1.2-9.3-0.5
			c-2.4,0.5-3.7,1.9-4.4,2.7"/>
		<path class="st25" d="M273.3,129.9c-1-1.2-2.1-2.1-4-2.3c-3.2-0.4-5.1,1-8.8,1c-3.7,0-5.2-1-8.5-0.4c-1.8,0.3-2.8,1-3.6,1.8"/>
		<path class="st25" d="M271.9,129.9c-0.5-0.6-2-1.6-3.8-1.5c-2.9,0.1-4.1,1-7.4,1c-4.1,0-4.7-0.7-7.7-0.4c-1.6,0.1-2.5,0.7-2.9,1"
			/>
	</g>
</g>
<g>
	<line class="st27" x1="24.2" y1="92.9" x2="24.2" y2="125.9"/>
	<line class="st27" x1="19.9" y1="93.5" x2="28.4" y2="125.3"/>
	<line class="st27" x1="16" y1="95.2" x2="32.4" y2="123.7"/>
	<line class="st27" x1="12.5" y1="97.8" x2="35.8" y2="121"/>
	<line class="st27" x1="9.9" y1="101.2" x2="38.4" y2="117.6"/>
	<line class="st27" x1="8.3" y1="105.1" x2="40.1" y2="113.6"/>
	<line class="st27" x1="7.7" y1="109.4" x2="40.6" y2="109.4"/>
	<line class="st27" x1="8.3" y1="113.6" x2="40.1" y2="105.1"/>
	<line class="st27" x1="9.9" y1="117.6" x2="38.4" y2="101.2"/>
	<line class="st27" x1="12.5" y1="121" x2="35.8" y2="97.8"/>
	<line class="st27" x1="16" y1="123.7" x2="32.4" y2="95.2"/>
	<line class="st27" x1="19.9" y1="125.3" x2="28.4" y2="93.5"/>
</g>
<path class="st4" d="M26,109.4c0,1-0.8,1.8-1.8,1.8c-1,0-1.8-0.8-1.8-1.8c0-1,0.8-1.8,1.8-1.8C25.2,107.6,26,108.4,26,109.4z"/>
<path class="st2" d="M25,109.4c0,0.5-0.4,0.8-0.8,0.8s-0.8-0.4-0.8-0.8c0-0.5,0.4-0.8,0.8-0.8C24.6,108.6,25,108.9,25,109.4z"/>
<path class="st28" d="M41.2,109.4c0,9.4-7.6,17-17,17s-17-7.6-17-17s7.6-17,17-17S41.2,100,41.2,109.4z"/>
<path class="st28" d="M39.3,109.4c0,8.4-6.8,15.2-15.2,15.2S9,117.8,9,109.4s6.8-15.2,15.2-15.2S39.3,101,39.3,109.4z"/>
<path class="st29" d="M38.2,109.4c0,7.7-6.3,14.1-14.1,14.1s-14.1-6.3-14.1-14.1s6.3-14.1,14.1-14.1
	C31.9,95.4,38.2,101.6,38.2,109.4z"/>
<polyline class="st28" points="29.1,133.5 24.2,109.4 19.3,133.5 "/>
<g>
	<g>
		<path class="st2" d="M24.9,91.7c0,0.4-0.3,0.7-0.7,0.7c-0.4,0-0.7-0.3-0.7-0.7c0-0.4,0.3-0.7,0.7-0.7C24.5,91,24.9,91.3,24.9,91.7
			z"/>
		<path class="st2" d="M24.9,127.1c0,0.4-0.3,0.7-0.7,0.7c-0.4,0-0.7-0.3-0.7-0.7c0-0.4,0.3-0.7,0.7-0.7
			C24.5,126.4,24.9,126.7,24.9,127.1z"/>
	</g>
	<g>
		<path class="st2" d="M20.2,92.1c0.1,0.4-0.1,0.7-0.5,0.8s-0.7-0.1-0.8-0.5c-0.1-0.4,0.1-0.7,0.5-0.8S20.1,91.7,20.2,92.1z"/>
		<path class="st2" d="M29.4,126.3c0.1,0.4-0.1,0.7-0.5,0.8s-0.7-0.1-0.8-0.5s0.1-0.7,0.5-0.8C28.9,125.7,29.3,126,29.4,126.3z"/>
	</g>
	<g>
		<path class="st2" d="M15.9,93.7c0.2,0.3,0.1,0.8-0.3,0.9c-0.3,0.2-0.8,0.1-0.9-0.3c-0.2-0.3-0.1-0.8,0.3-0.9
			C15.3,93.3,15.7,93.4,15.9,93.7z"/>
		<path class="st2" d="M33.6,124.4c0.2,0.3,0.1,0.8-0.3,0.9c-0.3,0.2-0.8,0.1-0.9-0.3c-0.2-0.3-0.1-0.8,0.3-0.9
			C33,123.9,33.4,124.1,33.6,124.4z"/>
	</g>
	<g>
		<path class="st2" d="M12.1,96.4c0.3,0.3,0.3,0.7,0,1c-0.3,0.3-0.7,0.3-1,0c-0.3-0.3-0.3-0.7,0-1C11.4,96.1,11.9,96.1,12.1,96.4z"
			/>
		<path class="st2" d="M37.2,121.4c0.3,0.3,0.3,0.7,0,1c-0.3,0.3-0.7,0.3-1,0c-0.3-0.3-0.3-0.7,0-1
			C36.5,121.2,36.9,121.2,37.2,121.4z"/>
	</g>
	<g>
		<path class="st2" d="M9.2,100c0.3,0.2,0.4,0.6,0.3,0.9c-0.2,0.3-0.6,0.4-0.9,0.3c-0.3-0.2-0.4-0.6-0.3-0.9
			C8.4,99.9,8.9,99.8,9.2,100z"/>
		<path class="st2" d="M39.9,117.6c0.3,0.2,0.4,0.6,0.3,0.9c-0.2,0.3-0.6,0.4-0.9,0.3c-0.3-0.2-0.4-0.6-0.3-0.9
			C39.1,117.6,39.5,117.5,39.9,117.6z"/>
	</g>
	<g>
		<path class="st2" d="M7.2,104.1c0.4,0.1,0.6,0.5,0.5,0.8c-0.1,0.4-0.5,0.6-0.8,0.5c-0.4-0.1-0.6-0.5-0.5-0.8
			C6.5,104.3,6.9,104,7.2,104.1z"/>
		<path class="st2" d="M41.4,113.3c0.4,0.1,0.6,0.5,0.5,0.8c-0.1,0.4-0.5,0.6-0.8,0.5c-0.4-0.1-0.6-0.5-0.5-0.8
			C40.7,113.4,41.1,113.2,41.4,113.3z"/>
	</g>
	<g>
		<path class="st2" d="M6.5,108.7c0.4,0,0.7,0.3,0.7,0.7c0,0.4-0.3,0.7-0.7,0.7c-0.4,0-0.7-0.3-0.7-0.7C5.7,109,6.1,108.7,6.5,108.7
			z"/>
		<path class="st2" d="M41.9,108.7c0.4,0,0.7,0.3,0.7,0.7c0,0.4-0.3,0.7-0.7,0.7c-0.4,0-0.7-0.3-0.7-0.7
			C41.2,109,41.5,108.7,41.9,108.7z"/>
	</g>
	<g>
		<path class="st2" d="M6.9,113.3c0.4-0.1,0.7,0.1,0.8,0.5c0.1,0.4-0.1,0.7-0.5,0.8c-0.4,0.1-0.7-0.1-0.8-0.5
			C6.3,113.8,6.5,113.4,6.9,113.3z"/>
		<path class="st2" d="M41.1,104.1c0.4-0.1,0.7,0.1,0.8,0.5s-0.1,0.7-0.5,0.8c-0.4,0.1-0.7-0.1-0.8-0.5
			C40.5,104.6,40.7,104.3,41.1,104.1z"/>
	</g>
	<g>
		<path class="st2" d="M8.5,117.6c0.3-0.2,0.8-0.1,0.9,0.3c0.2,0.3,0.1,0.8-0.3,0.9c-0.3,0.2-0.8,0.1-0.9-0.3
			C8,118.3,8.1,117.8,8.5,117.6z"/>
		<path class="st2" d="M39.1,100c0.3-0.2,0.8-0.1,0.9,0.3c0.2,0.3,0.1,0.8-0.3,0.9c-0.3,0.2-0.8,0.1-0.9-0.3
			C38.7,100.6,38.8,100.1,39.1,100z"/>
	</g>
	<g>
		<path class="st2" d="M11.2,121.4c0.3-0.3,0.7-0.3,1,0c0.3,0.3,0.3,0.7,0,1c-0.3,0.3-0.7,0.3-1,0C10.9,122.1,10.9,121.7,11.2,121.4
			z"/>
		<path class="st2" d="M36.2,96.4c0.3-0.3,0.7-0.3,1,0c0.3,0.3,0.3,0.7,0,1c-0.3,0.3-0.7,0.3-1,0C35.9,97.1,35.9,96.6,36.2,96.4z"/>
	</g>
	<g>
		<path class="st2" d="M14.7,124.4c0.2-0.3,0.6-0.4,0.9-0.3c0.3,0.2,0.4,0.6,0.3,0.9c-0.2,0.3-0.6,0.4-0.9,0.3
			C14.6,125.1,14.5,124.7,14.7,124.4z"/>
		<path class="st2" d="M32.4,93.7c0.2-0.3,0.6-0.4,0.9-0.3c0.3,0.2,0.4,0.6,0.3,0.9c-0.2,0.3-0.6,0.4-0.9,0.3
			C32.3,94.5,32.2,94,32.4,93.7z"/>
	</g>
	<g>
		<path class="st2" d="M18.9,126.3c0.1-0.4,0.5-0.6,0.8-0.5c0.4,0.1,0.6,0.5,0.5,0.8c-0.1,0.4-0.5,0.6-0.8,0.5
			C19,127.1,18.8,126.7,18.9,126.3z"/>
		<path class="st2" d="M28.1,92.1c0.1-0.4,0.5-0.6,0.8-0.5s0.6,0.5,0.5,0.8s-0.5,0.6-0.8,0.5C28.2,92.9,28,92.5,28.1,92.1z"/>
	</g>
</g>
<rect x="18.6" y="131.7" class="st0" width="11.9" height="2.2"/>
<rect x="24.6" y="134.9" class="st2" width="11.9" height="0.6"/>
<g id="tree_2">
	<path class="st30" d="M59.7,125.8c0.1-1.1,0.5-2.1,1.3-2.8c-1.1,0.6-1.9,1.9-1.9,3.2c-0.1,2.2,1.6,4.1,3.8,4.1
		c1.1,0.1,2.1-0.4,2.8-1c-0.6,0.4-1.4,0.6-2.3,0.6C61.4,129.8,59.7,128,59.7,125.8z"/>
	<g>
		<line class="st31" x1="62.8" y1="134" x2="63.2" y2="124.5"/>
		<polygon class="st32" points="62.2,134 63.2,124.5 63.4,134 		"/>
	</g>
	<g>
		<line class="st31" x1="63.1" y1="126.6" x2="64.3" y2="125.3"/>
		<polygon class="st32" points="63,126.5 64.3,125.3 63.2,126.7 		"/>
	</g>
	<g>
		<line class="st31" x1="63" y1="129.2" x2="60.8" y2="126.6"/>
		<polygon class="st32" points="62.7,129.4 60.8,126.6 63.2,129 		"/>
	</g>
	<g>
		<line class="st31" x1="63" y1="129.6" x2="65.5" y2="127.5"/>
		<polygon class="st32" points="62.8,129.4 65.5,127.5 63.1,129.7 		"/>
	</g>
</g>
<g id="palne">
	<g id="surface1_1_">
		<path class="st2" d="M200.5,34l0.8,0.7l-0.2,0.1c-0.1,0-0.1,0.1-0.1,0.1l0.1,0.7c0,0,0,0.1,0.1,0.1c0,0,0.1,0,0.1,0l2.4-0.4
			l0.1-0.3l0.2-0.4c0-0.1,0.1-0.1,0.1-0.1c0,0,0.1,0.1,0.1,0.1c0,0,0,0,0,0.1l-1,2.7c0,0.1,0.1,0.1,0.2,0.1c0.1,0,0.2-0.1,0.3-0.2
			l1.9-2.8l0.1-0.1c0-0.1,0.1-0.1,0.1,0c0.1,0,0.1,0.1,0,0.1l0,0l-0.2,0.3l-0.2,0.3l1.8-0.3c0.5-0.1,0.9-0.5,0.9-0.9
			c0-0.2-0.2-0.4-0.4-0.5c-0.2-0.1-0.4-0.1-0.7-0.1l-2.1,0.4l-1.7-1.4c-0.2-0.2-0.4-0.2-0.6-0.2c-0.1,0.1-0.2,0.2-0.3,0.4
			c0,0,0,0.1,0,0.1l1,1.4l-0.9,0.2l-1.2-0.7c-0.1,0-0.1,0-0.1,0l-0.5,0.5C200.4,33.8,200.4,33.9,200.5,34
			C200.5,34,200.5,34,200.5,34z"/>
	</g>
</g>
<g>
	<path class="st33" d="M300,117.2h-11.3c0,0-6.1,0.3-6.1-6.1c0-6.3,0-14.7,0-19.9s-5.1-5.1-5.1-5.1h-38.6"/>
	<g>
		<path class="st33" d="M0.8,136.2l106.9-0.1l86.9-0.1c0,0,9.2,0.6,9.2-10.1s7.2-10.1,7.2-10.1h12.5c0,0,15.4,1.9,15.4-10.6
			s-0.6-42.5-0.6-42.5s-0.7-11.4-17.5-11.4s-5.4,0-5.4,0H110.8c0,0-14.7-0.7-14.7,14.7s15.9,15.9,15.9,15.9h22.5
			c0,0,17.4,0.9,17.4-17.4c0-11.4,0-27.8,0-35.9l-0.2-30.3"/>
		<path class="st33" d="M1.2,62.8H38c0,0,17-1.4,17,17s0,31.4,0,31.4v25.2"/>
	</g>
</g>
<g id="tree_1_1_">
	<path class="st0" d="M289.5,102.6c1.4,0,2.5,1.1,2.5,2.5s-1.1,2.5-2.5,2.5c-1.4,0-2.5-1.1-2.5-2.5S288.1,102.6,289.5,102.6z"/>
	<ellipse class="st0" cx="289.5" cy="109.4" rx="3.1" ry="3.1"/>
	<path class="st1" d="M289,112.1c-0.6,0-1.2-0.2-1.7-0.5c0.5,0.5,1.3,0.9,2.1,0.9c1.7,0,3-1.4,3-3c0-1.1-0.5-2-1.4-2.5
		c0.6,0.6,0.9,1.3,0.9,2.1C292.1,110.7,290.7,112.1,289,112.1z"/>
	<path class="st1" d="M289.1,107.2c-0.5,0-1-0.2-1.4-0.4c0.5,0.5,1.1,0.7,1.8,0.7c1.4,0,2.5-1.1,2.5-2.5c0-0.9-0.5-1.6-1.1-2.1
		c0.5,0.5,0.8,1.1,0.8,1.8C291.6,106.1,290.5,107.2,289.1,107.2z"/>
	<g>
		<polygon class="st2" points="288.9,114.8 289.5,104.7 290.1,114.8 		"/>
	</g>
	<g>
		<polygon class="st2" points="289.3,110 287.7,107.9 289.7,109.7 		"/>
	</g>
	<g>
		<polygon class="st2" points="289.3,107.1 288.2,105.5 289.6,106.8 		"/>
	</g>
	<g>
		<polygon class="st2" points="289.6,111 291.7,109.3 289.9,111.3 		"/>
	</g>
</g>
<g id="tree_2_1_">
	<path class="st30" d="M295.7,111.7c-0.6,0-1.2-0.2-1.7-0.4c0.5,0.5,1.3,0.8,2.1,0.8c1.7-0.1,2.9-1.5,2.9-3.1c0-1-0.6-1.9-1.4-2.4
		c0.6,0.5,0.9,1.3,1,2.1C298.6,110.3,297.4,111.7,295.7,111.7z"/>
	<g>
		<line class="st31" x1="296" y1="107.6" x2="296.3" y2="114.8"/>
		<polygon class="st32" points="295.9,114.8 296,107.6 296.7,114.8 		"/>
	</g>
	<g>
		<line class="st31" x1="295.1" y1="108.3" x2="296.1" y2="109.2"/>
		<polygon class="st32" points="296,109.3 295.1,108.3 296.2,109.1 		"/>
	</g>
	<g>
		<line class="st31" x1="297.7" y1="109.3" x2="296.2" y2="111.2"/>
		<polygon class="st32" points="296,111 297.7,109.3 296.3,111.3 		"/>
	</g>
	<g>
		<line class="st31" x1="294.3" y1="109.9" x2="296.2" y2="111.5"/>
		<polygon class="st32" points="296.1,111.6 294.3,109.9 296.2,111.3 		"/>
	</g>
</g>
<g>
	<g>
		<path class="st4" d="M104,164.1c0,0-1.4-1.7,3.2-1.7c4.5,0,3.2,1.7,3.2,1.7s-2.2,1.3-2.2,8.5c0,7.2,1.1,11.9,1.1,11.9h-4.5
			c0,0,1.2-3.7,1.2-11.9C106.2,164.4,104,164.1,104,164.1z"/>
		<path class="st3" d="M106,164.2c0,0-0.5-1.7,1.3-1.7c1.8,0,1.3,1.7,1.3,1.7s-0.8,1.3-0.8,8.5c0,7.2,0.4,11.8,0.4,11.8h-1.8
			c0,0,0.5-3.7,0.5-11.9S106,164.2,106,164.2z"/>
		<g>
			<path class="st34" d="M106,184.5c0,0,0.5-7.5,0.5-14.1c0-8.2-3.3-11.2-3.3-11.2"/>
			<path class="st34" d="M108.5,184.5c0,0-0.5-7.5-0.5-14.1c0-8.2,3.3-11.2,3.3-11.2"/>
		</g>
		<g>
			<path class="st34" d="M104.5,184.5c0,0,1.2-7.4,1.2-13.9c0-8.1-7.6-9.8-7.6-9.8"/>
			<path class="st34" d="M110,184.5c0,0-1.2-7.4-1.2-13.9c0-8.1,7.6-9.8,7.6-9.8"/>
		</g>
		<line class="st34" x1="107.3" y1="184.5" x2="107.3" y2="158.5"/>
		<g>
			<line class="st34" x1="99.2" y1="161.1" x2="98.8" y2="160.1"/>
			<line class="st34" x1="100.6" y1="161.7" x2="100.1" y2="160.4"/>
			<line class="st34" x1="101.8" y1="162.4" x2="101.5" y2="161.2"/>
			<line class="st34" x1="102.8" y1="163.2" x2="102.7" y2="161.9"/>
			<line class="st34" x1="103.7" y1="164.1" x2="103.7" y2="162.9"/>
			<line class="st34" x1="104.4" y1="165.3" x2="104.5" y2="163.9"/>
			<line class="st34" x1="105.2" y1="166.7" x2="105.6" y2="165.2"/>
			<line class="st34" x1="105.5" y1="168" x2="106.1" y2="166.8"/>
			<line class="st34" x1="99.1" y1="160.8" x2="99.6" y2="159.8"/>
			<line class="st34" x1="100.4" y1="161.2" x2="101.1" y2="159.7"/>
			<line class="st34" x1="100.7" y1="160.5" x2="100.4" y2="159.6"/>
			<line class="st34" x1="101.8" y1="161.9" x2="102.6" y2="160.9"/>
			<line class="st34" x1="102.2" y1="161.2" x2="101.2" y2="159.3"/>
			<line class="st34" x1="101.8" y1="160.5" x2="102" y2="159"/>
			<line class="st34" x1="102.8" y1="162.6" x2="103.9" y2="161.5"/>
			<line class="st34" x1="103.5" y1="161.9" x2="102.8" y2="160.3"/>
			<line class="st34" x1="103.2" y1="161.1" x2="103.6" y2="160.4"/>
			<line class="st34" x1="103.7" y1="163.4" x2="104.8" y2="162.7"/>
			<line class="st34" x1="104.4" y1="162.9" x2="104.1" y2="161.9"/>
			<line class="st34" x1="104.5" y1="164.4" x2="105.7" y2="164"/>
			<line class="st34" x1="105.1" y1="164.2" x2="105.1" y2="163.3"/>
			<line class="st34" x1="105.3" y1="165.9" x2="104.9" y2="165.1"/>
			<line class="st34" x1="105.9" y1="165.1" x2="105.4" y2="165.1"/>
			<line class="st34" x1="105.3" y1="166.4" x2="105.9" y2="166.1"/>
			<line class="st34" x1="105.8" y1="167.4" x2="105.6" y2="166.9"/>
			<line class="st34" x1="106.3" y1="167" x2="105.8" y2="166.5"/>
			<line class="st34" x1="103.5" y1="160.9" x2="104.4" y2="160.9"/>
			<line class="st34" x1="104.3" y1="162.2" x2="105.1" y2="162.3"/>
			<line class="st34" x1="102" y1="159.9" x2="103.8" y2="159.9"/>
			<line class="st34" x1="102.9" y1="159.9" x2="102.5" y2="159.1"/>
			<line class="st34" x1="104.6" y1="163.3" x2="105.4" y2="163.3"/>
		</g>
		<g>
			<line class="st34" x1="115.3" y1="161.1" x2="115.7" y2="160.1"/>
			<line class="st34" x1="114" y1="161.7" x2="114.4" y2="160.4"/>
			<line class="st34" x1="112.8" y1="162.4" x2="113" y2="161.2"/>
			<line class="st34" x1="111.8" y1="163.2" x2="111.9" y2="161.9"/>
			<line class="st34" x1="110.9" y1="164.1" x2="110.9" y2="162.9"/>
			<line class="st34" x1="110.2" y1="165.3" x2="110.1" y2="163.9"/>
			<line class="st34" x1="109.4" y1="166.7" x2="109" y2="165.2"/>
			<line class="st34" x1="109" y1="168" x2="108.5" y2="166.8"/>
			<line class="st34" x1="115.4" y1="160.8" x2="115" y2="159.8"/>
			<line class="st34" x1="114.2" y1="161.2" x2="113.5" y2="159.7"/>
			<line class="st34" x1="113.9" y1="160.5" x2="114.2" y2="159.6"/>
			<line class="st34" x1="112.8" y1="161.9" x2="112" y2="160.9"/>
			<line class="st34" x1="112.4" y1="161.2" x2="113.3" y2="159.3"/>
			<line class="st34" x1="112.7" y1="160.5" x2="112.5" y2="159"/>
			<line class="st34" x1="111.8" y1="162.6" x2="110.7" y2="161.5"/>
			<line class="st34" x1="111.1" y1="161.9" x2="111.8" y2="160.3"/>
			<line class="st34" x1="111.3" y1="161.1" x2="110.9" y2="160.4"/>
			<line class="st34" x1="110.9" y1="163.4" x2="109.8" y2="162.7"/>
			<line class="st34" x1="110.2" y1="162.9" x2="110.5" y2="161.9"/>
			<line class="st34" x1="110.1" y1="164.4" x2="108.9" y2="164"/>
			<line class="st34" x1="109.4" y1="164.2" x2="109.5" y2="163.3"/>
			<line class="st34" x1="109.2" y1="165.9" x2="109.7" y2="165.1"/>
			<line class="st34" x1="108.7" y1="165.1" x2="109.2" y2="165.1"/>
			<line class="st34" x1="109.3" y1="166.4" x2="108.6" y2="166.1"/>
			<line class="st34" x1="108.8" y1="167.4" x2="109" y2="166.9"/>
			<line class="st34" x1="108.3" y1="167" x2="108.8" y2="166.5"/>
			<line class="st34" x1="111.1" y1="160.9" x2="110.2" y2="160.9"/>
			<line class="st34" x1="110.3" y1="162.2" x2="109.5" y2="162.3"/>
			<line class="st34" x1="112.5" y1="159.9" x2="110.8" y2="159.9"/>
			<line class="st34" x1="111.6" y1="159.9" x2="112.1" y2="159.1"/>
			<line class="st34" x1="109.9" y1="163.3" x2="109.2" y2="163.3"/>
		</g>
		<g>
			<line class="st34" x1="103.7" y1="159.6" x2="104" y2="158.6"/>
			<line class="st34" x1="104.5" y1="160.8" x2="104.9" y2="159.5"/>
			<line class="st34" x1="105" y1="161.8" x2="105.5" y2="160.8"/>
			<line class="st34" x1="105.5" y1="163.2" x2="105.9" y2="162.3"/>
			<line class="st34" x1="106" y1="164.8" x2="106.8" y2="163.8"/>
			<line class="st34" x1="106.3" y1="166.7" x2="107.2" y2="165.8"/>
			<line class="st34" x1="103.8" y1="159.2" x2="105.2" y2="158.8"/>
			<line class="st34" x1="104.7" y1="158.9" x2="105" y2="158.1"/>
			<line class="st34" x1="104.7" y1="160.3" x2="106.4" y2="159.8"/>
			<line class="st34" x1="105.5" y1="160.1" x2="105.7" y2="159.4"/>
			<line class="st34" x1="105.2" y1="161.5" x2="106.8" y2="161.2"/>
			<line class="st34" x1="105.8" y1="161.3" x2="106" y2="160.8"/>
			<line class="st34" x1="105.8" y1="162.9" x2="106.9" y2="162.9"/>
			<line class="st34" x1="106.4" y1="162.9" x2="106.7" y2="162.1"/>
			<line class="st34" x1="106.3" y1="164.4" x2="106.9" y2="164.4"/>
			<line class="st34" x1="106.3" y1="164.3" x2="106.3" y2="163.6"/>
			<line class="st34" x1="106.7" y1="166.3" x2="106.5" y2="165.4"/>
			<line class="st34" x1="106.6" y1="164.9" x2="107.2" y2="165.4"/>
			<line class="st34" x1="106.6" y1="163.5" x2="107.2" y2="164"/>
			<line class="st34" x1="106.4" y1="161.9" x2="107.2" y2="162.5"/>
			<line class="st34" x1="106.3" y1="160.7" x2="107.2" y2="161.5"/>
			<line class="st34" x1="106.1" y1="159.4" x2="107.2" y2="160.4"/>
			<line class="st34" x1="106.1" y1="158.2" x2="107.1" y2="159.2"/>
			<line class="st34" x1="105.7" y1="158.7" x2="106.7" y2="158.8"/>
		</g>
		<g>
			<line class="st34" x1="110.9" y1="159.6" x2="110.5" y2="158.6"/>
			<line class="st34" x1="110.1" y1="160.8" x2="109.7" y2="159.5"/>
			<line class="st34" x1="109.5" y1="161.8" x2="109.1" y2="160.8"/>
			<line class="st34" x1="109" y1="163.2" x2="108.6" y2="162.3"/>
			<line class="st34" x1="108.6" y1="164.8" x2="107.7" y2="163.8"/>
			<line class="st34" x1="108.2" y1="166.7" x2="107.4" y2="165.8"/>
			<line class="st34" x1="110.8" y1="159.2" x2="109.3" y2="158.8"/>
			<line class="st34" x1="109.8" y1="158.9" x2="109.6" y2="158.1"/>
			<line class="st34" x1="109.9" y1="160.3" x2="108.1" y2="159.8"/>
			<line class="st34" x1="109.1" y1="160.1" x2="108.9" y2="159.4"/>
			<line class="st34" x1="109.4" y1="161.5" x2="107.7" y2="161.2"/>
			<line class="st34" x1="108.7" y1="161.3" x2="108.5" y2="160.8"/>
			<line class="st34" x1="108.8" y1="162.9" x2="107.6" y2="162.9"/>
			<line class="st34" x1="108.2" y1="162.9" x2="107.9" y2="162.1"/>
			<line class="st34" x1="108.2" y1="164.4" x2="107.7" y2="164.4"/>
			<line class="st34" x1="108.3" y1="164.3" x2="108.3" y2="163.6"/>
			<line class="st34" x1="107.9" y1="166.3" x2="108" y2="165.4"/>
			<line class="st34" x1="107.9" y1="164.9" x2="107.3" y2="165.4"/>
			<line class="st34" x1="108" y1="163.5" x2="107.4" y2="164"/>
			<line class="st34" x1="108.1" y1="161.9" x2="107.3" y2="162.5"/>
			<line class="st34" x1="108.3" y1="160.7" x2="107.3" y2="161.5"/>
			<line class="st34" x1="108.5" y1="159.4" x2="107.3" y2="160.4"/>
			<line class="st34" x1="108.4" y1="158.2" x2="107.3" y2="159.3"/>
			<line class="st34" x1="108.9" y1="158.7" x2="107.9" y2="158.8"/>
		</g>
	</g>
	<g>
		<path class="st4" d="M79.9,164.1c0,0-1.4-1.7,3.2-1.7c4.5,0,3.2,1.7,3.2,1.7s-2.2,1.3-2.2,8.5c0,7.2,1.1,11.9,1.1,11.9h-4.5
			c0,0,1.2-3.7,1.2-11.9C82,164.4,79.9,164.1,79.9,164.1z"/>
		<path class="st3" d="M81.9,164.2c0,0-0.5-1.7,1.3-1.7c1.8,0,1.3,1.7,1.3,1.7s-0.8,1.3-0.8,8.5c0,7.2,0.4,11.8,0.4,11.8h-1.8
			c0,0,0.5-3.7,0.5-11.9S81.9,164.2,81.9,164.2z"/>
		<g>
			<path class="st34" d="M81.8,184.5c0,0,0.5-7.5,0.5-14.1c0-8.2-3.3-11.2-3.3-11.2"/>
			<path class="st34" d="M84.4,184.5c0,0-0.5-7.5-0.5-14.1c0-8.2,3.3-11.3,3.3-11.3"/>
		</g>
		<g>
			<path class="st34" d="M80.4,184.5c0,0,1.2-7.4,1.2-13.9c0-8.1-7.6-9.8-7.6-9.8"/>
			<path class="st34" d="M85.8,184.5c0,0-1.2-7.4-1.2-13.9c0-8.1,7.6-9.8,7.6-9.8"/>
		</g>
		<line class="st34" x1="83.1" y1="184.5" x2="83.1" y2="158.5"/>
		<g>
			<line class="st34" x1="75.1" y1="161.1" x2="74.7" y2="160.1"/>
			<line class="st34" x1="76.4" y1="161.7" x2="76" y2="160.4"/>
			<line class="st34" x1="77.6" y1="162.4" x2="77.4" y2="161.2"/>
			<line class="st34" x1="78.6" y1="163.2" x2="78.6" y2="161.9"/>
			<line class="st34" x1="79.5" y1="164.1" x2="79.5" y2="162.9"/>
			<line class="st34" x1="80.3" y1="165.3" x2="80.3" y2="163.9"/>
			<line class="st34" x1="81.1" y1="166.7" x2="81.4" y2="165.2"/>
			<line class="st34" x1="81.4" y1="168" x2="81.9" y2="166.8"/>
			<line class="st34" x1="75" y1="160.8" x2="75.5" y2="159.8"/>
			<line class="st34" x1="76.3" y1="161.2" x2="77" y2="159.7"/>
			<line class="st34" x1="76.6" y1="160.5" x2="76.2" y2="159.6"/>
			<line class="st34" x1="77.6" y1="161.9" x2="78.5" y2="160.9"/>
			<line class="st34" x1="78" y1="161.2" x2="77.1" y2="159.3"/>
			<line class="st34" x1="77.7" y1="160.5" x2="77.9" y2="159"/>
			<line class="st34" x1="78.6" y1="162.6" x2="79.7" y2="161.5"/>
			<line class="st34" x1="79.3" y1="161.9" x2="78.7" y2="160.3"/>
			<line class="st34" x1="79.1" y1="161.1" x2="79.5" y2="160.4"/>
			<line class="st34" x1="79.5" y1="163.4" x2="80.6" y2="162.7"/>
			<line class="st34" x1="80.3" y1="162.9" x2="80" y2="161.9"/>
			<line class="st34" x1="80.3" y1="164.4" x2="81.5" y2="164"/>
			<line class="st34" x1="81" y1="164.2" x2="80.9" y2="163.3"/>
			<line class="st34" x1="81.2" y1="165.9" x2="80.7" y2="165.1"/>
			<line class="st34" x1="81.8" y1="165.1" x2="81.3" y2="165.1"/>
			<line class="st34" x1="81.2" y1="166.4" x2="81.8" y2="166.1"/>
			<line class="st34" x1="81.6" y1="167.4" x2="81.4" y2="166.9"/>
			<line class="st34" x1="82.1" y1="167" x2="81.7" y2="166.5"/>
			<line class="st34" x1="79.3" y1="160.9" x2="80.3" y2="160.9"/>
			<line class="st34" x1="80.2" y1="162.2" x2="80.9" y2="162.3"/>
			<line class="st34" x1="77.9" y1="159.9" x2="79.7" y2="159.9"/>
			<line class="st34" x1="78.8" y1="159.9" x2="78.3" y2="159.1"/>
			<line class="st34" x1="80.5" y1="163.3" x2="81.3" y2="163.3"/>
		</g>
		<g>
			<line class="st34" x1="91.2" y1="161.1" x2="91.6" y2="160.1"/>
			<line class="st34" x1="89.8" y1="161.7" x2="90.3" y2="160.4"/>
			<line class="st34" x1="88.6" y1="162.4" x2="88.9" y2="161.2"/>
			<line class="st34" x1="87.7" y1="163.2" x2="87.7" y2="161.9"/>
			<line class="st34" x1="86.8" y1="164.1" x2="86.7" y2="162.9"/>
			<line class="st34" x1="86" y1="165.3" x2="85.9" y2="163.9"/>
			<line class="st34" x1="85.2" y1="166.7" x2="84.8" y2="165.2"/>
			<line class="st34" x1="84.9" y1="168" x2="84.4" y2="166.8"/>
			<line class="st34" x1="91.3" y1="160.8" x2="90.8" y2="159.8"/>
			<line class="st34" x1="90" y1="161.2" x2="89.3" y2="159.7"/>
			<line class="st34" x1="89.7" y1="160.5" x2="90.1" y2="159.6"/>
			<line class="st34" x1="88.7" y1="161.9" x2="87.8" y2="160.9"/>
			<line class="st34" x1="88.2" y1="161.2" x2="89.2" y2="159.3"/>
			<line class="st34" x1="88.6" y1="160.5" x2="88.4" y2="159"/>
			<line class="st34" x1="87.7" y1="162.6" x2="86.5" y2="161.5"/>
			<line class="st34" x1="86.9" y1="161.9" x2="87.6" y2="160.3"/>
			<line class="st34" x1="87.2" y1="161.1" x2="86.8" y2="160.4"/>
			<line class="st34" x1="86.7" y1="163.4" x2="85.7" y2="162.7"/>
			<line class="st34" x1="86" y1="162.9" x2="86.3" y2="161.9"/>
			<line class="st34" x1="85.9" y1="164.4" x2="84.8" y2="164"/>
			<line class="st34" x1="85.3" y1="164.2" x2="85.3" y2="163.3"/>
			<line class="st34" x1="85.1" y1="165.9" x2="85.5" y2="165.1"/>
			<line class="st34" x1="84.5" y1="165.1" x2="85" y2="165.1"/>
			<line class="st34" x1="85.1" y1="166.4" x2="84.5" y2="166.1"/>
			<line class="st34" x1="84.7" y1="167.4" x2="84.8" y2="166.9"/>
			<line class="st34" x1="84.1" y1="167" x2="84.6" y2="166.5"/>
			<line class="st34" x1="86.9" y1="160.9" x2="86" y2="160.9"/>
			<line class="st34" x1="86.1" y1="162.2" x2="85.3" y2="162.3"/>
			<line class="st34" x1="88.4" y1="159.9" x2="86.6" y2="159.9"/>
			<line class="st34" x1="87.5" y1="159.9" x2="88" y2="159.1"/>
			<line class="st34" x1="85.8" y1="163.3" x2="85" y2="163.3"/>
		</g>
		<g>
			<line class="st34" x1="79.5" y1="159.6" x2="79.9" y2="158.6"/>
			<line class="st34" x1="80.3" y1="160.8" x2="80.7" y2="159.5"/>
			<line class="st34" x1="80.9" y1="161.8" x2="81.3" y2="160.8"/>
			<line class="st34" x1="81.4" y1="163.2" x2="81.8" y2="162.3"/>
			<line class="st34" x1="81.9" y1="164.8" x2="82.7" y2="163.8"/>
			<line class="st34" x1="82.2" y1="166.7" x2="83" y2="165.8"/>
			<line class="st34" x1="79.7" y1="159.2" x2="81.1" y2="158.8"/>
			<line class="st34" x1="80.6" y1="158.9" x2="80.9" y2="158.1"/>
			<line class="st34" x1="80.5" y1="160.3" x2="82.3" y2="159.8"/>
			<line class="st34" x1="81.3" y1="160.1" x2="81.5" y2="159.4"/>
			<line class="st34" x1="81" y1="161.5" x2="82.7" y2="161.2"/>
			<line class="st34" x1="81.7" y1="161.3" x2="81.9" y2="160.8"/>
			<line class="st34" x1="81.6" y1="162.9" x2="82.8" y2="162.9"/>
			<line class="st34" x1="82.2" y1="162.9" x2="82.5" y2="162.1"/>
			<line class="st34" x1="82.2" y1="164.4" x2="82.7" y2="164.4"/>
			<line class="st34" x1="82.2" y1="164.3" x2="82.1" y2="163.6"/>
			<line class="st34" x1="82.5" y1="166.3" x2="82.4" y2="165.4"/>
			<line class="st34" x1="82.5" y1="164.9" x2="83.1" y2="165.4"/>
			<line class="st34" x1="82.4" y1="163.5" x2="83" y2="164"/>
			<line class="st34" x1="82.3" y1="161.9" x2="83.1" y2="162.5"/>
			<line class="st34" x1="82.2" y1="160.7" x2="83.1" y2="161.5"/>
			<line class="st34" x1="81.9" y1="159.4" x2="83.1" y2="160.4"/>
			<line class="st34" x1="82" y1="158.2" x2="83" y2="159.2"/>
			<line class="st34" x1="81.5" y1="158.7" x2="82.5" y2="158.8"/>
		</g>
		<g>
			<line class="st34" x1="86.7" y1="159.6" x2="86.4" y2="158.6"/>
			<line class="st34" x1="85.9" y1="160.8" x2="85.5" y2="159.5"/>
			<line class="st34" x1="85.4" y1="161.8" x2="85" y2="160.8"/>
			<line class="st34" x1="84.9" y1="163.2" x2="84.5" y2="162.3"/>
			<line class="st34" x1="84.4" y1="164.8" x2="83.6" y2="163.8"/>
			<line class="st34" x1="84.1" y1="166.7" x2="83.2" y2="165.8"/>
			<line class="st34" x1="86.6" y1="159.2" x2="85.2" y2="158.8"/>
			<line class="st34" x1="85.7" y1="158.9" x2="85.4" y2="158.1"/>
			<line class="st34" x1="85.7" y1="160.3" x2="84" y2="159.8"/>
			<line class="st34" x1="85" y1="160.1" x2="84.8" y2="159.4"/>
			<line class="st34" x1="85.2" y1="161.5" x2="83.6" y2="161.2"/>
			<line class="st34" x1="84.6" y1="161.3" x2="84.4" y2="160.8"/>
			<line class="st34" x1="84.6" y1="162.9" x2="83.4" y2="162.9"/>
			<line class="st34" x1="84.1" y1="162.9" x2="83.8" y2="162.1"/>
			<line class="st34" x1="84.1" y1="164.4" x2="83.6" y2="164.4"/>
			<line class="st34" x1="84.1" y1="164.3" x2="84.2" y2="163.6"/>
			<line class="st34" x1="83.7" y1="166.3" x2="83.9" y2="165.4"/>
			<line class="st34" x1="83.8" y1="164.9" x2="83.2" y2="165.4"/>
			<line class="st34" x1="83.8" y1="163.5" x2="83.2" y2="164"/>
			<line class="st34" x1="84" y1="161.9" x2="83.2" y2="162.5"/>
			<line class="st34" x1="84.1" y1="160.7" x2="83.2" y2="161.5"/>
			<line class="st34" x1="84.4" y1="159.4" x2="83.2" y2="160.4"/>
			<line class="st34" x1="84.3" y1="158.2" x2="83.2" y2="159.3"/>
			<line class="st34" x1="84.8" y1="158.7" x2="83.7" y2="158.8"/>
		</g>
	</g>
	<g>
		<path class="st4" d="M92.5,167.5c0,0-1.1-1.4,2.7-1.4c3.8,0,2.7,1.4,2.7,1.4s-1.8,1.1-1.8,7.1c0,6,1,9.9,1,9.9h-3.8
			c0,0,1-3.1,1-10C94.3,167.7,92.5,167.5,92.5,167.5z"/>
		<path class="st3" d="M94.2,167.5c0,0-0.4-1.4,1.1-1.4s1,1.4,1,1.4s-0.7,1.1-0.7,7.1c0,6,0.4,9.9,0.4,9.9h-1.5c0,0,0.4-3.1,0.4-10
			S94.2,167.5,94.2,167.5z"/>
		<g>
			<path class="st34" d="M94.1,184.5c0,0,0.4-6.3,0.4-11.8c0-6.9-2.8-9.4-2.8-9.4"/>
			<path class="st34" d="M96.2,184.5c0,0-0.4-6.3-0.4-11.8c0-6.9,2.8-9.4,2.8-9.4"/>
		</g>
		<g>
			<path class="st34" d="M92.9,184.5c0,0,1-6.2,1-11.7c0-6.8-6.3-8.2-6.3-8.2"/>
			<path class="st34" d="M97.4,184.5c0,0-1-6.2-1-11.7c0-6.8,6.3-8.2,6.3-8.2"/>
		</g>
		<line class="st34" x1="95.2" y1="184.5" x2="95.2" y2="162.8"/>
		<g>
			<line class="st34" x1="88.5" y1="165" x2="88.1" y2="164.1"/>
			<line class="st34" x1="89.6" y1="165.4" x2="89.2" y2="164.4"/>
			<line class="st34" x1="90.6" y1="166" x2="90.4" y2="165"/>
			<line class="st34" x1="91.4" y1="166.7" x2="91.4" y2="165.6"/>
			<line class="st34" x1="92.2" y1="167.4" x2="92.2" y2="166.5"/>
			<line class="st34" x1="92.8" y1="168.4" x2="92.9" y2="167.3"/>
			<line class="st34" x1="93.5" y1="169.6" x2="93.8" y2="168.4"/>
			<line class="st34" x1="93.8" y1="170.8" x2="94.2" y2="169.7"/>
			<line class="st34" x1="88.4" y1="164.7" x2="88.8" y2="163.8"/>
			<line class="st34" x1="89.5" y1="165" x2="90" y2="163.8"/>
			<line class="st34" x1="89.7" y1="164.4" x2="89.4" y2="163.7"/>
			<line class="st34" x1="90.6" y1="165.6" x2="91.3" y2="164.8"/>
			<line class="st34" x1="91" y1="165.1" x2="90.1" y2="163.4"/>
			<line class="st34" x1="90.7" y1="164.4" x2="90.8" y2="163.2"/>
			<line class="st34" x1="91.4" y1="166.2" x2="92.4" y2="165.3"/>
			<line class="st34" x1="92" y1="165.6" x2="91.5" y2="164.3"/>
			<line class="st34" x1="91.8" y1="165" x2="92.1" y2="164.4"/>
			<line class="st34" x1="92.2" y1="166.9" x2="93.1" y2="166.2"/>
			<line class="st34" x1="92.8" y1="166.4" x2="92.5" y2="165.7"/>
			<line class="st34" x1="92.9" y1="167.7" x2="93.9" y2="167.4"/>
			<line class="st34" x1="93.4" y1="167.5" x2="93.3" y2="166.8"/>
			<line class="st34" x1="93.6" y1="168.9" x2="93.2" y2="168.3"/>
			<line class="st34" x1="94.1" y1="168.3" x2="93.6" y2="168.3"/>
			<line class="st34" x1="93.6" y1="169.4" x2="94.1" y2="169.1"/>
			<line class="st34" x1="93.9" y1="170.2" x2="93.8" y2="169.8"/>
			<line class="st34" x1="94.4" y1="169.9" x2="94" y2="169.5"/>
			<line class="st34" x1="92" y1="164.8" x2="92.8" y2="164.8"/>
			<line class="st34" x1="92.7" y1="165.9" x2="93.3" y2="166"/>
			<line class="st34" x1="90.8" y1="164" x2="92.3" y2="164"/>
			<line class="st34" x1="91.6" y1="163.9" x2="91.2" y2="163.3"/>
			<line class="st34" x1="93" y1="166.8" x2="93.6" y2="166.8"/>
		</g>
		<g>
			<line class="st34" x1="101.9" y1="165" x2="102.3" y2="164.1"/>
			<line class="st34" x1="100.8" y1="165.4" x2="101.2" y2="164.4"/>
			<line class="st34" x1="99.8" y1="166" x2="100" y2="165"/>
			<line class="st34" x1="99" y1="166.7" x2="99" y2="165.6"/>
			<line class="st34" x1="98.2" y1="167.4" x2="98.2" y2="166.5"/>
			<line class="st34" x1="97.6" y1="168.4" x2="97.6" y2="167.3"/>
			<line class="st34" x1="97" y1="169.6" x2="96.6" y2="168.4"/>
			<line class="st34" x1="96.6" y1="170.8" x2="96.2" y2="169.7"/>
			<line class="st34" x1="102" y1="164.7" x2="101.6" y2="163.8"/>
			<line class="st34" x1="100.9" y1="165" x2="100.4" y2="163.8"/>
			<line class="st34" x1="100.7" y1="164.4" x2="101" y2="163.7"/>
			<line class="st34" x1="99.8" y1="165.6" x2="99.1" y2="164.8"/>
			<line class="st34" x1="99.5" y1="165.1" x2="100.3" y2="163.4"/>
			<line class="st34" x1="99.7" y1="164.4" x2="99.6" y2="163.2"/>
			<line class="st34" x1="99" y1="166.2" x2="98" y2="165.3"/>
			<line class="st34" x1="98.4" y1="165.6" x2="98.9" y2="164.3"/>
			<line class="st34" x1="98.6" y1="165" x2="98.2" y2="164.4"/>
			<line class="st34" x1="98.2" y1="166.9" x2="97.3" y2="166.2"/>
			<line class="st34" x1="97.6" y1="166.4" x2="97.9" y2="165.7"/>
			<line class="st34" x1="97.6" y1="167.7" x2="96.6" y2="167.4"/>
			<line class="st34" x1="97" y1="167.5" x2="97.1" y2="166.8"/>
			<line class="st34" x1="96.8" y1="168.9" x2="97.2" y2="168.3"/>
			<line class="st34" x1="96.4" y1="168.3" x2="96.8" y2="168.3"/>
			<line class="st34" x1="96.8" y1="169.4" x2="96.3" y2="169.1"/>
			<line class="st34" x1="96.5" y1="170.2" x2="96.6" y2="169.8"/>
			<line class="st34" x1="96" y1="169.9" x2="96.4" y2="169.5"/>
			<line class="st34" x1="98.4" y1="164.8" x2="97.6" y2="164.8"/>
			<line class="st34" x1="97.7" y1="165.9" x2="97.1" y2="166"/>
			<line class="st34" x1="99.6" y1="164" x2="98.1" y2="164"/>
			<line class="st34" x1="98.8" y1="163.9" x2="99.2" y2="163.3"/>
			<line class="st34" x1="97.4" y1="166.8" x2="96.8" y2="166.8"/>
		</g>
		<g>
			<line class="st34" x1="92.2" y1="163.6" x2="92.5" y2="162.8"/>
			<line class="st34" x1="92.9" y1="164.7" x2="93.2" y2="163.6"/>
			<line class="st34" x1="93.3" y1="165.6" x2="93.7" y2="164.7"/>
			<line class="st34" x1="93.8" y1="166.7" x2="94.1" y2="166"/>
			<line class="st34" x1="94.1" y1="168" x2="94.8" y2="167.2"/>
			<line class="st34" x1="94.4" y1="169.6" x2="95.1" y2="168.9"/>
			<line class="st34" x1="92.3" y1="163.4" x2="93.5" y2="163"/>
			<line class="st34" x1="93.1" y1="163.1" x2="93.3" y2="162.5"/>
			<line class="st34" x1="93" y1="164.3" x2="94.5" y2="163.8"/>
			<line class="st34" x1="93.7" y1="164.1" x2="93.9" y2="163.6"/>
			<line class="st34" x1="93.4" y1="165.3" x2="94.8" y2="165.1"/>
			<line class="st34" x1="94" y1="165.2" x2="94.2" y2="164.7"/>
			<line class="st34" x1="93.9" y1="166.5" x2="94.9" y2="166.4"/>
			<line class="st34" x1="94.4" y1="166.4" x2="94.7" y2="165.8"/>
			<line class="st34" x1="94.4" y1="167.7" x2="94.8" y2="167.7"/>
			<line class="st34" x1="94.4" y1="167.6" x2="94.3" y2="167.1"/>
			<line class="st34" x1="94.7" y1="169.3" x2="94.6" y2="168.6"/>
			<line class="st34" x1="94.7" y1="168.1" x2="95.1" y2="168.6"/>
			<line class="st34" x1="94.6" y1="167" x2="95.1" y2="167.4"/>
			<line class="st34" x1="94.5" y1="165.6" x2="95.1" y2="166.1"/>
			<line class="st34" x1="94.4" y1="164.6" x2="95.1" y2="165.3"/>
			<line class="st34" x1="94.2" y1="163.6" x2="95.1" y2="164.4"/>
			<line class="st34" x1="94.2" y1="162.5" x2="95.1" y2="163.3"/>
			<line class="st34" x1="93.9" y1="163" x2="94.7" y2="163"/>
		</g>
		<g>
			<line class="st34" x1="98.2" y1="163.6" x2="97.9" y2="162.8"/>
			<line class="st34" x1="97.5" y1="164.7" x2="97.2" y2="163.6"/>
			<line class="st34" x1="97.1" y1="165.6" x2="96.7" y2="164.7"/>
			<line class="st34" x1="96.6" y1="166.7" x2="96.3" y2="166"/>
			<line class="st34" x1="96.3" y1="168" x2="95.6" y2="167.2"/>
			<line class="st34" x1="96" y1="169.6" x2="95.3" y2="168.9"/>
			<line class="st34" x1="98.1" y1="163.4" x2="96.9" y2="163"/>
			<line class="st34" x1="97.3" y1="163.1" x2="97.1" y2="162.5"/>
			<line class="st34" x1="97.4" y1="164.3" x2="95.9" y2="163.8"/>
			<line class="st34" x1="96.7" y1="164.1" x2="96.6" y2="163.6"/>
			<line class="st34" x1="97" y1="165.3" x2="95.6" y2="165.1"/>
			<line class="st34" x1="96.4" y1="165.2" x2="96.2" y2="164.7"/>
			<line class="st34" x1="96.5" y1="166.5" x2="95.5" y2="166.4"/>
			<line class="st34" x1="96" y1="166.4" x2="95.7" y2="165.8"/>
			<line class="st34" x1="96" y1="167.7" x2="95.6" y2="167.7"/>
			<line class="st34" x1="96" y1="167.6" x2="96.1" y2="167.1"/>
			<line class="st34" x1="95.7" y1="169.3" x2="95.8" y2="168.6"/>
			<line class="st34" x1="95.8" y1="168.1" x2="95.3" y2="168.6"/>
			<line class="st34" x1="95.8" y1="167" x2="95.3" y2="167.4"/>
			<line class="st34" x1="95.9" y1="165.6" x2="95.3" y2="166.1"/>
			<line class="st34" x1="96" y1="164.6" x2="95.3" y2="165.3"/>
			<line class="st34" x1="96.2" y1="163.6" x2="95.3" y2="164.4"/>
			<line class="st34" x1="96.2" y1="162.5" x2="95.2" y2="163.4"/>
			<line class="st34" x1="96.6" y1="163" x2="95.7" y2="163"/>
		</g>
	</g>
</g>
<path class="st33" d="M20.9,136.4c0,0,0,17.1,0,34.1s10,16.8,16.8,16.8s220.8,0,220.8,0s29.4-1,29.4-29.4s0-40.4,0-40.4"/>
<line class="st22" x1="237.8" y1="140" x2="271" y2="140"/>
<g>
	<path class="st4" d="M176.5,28c-0.1-0.5-0.3-0.9-0.4-1.4c0-0.1-0.1-0.2-0.1-0.4c2.7,0,5.5,0,8.2,0c-0.1,0.5-0.3,0.9-0.4,1.4
		c0,0.1-0.1,0.2-0.1,0.4C181.3,28,178.9,28,176.5,28z"/>
	<path class="st0" d="M181.3,48.7c-0.3,0-0.6,0-0.8,0c0-4,0-8,0-12c0-0.9,0-1.7,0-2.6c0.3,0,0.6,0,0.9,0c0,2.8,0,5.6,0,8.4
		c0,0.9,0,1.7,0,2.6C181.3,46.3,181.3,47.5,181.3,48.7z"/>
	<path class="st4" d="M179,25c-0.2-0.3-0.5-0.6-0.7-0.9c-0.4-0.7-0.3-1.4,0.2-2.1c0.5-0.6,1.1-0.9,1.9-0.8c0.8,0.2,1.4,0.6,1.6,1.5
		c0.2,0.7,0,1.4-0.5,1.9c-0.1,0.1-0.2,0.2-0.3,0.3C180.5,25,179.7,25,179,25z"/>
	<path class="st0" d="M176.5,28c2.4,0,4.8,0,7.2,0c0.8,0,1.5,0,2.3,0c0,0.4,0,0.7,0,1c-0.5,0-0.9,0-1.4,0c0,0-0.1,0-0.1,0
		c0,0,0,0-0.1,0.1c0,0,0,0,0,0c0,0,0,0-0.1,0c-0.1,0-0.1-0.1-0.2-0.1c-1.4,0-2.7,0-4.1,0c-0.1,0-0.1,0-0.2,0c-0.6,0-1.2,0-1.8,0
		c0,0-0.1,0-0.1,0c-0.1,0-0.1,0-0.2,0c-0.5,0-0.9,0-1.4,0c-0.1,0-0.2,0-0.4,0c0,0-0.1,0-0.1,0c-0.1,0-0.2,0-0.3,0
		c-0.4,0-0.7,0-1.1,0c0,0-0.1,0-0.1,0c-0.1,0-0.2,0-0.4,0c0,0,0,0,0,0c0,0,0,0,0-0.1c0-0.3,0-0.6,0-0.9C174.9,28,175.7,28,176.5,28z
		"/>
	<path class="st2" d="M180.5,34.1c0,0.9,0,1.7,0,2.6c0,4,0,8,0,12c-0.3,0-0.6,0-0.9,0c0-2.2,0-4.3,0-6.5c0-2.7,0-5.4,0-8.1
		C179.9,34.1,180.2,34.1,180.5,34.1z"/>
	<path class="st0" d="M179,25c0.8,0,1.5,0,2.3,0c0.6,0,1.3,0,1.9,0c0.1,0,0.3,0.1,0.4,0.2c0.2,0.3,0.4,0.7,0.6,1.1
		c-2.7,0-5.5,0-8.2,0c0.2-0.4,0.4-0.8,0.7-1.1c0.1-0.1,0.2-0.1,0.3-0.1C177.7,25,178.3,25,179,25z"/>
	<path class="st4" d="M180.1,29c1.4,0,2.7,0,4.1,0c0.1,0,0.1,0,0.2,0.1c0,0,0,0.1,0.1,0.1c-0.2,0.7-0.3,1.3-0.5,2
		c0,0.1-0.1,0.2-0.2,0.2c-0.5,0-1.1,0-1.7,0c0.1-0.8,0.2-1.5,0.3-2.3c0,0-0.1,0-0.1,0c-0.3,0.7-0.2,1.5-0.4,2.3c-0.6,0-1.1,0-1.7,0
		C180.1,30.6,180.1,29.8,180.1,29z"/>
	<path class="st0" d="M179.6,34.1c0,2.7,0,5.4,0,8.1c0,2.2,0,4.3,0,6.5c-0.3,0-0.6,0-0.8,0c0-1.2,0-2.3,0-3.5c0-0.8,0-1.6,0-2.4
		c0-2.9,0-5.8,0-8.7C179,34.1,179.3,34.1,179.6,34.1z"/>
	<path class="st0" d="M179.6,34.1c-0.3,0-0.6,0-0.9,0c-0.7,0-1.4,0-2.1,0c-0.6,0-0.6,0-0.7-0.6c0.3,0,0.7,0,1,0c0.1,0,0.1,0,0.2,0
		c0.5,0,1,0,1.6,0c0.1,0,0.1,0,0.2,0c0.4,0,0.7,0,1.1,0c0.1,0,0.1,0,0.2,0c0.5,0,1,0,1.4,0c0.1,0,0.1,0,0.2,0c0.5,0,1,0,1.6,0
		c0.1,0,0.1,0,0.2,0c0.2,0,0.5,0,0.7,0c-0.2,0.6-0.2,0.6-0.7,0.6c-0.6,0-1.2,0-1.8,0c-0.4,0-0.8,0-1.2,0
		C180.2,34.1,179.9,34.1,179.6,34.1z"/>
	<path class="st4" d="M177.8,29c0.1,0,0.1,0,0.2,0c0.1,0.7,0.2,1.5,0.3,2.2c0,0,0,0.1,0,0.2c-0.4,0-0.7,0-1.1,0
		c-0.7,0-0.7,0-0.9-0.7c-0.1-0.5-0.3-1-0.4-1.6c0,0,0-0.1,0.1-0.1c0.1,0,0.2,0,0.4,0c0,0,0.1,0.1,0.1,0.1c0.4,0,0.7,0,1.1,0
		C177.7,29.1,177.7,29.1,177.8,29z"/>
	<path class="st4" d="M178.1,29c0.6,0,1.2,0,1.8,0c0,0.8,0,1.6,0,2.4c-0.5,0-0.9,0-1.4,0C178.4,30.6,178.3,29.8,178.1,29z"/>
	<path class="st4" d="M174.4,29c0,0,0.1,0,0.1,0c0.2,0.3,0.8,0.3,1.1,0c0,0,0.1,0,0.1,0c0,0,0.4,1.6,0.6,2.4c-0.5,0-0.9,0-1.3,0
		c-0.1,0-0.1-0.1-0.1-0.1c-0.3-0.7-0.5-1.4-0.8-2C174.2,29.2,174.3,29.1,174.4,29z"/>
	<path class="st4" d="M178.6,33.5c-0.5,0-1,0-1.6,0c-0.2-0.6-0.3-1.3-0.5-2c0.6,0,1.1,0,1.6,0c0.1,0,0.2,0.1,0.2,0.2
		C178.5,32.4,178.5,33,178.6,33.5z"/>
	<path class="st4" d="M183.3,33.5c-0.5,0-1,0-1.6,0c0.1-0.6,0.1-1.1,0.2-1.7c0-0.1,0.1-0.2,0.2-0.3c0.5,0,1,0,1.6,0
		C183.6,32.3,183.5,32.9,183.3,33.5z"/>
	<path class="st4" d="M181.5,33.5c-0.5,0-1,0-1.4,0c0-0.6,0-1.3,0-1.9c0.6,0,1.1,0,1.7,0C181.7,32.3,181.6,32.9,181.5,33.5z"/>
	<path class="st4" d="M184.6,29c0.5,0,0.9,0,1.4,0c-0.2,0.6-0.4,1.1-0.6,1.7c-0.3,0.8-0.4,0.8-1.3,0.7c0.1-0.5,0.2-0.9,0.4-1.3
		C184.5,29.7,184.6,29.4,184.6,29z"/>
	<path class="st4" d="M176.9,33.5c-0.3,0-0.7,0-1,0c-0.3-0.6-0.6-1.3-0.9-2c0.5,0,0.8,0,1.2,0c0.1,0,0.2,0.1,0.2,0.2
		C176.6,32.4,176.7,32.9,176.9,33.5z"/>
	<path class="st4" d="M179.9,33.5c-0.4,0-0.7,0-1.1,0c-0.1-0.6-0.2-1.3-0.3-2c0.4,0,0.8,0,1.2,0c0.1,0,0.1,0.2,0.1,0.3
		C179.9,32.4,179.9,33,179.9,33.5z"/>
	<path class="st4" d="M184.2,33.6c-0.2,0-0.5,0-0.7,0c0.1-0.6,0.3-1.2,0.5-1.8c0-0.1,0.2-0.2,0.2-0.2c0.3,0,0.5,0,0.9,0
		C184.8,32.3,184.5,32.9,184.2,33.6z"/>
	<path class="st4" d="M175.9,29c0,0,0.1,0,0.1,0c0,0,0,0.1-0.1,0.1C175.9,29.1,175.9,29,175.9,29z"/>
	<path class="st35" d="M184.4,29.2c0,0,0-0.1-0.1-0.1c0,0,0,0,0.1,0C184.4,29.1,184.4,29.2,184.4,29.2z"/>
	<path class="st36" d="M184.4,29.1C184.5,29.1,184.5,29,184.4,29.1C184.5,29,184.5,29.1,184.4,29.1z"/>
	<path class="st4" d="M175.6,29c-0.3,0.3-0.8,0.3-1.1,0C174.9,29,175.2,29,175.6,29z"/>
	<path class="st4" d="M177.8,29c0,0-0.1,0.1-0.1,0.1c-0.4,0-0.7,0-1.1,0c0,0-0.1-0.1-0.1-0.1C176.8,29,177.3,29,177.8,29z"/>
</g>
</svg>
