<?xml version="1.0" encoding="utf-8"?>
<!-- Generator: Adobe Illustrator 22.1.0, SVG Export Plug-In . SVG Version: 6.00 Build 0)  -->
<svg version="1.1" id="Layer_1" xmlns="http://www.w3.org/2000/svg" xmlns:xlink="http://www.w3.org/1999/xlink" x="0px" y="0px"
	 viewBox="0 0 1024 798.6" style="enable-background:new 0 0 1024 798.6;" xml:space="preserve">
<style type="text/css">
	.st0{fill:#E0E0E0;}
	.st1{opacity:0.3;fill:#6B6B6B;enable-background:new    ;}
	.st2{fill:#332326;}
	.st3{fill:#FFFFFF;}
	.st4{fill:#DB2C56;}
	.st5{fill:none;stroke:#332326;stroke-width:0.8811;stroke-linecap:round;stroke-linejoin:round;stroke-miterlimit:10;}
	.st6{fill:none;stroke:#465259;stroke-width:17.2642;stroke-miterlimit:10;}
	.st7{fill:#871924;}
	.st8{fill:none;stroke:#332326;stroke-width:1.8486;stroke-miterlimit:10;}
	.st9{fill:none;stroke:#EAEAEA;stroke-width:1.8486;stroke-miterlimit:10;}
	.st10{fill:none;stroke:#332326;stroke-width:1.2542;stroke-linecap:round;stroke-linejoin:round;stroke-miterlimit:10;}
	.st11{fill:#FFFFFF;stroke:#332326;stroke-width:1.2542;stroke-linecap:round;stroke-linejoin:round;stroke-miterlimit:10;}
	.st12{fill:none;stroke:#FFFFFF;stroke-width:1.2542;stroke-miterlimit:10;}
	.st13{fill:none;stroke:#871924;stroke-width:1.2542;stroke-miterlimit:10;}
	.st14{fill:none;stroke:#FFFFFF;stroke-width:0.9975;stroke-miterlimit:10;}
	.st15{fill:none;stroke:#332326;stroke-width:1.4249;stroke-miterlimit:10;}
	.st16{fill:none;stroke:#FFFFFF;stroke-width:1.2097;stroke-miterlimit:10;}
	.st17{fill:none;stroke:#EAEAEA;stroke-width:2;stroke-miterlimit:10;stroke-dasharray:12;}
	.st18{opacity:0.5;fill:#332326;enable-background:new    ;}
	.st19{fill:none;stroke:#332326;stroke-width:0.8092;stroke-miterlimit:10;}
	.st20{fill:none;stroke:#465259;stroke-width:1.8711;stroke-linecap:round;stroke-miterlimit:10;}
	
		.st21{fill:none;stroke:#465259;stroke-width:1.8711;stroke-linecap:round;stroke-miterlimit:10;stroke-dasharray:3.3983,6.7966,27.1862,13.5931,6.7966,3.3983;}
	
		.st22{fill:none;stroke:#465259;stroke-width:1.8711;stroke-linecap:round;stroke-miterlimit:10;stroke-dasharray:18.7109,9.3554,4.6777,9.3554,37.4218;}
	.st23{fill:none;stroke:#465259;stroke-width:1.8711;stroke-linecap:round;stroke-miterlimit:10;stroke-dasharray:18.7109,9.3554;}
	.st24{fill:#E6BB8F;stroke:#332326;stroke-width:1.2417;stroke-linecap:round;stroke-linejoin:round;stroke-miterlimit:10;}
	.st25{fill:none;stroke:#332326;stroke-width:1.2417;stroke-linecap:round;stroke-linejoin:round;stroke-miterlimit:10;}
	.st26{fill:#FFFFFF;stroke:#332326;stroke-width:1.2417;stroke-linecap:round;stroke-linejoin:round;stroke-miterlimit:10;}
	.st27{fill:none;stroke:#E6BB8F;stroke-width:0.9986;stroke-miterlimit:10;}
	.st28{fill:none;stroke:#332326;stroke-width:0.9986;stroke-linecap:round;stroke-linejoin:round;stroke-miterlimit:10;}
	.st29{fill:none;stroke:#DB2C56;stroke-width:0.9986;stroke-miterlimit:10;}
	.st30{fill:#828282;}
	.st31{fill:none;}
	.st32{fill:#464655;}
	.st33{display:none;}
	.st34{display:inline;}
	.st35{fill:#F69D5E;}
	.st36{fill:#221F1F;}
	.st37{fill:#BCB6C0;stroke:#ACA8C1;stroke-width:0.25;stroke-miterlimit:10;}
	.st38{fill:#060606;}
	.st39{fill:#F23A44;}
	.st40{fill:#D6D6D6;}
	.st41{fill:#9B9A9A;}
	.st42{fill:none;stroke:#555A6E;stroke-width:0.5;stroke-miterlimit:10;}
	.st43{fill:#555A6E;}
	.st44{fill:#D5D6DB;stroke:#464655;stroke-width:7;stroke-miterlimit:10;}
	.st45{fill:none;stroke:#555A6E;stroke-miterlimit:10;}
	.st46{fill:#BCB6C0;}
	.st47{fill:#E0E9E2;}
	.st48{fill:#A3B1AF;}
	.st49{fill:none;stroke:#555A6E;stroke-width:1.0191;stroke-miterlimit:10;}
	.st50{fill:none;stroke:#555A6E;stroke-width:5.0953;stroke-miterlimit:10;}
	.st51{fill:none;stroke:#BCB6C0;stroke-width:1.0191;stroke-miterlimit:10;}
	.st52{fill:none;stroke:#6B6B6B;stroke-width:16;stroke-miterlimit:10;}
	.st53{fill:#EBF0F3;stroke:#555A6E;stroke-width:5;stroke-miterlimit:10;}
	.st54{fill:#D5D6DB;}
	.st55{fill:#EBF0F3;stroke:#555A6E;stroke-width:4;stroke-miterlimit:10;}
	.st56{fill:none;stroke:#464655;stroke-miterlimit:10;}
	.st57{fill:none;stroke:#332326;stroke-width:1.1182;stroke-linecap:round;stroke-linejoin:round;stroke-miterlimit:10;}
</style>
<g id="tree_1">
	<path class="st0" d="M282.9,632.5c0,5.5-4.5,10-10,10s-10-4.5-10-10s4.5-10,10-10S282.9,627,282.9,632.5z"/>
	
		<ellipse transform="matrix(0.6375 -0.7705 0.7705 0.6375 -401.7189 445.9037)" class="st0" cx="273" cy="649.8" rx="12.2" ry="12.2"/>
	<path class="st1" d="M262.6,648.5c0-3.3,1.3-6.3,3.6-8.5c-3.3,2.1-5.4,5.8-5.4,10c0,6.6,5.4,11.9,12.1,11.9c3.3,0,6.4-1.3,8.5-3.4
		c-1.9,1.3-4.2,2.1-6.7,2.1C268,660.5,262.6,655.1,262.6,648.5z"/>
	<path class="st1" d="M264.4,631.2c0-2.7,1-5.2,3-7c-2.7,1.8-4.5,4.8-4.5,8.2c0,5.4,4.5,9.9,10,9.9c2.7,0,5.2-1,7-2.8
		c-1.6,1-3.4,1.6-5.5,1.6C268.9,641,264.4,636.7,264.4,631.2z"/>
	<g>
		<polygon class="st2" points="270.5,671.2 272.9,630.9 275.3,671.2 		"/>
	</g>
	<g>
		<polygon class="st2" points="272.2,650.9 280.1,643.9 273.5,652.2 		"/>
	</g>
	<g>
		<polygon class="st2" points="272.3,639.5 278,634.2 273.5,640.6 		"/>
	</g>
	<g>
		<polygon class="st2" points="271.3,657.5 264.3,649.5 272.6,656.1 		"/>
	</g>
</g>
<g id="skyrscraper" text-rendering="geometricPrecision" shape-rendering="geometricPrecision">
</g>
<g>
	<g>
		<path class="st3" d="M428.6,66.7c0,0,10.9-16.2,33.9-16.2c17.5,0,18.7,16.2,18.7,16.2H428.6z"/>
		<path class="st4" d="M462.5,50.5c-23,0-33.9,16.2-33.9,16.2h1.7c0,0,10.3-15,32.1-15c16.6,0,17.8,15,17.8,15h1
			C481.2,66.7,480,50.5,462.5,50.5z"/>
		<path class="st5" d="M433.3,61.5c0,0,5,2.1,6.8,5.2"/>
		<path class="st5" d="M438,57.9c0,0,7,2.9,9.6,8.8"/>
		<path class="st5" d="M444.8,54.2c0,0,7.8,3.8,9.6,12.6"/>
		<path class="st5" d="M453.8,51.3c0,0,7.2,5.5,7.2,15.3"/>
		<path class="st5" d="M464.7,50.5c0,0,2.6,5.2,2.2,16.2"/>
		<path class="st5" d="M472.5,52.9c0,0,1.8,7.2-0.4,13.9"/>
		<path class="st5" d="M478.6,59.1c0,0,0.4,3.6-1.6,7.6"/>
	</g>
	<g>
		<path class="st3" d="M378.9,66.7c0,0,10.9-29.8,33.9-29.8c17.5,0,18.7,29.8,18.7,29.8H378.9z"/>
		<path class="st4" d="M412.8,36.8c-23,0-33.9,29.8-33.9,29.8h1.6c0,0,10.3-28.6,32.2-28.6c16.6,0,17.8,28.6,17.8,28.6h1
			C431.6,66.7,430.3,36.8,412.8,36.8z"/>
		<path class="st5" d="M383.5,57.2c0,0,5.1,3.8,6.9,9.5"/>
		<path class="st5" d="M388.3,50.5c0,0,7.1,5.3,9.6,16.2"/>
		<path class="st5" d="M395.2,43.7c0,0,7.9,6.9,9.6,23"/>
		<path class="st5" d="M404.3,38.5c0,0,7.2,10.2,7.2,28.2"/>
		<path class="st5" d="M415.2,37c0,0,2.7,9.6,2.3,29.7"/>
		<path class="st5" d="M423,41.2c0,0,1.8,13.2-0.4,25.4"/>
		<path class="st5" d="M429.1,52.8c0,0,0.4,6.7-1.6,13.9"/>
	</g>
</g>
<path class="st6" d="M392.4-193.4"/>
<path class="st6" d="M-13.1-193.4"/>
<path class="st6" d="M-20.1-81.4"/>
<path class="st6" d="M146.8-81.4"/>
<g id="boat">
</g>
<g>
	<rect x="941" y="82.4" class="st7" width="6.9" height="4.9"/>
	<rect x="837.8" y="82.4" class="st7" width="6.9" height="4.9"/>
	<polygon class="st4" points="962.9,94.5 832.8,94.5 809.3,86.6 962.9,86.6 	"/>
	<polygon class="st2" points="962.9,94.5 832.8,94.5 809.3,86.6 962.9,90 	"/>
	<rect x="879.1" y="97.4" class="st0" width="32.9" height="88.2"/>
	<g>
		<line class="st8" x1="882.8" y1="101.4" x2="908.3" y2="101.4"/>
		<line class="st8" x1="882.8" y1="105.5" x2="908.3" y2="105.5"/>
		<line class="st8" x1="882.8" y1="109.8" x2="908.3" y2="109.8"/>
		<line class="st8" x1="882.8" y1="114" x2="908.3" y2="114"/>
		<line class="st8" x1="882.8" y1="118.2" x2="908.3" y2="118.2"/>
		<line class="st8" x1="882.8" y1="122.5" x2="908.3" y2="122.5"/>
		<line class="st8" x1="882.8" y1="126.6" x2="908.3" y2="126.6"/>
		<line class="st8" x1="882.8" y1="130.9" x2="908.3" y2="130.9"/>
		<line class="st8" x1="882.8" y1="135" x2="908.3" y2="135"/>
		<line class="st8" x1="882.8" y1="139.3" x2="908.3" y2="139.3"/>
		<line class="st8" x1="882.8" y1="143.5" x2="908.3" y2="143.5"/>
		<line class="st8" x1="882.8" y1="147.7" x2="908.3" y2="147.7"/>
		<line class="st8" x1="882.8" y1="151.9" x2="908.3" y2="151.9"/>
		<line class="st8" x1="882.8" y1="156.1" x2="908.3" y2="156.1"/>
		<line class="st8" x1="882.8" y1="160.3" x2="908.3" y2="160.3"/>
		<line class="st8" x1="882.8" y1="164.6" x2="908.3" y2="164.6"/>
		<line class="st8" x1="882.8" y1="168.8" x2="908.3" y2="168.8"/>
	</g>
	<rect x="837.8" y="97.4" class="st0" width="32.9" height="88.2"/>
	<rect x="837.8" y="97.4" class="st2" width="6.2" height="88.2"/>
	<g>
		<line class="st8" x1="847.7" y1="101.4" x2="867" y2="101.4"/>
		<line class="st8" x1="847.7" y1="105.5" x2="867" y2="105.5"/>
		<line class="st8" x1="847.7" y1="109.8" x2="867" y2="109.8"/>
		<line class="st8" x1="847.7" y1="114" x2="867" y2="114"/>
		<line class="st8" x1="847.7" y1="118.2" x2="867" y2="118.2"/>
		<line class="st8" x1="847.7" y1="122.5" x2="867" y2="122.5"/>
		<line class="st8" x1="847.7" y1="126.6" x2="867" y2="126.6"/>
		<line class="st8" x1="847.7" y1="130.9" x2="867" y2="130.9"/>
		<line class="st8" x1="847.7" y1="135" x2="867" y2="135"/>
		<line class="st8" x1="847.7" y1="139.3" x2="867" y2="139.3"/>
		<line class="st8" x1="847.7" y1="143.5" x2="867" y2="143.5"/>
		<line class="st8" x1="847.7" y1="147.7" x2="867" y2="147.7"/>
		<line class="st8" x1="847.7" y1="151.9" x2="867" y2="151.9"/>
		<line class="st8" x1="847.7" y1="156.1" x2="867" y2="156.1"/>
		<line class="st8" x1="847.7" y1="160.3" x2="867" y2="160.3"/>
		<line class="st8" x1="847.7" y1="164.6" x2="867" y2="164.6"/>
		<line class="st8" x1="847.7" y1="168.8" x2="867" y2="168.8"/>
	</g>
	<rect x="920.4" y="97.4" class="st0" width="32.9" height="88.2"/>
	<rect x="947.2" y="97.4" class="st2" width="6.2" height="88.2"/>
	<g>
		<line class="st8" x1="943.5" y1="101.4" x2="924.2" y2="101.4"/>
		<line class="st8" x1="943.5" y1="105.5" x2="924.2" y2="105.5"/>
		<line class="st9" x1="943.5" y1="109.8" x2="924.2" y2="109.8"/>
		<line class="st8" x1="943.5" y1="114" x2="924.2" y2="114"/>
		<line class="st8" x1="943.5" y1="118.2" x2="924.2" y2="118.2"/>
		<line class="st8" x1="943.5" y1="122.5" x2="924.2" y2="122.5"/>
		<line class="st8" x1="943.5" y1="126.6" x2="924.2" y2="126.6"/>
		<line class="st8" x1="943.5" y1="130.9" x2="924.2" y2="130.9"/>
		<line class="st8" x1="943.5" y1="135" x2="924.2" y2="135"/>
		<line class="st8" x1="943.5" y1="139.3" x2="924.2" y2="139.3"/>
		<line class="st8" x1="943.5" y1="143.5" x2="924.2" y2="143.5"/>
		<line class="st8" x1="943.5" y1="147.7" x2="924.2" y2="147.7"/>
		<line class="st8" x1="943.5" y1="151.9" x2="924.2" y2="151.9"/>
		<line class="st8" x1="943.5" y1="156.1" x2="924.2" y2="156.1"/>
		<line class="st8" x1="943.5" y1="160.3" x2="924.2" y2="160.3"/>
		<line class="st8" x1="943.5" y1="164.6" x2="924.2" y2="164.6"/>
		<line class="st8" x1="943.5" y1="168.8" x2="924.2" y2="168.8"/>
	</g>
</g>
<g id="standrew">
	<g>
		<path class="st2" d="M528.9,518.6c0,0.8-0.5,1.3-1.1,1.3s-1.1-0.6-1.1-1.3c0-0.8,0.5-1.3,1.1-1.3S528.9,517.9,528.9,518.6z"/>
		<path class="st4" d="M534.1,526.6c0,4.3-2.8,7.7-6.3,7.7s-6.3-3.5-6.3-7.7s2.8-7.7,6.3-7.7S534.1,522.4,534.1,526.6z"/>
		<polygon class="st0" points="618.4,671.7 570.9,671.7 570.9,612.3 594.7,595.9 618.4,612.3 		"/>
		<polygon class="st4" points="580.3,612.3 594.7,602.6 608.8,612.3 611.5,612.3 594.7,600.7 577.8,612.3 		"/>
		<polyline class="st10" points="577.2,612.3 594.7,600.2 612.1,612.3 		"/>
		<rect x="476.2" y="618.8" class="st0" width="103.4" height="52.9"/>
		<rect x="514.9" y="552.1" class="st0" width="25.8" height="98.6"/>
		<rect x="517.4" y="537" class="st0" width="21" height="19.1"/>
		<rect x="521.7" y="526.6" class="st0" width="12.4" height="16.2"/>
		<rect x="514.9" y="552.1" class="st4" width="25.8" height="1.7"/>
		<rect x="517.4" y="537" class="st4" width="21" height="1.7"/>
		<g>
			<rect x="521.5" y="540.8" class="st2" width="2.2" height="9.8"/>
			<rect x="525" y="540.8" class="st2" width="2.2" height="9.8"/>
			<rect x="528.5" y="540.8" class="st2" width="2.2" height="9.8"/>
			<rect x="531.9" y="540.8" class="st2" width="2.2" height="9.8"/>
		</g>
		<path class="st4" d="M521.7,553.9c0-3.5,2.8-6.3,6.3-6.3s6.3,2.8,6.3,6.3H521.7z"/>
		<path class="st3" d="M532.4,553.9c0,2.5-2,4.4-4.4,4.4c-2.5,0-4.4-2-4.4-4.4c0-2.5,2-4.4,4.4-4.4
			C530.4,549.5,532.4,551.3,532.4,553.9z"/>
		<path class="st4" d="M516,618.8c0-6.5,5.2-11.8,11.8-11.8c6.5,0,11.8,5.4,11.8,11.8H516z"/>
		<path class="st7" d="M518.2,618.8c0-5.4,4.3-9.6,9.6-9.6s9.6,4.3,9.6,9.6H518.2z"/>
		<path class="st0" d="M536,618.8c0,4.6-3.6,8.2-8.2,8.2s-8.2-3.6-8.2-8.2c0-4.6,3.6-8.2,8.2-8.2C532.4,610.4,536,614.2,536,618.8z"
			/>
		<path class="st2" d="M531,553.9c0,1.7-1.4,3.2-3.2,3.2s-3.2-1.4-3.2-3.2s1.4-3.2,3.2-3.2S531,552.1,531,553.9z"/>
		<g>
			<polyline class="st10" points="513.7,644.5 513.7,618.5 519.2,618.5 519.2,644.5 			"/>
			<polyline class="st10" points="513.7,671.7 513.7,647.9 519.2,647.9 519.2,671.7 			"/>
			<rect x="511.9" y="616.4" class="st11" width="8.8" height="3.5"/>
			<rect x="511.9" y="644.5" class="st11" width="8.8" height="3.5"/>
		</g>
		<g>
			<polyline class="st10" points="536.4,644.5 536.4,618.5 542,618.5 542,644.5 			"/>
			<polyline class="st10" points="536.4,671.7 536.4,647.9 542,647.9 542,671.7 			"/>
			<rect x="534.8" y="616.4" class="st11" width="8.8" height="3.5"/>
			<rect x="534.8" y="644.5" class="st11" width="8.8" height="3.5"/>
		</g>
		<line class="st10" x1="520.9" y1="618.5" x2="534.6" y2="618.5"/>
		<line class="st10" x1="520.9" y1="646.4" x2="534.6" y2="646.4"/>
		<line class="st10" x1="485" y1="646.4" x2="511.9" y2="646.4"/>
		<rect x="576.2" y="618.2" class="st4" width="36.4" height="28.2"/>
		<line class="st10" x1="544.1" y1="646.4" x2="570.4" y2="646.4"/>
		<line class="st10" x1="578" y1="646.4" x2="612.9" y2="646.4"/>
		<line class="st10" x1="519.2" y1="668.9" x2="536.4" y2="668.9"/>
		<path class="st2" d="M527.8,654.7c-2.4,0-4.3,1.9-4.3,4.3v9.6h8.5V659C531.9,656.6,530,654.7,527.8,654.7z"/>
		<path class="st2" d="M583.2,654.4c-1.9,0-3.5,1.6-3.5,3.5v13.9h6.9v-13.9C586.6,656,585,654.4,583.2,654.4z"/>
		<path class="st2" d="M594.7,654.4c-1.9,0-3.5,1.6-3.5,3.5v13.9h6.9v-13.9C598.1,656,596.5,654.4,594.7,654.4z"/>
		<path class="st2" d="M606,654.4c-1.9,0-3.5,1.6-3.5,3.5v13.9h6.9v-13.9C609.5,656,607.9,654.4,606,654.4z"/>
		<g>
			<rect x="523.1" y="623.5" class="st4" width="9.5" height="18.1"/>
			<rect x="524.4" y="624.6" class="st2" width="7.1" height="15.9"/>
			<g>
				<line class="st12" x1="524.4" y1="628.2" x2="531.5" y2="628.2"/>
				<line class="st12" x1="524.4" y1="632.5" x2="531.5" y2="632.5"/>
				<line class="st12" x1="527.8" y1="624.6" x2="527.8" y2="640.5"/>
				<line class="st12" x1="524.4" y1="636.8" x2="531.5" y2="636.8"/>
			</g>
		</g>
		<g>
			<rect x="545.8" y="623.5" class="st4" width="9.5" height="18.1"/>
			<rect x="546.9" y="624.6" class="st2" width="7.1" height="15.9"/>
			<g>
				<line class="st12" x1="546.9" y1="628.2" x2="554.2" y2="628.2"/>
				<line class="st12" x1="546.9" y1="632.5" x2="554.2" y2="632.5"/>
				<line class="st12" x1="550.5" y1="624.6" x2="550.5" y2="640.5"/>
				<line class="st12" x1="546.9" y1="636.8" x2="554.2" y2="636.8"/>
			</g>
		</g>
		<g>
			<rect x="558.4" y="623.5" class="st4" width="9.5" height="18.1"/>
			<rect x="559.5" y="624.6" class="st2" width="7.1" height="15.9"/>
			<g>
				<line class="st12" x1="559.5" y1="628.2" x2="566.6" y2="628.2"/>
				<line class="st12" x1="559.5" y1="632.5" x2="566.6" y2="632.5"/>
				<line class="st12" x1="563.1" y1="624.6" x2="563.1" y2="640.5"/>
				<line class="st12" x1="559.5" y1="636.8" x2="566.6" y2="636.8"/>
			</g>
		</g>
		<g>
			<rect x="488.1" y="623.5" class="st4" width="9.5" height="18.1"/>
			<rect x="489.4" y="624.6" class="st2" width="7.1" height="15.9"/>
			<g>
				<line class="st12" x1="489.4" y1="628.2" x2="496.5" y2="628.2"/>
				<line class="st12" x1="489.4" y1="632.5" x2="496.5" y2="632.5"/>
				<line class="st12" x1="492.9" y1="624.6" x2="492.9" y2="640.5"/>
				<line class="st12" x1="489.4" y1="636.8" x2="496.5" y2="636.8"/>
			</g>
		</g>
		<g>
			<rect x="500.6" y="623.5" class="st4" width="9.5" height="18.1"/>
			<rect x="501.7" y="624.6" class="st2" width="7.1" height="15.9"/>
			<g>
				<line class="st12" x1="501.7" y1="628.2" x2="508.8" y2="628.2"/>
				<line class="st12" x1="501.7" y1="632.5" x2="508.8" y2="632.5"/>
				<line class="st12" x1="505.3" y1="624.6" x2="505.3" y2="640.5"/>
				<line class="st12" x1="501.7" y1="636.8" x2="508.8" y2="636.8"/>
			</g>
		</g>
		<g>
			<rect x="545.8" y="650.5" class="st4" width="9.5" height="18.1"/>
			<rect x="546.9" y="651.6" class="st2" width="7.1" height="15.9"/>
			<g>
				<line class="st12" x1="546.9" y1="655.4" x2="554.2" y2="655.4"/>
				<line class="st12" x1="546.9" y1="659.6" x2="554.2" y2="659.6"/>
				<line class="st12" x1="550.5" y1="651.6" x2="550.5" y2="667.5"/>
				<line class="st12" x1="546.9" y1="663.9" x2="554.2" y2="663.9"/>
			</g>
		</g>
		<g>
			<rect x="558.4" y="650.5" class="st4" width="9.5" height="18.1"/>
			<rect x="559.5" y="651.6" class="st2" width="7.1" height="15.9"/>
			<g>
				<line class="st12" x1="559.5" y1="655.4" x2="566.6" y2="655.4"/>
				<line class="st12" x1="559.5" y1="659.6" x2="566.6" y2="659.6"/>
				<line class="st12" x1="563.1" y1="651.6" x2="563.1" y2="667.5"/>
				<line class="st12" x1="559.5" y1="663.9" x2="566.6" y2="663.9"/>
			</g>
		</g>
		<g>
			<rect x="488.1" y="650.5" class="st4" width="9.5" height="18.1"/>
			<rect x="489.4" y="651.6" class="st2" width="7.1" height="15.9"/>
			<g>
				<line class="st12" x1="489.4" y1="655.4" x2="496.5" y2="655.4"/>
				<line class="st12" x1="489.4" y1="659.6" x2="496.5" y2="659.6"/>
				<line class="st12" x1="492.9" y1="651.6" x2="492.9" y2="667.5"/>
				<line class="st12" x1="489.4" y1="663.9" x2="496.5" y2="663.9"/>
			</g>
		</g>
		<g>
			<rect x="500.6" y="650.5" class="st4" width="9.5" height="18.1"/>
			<rect x="501.7" y="651.6" class="st2" width="7.1" height="15.9"/>
			<g>
				<line class="st12" x1="501.7" y1="655.4" x2="508.8" y2="655.4"/>
				<line class="st12" x1="501.7" y1="659.6" x2="508.8" y2="659.6"/>
				<line class="st12" x1="505.3" y1="651.6" x2="505.3" y2="667.5"/>
				<line class="st12" x1="501.7" y1="663.9" x2="508.8" y2="663.9"/>
			</g>
		</g>
		<line class="st10" x1="618.4" y1="612.3" x2="570.9" y2="612.3"/>
		<line class="st10" x1="618.4" y1="618.2" x2="570.9" y2="618.2"/>
		<g>
			<polyline class="st10" points="571,644.5 571,618.5 576.5,618.5 576.5,644.5 			"/>
			<line class="st10" x1="571" y1="671.7" x2="571" y2="647.9"/>
			<rect x="569.4" y="616.4" class="st11" width="8.8" height="3.5"/>
			<rect x="569.4" y="644.5" class="st11" width="8.8" height="3.5"/>
		</g>
		<g>
			<polyline class="st10" points="613.2,644.5 613.2,618.5 618.9,618.5 618.9,644.5 			"/>
			<rect x="611.7" y="616.4" class="st11" width="8.8" height="3.5"/>
			<rect x="611.7" y="644.5" class="st11" width="8.8" height="3.5"/>
		</g>
		<g>
			<rect x="591.8" y="618.5" class="st11" width="5.5" height="26"/>
			<rect x="590.2" y="616.4" class="st11" width="8.8" height="3.5"/>
			<rect x="590.2" y="644.5" class="st11" width="8.8" height="3.5"/>
		</g>
		<polygon class="st0" points="437.4,671.7 485,671.7 485,612.3 461.2,595.9 437.4,612.3 		"/>
		<polygon class="st4" points="475.4,612.3 461.2,602.6 446.8,612.3 444.3,612.3 461.2,600.7 478,612.3 		"/>
		<polyline class="st10" points="478.7,612.3 461.2,600.2 443.7,612.3 		"/>
		<rect x="443.1" y="618.2" class="st4" width="36.4" height="28.2"/>
		<line class="st10" x1="477.9" y1="646.4" x2="442.9" y2="646.4"/>
		<path class="st2" d="M472.5,654.4c1.9,0,3.5,1.6,3.5,3.5v13.9h-6.9v-13.9C469.1,656,470.6,654.4,472.5,654.4z"/>
		<path class="st2" d="M461.2,654.4c1.9,0,3.5,1.6,3.5,3.5v13.9h-6.9v-13.9C457.7,656,459.3,654.4,461.2,654.4z"/>
		<path class="st2" d="M449.7,654.4c1.9,0,3.5,1.6,3.5,3.5v13.9h-6.9v-13.9C446.2,656,447.8,654.4,449.7,654.4z"/>
		<line class="st10" x1="437.4" y1="612.3" x2="485" y2="612.3"/>
		<line class="st10" x1="437.4" y1="618.2" x2="485" y2="618.2"/>
		<g>
			<polyline class="st10" points="484.8,644.5 484.8,618.5 479.2,618.5 479.2,644.5 			"/>
			<line class="st10" x1="484.8" y1="671.7" x2="484.8" y2="647.9"/>
			<rect x="477.6" y="616.4" class="st11" width="8.8" height="3.5"/>
			<rect x="477.6" y="644.5" class="st11" width="8.8" height="3.5"/>
		</g>
		<g>
			<polyline class="st10" points="442.4,644.5 442.4,618.5 436.9,618.5 436.9,644.5 			"/>
			<rect x="435.3" y="616.4" class="st11" width="8.8" height="3.5"/>
			<rect x="435.3" y="644.5" class="st11" width="8.8" height="3.5"/>
		</g>
		<g>
			<rect x="458.4" y="618.5" class="st11" width="5.5" height="26"/>
			<rect x="456.8" y="616.4" class="st11" width="8.8" height="3.5"/>
			<rect x="456.8" y="644.5" class="st11" width="8.8" height="3.5"/>
		</g>
		<path class="st13" d="M525.2,526.5c0-4.4,2.7-6.6,2.7-6.6s2.7,2.2,2.7,6.6"/>
	</g>
</g>
<g id="banks">
	<g>
		<g>
			<rect x="296.4" y="581.4" class="st2" width="26.7" height="91.2"/>
			<rect x="299.3" y="558.9" class="st2" width="21.1" height="26"/>
			<rect x="303.3" y="547.9" class="st2" width="13.2" height="23"/>
			<rect x="306.8" y="553.5" class="st3" width="6" height="4.2"/>
			<rect x="306.8" y="550" class="st3" width="6" height="1.9"/>
			<g>
				<line class="st14" x1="302.9" y1="565.2" x2="316.7" y2="565.2"/>
				<line class="st14" x1="302.9" y1="568.8" x2="316.7" y2="568.8"/>
				<line class="st14" x1="302.9" y1="572.3" x2="316.7" y2="572.3"/>
				<line class="st14" x1="302.9" y1="575.9" x2="316.7" y2="575.9"/>
			</g>
			<g>
				<line class="st14" x1="300.9" y1="586.8" x2="318.8" y2="586.8"/>
				<line class="st14" x1="300.9" y1="590.7" x2="318.8" y2="590.7"/>
				<line class="st14" x1="300.9" y1="594.5" x2="318.8" y2="594.5"/>
				<line class="st14" x1="300.9" y1="598.4" x2="318.8" y2="598.4"/>
				<line class="st14" x1="300.9" y1="602.3" x2="318.8" y2="602.3"/>
				<line class="st14" x1="300.9" y1="606.1" x2="318.8" y2="606.1"/>
				<line class="st14" x1="300.9" y1="610" x2="318.8" y2="610"/>
				<line class="st14" x1="300.9" y1="613.9" x2="318.8" y2="613.9"/>
				<line class="st14" x1="300.9" y1="617.7" x2="318.8" y2="617.7"/>
				<line class="st14" x1="300.9" y1="621.6" x2="318.8" y2="621.6"/>
				<line class="st14" x1="300.9" y1="625.4" x2="318.8" y2="625.4"/>
				<line class="st14" x1="300.9" y1="629.3" x2="318.8" y2="629.3"/>
				<line class="st14" x1="300.9" y1="633.2" x2="318.8" y2="633.2"/>
				<line class="st14" x1="300.9" y1="637" x2="318.8" y2="637"/>
				<line class="st14" x1="300.9" y1="640.9" x2="318.8" y2="640.9"/>
				<line class="st14" x1="300.9" y1="644.8" x2="318.8" y2="644.8"/>
				<line class="st14" x1="300.9" y1="648.6" x2="318.8" y2="648.6"/>
				<line class="st14" x1="300.9" y1="652.5" x2="318.8" y2="652.5"/>
				<line class="st14" x1="300.9" y1="656.4" x2="318.8" y2="656.4"/>
				<line class="st14" x1="300.9" y1="660.2" x2="318.8" y2="660.2"/>
			</g>
		</g>
		<g>
			<rect x="329.4" y="575.6" class="st0" width="32.9" height="97"/>
			<path class="st4" d="M351.4,672.6c-2.8,0-8.2,0-11,0c0-70.2-11-97-11-97h32.9C362.4,575.6,351.4,603.1,351.4,672.6z"/>
			<rect x="336.5" y="580.6" class="st3" width="18.8" height="2.7"/>
			<g>
				<line class="st15" x1="332.7" y1="592.4" x2="359.1" y2="592.4"/>
				<line class="st15" x1="332.7" y1="596" x2="359.1" y2="596"/>
				<line class="st15" x1="332.7" y1="599.7" x2="359.1" y2="599.7"/>
				<line class="st15" x1="332.7" y1="603.5" x2="359.1" y2="603.5"/>
				<line class="st15" x1="332.7" y1="607.1" x2="359.1" y2="607.1"/>
				<line class="st15" x1="332.7" y1="610.8" x2="359.1" y2="610.8"/>
				<line class="st15" x1="332.7" y1="614.5" x2="359.1" y2="614.5"/>
				<line class="st15" x1="332.7" y1="618.2" x2="359.1" y2="618.2"/>
				<line class="st15" x1="332.7" y1="621.9" x2="359.1" y2="621.9"/>
				<line class="st15" x1="332.7" y1="625.6" x2="359.1" y2="625.6"/>
				<line class="st15" x1="332.7" y1="629.3" x2="359.1" y2="629.3"/>
				<line class="st15" x1="332.7" y1="632.9" x2="359.1" y2="632.9"/>
				<line class="st15" x1="332.7" y1="636.7" x2="359.1" y2="636.7"/>
				<line class="st15" x1="332.7" y1="640.3" x2="359.1" y2="640.3"/>
				<line class="st15" x1="332.7" y1="644.1" x2="359.1" y2="644.1"/>
				<line class="st15" x1="332.7" y1="647.8" x2="359.1" y2="647.8"/>
			</g>
		</g>
		<g>
			<g id="etoa9ta9qgia231_1_">
				<g id="etoa9ta9qgia232_1_">
					<path id="etoa9ta9qgia233_1_" class="st2" d="M410,672.4c-3.3,0-6.5,0-9.8-0.1c0-0.5,0-0.8,0-1.3c-0.5-4.7-1.1-9.4-1.4-14.3
						c-0.7-8.7-1.6-17.4-2.2-26.2c-0.7-11-1.4-21.9-1.6-32.9c-0.2-12.6-0.4-25.1,1.1-37.6c0.7-7,2.1-14,4.3-20.9
						c0.7-1.9,2.4-5.8,2.4-5.8s5.3,5.9,7.7,9.1c2.9,3.9,5.6,7.9,8.3,12c0.6,0.8,1,1.9,1,3c0,10,0,20.1,0,30.1
						c-0.1,27.7-0.2,55.2-0.4,82.9c0,0.6,0,1.2,0,1.9c-1.1,0-1.9,0-2.9,0C414.3,672.3,412.1,672.3,410,672.4z"/>
				</g>
			</g>
			<polygon id="etoa9ta9qgia235_1_" class="st2" points="370,571 370,673.4 391.6,673.4 391.6,588.1 			"/>
			<path id="etoa9ta9qgia236_1_" class="st4" d="M391.5,588l-21.3,21.4c0,0,22.2,20.9,21.4,21"/>
			<path id="etoa9ta9qgia237_1_" class="st4" d="M391.2,631l-21.1,21.5c0,0,22.3,20.8,21.5,20.9"/>
		</g>
		<g>
			<g>
				<line class="st16" x1="403.7" y1="557.1" x2="416.8" y2="557.1"/>
				<line class="st16" x1="403.7" y1="561.5" x2="416.8" y2="561.5"/>
				<line class="st16" x1="403.7" y1="566" x2="416.8" y2="566"/>
				<line class="st16" x1="403.7" y1="570.6" x2="416.8" y2="570.6"/>
				<line class="st16" x1="403.7" y1="575.1" x2="416.8" y2="575.1"/>
				<line class="st16" x1="403.7" y1="579.5" x2="416.8" y2="579.5"/>
				<line class="st16" x1="403.7" y1="584" x2="416.8" y2="584"/>
				<line class="st16" x1="403.7" y1="588.5" x2="416.8" y2="588.5"/>
				<line class="st16" x1="403.7" y1="593.1" x2="416.8" y2="593.1"/>
				<line class="st16" x1="403.7" y1="597.5" x2="416.8" y2="597.5"/>
				<line class="st16" x1="403.7" y1="602" x2="416.8" y2="602"/>
				<line class="st16" x1="403.7" y1="606.5" x2="416.8" y2="606.5"/>
				<line class="st16" x1="403.7" y1="611" x2="416.8" y2="611"/>
				<line class="st16" x1="403.7" y1="615.5" x2="416.8" y2="615.5"/>
				<line class="st16" x1="403.7" y1="620" x2="416.8" y2="620"/>
				<line class="st16" x1="403.7" y1="624.5" x2="416.8" y2="624.5"/>
				<line class="st16" x1="403.7" y1="629" x2="416.8" y2="629"/>
				<line class="st16" x1="403.7" y1="633.5" x2="416.8" y2="633.5"/>
				<line class="st16" x1="403.7" y1="638" x2="416.8" y2="638"/>
				<line class="st16" x1="403.7" y1="642.5" x2="416.8" y2="642.5"/>
				<line class="st16" x1="403.7" y1="647" x2="416.8" y2="647"/>
				<line class="st16" x1="403.7" y1="651.4" x2="416.8" y2="651.4"/>
				<line class="st16" x1="403.7" y1="656" x2="416.8" y2="656"/>
				<line class="st16" x1="403.7" y1="660.5" x2="416.8" y2="660.5"/>
				<line class="st16" x1="403.7" y1="664.9" x2="416.8" y2="664.9"/>
				<line class="st16" x1="403.7" y1="669.4" x2="416.8" y2="669.4"/>
			</g>
		</g>
	</g>
</g>
<g id="artscience">
	<g>
		<rect x="415.2" y="169" class="st4" width="25.3" height="1.7"/>
		<g>
			<polygon class="st2" points="436.7,163.1 419.1,163.1 415.2,155.1 440.6,155.1 			"/>
			<polygon class="st0" points="436.7,163.1 419.1,163.1 415.2,169 440.6,169 			"/>
			<rect x="424.1" y="157.5" class="st4" width="7.5" height="2.9"/>
			<path class="st4" d="M395.5,116h-3.4c0,0-5.8,29.7,29,35.8l11.1-5.1C432.2,146.6,405.9,141.4,395.5,116z"/>
			<path class="st4" d="M443.5,102.5h3.4c0,0,16.2,44.9-11.8,49.7l-14.6-3.7C420.5,148.6,438.9,133.1,443.5,102.5z"/>
			<path class="st4" d="M383.8,125h-1.4c0,0-1.1,19.7,29.7,25.3l0.6-4.2C412.7,146.2,392.1,139.3,383.8,125z"/>
			<path class="st4" d="M427.3,106.2h-1.8c0,0-1.6,17.2,4.8,43.8l9.3-0.8C439.6,149.2,432.9,136.2,427.3,106.2z"/>
			<path class="st0" d="M446.9,102.5h12.5c0,0,9.1,48.1-18.8,52.9H425C425,155.5,443,132.5,446.9,102.5z"/>
			<path class="st0" d="M425.5,106.2h-14.1c0,0-14.1,49.3,13,49.3H440C439.9,155.5,431.1,136.2,425.5,106.2z"/>
			<path class="st0" d="M392.1,116h-7.7c0,0-1,33.4,33.9,39.5h11.1C429.3,155.5,404.5,147.3,392.1,116z"/>
			<path class="st0" d="M382.3,125h-3.7c0,0,5.8,24.9,36.6,30.5h11.1C426.3,155.5,397.6,149.4,382.3,125z"/>
		</g>
	</g>
</g>
<g id="trees">
</g>
<g id="water_lines">
	<path class="st17" d="M508.7,81.7"/>
</g>
<g id="clouds_right">
</g>
<g id="clouds_left">
	<path class="st18" d="M687.6,15.6h3.8l0,0h0.1c0.8,0,1.5,0.7,1.5,1.5l0,0c0,0.8-0.7,1.5-1.5,1.5h-0.1l0,0h-20.8
		c-0.8,0-1.5,0.7-1.5,1.5l0,0c0,0.8,0.7,1.5,1.5,1.5H688h0.1h1.3c0.8,0,1.5,0.7,1.5,1.5l0,0c0,0.8-0.7,1.5-1.5,1.5h-1.3H688h-2.5
		c-0.8,0-1.5,0.7-1.5,1.5l0,0c0,0.8,0.7,1.5,1.5,1.5h18.9c0.8,0,1.5-0.7,1.5-1.5l0,0c0-0.8-0.7-1.5-1.5-1.5h-1.8c-0.1,0-0.2,0-0.3,0
		h-0.9c-0.8,0-1.5-0.7-1.5-1.5l0,0c0-0.8,0.7-1.5,1.5-1.5h7.2c0.7-0.1,1.2-0.7,1.2-1.4l0,0c0-0.8-0.7-1.5-1.5-1.5h-9l0,0h-0.9
		c-0.8,0-1.5-0.7-1.5-1.5l0,0c0-0.8,0.7-1.5,1.5-1.5l0,0c0.1,0,16.8,0,16.9-0.1c0.3-0.1,0.8-0.7,0.8-1.1v-0.8c0-0.5-0.7-1.1-1.2-1.1
		h-16.8H697h-9.5c-0.7,0-1.2,0.5-1.2,1.2v0.5C686.3,15,686.9,15.6,687.6,15.6z"/>
	<path class="st18" d="M626.1,36.7h-13l0,0H613c-0.8,0-1.4-0.6-1.4-1.4l0,0c0-0.8,0.6-1.4,1.4-1.4l0,0l0,0h5.7
		c0.8,0,1.4-0.6,1.4-1.4l0,0c0-0.8-0.6-1.4-1.4-1.4h-2.5h-0.1h-1.3c-0.8,0-1.4-0.6-1.4-1.4l0,0c0-0.8,0.6-1.4,1.4-1.4h1.2h0.1h5.7
		c0.8,0,1.4-0.6,1.4-1.4l0,0c0-0.8-0.6-1.4-1.4-1.4h-21.3c-0.8,0-1.4,0.6-1.4,1.4l0,0c0,0.8,0.6,1.4,1.4,1.4h1.7c0.1,0,0.2,0,0.3,0
		h0.8c0.8,0,1.4,0.6,1.4,1.4l0,0c0,0.8-0.6,1.4-1.4,1.4h-11.5c-0.6,0.1-1.1,0.7-1.1,1.4l0,0c0,0.8,0.6,1.4,1.4,1.4h13.3l0,0h0.8
		c0.8,0,1.4,0.6,1.4,1.4l0,0c0,0.8-0.6,1.4-1.4,1.4l0,0c-0.5,0-0.8,0.4-0.8,0.8v1.2c0,0.5,0.4,0.8,0.8,0.8h1.2h18.4
		c0.6,0,1.2-0.5,1.2-1.2v-0.5C627.2,37.2,626.7,36.7,626.1,36.7z"/>
	<path class="st18" d="M748.2,44.5H746c0,0,0,0-0.1,0h-1.1c-0.7,0-1.2-0.5-1.2-1.2l0,0c0-0.7,0.5-1.2,1.2-1.2h1.1c0,0,0,0,0.1,0h5
		c0.7,0,1.2-0.5,1.2-1.2l0,0c0-0.7-0.5-1.2-1.2-1.2h-28.6c-0.7,0-1.2,0.5-1.2,1.2l0,0c0,0.7,0.5,1.2,1.2,1.2H734c0.1,0,0.2,0,0.2,0
		h0.7c0.7,0,1.2,0.5,1.2,1.2l0,0c0,0.7-0.5,1.2-1.2,1.2h-6.3c-0.5,0.1-1,0.6-1,1.2l0,0c0,0.7,0.5,1.2,1.2,1.2h19.4
		c0.7,0,1.2-0.5,1.2-1.2l0,0C749.5,45,748.9,44.5,748.2,44.5z"/>
</g>
<g id="Water">
	<g>
		<g id="boat_1_">
			<rect x="754.6" y="579.5" class="st3" width="44.3" height="1.5"/>
			<polygon class="st4" points="754.6,586.5 799,586.5 799,581 754.6,581 			"/>
			<polygon class="st2" points="754.7,591 799.8,591 801.4,585.5 747.6,585.5 			"/>
			<rect x="755" y="569.8" class="st2" width="44.8" height="2.1"/>
			<polyline class="st19" points="798.6,579.5 798.6,576.7 758.2,576.7 758.2,579.5 			"/>
			<line class="st19" x1="798.6" y1="571.4" x2="798.6" y2="576.5"/>
			<line class="st19" x1="791.8" y1="571.4" x2="791.8" y2="579.5"/>
			<line class="st19" x1="784.9" y1="571.4" x2="784.9" y2="579.5"/>
			<line class="st19" x1="778" y1="571.4" x2="778" y2="579.5"/>
			<line class="st19" x1="764.9" y1="576.8" x2="764.9" y2="579.5"/>
			<line class="st19" x1="771.6" y1="576.8" x2="771.6" y2="579.5"/>
			<line class="st19" x1="758.2" y1="571.4" x2="758.2" y2="579.5"/>
			<g>
				<path class="st4" d="M797.3,573.3c0,0.7,0.6,1.3,1.3,1.3s1.3-0.6,1.3-1.3s-0.6-1.3-1.3-1.3C797.9,572,797.3,572.6,797.3,573.3z"
					/>
				<path class="st4" d="M790.5,573.3c0,0.7,0.6,1.3,1.3,1.3s1.3-0.6,1.3-1.3s-0.6-1.3-1.3-1.3C791.1,572,790.5,572.6,790.5,573.3z"
					/>
				<path class="st4" d="M783.6,573.3c0,0.7,0.6,1.3,1.3,1.3s1.3-0.6,1.3-1.3s-0.6-1.3-1.3-1.3S783.6,572.6,783.6,573.3z"/>
				<path class="st4" d="M776.7,573.3c0,0.7,0.6,1.3,1.3,1.3s1.3-0.6,1.3-1.3s-0.6-1.3-1.3-1.3S776.7,572.6,776.7,573.3z"/>
				<path class="st4" d="M770.3,573.3c0,0.7,0.6,1.3,1.3,1.3s1.3-0.6,1.3-1.3s-0.6-1.3-1.3-1.3C770.9,572,770.3,572.6,770.3,573.3z"
					/>
				<path class="st4" d="M763.4,573.3c0,0.7,0.6,1.3,1.3,1.3s1.3-0.6,1.3-1.3s-0.6-1.3-1.3-1.3S763.4,572.6,763.4,573.3z"/>
				<path class="st4" d="M756.8,573.3c0,0.7,0.6,1.3,1.3,1.3s1.3-0.6,1.3-1.3s-0.6-1.3-1.3-1.3C757.4,572,756.8,572.6,756.8,573.3z"
					/>
			</g>
		</g>
		<g id="water_lines_1_">
			<g>
				<g>
					<line class="st20" x1="695.6" y1="600.6" x2="704.9" y2="600.6"/>
					<line class="st21" x1="711.7" y1="600.6" x2="793.3" y2="600.6"/>
					<line class="st20" x1="806.9" y1="600.6" x2="816.2" y2="600.6"/>
				</g>
			</g>
			<line class="st22" x1="914.2" y1="600.6" x2="793.6" y2="600.6"/>
			<line class="st22" x1="895.6" y1="600.6" x2="1016.3" y2="600.6"/>
			<g>
				<g>
					<line class="st20" x1="713.7" y1="608.7" x2="723" y2="608.7"/>
					<line class="st21" x1="729.8" y1="608.7" x2="811.4" y2="608.7"/>
					<line class="st20" x1="825" y1="608.7" x2="834.3" y2="608.7"/>
				</g>
			</g>
			<line class="st23" x1="730.6" y1="617.6" x2="797.3" y2="617.6"/>
			<line class="st23" x1="861.3" y1="611.3" x2="914" y2="611.3"/>
			<line class="st23" x1="920.1" y1="611.3" x2="1006.3" y2="611.3"/>
			<line class="st23" x1="985.5" y1="621.8" x2="1013.3" y2="621.8"/>
			<path class="st23" d="M996,623.2"/>
		</g>
		<g id="merlion">
			<path class="st0" d="M899,488.7c0,0,0.8-4.8,6.2-5.8c0,0,2.6-4,14.4-1c0,0,10.5,2.4,12.6,12c2.1,9.5,3.1,12.9,3.1,12.9l-3.4,3.1
				l4.9,17.5c0,0-2.6,0-4.7,0l6,12.6c0,0-2.6,1.7-5.8,1.7c0,0,1.8,5.6,0.7,21c-1.1,15.4-6,20.4-17.1,20.3c-11.1-0.2-21-0.2-24.3-7.1
				c-3.3-6.9,1.9-15.3,1.9-22.4c0-7.2-2.3-12.5-5.7-18s-5.3-5.1-4.5-7.1s3.6-1.4,5.1-0.7c0,0,1.7-1.6,3.2,0.3c0,0-0.9-4.2,1.1-10.4
				c0,0-3.3-0.1-3.6-2.7c-0.3-2.6,1.4-3.9,2-4.4l0.5-2l1.1,1.4c0,0,4.9,0.7,5.7-1.3s0.7-4.3-1.2-4.4s-4.8,1-4.8,1l-0.8,2.9l-1.8-0.7
				l-0.3,1.8c0,0-1.5-0.3-2.3-0.8s-2.6-2.6-2.1-6.1c0,0-2-2-0.7-3.8s2.5-2.2,4.9-2.4c0,0,2.1-1.2,3.7-1.6
				C893.7,491.7,895.3,489.8,899,488.7z"/>
			<path class="st24" d="M904.2,567.4c0,0-3.2,0.6-3.4-2.5c-0.1-3.1,1.7-4.1,4-3.6C907.1,561.8,908.4,566.7,904.2,567.4z"/>
			<path class="st25" d="M887.8,508.2c-0.1-0.3,0.1-1,0.4-1.2c0.4-0.3,4.3-2.1,4.3-2.1s2.9-1.1,4.8-1c1.9,0.1,2,2.4,1.2,4.4
				s-5.7,1.3-5.7,1.3l-1.5,0.3"/>
			<path class="st25" d="M909.5,482.5c0,0,4,2.6,4,8.2c0.1,8.7-8.2,20.2-8.1,36.8l26.6-0.2"/>
			<path class="st25" d="M915.9,488c0,0,1.8,3.2-0.8,13.4c-2.6,10.2-4.6,16.3-2.9,26.1"/>
			<path class="st25" d="M918.8,488c0,0,1.7,5.1,0,13.4c-1.9,8.6-2.5,19.5-0.9,26.1"/>
			<path class="st25" d="M922.1,488c0,0,2.9,6.1,1.8,13.4c-2.1,13.7-1.2,19.9,0.5,26.1"/>
			<path class="st25" d="M927.1,487.9c4.9,6.8,1.7,12.4,4.7,21.9"/>
			<path class="st25" d="M919.5,527.5l-0.3,12.6c0,0,2.9,1.7,13,1.6"/>
			<path class="st25" d="M905.1,482.9c0,0,7.1,4.1,3.1,15.1c-3.2,8.8-16.6,19.9-16.5,29.8c0,8.9,0.1,12.6,0.1,12.6l16-5.3v-7.5"/>
			<path class="st25" d="M898.6,538.4c0,0,1.1,1.7,0.5,4c0,0,2.3-2.9,4.9-1.7c3,1.4,1.7,4.9,1.7,4.9s2.6-1.3,4.7,0.6
				c2.4,2.3,0.3,5.5,0.3,5.5s3-0.7,4,2.7c0.8,3.1-2.5,4.8-2.5,4.8s3,1.3,1.9,4.6s-4.5,2.7-4.5,2.7s0.6,3.6-3,4.2
				c-3.4,0.5-5.6-1.7-5.8-5.3"/>
			<path class="st2" d="M895.7,494.5c0,0-0.1-1.8,1.3-2.1c1.3-0.2,3.3,0.1,3.3,0.1S898,494.8,895.7,494.5z"/>
			<path class="st25" d="M885.2,502c0,0,0.6,0.2,1-0.3c0.9-1,3-3.8,3.1-5.9"/>
			<path class="st25" d="M885.8,502.1c0,0,0.2,3.4,2.3,4.9"/>
			<polygon class="st26" points="900.5,488.2 905.7,481 907.7,489.7 			"/>
			<polygon class="st2" points="902,487.7 904.7,483.8 905.5,488.5 			"/>
			<path class="st25" d="M892.8,540.3c1.5,4.1,2.5,9.3,2.3,15.9"/>
			<path class="st25" d="M886.4,529.7c0,0,2.8,2.6,5.3,7.9"/>
			<path class="st25" d="M895.7,539.3c1.2,4.3,1.9,10,1,16.8"/>
			<path class="st25" d="M891,529.3c0,0,0.3,0.3,0.7,1"/>
			<path class="st25" d="M902.9,543.3c0,0-1.6,4.7-4.8,13.1"/>
			<path class="st25" d="M908.6,548.2c0,0-5.1,1.9-9.3,8.8"/>
			<path class="st25" d="M900.4,557.7c0,0,4.9-4.4,11.9-2.5"/>
			<path class="st25" d="M901.2,558.9c3.2-1.8,9.5-0.7,10.8,4.3"/>
			<path class="st25" d="M901.7,560.4c5.8-2.7,10.3,5.5,4,8.9"/>
			<g>
				<path class="st4" d="M906.2,538c0,0,0.7,2,2.9,1.9c1.5,0,2.2-1.9,2.2-1.9s-0.1,2.9-2.5,2.9C906.5,540.9,906.2,538,906.2,538z"/>
				<path class="st4" d="M909.3,536c0,0,0.7,2,2.9,1.9c1.6,0,2.2-1.9,2.2-1.9s-0.1,2.9-2.5,2.9C909.6,538.9,909.3,536,909.3,536z"/>
				<path class="st4" d="M912.8,538.1c0,0,0.7,2,2.9,1.9c1.6,0,2.2-1.9,2.2-1.9s-0.1,2.9-2.5,2.9C913.1,541,912.8,538.1,912.8,538.1
					z"/>
			</g>
			<g>
				<path class="st4" d="M920,551.7c0,0,0.7,2,2.9,1.9c1.6-0.1,2.2-1.9,2.2-1.9s-0.1,2.9-2.5,2.9C920.3,554.6,920,551.7,920,551.7z"
					/>
				<path class="st4" d="M923.1,549.6c0,0,0.7,2,2.9,1.9c1.6,0,2.2-1.9,2.2-1.9s-0.1,2.9-2.5,2.9
					C923.4,552.5,923.1,549.6,923.1,549.6z"/>
				<path class="st4" d="M926.6,551.8c0,0,0.7,2,2.9,1.9c1.6-0.1,2.2-1.9,2.2-1.9s-0.1,2.9-2.5,2.9
					C926.9,554.7,926.6,551.8,926.6,551.8z"/>
			</g>
			<g>
				<path class="st4" d="M909.3,570.2c0,0,0.7,2,2.9,1.9c1.5,0,2.2-1.9,2.2-1.9s-0.1,2.9-2.5,2.9
					C909.6,573.1,909.3,570.2,909.3,570.2z"/>
				<path class="st4" d="M912.4,568.1c0,0,0.7,2,2.9,1.9c1.6,0,2.2-1.9,2.2-1.9s-0.1,2.9-2.5,2.9C912.7,571,912.4,568.1,912.4,568.1
					z"/>
				<path class="st4" d="M916,570.2c0,0,0.7,2,2.9,1.9c1.6-0.1,2.2-1.9,2.2-1.9s-0.1,2.9-2.5,2.9C916.3,573.1,916,570.2,916,570.2z"
					/>
			</g>
			<g>
				<path class="st4" d="M893.9,573.8c0,0,0.6,1.8,2.6,1.7c1.4,0,2-1.7,2-1.7s-0.1,2.6-2.2,2.6C894.1,576.4,893.9,573.8,893.9,573.8
					z"/>
				<path class="st4" d="M896.6,572c0,0,0.6,1.8,2.6,1.7c1.4,0,2-1.7,2-1.7s-0.1,2.6-2.2,2.6C896.9,574.6,896.6,572,896.6,572z"/>
				<path class="st4" d="M899.9,573.9c0,0,0.6,1.8,2.6,1.7c1.4,0,2-1.7,2-1.7s-0.1,2.6-2.2,2.6C900.1,576.5,899.9,573.9,899.9,573.9
					z"/>
			</g>
			<g>
				<path class="st4" d="M920,545.5c0,0,0.7,2,2.9,1.9c1.5,0,2.2-1.9,2.2-1.9s-0.1,2.9-2.5,2.9C920.3,548.5,920,545.5,920,545.5z"/>
				<path class="st4" d="M916.1,543.6c0,0,0.7,2,2.9,1.9c1.5-0.1,2.2-1.9,2.2-1.9s-0.1,2.9-2.5,2.9
					C916.4,546.5,916.1,543.6,916.1,543.6z"/>
			</g>
			<g>
				<path class="st4" d="M912.7,533.6c0,0,0.7,2,2.9,1.9c1.6-0.1,2.2-1.9,2.2-1.9s-0.1,2.9-2.5,2.9
					C913,536.5,912.7,533.6,912.7,533.6z"/>
				<path class="st4" d="M908.8,531.6c0,0,0.7,2,2.9,1.9c1.5,0,2.2-1.9,2.2-1.9s-0.1,2.9-2.5,2.9
					C909.1,534.5,908.8,531.6,908.8,531.6z"/>
			</g>
			<g>
				<path class="st4" d="M920.5,561.1c0,0,0.7,2,2.9,1.9c1.5,0,2.2-1.9,2.2-1.9s-0.1,2.9-2.5,2.9C920.8,564,920.5,561.1,920.5,561.1
					z"/>
				<path class="st4" d="M916.5,559.1c0,0,0.7,2,2.9,1.9c1.6,0,2.2-1.9,2.2-1.9s-0.1,2.9-2.5,2.9C916.8,562,916.5,559.1,916.5,559.1
					z"/>
			</g>
			<g>
				<path class="st4" d="M921.4,576.5c0,0,0.7,2,2.9,1.9c1.6,0,2.2-1.9,2.2-1.9s-0.1,2.9-2.5,2.9
					C921.7,579.4,921.4,576.5,921.4,576.5z"/>
				<path class="st4" d="M917.5,574.5c0,0,0.7,2,2.9,1.9c1.5,0,2.2-1.9,2.2-1.9s-0.1,2.9-2.5,2.9
					C917.8,577.4,917.5,574.5,917.5,574.5z"/>
			</g>
			<g>
				<path class="st4" d="M895.7,564.9c0,0,0.6,1.5,2.2,1.4c1.2,0,1.7-1.5,1.7-1.5s-0.1,2.2-1.9,2.2
					C895.9,567.1,895.7,564.9,895.7,564.9z"/>
				<path class="st4" d="M892.7,563.4c0,0,0.6,1.5,2.2,1.4c1.2,0,1.7-1.5,1.7-1.5s0,2.2-1.9,2.2
					C892.9,565.7,892.7,563.4,892.7,563.4z"/>
			</g>
			<g>
				<path class="st4" d="M858.8,593.7c0,0,6.3-10.4,19.5-13.2c13.2-2.8,19.9,2.3,34.8,2.2c15-0.1,20.5-7.4,33.2-5.4
					s21.2,15.8,21.2,15.8L858.8,593.7z"/>
				<path class="st25" d="M963.3,593.1c-2.6-4.5-8.5-10.9-17.3-12.3c-12.1-1.9-18.6,4.7-32.8,4.7c-14.2,0.1-21.3-4.5-33.9-1.8
					c-8.6,1.8-13.4,6.8-16,9.9"/>
				<path class="st25" d="M959.2,593.1c-3.8-4.3-7.5-7.6-14.5-8.5c-11.5-1.6-18.4,3.6-31.9,3.7c-13.5,0.1-18.9-3.6-30.8-1.4
					c-6.4,1.2-10.2,3.8-13,6.7"/>
				<path class="st25" d="M954.3,593.1c-1.7-2.1-7.3-5.7-13.7-5.4c-10.5,0.5-14.7,3.5-27,3.6c-14.7,0.1-17-2.4-27.8-1.4
					c-5.8,0.5-8.9,2.4-10.5,3.7"/>
			</g>
		</g>
	</g>
</g>
<g>
	<line class="st27" x1="71.3" y1="232.6" x2="71.3" y2="330"/>
	<line class="st27" x1="58.7" y1="234.3" x2="83.9" y2="328.3"/>
	<line class="st27" x1="47" y1="239.2" x2="95.6" y2="323.5"/>
	<line class="st27" x1="36.9" y1="246.9" x2="105.7" y2="315.7"/>
	<line class="st27" x1="29.1" y1="257" x2="113.5" y2="305.7"/>
	<line class="st27" x1="24.3" y1="268.7" x2="118.3" y2="293.9"/>
	<line class="st27" x1="22.6" y1="281.3" x2="120" y2="281.3"/>
	<line class="st27" x1="24.3" y1="293.9" x2="118.3" y2="268.7"/>
	<line class="st27" x1="29.1" y1="305.7" x2="113.5" y2="257"/>
	<line class="st27" x1="36.9" y1="315.7" x2="105.7" y2="246.9"/>
	<line class="st27" x1="47" y1="323.5" x2="95.6" y2="239.2"/>
	<line class="st27" x1="58.7" y1="328.3" x2="83.9" y2="234.3"/>
</g>
<path class="st4" d="M76.7,281.3c0,3-2.4,5.4-5.4,5.4s-5.4-2.4-5.4-5.4s2.4-5.4,5.4-5.4C74.3,276,76.7,278.4,76.7,281.3z"/>
<path class="st2" d="M73.7,281.3c0,1.4-1.1,2.5-2.5,2.5s-2.5-1.1-2.5-2.5s1.1-2.5,2.5-2.5C72.6,278.9,73.7,280,73.7,281.3z"/>
<path class="st28" d="M121.6,281.3c0,27.8-22.5,50.3-50.3,50.3S21,309.1,21,281.3S43.5,231,71.3,231S121.6,253.5,121.6,281.3z"/>
<path class="st28" d="M116.2,281.3c0,24.8-20.1,44.9-44.9,44.9s-44.9-20.1-44.9-44.9s20.1-44.9,44.9-44.9S116.2,256.5,116.2,281.3z"
	/>
<path class="st29" d="M112.9,281.3c0,22.9-18.6,41.6-41.6,41.6s-41.6-18.6-41.6-41.6s18.6-41.6,41.6-41.6
	C94.2,239.8,112.9,258.4,112.9,281.3z"/>
<polyline class="st28" points="85.8,352.7 71.3,281.3 56.8,352.7 "/>
<g>
	<g>
		<path class="st2" d="M73.4,229c0,1.1-0.9,2.1-2.1,2.1c-1.1,0-2.1-0.9-2.1-2.1c0-1.1,0.9-2.1,2.1-2.1
			C72.4,226.9,73.4,227.8,73.4,229z"/>
		<path class="st2" d="M73.4,333.7c0,1.1-0.9,2.1-2.1,2.1c-1.1,0-2.1-0.9-2.1-2.1c0-1.1,0.9-2.1,2.1-2.1
			C72.4,331.6,73.4,332.6,73.4,333.7z"/>
	</g>
	<g>
		<path class="st2" d="M59.7,230.2c0.3,1.1-0.4,2.2-1.5,2.5s-2.2-0.4-2.5-1.5s0.4-2.2,1.5-2.5S59.4,229.1,59.7,230.2z"/>
		<path class="st2" d="M86.8,331.4c0.3,1.1-0.4,2.2-1.5,2.5s-2.2-0.4-2.5-1.5s0.4-2.2,1.5-2.5S86.6,330.3,86.8,331.4z"/>
	</g>
	<g>
		<path class="st2" d="M46.9,234.9c0.6,1,0.2,2.3-0.8,2.8c-1,0.6-2.3,0.2-2.8-0.8c-0.6-1-0.2-2.3,0.8-2.8
			C45.1,233.6,46.3,233.9,46.9,234.9z"/>
		<path class="st2" d="M99.3,325.6c0.6,1,0.2,2.3-0.8,2.8c-1,0.6-2.3,0.2-2.8-0.8c-0.6-1-0.2-2.3,0.8-2.8
			C97.4,324.3,98.7,324.7,99.3,325.6z"/>
	</g>
	<g>
		<path class="st2" d="M35.7,242.8c0.8,0.8,0.8,2.1,0,2.9c-0.8,0.8-2.1,0.8-2.9,0c-0.8-0.8-0.8-2.1,0-2.9
			C33.6,242,34.9,242,35.7,242.8z"/>
		<path class="st2" d="M109.8,316.9c0.8,0.8,0.8,2.1,0,2.9s-2.1,0.8-2.9,0s-0.8-2.1,0-2.9C107.7,316.1,109,316.1,109.8,316.9z"/>
	</g>
	<g>
		<path class="st2" d="M27,253.4c1,0.6,1.3,1.8,0.8,2.8c-0.6,1-1.8,1.3-2.8,0.8c-1-0.6-1.3-1.8-0.8-2.8
			C24.7,253.1,26,252.8,27,253.4z"/>
		<path class="st2" d="M117.7,305.7c1,0.6,1.3,1.8,0.8,2.8c-0.6,1-1.8,1.3-2.8,0.8c-1-0.6-1.3-1.8-0.8-2.8
			C115.4,305.5,116.7,305.2,117.7,305.7z"/>
	</g>
	<g>
		<path class="st2" d="M21.2,265.8c1.1,0.3,1.8,1.4,1.5,2.5s-1.4,1.8-2.5,1.5s-1.8-1.4-1.5-2.5C19,266.1,20.1,265.5,21.2,265.8z"/>
		<path class="st2" d="M122.4,292.9c1.1,0.3,1.8,1.4,1.5,2.5s-1.4,1.8-2.5,1.5s-1.8-1.4-1.5-2.5
			C120.2,293.2,121.3,292.6,122.4,292.9z"/>
	</g>
	<g>
		<path class="st2" d="M18.9,279.3c1.1,0,2.1,0.9,2.1,2.1c0,1.1-0.9,2.1-2.1,2.1c-1.1,0-2.1-0.9-2.1-2.1
			C16.8,280.2,17.8,279.3,18.9,279.3z"/>
		<path class="st2" d="M123.7,279.3c1.1,0,2.1,0.9,2.1,2.1c0,1.1-0.9,2.1-2.1,2.1c-1.1,0-2.1-0.9-2.1-2.1
			C121.6,280.2,122.5,279.3,123.7,279.3z"/>
	</g>
	<g>
		<path class="st2" d="M20.2,292.9c1.1-0.3,2.2,0.4,2.5,1.5s-0.4,2.2-1.5,2.5s-2.2-0.4-2.5-1.5C18.4,294.3,19.1,293.2,20.2,292.9z"
			/>
		<path class="st2" d="M121.3,265.8c1.1-0.3,2.2,0.4,2.5,1.5s-0.4,2.2-1.5,2.5s-2.2-0.4-2.5-1.5
			C119.6,267.2,120.2,266.1,121.3,265.8z"/>
	</g>
	<g>
		<path class="st2" d="M24.9,305.7c1-0.6,2.3-0.2,2.8,0.8c0.6,1,0.2,2.3-0.8,2.8c-1,0.6-2.3,0.2-2.8-0.8
			C23.6,307.6,23.9,306.3,24.9,305.7z"/>
		<path class="st2" d="M115.6,253.4c1-0.6,2.3-0.2,2.8,0.8c0.6,1,0.2,2.3-0.8,2.8c-1,0.6-2.3,0.2-2.8-0.8
			C114.3,255.2,114.6,253.9,115.6,253.4z"/>
	</g>
	<g>
		<path class="st2" d="M32.8,316.9c0.8-0.8,2.1-0.8,2.9,0c0.8,0.8,0.8,2.1,0,2.9s-2.1,0.8-2.9,0C32,319,32,317.7,32.8,316.9z"/>
		<path class="st2" d="M106.9,242.8c0.8-0.8,2.1-0.8,2.9,0s0.8,2.1,0,2.9c-0.8,0.8-2.1,0.8-2.9,0C106.1,245,106,243.6,106.9,242.8z"
			/>
	</g>
	<g>
		<path class="st2" d="M43.3,325.7c0.6-1,1.8-1.3,2.8-0.8c1,0.6,1.3,1.8,0.8,2.8c-0.6,1-1.8,1.3-2.8,0.8
			C43.1,327.9,42.7,326.6,43.3,325.7z"/>
		<path class="st2" d="M95.7,234.9c0.6-1,1.8-1.3,2.8-0.8c1,0.6,1.3,1.8,0.8,2.8c-0.6,1-1.8,1.3-2.8,0.8S95.1,235.9,95.7,234.9z"/>
	</g>
	<g>
		<path class="st2" d="M55.7,331.4c0.3-1.1,1.4-1.8,2.5-1.5s1.8,1.4,1.5,2.5s-1.4,1.8-2.5,1.5C56.1,333.6,55.4,332.5,55.7,331.4z"/>
		<path class="st2" d="M82.8,230.2c0.3-1.1,1.4-1.8,2.5-1.5s1.8,1.4,1.5,2.5s-1.4,1.8-2.5,1.5C83.2,232.5,82.5,231.3,82.8,230.2z"/>
	</g>
</g>
<rect x="49.8" y="346.1" class="st0" width="43.1" height="8.1"/>
<rect x="49.8" y="354.2" class="st2" width="43.1" height="2.2"/>
<g id="tree_2">
	<path class="st30" d="M236.6,646.8c0.2-3.3,1.5-6.2,3.9-8.3c-3.3,1.9-5.6,5.6-5.6,9.7c-0.2,6.6,4.8,12.2,11.4,12.4
		c3.3,0.2,6.4-1.2,8.5-3.1c-1.9,1.2-4.3,1.7-6.8,1.7C241.4,658.8,236.4,653.3,236.6,646.8z"/>
	<g>
		<line class="st31" x1="245.7" y1="671.2" x2="246.9" y2="642.7"/>
		<polygon class="st32" points="244,671.2 246.9,642.7 247.5,671.4 		"/>
	</g>
	<g>
		<line class="st31" x1="246.7" y1="649.1" x2="250.4" y2="645.2"/>
		<polygon class="st32" points="246.3,648.7 250.4,645.2 247.1,649.5 		"/>
	</g>
	<g>
		<line class="st31" x1="246.3" y1="656.8" x2="239.9" y2="649.3"/>
		<polygon class="st32" points="245.5,657.4 239.9,649.3 247.1,656.2 		"/>
	</g>
	<g>
		<line class="st31" x1="246.3" y1="658" x2="253.8" y2="651.6"/>
		<polygon class="st32" points="245.9,657.4 253.8,651.6 246.7,658.4 		"/>
	</g>
</g>
<g id="hand" class="st33">
	<g class="st34">
		<path class="st35" d="M564.9,327.5l-2.1,2.6c-1.7,2.1-3.6,5.8-0.3,9c4.1,3.9,8.3-0.3,9.9-2l1.8-2.3c1.7-2.1,4.1-5.9,0.5-9.3
			C570.7,321.6,566.5,325.8,564.9,327.5z"/>
		<path class="st35" d="M564.9,310.9l-2.1,2.6c-1.7,2.1-3.6,5.8-0.3,9c4.1,3.9,8.3-0.3,9.9-2l1.8-2.3c1.7-2.1,4.1-5.9,0.5-9.3
			C570.7,305,566.5,309.2,564.9,310.9z"/>
		<path class="st35" d="M564.9,294.1l-2.1,2.6c-1.7,2.1-3.6,5.8-0.3,9c4.1,3.9,8.3-0.3,9.9-2l1.8-2.3c1.7-2.1,4.1-5.9,0.5-9.3
			C570.7,288.2,566.5,292.4,564.9,294.1z"/>
		<g id="hand_1_">
			<path class="st35" d="M566.3,271.8l-6.4,8.4c-1.7,2.1-9.4,5.8-6.1,9c4.1,3.9,9,4,10.6,2.3l11.3-12.5c1.7-2.1,4.1-6,0.5-9.3
				C572.1,265.9,567.8,270.1,566.3,271.8z"/>
			<path class="st35" d="M506.9,299.7c-0.2,13.5-1.4,43.3-1.4,43.3s-0.5,6.1,1.9,8.9s6.1,4,6.1,4l-6.1,12.6l36.7,7.8l18.2-26
				l-47.5-44.4C514.9,305.9,516.3,299,506.9,299.7z"/>
			<polygon class="st36" points="506.1,357.1 471,424.6 525.3,424.6 548.6,379.7 			"/>
		</g>
		<g id="smartphone_1_">
			<g>
				<path class="st32" d="M557.8,357.3h-36.3c-4.7,0-8.6-3.9-8.6-8.6v-86c0-4.7,3.9-8.6,8.6-8.6h36.3c4.7,0,8.6,3.9,8.6,8.6v86
					C566.4,353.4,562.5,357.3,557.8,357.3z"/>
				<path class="st37" d="M556.1,353.9h-33c-3.9,0-7.1-3.2-7.1-7.1v-81.7c0-3.9,3.2-7.1,7.1-7.1h33c3.9,0,7.1,3.2,7.1,7.1v81.7
					C563.2,350.7,560,353.9,556.1,353.9z"/>
				<path class="st32" d="M549.7,261.4h-19c-0.2,0-0.3-0.2-0.3-0.3l0,0c0-0.2,0.2-0.3,0.3-0.3h19c0.2,0,0.3,0.2,0.3,0.3l0,0
					C550,261.3,549.9,261.4,549.7,261.4z"/>
			</g>
		</g>
	</g>
	<g id="_x33__fingers" class="st34">
	</g>
	<g class="st34">
		<path class="st38" d="M537,291c-0.1,0.5,0.1,0.8,0.5,1c3.1,2.5,6.3,5.1,9.4,7.6c0.5,0.5,0.9,0.5,1.4,0.2c1.7-0.5,3.1,0.1,4.3,1.4
			c1,1.4,1.3,3,0.5,4.5s-2.2,2.5-3.8,2.2c-1.3-0.2-2,0.5-2.8,1c-1.7,1.4-3.6,2.9-5.3,4.3c-0.6,0.5-1,0.7-1.7,0.6
			c-0.8-0.1-1.4-0.6-1.6-1.3c-0.2-0.9-0.1-1.5,0.7-2.2c1.5-1.3,3.1-2.5,4.8-3.8c0.5-0.3,0.9-0.8,1.3-1c0.7-0.5,0.9-0.9,0.8-1.6
			c0-0.3-0.1-0.7-0.5-0.9c-3.2-2.6-6.7-5.2-9.9-7.8c-0.3-0.2-0.7-0.3-1-0.2c-2.3,0.7-4.6-0.8-5.2-3.1c-0.6-2.2,1-4.4,3.1-4.9
			C534.6,286.3,537,288.2,537,291z"/>
		<path class="st39" d="M532.9,313.1c2.3,0,4.3,1.8,4.1,4.3c0,2.3-2,4.1-4.1,4.1c-2.3,0-4.1-2-4.1-4.3
			C528.7,315,530.5,313.1,532.9,313.1z"/>
	</g>
</g>
<g id="hackathon_laptop" class="st33">
	<g class="st34">
		<path class="st32" d="M625.3,149.3H711c1.6,0,3,1.3,3,3v53.5c0,1.6-1.3,3-3,3h-85.7c-1.6,0-3-1.3-3-3v-53.5
			C622.3,150.6,623.6,149.3,625.3,149.3L625.3,149.3z"/>
		<path class="st40" d="M627.7,154.3h80.7v49.4h-80.7V154.3z"/>
		<path class="st32" d="M712,208.7h-87.9c-1.1,0-2,0.5-2.7,1.4l-16.8,29.5c-0.8,1.5-0.3,2.6,1.2,2.6h124.4c1.5,0,2-1.2,1.2-2.6
			l-16.8-29.5C714.1,209.2,713.1,208.7,712,208.7L712,208.7z"/>
		<path class="st41" d="M708.4,212.6h-80.6c-1.1,0-2.2,0.6-2.8,1.5l-4.4,8.7c-0.5,1,0,1.9,1.3,1.9h92.2c1.3,0,1.9-0.9,1.3-1.9
			l-4.4-8.7C710.6,213.2,709.5,212.6,708.4,212.6z"/>
		<g>
			<line class="st42" x1="670" y1="174.7" x2="666.1" y2="183.9"/>
			<circle class="st43" cx="670.1" cy="174.6" r="0.8"/>
			<circle class="st42" cx="668" cy="179.2" r="16.3"/>
			<circle class="st43" cx="666.1" cy="183.8" r="0.8"/>
			<polyline class="st42" points="671.4,181.3 676.7,178.7 671.4,176.3 			"/>
			<circle class="st43" cx="671.4" cy="181.3" r="0.8"/>
			<circle class="st43" cx="671.4" cy="176.4" r="0.8"/>
			<g>
				<polyline class="st42" points="664.8,176.3 659.5,178.9 664.8,181.2 				"/>
				<circle class="st43" cx="664.7" cy="176.3" r="0.8"/>
				<circle class="st43" cx="664.7" cy="181.2" r="0.8"/>
			</g>
		</g>
	</g>
</g>
<g id="test_tube_ipad_1_" class="st33">
	<g id="Layer_1_1_" class="st34">
	</g>
	<g class="st34">
		<g>
			<path class="st43" d="M1524.3,449.4c1.9,0,1.9-3,0-3S1522.4,449.4,1524.3,449.4L1524.3,449.4z"/>
		</g>
	</g>
	<g class="st34">
		<path class="st44" d="M908.6,395.1h-99.8c-4.4,0-8-3.6-8-8v-77.8c0-4.4,3.6-8,8-8h99.8c4.4,0,8,3.6,8,8v77.8
			C916.6,391.5,913,395.1,908.6,395.1z"/>
		<circle class="st43" cx="863.6" cy="330.1" r="1.3"/>
		<circle class="st43" cx="863.6" cy="339.7" r="1.3"/>
		<circle class="st43" cx="873.4" cy="339.7" r="1.3"/>
		<circle class="st43" cx="873.4" cy="349.1" r="1.3"/>
		<circle class="st43" cx="863.6" cy="349.1" r="1.3"/>
		<circle class="st43" cx="863.6" cy="359.1" r="1.3"/>
		<circle class="st43" cx="853.1" cy="349.1" r="1.3"/>
		<circle class="st43" cx="843.8" cy="339.7" r="1.3"/>
		<circle class="st43" cx="843.8" cy="349.1" r="1.3"/>
		<circle class="st43" cx="853.1" cy="359.3" r="1.3"/>
		<polyline class="st45" points="863.4,329.9 873.4,339.9 853.1,359.1 		"/>
		<line class="st45" x1="873.4" y1="349.1" x2="863.5" y2="359"/>
		<line class="st45" x1="863.6" y1="339.7" x2="853.1" y2="349.1"/>
		<g>
			<circle class="st46" cx="853.1" cy="337.8" r="0.9"/>
			<rect x="851.8" y="339" class="st46" width="2.9" height="2.9"/>
		</g>
		<g>
			<circle class="st46" cx="873.4" cy="357.4" r="0.9"/>
			<rect x="872" y="358.6" class="st46" width="2.9" height="2.9"/>
		</g>
		<g>
			<circle class="st43" cx="853.1" cy="328" r="0.9"/>
			<rect x="851.8" y="329.2" class="st43" width="2.9" height="2.9"/>
		</g>
		<g>
			<circle class="st43" cx="844.2" cy="356.8" r="0.9"/>
			<rect x="842.8" y="358" class="st43" width="2.9" height="2.9"/>
		</g>
		<circle class="st46" cx="873.4" cy="330.3" r="1.3"/>
		<circle class="st46" cx="843.8" cy="330.3" r="1.3"/>
		<line class="st45" x1="853.1" y1="330.7" x2="843.8" y2="339.7"/>
		<circle class="st45" cx="858.7" cy="344.6" r="32.8"/>
	</g>
</g>
<g id="Layer_24">
	<g>
		<path class="st0" d="M646.9,75.3c-0.2-0.1-0.5-0.1-0.8-0.1c-0.5-0.1-1-0.2-1.5-0.5c-0.1-0.1-0.3-0.2-0.4-0.3
			c-0.1-0.1-0.2-0.3-0.2-0.5c0-1.8,0-3.6,0-5.4c0.1,0,0.1,0.1,0.2,0.1c0.2,0.2,0.4,0.4,0.7,0.5c0.8,0.3,1.6,0.5,2.4,0.5
			c0.6,0,1.2,0,1.8,0c0.5-0.1,1-0.1,1.6-0.2s1.1-0.3,1.5-0.8c0,1.2,0,2.4-0.1,3.6c0,0.7,0,1.4,0,2.2c0,0.1-0.1,0.2-0.2,0.3
			c-0.4,0.2-0.9,0.4-1.4,0.5c-0.6,0.1-1.2,0.2-1.8,0.2h-0.1C648.1,75.3,647.5,75.3,646.9,75.3z"/>
		<path class="st4" d="M645.7,13.6c-0.1,0-0.2-0.1-0.2-0.2c-0.3-0.5-0.5-1.1-0.5-1.7c0-0.6,0-1.1,0.3-1.7c0.5-1,1.3-1.6,2.4-1.8h0.1
			c0.3,0,0.7,0,1,0c0.4,0.1,0.7,0.2,1.1,0.4c1,0.6,1.5,1.5,1.6,2.6c0.1,0.9-0.3,1.6-0.7,2.3c0,0.1-0.1,0.1-0.2,0.1
			c-0.5-0.1-1-0.2-1.5-0.3c-0.1-0.1-0.1,0-0.2,0c-0.6,0-1.2,0-1.8,0C646.5,13.4,646.1,13.5,645.7,13.6z"/>
		<path class="st0" d="M637.3,22.5c0.5-0.4,1.1-0.5,1.8-0.5c0.2,0,0.4,0,0.6,0c0.3,0,0.6,0,0.9-0.1c0.8-0.1,1.7-0.1,2.5-0.2
			c0.5,0,1-0.1,1.5-0.1c0.8,0,1.7-0.1,2.5-0.1c1.4,0,2.8,0,4.2,0c0.6,0,1.2,0,1.9,0.1c0.8,0,1.5,0.1,2.3,0.2c1,0.1,1.9,0.3,2.8,0.5
			c0.1,0,0.2,0.1,0.4,0.1c0.1,0,0.3,0.1,0.4,0.2c0,0.4,0,0.8,0,1.2c-0.3-0.2-0.7-0.4-1-0.5c-1-0.3-2-0.4-3-0.5
			c-1.1-0.1-2.2-0.2-3.4-0.2c-1.5,0-3.1,0-4.6,0c-1.1,0-2.2,0-3.3,0.1c-0.7,0-1.5,0.1-2.2,0.1c-0.9,0.1-1.8,0.2-2.7,0.3
			c-0.5,0.1-1,0.2-1.4,0.5C637.3,23.3,637.3,22.9,637.3,22.5z"/>
		<path class="st0" d="M637.3,23.7c0.4-0.4,0.9-0.4,1.4-0.5c0.9-0.2,1.8-0.3,2.7-0.3c0.7-0.1,1.5-0.1,2.2-0.1
			c1.1-0.1,2.2-0.1,3.3-0.1c1.5,0,3.1,0,4.6,0c1.1,0,2.2,0.1,3.4,0.2c1,0.1,2,0.2,3,0.5c0.4,0.1,0.7,0.3,1,0.5c0,0.3,0,0.6,0,0.9
			c-0.2-0.1-0.3-0.2-0.5-0.2h-0.1l-0.1-0.1c-0.5-0.1-1-0.2-1.5-0.3c-0.1,0-0.3-0.1-0.4,0c0,0,0,0-0.1-0.1s-0.2,0-0.4,0
			c-1-0.1-2-0.2-3-0.2h-0.1h-0.1c-0.5,0-1,0-1.5,0c-0.9,0-1.8,0-2.8,0c-0.1,0-0.2,0-0.2,0H648c0-0.1-0.1,0-0.2,0c-0.3,0-0.7,0-1,0
			c-1,0-2.1,0-3.1,0h-0.1h-0.1c-0.2-0.1-0.5,0-0.7,0c-0.7,0-1.4,0.1-2.1,0.1c-0.2,0-0.5,0-0.7,0.1h-0.1c-0.1-0.1-0.2-0.1-0.3,0
			c-0.5,0.1-1,0.2-1.5,0.3c-0.1,0-0.3,0-0.3,0.1h-0.1c-0.2,0-0.4,0.1-0.5,0.2C637.3,24.3,637.3,24,637.3,23.7z"/>
		<path class="st2" d="M658.6,24.5c0.2,0,0.3,0.1,0.5,0.2v0.1c-0.3,0.5-0.6,1-0.9,1.5c-0.2,0.3-0.3,0.5-0.5,0.8
			c-0.2-0.1-0.3-0.1-0.5-0.2C657.7,26.1,658.1,25.3,658.6,24.5z"/>
		<path class="st0" d="M651.2,31.5c0,7.9,0,15.9,0,23.8c0,4,0,8,0,11.9c0,0.1,0,0.2,0,0.3c0,0.3,0,0.5,0,0.8c0,0.2-0.1,0.3-0.2,0.4
			c-0.6,0.3-1.3,0.4-2,0.4c0-0.1,0-0.2,0-0.4c0-0.6,0-1.1,0-1.7c0-0.2,0-0.4,0-0.6c0-0.6,0-1.1,0-1.7c0-0.8,0-1.6,0-2.4
			c0-0.2,0-0.4,0-0.6c0-0.6,0-1.2,0-1.8c0-0.2,0-0.4,0-0.6c0-0.6,0-1.2,0-1.7c0-0.2,0-0.4,0-0.6c0-0.6,0-1.2,0-1.8
			c0-0.2,0-0.4,0-0.6c0.1-0.2,0-0.4,0-0.6c0-0.4,0-0.8,0-1.2c0-0.2,0-0.4,0-0.6c0-0.6,0-1.2,0-1.8c0-0.2,0-0.3,0-0.5
			c0-0.6,0-1.3,0-1.9c0-0.2,0-0.4,0-0.5c0-0.6,0-1.3,0-1.9c0-0.2,0-0.4,0-0.6c0-0.6,0-1.2,0-1.8c0-0.2,0-0.3,0-0.5
			c0-0.6,0-1.2,0-1.8c0-0.2,0-0.4,0-0.6c0-0.6,0-1.2,0-1.8c0-0.2,0-0.4,0-0.6c0-0.6,0-1.2,0-1.8c0-0.2,0-0.4,0-0.6
			c0-0.6,0-1.2,0-1.8c0-0.2,0-0.4,0-0.6c0-0.4,0-0.8,0-1.2c0-0.1,0-0.3,0-0.4c0.6,0,1.3,0,1.9,0C651,31.5,651.1,31.5,651.2,31.5z"/>
		<path class="st0" d="M651.2,31.5c-0.1,0-0.2,0-0.2,0c-0.6,0-1.3,0-1.9,0c-0.6,0-1.1,0-1.7,0c-0.7,0-1.4,0-2,0c-0.1,0-0.2,0-0.2,0
			c-0.2,0-0.4,0-0.6,0c-1.1,0-2.2,0-3.2,0c-0.1,0-0.2,0-0.3-0.1c-0.2-0.5-0.5-0.9-0.8-1.4c0.7,0,1.4-0.1,2.2-0.1c0.1,0,0.1,0,0.2,0
			c0.8,0,1.5,0,2.3-0.1c0.1,0,0.2,0,0.2,0c0.2,0,0.3,0,0.5,0c0.9,0,1.7,0,2.6,0c0,0.1,0.1,0.1,0.1,0c1,0,2,0,2.9,0h0.1
			c0.1,0.1,0.1,0,0.2,0c0.8,0,1.5,0,2.3,0.1c0.1,0,0.1,0,0.2,0c0.5,0,1,0.1,1.5,0.1h0.1c0.2,0,0.3,0,0.5,0c-0.2,0.5-0.5,1-0.8,1.5
			c-0.1,0.1-0.1,0.1-0.2,0.1c-1.2,0-2.4,0-3.6,0C651.3,31.5,651.3,31.5,651.2,31.5z"/>
		<path class="st0" d="M642.6,29.9c-0.1,0-0.1,0-0.2,0c0-0.1,0-0.1,0-0.2c-0.3-0.8-0.7-1.6-1-2.5c0-0.1-0.1-0.1-0.2-0.1
			c-0.2,0-0.4,0-0.7,0.1c-0.3,0-0.6,0.1-0.9,0.2c0.5,0.8,0.9,1.6,1.4,2.4c-0.1,0-0.2-0.1-0.2-0.1c-0.4-0.6-0.7-1.2-1.1-1.8
			c-0.3-0.5-0.3-0.5-0.8-0.3c-0.1-0.2-0.2-0.4-0.3-0.6c0.2-0.1,0.4-0.1,0.6-0.2c-0.1-0.2-0.3-0.5-0.4-0.7c-0.3-0.5-0.6-1.1-1-1.6
			v-0.1h0.1c0,0.1,0.1,0.1,0.1,0.2c0.4,0.7,0.8,1.4,1.2,2.1c0.1,0.1,0.1,0.1,0.3,0.1c0.3,0,0.5-0.1,0.8-0.1c0.2-0.1,0.5,0,0.7-0.1
			c-0.2-0.4-0.3-0.8-0.5-1.2c-0.2-0.4-0.4-0.9-0.5-1.3c0,0,0,0,0.1,0c0,0.1,0.1,0.1,0.1,0.2c0.3,0.8,0.6,1.5,0.9,2.3
			c0,0.1,0.1,0.1,0.2,0.1c0.3,0,0.6-0.1,1-0.1c0.5,0,1-0.1,1.5,0c0.2,0,0.4,0,0.5-0.1c-0.1-0.5-0.2-0.9-0.3-1.3
			c-0.1-0.5-0.2-0.9-0.3-1.4h0.1c0.2,0.9,0.4,1.7,0.6,2.6c0,0.1,0,0.2,0.2,0.2c0.4,0,0.7,0,1.1,0c0.8-0.1,1.5,0,2.3,0
			c0.2,0,0.2-0.1,0.2-0.2c0-0.8,0-1.6,0-2.5h0.1c0,0.8,0,1.6,0,2.5c0,0.2,0.1,0.2,0.2,0.2c0.3,0,0.6,0,0.9,0c0.8,0.1,1.7,0,2.5,0.1
			c0.1,0,0.1,0,0.2-0.1c0.2-0.9,0.5-1.7,0.7-2.6h0.1c-0.1,0.5-0.3,1-0.4,1.5c-0.1,0.4-0.2,0.8-0.3,1.2c0.9,0,1.8,0.1,2.7,0.1
			c0.2,0,0.3-0.1,0.4-0.2c0.3-0.8,0.7-1.6,1.1-2.4c0,0,0.1,0,0.1,0.1v0.1c-0.3,0.6-0.6,1.2-0.8,1.8c-0.1,0.2-0.2,0.4-0.2,0.6
			c0.6,0,1.2,0.1,1.8,0.2c0.4-0.8,0.9-1.6,1.3-2.4h0.1c-0.4,0.8-0.9,1.6-1.3,2.4c0.2,0.1,0.3,0.1,0.5,0.2c-0.1,0.2-0.2,0.4-0.3,0.6
			c-0.1,0-0.3-0.1-0.4-0.1c-0.3,0.5-0.6,1-0.9,1.5c-0.2,0.3-0.4,0.6-0.5,0.9h-0.1c0.4-0.8,0.9-1.6,1.4-2.4c-0.6-0.1-1.1-0.2-1.6-0.2
			c-0.1,0-0.2,0.1-0.2,0.2c-0.2,0.5-0.4,1-0.6,1.4c-0.1,0.3-0.3,0.6-0.4,0.9c-0.1,0-0.1,0-0.2,0c0.4-0.9,0.7-1.7,1.1-2.6
			c-0.9-0.1-1.8-0.1-2.6-0.1c-0.3,0-0.3,0-0.4,0.3c-0.2,0.8-0.4,1.6-0.6,2.3h-0.1c0.2-0.9,0.4-1.7,0.7-2.6c-1.2,0-2.4-0.1-3.6,0
			c0,0.9,0,1.8,0,2.6h-0.1c0-0.9,0-1.8,0-2.7c-1.2,0-2.4,0-3.6,0l0,0c-0.7,0-1.3,0-2,0.1c-0.3,0-0.6,0-0.8,0c-0.1,0-0.1,0-0.2,0.1
			C641.8,28.1,642.2,29,642.6,29.9z"/>
		<path class="st47" d="M649,69.1c0.7,0,1.3-0.1,2-0.4c0.2-0.1,0.2-0.2,0.2-0.4c0-0.3,0-0.5,0-0.8c0.4,0.1,0.7,0.3,1,0.6
			c0.1,0.1,0.2,0.2,0.1,0.3c-0.4,0.5-0.9,0.7-1.5,0.8c-0.5,0.1-1,0.2-1.6,0.2c-0.6,0.1-1.2,0-1.8,0c-0.8,0-1.6-0.1-2.4-0.5
			c-0.3-0.1-0.5-0.3-0.7-0.5c-0.1-0.1-0.1-0.1-0.2-0.1c0-0.2,0.1-0.3,0.2-0.4c0.2-0.2,0.5-0.3,0.8-0.3c0.1,0.2,0,0.4,0,0.7
			c0,0.2,0.1,0.3,0.3,0.4c0.7,0.2,1.4,0.3,2.1,0.4l0,0h0.1C648.1,69.1,648.5,69.2,649,69.1z"/>
		<path class="st2" d="M655.6,30c0.1-0.3,0.3-0.6,0.5-0.9c0.3-0.5,0.6-1,0.9-1.5c0.1,0,0.3,0.1,0.4,0.1c-0.4,0.8-0.8,1.5-1.3,2.3
			c0,0,0,0.1-0.1,0.1C655.9,30,655.7,30,655.6,30z"/>
		<path class="st0" d="M647.5,69.1c-0.7,0-1.4-0.1-2.1-0.4c-0.2-0.1-0.3-0.2-0.3-0.4c0-0.2,0-0.4,0-0.7c0-5.3,0-10.6,0-15.9
			c0-6.4,0-12.9,0-19.3c0-0.3,0-0.6,0-0.9c0.1-0.1,0.1,0,0.2,0c0.7,0,1.4,0,2,0c0,0.1,0,0.3,0,0.4c0,0.4,0,0.8,0,1.2
			c0,0.2,0,0.4,0,0.6c0,0.6,0,1.2,0,1.8c0,0.2,0,0.4,0,0.6c0,0.6,0,1.2,0,1.8c0,0.2,0,0.4,0,0.6c0,0.6,0,1.2,0,1.8
			c0,0.2,0,0.4,0,0.6c0,0.6,0,1.2,0,1.8c0,0.2,0,0.3,0,0.5c0,0.6,0,1.2,0,1.8c0,0.2,0,0.4,0,0.6c0,0.6,0,1.2,0,1.9
			c0,0.2,0,0.4,0,0.5c0,0.5,0,1,0,1.5c0,0.1,0,0.3,0,0.4c0,0.2,0,0.3,0,0.5c-0.1,0.5,0,1,0,1.4c0,0.1,0,0.3,0,0.4c0,0.2,0,0.4,0,0.6
			c0,0.6,0,1.2,0,1.8c0,0.2,0,0.4,0,0.6c0,0.6,0,1.2,0,1.8c0,0.2,0,0.4,0,0.6c0,0.6,0,1.2,0,1.7c0,0.2,0,0.4,0,0.6
			c0,0.6,0,1.2,0,1.7c0,0.2,0,0.4,0,0.6c0,0.6,0,1.1,0,1.7c0,0.2,0,0.4,0,0.6c0,0.6,0,1.1,0,1.7c0,0.2,0,0.4,0,0.6
			c0,0.6,0,1.1,0,1.7C647.5,68.9,647.5,69,647.5,69.1z"/>
		<path class="st2" d="M639,27.7c0.5-0.2,0.5-0.2,0.8,0.3c0.4,0.6,0.7,1.2,1.1,1.8c0,0.1,0.1,0.1,0.2,0.1c-0.5-0.8-0.9-1.6-1.4-2.4
			c0.3-0.1,0.6-0.1,0.9-0.2c0.2,0,0.4-0.1,0.7-0.1c0.1,0,0.2,0,0.2,0.1c0.3,0.8,0.7,1.6,1,2.5c0,0.1,0,0.1,0,0.2
			c-0.7,0-1.5,0.1-2.2,0.1C639.8,29.2,639.4,28.5,639,27.7z"/>
		<path class="st0" d="M642.3,17.9c-0.1-0.3-0.2-0.6-0.3-1c0-0.2,0.1-0.4,0.2-0.5c0.3-0.4,0.7-0.5,1.2-0.7c0.6-0.2,1.2-0.3,1.8-0.3
			c0.1,0,0.2,0,0.3,0c0.5,0,1-0.1,1.5-0.1c1,0,2.1,0,3.1,0c0.3,0,0.6,0,1,0c0.8,0.1,1.6,0.1,2.3,0.4c0.2,0.1,0.3,0.1,0.5,0.2
			c0.3,0.2,0.5,0.4,0.4,0.8c-0.1,0.3-0.1,0.6-0.1,0.8c-0.4-0.2-0.8-0.3-1.2-0.4c-0.2,0-0.2,0-0.2,0.2c-0.1,0.6-0.2,1.2-0.3,1.8
			c0,0.3-0.2,0.6-0.1,0.9c-0.1,0-0.1,0-0.1,0c0.1-0.5,0.2-1.1,0.3-1.6c0.1-0.4,0.2-0.8,0.2-1.3c-0.6-0.1-1.2-0.2-1.8-0.2
			c0,0.3-0.1,0.6-0.1,0.9c-0.1,0.7-0.1,1.4-0.2,2.1h-0.1c0.1-1,0.2-2,0.2-3c-0.8-0.1-1.5-0.1-2.3-0.1c0,1,0,2,0,3
			c0,0.1-0.1,0.1-0.1,0c0-1,0-2,0-3c-0.7,0-1.4,0-2,0c-0.1,0-0.2,0.1-0.2,0.2c0,0.3,0,0.7,0,1c0,0.6,0,1.3,0.1,1.9
			c0,0-0.1,0.1-0.1,0c0-1-0.1-2-0.1-3c-0.6,0-1.3,0.1-1.9,0.2c0.1,0.4,0.1,0.8,0.2,1.2c0.1,0.6,0.2,1.2,0.2,1.8c0,0.1-0.1,0-0.1,0
			c0-0.1,0-0.2,0-0.3c-0.1-0.5-0.1-1-0.2-1.5c-0.1-0.4-0.1-0.8-0.2-1.2c-0.4,0.1-0.8,0.2-1.2,0.4c0.1,0.3,0.1,0.6,0.2,0.9
			c0.1,0.6,0.2,1.2,0.4,1.9c0,0-0.1,0.1-0.1,0c-0.2-0.9-0.4-1.8-0.5-2.7C642.4,17.7,642.3,17.8,642.3,17.9z"/>
		<path class="st0" d="M651,15.4c-0.3,0-0.6,0-1,0c-1,0-2.1,0-3.1,0c-0.5,0-1,0.1-1.5,0.1c-0.1,0-0.2,0-0.3,0c0-0.5,0-0.9,0-1.4
			c0-0.2,0-0.3,0.2-0.3c0.1,0,0.2,0,0.3-0.1c1.1-0.2,2.2-0.3,3.3-0.3c0.5,0.1,1,0.1,1.5,0.3s0.5,0.2,0.5,0.7
			C651,14.7,651,15,651,15.4z"/>
		<path class="st0" d="M646,19.9C646,20,646.1,19.9,646,19.9c0.8,0,1.5,0,2.2,0c0,0.1,0.1,0.1,0.1,0c0.7,0,1.4,0,2,0h0.1
			c0.2,0,0.4,0,0.6,0c0.3,0,0.6,0.1,1,0c0,0.1,0.1,0.1,0.1,0c0.5,0,1,0.1,1.5,0.4c0,0.3,0,0.5,0.1,0.8c-0.7-0.2-1.5-0.2-2.2-0.3
			c-0.6-0.1-1.3-0.1-1.9-0.1c-1.3,0-2.7,0-4,0c-0.2,0-0.4,0-0.7,0c-0.7,0.1-1.5,0.1-2.2,0.2c0-0.2,0-0.4,0-0.6
			c0.1,0,0.2-0.1,0.4-0.1h0.1c0.3-0.1,0.7-0.2,1-0.2h0.1c0.1,0,0.2,0,0.2,0C645,20,645.5,20,646,19.9z"/>
		<path class="st0" d="M642.9,21.1c0.7,0,1.5-0.1,2.2-0.2c0.2,0,0.4,0,0.7,0c1.3-0.1,2.7-0.1,4,0c0.6,0,1.3,0,1.9,0.1
			c0.7,0.1,1.5,0.1,2.2,0.3c1.6,0.3,3.2,0.6,4.7,1.1c0.1,0,0.2,0,0.2,0.1c-0.1,0.1-0.3,0-0.4-0.1c-0.9-0.3-1.9-0.4-2.8-0.5
			c-0.8-0.1-1.5-0.2-2.3-0.2c-0.6,0-1.2-0.1-1.9-0.1c-1.4-0.1-2.8,0-4.2,0c-0.8,0-1.7,0.1-2.5,0.1c-0.5,0-1,0-1.5,0.1
			c-0.8,0-1.7,0.1-2.5,0.2c-0.3,0-0.6,0.1-0.9,0.1c0.1-0.2,0.3-0.3,0.4-0.3c0.5-0.2,1.1-0.3,1.6-0.4
			C642.2,21.2,642.5,21.1,642.9,21.1z"/>
		<path class="st4" d="M653.6,20.4c-0.5-0.2-1-0.3-1.5-0.4c0-0.3,0.1-0.6,0.1-0.9c0.1-0.6,0.2-1.2,0.3-1.8c0-0.1,0.1-0.2,0.2-0.2
			c0.4,0.1,0.9,0.2,1.2,0.4c-0.1,0.7-0.2,1.3-0.3,2C653.7,19.9,653.7,20.2,653.6,20.4z"/>
		<path class="st4" d="M643.1,20.4c-0.1,0-0.2,0.1-0.4,0.1c-0.2-0.8-0.3-1.6-0.5-2.4c0-0.1,0-0.1,0-0.2c0.1-0.1,0.1-0.2,0.3-0.3
			C642.7,18.5,642.9,19.5,643.1,20.4z"/>
		<path class="st47" d="M649,13.4c-1.1,0-2.2,0.1-3.3,0.3l0,0c0.4-0.1,0.9-0.2,1.3-0.2c0.6-0.1,1.2-0.1,1.8,0
			C648.9,13.3,648.9,13.3,649,13.4z"/>
		<path class="st2" d="M652.8,23.7c-0.3,0.9-0.5,1.8-0.8,2.7c0,0.1-0.1,0.1-0.2,0.1c-0.9-0.1-1.7,0-2.6-0.1c-0.3,0-0.7,0-1,0
			c-0.2,0-0.2,0-0.2-0.2c0-0.9,0-1.7,0-2.6c0.1-0.1,0.1,0,0.2,0c1,0,1.9,0,2.9,0c0.5,0,1,0,1.5,0C652.7,23.7,652.8,23.7,652.8,23.7z
			"/>
		<path class="st2" d="M648,23.7c0,0.9,0,1.7,0,2.6c0,0.2,0,0.2-0.2,0.2c-0.8,0-1.6,0-2.4,0c-0.4,0-0.8,0-1.1,0
			c-0.1,0-0.1-0.1-0.2-0.2c-0.2-0.9-0.4-1.8-0.7-2.7h0.1c1.1-0.1,2.1-0.1,3.2,0c0.4,0,0.7,0,1.1,0C647.9,23.6,648,23.6,648,23.7z"/>
		<path class="st2" d="M643.4,23.7c0.1,0.5,0.2,0.9,0.3,1.4s0.2,0.9,0.3,1.4c-0.2,0-0.3,0.1-0.5,0.1c-0.5,0-0.9,0-1.4,0
			c-0.3,0-0.6,0-0.9,0.1c-0.1,0-0.1,0-0.2-0.1c-0.3-0.8-0.6-1.6-0.9-2.4c0-0.1-0.1-0.1-0.1-0.2c0.2-0.1,0.4-0.1,0.7-0.1
			c0.7-0.1,1.3-0.1,2-0.1C642.9,23.7,643.2,23.6,643.4,23.7z"/>
		<path class="st2" d="M656.3,24c-0.4,0.8-0.7,1.6-1.1,2.4c-0.1,0.2-0.2,0.3-0.4,0.2c-0.9-0.1-1.8-0.1-2.7-0.1
			c0.1-0.4,0.2-0.8,0.3-1.2c0.1-0.5,0.3-1,0.4-1.5c1,0,2,0.1,3,0.2C656.1,24,656.2,23.9,656.3,24z"/>
		<path class="st2" d="M658.5,24.4c-0.4,0.8-0.9,1.6-1.3,2.4c-0.6-0.1-1.2-0.2-1.8-0.2c0-0.2,0.1-0.4,0.2-0.6
			c0.3-0.6,0.6-1.2,0.8-1.8v-0.1c0.1-0.1,0.3,0,0.4,0c0.5,0.1,1,0.2,1.5,0.3C658.4,24.4,658.4,24.4,658.5,24.4z"/>
		<path class="st2" d="M647.4,47.5c0-0.6,0-1.2,0-1.9c0.5,0,1,0,1.6,0c0,0.6,0,1.3,0,1.9C648.5,47.5,648,47.5,647.4,47.5z"/>
		<path class="st2" d="M647.5,49.9c-0.1-0.1,0-0.3,0-0.4c0-0.5,0-1,0-1.5c0.5,0,1,0,1.6,0c0,0.6,0,1.3,0,1.9
			C648.5,49.9,648,49.9,647.5,49.9z"/>
		<path class="st2" d="M647.4,37.9c0-0.6-0.1-1.2,0-1.8c0.5,0,1.1,0,1.6,0c0,0.6,0,1.2,0,1.8C648.5,37.9,647.9,37.9,647.4,37.9z"/>
		<path class="st2" d="M647.4,35.5c0-0.6,0-1.2,0-1.8c0.5,0,1.1,0,1.6,0c0,0.6,0,1.2,0,1.8C648.5,35.5,647.9,35.5,647.4,35.5z"/>
		<path class="st2" d="M647.4,42.7c0-0.6,0-1.2,0-1.8c0.5,0,1.1,0,1.6,0c0,0.6,0,1.2,0,1.8C648.5,42.7,648,42.7,647.4,42.7z"/>
		<path class="st2" d="M647.5,52.3c-0.1-0.1,0-0.3,0-0.4c0-0.5,0-1,0-1.4c0.5,0,1,0,1.5,0c0,0.6,0,1.2,0,1.8
			C648.5,52.3,648,52.3,647.5,52.3z"/>
		<path class="st2" d="M647.4,45.1c0-0.6,0-1.2,0-1.8c0.5,0,1.1,0,1.6,0c0,0.6,0,1.2,0,1.8C648.5,45.1,648,45.1,647.4,45.1z"/>
		<path class="st2" d="M647.4,40.3c0-0.6,0-1.2,0-1.8c0.5,0,1.1,0,1.6,0c0,0.6,0,1.2,0,1.8C648.5,40.3,647.9,40.3,647.4,40.3z"/>
		<path class="st2" d="M647.5,54.6c0-0.6,0-1.2,0-1.8c0.5,0,1,0,1.5,0c0.1,0.4,0,0.8,0,1.2c0,0.2,0,0.4,0,0.6
			C648.5,54.6,648,54.6,647.5,54.6z"/>
		<path class="st2" d="M647.5,64.1c0-0.6,0-1.1,0-1.7c0.5,0,1,0,1.5,0c0,0.8,0,1.6,0,2.4c-0.2,0-0.5,0-0.7,0s-0.5,0-0.7,0
			c0.5,0,0.9,0,1.4,0c0-0.2,0-0.4,0-0.6C648.4,64.1,648,64.1,647.5,64.1z"/>
		<path class="st2" d="M647.5,57c0-0.6,0-1.2,0-1.8c0.5,0,1,0,1.5,0c0,0.6,0,1.2,0,1.8C648.5,57,648,57,647.5,57z"/>
		<path class="st2" d="M647.5,61.8c0-0.6,0-1.2,0-1.7c0.5,0,1,0,1.5,0c0,0.6,0,1.2,0,1.8C648.5,61.8,648,61.8,647.5,61.8z"/>
		<path class="st2" d="M647.5,59.4c0-0.6,0-1.2,0-1.7c0.5,0,1,0,1.5,0c0,0.6,0,1.2,0,1.7C648.5,59.4,648,59.4,647.5,59.4z"/>
		<path class="st2" d="M647.5,64.7c0.2,0.1,0.5,0,0.7,0s0.5,0,0.7,0c0,0.6,0,1.1,0,1.7c-0.5,0-1,0-1.5,0
			C647.5,65.9,647.5,65.3,647.5,64.7L647.5,64.7z"/>
		<path class="st2" d="M647.5,68.8c0-0.6,0-1.1,0-1.7c0.5,0,1,0,1.5,0c0,0.6,0,1.1,0,1.7C648.5,68.8,648,68.8,647.5,68.8z"/>
		<path class="st2" d="M647.4,33.1c0-0.4,0-0.8,0-1.2c0.5,0,1.1,0,1.6,0c0,0.4,0,0.8,0,1.2C648.5,33.1,647.9,33.1,647.4,33.1z"/>
		<path class="st4" d="M647.4,33.1c0.5,0,1.1,0,1.6,0c0,0.2,0,0.4,0,0.6c-0.5,0-1.1,0-1.6,0C647.4,33.5,647.4,33.3,647.4,33.1z"/>
		<path class="st4" d="M649,67.1c-0.5,0-1,0-1.5,0c0-0.2,0-0.4,0-0.6c0.5,0,1,0,1.5,0C649,66.6,649,66.9,649,67.1z"/>
		<path class="st4" d="M647.4,40.3c0.5,0,1.1,0,1.6,0c0,0.2,0,0.4,0,0.6c-0.5,0-1.1,0-1.6,0C647.4,40.7,647.4,40.5,647.4,40.3z"/>
		<path class="st4" d="M647.4,35.5c0.5,0,1.1,0,1.6,0c0,0.2,0,0.4,0,0.6c-0.5,0-1.1,0-1.6,0C647.4,35.9,647.4,35.7,647.4,35.5z"/>
		<path class="st4" d="M649,55.3c-0.5,0-1,0-1.5,0c0-0.2,0-0.4,0-0.6c0.5,0,1,0,1.5,0C649,54.8,649,55.1,649,55.3z"/>
		<path class="st4" d="M649,57.6c-0.5,0-1,0-1.5,0c0-0.2,0-0.4,0-0.6c0.5,0,1,0,1.5,0C649,57.2,649,57.4,649,57.6z"/>
		<path class="st4" d="M647.5,59.4c0.5,0,1,0,1.5,0c0,0.2,0,0.4,0,0.6c-0.5,0-1,0-1.5,0C647.5,59.8,647.5,59.6,647.5,59.4z"/>
		<path class="st4" d="M649,38.5c-0.5,0-1.1,0-1.6,0c0-0.2,0-0.4,0-0.6c0.5,0,1.1,0,1.6,0C649,38.1,649,38.3,649,38.5z"/>
		<path class="st4" d="M647.4,45.1c0.5,0,1,0,1.6,0c0,0.2,0,0.4,0,0.6c-0.5,0-1,0-1.6,0C647.4,45.4,647.4,45.3,647.4,45.1z"/>
		<path class="st4" d="M649,52.9c-0.5,0-1,0-1.5,0c0-0.2,0-0.4,0-0.6c0.5,0,1,0,1.5,0C649,52.5,649,52.7,649,52.9z"/>
		<path class="st4" d="M647.5,61.8c0.5,0,1,0,1.5,0c0,0.2,0,0.4,0,0.6c-0.5,0-1,0-1.5,0C647.5,62.2,647.5,62,647.5,61.8z"/>
		<path class="st4" d="M649,48.1c-0.5,0-1,0-1.6,0c0-0.2,0-0.4,0-0.5c0.5,0,1,0,1.6,0C649,47.7,649,47.9,649,48.1z"/>
		<path class="st4" d="M649,43.2c-0.5,0-1.1,0-1.6,0c0-0.2,0-0.3,0-0.5c0.5,0,1,0,1.6,0C649,42.9,649,43.1,649,43.2z"/>
		<path class="st4" d="M649,50.4c-0.5,0-1,0-1.5,0c0-0.2,0-0.3,0-0.5c0.5,0,1,0,1.5,0C649,50.1,649,50.3,649,50.4z"/>
		<path class="st4" d="M649,31.9c-0.5,0-1.1,0-1.6,0c0-0.1,0-0.3,0-0.4c0.6,0,1.1,0,1.7,0C649,31.6,649,31.8,649,31.9z"/>
		<path class="st4" d="M647.5,68.8c0.5,0,1,0,1.4,0c0,0.1,0,0.2,0,0.4c-0.4,0-0.9,0-1.3,0h-0.1l0,0C647.5,69,647.5,68.9,647.5,68.8z
			"/>
		<path class="st2" d="M644.5,27.1c1.2,0,2.4,0,3.6,0c0,0.9,0,1.8,0,2.7c-0.9,0.1-1.7,0-2.6,0c-0.2,0-0.3,0-0.5,0c0,0,0,0,0-0.1
			c0.1-0.1,0-0.3,0-0.4C644.9,28.6,644.7,27.9,644.5,27.1L644.5,27.1z"/>
		<path class="st2" d="M648.3,29.8c0-0.9,0-1.7,0-2.6c1.2-0.1,2.4,0,3.6,0c-0.2,0.9-0.4,1.8-0.7,2.6
			C650.3,29.8,649.3,29.8,648.3,29.8z"/>
		<path class="st2" d="M645.1,29.8L645.1,29.8c-0.1,0.1-0.2,0.1-0.2,0.1c-0.8,0-1.5,0-2.3,0.1c-0.4-0.9-0.8-1.8-1.1-2.6
			c0-0.1,0.1-0.1,0.2-0.1c0.3,0,0.6,0,0.8,0c0.7-0.1,1.3,0,2-0.1l0,0l0,0c-0.1,0-0.1,0.1-0.1,0.2c0.2,0.8,0.4,1.5,0.5,2.3
			C645,29.7,645,29.7,645.1,29.8z"/>
		<path class="st2" d="M651.4,29.8c0.2-0.8,0.4-1.6,0.6-2.3c0.1-0.3,0.1-0.3,0.4-0.3c0.9,0,1.7,0.1,2.6,0.1
			c-0.4,0.9-0.7,1.7-1.1,2.6c-0.8,0-1.5,0-2.3-0.1C651.5,29.8,651.4,29.8,651.4,29.8z"/>
		<path class="st2" d="M654,29.8c0.1-0.3,0.2-0.6,0.4-0.9c0.2-0.5,0.4-1,0.6-1.4c0-0.1,0.1-0.2,0.2-0.2c0.5,0.1,1.1,0.1,1.6,0.2
			c-0.5,0.8-0.9,1.6-1.4,2.4C655,29.9,654.5,29.9,654,29.8z"/>
		<path class="st48" d="M647.6,69.1L647.6,69.1L647.6,69.1z"/>
		<path class="st4" d="M647.5,64.7L647.5,64.7c-0.1-0.2-0.1-0.4-0.1-0.6c0.5,0,0.9,0,1.4,0c0,0.2,0,0.4,0,0.6
			C648.5,64.7,648,64.7,647.5,64.7z"/>
		<path class="st4" d="M650.3,19.9c-0.7,0-1.4,0-2,0c0-1,0-2,0-3c0.8,0,1.5,0,2.3,0.1C650.5,18,650.4,19,650.3,19.9z"/>
		<path class="st4" d="M648.2,19.9c-0.7,0-1.4,0-2.1,0c0-0.6,0-1.3-0.1-1.9c0-0.3,0-0.7,0-1c0-0.1,0-0.2,0.2-0.2c0.7,0,1.3,0,2,0
			C648.2,17.9,648.2,18.9,648.2,19.9z"/>
		<path class="st4" d="M646,19.9c-0.5,0-0.9,0-1.4,0.1c-0.1,0-0.2,0-0.2,0c-0.1-0.6-0.2-1.2-0.2-1.8c-0.1-0.4-0.1-0.8-0.2-1.2
			c0.6-0.1,1.2-0.2,1.9-0.2C645.9,17.9,645.9,18.9,646,19.9z"/>
		<path class="st4" d="M652,20c-0.3,0-0.6,0-1,0c-0.2,0-0.4,0-0.6,0c0-0.7,0.1-1.4,0.2-2.1c0-0.3,0-0.6,0.1-0.9
			c0.6,0,1.2,0.1,1.8,0.2c-0.1,0.4-0.2,0.8-0.2,1.3C652.2,19,652.1,19.5,652,20z"/>
		<path class="st4" d="M644.2,20.1c-0.4,0-0.7,0.1-1,0.2c-0.1-0.6-0.2-1.2-0.4-1.9c-0.1-0.3-0.1-0.6-0.2-0.9
			c0.4-0.2,0.8-0.3,1.2-0.4c0.1,0.4,0.1,0.8,0.2,1.2c0.1,0.5,0.1,1,0.2,1.5C644.2,19.9,644.2,20,644.2,20.1z"/>
		<path class="st2" d="M637.3,24.4c0.5-0.2,0.5-0.2,0.8,0.3c0.4,0.6,0.7,1.3,1.1,1.9c0,0.1,0.1,0.1,0.2,0.1c-0.5-0.8-1-1.6-1.5-2.5
			c0.3-0.1,0.6-0.1,0.9-0.2c0.2,0,0.5-0.1,0.7-0.1c0.1,0,0.2,0,0.2,0.1c0.4,0.9,0.7,1.7,1.1,2.6c0,0.1,0,0.1,0,0.2
			c-0.8,0-1.5,0.1-2.3,0.1C638.2,26.1,637.7,25.3,637.3,24.4z"/>
	</g>
</g>
<g id="search" class="st33">
	<g id="Layer_1_2_" class="st34">
	</g>
	<g class="st34">
		<path class="st32" d="M452.4,98.5l-5.7-5.7l10.1-10.1l5.7,5.7L452.4,98.5z"/>
		<path class="st32" d="M508.8,36.3C494.5,22,471.2,22,456.9,36.4C442.6,50.7,442.6,74,457,88.3c14.3,14.3,37.5,14.3,51.8,0
			S523.2,50.8,508.8,36.3C508.8,36.4,508.8,36.4,508.8,36.3z M462,83.2c-11.5-11.5-11.5-30.2,0-41.8c11.5-11.5,30.2-11.5,41.8,0
			c11.5,11.5,11.5,30.2,0,41.7C492.2,94.7,473.5,94.7,462,83.2C461.9,83.2,461.9,83.2,462,83.2L462,83.2z"/>
		<path class="st32" d="M456.2,97.2l-8.3-8.3c-1.1-1-2.7-1-3.8,0l-31.8,31.8c-1,1.1-1,2.7,0,3.8l8.3,8.3c1.1,1,2.7,1,3.8,0
			l31.8-31.8C457.2,100,457.2,98.4,456.2,97.2"/>
		<path class="st41" d="M454.6,99.5l-1.5-1.5l-22,22.6l1.5,1.5L454.6,99.5z"/>
		<g>
			<circle class="st46" cx="470.4" cy="56.8" r="3.7"/>
			<rect x="464.4" y="62.2" class="st46" width="12.4" height="12.4"/>
		</g>
		<g>
			<circle class="st43" cx="497.7" cy="56.8" r="3.7"/>
			<rect x="491.8" y="62.2" class="st43" width="12.4" height="12.4"/>
		</g>
		<line class="st49" x1="488.3" y1="65.6" x2="479.7" y2="65.6"/>
		<path class="st50" d="M486.7,64.4"/>
		<circle class="st43" cx="488.3" cy="65.5" r="1.5"/>
		<line class="st51" x1="480.5" y1="70.4" x2="488.1" y2="70.4"/>
		<path class="st50" d="M481.9,71.5"/>
		<circle class="st46" cx="480.5" cy="70.5" r="1.3"/>
		<polyline class="st43" points="480,64.1 477.9,65.5 480,67 		"/>
		<polyline class="st46" points="487.8,71.8 489.6,70.5 487.8,69.2 		"/>
	</g>
</g>
<g id="palne">
	<g id="surface1_1_">
		<path class="st2" d="M705.9,31.2l2.9,2.5l-0.8,0.2c-0.2,0.1-0.4,0.3-0.4,0.5l0.3,2.6c0,0.1,0.1,0.2,0.2,0.3
			c0.1,0.1,0.2,0.1,0.3,0.1l8.6-1.6l0.4-1.1l0.6-1.4c0.1-0.2,0.3-0.3,0.4-0.2c0.1,0,0.2,0.2,0.2,0.3s0,0.1,0,0.2l-3.8,9.7
			c0.1,0.2,0.4,0.3,0.6,0.4c0.4,0,0.8-0.3,1.2-0.9l6.8-10.2l0.2-0.3c0.1-0.2,0.3-0.2,0.5-0.1c0.2,0.1,0.2,0.3,0.1,0.5l0,0l-0.7,1
			l-0.7,1.1l6.7-1.2c1.9-0.4,3.3-1.8,3.1-3.4c-0.1-0.8-0.6-1.5-1.3-1.8c-0.8-0.4-1.6-0.5-2.5-0.3l-7.6,1.4l-6.2-5.1
			c-0.8-0.6-1.5-0.8-2.1-0.6c-0.5,0.2-0.9,0.7-1.1,1.3c0,0.1,0,0.3,0.1,0.4l3.7,5l-3.2,0.6l-4.2-2.6c-0.2-0.1-0.4-0.1-0.5,0.1
			l-1.8,1.9C705.7,30.6,705.7,31,705.9,31.2C705.8,31.2,705.9,31.2,705.9,31.2z"/>
	</g>
</g>
<g>
	<path class="st52" d="M1022.7,303.1h-38.6c0,0-20.9,0.9-20.9-20.9c0-21.7,0-50.2,0-68.1c0-17.9-17.5-17.5-17.5-17.5h-132"/>
	<g>
		<path class="st52" d="M-0.4,368.1l365.6-0.3l297.1-0.3c0,0,31.6,1.9,31.6-34.4s24.7-34.6,24.7-34.6h42.7c0,0,52.6,6.6,52.6-36.3
			S811.8,117,811.8,117s-2.4-39.1-60-39.1s-18.3,0-18.3,0H375.9c0,0-50.1-2.4-50.1,50.1s54.3,54.3,54.3,54.3H457
			c0,0,59.5,3,59.5-59.5c0-39.1,0-94.9,0-122.7"/>
		<path class="st52" d="M1,117.1h125.9c0,0,58-4.9,58,58s0,107.3,0,107.3v86.2"/>
	</g>
</g>
<g id="Layer_9" class="st33">
	<g class="st34">
		<path class="st53" d="M722.6,326.1H662v47.3h71.4v-36.5L722.6,326.1z"/>
		<path class="st54" d="M722.6,336.9h10.8l-10.8-10.7V336.9z"/>
		<g>
			<g>
				<circle class="st46" cx="678" cy="342.1" r="3.3"/>
				<rect x="672.8" y="346.8" class="st46" width="10.8" height="10.8"/>
			</g>
			<g>
				<circle class="st43" cx="690.7" cy="342.1" r="3.3"/>
				<rect x="685.5" y="346.8" class="st43" width="10.8" height="10.8"/>
			</g>
			<g>
				<circle class="st36" cx="703.1" cy="342.1" r="3.3"/>
				<rect x="697.9" y="346.8" class="st36" width="10.8" height="10.8"/>
			</g>
			<g>
				<circle class="st0" cx="715.3" cy="342.1" r="3.3"/>
				<rect x="710.1" y="346.8" class="st0" width="10.8" height="10.8"/>
			</g>
		</g>
	</g>
</g>
<g id="Layer_10" class="st33">
	<g class="st34">
		<path class="st55" d="M370.1,399.3h60.6V352h-71.4v36.5L370.1,399.3z"/>
		<path class="st54" d="M370.1,388.5h-10.8l10.8,10.7V388.5z"/>
		<g>
			<g>
				<path class="st56" d="M410.3,380.4c-0.8,3.7-4,6.5-8,6.5c-4.5,0-8.1-3.6-8.1-8.1s3.6-8.1,8.1-8.1c2.6,0-0.8,2.7,0.6,5.4
					c0.5,0.9,2.9-0.2,4.4,0.5C409.3,377.5,410.4,380.2,410.3,380.4z"/>
				<rect x="401.7" y="367.8" class="st32" width="2.3" height="9.4"/>
				
					<rect x="408.6" y="374.9" transform="matrix(0.8926 -0.4508 0.4508 0.8926 -127.0128 225.4408)" class="st32" width="2.3" height="8.9"/>
				<rect x="401.9" y="374.9" class="st32" width="7" height="2.3"/>
				<circle class="st32" cx="402.8" cy="367.3" r="3.1"/>
				
					<rect x="410.8" y="382.2" transform="matrix(1 -8.220199e-03 8.220199e-03 1 -3.1345 3.4088)" class="st32" width="4.6" height="1.6"/>
			</g>
			<g>
				<circle class="st36" cx="383.7" cy="368.2" r="3.6"/>
				<rect x="378.1" y="373.3" class="st36" width="11.8" height="11.8"/>
			</g>
		</g>
	</g>
</g>
<g id="Layer_25">
</g>
<g id="tree_1_1_">
	<path class="st0" d="M639.9,621.9c5.5,0,10,4.5,10,10c0,5.5-4.5,10-10,10c-5.5,0-10-4.5-10-10C629.9,626.4,634.4,621.9,639.9,621.9
		z"/>
	
		<ellipse transform="matrix(0.7705 -0.6375 0.6375 0.7705 -267.032 556.8999)" class="st0" cx="639.8" cy="649.3" rx="12.2" ry="12.2"/>
	<path class="st1" d="M638.1,660c-2.5,0-4.8-0.7-6.7-2.1c2.1,2.1,5.2,3.4,8.5,3.4c6.7,0,12.1-5.4,12.1-11.9c0-4.2-2.1-7.9-5.4-10
		c2.2,2.2,3.6,5.2,3.6,8.5C650.2,654.5,644.8,659.9,638.1,660z"/>
	<path class="st1" d="M638.4,640.5c-2.1,0-3.9-0.6-5.5-1.6c1.8,1.8,4.3,2.8,7,2.8c5.5,0,10-4.5,10-9.9c0-3.4-1.8-6.4-4.5-8.2
		c1.9,1.8,3,4.3,3,7C648.4,636.1,643.9,640.5,638.4,640.5z"/>
	<g>
		<polygon class="st2" points="637.5,670.6 639.9,630.3 642.3,670.6 		"/>
	</g>
	<g>
		<polygon class="st2" points="639.3,651.7 632.7,643.3 640.6,650.3 		"/>
	</g>
	<g>
		<polygon class="st2" points="639.3,640 634.8,633.6 640.5,639 		"/>
	</g>
	<g>
		<polygon class="st2" points="640.2,655.6 648.5,649 641.5,656.9 		"/>
	</g>
</g>
<g id="tree_2_1_">
	<path class="st30" d="M664.8,658.6c-2.5,0-4.8-0.6-6.8-1.7c2.1,1.9,5.2,3.3,8.5,3.1c6.6-0.2,11.6-5.8,11.4-12.4
		c0-4.1-2.3-7.7-5.6-9.7c2.3,2.1,3.7,5,3.9,8.3C676.4,652.8,671.4,658.2,664.8,658.6z"/>
	<g>
		<line class="st31" x1="665.9" y1="642.1" x2="667.1" y2="670.6"/>
		<polygon class="st32" points="665.4,670.8 665.9,642.1 668.8,670.6 		"/>
	</g>
	<g>
		<line class="st31" x1="662.4" y1="644.6" x2="666.1" y2="648.5"/>
		<polygon class="st32" points="665.7,648.9 662.4,644.6 666.5,648.1 		"/>
	</g>
	<g>
		<line class="st31" x1="672.9" y1="648.7" x2="666.5" y2="656.3"/>
		<polygon class="st32" points="665.7,655.7 672.9,648.7 667.3,656.8 		"/>
	</g>
	<g>
		<line class="st31" x1="659" y1="651" x2="666.5" y2="657.4"/>
		<polygon class="st32" points="666.1,657.8 659,651 666.9,656.8 		"/>
	</g>
</g>
<g>
	<g>
		<path class="st4" d="M114.3,34.3c0,0-4.8-6,11.4-6c15.9,0,11.2,6,11.2,6s-7.6,4.6-7.6,30c0,25.2,4,41.7,4,41.7h-15.8
			c0,0,4.3-13,4.3-42C121.8,35.1,114.3,34.3,114.3,34.3z"/>
		<path class="st3" d="M121.3,34.5c0,0-1.9-6,4.5-6c6.2,0,4.4,6,4.4,6s-2.9,4.6-2.9,29.9c0,25.2,1.5,41.6,1.5,41.6h-6.2
			c0,0,1.6-13,1.6-41.9S121.3,34.5,121.3,34.5z"/>
		<g>
			<path class="st57" d="M121.1,106c0,0,1.7-26.4,1.7-49.7c0-28.9-11.6-39.5-11.6-39.5"/>
			<path class="st57" d="M130.1,106c0,0-1.8-26.4-1.8-49.7c0-28.9,11.6-39.5,11.6-39.5"/>
		</g>
		<g>
			<path class="st57" d="M116.1,106c0,0,4.3-26,4.3-49c0-28.4-26.8-34.4-26.8-34.4"/>
			<path class="st57" d="M135.1,106c0,0-4.3-26-4.3-49c0-28.4,26.8-34.4,26.8-34.4"/>
		</g>
		<line class="st57" x1="125.6" y1="106" x2="125.6" y2="14.5"/>
		<g>
			<line class="st57" x1="97.4" y1="23.7" x2="96" y2="20"/>
			<line class="st57" x1="102.1" y1="25.6" x2="100.6" y2="21.3"/>
			<line class="st57" x1="106.4" y1="28.2" x2="105.5" y2="23.9"/>
			<line class="st57" x1="109.8" y1="31" x2="109.6" y2="26.3"/>
			<line class="st57" x1="113" y1="34.1" x2="113" y2="30.1"/>
			<line class="st57" x1="115.6" y1="38.3" x2="115.9" y2="33.4"/>
			<line class="st57" x1="118.4" y1="43.4" x2="119.7" y2="38.2"/>
			<line class="st57" x1="119.6" y1="48" x2="121.4" y2="43.8"/>
			<line class="st57" x1="97" y1="22.7" x2="98.8" y2="19"/>
			<line class="st57" x1="101.6" y1="23.9" x2="104" y2="18.9"/>
			<line class="st57" x1="102.7" y1="21.4" x2="101.4" y2="18.2"/>
			<line class="st57" x1="106.3" y1="26.3" x2="109.2" y2="23.1"/>
			<line class="st57" x1="107.8" y1="24.1" x2="104.4" y2="17.2"/>
			<line class="st57" x1="106.6" y1="21.4" x2="107.2" y2="16.4"/>
			<line class="st57" x1="109.8" y1="29" x2="113.8" y2="25.2"/>
			<line class="st57" x1="112.3" y1="26.4" x2="110" y2="20.9"/>
			<line class="st57" x1="111.5" y1="23.7" x2="112.9" y2="21.3"/>
			<line class="st57" x1="113.1" y1="31.8" x2="116.9" y2="29.1"/>
			<line class="st57" x1="115.6" y1="29.9" x2="114.5" y2="26.6"/>
			<line class="st57" x1="115.9" y1="35.1" x2="120" y2="34"/>
			<line class="st57" x1="118.2" y1="34.4" x2="117.9" y2="31.5"/>
			<line class="st57" x1="118.9" y1="40.4" x2="117.3" y2="37.6"/>
			<line class="st57" x1="120.9" y1="37.7" x2="119.1" y2="37.7"/>
			<line class="st57" x1="118.8" y1="42.4" x2="121" y2="41.1"/>
			<line class="st57" x1="120.4" y1="45.7" x2="119.7" y2="44"/>
			<line class="st57" x1="122.2" y1="44.4" x2="120.5" y2="42.7"/>
			<line class="st57" x1="112.3" y1="22.8" x2="115.7" y2="23.1"/>
			<line class="st57" x1="115.3" y1="27.6" x2="117.9" y2="27.7"/>
			<line class="st57" x1="107.3" y1="19.5" x2="113.4" y2="19.5"/>
			<line class="st57" x1="110.4" y1="19.4" x2="108.8" y2="16.5"/>
			<line class="st57" x1="116.4" y1="31.5" x2="119.1" y2="31.5"/>
		</g>
		<g>
			<line class="st57" x1="154" y1="23.7" x2="155.4" y2="20"/>
			<line class="st57" x1="149.3" y1="25.6" x2="150.9" y2="21.3"/>
			<line class="st57" x1="145" y1="28.2" x2="145.9" y2="23.9"/>
			<line class="st57" x1="141.6" y1="31" x2="141.9" y2="26.3"/>
			<line class="st57" x1="138.5" y1="34.1" x2="138.4" y2="30.1"/>
			<line class="st57" x1="135.8" y1="38.3" x2="135.6" y2="33.4"/>
			<line class="st57" x1="133.1" y1="43.4" x2="131.7" y2="38.2"/>
			<line class="st57" x1="131.8" y1="48" x2="130.1" y2="43.8"/>
			<line class="st57" x1="154.4" y1="22.7" x2="152.7" y2="19"/>
			<line class="st57" x1="149.9" y1="23.9" x2="147.5" y2="18.9"/>
			<line class="st57" x1="148.8" y1="21.4" x2="150" y2="18.2"/>
			<line class="st57" x1="145.1" y1="26.3" x2="142.2" y2="23.1"/>
			<line class="st57" x1="143.6" y1="24.1" x2="147" y2="17.2"/>
			<line class="st57" x1="144.8" y1="21.4" x2="144.1" y2="16.4"/>
			<line class="st57" x1="141.6" y1="29" x2="137.7" y2="25.2"/>
			<line class="st57" x1="139" y1="26.4" x2="141.5" y2="20.9"/>
			<line class="st57" x1="139.9" y1="23.7" x2="138.5" y2="21.3"/>
			<line class="st57" x1="138.3" y1="31.8" x2="134.6" y2="29.1"/>
			<line class="st57" x1="135.8" y1="29.9" x2="136.9" y2="26.6"/>
			<line class="st57" x1="135.6" y1="35.1" x2="131.5" y2="34"/>
			<line class="st57" x1="133.2" y1="34.4" x2="133.5" y2="31.5"/>
			<line class="st57" x1="132.6" y1="40.4" x2="134.1" y2="37.6"/>
			<line class="st57" x1="130.6" y1="37.7" x2="132.3" y2="37.7"/>
			<line class="st57" x1="132.7" y1="42.4" x2="130.4" y2="41.1"/>
			<line class="st57" x1="131.1" y1="45.7" x2="131.7" y2="44"/>
			<line class="st57" x1="129.2" y1="44.4" x2="130.9" y2="42.7"/>
			<line class="st57" x1="139.1" y1="22.8" x2="135.8" y2="23.1"/>
			<line class="st57" x1="136.2" y1="27.6" x2="133.5" y2="27.7"/>
			<line class="st57" x1="144" y1="19.5" x2="137.9" y2="19.5"/>
			<line class="st57" x1="140.9" y1="19.4" x2="142.7" y2="16.5"/>
			<line class="st57" x1="135" y1="31.5" x2="132.4" y2="31.5"/>
		</g>
		<g>
			<line class="st57" x1="113" y1="18.2" x2="114.3" y2="14.7"/>
			<line class="st57" x1="115.9" y1="22.7" x2="117.3" y2="18"/>
			<line class="st57" x1="117.8" y1="26.2" x2="119.3" y2="22.5"/>
			<line class="st57" x1="119.6" y1="31" x2="120.9" y2="27.9"/>
			<line class="st57" x1="121.2" y1="36.6" x2="124.1" y2="33"/>
			<line class="st57" x1="122.4" y1="43.4" x2="125.4" y2="40"/>
			<line class="st57" x1="113.4" y1="17.1" x2="118.4" y2="15.4"/>
			<line class="st57" x1="116.8" y1="16" x2="117.7" y2="13.1"/>
			<line class="st57" x1="116.5" y1="20.9" x2="122.7" y2="19"/>
			<line class="st57" x1="119.3" y1="20" x2="120" y2="17.7"/>
			<line class="st57" x1="118.3" y1="25.1" x2="124.1" y2="24.1"/>
			<line class="st57" x1="120.5" y1="24.5" x2="121.3" y2="22.6"/>
			<line class="st57" x1="120.4" y1="30" x2="124.5" y2="29.8"/>
			<line class="st57" x1="122.5" y1="29.8" x2="123.5" y2="27.3"/>
			<line class="st57" x1="122.4" y1="35.4" x2="124.2" y2="35.3"/>
			<line class="st57" x1="122.3" y1="34.8" x2="122.1" y2="32.5"/>
			<line class="st57" x1="123.5" y1="42" x2="123" y2="38.7"/>
			<line class="st57" x1="123.4" y1="37.1" x2="125.5" y2="38.7"/>
			<line class="st57" x1="123.2" y1="32.1" x2="125.3" y2="34"/>
			<line class="st57" x1="122.6" y1="26.4" x2="125.5" y2="28.4"/>
			<line class="st57" x1="122.3" y1="22.3" x2="125.5" y2="25"/>
			<line class="st57" x1="121.4" y1="17.7" x2="125.5" y2="21.2"/>
			<line class="st57" x1="121.5" y1="13.3" x2="125.2" y2="16.8"/>
			<line class="st57" x1="120" y1="15.3" x2="123.5" y2="15.6"/>
		</g>
		<g>
			<line class="st57" x1="138.4" y1="18.2" x2="137.1" y2="14.7"/>
			<line class="st57" x1="135.5" y1="22.7" x2="134.1" y2="18"/>
			<line class="st57" x1="133.6" y1="26.2" x2="132.1" y2="22.5"/>
			<line class="st57" x1="131.7" y1="31" x2="130.5" y2="27.9"/>
			<line class="st57" x1="130.2" y1="36.6" x2="127.3" y2="33"/>
			<line class="st57" x1="129.1" y1="43.4" x2="126" y2="40"/>
			<line class="st57" x1="138" y1="17.1" x2="132.9" y2="15.4"/>
			<line class="st57" x1="134.7" y1="16" x2="133.7" y2="13.1"/>
			<line class="st57" x1="134.8" y1="20.9" x2="128.6" y2="19"/>
			<line class="st57" x1="132.1" y1="20" x2="131.4" y2="17.7"/>
			<line class="st57" x1="133.1" y1="25.1" x2="127.3" y2="24.1"/>
			<line class="st57" x1="130.8" y1="24.5" x2="130.1" y2="22.6"/>
			<line class="st57" x1="131" y1="30" x2="126.9" y2="29.8"/>
			<line class="st57" x1="129" y1="29.8" x2="128" y2="27.3"/>
			<line class="st57" x1="129.1" y1="35.4" x2="127.2" y2="35.3"/>
			<line class="st57" x1="129.2" y1="34.8" x2="129.3" y2="32.5"/>
			<line class="st57" x1="127.9" y1="42" x2="128.4" y2="38.7"/>
			<line class="st57" x1="128" y1="37.1" x2="125.9" y2="38.7"/>
			<line class="st57" x1="128.2" y1="32.1" x2="126.1" y2="34"/>
			<line class="st57" x1="128.7" y1="26.4" x2="125.9" y2="28.4"/>
			<line class="st57" x1="129.2" y1="22.3" x2="125.9" y2="25"/>
			<line class="st57" x1="130" y1="17.7" x2="125.9" y2="21.2"/>
			<line class="st57" x1="129.8" y1="13.3" x2="125.8" y2="17.2"/>
			<line class="st57" x1="131.4" y1="15.3" x2="127.8" y2="15.6"/>
		</g>
	</g>
	<g>
		<path class="st4" d="M29.5,34.3c0,0-4.8-6,11.4-6c15.9,0,11.2,6,11.2,6s-7.6,4.6-7.6,30c0,25.2,4,41.7,4,41.7H32.6
			c0,0,4.3-13,4.3-42C36.9,35.1,29.5,34.3,29.5,34.3z"/>
		<path class="st3" d="M36.4,34.5c0,0-1.9-6,4.5-6c6.2,0,4.4,6,4.4,6s-2.9,4.6-2.9,29.9c0,25.2,1.5,41.6,1.5,41.6h-6.2
			c0,0,1.6-13,1.6-41.9C39.3,35.2,36.4,34.5,36.4,34.5z"/>
		<g>
			<path class="st57" d="M36.2,106c0,0,1.8-26.4,1.8-49.7c0-28.9-11.6-39.5-11.6-39.5"/>
			<path class="st57" d="M45.2,106c0,0-1.8-26.4-1.8-49.7C43.4,27.4,55,16.7,55,16.7"/>
		</g>
		<g>
			<path class="st57" d="M31.2,106c0,0,4.3-26,4.3-49c0-28.4-26.8-34.4-26.8-34.4"/>
			<path class="st57" d="M50.2,106c0,0-4.3-26-4.3-49c0-28.4,26.8-34.4,26.8-34.4"/>
		</g>
		<line class="st57" x1="40.8" y1="106" x2="40.8" y2="14.5"/>
		<g>
			<line class="st57" x1="12.5" y1="23.7" x2="11.1" y2="20"/>
			<line class="st57" x1="17.3" y1="25.6" x2="15.7" y2="21.3"/>
			<line class="st57" x1="21.5" y1="28.2" x2="20.6" y2="23.9"/>
			<line class="st57" x1="24.9" y1="31" x2="24.7" y2="26.3"/>
			<line class="st57" x1="28.1" y1="34.1" x2="28.1" y2="30.1"/>
			<line class="st57" x1="30.7" y1="38.3" x2="31" y2="33.4"/>
			<line class="st57" x1="33.5" y1="43.4" x2="34.8" y2="38.2"/>
			<line class="st57" x1="34.8" y1="48" x2="36.5" y2="43.8"/>
			<line class="st57" x1="12.2" y1="22.7" x2="13.8" y2="19"/>
			<line class="st57" x1="16.7" y1="23.9" x2="19.1" y2="18.9"/>
			<line class="st57" x1="17.8" y1="21.4" x2="16.5" y2="18.2"/>
			<line class="st57" x1="21.5" y1="26.3" x2="24.4" y2="23.1"/>
			<line class="st57" x1="22.9" y1="24.1" x2="19.5" y2="17.2"/>
			<line class="st57" x1="21.7" y1="21.4" x2="22.4" y2="16.4"/>
			<line class="st57" x1="24.9" y1="29" x2="28.9" y2="25.2"/>
			<line class="st57" x1="27.5" y1="26.4" x2="25.1" y2="20.9"/>
			<line class="st57" x1="26.6" y1="23.7" x2="28" y2="21.3"/>
			<line class="st57" x1="28.2" y1="31.8" x2="32" y2="29.1"/>
			<line class="st57" x1="30.7" y1="29.9" x2="29.7" y2="26.6"/>
			<line class="st57" x1="31" y1="35.1" x2="35.1" y2="34"/>
			<line class="st57" x1="33.3" y1="34.4" x2="33" y2="31.5"/>
			<line class="st57" x1="34" y1="40.4" x2="32.4" y2="37.6"/>
			<line class="st57" x1="36" y1="37.7" x2="34.2" y2="37.7"/>
			<line class="st57" x1="33.9" y1="42.4" x2="36.1" y2="41.1"/>
			<line class="st57" x1="35.5" y1="45.7" x2="34.8" y2="44"/>
			<line class="st57" x1="37.3" y1="44.4" x2="35.6" y2="42.7"/>
			<line class="st57" x1="27.5" y1="22.8" x2="30.8" y2="23.1"/>
			<line class="st57" x1="30.4" y1="27.6" x2="33" y2="27.7"/>
			<line class="st57" x1="22.5" y1="19.5" x2="28.6" y2="19.5"/>
			<line class="st57" x1="25.6" y1="19.4" x2="23.9" y2="16.5"/>
			<line class="st57" x1="31.6" y1="31.5" x2="34.2" y2="31.5"/>
		</g>
		<g>
			<line class="st57" x1="69.1" y1="23.7" x2="70.5" y2="20"/>
			<line class="st57" x1="64.3" y1="25.6" x2="66" y2="21.3"/>
			<line class="st57" x1="60.2" y1="28.2" x2="61" y2="23.9"/>
			<line class="st57" x1="56.7" y1="31" x2="57" y2="26.3"/>
			<line class="st57" x1="53.6" y1="34.1" x2="53.5" y2="30.1"/>
			<line class="st57" x1="50.9" y1="38.3" x2="50.7" y2="33.4"/>
			<line class="st57" x1="48.2" y1="43.4" x2="46.8" y2="38.2"/>
			<line class="st57" x1="46.9" y1="48" x2="45.2" y2="43.8"/>
			<line class="st57" x1="69.5" y1="22.7" x2="67.8" y2="19"/>
			<line class="st57" x1="65" y1="23.9" x2="62.6" y2="18.9"/>
			<line class="st57" x1="63.9" y1="21.4" x2="65.2" y2="18.2"/>
			<line class="st57" x1="60.3" y1="26.3" x2="57.2" y2="23.1"/>
			<line class="st57" x1="58.7" y1="24.1" x2="62.2" y2="17.2"/>
			<line class="st57" x1="59.9" y1="21.4" x2="59.2" y2="16.4"/>
			<line class="st57" x1="56.7" y1="29" x2="52.7" y2="25.2"/>
			<line class="st57" x1="54.1" y1="26.4" x2="56.6" y2="20.9"/>
			<line class="st57" x1="55.1" y1="23.7" x2="53.6" y2="21.3"/>
			<line class="st57" x1="53.4" y1="31.8" x2="49.7" y2="29.1"/>
			<line class="st57" x1="51" y1="29.9" x2="52.1" y2="26.6"/>
			<line class="st57" x1="50.7" y1="35.1" x2="46.6" y2="34"/>
			<line class="st57" x1="48.3" y1="34.4" x2="48.6" y2="31.5"/>
			<line class="st57" x1="47.7" y1="40.4" x2="49.2" y2="37.6"/>
			<line class="st57" x1="45.6" y1="37.7" x2="47.4" y2="37.7"/>
			<line class="st57" x1="47.7" y1="42.4" x2="45.5" y2="41.1"/>
			<line class="st57" x1="46.2" y1="45.7" x2="46.8" y2="44"/>
			<line class="st57" x1="44.3" y1="44.4" x2="46" y2="42.7"/>
			<line class="st57" x1="54.1" y1="22.8" x2="50.9" y2="23.1"/>
			<line class="st57" x1="51.3" y1="27.6" x2="48.6" y2="27.7"/>
			<line class="st57" x1="59.2" y1="19.5" x2="53.1" y2="19.5"/>
			<line class="st57" x1="56.1" y1="19.4" x2="57.8" y2="16.5"/>
			<line class="st57" x1="50.1" y1="31.5" x2="47.5" y2="31.5"/>
		</g>
		<g>
			<line class="st57" x1="28.1" y1="18.2" x2="29.4" y2="14.7"/>
			<line class="st57" x1="31" y1="22.7" x2="32.4" y2="18"/>
			<line class="st57" x1="32.9" y1="26.2" x2="34.4" y2="22.5"/>
			<line class="st57" x1="34.8" y1="31" x2="36" y2="27.9"/>
			<line class="st57" x1="36.3" y1="36.6" x2="39.2" y2="33"/>
			<line class="st57" x1="37.4" y1="43.4" x2="40.5" y2="40"/>
			<line class="st57" x1="28.6" y1="17.1" x2="33.6" y2="15.4"/>
			<line class="st57" x1="31.8" y1="16" x2="32.8" y2="13.1"/>
			<line class="st57" x1="31.7" y1="20.9" x2="37.8" y2="19"/>
			<line class="st57" x1="34.4" y1="20" x2="35.1" y2="17.7"/>
			<line class="st57" x1="33.4" y1="25.1" x2="39.2" y2="24.1"/>
			<line class="st57" x1="35.7" y1="24.5" x2="36.4" y2="22.6"/>
			<line class="st57" x1="35.5" y1="30" x2="39.7" y2="29.8"/>
			<line class="st57" x1="37.5" y1="29.8" x2="38.5" y2="27.3"/>
			<line class="st57" x1="37.5" y1="35.4" x2="39.3" y2="35.3"/>
			<line class="st57" x1="37.4" y1="34.8" x2="37.2" y2="32.5"/>
			<line class="st57" x1="38.6" y1="42" x2="38.1" y2="38.7"/>
			<line class="st57" x1="38.5" y1="37.1" x2="40.6" y2="38.7"/>
			<line class="st57" x1="38.3" y1="32.1" x2="40.4" y2="34"/>
			<line class="st57" x1="37.8" y1="26.4" x2="40.6" y2="28.4"/>
			<line class="st57" x1="37.4" y1="22.3" x2="40.6" y2="25"/>
			<line class="st57" x1="36.5" y1="17.7" x2="40.6" y2="21.2"/>
			<line class="st57" x1="36.7" y1="13.3" x2="40.3" y2="16.8"/>
			<line class="st57" x1="35.1" y1="15.3" x2="38.7" y2="15.6"/>
		</g>
		<g>
			<line class="st57" x1="53.5" y1="18.2" x2="52.2" y2="14.7"/>
			<line class="st57" x1="50.6" y1="22.7" x2="49.2" y2="18"/>
			<line class="st57" x1="48.7" y1="26.2" x2="47.2" y2="22.5"/>
			<line class="st57" x1="46.9" y1="31" x2="45.6" y2="27.9"/>
			<line class="st57" x1="45.3" y1="36.6" x2="42.4" y2="33"/>
			<line class="st57" x1="44.1" y1="43.4" x2="41.1" y2="40"/>
			<line class="st57" x1="53.1" y1="17.1" x2="48" y2="15.4"/>
			<line class="st57" x1="49.7" y1="16" x2="48.8" y2="13.1"/>
			<line class="st57" x1="50" y1="20.9" x2="43.8" y2="19"/>
			<line class="st57" x1="47.2" y1="20" x2="46.5" y2="17.7"/>
			<line class="st57" x1="48.2" y1="25.1" x2="42.4" y2="24.1"/>
			<line class="st57" x1="46" y1="24.5" x2="45.2" y2="22.6"/>
			<line class="st57" x1="46.1" y1="30" x2="41.9" y2="29.8"/>
			<line class="st57" x1="44.1" y1="29.8" x2="43" y2="27.3"/>
			<line class="st57" x1="44.1" y1="35.4" x2="42.3" y2="35.3"/>
			<line class="st57" x1="44.2" y1="34.8" x2="44.4" y2="32.5"/>
			<line class="st57" x1="42.9" y1="42" x2="43.5" y2="38.7"/>
			<line class="st57" x1="43.1" y1="37.1" x2="41" y2="38.7"/>
			<line class="st57" x1="43.3" y1="32.1" x2="41.2" y2="34"/>
			<line class="st57" x1="43.9" y1="26.4" x2="41" y2="28.4"/>
			<line class="st57" x1="44.2" y1="22.3" x2="41" y2="25"/>
			<line class="st57" x1="45.1" y1="17.7" x2="41" y2="21.2"/>
			<line class="st57" x1="45" y1="13.3" x2="40.9" y2="17.2"/>
			<line class="st57" x1="46.5" y1="15.3" x2="42.9" y2="15.6"/>
		</g>
	</g>
	<g>
		<path class="st4" d="M73.7,46.1c0,0-4-5,9.5-5c13.3,0,9.4,5,9.4,5s-6.4,3.9-6.4,25s3.4,34.8,3.4,34.8H76.3c0,0,3.6-10.8,3.6-35.1
			C80,46.8,73.7,46.1,73.7,46.1z"/>
		<path class="st3" d="M79.6,46.2c0,0-1.5-5,3.7-5c5.2,0,3.6,5,3.6,5s-2.5,3.9-2.5,25s1.3,34.8,1.3,34.8h-5.2c0,0,1.4-10.8,1.4-35
			C81.9,46.8,79.6,46.2,79.6,46.2z"/>
		<g>
			<path class="st57" d="M79.4,106c0,0,1.5-22,1.5-41.5c0-24.1-9.7-33.1-9.7-33.1"/>
			<path class="st57" d="M86.9,106c0,0-1.5-22-1.5-41.5c0-24.1,9.7-33.1,9.7-33.1"/>
		</g>
		<g>
			<path class="st57" d="M75.2,106c0,0,3.6-21.8,3.6-41c0-23.8-22.3-28.8-22.3-28.8"/>
			<path class="st57" d="M91.1,106c0,0-3.6-21.8-3.6-41c0-23.8,22.3-28.8,22.3-28.8"/>
		</g>
		<line class="st57" x1="83.2" y1="106" x2="83.2" y2="29.5"/>
		<g>
			<line class="st57" x1="59.6" y1="37.3" x2="58.4" y2="34.1"/>
			<line class="st57" x1="63.5" y1="38.8" x2="62.3" y2="35.3"/>
			<line class="st57" x1="67.1" y1="41" x2="66.4" y2="37.4"/>
			<line class="st57" x1="70" y1="43.4" x2="69.8" y2="39.4"/>
			<line class="st57" x1="72.6" y1="45.9" x2="72.6" y2="42.6"/>
			<line class="st57" x1="74.8" y1="49.4" x2="75" y2="45.3"/>
			<line class="st57" x1="77.1" y1="53.7" x2="78.3" y2="49.3"/>
			<line class="st57" x1="78.2" y1="57.6" x2="79.6" y2="54"/>
			<line class="st57" x1="59.2" y1="36.4" x2="60.7" y2="33.3"/>
			<line class="st57" x1="63.1" y1="37.4" x2="65.1" y2="33.2"/>
			<line class="st57" x1="64" y1="35.4" x2="63" y2="32.7"/>
			<line class="st57" x1="67.1" y1="39.4" x2="69.5" y2="36.7"/>
			<line class="st57" x1="68.4" y1="37.6" x2="65.4" y2="31.8"/>
			<line class="st57" x1="67.4" y1="35.4" x2="67.8" y2="31.2"/>
			<line class="st57" x1="70" y1="41.7" x2="73.3" y2="38.5"/>
			<line class="st57" x1="72.1" y1="39.6" x2="70.1" y2="34.9"/>
			<line class="st57" x1="71.4" y1="37.2" x2="72.5" y2="35.2"/>
			<line class="st57" x1="72.7" y1="44" x2="75.8" y2="41.7"/>
			<line class="st57" x1="74.8" y1="42.4" x2="73.9" y2="39.7"/>
			<line class="st57" x1="75" y1="46.8" x2="78.5" y2="45.8"/>
			<line class="st57" x1="77" y1="46.1" x2="76.7" y2="43.8"/>
			<line class="st57" x1="77.6" y1="51.2" x2="76.2" y2="48.8"/>
			<line class="st57" x1="79.3" y1="49" x2="77.7" y2="49"/>
			<line class="st57" x1="77.5" y1="52.9" x2="79.4" y2="51.8"/>
			<line class="st57" x1="78.7" y1="55.6" x2="78.3" y2="54.2"/>
			<line class="st57" x1="80.3" y1="54.5" x2="78.9" y2="53.1"/>
			<line class="st57" x1="72.1" y1="36.5" x2="74.9" y2="36.7"/>
			<line class="st57" x1="74.5" y1="40.6" x2="76.7" y2="40.7"/>
			<line class="st57" x1="67.9" y1="33.7" x2="73" y2="33.7"/>
			<line class="st57" x1="70.5" y1="33.6" x2="69.1" y2="31.3"/>
			<line class="st57" x1="75.5" y1="43.7" x2="77.7" y2="43.7"/>
		</g>
		<g>
			<line class="st57" x1="106.9" y1="37.3" x2="108.1" y2="34.1"/>
			<line class="st57" x1="103" y1="38.8" x2="104.2" y2="35.3"/>
			<line class="st57" x1="99.4" y1="41" x2="100.1" y2="37.4"/>
			<line class="st57" x1="96.5" y1="43.4" x2="96.7" y2="39.4"/>
			<line class="st57" x1="93.9" y1="45.9" x2="93.9" y2="42.6"/>
			<line class="st57" x1="91.7" y1="49.4" x2="91.5" y2="45.3"/>
			<line class="st57" x1="89.4" y1="53.7" x2="88.2" y2="49.3"/>
			<line class="st57" x1="88.3" y1="57.6" x2="86.9" y2="54"/>
			<line class="st57" x1="107.2" y1="36.4" x2="105.8" y2="33.3"/>
			<line class="st57" x1="103.4" y1="37.4" x2="101.4" y2="33.2"/>
			<line class="st57" x1="102.5" y1="35.4" x2="103.6" y2="32.7"/>
			<line class="st57" x1="99.5" y1="39.4" x2="97" y2="36.7"/>
			<line class="st57" x1="98.2" y1="37.6" x2="101.1" y2="31.8"/>
			<line class="st57" x1="99.2" y1="35.4" x2="98.7" y2="31.2"/>
			<line class="st57" x1="96.5" y1="41.7" x2="93.2" y2="38.5"/>
			<line class="st57" x1="94.4" y1="39.6" x2="96.4" y2="34.9"/>
			<line class="st57" x1="95.1" y1="37.2" x2="93.9" y2="35.2"/>
			<line class="st57" x1="93.8" y1="44" x2="90.7" y2="41.7"/>
			<line class="st57" x1="91.8" y1="42.4" x2="92.6" y2="39.7"/>
			<line class="st57" x1="91.5" y1="46.8" x2="88" y2="45.8"/>
			<line class="st57" x1="89.5" y1="46.1" x2="89.8" y2="43.8"/>
			<line class="st57" x1="88.9" y1="51.2" x2="90.3" y2="48.8"/>
			<line class="st57" x1="87.3" y1="49" x2="88.8" y2="49"/>
			<line class="st57" x1="89" y1="52.9" x2="87.2" y2="51.8"/>
			<line class="st57" x1="87.8" y1="55.6" x2="88.2" y2="54.2"/>
			<line class="st57" x1="86.2" y1="54.5" x2="87.6" y2="53.1"/>
			<line class="st57" x1="94.4" y1="36.5" x2="91.6" y2="36.7"/>
			<line class="st57" x1="92" y1="40.6" x2="89.8" y2="40.7"/>
			<line class="st57" x1="98.6" y1="33.7" x2="93.5" y2="33.7"/>
			<line class="st57" x1="96" y1="33.6" x2="97.4" y2="31.3"/>
			<line class="st57" x1="91" y1="43.7" x2="88.8" y2="43.7"/>
		</g>
		<g>
			<line class="st57" x1="72.6" y1="32.6" x2="73.6" y2="29.7"/>
			<line class="st57" x1="75.1" y1="36.4" x2="76.2" y2="32.5"/>
			<line class="st57" x1="76.6" y1="39.4" x2="77.9" y2="36.3"/>
			<line class="st57" x1="78.2" y1="43.4" x2="79.2" y2="40.7"/>
			<line class="st57" x1="79.5" y1="48" x2="81.9" y2="45"/>
			<line class="st57" x1="80.4" y1="53.7" x2="82.9" y2="50.9"/>
			<line class="st57" x1="73" y1="31.7" x2="77.2" y2="30.4"/>
			<line class="st57" x1="75.8" y1="30.7" x2="76.6" y2="28.4"/>
			<line class="st57" x1="75.6" y1="34.9" x2="80.7" y2="33.3"/>
			<line class="st57" x1="77.9" y1="34.2" x2="78.5" y2="32.3"/>
			<line class="st57" x1="77" y1="38.4" x2="81.9" y2="37.6"/>
			<line class="st57" x1="78.9" y1="37.9" x2="79.6" y2="36.3"/>
			<line class="st57" x1="78.8" y1="42.5" x2="82.3" y2="42.4"/>
			<line class="st57" x1="80.5" y1="42.4" x2="81.4" y2="40.2"/>
			<line class="st57" x1="80.4" y1="47" x2="81.9" y2="46.9"/>
			<line class="st57" x1="80.4" y1="46.5" x2="80.2" y2="44.7"/>
			<line class="st57" x1="81.4" y1="52.6" x2="81" y2="49.9"/>
			<line class="st57" x1="81.3" y1="48.4" x2="83" y2="49.9"/>
			<line class="st57" x1="81.1" y1="44.3" x2="82.9" y2="45.8"/>
			<line class="st57" x1="80.7" y1="39.6" x2="83" y2="41.1"/>
			<line class="st57" x1="80.4" y1="36.1" x2="83" y2="38.3"/>
			<line class="st57" x1="79.7" y1="32.3" x2="83" y2="35.1"/>
			<line class="st57" x1="79.8" y1="28.5" x2="82.8" y2="31.5"/>
			<line class="st57" x1="78.5" y1="30.3" x2="81.5" y2="30.5"/>
		</g>
		<g>
			<line class="st57" x1="93.9" y1="32.6" x2="92.8" y2="29.7"/>
			<line class="st57" x1="91.4" y1="36.4" x2="90.3" y2="32.5"/>
			<line class="st57" x1="89.9" y1="39.4" x2="88.6" y2="36.3"/>
			<line class="st57" x1="88.3" y1="43.4" x2="87.2" y2="40.7"/>
			<line class="st57" x1="87" y1="48" x2="84.6" y2="45"/>
			<line class="st57" x1="86" y1="53.7" x2="83.5" y2="50.9"/>
			<line class="st57" x1="93.5" y1="31.7" x2="89.3" y2="30.4"/>
			<line class="st57" x1="90.7" y1="30.7" x2="89.9" y2="28.4"/>
			<line class="st57" x1="90.9" y1="34.9" x2="85.7" y2="33.3"/>
			<line class="st57" x1="88.6" y1="34.2" x2="88" y2="32.3"/>
			<line class="st57" x1="89.4" y1="38.4" x2="84.6" y2="37.6"/>
			<line class="st57" x1="87.6" y1="37.9" x2="86.9" y2="36.3"/>
			<line class="st57" x1="87.7" y1="42.5" x2="84.2" y2="42.4"/>
			<line class="st57" x1="85.9" y1="42.4" x2="85.1" y2="40.2"/>
			<line class="st57" x1="86" y1="47" x2="84.5" y2="46.9"/>
			<line class="st57" x1="86.1" y1="46.5" x2="86.3" y2="44.7"/>
			<line class="st57" x1="85" y1="52.6" x2="85.5" y2="49.9"/>
			<line class="st57" x1="85.2" y1="48.4" x2="83.5" y2="49.9"/>
			<line class="st57" x1="85.4" y1="44.3" x2="83.6" y2="45.8"/>
			<line class="st57" x1="85.8" y1="39.6" x2="83.5" y2="41.1"/>
			<line class="st57" x1="86.1" y1="36.1" x2="83.5" y2="38.3"/>
			<line class="st57" x1="86.8" y1="32.3" x2="83.5" y2="35.1"/>
			<line class="st57" x1="86.7" y1="28.5" x2="83.4" y2="31.8"/>
			<line class="st57" x1="88" y1="30.3" x2="85" y2="30.5"/>
		</g>
	</g>
</g>
<path class="st52" d="M73.1,377c0-7.5,0,177,0,237c0,60,67.5,67.5,67.5,67.5h882.1"/>
</svg>
