<?xml version="1.0" encoding="utf-8"?>
<!-- Generator: Adobe Illustrator 22.1.0, SVG Export Plug-In . SVG Version: 6.00 Build 0)  -->
<svg version="1.1" id="Layer_1" xmlns="http://www.w3.org/2000/svg" xmlns:xlink="http://www.w3.org/1999/xlink" x="0px" y="0px"
	 viewBox="0 0 200 400" style="enable-background:new 0 0 200 400;" xml:space="preserve">
<style type="text/css">
	.st0{fill:#FFFFFF;}
	.st1{fill:#DB2C56;}
	.st2{fill:none;stroke:#332326;stroke-width:0.4829;stroke-linecap:round;stroke-linejoin:round;stroke-miterlimit:10;}
	.st3{fill:none;stroke:#465259;stroke-width:4.7586;stroke-miterlimit:10;}
	.st4{fill:#871924;}
	.st5{fill:#332326;}
	.st6{fill:#E0E0E0;}
	.st7{fill:none;stroke:#332326;stroke-width:0.9585;stroke-miterlimit:10;}
	.st8{fill:none;stroke:#EAEAEA;stroke-width:0.9585;stroke-miterlimit:10;}
	.st9{fill:none;stroke:#EAEAEA;stroke-width:0.5513;stroke-miterlimit:10;stroke-dasharray:3.3076;}
	
		.st10{fill:none;stroke:#465259;stroke-width:0.7333;stroke-linecap:round;stroke-miterlimit:10;stroke-dasharray:7.3333,3.6666,1.8333,3.6666,14.6665;}
	.st11{fill:none;stroke:#465259;stroke-width:0.7333;stroke-linecap:round;stroke-miterlimit:10;stroke-dasharray:7.3333,3.6666;}
	.st12{fill:#E6BB8F;stroke:#332326;stroke-width:0.4867;stroke-linecap:round;stroke-linejoin:round;stroke-miterlimit:10;}
	.st13{fill:none;stroke:#332326;stroke-width:0.4867;stroke-linecap:round;stroke-linejoin:round;stroke-miterlimit:10;}
	.st14{fill:#FFFFFF;stroke:#332326;stroke-width:0.4867;stroke-linecap:round;stroke-linejoin:round;stroke-miterlimit:10;}
	.st15{fill:none;stroke:#E6BB8F;stroke-width:0.5564;stroke-miterlimit:10;}
	.st16{fill:none;stroke:#332326;stroke-width:0.5564;stroke-linecap:round;stroke-linejoin:round;stroke-miterlimit:10;}
	.st17{fill:none;stroke:#DB2C56;stroke-width:0.5564;stroke-miterlimit:10;}
	.st18{fill:none;stroke:#6B6B6B;stroke-width:6;stroke-miterlimit:10;}
	.st19{fill:none;stroke:#332326;stroke-width:0.4498;stroke-linecap:round;stroke-linejoin:round;stroke-miterlimit:10;}
</style>
<g>
	<g>
		<path class="st0" d="M165.2,382.4c0,0,6-8.9,18.6-8.9c9.6,0,10.2,8.9,10.2,8.9H165.2z"/>
		<path class="st1" d="M183.8,373.6c-12.6,0-18.6,8.9-18.6,8.9h0.9c0,0,5.6-8.2,17.6-8.2c9.1,0,9.8,8.2,9.8,8.2h0.5
			C194,382.4,193.3,373.6,183.8,373.6z"/>
		<path class="st2" d="M167.7,379.6c0,0,2.7,1.2,3.7,2.8"/>
		<path class="st2" d="M170.3,377.6c0,0,3.8,1.6,5.3,4.8"/>
		<path class="st2" d="M174.1,375.6c0,0,4.3,2.1,5.3,6.9"/>
		<path class="st2" d="M179,374c0,0,3.9,3,3.9,8.4"/>
		<path class="st2" d="M185,373.6c0,0,1.4,2.8,1.2,8.9"/>
		<path class="st2" d="M189.2,374.9c0,0,1,3.9-0.2,7.6"/>
		<path class="st2" d="M192.6,378.3c0,0,0.2,2-0.9,4.2"/>
	</g>
	<g>
		<path class="st0" d="M137.9,382.4c0,0,6-16.3,18.6-16.3c9.6,0,10.2,16.3,10.2,16.3H137.9z"/>
		<path class="st1" d="M156.5,366.1c-12.6,0-18.6,16.3-18.6,16.3h0.9c0,0,5.6-15.7,17.6-15.7c9.1,0,9.8,15.7,9.8,15.7h0.5
			C166.8,382.4,166.1,366.1,156.5,366.1z"/>
		<path class="st2" d="M140.5,377.2c0,0,2.8,2.1,3.8,5.2"/>
		<path class="st2" d="M143.1,373.6c0,0,3.9,2.9,5.3,8.9"/>
		<path class="st2" d="M146.9,369.8c0,0,4.3,3.8,5.3,12.6"/>
		<path class="st2" d="M151.9,367c0,0,3.9,5.6,3.9,15.5"/>
		<path class="st2" d="M157.8,366.2c0,0,1.5,5.3,1.3,16.3"/>
		<path class="st2" d="M162.1,368.5c0,0,1,7.2-0.2,13.9"/>
		<path class="st2" d="M165.4,374.8c0,0,0.2,3.7-0.9,7.6"/>
	</g>
</g>
<path class="st3" d="M93.3,40"/>
<path class="st3" d="M91.4,70.9"/>
<path class="st3" d="M68.4,24.9"/>
<g>
	<rect x="129.4" y="328.6" class="st4" width="3.6" height="2.5"/>
	<rect x="75.9" y="328.6" class="st4" width="3.6" height="2.5"/>
	<polygon class="st1" points="140.7,334.9 73.3,334.9 61.1,330.8 140.7,330.8 	"/>
	<polygon class="st5" points="140.7,334.9 73.3,334.9 61.1,330.8 140.7,332.6 	"/>
	<rect x="97.3" y="336.4" class="st6" width="17.1" height="45.7"/>
	<g>
		<line class="st7" x1="99.2" y1="338.5" x2="112.4" y2="338.5"/>
		<line class="st7" x1="99.2" y1="340.6" x2="112.4" y2="340.6"/>
		<line class="st7" x1="99.2" y1="342.8" x2="112.4" y2="342.8"/>
		<line class="st7" x1="99.2" y1="345" x2="112.4" y2="345"/>
		<line class="st7" x1="99.2" y1="347.2" x2="112.4" y2="347.2"/>
		<line class="st7" x1="99.2" y1="349.4" x2="112.4" y2="349.4"/>
		<line class="st7" x1="99.2" y1="351.5" x2="112.4" y2="351.5"/>
		<line class="st7" x1="99.2" y1="353.8" x2="112.4" y2="353.8"/>
		<line class="st7" x1="99.2" y1="355.9" x2="112.4" y2="355.9"/>
		<line class="st7" x1="99.2" y1="358.1" x2="112.4" y2="358.1"/>
		<line class="st7" x1="99.2" y1="360.3" x2="112.4" y2="360.3"/>
		<line class="st7" x1="99.2" y1="362.5" x2="112.4" y2="362.5"/>
		<line class="st7" x1="99.2" y1="364.7" x2="112.4" y2="364.7"/>
		<line class="st7" x1="99.2" y1="366.8" x2="112.4" y2="366.8"/>
		<line class="st7" x1="99.2" y1="369" x2="112.4" y2="369"/>
		<line class="st7" x1="99.2" y1="371.2" x2="112.4" y2="371.2"/>
		<line class="st7" x1="99.2" y1="373.4" x2="112.4" y2="373.4"/>
	</g>
	<rect x="75.9" y="336.4" class="st6" width="17.1" height="45.7"/>
	<rect x="75.9" y="336.4" class="st5" width="3.2" height="45.7"/>
	<g>
		<line class="st7" x1="81" y1="338.5" x2="91" y2="338.5"/>
		<line class="st7" x1="81" y1="340.6" x2="91" y2="340.6"/>
		<line class="st7" x1="81" y1="342.8" x2="91" y2="342.8"/>
		<line class="st7" x1="81" y1="345" x2="91" y2="345"/>
		<line class="st7" x1="81" y1="347.2" x2="91" y2="347.2"/>
		<line class="st7" x1="81" y1="349.4" x2="91" y2="349.4"/>
		<line class="st7" x1="81" y1="351.5" x2="91" y2="351.5"/>
		<line class="st7" x1="81" y1="353.8" x2="91" y2="353.8"/>
		<line class="st7" x1="81" y1="355.9" x2="91" y2="355.9"/>
		<line class="st7" x1="81" y1="358.1" x2="91" y2="358.1"/>
		<line class="st7" x1="81" y1="360.3" x2="91" y2="360.3"/>
		<line class="st7" x1="81" y1="362.5" x2="91" y2="362.5"/>
		<line class="st7" x1="81" y1="364.7" x2="91" y2="364.7"/>
		<line class="st7" x1="81" y1="366.8" x2="91" y2="366.8"/>
		<line class="st7" x1="81" y1="369" x2="91" y2="369"/>
		<line class="st7" x1="81" y1="371.2" x2="91" y2="371.2"/>
		<line class="st7" x1="81" y1="373.4" x2="91" y2="373.4"/>
	</g>
	<rect x="118.7" y="336.4" class="st6" width="17.1" height="45.7"/>
	<rect x="132.6" y="336.4" class="st5" width="3.2" height="45.7"/>
	<g>
		<line class="st7" x1="130.7" y1="338.5" x2="120.7" y2="338.5"/>
		<line class="st7" x1="130.7" y1="340.6" x2="120.7" y2="340.6"/>
		<line class="st8" x1="130.7" y1="342.8" x2="120.7" y2="342.8"/>
		<line class="st7" x1="130.7" y1="345" x2="120.7" y2="345"/>
		<line class="st7" x1="130.7" y1="347.2" x2="120.7" y2="347.2"/>
		<line class="st7" x1="130.7" y1="349.4" x2="120.7" y2="349.4"/>
		<line class="st7" x1="130.7" y1="351.5" x2="120.7" y2="351.5"/>
		<line class="st7" x1="130.7" y1="353.8" x2="120.7" y2="353.8"/>
		<line class="st7" x1="130.7" y1="355.9" x2="120.7" y2="355.9"/>
		<line class="st7" x1="130.7" y1="358.1" x2="120.7" y2="358.1"/>
		<line class="st7" x1="130.7" y1="360.3" x2="120.7" y2="360.3"/>
		<line class="st7" x1="130.7" y1="362.5" x2="120.7" y2="362.5"/>
		<line class="st7" x1="130.7" y1="364.7" x2="120.7" y2="364.7"/>
		<line class="st7" x1="130.7" y1="366.8" x2="120.7" y2="366.8"/>
		<line class="st7" x1="130.7" y1="369" x2="120.7" y2="369"/>
		<line class="st7" x1="130.7" y1="371.2" x2="120.7" y2="371.2"/>
		<line class="st7" x1="130.7" y1="373.4" x2="120.7" y2="373.4"/>
	</g>
</g>
<g id="artscience">
	<g>
		<rect x="149.5" y="73" class="st1" width="16.5" height="1.1"/>
		<g>
			<polygon class="st5" points="149.5,63.9 166.1,63.9 163.5,69.1 152,69.1 			"/>
			<polygon class="st6" points="149.5,73 166.1,73 163.5,69.1 152,69.1 			"/>
			<rect x="155.4" y="65.4" class="st1" width="4.9" height="1.9"/>
			<path class="st1" d="M155,58.4l7.3,3.3c22.7-4,19-23.4,19-23.4H179C172.2,54.9,155,58.3,155,58.4z"/>
			<path class="st1" d="M162.6,59.6l-9.5,2.4c-18.3-3.1-7.7-32.5-7.7-32.5h2.2C150.6,49.5,162.6,59.6,162.6,59.6z"/>
			<path class="st1" d="M167.7,58l0.4,2.7c20.1-3.7,19.4-16.5,19.4-16.5h-0.9C181.2,53.6,167.7,58.1,167.7,58z"/>
			<path class="st1" d="M150.1,60l6.1,0.5c4.2-17.4,3.1-28.6,3.1-28.6h-1.2C154.5,51.5,150.1,60,150.1,60z"/>
			<path class="st6" d="M159.7,64.1h-10.2c-18.2-3.1-12.3-34.6-12.3-34.6h8.2C147.9,49.1,159.7,64.1,159.7,64.1z"/>
			<path class="st6" d="M149.9,64.1h10.2c17.7,0,8.5-32.2,8.5-32.2h-9.2C155.7,51.5,149.9,64.1,149.9,64.1z"/>
			<path class="st6" d="M156.8,64.1h7.3c22.8-4,22.2-25.8,22.2-25.8h-5C173.1,58.8,156.9,64.1,156.8,64.1z"/>
			<path class="st6" d="M158.8,64.1h7.3c20.1-3.7,23.9-19.9,23.9-19.9h-2.4C177.6,60.2,158.8,64.1,158.8,64.1z"/>
		</g>
	</g>
</g>
<g id="water_lines">
	<path class="st9" d="M110.1,83.8"/>
</g>
<line class="st10" x1="23.5" y1="82.7" x2="70.8" y2="82.7"/>
<line class="st11" x1="13.2" y1="72.9" x2="33.8" y2="72.9"/>
<line class="st11" x1="41.2" y1="72.9" x2="75" y2="72.9"/>
<g id="merlion">
	<path class="st6" d="M35.9,29c0,0,0.3-1.9,2.4-2.3c0,0,1-1.6,5.6-0.4c0,0,4.1,0.9,4.9,4.7c0.8,3.7,1.2,5.1,1.2,5.1l-1.3,1.2
		l1.9,6.9c0,0-1,0-1.8,0l2.4,4.9c0,0-1,0.7-2.3,0.7c0,0,0.7,2.2,0.3,8.2s-2.4,8-6.7,8c-4.4-0.1-8.2-0.1-9.5-2.8
		c-1.3-2.7,0.7-6,0.7-8.8c0-2.8-0.9-4.9-2.2-7.1s-2.1-2-1.8-2.8c0.3-0.8,1.4-0.5,2-0.3c0,0,0.7-0.6,1.3,0.1c0,0-0.4-1.6,0.4-4.1
		c0,0-1.3,0-1.4-1.1s0.5-1.5,0.8-1.7l0.2-0.8l0.4,0.5c0,0,1.9,0.3,2.2-0.5c0.3-0.8,0.3-1.7-0.5-1.7s-1.9,0.4-1.9,0.4L33,36.7
		l-0.7-0.3l-0.1,0.7c0,0-0.6-0.1-0.9-0.3c-0.3-0.2-1-1-0.8-2.4c0,0-0.8-0.8-0.3-1.5c0.5-0.7,1-0.9,1.9-0.9c0,0,0.8-0.5,1.5-0.6
		C33.9,30.2,34.5,29.5,35.9,29z"/>
	<path class="st12" d="M38,59.9c0,0-1.3,0.2-1.3-1c0-1.2,0.7-1.6,1.6-1.4C39.1,57.7,39.6,59.6,38,59.9z"/>
	<path class="st13" d="M31.6,36.7c0-0.1,0-0.4,0.2-0.5c0.2-0.1,1.7-0.8,1.7-0.8s1.1-0.4,1.9-0.4c0.7,0,0.8,0.9,0.5,1.7
		c-0.3,0.8-2.2,0.5-2.2,0.5l-0.6,0.1"/>
	<path class="st13" d="M40.1,26.6c0,0,1.6,1,1.6,3.2c0,3.4-3.2,7.9-3.2,14.4l10.4-0.1"/>
	<path class="st13" d="M42.6,28.8c0,0,0.7,1.3-0.3,5.3c-1,4-1.8,6.4-1.1,10.2"/>
	<path class="st13" d="M43.7,28.8c0,0,0.7,2,0,5.3c-0.7,3.4-1,7.6-0.4,10.2"/>
	<path class="st13" d="M45,28.8c0,0,1.1,2.4,0.7,5.3c-0.8,5.4-0.5,7.8,0.2,10.2"/>
	<path class="st13" d="M47,28.7c1.9,2.7,0.7,4.9,1.8,8.6"/>
	<path class="st13" d="M44,44.3l-0.1,4.9c0,0,1.1,0.7,5.1,0.6"/>
	<path class="st13" d="M38.3,26.8c0,0,2.8,1.6,1.2,5.9c-1.3,3.4-6.5,7.8-6.5,11.7c0,3.5,0,4.9,0,4.9l6.3-2.1v-2.9"/>
	<path class="st13" d="M35.8,48.5c0,0,0.4,0.7,0.2,1.6c0,0,0.9-1.1,1.9-0.7c1.2,0.5,0.7,1.9,0.7,1.9s1-0.5,1.8,0.2
		c0.9,0.9,0.1,2.2,0.1,2.2s1.2-0.3,1.6,1.1c0.3,1.2-1,1.9-1,1.9s1.2,0.5,0.7,1.8c-0.4,1.3-1.8,1.1-1.8,1.1s0.2,1.4-1.2,1.6
		c-1.3,0.2-2.2-0.7-2.3-2.1"/>
	<path class="st5" d="M34.7,31.3c0,0,0-0.7,0.5-0.8c0.5-0.1,1.3,0,1.3,0S35.6,31.4,34.7,31.3z"/>
	<path class="st13" d="M30.5,34.3c0,0,0.2,0.1,0.4-0.1c0.4-0.4,1.2-1.5,1.2-2.3"/>
	<path class="st13" d="M30.8,34.3c0,0,0.1,1.3,0.9,1.9"/>
	<polygon class="st14" points="36.5,28.9 38.6,26 39.4,29.4 	"/>
	<polygon class="st5" points="37.1,28.7 38.2,27.1 38.5,29 	"/>
	<path class="st13" d="M33.5,49.3c0.6,1.6,1,3.6,0.9,6.2"/>
	<path class="st13" d="M31,45.1c0,0,1.1,1,2.1,3.1"/>
	<path class="st13" d="M34.7,48.9c0.5,1.7,0.7,3.9,0.4,6.6"/>
	<path class="st13" d="M32.8,45c0,0,0.1,0.1,0.3,0.4"/>
	<path class="st13" d="M37.5,50.4c0,0-0.6,1.8-1.9,5.1"/>
	<path class="st13" d="M39.7,52.4c0,0-2,0.7-3.6,3.4"/>
	<path class="st13" d="M36.5,56.1c0,0,1.9-1.7,4.7-1"/>
	<path class="st13" d="M36.8,56.6c1.3-0.7,3.7-0.3,4.2,1.7"/>
	<path class="st13" d="M37,57.1c2.3-1.1,4,2.2,1.6,3.5"/>
	<g>
		<path class="st1" d="M38.8,48.4c0,0,0.3,0.8,1.1,0.7c0.6,0,0.9-0.7,0.9-0.7s0,1.1-1,1.1C38.9,49.5,38.8,48.4,38.8,48.4z"/>
		<path class="st1" d="M40,47.6c0,0,0.3,0.8,1.1,0.7c0.6,0,0.9-0.7,0.9-0.7s0,1.1-1,1.1C40.1,48.7,40,47.6,40,47.6z"/>
		<path class="st1" d="M41.4,48.4c0,0,0.3,0.8,1.1,0.7c0.6,0,0.9-0.7,0.9-0.7s0,1.1-1,1.1C41.5,49.5,41.4,48.4,41.4,48.4z"/>
	</g>
	<g>
		<path class="st1" d="M44.2,53.7c0,0,0.3,0.8,1.1,0.7c0.6,0,0.9-0.7,0.9-0.7s0,1.1-1,1.1C44.3,54.9,44.2,53.7,44.2,53.7z"/>
		<path class="st1" d="M45.4,52.9c0,0,0.3,0.8,1.1,0.7c0.6,0,0.9-0.7,0.9-0.7s0,1.1-1,1.1C45.5,54.1,45.4,52.9,45.4,52.9z"/>
		<path class="st1" d="M46.8,53.8c0,0,0.3,0.8,1.1,0.7c0.6,0,0.9-0.7,0.9-0.7s0,1.1-1,1.1C46.9,54.9,46.8,53.8,46.8,53.8z"/>
	</g>
	<g>
		<path class="st1" d="M40,61c0,0,0.3,0.8,1.1,0.7c0.6,0,0.9-0.7,0.9-0.7s0,1.1-1,1.1C40.1,62.1,40,61,40,61z"/>
		<path class="st1" d="M41.2,60.2c0,0,0.3,0.8,1.1,0.7c0.6,0,0.9-0.7,0.9-0.7s0,1.1-1,1.1C41.3,61.3,41.2,60.2,41.2,60.2z"/>
		<path class="st1" d="M42.6,61c0,0,0.3,0.8,1.1,0.7c0.6,0,0.9-0.7,0.9-0.7s0,1.1-1,1.1C42.7,62.1,42.6,61,42.6,61z"/>
	</g>
	<g>
		<path class="st1" d="M33.9,62.4c0,0,0.2,0.7,1,0.7c0.5,0,0.8-0.7,0.8-0.7s0,1-0.9,1C34,63.4,33.9,62.4,33.9,62.4z"/>
		<path class="st1" d="M35,61.7c0,0,0.2,0.7,1,0.7c0.5,0,0.8-0.7,0.8-0.7s0,1-0.9,1C35.1,62.7,35,61.7,35,61.7z"/>
		<path class="st1" d="M36.3,62.4c0,0,0.2,0.7,1,0.7c0.5,0,0.8-0.7,0.8-0.7s0,1-0.9,1C36.4,63.5,36.3,62.4,36.3,62.4z"/>
	</g>
	<g>
		<path class="st1" d="M44.2,51.3c0,0,0.3,0.8,1.1,0.7c0.6,0,0.9-0.7,0.9-0.7s0,1.1-1,1.1C44.3,52.5,44.2,51.3,44.2,51.3z"/>
		<path class="st1" d="M42.6,50.6c0,0,0.3,0.8,1.1,0.7c0.6,0,0.9-0.7,0.9-0.7s0,1.1-1,1.1C42.8,51.7,42.6,50.6,42.6,50.6z"/>
	</g>
	<g>
		<path class="st1" d="M41.3,46.6c0,0,0.3,0.8,1.1,0.7c0.6,0,0.9-0.7,0.9-0.7s0,1.1-1,1.1C41.4,47.8,41.3,46.6,41.3,46.6z"/>
		<path class="st1" d="M39.8,45.9c0,0,0.3,0.8,1.1,0.7c0.6,0,0.9-0.7,0.9-0.7s0,1.1-1,1.1C39.9,47,39.8,45.9,39.8,45.9z"/>
	</g>
	<g>
		<path class="st1" d="M44.4,57.4c0,0,0.3,0.8,1.1,0.7c0.6,0,0.9-0.7,0.9-0.7s0,1.1-1,1.1C44.5,58.6,44.4,57.4,44.4,57.4z"/>
		<path class="st1" d="M42.8,56.6c0,0,0.3,0.8,1.1,0.7c0.6,0,0.9-0.7,0.9-0.7s0,1.1-1,1.1C42.9,57.8,42.8,56.6,42.8,56.6z"/>
	</g>
	<g>
		<path class="st1" d="M44.7,63.5c0,0,0.3,0.8,1.1,0.7c0.6,0,0.9-0.7,0.9-0.7s0,1.1-1,1.1C44.8,64.6,44.7,63.5,44.7,63.5z"/>
		<path class="st1" d="M43.2,62.7c0,0,0.3,0.8,1.1,0.7c0.6,0,0.9-0.7,0.9-0.7s0,1.1-1,1.1C43.3,63.8,43.2,62.7,43.2,62.7z"/>
	</g>
	<g>
		<path class="st1" d="M34.7,58.9c0,0,0.2,0.6,0.9,0.5c0.5,0,0.7-0.6,0.7-0.6s0,0.9-0.7,0.9C34.7,59.8,34.7,58.9,34.7,58.9z"/>
		<path class="st1" d="M33.5,58.3c0,0,0.2,0.6,0.9,0.5c0.5,0,0.7-0.6,0.7-0.6s0,0.9-0.7,0.9C33.6,59.2,33.5,58.3,33.5,58.3z"/>
	</g>
	<g>
		<path class="st1" d="M20.2,70.2c0,0,2.5-4.1,7.6-5.2c5.2-1.1,7.8,0.9,13.6,0.9c5.9,0,8-2.9,13-2.1s8.3,6.2,8.3,6.2L20.2,70.2z"/>
		<path class="st13" d="M61.1,70c-1-1.8-3.3-4.3-6.8-4.8c-4.7-0.7-7.3,1.8-12.9,1.8c-5.6,0-8.3-1.8-13.3-0.7
			C24.9,67,23,68.9,22,70.2"/>
		<path class="st13" d="M59.5,70c-1.5-1.7-2.9-3-5.7-3.3c-4.5-0.6-7.2,1.4-12.5,1.5s-7.4-1.4-12.1-0.5c-2.5,0.5-4,1.5-5.1,2.6"/>
		<path class="st13" d="M57.6,70c-0.7-0.8-2.9-2.2-5.4-2.1c-4.1,0.2-5.8,1.4-10.6,1.4c-5.8,0-6.7-0.9-10.9-0.5
			c-2.3,0.2-3.5,0.9-4.1,1.5"/>
	</g>
</g>
<g>
	<line class="st15" x1="98.6" y1="22.2" x2="98.6" y2="76.4"/>
	<line class="st15" x1="91.6" y1="23.1" x2="105.7" y2="75.5"/>
	<line class="st15" x1="85.1" y1="25.9" x2="112.2" y2="72.8"/>
	<line class="st15" x1="79.5" y1="30.1" x2="117.8" y2="68.5"/>
	<line class="st15" x1="75.1" y1="35.8" x2="122.1" y2="62.9"/>
	<line class="st15" x1="72.4" y1="42.3" x2="124.8" y2="56.3"/>
	<line class="st15" x1="71.5" y1="49.3" x2="125.8" y2="49.3"/>
	<line class="st15" x1="72.4" y1="56.3" x2="124.8" y2="42.3"/>
	<line class="st15" x1="75.1" y1="62.9" x2="122.1" y2="35.8"/>
	<line class="st15" x1="79.5" y1="68.5" x2="117.8" y2="30.1"/>
	<line class="st15" x1="85.1" y1="72.8" x2="112.2" y2="25.9"/>
	<line class="st15" x1="91.6" y1="75.5" x2="105.7" y2="23.1"/>
</g>
<path class="st1" d="M101.6,49.3c0,1.7-1.3,3-3,3s-3-1.3-3-3c0-1.7,1.3-3,3-3C100.3,46.4,101.6,47.7,101.6,49.3z"/>
<path class="st5" d="M100,49.3c0,0.8-0.6,1.4-1.4,1.4c-0.8,0-1.4-0.6-1.4-1.4c0-0.8,0.6-1.4,1.4-1.4C99.4,48,100,48.6,100,49.3z"/>
<path class="st16" d="M126.7,49.3c0,15.5-12.5,28-28,28s-28-12.5-28-28s12.5-28,28-28S126.7,33.8,126.7,49.3z"/>
<path class="st16" d="M123.7,49.3c0,13.8-11.2,25-25,25s-25-11.2-25-25s11.2-25,25-25S123.7,35.5,123.7,49.3z"/>
<path class="st17" d="M121.8,49.3c0,12.8-10.4,23.2-23.2,23.2S75.5,62.1,75.5,49.3s10.4-23.2,23.2-23.2
	C111.4,26.2,121.8,36.6,121.8,49.3z"/>
<polyline class="st16" points="106.7,89.1 98.6,49.3 90.6,89.1 "/>
<g>
	<g>
		<path class="st5" d="M99.8,20.2c0,0.6-0.5,1.2-1.2,1.2c-0.6,0-1.2-0.5-1.2-1.2c0-0.6,0.5-1.2,1.2-1.2C99.2,19,99.8,19.5,99.8,20.2
			z"/>
		<path class="st5" d="M99.8,78.5c0,0.6-0.5,1.2-1.2,1.2c-0.6,0-1.2-0.5-1.2-1.2c0-0.6,0.5-1.2,1.2-1.2
			C99.2,77.3,99.8,77.9,99.8,78.5z"/>
	</g>
	<g>
		<path class="st5" d="M92.2,20.8c0.2,0.6-0.2,1.2-0.8,1.4c-0.6,0.2-1.2-0.2-1.4-0.8s0.2-1.2,0.8-1.4C91.4,19.8,92,20.2,92.2,20.8z"
			/>
		<path class="st5" d="M107.3,77.2c0.2,0.6-0.2,1.2-0.8,1.4c-0.6,0.2-1.2-0.2-1.4-0.8c-0.2-0.6,0.2-1.2,0.8-1.4
			C106.5,76.2,107.2,76.6,107.3,77.2z"/>
	</g>
	<g>
		<path class="st5" d="M85,23.5c0.3,0.6,0.1,1.3-0.4,1.6c-0.6,0.3-1.3,0.1-1.6-0.4c-0.3-0.6-0.1-1.3,0.4-1.6
			C84,22.7,84.7,22.9,85,23.5z"/>
		<path class="st5" d="M114.2,74c0.3,0.6,0.1,1.3-0.4,1.6c-0.6,0.3-1.3,0.1-1.6-0.4c-0.3-0.6-0.1-1.3,0.4-1.6
			C113.2,73.3,113.9,73.5,114.2,74z"/>
	</g>
	<g>
		<path class="st5" d="M78.8,27.9c0.4,0.4,0.4,1.2,0,1.6c-0.4,0.4-1.2,0.4-1.6,0c-0.4-0.4-0.4-1.2,0-1.6
			C77.6,27.4,78.4,27.4,78.8,27.9z"/>
		<path class="st5" d="M120.1,69.1c0.4,0.4,0.4,1.2,0,1.6c-0.4,0.4-1.2,0.4-1.6,0c-0.4-0.4-0.4-1.2,0-1.6
			C118.9,68.7,119.6,68.7,120.1,69.1z"/>
	</g>
	<g>
		<path class="st5" d="M74,33.8c0.6,0.3,0.7,1,0.4,1.6c-0.3,0.6-1,0.7-1.6,0.4c-0.6-0.3-0.7-1-0.4-1.6C72.7,33.6,73.4,33.4,74,33.8z
			"/>
		<path class="st5" d="M124.5,62.9c0.6,0.3,0.7,1,0.4,1.6c-0.3,0.6-1,0.7-1.6,0.4c-0.6-0.3-0.7-1-0.4-1.6
			C123.2,62.8,123.9,62.6,124.5,62.9z"/>
	</g>
	<g>
		<path class="st5" d="M70.7,40.7c0.6,0.2,1,0.8,0.8,1.4s-0.8,1-1.4,0.8c-0.6-0.2-1-0.8-0.8-1.4C69.5,40.8,70.1,40.5,70.7,40.7z"/>
		<path class="st5" d="M127.1,55.8c0.6,0.2,1,0.8,0.8,1.4c-0.2,0.6-0.8,1-1.4,0.8c-0.6-0.2-1-0.8-0.8-1.4
			C125.9,55.9,126.5,55.6,127.1,55.8z"/>
	</g>
	<g>
		<path class="st5" d="M69.4,48.2c0.6,0,1.2,0.5,1.2,1.2c0,0.6-0.5,1.2-1.2,1.2c-0.6,0-1.2-0.5-1.2-1.2
			C68.3,48.7,68.8,48.2,69.4,48.2z"/>
		<path class="st5" d="M127.8,48.2c0.6,0,1.2,0.5,1.2,1.2c0,0.6-0.5,1.2-1.2,1.2c-0.6,0-1.2-0.5-1.2-1.2
			C126.7,48.7,127.2,48.2,127.8,48.2z"/>
	</g>
	<g>
		<path class="st5" d="M70.2,55.8c0.6-0.2,1.2,0.2,1.4,0.8s-0.2,1.2-0.8,1.4s-1.2-0.2-1.4-0.8C69.2,56.6,69.6,55.9,70.2,55.8z"/>
		<path class="st5" d="M126.5,40.7c0.6-0.2,1.2,0.2,1.4,0.8c0.2,0.6-0.2,1.2-0.8,1.4c-0.6,0.2-1.2-0.2-1.4-0.8
			C125.5,41.5,125.9,40.8,126.5,40.7z"/>
	</g>
	<g>
		<path class="st5" d="M72.8,62.9c0.6-0.3,1.3-0.1,1.6,0.4c0.3,0.6,0.1,1.3-0.4,1.6c-0.6,0.3-1.3,0.1-1.6-0.4
			C72.1,64,72.2,63.2,72.8,62.9z"/>
		<path class="st5" d="M123.3,33.8c0.6-0.3,1.3-0.1,1.6,0.4c0.3,0.6,0.1,1.3-0.4,1.6c-0.6,0.3-1.3,0.1-1.6-0.4
			C122.6,34.8,122.8,34,123.3,33.8z"/>
	</g>
	<g>
		<path class="st5" d="M77.2,69.1c0.4-0.4,1.2-0.4,1.6,0c0.4,0.4,0.4,1.2,0,1.6c-0.4,0.4-1.2,0.4-1.6,0
			C76.7,70.3,76.7,69.6,77.2,69.1z"/>
		<path class="st5" d="M118.5,27.9c0.4-0.4,1.2-0.4,1.6,0c0.4,0.4,0.4,1.2,0,1.6c-0.4,0.4-1.2,0.4-1.6,0
			C118,29.1,118,28.3,118.5,27.9z"/>
	</g>
	<g>
		<path class="st5" d="M83,74c0.3-0.6,1-0.7,1.6-0.4c0.6,0.3,0.7,1,0.4,1.6c-0.3,0.6-1,0.7-1.6,0.4C82.9,75.3,82.7,74.5,83,74z"/>
		<path class="st5" d="M112.2,23.5c0.3-0.6,1-0.7,1.6-0.4c0.6,0.3,0.7,1,0.4,1.6c-0.3,0.6-1,0.7-1.6,0.4
			C112.1,24.7,111.9,24,112.2,23.5z"/>
	</g>
	<g>
		<path class="st5" d="M89.9,77.2c0.2-0.6,0.8-1,1.4-0.8c0.6,0.2,1,0.8,0.8,1.4s-0.8,1-1.4,0.8C90.2,78.4,89.8,77.8,89.9,77.2z"/>
		<path class="st5" d="M105,20.8c0.2-0.6,0.8-1,1.4-0.8c0.6,0.2,1,0.8,0.8,1.4s-0.8,1-1.4,0.8C105.3,22.1,104.9,21.5,105,20.8z"/>
	</g>
</g>
<rect x="88.5" y="86.1" class="st6" width="19.6" height="3.7"/>
<g>
	<path class="st18" d="M185.9,178.1"/>
	<g>
		<path class="st18" d="M0,336h7c0,0,10,1,10-10s0-16,0-16s0-42,0-62s19.7-19.7,19.7-19.7l18-0.2l86.9-0.1c0,0,9.2,0.6,9.2-10.1
			c0-10.6,7.2-10.1,7.2-10.1h12.5c0,0,15.4,1.9,15.4-10.6c0-12.5-0.6-42.5-0.6-42.5s-0.7-11.4-17.5-11.4s-5.4,0-5.4,0H57.8
			c0,0-14.7-0.7-14.7,14.7s15.9,15.9,15.9,15.9h22.5c0,0,17.4,0.9,17.4-17.4c0-11.4,0-27.8,0-35.9l-0.2-30.3"/>
		<path class="st18" d="M2,228.4"/>
	</g>
</g>
<g>
	<g>
		<path class="st1" d="M55.5,352c0,0-1.9-2.4,4.6-2.4c6.4,0,4.5,2.4,4.5,2.4s-3.1,1.9-3.1,12.1c0,10.1,1.6,16.8,1.6,16.8h-6.4
			c0,0,1.7-5.2,1.7-16.9C58.5,352.3,55.5,352,55.5,352z"/>
		<path class="st0" d="M58.3,352c0,0-0.8-2.4,1.8-2.4c2.5,0,1.8,2.4,1.8,2.4s-1.2,1.9-1.2,12c0,10.1,0.6,16.7,0.6,16.7h-2.5
			c0,0,0.6-5.2,0.6-16.9C59.5,352.3,58.3,352,58.3,352z"/>
		<g>
			<path class="st19" d="M58.2,380.8c0,0,0.7-10.6,0.7-20c0-11.6-4.7-15.9-4.7-15.9"/>
			<path class="st19" d="M61.8,380.8c0,0-0.7-10.6-0.7-20c0-11.6,4.7-15.9,4.7-15.9"/>
		</g>
		<g>
			<path class="st19" d="M56.2,380.8c0,0,1.7-10.5,1.7-19.7c0-11.4-10.8-13.8-10.8-13.8"/>
			<path class="st19" d="M63.8,380.8c0,0-1.7-10.5-1.7-19.7c0-11.4,10.8-13.8,10.8-13.8"/>
		</g>
		<line class="st19" x1="60" y1="380.8" x2="60" y2="344"/>
		<g>
			<line class="st19" x1="48.7" y1="347.7" x2="48.1" y2="346.2"/>
			<line class="st19" x1="50.6" y1="348.5" x2="50" y2="346.7"/>
			<line class="st19" x1="52.3" y1="349.5" x2="51.9" y2="347.8"/>
			<line class="st19" x1="53.7" y1="350.6" x2="53.6" y2="348.7"/>
			<line class="st19" x1="55" y1="351.9" x2="55" y2="350.3"/>
			<line class="st19" x1="56" y1="353.6" x2="56.1" y2="351.6"/>
			<line class="st19" x1="57.1" y1="355.6" x2="57.6" y2="353.5"/>
			<line class="st19" x1="57.6" y1="357.5" x2="58.3" y2="355.8"/>
			<line class="st19" x1="48.5" y1="347.3" x2="49.2" y2="345.8"/>
			<line class="st19" x1="50.4" y1="347.8" x2="51.3" y2="345.8"/>
			<line class="st19" x1="50.8" y1="346.8" x2="50.3" y2="345.5"/>
			<line class="st19" x1="52.3" y1="348.7" x2="53.4" y2="347.5"/>
			<line class="st19" x1="52.9" y1="347.9" x2="51.5" y2="345.1"/>
			<line class="st19" x1="52.4" y1="346.8" x2="52.6" y2="344.8"/>
			<line class="st19" x1="53.7" y1="349.8" x2="55.3" y2="348.3"/>
			<line class="st19" x1="54.7" y1="348.8" x2="53.7" y2="346.6"/>
			<line class="st19" x1="54.3" y1="347.7" x2="54.9" y2="346.7"/>
			<line class="st19" x1="55" y1="351" x2="56.5" y2="349.9"/>
			<line class="st19" x1="56" y1="350.2" x2="55.6" y2="348.9"/>
			<line class="st19" x1="56.1" y1="352.3" x2="57.8" y2="351.8"/>
			<line class="st19" x1="57" y1="352" x2="56.9" y2="350.8"/>
			<line class="st19" x1="57.3" y1="354.4" x2="56.7" y2="353.3"/>
			<line class="st19" x1="58.1" y1="353.3" x2="57.4" y2="353.3"/>
			<line class="st19" x1="57.3" y1="355.2" x2="58.2" y2="354.7"/>
			<line class="st19" x1="57.9" y1="356.6" x2="57.6" y2="355.9"/>
			<line class="st19" x1="58.7" y1="356" x2="58" y2="355.3"/>
			<line class="st19" x1="54.7" y1="347.3" x2="56" y2="347.5"/>
			<line class="st19" x1="55.9" y1="349.3" x2="56.9" y2="349.3"/>
			<line class="st19" x1="52.7" y1="346" x2="55.1" y2="346"/>
			<line class="st19" x1="53.9" y1="346" x2="53.3" y2="344.8"/>
			<line class="st19" x1="56.3" y1="350.8" x2="57.4" y2="350.8"/>
		</g>
		<g>
			<line class="st19" x1="71.4" y1="347.7" x2="72" y2="346.2"/>
			<line class="st19" x1="69.6" y1="348.5" x2="70.2" y2="346.7"/>
			<line class="st19" x1="67.8" y1="349.5" x2="68.2" y2="347.8"/>
			<line class="st19" x1="66.5" y1="350.6" x2="66.6" y2="348.7"/>
			<line class="st19" x1="65.2" y1="351.9" x2="65.2" y2="350.3"/>
			<line class="st19" x1="64.1" y1="353.6" x2="64" y2="351.6"/>
			<line class="st19" x1="63" y1="355.6" x2="62.5" y2="353.5"/>
			<line class="st19" x1="62.5" y1="357.5" x2="61.8" y2="355.8"/>
			<line class="st19" x1="71.6" y1="347.3" x2="70.9" y2="345.8"/>
			<line class="st19" x1="69.8" y1="347.8" x2="68.8" y2="345.8"/>
			<line class="st19" x1="69.4" y1="346.8" x2="69.8" y2="345.5"/>
			<line class="st19" x1="67.9" y1="348.7" x2="66.7" y2="347.5"/>
			<line class="st19" x1="67.3" y1="347.9" x2="68.6" y2="345.1"/>
			<line class="st19" x1="67.7" y1="346.8" x2="67.5" y2="344.8"/>
			<line class="st19" x1="66.5" y1="349.8" x2="64.9" y2="348.3"/>
			<line class="st19" x1="65.4" y1="348.8" x2="66.4" y2="346.6"/>
			<line class="st19" x1="65.8" y1="347.7" x2="65.2" y2="346.7"/>
			<line class="st19" x1="65.1" y1="351" x2="63.6" y2="349.9"/>
			<line class="st19" x1="64.1" y1="350.2" x2="64.6" y2="348.9"/>
			<line class="st19" x1="64" y1="352.3" x2="62.4" y2="351.8"/>
			<line class="st19" x1="63.1" y1="352" x2="63.2" y2="350.8"/>
			<line class="st19" x1="62.8" y1="354.4" x2="63.4" y2="353.3"/>
			<line class="st19" x1="62" y1="353.3" x2="62.7" y2="353.3"/>
			<line class="st19" x1="62.9" y1="355.2" x2="62" y2="354.7"/>
			<line class="st19" x1="62.2" y1="356.6" x2="62.5" y2="355.9"/>
			<line class="st19" x1="61.5" y1="356" x2="62.2" y2="355.3"/>
			<line class="st19" x1="65.4" y1="347.3" x2="64.1" y2="347.5"/>
			<line class="st19" x1="64.3" y1="349.3" x2="63.2" y2="349.3"/>
			<line class="st19" x1="67.4" y1="346" x2="65" y2="346"/>
			<line class="st19" x1="66.2" y1="346" x2="66.9" y2="344.8"/>
			<line class="st19" x1="63.8" y1="350.8" x2="62.8" y2="350.8"/>
		</g>
		<g>
			<line class="st19" x1="55" y1="345.5" x2="55.5" y2="344.1"/>
			<line class="st19" x1="56.1" y1="347.3" x2="56.7" y2="345.4"/>
			<line class="st19" x1="56.9" y1="348.7" x2="57.5" y2="347.2"/>
			<line class="st19" x1="57.6" y1="350.6" x2="58.1" y2="349.4"/>
			<line class="st19" x1="58.2" y1="352.9" x2="59.4" y2="351.4"/>
			<line class="st19" x1="58.7" y1="355.6" x2="59.9" y2="354.3"/>
			<line class="st19" x1="55.1" y1="345" x2="57.1" y2="344.4"/>
			<line class="st19" x1="56.5" y1="344.6" x2="56.8" y2="343.4"/>
			<line class="st19" x1="56.4" y1="346.6" x2="58.9" y2="345.8"/>
			<line class="st19" x1="57.5" y1="346.2" x2="57.8" y2="345.3"/>
			<line class="st19" x1="57.1" y1="348.3" x2="59.4" y2="347.9"/>
			<line class="st19" x1="58" y1="348" x2="58.3" y2="347.3"/>
			<line class="st19" x1="57.9" y1="350.2" x2="59.6" y2="350.2"/>
			<line class="st19" x1="58.8" y1="350.2" x2="59.2" y2="349.1"/>
			<line class="st19" x1="58.7" y1="352.4" x2="59.5" y2="352.4"/>
			<line class="st19" x1="58.7" y1="352.2" x2="58.6" y2="351.2"/>
			<line class="st19" x1="59.2" y1="355.1" x2="59" y2="353.7"/>
			<line class="st19" x1="59.1" y1="353.1" x2="60" y2="353.7"/>
			<line class="st19" x1="59.1" y1="351.1" x2="59.9" y2="351.8"/>
			<line class="st19" x1="58.8" y1="348.8" x2="60" y2="349.6"/>
			<line class="st19" x1="58.7" y1="347.1" x2="60" y2="348.2"/>
			<line class="st19" x1="58.3" y1="345.3" x2="60" y2="346.7"/>
			<line class="st19" x1="58.4" y1="343.5" x2="59.9" y2="344.9"/>
			<line class="st19" x1="57.8" y1="344.3" x2="59.2" y2="344.4"/>
		</g>
		<g>
			<line class="st19" x1="65.2" y1="345.5" x2="64.6" y2="344.1"/>
			<line class="st19" x1="64" y1="347.3" x2="63.4" y2="345.4"/>
			<line class="st19" x1="63.2" y1="348.7" x2="62.6" y2="347.2"/>
			<line class="st19" x1="62.5" y1="350.6" x2="62" y2="349.4"/>
			<line class="st19" x1="61.9" y1="352.9" x2="60.7" y2="351.4"/>
			<line class="st19" x1="61.4" y1="355.6" x2="60.2" y2="354.3"/>
			<line class="st19" x1="65" y1="345" x2="63" y2="344.4"/>
			<line class="st19" x1="63.7" y1="344.6" x2="63.3" y2="343.4"/>
			<line class="st19" x1="63.7" y1="346.6" x2="61.2" y2="345.8"/>
			<line class="st19" x1="62.6" y1="346.2" x2="62.4" y2="345.3"/>
			<line class="st19" x1="63" y1="348.3" x2="60.7" y2="347.9"/>
			<line class="st19" x1="62.1" y1="348" x2="61.8" y2="347.3"/>
			<line class="st19" x1="62.2" y1="350.2" x2="60.5" y2="350.2"/>
			<line class="st19" x1="61.4" y1="350.2" x2="61" y2="349.1"/>
			<line class="st19" x1="61.4" y1="352.4" x2="60.7" y2="352.4"/>
			<line class="st19" x1="61.5" y1="352.2" x2="61.5" y2="351.2"/>
			<line class="st19" x1="60.9" y1="355.1" x2="61.1" y2="353.7"/>
			<line class="st19" x1="61" y1="353.1" x2="60.1" y2="353.7"/>
			<line class="st19" x1="61.1" y1="351.1" x2="60.2" y2="351.8"/>
			<line class="st19" x1="61.3" y1="348.8" x2="60.1" y2="349.6"/>
			<line class="st19" x1="61.5" y1="347.1" x2="60.1" y2="348.2"/>
			<line class="st19" x1="61.8" y1="345.3" x2="60.1" y2="346.7"/>
			<line class="st19" x1="61.7" y1="343.5" x2="60.1" y2="345.1"/>
			<line class="st19" x1="62.4" y1="344.3" x2="60.9" y2="344.4"/>
		</g>
	</g>
	<g>
		<path class="st1" d="M21.4,352c0,0-1.9-2.4,4.6-2.4c6.4,0,4.5,2.4,4.5,2.4s-3.1,1.9-3.1,12.1c0,10.1,1.6,16.8,1.6,16.8h-6.4
			c0,0,1.7-5.2,1.7-16.9C24.3,352.3,21.4,352,21.4,352z"/>
		<path class="st0" d="M24.1,352c0,0-0.8-2.4,1.8-2.4c2.5,0,1.8,2.4,1.8,2.4s-1.2,1.9-1.2,12c0,10.1,0.6,16.7,0.6,16.7h-2.5
			c0,0,0.6-5.2,0.6-16.9C25.3,352.3,24.1,352,24.1,352z"/>
		<g>
			<path class="st19" d="M24.1,380.8c0,0,0.7-10.6,0.7-20c0-11.6-4.7-15.9-4.7-15.9"/>
			<path class="st19" d="M27.7,380.8c0,0-0.7-10.6-0.7-20c0-11.6,4.7-15.9,4.7-15.9"/>
		</g>
		<g>
			<path class="st19" d="M22,380.8c0,0,1.7-10.5,1.7-19.7c0-11.4-10.8-13.8-10.8-13.8"/>
			<path class="st19" d="M29.7,380.8c0,0-1.7-10.5-1.7-19.7c0-11.4,10.8-13.8,10.8-13.8"/>
		</g>
		<line class="st19" x1="25.9" y1="380.8" x2="25.9" y2="344"/>
		<g>
			<line class="st19" x1="14.5" y1="347.7" x2="14" y2="346.2"/>
			<line class="st19" x1="16.5" y1="348.5" x2="15.8" y2="346.7"/>
			<line class="st19" x1="18.1" y1="349.5" x2="17.8" y2="347.8"/>
			<line class="st19" x1="19.5" y1="350.6" x2="19.4" y2="348.7"/>
			<line class="st19" x1="20.8" y1="351.9" x2="20.8" y2="350.3"/>
			<line class="st19" x1="21.8" y1="353.6" x2="22" y2="351.6"/>
			<line class="st19" x1="23" y1="355.6" x2="23.5" y2="353.5"/>
			<line class="st19" x1="23.5" y1="357.5" x2="24.2" y2="355.8"/>
			<line class="st19" x1="14.4" y1="347.3" x2="15.1" y2="345.8"/>
			<line class="st19" x1="16.2" y1="347.8" x2="17.2" y2="345.8"/>
			<line class="st19" x1="16.7" y1="346.8" x2="16.1" y2="345.5"/>
			<line class="st19" x1="18.1" y1="348.7" x2="19.3" y2="347.5"/>
			<line class="st19" x1="18.7" y1="347.9" x2="17.3" y2="345.1"/>
			<line class="st19" x1="18.2" y1="346.8" x2="18.5" y2="344.8"/>
			<line class="st19" x1="19.5" y1="349.8" x2="21.1" y2="348.3"/>
			<line class="st19" x1="20.6" y1="348.8" x2="19.6" y2="346.6"/>
			<line class="st19" x1="20.2" y1="347.7" x2="20.8" y2="346.7"/>
			<line class="st19" x1="20.8" y1="351" x2="22.4" y2="349.9"/>
			<line class="st19" x1="21.8" y1="350.2" x2="21.4" y2="348.9"/>
			<line class="st19" x1="22" y1="352.3" x2="23.6" y2="351.8"/>
			<line class="st19" x1="22.9" y1="352" x2="22.8" y2="350.8"/>
			<line class="st19" x1="23.2" y1="354.4" x2="22.5" y2="353.3"/>
			<line class="st19" x1="24" y1="353.3" x2="23.3" y2="353.3"/>
			<line class="st19" x1="23.1" y1="355.2" x2="24" y2="354.7"/>
			<line class="st19" x1="23.8" y1="356.6" x2="23.5" y2="355.9"/>
			<line class="st19" x1="24.5" y1="356" x2="23.8" y2="355.3"/>
			<line class="st19" x1="20.6" y1="347.3" x2="21.9" y2="347.5"/>
			<line class="st19" x1="21.7" y1="349.3" x2="22.8" y2="349.3"/>
			<line class="st19" x1="18.6" y1="346" x2="21" y2="346"/>
			<line class="st19" x1="19.8" y1="346" x2="19.1" y2="344.8"/>
			<line class="st19" x1="22.2" y1="350.8" x2="23.3" y2="350.8"/>
		</g>
		<g>
			<line class="st19" x1="37.3" y1="347.7" x2="37.9" y2="346.2"/>
			<line class="st19" x1="35.4" y1="348.5" x2="36" y2="346.7"/>
			<line class="st19" x1="33.7" y1="349.5" x2="34" y2="347.8"/>
			<line class="st19" x1="32.3" y1="350.6" x2="32.4" y2="348.7"/>
			<line class="st19" x1="31.1" y1="351.9" x2="31" y2="350.3"/>
			<line class="st19" x1="30" y1="353.6" x2="29.9" y2="351.6"/>
			<line class="st19" x1="28.9" y1="355.6" x2="28.3" y2="353.5"/>
			<line class="st19" x1="28.4" y1="357.5" x2="27.7" y2="355.8"/>
			<line class="st19" x1="37.5" y1="347.3" x2="36.8" y2="345.8"/>
			<line class="st19" x1="35.6" y1="347.8" x2="34.7" y2="345.8"/>
			<line class="st19" x1="35.2" y1="346.8" x2="35.7" y2="345.5"/>
			<line class="st19" x1="33.8" y1="348.7" x2="32.5" y2="347.5"/>
			<line class="st19" x1="33.1" y1="347.9" x2="34.5" y2="345.1"/>
			<line class="st19" x1="33.6" y1="346.8" x2="33.3" y2="344.8"/>
			<line class="st19" x1="32.3" y1="349.8" x2="30.7" y2="348.3"/>
			<line class="st19" x1="31.3" y1="348.8" x2="32.3" y2="346.6"/>
			<line class="st19" x1="31.7" y1="347.7" x2="31.1" y2="346.7"/>
			<line class="st19" x1="31" y1="351" x2="29.5" y2="349.9"/>
			<line class="st19" x1="30" y1="350.2" x2="30.5" y2="348.9"/>
			<line class="st19" x1="29.9" y1="352.3" x2="28.2" y2="351.8"/>
			<line class="st19" x1="28.9" y1="352" x2="29" y2="350.8"/>
			<line class="st19" x1="28.7" y1="354.4" x2="29.3" y2="353.3"/>
			<line class="st19" x1="27.8" y1="353.3" x2="28.6" y2="353.3"/>
			<line class="st19" x1="28.7" y1="355.2" x2="27.8" y2="354.7"/>
			<line class="st19" x1="28.1" y1="356.6" x2="28.3" y2="355.9"/>
			<line class="st19" x1="27.3" y1="356" x2="28" y2="355.3"/>
			<line class="st19" x1="31.3" y1="347.3" x2="30" y2="347.5"/>
			<line class="st19" x1="30.1" y1="349.3" x2="29" y2="349.3"/>
			<line class="st19" x1="33.3" y1="346" x2="30.9" y2="346"/>
			<line class="st19" x1="32.1" y1="346" x2="32.7" y2="344.8"/>
			<line class="st19" x1="29.7" y1="350.8" x2="28.6" y2="350.8"/>
		</g>
		<g>
			<line class="st19" x1="20.8" y1="345.5" x2="21.3" y2="344.1"/>
			<line class="st19" x1="22" y1="347.3" x2="22.5" y2="345.4"/>
			<line class="st19" x1="22.7" y1="348.7" x2="23.3" y2="347.2"/>
			<line class="st19" x1="23.5" y1="350.6" x2="24" y2="349.4"/>
			<line class="st19" x1="24.1" y1="352.9" x2="25.3" y2="351.4"/>
			<line class="st19" x1="24.5" y1="355.6" x2="25.8" y2="354.3"/>
			<line class="st19" x1="21" y1="345" x2="23" y2="344.4"/>
			<line class="st19" x1="22.3" y1="344.6" x2="22.7" y2="343.4"/>
			<line class="st19" x1="22.3" y1="346.6" x2="24.7" y2="345.8"/>
			<line class="st19" x1="23.3" y1="346.2" x2="23.6" y2="345.3"/>
			<line class="st19" x1="22.9" y1="348.3" x2="25.3" y2="347.9"/>
			<line class="st19" x1="23.9" y1="348" x2="24.1" y2="347.3"/>
			<line class="st19" x1="23.8" y1="350.2" x2="25.5" y2="350.2"/>
			<line class="st19" x1="24.6" y1="350.2" x2="25" y2="349.1"/>
			<line class="st19" x1="24.6" y1="352.4" x2="25.3" y2="352.4"/>
			<line class="st19" x1="24.5" y1="352.2" x2="24.5" y2="351.2"/>
			<line class="st19" x1="25" y1="355.1" x2="24.8" y2="353.7"/>
			<line class="st19" x1="25" y1="353.1" x2="25.8" y2="353.7"/>
			<line class="st19" x1="24.9" y1="351.1" x2="25.8" y2="351.8"/>
			<line class="st19" x1="24.7" y1="348.8" x2="25.8" y2="349.6"/>
			<line class="st19" x1="24.5" y1="347.1" x2="25.8" y2="348.2"/>
			<line class="st19" x1="24.2" y1="345.3" x2="25.8" y2="346.7"/>
			<line class="st19" x1="24.3" y1="343.5" x2="25.7" y2="344.9"/>
			<line class="st19" x1="23.6" y1="344.3" x2="25.1" y2="344.4"/>
		</g>
		<g>
			<line class="st19" x1="31" y1="345.5" x2="30.5" y2="344.1"/>
			<line class="st19" x1="29.9" y1="347.3" x2="29.3" y2="345.4"/>
			<line class="st19" x1="29.1" y1="348.7" x2="28.5" y2="347.2"/>
			<line class="st19" x1="28.4" y1="350.6" x2="27.8" y2="349.4"/>
			<line class="st19" x1="27.7" y1="352.9" x2="26.6" y2="351.4"/>
			<line class="st19" x1="27.2" y1="355.6" x2="26" y2="354.3"/>
			<line class="st19" x1="30.9" y1="345" x2="28.8" y2="344.4"/>
			<line class="st19" x1="29.5" y1="344.6" x2="29.1" y2="343.4"/>
			<line class="st19" x1="29.6" y1="346.6" x2="27.1" y2="345.8"/>
			<line class="st19" x1="28.5" y1="346.2" x2="28.2" y2="345.3"/>
			<line class="st19" x1="28.9" y1="348.3" x2="26.6" y2="347.9"/>
			<line class="st19" x1="28" y1="348" x2="27.7" y2="347.3"/>
			<line class="st19" x1="28" y1="350.2" x2="26.4" y2="350.2"/>
			<line class="st19" x1="27.2" y1="350.2" x2="26.8" y2="349.1"/>
			<line class="st19" x1="27.2" y1="352.4" x2="26.5" y2="352.4"/>
			<line class="st19" x1="27.3" y1="352.2" x2="27.4" y2="351.2"/>
			<line class="st19" x1="26.8" y1="355.1" x2="27" y2="353.7"/>
			<line class="st19" x1="26.8" y1="353.1" x2="26" y2="353.7"/>
			<line class="st19" x1="26.9" y1="351.1" x2="26.1" y2="351.8"/>
			<line class="st19" x1="27.2" y1="348.8" x2="26" y2="349.6"/>
			<line class="st19" x1="27.3" y1="347.1" x2="26" y2="348.2"/>
			<line class="st19" x1="27.6" y1="345.3" x2="26" y2="346.7"/>
			<line class="st19" x1="27.6" y1="343.5" x2="26" y2="345.1"/>
			<line class="st19" x1="28.2" y1="344.3" x2="26.8" y2="344.4"/>
		</g>
	</g>
	<g>
		<path class="st1" d="M39.1,356.7c0,0-1.6-2,3.8-2c5.3,0,3.8,2,3.8,2s-2.6,1.6-2.6,10.1c0,8.5,1.4,14,1.4,14h-5.3
			c0,0,1.4-4.3,1.4-14.1C41.7,357,39.1,356.7,39.1,356.7z"/>
		<path class="st0" d="M41.5,356.8c0,0-0.6-2,1.5-2c2.1,0,1.4,2,1.4,2s-1,1.6-1,10.1c0,8.5,0.5,14,0.5,14h-2.1c0,0,0.6-4.3,0.6-14.1
			C42.4,357,41.5,356.8,41.5,356.8z"/>
		<g>
			<path class="st19" d="M41.4,380.8c0,0,0.6-8.8,0.6-16.7c0-9.7-3.9-13.3-3.9-13.3"/>
			<path class="st19" d="M44.5,380.8c0,0-0.6-8.8-0.6-16.7c0-9.7,3.9-13.3,3.9-13.3"/>
		</g>
		<g>
			<path class="st19" d="M39.7,380.8c0,0,1.4-8.8,1.4-16.5c0-9.6-9-11.6-9-11.6"/>
			<path class="st19" d="M46.1,380.8c0,0-1.4-8.8-1.4-16.5c0-9.6,9-11.6,9-11.6"/>
		</g>
		<line class="st19" x1="43" y1="380.8" x2="43" y2="350"/>
		<g>
			<line class="st19" x1="33.5" y1="353.2" x2="33" y2="351.9"/>
			<line class="st19" x1="35" y1="353.8" x2="34.6" y2="352.4"/>
			<line class="st19" x1="36.5" y1="354.7" x2="36.2" y2="353.2"/>
			<line class="st19" x1="37.7" y1="355.6" x2="37.6" y2="354"/>
			<line class="st19" x1="38.7" y1="356.6" x2="38.7" y2="355.3"/>
			<line class="st19" x1="39.6" y1="358" x2="39.7" y2="356.4"/>
			<line class="st19" x1="40.5" y1="359.8" x2="41" y2="358"/>
			<line class="st19" x1="41" y1="361.3" x2="41.5" y2="359.9"/>
			<line class="st19" x1="33.3" y1="352.8" x2="33.9" y2="351.6"/>
			<line class="st19" x1="34.9" y1="353.2" x2="35.7" y2="351.5"/>
			<line class="st19" x1="35.2" y1="352.4" x2="34.8" y2="351.3"/>
			<line class="st19" x1="36.5" y1="354" x2="37.5" y2="352.9"/>
			<line class="st19" x1="37" y1="353.3" x2="35.8" y2="351"/>
			<line class="st19" x1="36.6" y1="352.4" x2="36.8" y2="350.7"/>
			<line class="st19" x1="37.7" y1="354.9" x2="39" y2="353.7"/>
			<line class="st19" x1="38.5" y1="354.1" x2="37.7" y2="352.2"/>
			<line class="st19" x1="38.2" y1="353.1" x2="38.7" y2="352.3"/>
			<line class="st19" x1="38.7" y1="355.9" x2="40" y2="354.9"/>
			<line class="st19" x1="39.6" y1="355.2" x2="39.2" y2="354.1"/>
			<line class="st19" x1="39.7" y1="357" x2="41.1" y2="356.6"/>
			<line class="st19" x1="40.5" y1="356.7" x2="40.4" y2="355.8"/>
			<line class="st19" x1="40.7" y1="358.8" x2="40.1" y2="357.8"/>
			<line class="st19" x1="41.4" y1="357.9" x2="40.8" y2="357.9"/>
			<line class="st19" x1="40.7" y1="359.4" x2="41.4" y2="359"/>
			<line class="st19" x1="41.2" y1="360.5" x2="41" y2="360"/>
			<line class="st19" x1="41.8" y1="360.1" x2="41.2" y2="359.5"/>
			<line class="st19" x1="38.5" y1="352.8" x2="39.6" y2="352.9"/>
			<line class="st19" x1="39.5" y1="354.5" x2="40.4" y2="354.5"/>
			<line class="st19" x1="36.8" y1="351.7" x2="38.9" y2="351.7"/>
			<line class="st19" x1="37.9" y1="351.7" x2="37.3" y2="350.8"/>
			<line class="st19" x1="39.9" y1="355.7" x2="40.8" y2="355.7"/>
		</g>
		<g>
			<line class="st19" x1="52.5" y1="353.2" x2="53" y2="351.9"/>
			<line class="st19" x1="50.9" y1="353.8" x2="51.4" y2="352.4"/>
			<line class="st19" x1="49.5" y1="354.7" x2="49.8" y2="353.2"/>
			<line class="st19" x1="48.3" y1="355.6" x2="48.4" y2="354"/>
			<line class="st19" x1="47.3" y1="356.6" x2="47.3" y2="355.3"/>
			<line class="st19" x1="46.4" y1="358" x2="46.3" y2="356.4"/>
			<line class="st19" x1="45.5" y1="359.8" x2="45" y2="358"/>
			<line class="st19" x1="45" y1="361.3" x2="44.5" y2="359.9"/>
			<line class="st19" x1="52.6" y1="352.8" x2="52.1" y2="351.6"/>
			<line class="st19" x1="51.1" y1="353.2" x2="50.3" y2="351.5"/>
			<line class="st19" x1="50.7" y1="352.4" x2="51.2" y2="351.3"/>
			<line class="st19" x1="49.5" y1="354" x2="48.5" y2="352.9"/>
			<line class="st19" x1="49" y1="353.3" x2="50.2" y2="351"/>
			<line class="st19" x1="49.4" y1="352.4" x2="49.2" y2="350.7"/>
			<line class="st19" x1="48.3" y1="354.9" x2="47" y2="353.7"/>
			<line class="st19" x1="47.5" y1="354.1" x2="48.3" y2="352.2"/>
			<line class="st19" x1="47.8" y1="353.1" x2="47.3" y2="352.3"/>
			<line class="st19" x1="47.2" y1="355.9" x2="46" y2="354.9"/>
			<line class="st19" x1="46.4" y1="355.2" x2="46.7" y2="354.1"/>
			<line class="st19" x1="46.3" y1="357" x2="44.9" y2="356.6"/>
			<line class="st19" x1="45.5" y1="356.7" x2="45.6" y2="355.8"/>
			<line class="st19" x1="45.3" y1="358.8" x2="45.8" y2="357.8"/>
			<line class="st19" x1="44.6" y1="357.9" x2="45.2" y2="357.9"/>
			<line class="st19" x1="45.3" y1="359.4" x2="44.6" y2="359"/>
			<line class="st19" x1="44.8" y1="360.5" x2="45" y2="360"/>
			<line class="st19" x1="44.2" y1="360.1" x2="44.7" y2="359.5"/>
			<line class="st19" x1="47.5" y1="352.8" x2="46.3" y2="352.9"/>
			<line class="st19" x1="46.5" y1="354.5" x2="45.6" y2="354.5"/>
			<line class="st19" x1="49.2" y1="351.7" x2="47.1" y2="351.7"/>
			<line class="st19" x1="48.1" y1="351.7" x2="48.7" y2="350.8"/>
			<line class="st19" x1="46.1" y1="355.7" x2="45.2" y2="355.7"/>
		</g>
		<g>
			<line class="st19" x1="38.7" y1="351.3" x2="39.1" y2="350.1"/>
			<line class="st19" x1="39.7" y1="352.8" x2="40.1" y2="351.2"/>
			<line class="st19" x1="40.3" y1="354" x2="40.8" y2="352.8"/>
			<line class="st19" x1="41" y1="355.6" x2="41.4" y2="354.5"/>
			<line class="st19" x1="41.5" y1="357.5" x2="42.4" y2="356.3"/>
			<line class="st19" x1="41.8" y1="359.8" x2="42.8" y2="358.6"/>
			<line class="st19" x1="38.9" y1="350.9" x2="40.6" y2="350.4"/>
			<line class="st19" x1="40" y1="350.5" x2="40.3" y2="349.6"/>
			<line class="st19" x1="39.9" y1="352.2" x2="42" y2="351.6"/>
			<line class="st19" x1="40.8" y1="351.9" x2="41.1" y2="351.2"/>
			<line class="st19" x1="40.5" y1="353.6" x2="42.4" y2="353.3"/>
			<line class="st19" x1="41.2" y1="353.4" x2="41.5" y2="352.8"/>
			<line class="st19" x1="41.2" y1="355.3" x2="42.6" y2="355.2"/>
			<line class="st19" x1="41.9" y1="355.2" x2="42.2" y2="354.3"/>
			<line class="st19" x1="41.8" y1="357.1" x2="42.4" y2="357"/>
			<line class="st19" x1="41.8" y1="356.9" x2="41.8" y2="356.1"/>
			<line class="st19" x1="42.2" y1="359.3" x2="42.1" y2="358.2"/>
			<line class="st19" x1="42.2" y1="357.6" x2="42.9" y2="358.2"/>
			<line class="st19" x1="42.1" y1="356" x2="42.8" y2="356.6"/>
			<line class="st19" x1="42" y1="354.1" x2="42.9" y2="354.7"/>
			<line class="st19" x1="41.8" y1="352.7" x2="42.9" y2="353.6"/>
			<line class="st19" x1="41.6" y1="351.2" x2="42.9" y2="352.3"/>
			<line class="st19" x1="41.6" y1="349.6" x2="42.8" y2="350.8"/>
			<line class="st19" x1="41.1" y1="350.4" x2="42.3" y2="350.4"/>
		</g>
		<g>
			<line class="st19" x1="47.3" y1="351.3" x2="46.8" y2="350.1"/>
			<line class="st19" x1="46.3" y1="352.8" x2="45.8" y2="351.2"/>
			<line class="st19" x1="45.7" y1="354" x2="45.1" y2="352.8"/>
			<line class="st19" x1="45" y1="355.6" x2="44.6" y2="354.5"/>
			<line class="st19" x1="44.5" y1="357.5" x2="43.5" y2="356.3"/>
			<line class="st19" x1="44.1" y1="359.8" x2="43.1" y2="358.6"/>
			<line class="st19" x1="47.1" y1="350.9" x2="45.4" y2="350.4"/>
			<line class="st19" x1="46" y1="350.5" x2="45.7" y2="349.6"/>
			<line class="st19" x1="46.1" y1="352.2" x2="44" y2="351.6"/>
			<line class="st19" x1="45.1" y1="351.9" x2="44.9" y2="351.2"/>
			<line class="st19" x1="45.5" y1="353.6" x2="43.5" y2="353.3"/>
			<line class="st19" x1="44.7" y1="353.4" x2="44.5" y2="352.8"/>
			<line class="st19" x1="44.8" y1="355.3" x2="43.4" y2="355.2"/>
			<line class="st19" x1="44.1" y1="355.2" x2="43.7" y2="354.3"/>
			<line class="st19" x1="44.1" y1="357.1" x2="43.5" y2="357"/>
			<line class="st19" x1="44.1" y1="356.9" x2="44.2" y2="356.1"/>
			<line class="st19" x1="43.7" y1="359.3" x2="43.9" y2="358.2"/>
			<line class="st19" x1="43.8" y1="357.6" x2="43.1" y2="358.2"/>
			<line class="st19" x1="43.9" y1="356" x2="43.1" y2="356.6"/>
			<line class="st19" x1="44" y1="354.1" x2="43.1" y2="354.7"/>
			<line class="st19" x1="44.1" y1="352.7" x2="43.1" y2="353.6"/>
			<line class="st19" x1="44.4" y1="351.2" x2="43.1" y2="352.3"/>
			<line class="st19" x1="44.4" y1="349.6" x2="43" y2="351"/>
			<line class="st19" x1="44.9" y1="350.4" x2="43.7" y2="350.4"/>
		</g>
	</g>
</g>
<line class="st10" x1="18" y1="78.3" x2="65.3" y2="78.3"/>
<path class="st18" d="M132.9,228.4"/>
<path class="st18" d="M200,299c0,0-11,0-23,0s-12-14-12-14v-77.1"/>
</svg>
