<?xml version="1.0" encoding="utf-8"?>
<!-- Generator: Adobe Illustrator 22.1.0, SVG Export Plug-In . SVG Version: 6.00 Build 0)  -->
<svg version="1.1" id="Layer_1" xmlns="http://www.w3.org/2000/svg" xmlns:xlink="http://www.w3.org/1999/xlink" x="0px" y="0px"
	 viewBox="0 0 1024 426" style="enable-background:new 0 0 1024 426;" xml:space="preserve">
<style type="text/css">
	.st0{fill:none;stroke:#E0E0E0;stroke-width:27.0613;stroke-miterlimit:10;}
	.st1{fill:#871924;}
	.st2{fill:#DB2C56;}
	.st3{fill:#332326;}
	.st4{fill:#E0E0E0;}
	.st5{fill:none;stroke:#332326;stroke-width:5.1606;stroke-miterlimit:10;}
	.st6{fill:none;stroke:#EAEAEA;stroke-width:5.1606;stroke-miterlimit:10;}
	.st7{fill:#FFFFFF;}
	.st8{fill:none;stroke:#332326;stroke-width:2.8019;stroke-linecap:round;stroke-linejoin:round;stroke-miterlimit:10;}
	.st9{fill:none;stroke:#EAEAEA;stroke-width:2.3008;stroke-miterlimit:10;stroke-dasharray:13.8047;}
	.st10{fill:none;stroke:#465259;stroke-width:2.6704;stroke-linecap:round;stroke-miterlimit:10;stroke-dasharray:26.7039,13.3519;}
	.st11{fill:none;stroke:#E6BB8F;stroke-width:1.8127;stroke-miterlimit:10;}
	.st12{fill:none;stroke:#332326;stroke-width:1.8127;stroke-linecap:round;stroke-linejoin:round;stroke-miterlimit:10;}
	.st13{fill:none;stroke:#DB2C56;stroke-width:1.8127;stroke-miterlimit:10;}
	.st14{display:none;}
	.st15{display:inline;}
	.st16{fill:#F69D5E;}
	.st17{fill:#221F1F;}
	.st18{fill:#464655;}
	.st19{fill:#BCB6C0;stroke:#ACA8C1;stroke-width:0.25;stroke-miterlimit:10;}
	.st20{fill:#060606;}
	.st21{fill:#F23A44;}
	.st22{fill:#D6D6D6;}
	.st23{fill:#9B9A9A;}
	.st24{fill:none;stroke:#555A6E;stroke-width:0.5;stroke-miterlimit:10;}
	.st25{fill:#555A6E;}
	.st26{fill:#D5D6DB;stroke:#464655;stroke-width:7;stroke-miterlimit:10;}
	.st27{fill:none;stroke:#555A6E;stroke-miterlimit:10;}
	.st28{fill:#BCB6C0;}
	.st29{fill:none;stroke:#555A6E;stroke-width:1.0191;stroke-miterlimit:10;}
	.st30{fill:none;stroke:#555A6E;stroke-width:5.0953;stroke-miterlimit:10;}
	.st31{fill:none;stroke:#BCB6C0;stroke-width:1.0191;stroke-miterlimit:10;}
	.st32{fill:none;stroke:#E0E0E0;stroke-width:29;stroke-miterlimit:10;}
	.st33{fill:none;stroke:#6B6B6B;stroke-width:21;stroke-miterlimit:10;}
	.st34{fill:none;stroke:#FFFFFF;stroke-width:3;stroke-miterlimit:10;}
	.st35{fill:none;stroke:#FFFFFF;stroke-width:3;stroke-miterlimit:10;stroke-dasharray:14.995,14.995;}
	.st36{fill:none;stroke:#FFFFFF;stroke-width:3;stroke-miterlimit:10;stroke-dasharray:15.1038,15.1038;}
	.st37{fill:none;stroke:#FFFFFF;stroke-width:3;stroke-miterlimit:10;stroke-dasharray:15.1575,15.1575;}
	.st38{fill:none;stroke:#FFFFFF;stroke-width:3;stroke-miterlimit:10;stroke-dasharray:14.7428,14.7428;}
	.st39{fill:#EBF0F3;stroke:#555A6E;stroke-width:5;stroke-miterlimit:10;}
	.st40{fill:#D5D6DB;}
	.st41{fill:#EBF0F3;stroke:#555A6E;stroke-width:4;stroke-miterlimit:10;}
	.st42{fill:none;stroke:#464655;stroke-miterlimit:10;}
	.st43{fill:none;stroke:#6B6B6B;stroke-width:23.3712;stroke-miterlimit:10;}
	.st44{fill:none;stroke:#E0E0E0;stroke-width:3.6721;stroke-miterlimit:10;stroke-dasharray:32.6865,16.3431;}
</style>
<line class="st0" x1="0" y1="394.6" x2="1021.1" y2="394.6"/>
<g id="skyrscraper" shape-rendering="geometricPrecision" text-rendering="geometricPrecision">
</g>
<g id="boat">
</g>
<g>
	<rect x="551.4" y="87.8" class="st1" width="19.2" height="13.7"/>
	<rect x="263.2" y="87.8" class="st1" width="19.2" height="13.7"/>
	<polygon class="st2" points="612.3,121.6 249.2,121.6 183.7,99.5 612.3,99.5 	"/>
	<polygon class="st3" points="612.3,121.6 249.2,121.6 183.7,99.5 612.3,109 	"/>
	<rect x="378.6" y="129.8" class="st4" width="92" height="246.2"/>
	<g>
		<line class="st5" x1="388.9" y1="140.8" x2="460.1" y2="140.8"/>
		<line class="st5" x1="388.9" y1="152.4" x2="460.1" y2="152.4"/>
		<line class="st5" x1="388.9" y1="164.3" x2="460.1" y2="164.3"/>
		<line class="st5" x1="388.9" y1="176.1" x2="460.1" y2="176.1"/>
		<line class="st5" x1="388.9" y1="187.8" x2="460.1" y2="187.8"/>
		<line class="st5" x1="388.9" y1="199.6" x2="460.1" y2="199.6"/>
		<line class="st5" x1="388.9" y1="211.3" x2="460.1" y2="211.3"/>
		<line class="st5" x1="388.9" y1="223.1" x2="460.1" y2="223.1"/>
		<line class="st5" x1="388.9" y1="234.8" x2="460.1" y2="234.8"/>
		<line class="st5" x1="388.9" y1="246.6" x2="460.1" y2="246.6"/>
		<line class="st5" x1="388.9" y1="258.3" x2="460.1" y2="258.3"/>
		<line class="st5" x1="388.9" y1="270.2" x2="460.1" y2="270.2"/>
		<line class="st5" x1="388.9" y1="281.8" x2="460.1" y2="281.8"/>
		<line class="st5" x1="388.9" y1="293.7" x2="460.1" y2="293.7"/>
		<line class="st5" x1="388.9" y1="305.3" x2="460.1" y2="305.3"/>
		<line class="st5" x1="388.9" y1="317.2" x2="460.1" y2="317.2"/>
		<line class="st5" x1="388.9" y1="329" x2="460.1" y2="329"/>
	</g>
	<rect x="263.2" y="129.8" class="st4" width="92" height="246.2"/>
	<rect x="263.2" y="129.8" class="st3" width="17.3" height="246.2"/>
	<g>
		<line class="st5" x1="290.8" y1="140.8" x2="344.6" y2="140.8"/>
		<line class="st5" x1="290.8" y1="152.4" x2="344.6" y2="152.4"/>
		<line class="st5" x1="290.8" y1="164.3" x2="344.6" y2="164.3"/>
		<line class="st5" x1="290.8" y1="176.1" x2="344.6" y2="176.1"/>
		<line class="st5" x1="290.8" y1="187.8" x2="344.6" y2="187.8"/>
		<line class="st5" x1="290.8" y1="199.6" x2="344.6" y2="199.6"/>
		<line class="st5" x1="290.8" y1="211.3" x2="344.6" y2="211.3"/>
		<line class="st5" x1="290.8" y1="223.1" x2="344.6" y2="223.1"/>
		<line class="st5" x1="290.8" y1="234.8" x2="344.6" y2="234.8"/>
		<line class="st5" x1="290.8" y1="246.6" x2="344.6" y2="246.6"/>
		<line class="st5" x1="290.8" y1="258.3" x2="344.6" y2="258.3"/>
		<line class="st5" x1="290.8" y1="270.2" x2="344.6" y2="270.2"/>
		<line class="st5" x1="290.8" y1="281.8" x2="344.6" y2="281.8"/>
		<line class="st5" x1="290.8" y1="293.7" x2="344.6" y2="293.7"/>
		<line class="st5" x1="290.8" y1="305.3" x2="344.6" y2="305.3"/>
		<line class="st5" x1="290.8" y1="317.2" x2="344.6" y2="317.2"/>
		<line class="st5" x1="290.8" y1="329" x2="344.6" y2="329"/>
	</g>
	<rect x="493.9" y="129.8" class="st4" width="92" height="246.2"/>
	<rect x="568.5" y="129.8" class="st3" width="17.3" height="246.2"/>
	<g>
		<line class="st5" x1="558.2" y1="140.8" x2="504.4" y2="140.8"/>
		<line class="st5" x1="558.2" y1="152.4" x2="504.4" y2="152.4"/>
		<line class="st6" x1="558.2" y1="164.3" x2="504.4" y2="164.3"/>
		<line class="st5" x1="558.2" y1="176.1" x2="504.4" y2="176.1"/>
		<line class="st5" x1="558.2" y1="187.8" x2="504.4" y2="187.8"/>
		<line class="st5" x1="558.2" y1="199.6" x2="504.4" y2="199.6"/>
		<line class="st5" x1="558.2" y1="211.3" x2="504.4" y2="211.3"/>
		<line class="st5" x1="558.2" y1="223.1" x2="504.4" y2="223.1"/>
		<line class="st5" x1="558.2" y1="234.8" x2="504.4" y2="234.8"/>
		<line class="st5" x1="558.2" y1="246.6" x2="504.4" y2="246.6"/>
		<line class="st5" x1="558.2" y1="258.3" x2="504.4" y2="258.3"/>
		<line class="st5" x1="558.2" y1="270.2" x2="504.4" y2="270.2"/>
		<line class="st5" x1="558.2" y1="281.8" x2="504.4" y2="281.8"/>
		<line class="st5" x1="558.2" y1="293.7" x2="504.4" y2="293.7"/>
		<line class="st5" x1="558.2" y1="305.3" x2="504.4" y2="305.3"/>
		<line class="st5" x1="558.2" y1="317.2" x2="504.4" y2="317.2"/>
		<line class="st5" x1="558.2" y1="329" x2="504.4" y2="329"/>
	</g>
</g>
<g>
	<g>
		<path class="st2" d="M890.4,199c0,0-12.1-15.1,28.5-15.1c39.9,0,28.1,15.1,28.1,15.1s-18.9,11.6-18.9,75.1
			c0,63.2,10,104.5,10,104.5h-39.7c0,0,10.7-32.6,10.7-105.2C909.1,201,890.4,199,890.4,199z"/>
		<path class="st7" d="M907.8,199.5c0,0-4.8-15.1,11.2-15.1c15.5,0,11,15.1,11,15.1s-7.3,11.6-7.3,74.9c0,63.2,3.9,104.3,3.9,104.3
			H911c0,0,4.1-32.6,4.1-105S907.8,199.5,907.8,199.5z"/>
		<g>
			<path class="st8" d="M907.3,378.6c0,0,4.3-66.2,4.3-124.6c0-72.3-29-99-29-99"/>
			<path class="st8" d="M929.9,378.6c0,0-4.6-66.2-4.6-124.6c0-72.3,29-99,29-99"/>
		</g>
		<g>
			<path class="st8" d="M894.8,378.6c0,0,10.7-65.3,10.7-122.8c0-71.2-67.1-86.3-67.1-86.3"/>
			<path class="st8" d="M942.5,378.6c0,0-10.7-65.3-10.7-122.8c0-71.2,67.1-86.3,67.1-86.3"/>
		</g>
		<line class="st8" x1="918.7" y1="378.6" x2="918.7" y2="149.5"/>
		<g>
			<line class="st8" x1="848" y1="172.5" x2="844.3" y2="163.2"/>
			<line class="st8" x1="859.9" y1="177.3" x2="856" y2="166.6"/>
			<line class="st8" x1="870.6" y1="183.7" x2="868.3" y2="173"/>
			<line class="st8" x1="879" y1="190.8" x2="878.6" y2="178.9"/>
			<line class="st8" x1="887" y1="198.5" x2="887" y2="188.5"/>
			<line class="st8" x1="893.6" y1="209" x2="894.3" y2="196.7"/>
			<line class="st8" x1="900.5" y1="221.8" x2="903.9" y2="208.8"/>
			<line class="st8" x1="903.7" y1="233.5" x2="908" y2="223"/>
			<line class="st8" x1="847.1" y1="170" x2="851.4" y2="160.7"/>
			<line class="st8" x1="858.5" y1="173" x2="864.4" y2="160.4"/>
			<line class="st8" x1="861.2" y1="166.8" x2="858" y2="158.8"/>
			<line class="st8" x1="870.4" y1="178.9" x2="877.7" y2="170.9"/>
			<line class="st8" x1="874" y1="173.4" x2="865.6" y2="156.1"/>
			<line class="st8" x1="871" y1="166.8" x2="872.6" y2="154.3"/>
			<line class="st8" x1="879" y1="185.8" x2="889.1" y2="176.2"/>
			<line class="st8" x1="885.4" y1="179.4" x2="879.5" y2="165.4"/>
			<line class="st8" x1="883.4" y1="172.5" x2="886.8" y2="166.4"/>
			<line class="st8" x1="887.2" y1="192.8" x2="896.8" y2="186"/>
			<line class="st8" x1="893.6" y1="188" x2="890.9" y2="179.8"/>
			<line class="st8" x1="894.3" y1="201" x2="904.6" y2="198.3"/>
			<line class="st8" x1="900" y1="199.2" x2="899.3" y2="192.1"/>
			<line class="st8" x1="901.8" y1="214.3" x2="897.7" y2="207.2"/>
			<line class="st8" x1="906.9" y1="207.7" x2="902.3" y2="207.7"/>
			<line class="st8" x1="901.6" y1="219.3" x2="907.1" y2="216.1"/>
			<line class="st8" x1="905.5" y1="227.5" x2="903.9" y2="223.4"/>
			<line class="st8" x1="910.1" y1="224.3" x2="905.7" y2="220.2"/>
			<line class="st8" x1="885.4" y1="170.2" x2="893.9" y2="170.9"/>
			<line class="st8" x1="892.7" y1="182.3" x2="899.3" y2="182.6"/>
			<line class="st8" x1="872.9" y1="162" x2="888.2" y2="162"/>
			<line class="st8" x1="880.6" y1="161.8" x2="876.5" y2="154.5"/>
			<line class="st8" x1="895.7" y1="191.9" x2="902.3" y2="192.1"/>
		</g>
		<g>
			<line class="st8" x1="989.7" y1="172.5" x2="993.4" y2="163.2"/>
			<line class="st8" x1="978.1" y1="177.3" x2="981.9" y2="166.6"/>
			<line class="st8" x1="967.3" y1="183.7" x2="969.4" y2="173"/>
			<line class="st8" x1="958.7" y1="190.8" x2="959.4" y2="178.9"/>
			<line class="st8" x1="950.9" y1="198.5" x2="950.7" y2="188.5"/>
			<line class="st8" x1="944.1" y1="209" x2="943.6" y2="196.7"/>
			<line class="st8" x1="937.4" y1="221.8" x2="933.8" y2="208.8"/>
			<line class="st8" x1="934.2" y1="233.5" x2="929.9" y2="223"/>
			<line class="st8" x1="990.8" y1="170" x2="986.5" y2="160.7"/>
			<line class="st8" x1="979.4" y1="173" x2="973.5" y2="160.4"/>
			<line class="st8" x1="976.7" y1="166.8" x2="979.9" y2="158.8"/>
			<line class="st8" x1="967.6" y1="178.9" x2="960.3" y2="170.9"/>
			<line class="st8" x1="963.7" y1="173.4" x2="972.4" y2="156.1"/>
			<line class="st8" x1="966.7" y1="166.8" x2="965.1" y2="154.3"/>
			<line class="st8" x1="958.7" y1="185.8" x2="948.9" y2="176.2"/>
			<line class="st8" x1="952.3" y1="179.4" x2="958.4" y2="165.4"/>
			<line class="st8" x1="954.6" y1="172.5" x2="950.9" y2="166.4"/>
			<line class="st8" x1="950.5" y1="192.8" x2="941.1" y2="186"/>
			<line class="st8" x1="944.3" y1="188" x2="947" y2="179.8"/>
			<line class="st8" x1="943.6" y1="201" x2="933.3" y2="198.3"/>
			<line class="st8" x1="937.7" y1="199.2" x2="938.4" y2="192.1"/>
			<line class="st8" x1="936.1" y1="214.3" x2="940" y2="207.2"/>
			<line class="st8" x1="931.1" y1="207.7" x2="935.4" y2="207.7"/>
			<line class="st8" x1="936.3" y1="219.3" x2="930.6" y2="216.1"/>
			<line class="st8" x1="932.4" y1="227.5" x2="933.8" y2="223.4"/>
			<line class="st8" x1="927.6" y1="224.3" x2="932" y2="220.2"/>
			<line class="st8" x1="952.5" y1="170.2" x2="944.1" y2="170.9"/>
			<line class="st8" x1="945.2" y1="182.3" x2="938.4" y2="182.6"/>
			<line class="st8" x1="964.8" y1="162" x2="949.5" y2="162"/>
			<line class="st8" x1="957.1" y1="161.8" x2="961.4" y2="154.5"/>
			<line class="st8" x1="942.2" y1="191.9" x2="935.6" y2="192.1"/>
		</g>
		<g>
			<line class="st8" x1="887" y1="158.6" x2="890.2" y2="149.9"/>
			<line class="st8" x1="894.3" y1="170" x2="897.7" y2="158.1"/>
			<line class="st8" x1="899.1" y1="178.7" x2="902.8" y2="169.6"/>
			<line class="st8" x1="903.7" y1="190.8" x2="906.9" y2="183"/>
			<line class="st8" x1="907.5" y1="204.7" x2="914.9" y2="195.8"/>
			<line class="st8" x1="910.5" y1="221.8" x2="918" y2="213.4"/>
			<line class="st8" x1="888.2" y1="155.9" x2="900.7" y2="151.8"/>
			<line class="st8" x1="896.6" y1="153.1" x2="898.9" y2="146.1"/>
			<line class="st8" x1="895.9" y1="165.4" x2="911.4" y2="160.7"/>
			<line class="st8" x1="902.8" y1="163.2" x2="904.6" y2="157.5"/>
			<line class="st8" x1="900.2" y1="175.9" x2="914.9" y2="173.4"/>
			<line class="st8" x1="906" y1="174.6" x2="907.8" y2="169.8"/>
			<line class="st8" x1="905.5" y1="188.3" x2="916" y2="187.8"/>
			<line class="st8" x1="910.7" y1="187.8" x2="913.3" y2="181.4"/>
			<line class="st8" x1="910.5" y1="201.7" x2="915.1" y2="201.5"/>
			<line class="st8" x1="910.3" y1="200.4" x2="909.8" y2="194.7"/>
			<line class="st8" x1="913.5" y1="218.4" x2="912.1" y2="210.2"/>
			<line class="st8" x1="913" y1="206.1" x2="918.3" y2="210.2"/>
			<line class="st8" x1="912.6" y1="193.5" x2="917.8" y2="198.3"/>
			<line class="st8" x1="911.2" y1="179.4" x2="918.3" y2="184.2"/>
			<line class="st8" x1="910.3" y1="169.1" x2="918.3" y2="175.7"/>
			<line class="st8" x1="908" y1="157.5" x2="918.3" y2="166.1"/>
			<line class="st8" x1="908.5" y1="146.5" x2="917.6" y2="155.2"/>
			<line class="st8" x1="904.6" y1="151.5" x2="913.5" y2="152.2"/>
		</g>
		<g>
			<line class="st8" x1="950.7" y1="158.6" x2="947.5" y2="149.9"/>
			<line class="st8" x1="943.4" y1="170" x2="940" y2="158.1"/>
			<line class="st8" x1="938.6" y1="178.7" x2="934.9" y2="169.6"/>
			<line class="st8" x1="934" y1="190.8" x2="930.8" y2="183"/>
			<line class="st8" x1="930.1" y1="204.7" x2="922.8" y2="195.8"/>
			<line class="st8" x1="927.4" y1="221.8" x2="919.6" y2="213.4"/>
			<line class="st8" x1="949.8" y1="155.9" x2="937" y2="151.8"/>
			<line class="st8" x1="941.3" y1="153.1" x2="938.8" y2="146.1"/>
			<line class="st8" x1="941.8" y1="165.4" x2="926.3" y2="160.7"/>
			<line class="st8" x1="934.9" y1="163.2" x2="933.1" y2="157.5"/>
			<line class="st8" x1="937.4" y1="175.9" x2="922.8" y2="173.4"/>
			<line class="st8" x1="931.7" y1="174.6" x2="929.9" y2="169.8"/>
			<line class="st8" x1="932.2" y1="188.3" x2="921.9" y2="187.8"/>
			<line class="st8" x1="927.2" y1="187.8" x2="924.7" y2="181.4"/>
			<line class="st8" x1="927.4" y1="201.7" x2="922.6" y2="201.5"/>
			<line class="st8" x1="927.6" y1="200.4" x2="927.9" y2="194.7"/>
			<line class="st8" x1="924.4" y1="218.4" x2="925.6" y2="210.2"/>
			<line class="st8" x1="924.7" y1="206.1" x2="919.4" y2="210.2"/>
			<line class="st8" x1="925.1" y1="193.5" x2="919.9" y2="198.3"/>
			<line class="st8" x1="926.5" y1="179.4" x2="919.4" y2="184.2"/>
			<line class="st8" x1="927.6" y1="169.1" x2="919.4" y2="175.7"/>
			<line class="st8" x1="929.7" y1="157.5" x2="919.4" y2="166.1"/>
			<line class="st8" x1="929.2" y1="146.5" x2="919.2" y2="156.3"/>
			<line class="st8" x1="933.1" y1="151.5" x2="924.2" y2="152.2"/>
		</g>
	</g>
	<g>
		<path class="st2" d="M677.7,199c0,0-12.1-15.1,28.5-15.1c39.9,0,28.1,15.1,28.1,15.1s-18.9,11.6-18.9,75.1
			c0,63.2,10,104.5,10,104.5h-39.9c0,0,10.7-32.6,10.7-105.2C696.5,201,677.7,199,677.7,199z"/>
		<path class="st7" d="M695.1,199.5c0,0-4.8-15.1,11.2-15.1c15.5,0,11,15.1,11,15.1s-7.3,11.6-7.3,74.9c0,63.2,3.9,104.3,3.9,104.3
			h-15.5c0,0,4.1-32.6,4.1-105C702.4,201.3,695.1,199.5,695.1,199.5z"/>
		<g>
			<path class="st8" d="M694.6,378.6c0,0,4.6-66.2,4.6-124.6c0-72.3-29-99-29-99"/>
			<path class="st8" d="M717.2,378.6c0,0-4.6-66.2-4.6-124.6c0-72.3,29-99,29-99"/>
		</g>
		<g>
			<path class="st8" d="M682.1,378.6c0,0,10.7-65.3,10.7-122.8c0-71.2-67.1-86.3-67.1-86.3"/>
			<path class="st8" d="M729.8,378.6c0,0-10.7-65.3-10.7-122.8c0-71.2,67.1-86.3,67.1-86.3"/>
		</g>
		<line class="st8" x1="706" y1="378.6" x2="706" y2="149.5"/>
		<g>
			<line class="st8" x1="635.3" y1="172.5" x2="631.6" y2="163.2"/>
			<line class="st8" x1="647.2" y1="177.3" x2="643.3" y2="166.6"/>
			<line class="st8" x1="657.9" y1="183.7" x2="655.6" y2="173"/>
			<line class="st8" x1="666.3" y1="190.8" x2="665.9" y2="178.9"/>
			<line class="st8" x1="674.3" y1="198.5" x2="674.3" y2="188.5"/>
			<line class="st8" x1="680.9" y1="209" x2="681.6" y2="196.7"/>
			<line class="st8" x1="687.8" y1="221.8" x2="691.2" y2="208.8"/>
			<line class="st8" x1="691" y1="233.5" x2="695.3" y2="223"/>
			<line class="st8" x1="634.4" y1="170" x2="638.5" y2="160.7"/>
			<line class="st8" x1="645.8" y1="173" x2="651.7" y2="160.4"/>
			<line class="st8" x1="648.5" y1="166.8" x2="645.3" y2="158.8"/>
			<line class="st8" x1="657.7" y1="178.9" x2="665" y2="170.9"/>
			<line class="st8" x1="661.3" y1="173.4" x2="652.9" y2="156.1"/>
			<line class="st8" x1="658.3" y1="166.8" x2="659.9" y2="154.3"/>
			<line class="st8" x1="666.3" y1="185.8" x2="676.4" y2="176.2"/>
			<line class="st8" x1="672.7" y1="179.4" x2="666.8" y2="165.4"/>
			<line class="st8" x1="670.7" y1="172.5" x2="674.1" y2="166.4"/>
			<line class="st8" x1="674.6" y1="192.8" x2="684.1" y2="186"/>
			<line class="st8" x1="680.7" y1="188" x2="678.2" y2="179.8"/>
			<line class="st8" x1="681.6" y1="201" x2="691.9" y2="198.3"/>
			<line class="st8" x1="687.3" y1="199.2" x2="686.6" y2="192.1"/>
			<line class="st8" x1="689.2" y1="214.3" x2="685" y2="207.2"/>
			<line class="st8" x1="694.2" y1="207.7" x2="689.6" y2="207.7"/>
			<line class="st8" x1="688.9" y1="219.3" x2="694.4" y2="216.1"/>
			<line class="st8" x1="692.8" y1="227.5" x2="691.2" y2="223.4"/>
			<line class="st8" x1="697.4" y1="224.3" x2="693" y2="220.2"/>
			<line class="st8" x1="672.7" y1="170.2" x2="681.2" y2="170.9"/>
			<line class="st8" x1="680" y1="182.3" x2="686.6" y2="182.6"/>
			<line class="st8" x1="660.2" y1="162" x2="675.5" y2="162"/>
			<line class="st8" x1="667.9" y1="161.8" x2="663.8" y2="154.5"/>
			<line class="st8" x1="683" y1="191.9" x2="689.6" y2="192.1"/>
		</g>
		<g>
			<line class="st8" x1="777" y1="172.5" x2="780.7" y2="163.2"/>
			<line class="st8" x1="765.1" y1="177.3" x2="769.3" y2="166.6"/>
			<line class="st8" x1="754.7" y1="183.7" x2="756.7" y2="173"/>
			<line class="st8" x1="746" y1="190.8" x2="746.7" y2="178.9"/>
			<line class="st8" x1="738.2" y1="198.5" x2="738" y2="188.5"/>
			<line class="st8" x1="731.4" y1="209" x2="730.9" y2="196.7"/>
			<line class="st8" x1="724.8" y1="221.8" x2="721.1" y2="208.8"/>
			<line class="st8" x1="721.3" y1="233.5" x2="717.2" y2="223"/>
			<line class="st8" x1="778.2" y1="170" x2="773.8" y2="160.7"/>
			<line class="st8" x1="766.7" y1="173" x2="760.8" y2="160.4"/>
			<line class="st8" x1="764" y1="166.8" x2="767.2" y2="158.8"/>
			<line class="st8" x1="754.9" y1="178.9" x2="747.3" y2="170.9"/>
			<line class="st8" x1="751" y1="173.4" x2="759.7" y2="156.1"/>
			<line class="st8" x1="754" y1="166.8" x2="752.4" y2="154.3"/>
			<line class="st8" x1="746" y1="185.8" x2="735.9" y2="176.2"/>
			<line class="st8" x1="739.6" y1="179.4" x2="745.8" y2="165.4"/>
			<line class="st8" x1="741.9" y1="172.5" x2="738.2" y2="166.4"/>
			<line class="st8" x1="737.8" y1="192.8" x2="728.4" y2="186"/>
			<line class="st8" x1="731.6" y1="188" x2="734.3" y2="179.8"/>
			<line class="st8" x1="730.9" y1="201" x2="720.6" y2="198.3"/>
			<line class="st8" x1="725" y1="199.2" x2="725.7" y2="192.1"/>
			<line class="st8" x1="723.4" y1="214.3" x2="727.3" y2="207.2"/>
			<line class="st8" x1="718.1" y1="207.7" x2="722.7" y2="207.7"/>
			<line class="st8" x1="723.4" y1="219.3" x2="717.9" y2="216.1"/>
			<line class="st8" x1="719.7" y1="227.5" x2="721.1" y2="223.4"/>
			<line class="st8" x1="714.9" y1="224.3" x2="719.3" y2="220.2"/>
			<line class="st8" x1="739.6" y1="170.2" x2="731.4" y2="170.9"/>
			<line class="st8" x1="732.5" y1="182.3" x2="725.7" y2="182.6"/>
			<line class="st8" x1="752.1" y1="162" x2="736.9" y2="162"/>
			<line class="st8" x1="744.4" y1="161.8" x2="748.7" y2="154.5"/>
			<line class="st8" x1="729.5" y1="191.9" x2="722.9" y2="192.1"/>
		</g>
		<g>
			<line class="st8" x1="674.3" y1="158.6" x2="677.5" y2="149.9"/>
			<line class="st8" x1="681.6" y1="170" x2="685" y2="158.1"/>
			<line class="st8" x1="686.4" y1="178.7" x2="690.1" y2="169.6"/>
			<line class="st8" x1="691" y1="190.8" x2="694.2" y2="183"/>
			<line class="st8" x1="694.9" y1="204.7" x2="702.2" y2="195.8"/>
			<line class="st8" x1="697.6" y1="221.8" x2="705.4" y2="213.4"/>
			<line class="st8" x1="675.5" y1="155.9" x2="688" y2="151.8"/>
			<line class="st8" x1="683.7" y1="153.1" x2="686.2" y2="146.1"/>
			<line class="st8" x1="683.2" y1="165.4" x2="698.7" y2="160.7"/>
			<line class="st8" x1="690.1" y1="163.2" x2="691.9" y2="157.5"/>
			<line class="st8" x1="687.6" y1="175.9" x2="702.2" y2="173.4"/>
			<line class="st8" x1="693.3" y1="174.6" x2="695.1" y2="169.8"/>
			<line class="st8" x1="692.8" y1="188.3" x2="703.3" y2="187.8"/>
			<line class="st8" x1="697.8" y1="187.8" x2="700.3" y2="181.4"/>
			<line class="st8" x1="697.8" y1="201.7" x2="702.4" y2="201.5"/>
			<line class="st8" x1="697.6" y1="200.4" x2="697.1" y2="194.7"/>
			<line class="st8" x1="700.6" y1="218.4" x2="699.4" y2="210.2"/>
			<line class="st8" x1="700.3" y1="206.1" x2="705.6" y2="210.2"/>
			<line class="st8" x1="699.9" y1="193.5" x2="705.1" y2="198.3"/>
			<line class="st8" x1="698.5" y1="179.4" x2="705.6" y2="184.2"/>
			<line class="st8" x1="697.6" y1="169.1" x2="705.6" y2="175.7"/>
			<line class="st8" x1="695.3" y1="157.5" x2="705.6" y2="166.1"/>
			<line class="st8" x1="695.8" y1="146.5" x2="704.9" y2="155.2"/>
			<line class="st8" x1="691.9" y1="151.5" x2="700.8" y2="152.2"/>
		</g>
		<g>
			<line class="st8" x1="738" y1="158.6" x2="734.8" y2="149.9"/>
			<line class="st8" x1="730.7" y1="170" x2="727.3" y2="158.1"/>
			<line class="st8" x1="725.9" y1="178.7" x2="722.2" y2="169.6"/>
			<line class="st8" x1="721.3" y1="190.8" x2="718.1" y2="183"/>
			<line class="st8" x1="717.5" y1="204.7" x2="710.2" y2="195.8"/>
			<line class="st8" x1="714.5" y1="221.8" x2="707" y2="213.4"/>
			<line class="st8" x1="736.9" y1="155.9" x2="724.3" y2="151.8"/>
			<line class="st8" x1="728.4" y1="153.1" x2="726.1" y2="146.1"/>
			<line class="st8" x1="729.1" y1="165.4" x2="713.6" y2="160.7"/>
			<line class="st8" x1="722.2" y1="163.2" x2="720.4" y2="157.5"/>
			<line class="st8" x1="724.8" y1="175.9" x2="710.2" y2="173.4"/>
			<line class="st8" x1="719.1" y1="174.6" x2="717.2" y2="169.8"/>
			<line class="st8" x1="719.5" y1="188.3" x2="709" y2="187.8"/>
			<line class="st8" x1="714.5" y1="187.8" x2="711.7" y2="181.4"/>
			<line class="st8" x1="714.5" y1="201.7" x2="709.9" y2="201.5"/>
			<line class="st8" x1="714.7" y1="200.4" x2="715.2" y2="194.7"/>
			<line class="st8" x1="711.5" y1="218.4" x2="712.9" y2="210.2"/>
			<line class="st8" x1="712" y1="206.1" x2="706.7" y2="210.2"/>
			<line class="st8" x1="712.4" y1="193.5" x2="707.2" y2="198.3"/>
			<line class="st8" x1="713.8" y1="179.4" x2="706.7" y2="184.2"/>
			<line class="st8" x1="714.7" y1="169.1" x2="706.7" y2="175.7"/>
			<line class="st8" x1="717" y1="157.5" x2="706.7" y2="166.1"/>
			<line class="st8" x1="716.5" y1="146.5" x2="706.5" y2="156.3"/>
			<line class="st8" x1="720.4" y1="151.5" x2="711.5" y2="152.2"/>
		</g>
	</g>
	<g>
		<path class="st2" d="M788.7,228.7c0,0-10-12.6,23.7-12.6c33.3,0,23.5,12.6,23.5,12.6s-16,9.8-16,62.8s8.4,87.2,8.4,87.2H795
			c0,0,8.9-27.2,8.9-87.9C804.4,230.3,788.7,228.7,788.7,228.7z"/>
		<path class="st7" d="M803.3,228.9c0,0-3.9-12.6,9.4-12.6c13,0,9.1,12.6,9.1,12.6s-6.2,9.8-6.2,62.5s3.2,87.2,3.2,87.2h-13
			c0,0,3.4-27.2,3.4-87.6C809.2,230.5,803.3,228.9,803.3,228.9z"/>
		<g>
			<path class="st8" d="M802.8,378.6c0,0,3.7-55.2,3.7-104.1c0-60.5-24.2-82.8-24.2-82.8"/>
			<path class="st8" d="M821.7,378.6c0,0-3.7-55.2-3.7-104.1c0-60.5,24.2-82.8,24.2-82.8"/>
		</g>
		<g>
			<path class="st8" d="M792.3,378.6c0,0,8.9-54.5,8.9-102.7c0-59.6-55.9-72.1-55.9-72.1"/>
			<path class="st8" d="M832.2,378.6c0,0-8.9-54.5-8.9-102.7c0-59.6,55.9-72.1,55.9-72.1"/>
		</g>
		<line class="st8" x1="812.4" y1="378.6" x2="812.4" y2="187.1"/>
		<g>
			<line class="st8" x1="753.3" y1="206.5" x2="750.3" y2="198.5"/>
			<line class="st8" x1="763.1" y1="210.4" x2="759.9" y2="201.5"/>
			<line class="st8" x1="772" y1="215.9" x2="770.4" y2="206.8"/>
			<line class="st8" x1="779.3" y1="221.8" x2="778.8" y2="211.8"/>
			<line class="st8" x1="785.9" y1="228.2" x2="785.9" y2="219.8"/>
			<line class="st8" x1="791.4" y1="236.9" x2="791.8" y2="226.6"/>
			<line class="st8" x1="797.1" y1="247.6" x2="800.1" y2="236.6"/>
			<line class="st8" x1="799.8" y1="257.4" x2="803.3" y2="248.5"/>
			<line class="st8" x1="752.4" y1="204.2" x2="756" y2="196.5"/>
			<line class="st8" x1="762" y1="206.8" x2="767" y2="196.3"/>
			<line class="st8" x1="764.2" y1="201.7" x2="761.7" y2="195.1"/>
			<line class="st8" x1="772" y1="211.8" x2="778.2" y2="205.2"/>
			<line class="st8" x1="775.2" y1="207.2" x2="767.9" y2="192.8"/>
			<line class="st8" x1="772.7" y1="201.7" x2="773.8" y2="191.2"/>
			<line class="st8" x1="779.3" y1="217.5" x2="787.5" y2="209.5"/>
			<line class="st8" x1="784.5" y1="212.2" x2="779.5" y2="200.6"/>
			<line class="st8" x1="782.7" y1="206.3" x2="785.7" y2="201.3"/>
			<line class="st8" x1="786.1" y1="223.4" x2="793.9" y2="217.7"/>
			<line class="st8" x1="791.4" y1="219.3" x2="789.1" y2="212.5"/>
			<line class="st8" x1="791.8" y1="230.3" x2="800.5" y2="228"/>
			<line class="st8" x1="796.9" y1="228.7" x2="796.2" y2="223"/>
			<line class="st8" x1="798.2" y1="241.4" x2="794.8" y2="235.5"/>
			<line class="st8" x1="802.6" y1="236" x2="798.7" y2="236"/>
			<line class="st8" x1="798" y1="245.5" x2="802.8" y2="242.8"/>
			<line class="st8" x1="801.2" y1="252.4" x2="800.1" y2="249"/>
			<line class="st8" x1="805.1" y1="249.7" x2="801.7" y2="246.2"/>
			<line class="st8" x1="784.5" y1="204.5" x2="791.6" y2="205.2"/>
			<line class="st8" x1="790.5" y1="214.7" x2="796.2" y2="215"/>
			<line class="st8" x1="774" y1="197.6" x2="786.8" y2="197.6"/>
			<line class="st8" x1="780.7" y1="197.4" x2="777" y2="191.5"/>
			<line class="st8" x1="793" y1="222.7" x2="798.7" y2="222.7"/>
		</g>
		<g>
			<line class="st8" x1="871.7" y1="206.5" x2="874.7" y2="198.5"/>
			<line class="st8" x1="861.9" y1="210.4" x2="865.1" y2="201.5"/>
			<line class="st8" x1="853" y1="215.9" x2="854.6" y2="206.8"/>
			<line class="st8" x1="845.7" y1="221.8" x2="846.2" y2="211.8"/>
			<line class="st8" x1="839.3" y1="228.2" x2="839.1" y2="219.8"/>
			<line class="st8" x1="833.6" y1="236.9" x2="833.2" y2="226.6"/>
			<line class="st8" x1="827.9" y1="247.6" x2="824.9" y2="236.6"/>
			<line class="st8" x1="825.2" y1="257.4" x2="821.7" y2="248.5"/>
			<line class="st8" x1="872.6" y1="204.2" x2="869" y2="196.5"/>
			<line class="st8" x1="863" y1="206.8" x2="858" y2="196.3"/>
			<line class="st8" x1="860.8" y1="201.7" x2="863.5" y2="195.1"/>
			<line class="st8" x1="853.2" y1="211.8" x2="846.8" y2="205.2"/>
			<line class="st8" x1="850" y1="207.2" x2="857.1" y2="192.8"/>
			<line class="st8" x1="852.6" y1="201.7" x2="851.2" y2="191.2"/>
			<line class="st8" x1="845.7" y1="217.5" x2="837.5" y2="209.5"/>
			<line class="st8" x1="840.5" y1="212.2" x2="845.5" y2="200.6"/>
			<line class="st8" x1="842.3" y1="206.3" x2="839.3" y2="201.3"/>
			<line class="st8" x1="838.9" y1="223.4" x2="831.1" y2="217.7"/>
			<line class="st8" x1="833.8" y1="219.3" x2="835.9" y2="212.5"/>
			<line class="st8" x1="833.2" y1="230.3" x2="824.5" y2="228"/>
			<line class="st8" x1="828.1" y1="228.7" x2="828.8" y2="223"/>
			<line class="st8" x1="826.8" y1="241.4" x2="830.2" y2="235.5"/>
			<line class="st8" x1="822.7" y1="236" x2="826.3" y2="236"/>
			<line class="st8" x1="827" y1="245.5" x2="822.4" y2="242.8"/>
			<line class="st8" x1="823.8" y1="252.4" x2="824.9" y2="249"/>
			<line class="st8" x1="819.9" y1="249.7" x2="823.3" y2="246.2"/>
			<line class="st8" x1="840.5" y1="204.5" x2="833.4" y2="205.2"/>
			<line class="st8" x1="834.5" y1="214.7" x2="828.8" y2="215"/>
			<line class="st8" x1="851" y1="197.6" x2="838.2" y2="197.6"/>
			<line class="st8" x1="844.3" y1="197.4" x2="848" y2="191.5"/>
			<line class="st8" x1="832" y1="222.7" x2="826.5" y2="222.7"/>
		</g>
		<g>
			<line class="st8" x1="785.9" y1="194.9" x2="788.4" y2="187.6"/>
			<line class="st8" x1="792.1" y1="204.2" x2="794.8" y2="194.4"/>
			<line class="st8" x1="796" y1="211.8" x2="799.2" y2="204"/>
			<line class="st8" x1="799.8" y1="221.8" x2="802.3" y2="215.2"/>
			<line class="st8" x1="803" y1="233.5" x2="809.2" y2="225.9"/>
			<line class="st8" x1="805.3" y1="247.6" x2="811.7" y2="240.5"/>
			<line class="st8" x1="786.8" y1="192.6" x2="797.3" y2="189.2"/>
			<line class="st8" x1="793.9" y1="190.1" x2="795.7" y2="184.4"/>
			<line class="st8" x1="793.2" y1="200.6" x2="806.2" y2="196.5"/>
			<line class="st8" x1="799.2" y1="198.8" x2="800.5" y2="194"/>
			<line class="st8" x1="796.9" y1="209.3" x2="809.2" y2="207.2"/>
			<line class="st8" x1="801.7" y1="208.1" x2="803.3" y2="204"/>
			<line class="st8" x1="801.4" y1="219.5" x2="810.1" y2="219.3"/>
			<line class="st8" x1="805.5" y1="219.3" x2="807.8" y2="213.8"/>
			<line class="st8" x1="805.3" y1="230.9" x2="809.2" y2="230.7"/>
			<line class="st8" x1="805.3" y1="229.6" x2="804.9" y2="225"/>
			<line class="st8" x1="807.8" y1="244.9" x2="806.9" y2="238"/>
			<line class="st8" x1="807.6" y1="234.4" x2="811.9" y2="238"/>
			<line class="st8" x1="807.1" y1="224.1" x2="811.7" y2="228"/>
			<line class="st8" x1="806.2" y1="212.2" x2="811.9" y2="216.1"/>
			<line class="st8" x1="805.3" y1="203.6" x2="811.9" y2="209"/>
			<line class="st8" x1="803.5" y1="194" x2="811.9" y2="201"/>
			<line class="st8" x1="803.9" y1="184.6" x2="811.5" y2="191.9"/>
			<line class="st8" x1="800.5" y1="189" x2="808.1" y2="189.4"/>
		</g>
		<g>
			<line class="st8" x1="839.1" y1="194.9" x2="836.3" y2="187.6"/>
			<line class="st8" x1="832.9" y1="204.2" x2="830.2" y2="194.4"/>
			<line class="st8" x1="829" y1="211.8" x2="825.9" y2="204"/>
			<line class="st8" x1="825.2" y1="221.8" x2="822.4" y2="215.2"/>
			<line class="st8" x1="822" y1="233.5" x2="815.8" y2="225.9"/>
			<line class="st8" x1="819.5" y1="247.6" x2="813.1" y2="240.5"/>
			<line class="st8" x1="838.2" y1="192.6" x2="827.7" y2="189.2"/>
			<line class="st8" x1="831.1" y1="190.1" x2="829.3" y2="184.4"/>
			<line class="st8" x1="831.8" y1="200.6" x2="818.5" y2="196.5"/>
			<line class="st8" x1="825.9" y1="198.8" x2="824.5" y2="194"/>
			<line class="st8" x1="827.9" y1="209.3" x2="815.8" y2="207.2"/>
			<line class="st8" x1="823.3" y1="208.1" x2="821.7" y2="204"/>
			<line class="st8" x1="823.6" y1="219.5" x2="814.9" y2="219.3"/>
			<line class="st8" x1="819.2" y1="219.3" x2="817.2" y2="213.8"/>
			<line class="st8" x1="819.5" y1="230.9" x2="815.6" y2="230.7"/>
			<line class="st8" x1="819.7" y1="229.6" x2="820.1" y2="225"/>
			<line class="st8" x1="817" y1="244.9" x2="818.1" y2="238"/>
			<line class="st8" x1="817.4" y1="234.4" x2="813.1" y2="238"/>
			<line class="st8" x1="817.9" y1="224.1" x2="813.3" y2="228"/>
			<line class="st8" x1="818.8" y1="212.2" x2="813.1" y2="216.1"/>
			<line class="st8" x1="819.7" y1="203.6" x2="813.1" y2="209"/>
			<line class="st8" x1="821.5" y1="194" x2="813.1" y2="201"/>
			<line class="st8" x1="821.1" y1="184.6" x2="812.8" y2="192.8"/>
			<line class="st8" x1="824.5" y1="189" x2="817" y2="189.4"/>
		</g>
	</g>
</g>
<g id="trees">
</g>
<g id="water_lines">
	<path class="st9" d="M763.1,62.2"/>
</g>
<g id="clouds_right">
</g>
<path class="st10" d="M376.5,409.9"/>
<g>
	<g>
		<line class="st11" x1="144.6" y1="151.3" x2="144.6" y2="328.1"/>
		<line class="st11" x1="121.7" y1="154.4" x2="167.5" y2="325"/>
		<line class="st11" x1="100.5" y1="163.3" x2="188.7" y2="316.3"/>
		<line class="st11" x1="82.1" y1="177.2" x2="207" y2="302.1"/>
		<line class="st11" x1="68" y1="195.6" x2="221.2" y2="284"/>
		<line class="st11" x1="59.3" y1="216.8" x2="229.9" y2="262.6"/>
		<line class="st11" x1="56.2" y1="239.7" x2="233" y2="239.7"/>
		<line class="st11" x1="59.3" y1="262.6" x2="229.9" y2="216.8"/>
		<line class="st11" x1="68" y1="284" x2="221.2" y2="195.6"/>
		<line class="st11" x1="82.1" y1="302.1" x2="207" y2="177.2"/>
		<line class="st11" x1="100.5" y1="316.3" x2="188.7" y2="163.3"/>
		<line class="st11" x1="121.7" y1="325" x2="167.5" y2="154.4"/>
	</g>
	<path class="st2" d="M154.4,239.7c0,5.4-4.4,9.8-9.8,9.8s-9.8-4.4-9.8-9.8s4.4-9.8,9.8-9.8C150,230.1,154.4,234.4,154.4,239.7z"/>
	<path class="st3" d="M148.9,239.7c0,2.5-2,4.5-4.5,4.5c-2.5,0-4.5-2-4.5-4.5s2-4.5,4.5-4.5C146.9,235.3,148.9,237.3,148.9,239.7z"
		/>
	<path class="st12" d="M235.9,239.7c0,50.5-40.8,91.3-91.3,91.3s-91.3-40.8-91.3-91.3s40.8-91.3,91.3-91.3
		C195,148.4,235.9,189.2,235.9,239.7z"/>
	<path class="st12" d="M226.1,239.7c0,45-36.5,81.5-81.5,81.5s-81.5-36.5-81.5-81.5s36.5-81.5,81.5-81.5S226.1,194.7,226.1,239.7z"
		/>
	<path class="st13" d="M220.1,239.7c0,41.6-33.8,75.5-75.5,75.5s-75.5-33.8-75.5-75.5s33.8-75.5,75.5-75.5
		C186.2,164.4,220.1,198.1,220.1,239.7z"/>
	<polyline class="st12" points="170.9,369.3 144.6,239.7 118.3,369.3 	"/>
	<g>
		<g>
			<path class="st3" d="M148.4,144.8c0,2-1.6,3.8-3.8,3.8c-2,0-3.8-1.6-3.8-3.8c0-2,1.6-3.8,3.8-3.8
				C146.6,140.9,148.4,142.6,148.4,144.8z"/>
			<path class="st3" d="M148.4,334.8c0,2-1.6,3.8-3.8,3.8c-2,0-3.8-1.6-3.8-3.8c0-2,1.6-3.8,3.8-3.8
				C146.6,331,148.4,332.8,148.4,334.8z"/>
		</g>
		<g>
			<path class="st3" d="M123.5,146.9c0.5,2-0.7,4-2.7,4.5c-2,0.5-4-0.7-4.5-2.7c-0.5-2,0.7-4,2.7-4.5
				C121,143.7,123,144.9,123.5,146.9z"/>
			<path class="st3" d="M172.7,330.6c0.5,2-0.7,4-2.7,4.5s-4-0.7-4.5-2.7s0.7-4,2.7-4.5C170.2,327.4,172.4,328.6,172.7,330.6z"/>
		</g>
		<g>
			<path class="st3" d="M100.3,155.5c1.1,1.8,0.4,4.2-1.5,5.1c-1.8,1.1-4.2,0.4-5.1-1.5c-1.1-1.8-0.4-4.2,1.5-5.1
				C97,153.1,99.2,153.6,100.3,155.5z"/>
			<path class="st3" d="M195.4,320.1c1.1,1.8,0.4,4.2-1.5,5.1c-1.8,1.1-4.2,0.4-5.1-1.5c-1.1-1.8-0.4-4.2,1.5-5.1
				C192,317.7,194.3,318.5,195.4,320.1z"/>
		</g>
		<g>
			<path class="st3" d="M80,169.8c1.5,1.5,1.5,3.8,0,5.3c-1.5,1.5-3.8,1.5-5.3,0c-1.5-1.5-1.5-3.8,0-5.3
				C76.1,168.3,78.5,168.3,80,169.8z"/>
			<path class="st3" d="M214.5,304.3c1.5,1.5,1.5,3.8,0,5.3c-1.5,1.5-3.8,1.5-5.3,0c-1.5-1.5-1.5-3.8,0-5.3
				C210.7,302.9,213,302.9,214.5,304.3z"/>
		</g>
		<g>
			<path class="st3" d="M64.2,189c1.8,1.1,2.4,3.3,1.5,5.1c-1.1,1.8-3.3,2.4-5.1,1.5c-1.8-1.1-2.4-3.3-1.5-5.1
				C60,188.5,62.4,188,64.2,189z"/>
			<path class="st3" d="M228.8,284c1.8,1.1,2.4,3.3,1.5,5.1c-1.1,1.8-3.3,2.4-5.1,1.5c-1.8-1.1-2.4-3.3-1.5-5.1
				C224.6,283.6,227,283.1,228.8,284z"/>
		</g>
		<g>
			<path class="st3" d="M53.6,211.6c2,0.5,3.3,2.5,2.7,4.5c-0.5,2-2.5,3.3-4.5,2.7c-2-0.5-3.3-2.5-2.7-4.5
				C49.6,212.1,51.6,211,53.6,211.6z"/>
			<path class="st3" d="M237.3,260.7c2,0.5,3.3,2.5,2.7,4.5c-0.5,2-2.5,3.3-4.5,2.7c-2-0.5-3.3-2.5-2.7-4.5
				C233.4,261.3,235.3,260.2,237.3,260.7z"/>
		</g>
		<g>
			<path class="st3" d="M49.5,236.1c2,0,3.8,1.6,3.8,3.8c0,2-1.6,3.8-3.8,3.8c-2,0-3.8-1.6-3.8-3.8
				C45.7,237.7,47.5,236.1,49.5,236.1z"/>
			<path class="st3" d="M239.7,236.1c2,0,3.8,1.6,3.8,3.8c0,2-1.6,3.8-3.8,3.8c-2,0-3.8-1.6-3.8-3.8
				C235.9,237.7,237.5,236.1,239.7,236.1z"/>
		</g>
		<g>
			<path class="st3" d="M51.8,260.7c2-0.5,4,0.7,4.5,2.7c0.5,2-0.7,4-2.7,4.5s-4-0.7-4.5-2.7C48.6,263.3,49.8,261.3,51.8,260.7z"/>
			<path class="st3" d="M235.3,211.6c2-0.5,4,0.7,4.5,2.7s-0.7,4-2.7,4.5c-2,0.5-4-0.7-4.5-2.7C232.3,214.1,233.4,212.1,235.3,211.6
				z"/>
		</g>
		<g>
			<path class="st3" d="M60.4,284c1.8-1.1,4.2-0.4,5.1,1.5c1.1,1.8,0.4,4.2-1.5,5.1c-1.8,1.1-4.2,0.4-5.1-1.5
				C58,287.4,58.5,285.1,60.4,284z"/>
			<path class="st3" d="M225,189c1.8-1.1,4.2-0.4,5.1,1.5c1.1,1.8,0.4,4.2-1.5,5.1c-1.8,1.1-4.2,0.4-5.1-1.5
				C222.6,192.3,223.2,190,225,189z"/>
		</g>
		<g>
			<path class="st3" d="M74.7,304.3c1.5-1.5,3.8-1.5,5.3,0c1.5,1.5,1.5,3.8,0,5.3c-1.5,1.5-3.8,1.5-5.3,0
				C73.2,308.1,73.2,305.8,74.7,304.3z"/>
			<path class="st3" d="M209.2,169.8c1.5-1.5,3.8-1.5,5.3,0c1.5,1.5,1.5,3.8,0,5.3c-1.5,1.5-3.8,1.5-5.3,0
				C207.8,173.8,207.6,171.3,209.2,169.8z"/>
		</g>
		<g>
			<path class="st3" d="M93.8,320.3c1.1-1.8,3.3-2.4,5.1-1.5c1.8,1.1,2.4,3.3,1.5,5.1c-1.1,1.8-3.3,2.4-5.1,1.5
				C93.4,324.3,92.7,321.9,93.8,320.3z"/>
			<path class="st3" d="M188.9,155.5c1.1-1.8,3.3-2.4,5.1-1.5c1.8,1.1,2.4,3.3,1.5,5.1c-1.1,1.8-3.3,2.4-5.1,1.5
				C188.5,159.6,187.8,157.3,188.9,155.5z"/>
		</g>
		<g>
			<path class="st3" d="M116.3,330.6c0.5-2,2.5-3.3,4.5-2.7c2,0.5,3.3,2.5,2.7,4.5s-2.5,3.3-4.5,2.7S115.7,332.6,116.3,330.6z"/>
			<path class="st3" d="M165.5,146.9c0.5-2,2.5-3.3,4.5-2.7s3.3,2.5,2.7,4.5c-0.5,2-2.5,3.3-4.5,2.7
				C166.2,151.1,164.9,148.9,165.5,146.9z"/>
		</g>
	</g>
	<rect x="105.6" y="357.3" class="st4" width="78.2" height="14.7"/>
	<rect x="105.6" y="372" class="st3" width="78.2" height="4"/>
</g>
<g id="hand" class="st14">
	<g class="st15">
		<path class="st16" d="M564.9,327.5l-2.1,2.6c-1.7,2.1-3.6,5.8-0.3,9c4.1,3.9,8.3-0.3,9.9-2l1.8-2.3c1.7-2.1,4.1-5.9,0.5-9.3
			C570.7,321.6,566.5,325.8,564.9,327.5z"/>
		<path class="st16" d="M564.9,310.9l-2.1,2.6c-1.7,2.1-3.6,5.8-0.3,9c4.1,3.9,8.3-0.3,9.9-2l1.8-2.3c1.7-2.1,4.1-5.9,0.5-9.3
			C570.7,305,566.5,309.2,564.9,310.9z"/>
		<path class="st16" d="M564.9,294.1l-2.1,2.6c-1.7,2.1-3.6,5.8-0.3,9c4.1,3.9,8.3-0.3,9.9-2l1.8-2.3c1.7-2.1,4.1-5.9,0.5-9.3
			C570.7,288.2,566.5,292.4,564.9,294.1z"/>
		<g id="hand_1_">
			<path class="st16" d="M566.3,271.8l-6.4,8.4c-1.7,2.1-9.4,5.8-6.1,9c4.1,3.9,9,4,10.6,2.3l11.3-12.5c1.7-2.1,4.1-6,0.5-9.3
				C572.1,265.9,567.8,270.1,566.3,271.8z"/>
			<path class="st16" d="M506.9,299.7c-0.2,13.5-1.4,43.3-1.4,43.3s-0.5,6.1,1.9,8.9s6.1,4,6.1,4l-6.1,12.6l36.7,7.8l18.2-26
				l-47.5-44.4C514.9,305.9,516.3,299,506.9,299.7z"/>
			<polygon class="st17" points="506.1,357.1 471,424.6 525.3,424.6 548.6,379.7 			"/>
		</g>
		<g id="smartphone_1_">
			<g>
				<path class="st18" d="M557.8,357.3h-36.3c-4.7,0-8.6-3.9-8.6-8.6v-86c0-4.7,3.9-8.6,8.6-8.6h36.3c4.7,0,8.6,3.9,8.6,8.6v86
					C566.4,353.4,562.5,357.3,557.8,357.3z"/>
				<path class="st19" d="M556.1,353.9h-33c-3.9,0-7.1-3.2-7.1-7.1v-81.7c0-3.9,3.2-7.1,7.1-7.1h33c3.9,0,7.1,3.2,7.1,7.1v81.7
					C563.2,350.7,560,353.9,556.1,353.9z"/>
				<path class="st18" d="M549.7,261.4h-19c-0.2,0-0.3-0.2-0.3-0.3l0,0c0-0.2,0.2-0.3,0.3-0.3h19c0.2,0,0.3,0.2,0.3,0.3l0,0
					C550,261.3,549.9,261.4,549.7,261.4z"/>
			</g>
		</g>
	</g>
	<g id="_x33__fingers" class="st15">
	</g>
	<g class="st15">
		<path class="st20" d="M537,291c-0.1,0.5,0.1,0.8,0.5,1c3.1,2.5,6.3,5.1,9.4,7.6c0.5,0.5,0.9,0.5,1.4,0.2c1.7-0.5,3.1,0.1,4.3,1.4
			c1,1.4,1.3,3,0.5,4.5s-2.2,2.5-3.8,2.2c-1.3-0.2-2,0.5-2.8,1c-1.7,1.4-3.6,2.9-5.3,4.3c-0.6,0.5-1,0.7-1.7,0.6
			c-0.8-0.1-1.4-0.6-1.6-1.3c-0.2-0.9-0.1-1.5,0.7-2.2c1.5-1.3,3.1-2.5,4.8-3.8c0.5-0.3,0.9-0.8,1.3-1c0.7-0.5,0.9-0.9,0.8-1.6
			c0-0.3-0.1-0.7-0.5-0.9c-3.2-2.6-6.7-5.2-9.9-7.8c-0.3-0.2-0.7-0.3-1-0.2c-2.3,0.7-4.6-0.8-5.2-3.1c-0.6-2.2,1-4.4,3.1-4.9
			C534.6,286.3,537,288.2,537,291z"/>
		<path class="st21" d="M532.9,313.1c2.3,0,4.3,1.8,4.1,4.3c0,2.3-2,4.1-4.1,4.1c-2.3,0-4.1-2-4.1-4.3
			C528.7,315,530.5,313.1,532.9,313.1z"/>
	</g>
</g>
<g id="hackathon_laptop" class="st14">
	<g class="st15">
		<path class="st18" d="M625.3,149.3H711c1.6,0,3,1.3,3,3v53.5c0,1.6-1.3,3-3,3h-85.7c-1.6,0-3-1.3-3-3v-53.5
			C622.3,150.6,623.6,149.3,625.3,149.3L625.3,149.3z"/>
		<path class="st22" d="M627.7,154.3h80.7v49.4h-80.7V154.3z"/>
		<path class="st18" d="M712,208.7h-87.9c-1.1,0-2,0.5-2.7,1.4l-16.8,29.5c-0.8,1.5-0.3,2.6,1.2,2.6h124.4c1.5,0,2-1.2,1.2-2.6
			l-16.8-29.5C714.1,209.2,713.1,208.7,712,208.7L712,208.7z"/>
		<path class="st23" d="M708.4,212.6h-80.6c-1.1,0-2.2,0.6-2.8,1.5l-4.4,8.7c-0.5,1,0,1.9,1.3,1.9h92.2c1.3,0,1.9-0.9,1.3-1.9
			l-4.4-8.7C710.6,213.2,709.5,212.6,708.4,212.6z"/>
		<g>
			<line class="st24" x1="670" y1="174.7" x2="666.1" y2="183.9"/>
			<circle class="st25" cx="670.1" cy="174.6" r="0.8"/>
			<circle class="st24" cx="668" cy="179.2" r="16.3"/>
			<circle class="st25" cx="666.1" cy="183.8" r="0.8"/>
			<polyline class="st24" points="671.4,181.3 676.7,178.7 671.4,176.3 			"/>
			<circle class="st25" cx="671.4" cy="181.3" r="0.8"/>
			<circle class="st25" cx="671.4" cy="176.4" r="0.8"/>
			<g>
				<polyline class="st24" points="664.8,176.3 659.5,178.9 664.8,181.2 				"/>
				<circle class="st25" cx="664.7" cy="176.3" r="0.8"/>
				<circle class="st25" cx="664.7" cy="181.2" r="0.8"/>
			</g>
		</g>
	</g>
</g>
<g id="test_tube_ipad_1_" class="st14">
	<g id="Layer_1_1_" class="st15">
	</g>
	<g class="st15">
		<g>
			<path class="st25" d="M1524.3,449.4c1.9,0,1.9-3,0-3S1522.4,449.4,1524.3,449.4L1524.3,449.4z"/>
		</g>
	</g>
	<g class="st15">
		<path class="st26" d="M908.6,395.1h-99.8c-4.4,0-8-3.6-8-8v-77.8c0-4.4,3.6-8,8-8h99.8c4.4,0,8,3.6,8,8v77.8
			C916.6,391.5,913,395.1,908.6,395.1z"/>
		<circle class="st25" cx="863.6" cy="330.1" r="1.3"/>
		<circle class="st25" cx="863.6" cy="339.7" r="1.3"/>
		<circle class="st25" cx="873.4" cy="339.7" r="1.3"/>
		<circle class="st25" cx="873.4" cy="349.1" r="1.3"/>
		<circle class="st25" cx="863.6" cy="349.1" r="1.3"/>
		<circle class="st25" cx="863.6" cy="359.1" r="1.3"/>
		<circle class="st25" cx="853.1" cy="349.1" r="1.3"/>
		<circle class="st25" cx="843.8" cy="339.7" r="1.3"/>
		<circle class="st25" cx="843.8" cy="349.1" r="1.3"/>
		<circle class="st25" cx="853.1" cy="359.3" r="1.3"/>
		<polyline class="st27" points="863.4,329.9 873.4,339.9 853.1,359.1 		"/>
		<line class="st27" x1="873.4" y1="349.1" x2="863.5" y2="359"/>
		<line class="st27" x1="863.6" y1="339.7" x2="853.1" y2="349.1"/>
		<g>
			<circle class="st28" cx="853.1" cy="337.8" r="0.9"/>
			<rect x="851.8" y="339" class="st28" width="2.9" height="2.9"/>
		</g>
		<g>
			<circle class="st28" cx="873.4" cy="357.4" r="0.9"/>
			<rect x="872" y="358.6" class="st28" width="2.9" height="2.9"/>
		</g>
		<g>
			<circle class="st25" cx="853.1" cy="328" r="0.9"/>
			<rect x="851.8" y="329.2" class="st25" width="2.9" height="2.9"/>
		</g>
		<g>
			<circle class="st25" cx="844.2" cy="356.8" r="0.9"/>
			<rect x="842.8" y="358" class="st25" width="2.9" height="2.9"/>
		</g>
		<circle class="st28" cx="873.4" cy="330.3" r="1.3"/>
		<circle class="st28" cx="843.8" cy="330.3" r="1.3"/>
		<line class="st27" x1="853.1" y1="330.7" x2="843.8" y2="339.7"/>
		<circle class="st27" cx="858.7" cy="344.6" r="32.8"/>
	</g>
</g>
<g id="search" class="st14">
	<g id="Layer_1_2_" class="st15">
	</g>
	<g class="st15">
		<path class="st18" d="M452.4,98.5l-5.7-5.7l10.1-10.1l5.7,5.7L452.4,98.5z"/>
		<path class="st18" d="M508.8,36.3C494.5,22,471.2,22,456.9,36.4C442.6,50.7,442.6,74,457,88.3c14.3,14.3,37.5,14.3,51.8,0
			S523.2,50.8,508.8,36.3C508.8,36.4,508.8,36.4,508.8,36.3z M462,83.2c-11.5-11.5-11.5-30.2,0-41.8c11.5-11.5,30.2-11.5,41.8,0
			c11.5,11.5,11.5,30.2,0,41.7C492.2,94.7,473.5,94.7,462,83.2C461.9,83.2,461.9,83.2,462,83.2L462,83.2z"/>
		<path class="st18" d="M456.2,97.2l-8.3-8.3c-1.1-1-2.7-1-3.8,0l-31.8,31.8c-1,1.1-1,2.7,0,3.8l8.3,8.3c1.1,1,2.7,1,3.8,0
			l31.8-31.8C457.2,100,457.2,98.4,456.2,97.2"/>
		<path class="st23" d="M454.6,99.5l-1.5-1.5l-22,22.6l1.5,1.5L454.6,99.5z"/>
		<g>
			<circle class="st28" cx="470.4" cy="56.8" r="3.7"/>
			<rect x="464.4" y="62.2" class="st28" width="12.4" height="12.4"/>
		</g>
		<g>
			<circle class="st25" cx="497.7" cy="56.8" r="3.7"/>
			<rect x="491.8" y="62.2" class="st25" width="12.4" height="12.4"/>
		</g>
		<line class="st29" x1="488.3" y1="65.6" x2="479.7" y2="65.6"/>
		<path class="st30" d="M486.7,64.4"/>
		<circle class="st25" cx="488.3" cy="65.5" r="1.5"/>
		<line class="st31" x1="480.5" y1="70.4" x2="488.1" y2="70.4"/>
		<path class="st30" d="M481.9,71.5"/>
		<circle class="st28" cx="480.5" cy="70.5" r="1.3"/>
		<polyline class="st25" points="480,64.1 477.9,65.5 480,67 		"/>
		<polyline class="st28" points="487.8,71.8 489.6,70.5 487.8,69.2 		"/>
	</g>
</g>
<g id="roads" class="st14">
	<g class="st15">
		<path class="st32" d="M520.1-228.4h-38.6c0,0-20.9,0.9-20.9-20.9c0-21.7,0-50.2,0-68.1c0-17.9-17.5-17.5-17.5-17.5h-132"/>
		<g>
			<path class="st32" d="M-502.9-163.5l365.6-0.3l297.1-0.3c0,0,31.6,1.9,31.6-34.4s24.7-34.6,24.7-34.6h42.7
				c0,0,52.6,6.6,52.6-36.3s-2.1-145.2-2.1-145.2s-2.4-39.1-60-39.1s-18.3,0-18.3,0h-357.7c0,0-50.1-2.4-50.1,50.1
				s54.3,54.3,54.3,54.3h76.9c0,0,59.5,3,59.5-59.5c0-39.1,0-94.9,0-122.7"/>
			<path class="st32" d="M-501.5-414.4h125.9c0,0,58-4.9,58,58s0,107.3,0,107.3v86.2"/>
		</g>
	</g>
	<g class="st15">
		<path class="st33" d="M520.5-228.1h-38.6c0,0-20.9,0.9-20.9-20.9c0-21.7,0-50.2,0-68.1c0-17.9-17.5-17.5-17.5-17.5h-132"/>
		<g>
			<path class="st33" d="M-502.6-163.1l365.6-0.3l297.1-0.3c0,0,31.6,1.9,31.6-34.4s24.7-34.6,24.7-34.6h42.7
				c0,0,52.6,6.6,52.6-36.3s-2.1-145.2-2.1-145.2s-2.4-39.1-60-39.1s-18.3,0-18.3,0h-357.6c0,0-50.1-2.4-50.1,50.1
				s54.3,54.3,54.3,54.3h76.9c0,0,59.5,3,59.5-59.5c0-39.1,0-94.9,0-122.7"/>
			<path class="st33" d="M-501.2-414.1h125.9c0,0,58-4.9,58,58s0,107.3,0,107.3v86.2"/>
		</g>
	</g>
	<g class="st15">
		<g>
			<g>
				<line class="st34" x1="519.8" y1="-228.7" x2="512.3" y2="-228.7"/>
				<path class="st35" d="M497.3-228.7h-16.1c0,0-20.9,0.9-20.9-20.9c0-21.7,0-50.2,0-68.1c0-17.9-17.5-17.5-17.5-17.5h-117"/>
				<line class="st34" x1="318.3" y1="-335.2" x2="310.8" y2="-335.2"/>
			</g>
		</g>
		<g>
			<g>
				<g>
					<line class="st34" x1="-503.3" y1="-163.8" x2="-495.8" y2="-163.8"/>
					<path class="st36" d="M-480.7-163.8l343-0.3l297.1-0.3c0,0,31.6,1.9,31.6-34.4s24.7-34.6,24.7-34.6h42.7
						c0,0,52.6,6.6,52.6-36.3c0-42.8-2.1-145.2-2.1-145.2s-2.4-39.1-60-39.1c-17.4,0-26,0-29.5,0"/>
					<path class="st34" d="M223.1-453.9c3.6,0,7.5,0,7.5,0H223.1"/>
					<path class="st37" d="M207.9-453.9h-335c0,0-50.1-2.4-50.1,50.1s54.3,54.3,54.3,54.3H-46c0,0,59.5,3,59.5-59.5
						c0-32.9,0-77.7,0-107.7"/>
					<path class="st34" d="M13.5-524.1c0-2.7,0-5.2,0-7.5"/>
				</g>
			</g>
			<g>
				<g>
					<line class="st34" x1="-501.9" y1="-414.7" x2="-494.4" y2="-414.7"/>
					<path class="st38" d="M-479.6-414.7h103.7c0,0,58-4.9,58,58s0,107.3,0,107.3v71.4"/>
					<line class="st34" x1="-317.9" y1="-170.6" x2="-317.9" y2="-163.1"/>
				</g>
			</g>
		</g>
	</g>
</g>
<g id="Layer_9" class="st14">
	<g class="st15">
		<path class="st39" d="M722.6,326.1H662v47.3h71.4v-36.5L722.6,326.1z"/>
		<path class="st40" d="M722.6,336.9h10.8l-10.8-10.7V336.9z"/>
		<g>
			<g>
				<circle class="st28" cx="678" cy="342.1" r="3.3"/>
				<rect x="672.8" y="346.8" class="st28" width="10.8" height="10.8"/>
			</g>
			<g>
				<circle class="st25" cx="690.7" cy="342.1" r="3.3"/>
				<rect x="685.5" y="346.8" class="st25" width="10.8" height="10.8"/>
			</g>
			<g>
				<circle class="st17" cx="703.1" cy="342.1" r="3.3"/>
				<rect x="697.9" y="346.8" class="st17" width="10.8" height="10.8"/>
			</g>
			<g>
				<circle class="st4" cx="715.3" cy="342.1" r="3.3"/>
				<rect x="710.1" y="346.8" class="st4" width="10.8" height="10.8"/>
			</g>
		</g>
	</g>
</g>
<g id="Layer_10" class="st14">
	<g class="st15">
		<path class="st41" d="M370.1,399.3h60.6V352h-71.4v36.5L370.1,399.3z"/>
		<path class="st40" d="M370.1,388.5h-10.8l10.8,10.7V388.5z"/>
		<g>
			<g>
				<path class="st42" d="M410.3,380.4c-0.8,3.7-4,6.5-8,6.5c-4.5,0-8.1-3.6-8.1-8.1s3.6-8.1,8.1-8.1c2.6,0-0.8,2.7,0.6,5.4
					c0.5,0.9,2.9-0.2,4.4,0.5C409.3,377.5,410.4,380.2,410.3,380.4z"/>
				<rect x="401.7" y="367.8" class="st18" width="2.3" height="9.4"/>
				
					<rect x="408.6" y="374.9" transform="matrix(0.8926 -0.4508 0.4508 0.8926 -127.0302 225.4445)" class="st18" width="2.3" height="8.9"/>
				<rect x="401.9" y="374.9" class="st18" width="7" height="2.3"/>
				<circle class="st18" cx="402.8" cy="367.3" r="3.1"/>
				
					<rect x="410.8" y="382.2" transform="matrix(1 -8.220477e-03 8.220477e-03 1 -3.1347 3.4091)" class="st18" width="4.6" height="1.6"/>
			</g>
			<g>
				<circle class="st17" cx="383.7" cy="368.2" r="3.6"/>
				<rect x="378.1" y="373.3" class="st17" width="11.8" height="11.8"/>
			</g>
		</g>
	</g>
</g>
<g id="Layer_25">
</g>
<line class="st43" x1="2.9" y1="394.6" x2="1024" y2="394.6"/>
<line class="st44" x1="12.9" y1="393.7" x2="1024" y2="393.7"/>
</svg>
