<?xml version="1.0" encoding="utf-8"?>
<!-- Generator: Adobe Illustrator 22.1.0, SVG Export Plug-In . SVG Version: 6.00 Build 0)  -->
<svg version="1.1" id="Layer_1" xmlns="http://www.w3.org/2000/svg" xmlns:xlink="http://www.w3.org/1999/xlink" x="0px" y="0px"
	 viewBox="0 0 50 100" style="enable-background:new 0 0 50 100;" xml:space="preserve">
<style type="text/css">
	.st0{opacity:0.5;fill:#6D0519;}
	.st1{display:none;}
	.st2{display:inline;fill:#2F2E41;}
	.st3{display:inline;fill:#FFB8B8;}
	.st4{display:inline;opacity:0.1;enable-background:new    ;}
	.st5{display:inline;fill:#E20817;}
	.st6{display:inline;}
	.st7{fill:#FFB8B8;}
	.st8{fill:#2F2E41;}
	.st9{fill:#CCCCCC;}
	.st10{fill:#E20817;}
</style>
<ellipse class="st0" cx="25" cy="95.1" rx="15.4" ry="1.3"/>
<g id="Layer_1_1_" class="st1">
	<path class="st2" d="M31.9,22.1c-1.3-3.1-4.6-3.6-4.6-3.6s-3.2-0.8-5.8,3.2c-2.5,3.8-5.7,7.3-1.6,8.8l1.1-2.2l0.1,2.6
		c0.6,0.1,1.2,0.2,1.8,0.3c4.5,0.5,8.7,1.2,8.8-0.4C31.7,28.5,33.1,25.1,31.9,22.1z"/>
	<path class="st3" d="M18.2,46.6L17.9,54c0,0-3,5.9-0.6,5.8c2.5-0.1,2.2-5.8,2.2-5.8l0.9-6.9L18.2,46.6z"/>
	<path class="st3" d="M34.8,45.3l0.9,7.4c0,0,2.6,3.9,0.6,5.2s-2-4.6-2-4.6L32,45.8L34.8,45.3z"/>
	<path class="st3" d="M31.7,59.1l-2.6,10.1c0,0-1.2,4-2.7,6.1l-0.6,1.2l-2.3-0.3l1.6-6.5l1-12L31.7,59.1z"/>
	<path class="st4" d="M31.7,59.1l-2.6,10.1c0,0-1.2,4-2.7,6.1l-0.6,1.2l-2.3-0.3l1.6-6.5l1-12L31.7,59.1z"/>
	<path class="st2" d="M22.9,74.5l4,0.9l-1.6,3.8c0,0,0.7,2.3,0,3.5c-0.6,1.2-0.5,3.4-0.5,3.4L23.9,86c0,0-2.1,3.9-4.5,2.8
		c-2.5-1.1,0.2-3.8,0.2-3.8s2.1-4.2,2.4-5.9S22.9,74.5,22.9,74.5z"/>
	<path class="st4" d="M22.9,74.5l4,0.9l-1.6,3.8c0,0,0.7,2.3,0,3.5c-0.6,1.2-0.5,3.4-0.5,3.4L23.9,86c0,0-2.1,3.9-4.5,2.8
		c-2.5-1.1,0.2-3.8,0.2-3.8s2.1-4.2,2.4-5.9S22.9,74.5,22.9,74.5z"/>
	<path class="st3" d="M19.6,56.9l2.2,10.8c0,0-0.7,5.3,0.1,8.7l0.9,3.2h2.9V67.9c0,0,0.1-9.5-0.3-10.3C25,56.9,19.6,56.9,19.6,56.9z
		"/>
	<path class="st2" d="M26.3,78.4l-4,0.3l1,4c0,0-1,2.2-0.6,3.5s0,3.5,0,3.5h0.9c0,0,1.4,4.2,4,3.5s0.4-3.8,0.4-3.8s-1.4-4.5-1.4-6.2
		S26.3,78.4,26.3,78.4z"/>
	<circle class="st3" cx="27.3" cy="24.5" r="3.9"/>
	<path class="st5" d="M28.6,30.5c0,0-3.8-0.3-4.5,0s-2.7,1.7-2.7,1.7l1,9.1l8.2,1.7l1.3-1.9l1.3-2.7l-0.6-3.5l-0.1-2L28.6,30.5z"/>
	<path class="st5" d="M20.6,32.8c0,0-1.9,0.4-2,1.9c-0.1,1.4-0.1,5.1,0,5.6c0.1,0.6,0,0.9-0.1,1s-0.4-0.1-0.1,0.3
		c0.3,0.4,0.3,0.4,0.1,0.9s-0.6-0.1-0.3,0.6c0.3,0.7,0.4,0.9,0.3,1s-0.6,3.5-0.6,3.5l2.5,0.4l2.5-8.5L20.6,32.8z"/>
	<path class="st5" d="M31.9,32.8c0.6,0,1.1,0.4,1.3,0.9c0.4,0.9,1.6,6.5,1.4,6.9s-0.4-0.1-0.1,0.7c0.3,0.9,0,0.7,0.1,1.3
		s-0.6,0,0,0.6s0.9,0.7,0.6,1c-0.3,0.3-0.7-0.3-0.3,0.3s0.4,1.4,0.4,1.4l-3.5,0.7l-1-8.1L31.9,32.8z"/>
	<path class="st2" d="M20.2,32.5l0.7-0.4c0.3-0.2,0.7,0,0.8,0.3l0,0l3.3,6.7l3.6,2.3l2.6-1.2c0,0,1.9-2.9,1.3-4.3
		c-0.4-1-0.9-2.5-1.1-3.4c0-0.1,0-0.3,0.2-0.3c0.1,0,0.2,0,0.2,0l0.5,0.3c0.2,0.1,0.3,0.3,0.3,0.5l1.1,5.2l-1.4,3v2.9l1,15.6
		c0,0-3.8-0.6-7.5-1.3s-8.5-1.3-8.5-1.3s2.5-12.7,4.5-14.9c0,0,0-1.6,0.3-1.7c0.3-0.1,0.6-1.2,0.6-1.2l-2.6-6.1
		C19.8,33,19.9,32.7,20.2,32.5z"/>
	<polygon class="st2" points="31.1,21 27.8,19.3 23.2,20 22.3,24.2 24.7,24.1 25.3,22.5 25.3,24 26.4,24 27,21.6 27.4,24.2 
		31.3,24.1 	"/>
	<ellipse class="st3" cx="23.3" cy="24.5" rx="0.4" ry="0.8"/>
	<g class="st6">
		<polygon class="st7" points="2.5,87.4 0.3,87.4 0,78.9 2.5,78.9 		"/>
		<path class="st8" d="M3.1,89.5H-4v-0.1c0-1.5,1.2-2.8,2.8-2.8l0,0l0,0h4.3L3.1,89.5z"/>
		<polygon class="st7" points="14.9,87.4 17,87.4 17.4,78.9 14.9,78.9 		"/>
		<path class="st8" d="M14.3,86.7h4.3l0,0c1.5,0,2.8,1.2,2.8,2.8l0,0v0.1h-7.1L14.3,86.7z"/>
		<path class="st8" d="M14.9,86.3c-0.4,0-0.7-0.3-0.8-0.6L8.7,62c0-0.1-0.1-0.2-0.3-0.2l0,0c-0.1,0-0.2,0.1-0.3,0.2l-5,23.5
			c-0.1,0.4-0.4,0.6-0.8,0.6H0c-0.4,0-0.8-0.4-0.8-0.8l0,0L1,55.5l0.7-0.2l0,0l14,0.1l3,29.8c0,0.4-0.3,0.8-0.7,0.9l0,0L14.9,86.3
			C15,86.3,14.9,86.3,14.9,86.3z"/>
		<circle class="st7" cx="9.1" cy="23.5" r="4.4"/>
		<path class="st9" d="M6.4,58.7c-0.8,0-1.5-0.1-2.3-0.3c-1.3-0.4-2.4-1.3-3-2.6c-0.1-0.1-0.1-0.4,0-0.6c0.4-1.6,2.8-10.2,1.3-17
			c-0.4-1.9-0.1-3.9,1-5.6C4.5,31,6.1,29.8,8,29.5l0,0c0.2,0,0.5-0.1,0.7-0.1c2.1-0.3,4.2,0.4,5.8,1.9c1.6,1.5,2.4,3.6,2.3,5.8
			l-1.1,18.4c0,0.3-0.2,0.5-0.4,0.7C14,56.8,10,58.7,6.4,58.7z"/>
		<path class="st7" d="M2.1,55.7C3,55.2,3.4,54.1,3,53.1c-0.1-0.1-0.1-0.2-0.2-0.3l1.4-14H1.1L0,52.5c-0.8,0.7-0.9,1.9-0.2,2.7
			C0.3,55.9,1.3,56.1,2.1,55.7z"/>
		<path class="st9" d="M4.4,32.1L4.4,32.1c1.3,0.3,2.1,1.4,2,2.7L6,40.9c0,0.4-0.4,0.7-0.8,0.7c-0.1,0-0.1,0-0.2,0L0,40
			c-0.4-0.1-0.6-0.5-0.5-0.9l0,0l2.1-5.3C2,32.6,3.2,31.9,4.4,32.1z"/>
		<path class="st8" d="M14.1,20.3c-0.9-2.4-3.4-3.7-5.9-3.3l1.4,1.1C7.9,18.2,6,18,4.8,19.2c0.4,0,0.9,0.8,1.3,0.8
			c-0.7,0-1.4,0.5-1.7,1.2c-0.3,0.7-0.4,1.4-0.2,2.1c0.1,0.7,1.2,2.4,1.5,3.1c-0.1-1.7,3.4-5.9,5.1-5.5c-0.9,0.3-1.6,0.9-2.1,1.6
			c1.1-0.6,2.4-0.8,3.7-0.6c0.3,0.1,0.6,0.1,0.9,0c0.6-0.1,1-0.7,0.8-1.3c0-0.2-0.1-0.3-0.2-0.5L14.1,20.3z"/>
		<path class="st7" d="M8.6,47.9c0.1,0,0.2,0,0.3,0.1l6.7-5.8l-0.4-2.1l3.1-1l1.1,3.7c0.2,0.6-0.1,1.3-0.6,1.6l-8.5,5.4
			c0,1-0.8,1.9-1.8,1.9s-1.9-0.8-1.9-1.8S7.4,48,8.4,48C8.4,47.9,8.5,47.9,8.6,47.9z"/>
		<path class="st9" d="M14.4,32.4L14.4,32.4c1.3-0.3,2.5,0.4,2.9,1.7l2,5.8c0.1,0.4-0.1,0.8-0.4,0.9c-0.1,0-0.1,0-0.2,0l-5.4,0.6
			c-0.4,0-0.7-0.2-0.8-0.6c0,0,0,0,0-0.1L12.3,35C12.3,33.7,13.1,32.6,14.4,32.4z"/>
	</g>
	<g class="st6">
		<path class="st7" d="M-43.4,25.3c0.1,1.3,0,2.7-0.2,4c0,0-1.6,3.5,0.2,5.1s5.1-4.7,5.1-4.7c-0.2-1.4-0.4-2.7,0-3.5L-43.4,25.3z"/>
		<path class="st7" d="M-41,68.8v4.9c0,0-0.7,9.1,0,11.3l-0.2,4.2h2.4l0.7-5.1c0,0,2-6.4,1.3-10.4l0.4-4.9H-41z"/>
		<path class="st7" d="M-44.5,68.8v4.9c0,0,0.7,9.1,0,11.3l0.2,4.2h-2.4l-0.7-5.1c0,0-2-6.4-1.3-10.4l-0.4-4.9H-44.5z"/>
		<path class="st8" d="M-50.2,50.5c0,0-1.3,8.4-0.4,13.3c0.9,4.9,0.9,6.4,0.9,6.4l5.5-0.2l1.6-9.1l1.3,9.3l6.7-1.1
			c0,0,0-7.1,0.2-8.7c0.2-1.6,0.2-10.4,0.2-10.4L-50.2,50.5z"/>
		<path class="st8" d="M-38.3,89.2c0,0-2.4-1.6-3.5,0v2.7c0,0-0.9,2,2.2,1.6c3.1-0.4,2-2,2-2L-38.3,89.2z"/>
		<path class="st8" d="M-47.2,89.2c0,0,2.4-1.6,3.5,0v2.7c0,0,0.9,2-2.2,1.6c-3.1-0.4-2-2-2-2L-47.2,89.2z"/>
		<circle class="st7" cx="-40.5" cy="24" r="3.5"/>
		<path class="st10" d="M-42.1,32.4l-1.5-3.6l-1.6,0.7l-2,11.5l0.2,11.1c0,0,10.2-0.4,11.5,0.2S-37,30.7-37,30.7l-1.3-1.7
			L-42.1,32.4z"/>
		<path class="st8" d="M-43.4,27.5c0,0-3.4,0.9-3.4,2.2c0,0-3.3,0.7-3.3,1.3c0,0.7-0.2,17.5-0.2,17.5s-2,3.8-0.4,6.9l-0.2,1.8
			l4.4,0.4l3.1-27.3L-43.4,27.5z"/>
		<path class="st8" d="M-38.6,27.5c0,0,3.4,0.9,3.4,2.2c0,0,3.3,0.7,3.3,1.3c0,0.7,0.2,17.5,0.2,17.5s2,3.8,0.4,6.9l0.2,1.8
			l-4.4,0.4l-3.1-27.3L-38.6,27.5z"/>
		<path class="st8" d="M-37.6,19.3c0,0,0.2-0.9-0.9-0.4c0,0-1.3-1.6-2.7-0.4c0,0-2.7-0.4-2.7,1.8s-0.1,3-0.1,3s0.8-2.1,2.3-1.8
			c0.9,0.1,1.5,0,1.8-0.1s0.6-0.1,0.9,0c0.4,0.1,0.7,0.4,0.9,0.8c0.1,0.3,0.3,0.6,0.5,0.9c0.3,0.4,0.5,0.8,0.6,1.2l0,0l0.4-2.6
			c0,0,0.2-1.3-0.4-1.8C-37,19.8-36.8,19.1-37.6,19.3z"/>
		<path class="st7" d="M-54.2,54.3c0,0-1.3,5.1,0.7,4.7c2-0.4,1.6-4.9,1.6-4.9L-54.2,54.3z"/>
		<path class="st7" d="M-27.8,54.3c0,0,1.3,5.1-0.7,4.7c-2-0.4-1.6-4.9-1.6-4.9L-27.8,54.3z"/>
		<path class="st8" d="M-49,31.1l-0.6-0.5c0,0-0.7,0-0.9,0.5c-0.2,0.4-3.8,11.5-3.8,11.5s-1.1,5.8-0.4,9.3l0.2,2.7h3.1l-0.2-4.2
			l2.2-8.4L-49,31.1z"/>
		<path class="st8" d="M-33,31.1l0.6-0.5c0,0,0.7,0,0.9,0.5s3.8,11.5,3.8,11.5s1.1,5.8,0.4,9.3l-0.2,2.7h-3.1l0.2-4.2l-2.2-8.4
			L-33,31.1z"/>
	</g>
</g>
<g id="Layer_2_1_">
	<g>
		<path class="st7" d="M23.5,22.8c0.1,1.4,0,2.9-0.2,4.3c0,0-1.7,3.8,0.2,5.4c1.9,1.7,5.4-5,5.4-5c-0.2-1.5-0.4-2.9,0-3.8L23.5,22.8
			z"/>
		<path class="st7" d="M26.1,69.2v5.2c0,0-0.7,9.7,0,12.1L25.9,91h2.6l0.7-5.4c0,0,2.1-6.9,1.4-11.1l0.5-5.2L26.1,69.2L26.1,69.2z"
			/>
		<path class="st7" d="M22.3,69.2v5.2c0,0,0.7,9.7,0,12.1l0.2,4.5h-2.6l-0.7-5.4c0,0-2.1-6.9-1.4-11.1l-0.5-5.2L22.3,69.2L22.3,69.2
			z"/>
		<path class="st8" d="M16.3,49.6c0,0-1.4,9-0.5,14.2s0.9,6.9,0.9,6.9l5.9-0.2l1.7-9.7l1.4,9.9l7.1-1.2c0,0,0-7.6,0.2-9.2
			c0.2-1.7,0.2-11.1,0.2-11.1L16.3,49.6z"/>
		<path class="st8" d="M28.9,90.9c0,0-2.6-1.7-3.8,0v2.8c0,0-0.9,2.1,2.4,1.7c3.3-0.5,2.1-2.1,2.1-2.1L28.9,90.9z"/>
		<path class="st8" d="M19.5,90.9c0,0,2.6-1.7,3.8,0v2.8c0,0,0.9,2.1-2.4,1.7c-3.3-0.5-2.1-2.1-2.1-2.1L19.5,90.9z"/>
		<circle class="st7" cx="26.6" cy="21.3" r="3.8"/>
		<path class="st10" d="M24.9,30.3l-1.6-3.8l-1.7,0.8l-2.1,12.3l0.2,11.8c0,0,10.9-0.5,12.3,0.2s-1.7-23.2-1.7-23.2l-1.4-1.8
			L24.9,30.3z"/>
		<path class="st8" d="M23.5,25.1c0,0-3.6,0.9-3.6,2.4c0,0-3.6,0.7-3.6,1.4c0,0.7-0.2,18.7-0.2,18.7s-2.1,4-0.5,7.3l-0.2,1.9
			l4.7,0.5l3.3-29.1L23.5,25.1z"/>
		<path class="st8" d="M28.7,25.1c0,0,3.6,0.9,3.6,2.4c0,0,3.6,0.7,3.6,1.4c0,0.7,0.2,18.7,0.2,18.7s2.1,4,0.5,7.3l0.2,1.9L32,57.3
			l-3.3-29.1V25.1z"/>
		<path class="st8" d="M29.6,16.4c0,0,0.2-0.9-0.9-0.5c0,0-1.4-1.7-2.8-0.5c0,0-2.8-0.5-2.8,1.9S23,20.4,23,20.4s0.8-2.2,2.5-2
			c1,0.1,1.6,0,1.9-0.1s0.7-0.2,1,0c0.4,0.1,0.7,0.4,0.9,0.8c0.1,0.3,0.3,0.7,0.5,1c0.3,0.4,0.5,0.9,0.7,1.3l0,0l0.5-2.8
			c0,0,0.2-1.4-0.5-1.9C30.4,16.8,30.6,16.1,29.6,16.4z"/>
		<path class="st7" d="M12,53.7c0,0-1.4,5.4,0.7,5c2.1-0.5,1.7-5.2,1.7-5.2L12,53.7z"/>
		<path class="st7" d="M40.2,53.7c0,0,1.4,5.4-0.7,5c-2.1-0.5-1.7-5.2-1.7-5.2L40.2,53.7z"/>
		<path class="st8" d="M17.6,28.9l-0.7-0.5c0,0-0.8,0-1,0.5c-0.2,0.5-4,12.3-4,12.3s-1.2,6.2-0.5,9.9l0.2,2.8H15l-0.2-4.5l2.4-9
			L17.6,28.9z"/>
		<path class="st8" d="M34.6,28.9l0.7-0.5c0,0,0.8,0,1,0.5s4,12.3,4,12.3s1.2,6.2,0.5,9.9L40.5,54h-3.3l0.2-4.5l-2.4-9L34.6,28.9z"
			/>
	</g>
</g>
</svg>
