<?xml version="1.0" encoding="utf-8"?>
<!-- Generator: Adobe Illustrator 24.0.3, SVG Export Plug-In . SVG Version: 6.00 Build 0)  -->
<svg version="1.1" id="Layer_2_1_" xmlns="http://www.w3.org/2000/svg" xmlns:xlink="http://www.w3.org/1999/xlink" x="0px" y="0px"
	 viewBox="0 0 1024 283" style="enable-background:new 0 0 1024 283;" xml:space="preserve">
<style type="text/css">
	.st0{fill:none;stroke:#DFDFDF;stroke-width:33;stroke-miterlimit:10;}
	.st1{fill:none;stroke:#6B6B6B;stroke-width:27.6952;stroke-miterlimit:10;}
	.st2{fill:none;stroke:#FFFFFF;stroke-width:4;stroke-miterlimit:10;}
	.st3{fill:none;stroke:#FFFFFF;stroke-width:4;stroke-miterlimit:10;stroke-dasharray:12.0424,12.0424;}
	.st4{fill:#DFDFDF;}
	.st5{opacity:0.3;fill:#6B6B6B;enable-background:new    ;}
	.st6{fill:#332326;}
	.st7{fill:#818181;}
	.st8{fill:none;}
	.st9{fill:#662483;}
	.st10{fill:#E6302E;}
	.st11{fill:#3B3B3B;}
	.st12{fill:#7E7E7C;}
	.st13{fill:#FFFFFF;stroke:#3C3C3C;stroke-width:2.7397;stroke-miterlimit:10;}
	.st14{fill:#FFFFFF;stroke:#3C3C3C;stroke-width:2.4665;stroke-miterlimit:10;}
	.st15{fill:#FFFFFF;stroke:#3C3C3C;stroke-width:1.7441;stroke-miterlimit:10;}
	.st16{fill:#FFFFFF;stroke:#3C3C3C;stroke-width:2.227;stroke-miterlimit:10;}
	.st17{opacity:0.1;fill:#848484;enable-background:new    ;}
	.st18{fill:#FFFFFF;stroke:#3C3C3C;stroke-width:2.0932;stroke-miterlimit:10;}
	.st19{fill:#30302E;}
	.st20{fill:#9E9E9E;}
	.st21{opacity:0.2;fill:#9E9E9E;enable-background:new    ;}
	.st22{fill:#CCB061;}
	.st23{fill:#AD210A;}
	.st24{fill:#DAEBFE;}
	.st25{fill:#FFFFFF;stroke:#3B3B3B;stroke-width:3.928;stroke-miterlimit:10;}
	.st26{fill:#3C3C3C;}
	.st27{fill:#D83058;}
	.st28{fill:#C9C9C9;}
	.st29{fill:#9E9E9D;}
</style>
<line class="st0" x1="48" y1="221.1" x2="987.2" y2="221.1"/>
<line class="st1" x1="48" y1="221.1" x2="987.2" y2="221.1"/>
<g>
	<g>
		<line class="st2" x1="48.7" y1="221.1" x2="54.7" y2="221.1"/>
		<line class="st3" x1="66.7" y1="221.1" x2="975.9" y2="221.1"/>
		<line class="st2" x1="981.9" y1="221.1" x2="987.9" y2="221.1"/>
	</g>
</g>
<g>
	<path class="st4" d="M93.6,124.7c0,10.5-8.4,19-18.8,19s-18.8-8.5-18.8-19s8.4-19,18.8-19S93.6,114.2,93.6,124.7z"/>
	<ellipse class="st4" cx="75.1" cy="158.9" rx="24.4" ry="24.4"/>
	<path class="st5" d="M54.4,156.2c0-6.6,2.7-12.5,7.1-17c-6.6,4.2-10.7,11.6-10.7,20c0,13.1,10.7,23.8,24.1,23.8
		c6.6,0,12.8-2.7,17-6.8c-3.9,2.7-8.3,4.2-13.4,4.2C65.1,180,54.4,169.3,54.4,156.2z"/>
	<path class="st5" d="M58,121.7c0-5.4,2.1-10.4,6-14c-5.4,3.6-8.9,9.5-8.9,16.4c0,10.7,8.9,19.7,20,19.7c5.4,0,10.4-2.1,14-5.7
		c-3.3,2.1-6.8,3.3-11,3.3C66.9,141.3,58,132.7,58,121.7z"/>
	<g>
		<polygon class="st6" points="70.2,201.5 74.9,121.1 79.7,201.5 		"/>
	</g>
	<g>
		<polygon class="st6" points="73.5,161 89.2,147 76.1,163.6 		"/>
	</g>
	<g>
		<polygon class="st6" points="73.8,138.3 85.1,127.6 76.1,140.4 		"/>
	</g>
	<g>
		<polygon class="st6" points="71.7,174.1 57.7,158.3 74.3,171.4 		"/>
	</g>
	<g>
		<path class="st4" d="M137.1,164.5c0,10.1-8.2,18.3-18.3,18.3s-18.3-8.2-18.3-18.3s8.2-18.3,18.3-18.3S137.1,154.4,137.1,164.5z"/>
		<path class="st7" d="M102.6,162.4c0.3-5.1,2.4-9.5,6-12.8c-5.1,3-8.6,8.6-8.6,14.9c-0.3,10.1,7.4,18.8,17.6,19.1
			c5.1,0.3,9.8-1.8,13.1-4.8c-3,1.8-6.6,2.7-10.4,2.7C110.1,180.9,102.3,172.6,102.6,162.4z"/>
	</g>
	<g>
		<g>
			<line class="st8" x1="116.6" y1="200" x2="118.4" y2="156.2"/>
			<polygon class="st6" points="114,200 118.4,156.2 119.3,200.3 			"/>
		</g>
		<g>
			<line class="st8" x1="118.1" y1="166" x2="123.8" y2="160.1"/>
			<polygon class="st6" points="117.5,165.4 123.8,160.1 118.7,166.6 			"/>
		</g>
		<g>
			<line class="st8" x1="117.5" y1="177.9" x2="107.7" y2="166.3"/>
			<polygon class="st6" points="116.3,178.8 107.7,166.3 118.7,177 			"/>
		</g>
		<g>
			<line class="st8" x1="117.5" y1="179.7" x2="129.1" y2="169.9"/>
			<polygon class="st6" points="116.9,178.8 129.1,169.9 118.1,180.3 			"/>
		</g>
	</g>
</g>
<g>
	<path class="st4" d="M965.2,105.2c10.4,0,18.8,8.5,18.8,19s-8.4,19-18.8,19s-18.8-8.5-18.8-19S954.8,105.2,965.2,105.2z"/>
	
		<ellipse transform="matrix(0.7705 -0.6375 0.6375 0.7705 120.5419 651.5572)" class="st4" cx="965.1" cy="158.4" rx="24.4" ry="24.4"/>
	<path class="st5" d="M961.5,179.9c-5.1,0-9.5-1.5-13.4-4.2c4.2,4.2,10.4,6.8,17,6.8c13.4,0,24.1-10.7,24.1-23.8
		c0-8.3-4.2-15.8-10.7-20c4.5,4.5,7.1,10.4,7.1,17C985.6,168.8,974.9,179.6,961.5,179.9z"/>
	<path class="st5" d="M962.1,140.9c-4.2,0-7.7-1.2-11-3.3c3.6,3.6,8.6,5.7,14,5.7c11,0,20-8.9,20-19.7c0-6.8-3.6-12.8-8.9-16.4
		c3.9,3.6,6,8.6,6,14C982.1,132.2,973.1,140.9,962.1,140.9z"/>
	<g>
		<polygon class="st6" points="960.3,201 965.1,120.6 969.9,201 		"/>
	</g>
	<g>
		<polygon class="st6" points="963.9,163.2 950.8,146.5 966.6,160.5 		"/>
	</g>
	<g>
		<polygon class="st6" points="963.9,140 955,127.2 966.3,137.9 		"/>
	</g>
	<g>
		<polygon class="st6" points="965.7,170.9 982.4,157.8 968.4,173.6 		"/>
	</g>
	<g>
		<path class="st4" d="M921.2,145.8c10.1,0,18.3,8.2,18.3,18.3s-8.2,18.3-18.3,18.3s-18.3-8.2-18.3-18.3S911.1,145.8,921.2,145.8z"
			/>
		<path class="st7" d="M919.8,181.1c-3.9,0-7.4-0.9-10.4-2.7c3.3,3,8,5.1,13.1,4.8c10.1-0.3,17.9-8.9,17.6-19.1
			c0-6.3-3.6-11.9-8.6-14.9c3.6,3.3,5.7,7.7,6,12.8C937.7,172.1,930,180.5,919.8,181.1z"/>
	</g>
	<g>
		<g>
			<line class="st8" x1="921.6" y1="155.7" x2="923.4" y2="199.5"/>
			<polygon class="st6" points="920.7,199.8 921.6,155.7 926.1,199.5 			"/>
		</g>
		<g>
			<line class="st8" x1="916.3" y1="159.6" x2="921.9" y2="165.6"/>
			<polygon class="st6" points="921.3,166.2 916.3,159.6 922.5,165 			"/>
		</g>
		<g>
			<line class="st8" x1="932.3" y1="165.9" x2="922.5" y2="177.5"/>
			<polygon class="st6" points="921.3,176.6 932.3,165.9 923.7,178.4 			"/>
		</g>
		<g>
			<line class="st8" x1="910.9" y1="169.4" x2="922.5" y2="179.3"/>
			<polygon class="st6" points="921.9,179.9 910.9,169.4 923.1,178.4 			"/>
		</g>
	</g>
</g>
<path class="st4" d="M679.9,212.6H322.6c-5.1,0-9.2-4.2-9.2-9.2V51.7c0-5.1,4.2-9.2,9.2-9.2h357.3c5.1,0,9.2,4.2,9.2,9.2v151.7
	C689.1,208.5,685,212.6,679.9,212.6z"/>
<path class="st9" d="M681.2,111.6l-367.6,95.1c0,3.4,3.7,6.2,8.2,6.2h359.3c4.5,0,8.2-2.8,8.2-6.2v-88.9
	C689.5,114.4,685.8,111.6,681.2,111.6z"/>
<path class="st10" d="M313.8,50.6c0-4.5,3.7-8.2,8.2-8.2h359.3c4.5,0,8.2,3.7,8.2,8.2V144"/>
<g>
	<path class="st11" d="M678.4,190.6H647c-0.6,0-1.1-0.5-1.1-1.1v-0.3c0-0.6,0.5-1.1,1.1-1.1h31.3c0.6,0,1.1,0.5,1.1,1.1v0.3
		C679.5,190.1,679,190.6,678.4,190.6z"/>
	<path class="st11" d="M678.4,195.8H647c-0.6,0-1.1-0.5-1.1-1.1v-0.3c0-0.6,0.5-1.1,1.1-1.1h31.3c0.6,0,1.1,0.5,1.1,1.1v0.3
		C679.5,195.3,679,195.8,678.4,195.8z"/>
	<path class="st11" d="M678.4,180.3H647c-0.6,0-1.1-0.5-1.1-1.1v-0.3c0-0.6,0.5-1.1,1.1-1.1h31.3c0.6,0,1.1,0.5,1.1,1.1v0.3
		C679.5,179.8,679,180.3,678.4,180.3z"/>
	<path class="st11" d="M678.4,185.5H647c-0.6,0-1.1-0.5-1.1-1.1v-0.3c0-0.6,0.5-1.1,1.1-1.1h31.3c0.6,0,1.1,0.5,1.1,1.1v0.3
		C679.5,185,679,185.5,678.4,185.5z"/>
	<path class="st11" d="M678.4,201H647c-0.6,0-1.1-0.5-1.1-1.1v-0.3c0-0.6,0.5-1.1,1.1-1.1h31.3c0.6,0,1.1,0.5,1.1,1.1v0.3
		C679.5,200.5,679,201,678.4,201z"/>
	<path class="st11" d="M678.4,206.2H647c-0.6,0-1.1-0.5-1.1-1.1v-0.3c0-0.6,0.5-1.1,1.1-1.1h31.3c0.6,0,1.1,0.5,1.1,1.1v0.3
		C679.5,205.7,679,206.2,678.4,206.2z"/>
</g>
<g>
	<rect x="396.5" y="160.2" class="st12" width="87" height="12.1"/>
	<rect x="347.9" y="128.2" class="st13" width="278.7" height="31.6"/>
	<rect x="347.9" y="128.2" class="st14" width="48.6" height="83.3"/>
	<rect x="483.5" y="128.2" class="st14" width="48.6" height="83.3"/>
	<rect x="372.2" y="128.2" class="st15" width="24.3" height="83.3"/>
	<rect x="507.8" y="128.2" class="st16" width="24.3" height="83"/>
	<polygon class="st17" points="372.2,211.6 347.9,211.6 372.2,128.2 	"/>
	<polygon class="st17" points="396.5,210.7 372.2,210.7 396.5,127.4 	"/>
	<polygon class="st17" points="483.5,157.8 396.5,157.8 483.5,127.3 	"/>
	<rect x="532.1" y="128.4" class="st18" width="64.5" height="31.6"/>
	<polygon class="st17" points="596.6,159.3 532.1,159.3 596.6,128.8 	"/>
	<polygon class="st17" points="626.5,160.2 596.6,160.2 626.5,129.7 	"/>
</g>
<g>
	<circle class="st19" cx="422.4" cy="212.5" r="17.8"/>
	<circle class="st20" cx="422.4" cy="212.5" r="11.1"/>
	<path class="st21" d="M440.2,212.5c0,9.8-8,17.8-17.8,17.8c-5.3,0-10-2.3-13.3-5.9c-2.8-3.2,23.3-27.4,26.5-23.8
		C438.5,203.8,440.2,208,440.2,212.5z"/>
</g>
<g>
	<circle class="st19" cx="585.1" cy="212.5" r="17.8"/>
	<circle class="st20" cx="585.1" cy="212.5" r="11.1"/>
	<path class="st21" d="M602.9,212.5c0,9.8-8,17.8-17.8,17.8c-5.3,0-10-2.3-13.3-5.9c-2.8-3.2,23.3-27.4,26.5-23.8
		C601.2,203.8,602.9,208,602.9,212.5z"/>
</g>
<g>
	<circle class="st19" cx="629.5" cy="211.7" r="17.8"/>
	<circle class="st20" cx="629.5" cy="211.7" r="11.1"/>
	<path class="st21" d="M647.4,211.7c0,9.8-8,17.8-17.8,17.8c-5.3,0-10-2.3-13.3-5.9c-2.8-3.2,23.3-27.4,26.5-23.8
		C645.6,203,647.4,207.2,647.4,211.7z"/>
</g>
<g>
	<circle class="st22" cx="688.4" cy="185.5" r="4.5"/>
	<circle class="st23" cx="688.3" cy="173.5" r="4.5"/>
	<circle class="st23" cx="688.3" cy="197.4" r="4.5"/>
</g>
<rect x="321.6" y="126.9" class="st24" width="25.1" height="58.8"/>
<g>
	<path class="st25" d="M662.6,114.6H331.3c-4.1,0-7.5-3-7.5-6.6V63.5c0-3.6,3.4-6.6,7.5-6.6h331.4c4.1,0,7.5,3,7.5,6.6v44.4
		c0,1.8-0.8,3.5-2.2,4.7C666.6,113.8,664.7,114.6,662.6,114.6z"/>
	<rect x="321.6" y="107.8" class="st26" width="350.6" height="8.5"/>
</g>
<rect x="394" y="57.6" class="st11" width="3.3" height="56.8"/>
<rect x="464.4" y="55.9" class="st11" width="3.3" height="56.8"/>
<rect x="531.3" y="57.3" class="st11" width="3.3" height="56.8"/>
<rect x="599" y="55.5" class="st11" width="3.3" height="56.8"/>
<g>
	<g>
		<path class="st27" d="M584.3,158.8h-2.6c-0.7,0-1.3-0.6-1.3-1.3v-15.3c0-0.7,0.6-1.3,1.3-1.3h2.6c0.7,0,1.3,0.6,1.3,1.3v15.3
			C585.6,158.2,585,158.8,584.3,158.8z"/>
		<path class="st27" d="M573.8,157.8v-3.1c0-0.6,0.5-1.1,1.1-1.1h9.6c0.6,0,1.1,0.5,1.1,1.1v3.1c0,0.6-0.5,1.1-1.1,1.1h-9.6
			C574.3,158.8,573.8,158.4,573.8,157.8z"/>
	</g>
	<rect x="583.7" y="134.7" class="st28" width="5.6" height="24.2"/>
</g>
<rect x="349.2" y="204.2" class="st29" width="22.1" height="6.1"/>
<g>
	<g>
		<path class="st27" d="M548.2,158.9h2.6c0.7,0,1.3-0.6,1.3-1.3v-15.3c0-0.7-0.6-1.3-1.3-1.3h-2.6c-0.7,0-1.3,0.6-1.3,1.3v15.3
			C546.9,158.3,547.5,158.9,548.2,158.9z"/>
		<path class="st27" d="M558.7,157.8v-3.1c0-0.6-0.5-1.1-1.1-1.1H548c-0.6,0-1.1,0.5-1.1,1.1v3.1c0,0.6,0.5,1.1,1.1,1.1h9.6
			C558.2,158.9,558.7,158.4,558.7,157.8z"/>
	</g>
	<rect x="543.2" y="134.7" class="st28" width="5.6" height="24.2"/>
</g>
<g>
	<g>
		<path class="st27" d="M617.9,158.9h-2.6c-0.7,0-1.3-0.6-1.3-1.3v-15.3c0-0.7,0.6-1.3,1.3-1.3h2.6c0.7,0,1.3,0.6,1.3,1.3v15.3
			C619.3,158.3,618.7,158.9,617.9,158.9z"/>
		<path class="st27" d="M607.5,157.8v-3.1c0-0.6,0.5-1.1,1.1-1.1h9.6c0.6,0,1.1,0.5,1.1,1.1v3.1c0,0.6-0.5,1.1-1.1,1.1h-9.6
			C608,158.9,607.5,158.4,607.5,157.8z"/>
	</g>
	<rect x="617.4" y="134.8" class="st28" width="5.6" height="24.2"/>
</g>
<rect x="373.1" y="204.2" class="st29" width="22.5" height="6.5"/>
<rect x="484.7" y="203.8" class="st29" width="22" height="6.5"/>
<rect x="509" y="203.8" class="st29" width="22" height="6.5"/>
<g>
	<g>
		<path class="st27" d="M463,158.4h-2.6c-0.7,0-1.3-0.6-1.3-1.3v-15.3c0-0.7,0.6-1.3,1.3-1.3h2.6c0.7,0,1.3,0.6,1.3,1.3v15.3
			C464.3,157.8,463.7,158.4,463,158.4z"/>
		<path class="st27" d="M452.5,157.4v-3.1c0-0.6,0.5-1.1,1.1-1.1h9.6c0.6,0,1.1,0.5,1.1,1.1v3.1c0,0.6-0.5,1.1-1.1,1.1h-9.6
			C453,158.4,452.5,157.9,452.5,157.4z"/>
	</g>
	<rect x="462.4" y="134.3" class="st28" width="5.6" height="24.2"/>
</g>
<g>
	<g>
		<path class="st27" d="M426.9,158.5h2.6c0.7,0,1.3-0.6,1.3-1.3v-15.3c0-0.7-0.6-1.3-1.3-1.3h-2.6c-0.7,0-1.3,0.6-1.3,1.3v15.3
			C425.6,157.9,426.2,158.5,426.9,158.5z"/>
		<path class="st27" d="M437.4,157.4v-3.1c0-0.6-0.5-1.1-1.1-1.1h-9.6c-0.6,0-1.1,0.5-1.1,1.1v3.1c0,0.6,0.5,1.1,1.1,1.1h9.6
			C436.9,158.5,437.4,158,437.4,157.4z"/>
	</g>
	<rect x="421.9" y="134.4" class="st28" width="5.6" height="24.2"/>
</g>
<g>
	<g>
		<path class="st27" d="M366.3,107.4h-2.6c-0.7,0-1.3-0.6-1.3-1.3V90.8c0-0.7,0.6-1.3,1.3-1.3h2.6c0.7,0,1.3,0.6,1.3,1.3v15.3
			C367.6,106.8,367,107.4,366.3,107.4z"/>
		<path class="st27" d="M355.8,106.4v-3.1c0-0.6,0.5-1.1,1.1-1.1h9.6c0.6,0,1.1,0.5,1.1,1.1v3.1c0,0.6-0.5,1.1-1.1,1.1h-9.6
			C356.3,107.4,355.8,106.9,355.8,106.4z"/>
	</g>
	<rect x="365.7" y="83.3" class="st28" width="5.6" height="24.2"/>
</g>
<g>
	<g>
		<path class="st27" d="M436.2,107.4h-2.6c-0.7,0-1.3-0.6-1.3-1.3V90.8c0-0.7,0.6-1.3,1.3-1.3h2.6c0.7,0,1.3,0.6,1.3,1.3v15.3
			C437.5,106.8,437,107.4,436.2,107.4z"/>
		<path class="st27" d="M425.8,106.4v-3.1c0-0.6,0.5-1.1,1.1-1.1h9.6c0.6,0,1.1,0.5,1.1,1.1v3.1c0,0.6-0.5,1.1-1.1,1.1h-9.6
			C426.2,107.4,425.8,106.9,425.8,106.4z"/>
	</g>
	<rect x="435.6" y="83.3" class="st28" width="5.6" height="24.2"/>
</g>
<g>
	<g>
		<path class="st27" d="M509,107.4h-2.6c-0.7,0-1.3-0.6-1.3-1.3V90.8c0-0.7,0.6-1.3,1.3-1.3h2.6c0.7,0,1.3,0.6,1.3,1.3v15.3
			C510.3,106.8,509.8,107.4,509,107.4z"/>
		<path class="st27" d="M498.5,106.4v-3.1c0-0.6,0.5-1.1,1.1-1.1h9.6c0.6,0,1.1,0.5,1.1,1.1v3.1c0,0.6-0.5,1.1-1.1,1.1h-9.6
			C499,107.4,498.5,106.9,498.5,106.4z"/>
	</g>
	<rect x="508.4" y="83.3" class="st28" width="5.6" height="24.2"/>
</g>
<g>
	<g>
		<path class="st27" d="M570,107.4h-2.6c-0.7,0-1.3-0.6-1.3-1.3V90.8c0-0.7,0.6-1.3,1.3-1.3h2.6c0.7,0,1.3,0.6,1.3,1.3v15.3
			C571.3,106.8,570.8,107.4,570,107.4z"/>
		<path class="st27" d="M559.5,106.4v-3.1c0-0.6,0.5-1.1,1.1-1.1h9.6c0.6,0,1.1,0.5,1.1,1.1v3.1c0,0.6-0.5,1.1-1.1,1.1h-9.6
			C560,107.4,559.5,106.9,559.5,106.4z"/>
	</g>
	<rect x="569.4" y="83.3" class="st28" width="5.6" height="24.2"/>
</g>
<g>
	<g>
		<path class="st27" d="M643.3,107.4h-2.6c-0.7,0-1.3-0.6-1.3-1.3V90.8c0-0.7,0.6-1.3,1.3-1.3h2.6c0.7,0,1.3,0.6,1.3,1.3v15.3
			C644.6,106.8,644,107.4,643.3,107.4z"/>
		<path class="st27" d="M632.8,106.4v-3.1c0-0.6,0.5-1.1,1.1-1.1h9.6c0.6,0,1.1,0.5,1.1,1.1v3.1c0,0.6-0.5,1.1-1.1,1.1h-9.6
			C633.3,107.4,632.8,106.9,632.8,106.4z"/>
	</g>
	<rect x="642.8" y="83.3" class="st28" width="5.6" height="24.2"/>
</g>
</svg>
