<?xml version="1.0" encoding="utf-8"?>
<!-- Generator: Adobe Illustrator 22.1.0, SVG Export Plug-In . SVG Version: 6.00 Build 0)  -->
<svg version="1.1" id="Layer_2_1_" xmlns="http://www.w3.org/2000/svg" xmlns:xlink="http://www.w3.org/1999/xlink" x="0px" y="0px"
	 viewBox="0 0 1024 426" style="enable-background:new 0 0 1024 426;" xml:space="preserve">
<style type="text/css">
	.st0{fill:none;stroke:#DFDFDF;stroke-width:33;stroke-miterlimit:10;}
	.st1{fill:none;stroke:#6B6B6B;stroke-width:27.6952;stroke-miterlimit:10;}
	.st2{fill:none;stroke:#FFFFFF;stroke-width:4;stroke-miterlimit:10;}
	.st3{fill:none;stroke:#FFFFFF;stroke-width:4;stroke-miterlimit:10;stroke-dasharray:12.0424,12.0424;}
	.st4{fill:#DFDFDF;}
	.st5{opacity:0.3;fill:#6B6B6B;enable-background:new    ;}
	.st6{fill:#332326;}
	.st7{fill:#818181;}
	.st8{fill:none;}
	.st9{fill:#662483;}
	.st10{fill:#E6302E;}
	.st11{fill:#3B3B3B;}
	.st12{fill:#7E7E7C;}
	.st13{fill:#FFFFFF;stroke:#3C3C3C;stroke-width:2.7397;stroke-miterlimit:10;}
	.st14{fill:#FFFFFF;stroke:#3C3C3C;stroke-width:2.4665;stroke-miterlimit:10;}
	.st15{fill:#FFFFFF;stroke:#3C3C3C;stroke-width:1.7441;stroke-miterlimit:10;}
	.st16{fill:#FFFFFF;stroke:#3C3C3C;stroke-width:2.227;stroke-miterlimit:10;}
	.st17{opacity:0.1;fill:#848484;enable-background:new    ;}
	.st18{fill:#FFFFFF;stroke:#3C3C3C;stroke-width:2.0932;stroke-miterlimit:10;}
	.st19{fill:#30302E;}
	.st20{fill:#9E9E9E;}
	.st21{opacity:0.2;fill:#9E9E9E;enable-background:new    ;}
	.st22{fill:#CCB061;}
	.st23{fill:#AD210A;}
	.st24{fill:#DAEBFE;}
	.st25{fill:#FFFFFF;stroke:#3B3B3B;stroke-width:3.928;stroke-miterlimit:10;}
	.st26{fill:#3C3C3C;}
	.st27{fill:#D83058;}
	.st28{fill:#C9C9C9;}
	.st29{fill:#9E9E9D;}
</style>
<line class="st0" x1="48" y1="203.1" x2="987.2" y2="203.1"/>
<line class="st1" x1="48" y1="203.1" x2="987.2" y2="203.1"/>
<g>
	<g>
		<line class="st2" x1="48.7" y1="203.1" x2="54.7" y2="203.1"/>
		<line class="st3" x1="66.7" y1="203.1" x2="975.9" y2="203.1"/>
		<line class="st2" x1="981.9" y1="203.1" x2="987.9" y2="203.1"/>
	</g>
</g>
<g>
	<path class="st4" d="M93.6,109.7c0,10.5-8.4,19-18.8,19s-18.8-8.5-18.8-19s8.4-19,18.8-19S93.6,99.2,93.6,109.7z"/>
	<ellipse class="st4" cx="75.1" cy="143.9" rx="24.4" ry="24.4"/>
	<path class="st5" d="M54.4,141.2c0-6.6,2.7-12.5,7.1-17c-6.6,4.2-10.7,11.6-10.7,20c0,13.1,10.7,23.8,24.1,23.8
		c6.6,0,12.8-2.7,17-6.8c-3.9,2.7-8.3,4.2-13.4,4.2C65.1,165,54.4,154.3,54.4,141.2z"/>
	<path class="st5" d="M58,106.7c0-5.4,2.1-10.4,6-14c-5.4,3.6-8.9,9.5-8.9,16.4c0,10.7,8.9,19.7,20,19.7c5.4,0,10.4-2.1,14-5.7
		c-3.3,2.1-6.8,3.3-11,3.3C66.9,126.3,58,117.7,58,106.7z"/>
	<g>
		<polygon class="st6" points="70.2,186.5 74.9,106.1 79.7,186.5 		"/>
	</g>
	<g>
		<polygon class="st6" points="73.5,146 89.2,132 76.1,148.6 		"/>
	</g>
	<g>
		<polygon class="st6" points="73.8,123.3 85.1,112.6 76.1,125.4 		"/>
	</g>
	<g>
		<polygon class="st6" points="71.7,159.1 57.7,143.3 74.3,156.4 		"/>
	</g>
	<g>
		<path class="st4" d="M137.1,149.5c0,10.1-8.2,18.3-18.3,18.3s-18.3-8.2-18.3-18.3s8.2-18.3,18.3-18.3S137.1,139.4,137.1,149.5z"/>
		<path class="st7" d="M102.6,147.4c0.3-5.1,2.4-9.5,6-12.8c-5.1,3-8.6,8.6-8.6,14.9c-0.3,10.1,7.4,18.8,17.6,19.1
			c5.1,0.3,9.8-1.8,13.1-4.8c-3,1.8-6.6,2.7-10.4,2.7C110.1,165.9,102.3,157.6,102.6,147.4z"/>
	</g>
	<g>
		<g>
			<line class="st8" x1="116.6" y1="185" x2="118.4" y2="141.2"/>
			<polygon class="st6" points="114,185 118.4,141.2 119.3,185.3 			"/>
		</g>
		<g>
			<line class="st8" x1="118.1" y1="151" x2="123.8" y2="145.1"/>
			<polygon class="st6" points="117.5,150.4 123.8,145.1 118.7,151.6 			"/>
		</g>
		<g>
			<line class="st8" x1="117.5" y1="162.9" x2="107.7" y2="151.3"/>
			<polygon class="st6" points="116.3,163.8 107.7,151.3 118.7,162 			"/>
		</g>
		<g>
			<line class="st8" x1="117.5" y1="164.7" x2="129.1" y2="154.9"/>
			<polygon class="st6" points="116.9,163.8 129.1,154.9 118.1,165.3 			"/>
		</g>
	</g>
</g>
<g>
	<path class="st4" d="M965.2,90.2c10.4,0,18.8,8.5,18.8,19s-8.4,19-18.8,19s-18.8-8.5-18.8-19S954.8,90.2,965.2,90.2z"/>
	
		<ellipse transform="matrix(0.7705 -0.6375 0.6375 0.7705 130.1107 648.085)" class="st4" cx="965" cy="143.4" rx="24.4" ry="24.4"/>
	<path class="st5" d="M961.5,164.9c-5.1,0-9.5-1.5-13.4-4.2c4.2,4.2,10.4,6.8,17,6.8c13.4,0,24.1-10.7,24.1-23.8
		c0-8.3-4.2-15.8-10.7-20c4.5,4.5,7.1,10.4,7.1,17C985.6,153.8,974.9,164.6,961.5,164.9z"/>
	<path class="st5" d="M962.1,125.9c-4.2,0-7.7-1.2-11-3.3c3.6,3.6,8.6,5.7,14,5.7c11,0,20-8.9,20-19.7c0-6.8-3.6-12.8-8.9-16.4
		c3.9,3.6,6,8.6,6,14C982.1,117.2,973.1,125.9,962.1,125.9z"/>
	<g>
		<polygon class="st6" points="960.3,186 965.1,105.6 969.9,186 		"/>
	</g>
	<g>
		<polygon class="st6" points="963.9,148.2 950.8,131.5 966.6,145.5 		"/>
	</g>
	<g>
		<polygon class="st6" points="963.9,125 955,112.2 966.3,122.9 		"/>
	</g>
	<g>
		<polygon class="st6" points="965.7,155.9 982.4,142.8 968.4,158.6 		"/>
	</g>
	<g>
		<path class="st4" d="M921.2,130.8c10.1,0,18.3,8.2,18.3,18.3s-8.2,18.3-18.3,18.3s-18.3-8.2-18.3-18.3S911.1,130.8,921.2,130.8z"
			/>
		<path class="st7" d="M919.8,166.1c-3.9,0-7.4-0.9-10.4-2.7c3.3,3,8,5.1,13.1,4.8c10.1-0.3,17.9-8.9,17.6-19.1
			c0-6.3-3.6-11.9-8.6-14.9c3.6,3.3,5.7,7.7,6,12.8C937.7,157.1,930,165.5,919.8,166.1z"/>
	</g>
	<g>
		<g>
			<line class="st8" x1="921.6" y1="140.7" x2="923.4" y2="184.5"/>
			<polygon class="st6" points="920.7,184.8 921.6,140.7 926.1,184.5 			"/>
		</g>
		<g>
			<line class="st8" x1="916.3" y1="144.6" x2="921.9" y2="150.6"/>
			<polygon class="st6" points="921.3,151.2 916.3,144.6 922.5,150 			"/>
		</g>
		<g>
			<line class="st8" x1="932.3" y1="150.9" x2="922.5" y2="162.5"/>
			<polygon class="st6" points="921.3,161.6 932.3,150.9 923.7,163.4 			"/>
		</g>
		<g>
			<line class="st8" x1="910.9" y1="154.4" x2="922.5" y2="164.3"/>
			<polygon class="st6" points="921.9,164.9 910.9,154.4 923.1,163.4 			"/>
		</g>
	</g>
</g>
<path class="st4" d="M679.9,194.6H322.6c-5.1,0-9.2-4.2-9.2-9.2V33.7c0-5.1,4.2-9.2,9.2-9.2h357.3c5.1,0,9.2,4.2,9.2,9.2v151.7
	C689.1,190.5,685,194.6,679.9,194.6z"/>
<path class="st9" d="M681.2,93.6l-367.6,95.1c0,3.4,3.7,6.2,8.2,6.2h359.3c4.5,0,8.2-2.8,8.2-6.2V99.8
	C689.5,96.4,685.8,93.6,681.2,93.6z"/>
<path class="st10" d="M313.8,32.6c0-4.5,3.7-8.2,8.2-8.2h359.3c4.5,0,8.2,3.7,8.2,8.2V126"/>
<g>
	<path class="st11" d="M678.4,172.6H647c-0.6,0-1.1-0.5-1.1-1.1v-0.3c0-0.6,0.5-1.1,1.1-1.1h31.3c0.6,0,1.1,0.5,1.1,1.1v0.3
		C679.5,172.1,679,172.6,678.4,172.6z"/>
	<path class="st11" d="M678.4,177.8H647c-0.6,0-1.1-0.5-1.1-1.1v-0.3c0-0.6,0.5-1.1,1.1-1.1h31.3c0.6,0,1.1,0.5,1.1,1.1v0.3
		C679.5,177.3,679,177.8,678.4,177.8z"/>
	<path class="st11" d="M678.4,162.3H647c-0.6,0-1.1-0.5-1.1-1.1v-0.3c0-0.6,0.5-1.1,1.1-1.1h31.3c0.6,0,1.1,0.5,1.1,1.1v0.3
		C679.5,161.8,679,162.3,678.4,162.3z"/>
	<path class="st11" d="M678.4,167.5H647c-0.6,0-1.1-0.5-1.1-1.1v-0.3c0-0.6,0.5-1.1,1.1-1.1h31.3c0.6,0,1.1,0.5,1.1,1.1v0.3
		C679.5,167,679,167.5,678.4,167.5z"/>
	<path class="st11" d="M678.4,183H647c-0.6,0-1.1-0.5-1.1-1.1v-0.3c0-0.6,0.5-1.1,1.1-1.1h31.3c0.6,0,1.1,0.5,1.1,1.1v0.3
		C679.5,182.5,679,183,678.4,183z"/>
	<path class="st11" d="M678.4,188.2H647c-0.6,0-1.1-0.5-1.1-1.1v-0.3c0-0.6,0.5-1.1,1.1-1.1h31.3c0.6,0,1.1,0.5,1.1,1.1v0.3
		C679.5,187.7,679,188.2,678.4,188.2z"/>
</g>
<g>
	<rect x="396.5" y="142.2" class="st12" width="87" height="12.1"/>
	<rect x="347.9" y="110.2" class="st13" width="278.7" height="31.6"/>
	<rect x="347.9" y="110.2" class="st14" width="48.6" height="83.3"/>
	<rect x="483.5" y="110.2" class="st14" width="48.6" height="83.3"/>
	<rect x="372.2" y="110.2" class="st15" width="24.3" height="83.3"/>
	<rect x="507.8" y="110.2" class="st16" width="24.3" height="83"/>
	<polygon class="st17" points="372.2,193.6 347.9,193.6 372.2,110.2 	"/>
	<polygon class="st17" points="396.5,192.7 372.2,192.7 396.5,109.4 	"/>
	<polygon class="st17" points="483.5,139.8 396.5,139.8 483.5,109.3 	"/>
	<rect x="532.1" y="110.4" class="st18" width="64.5" height="31.6"/>
	<polygon class="st17" points="596.6,141.3 532.1,141.3 596.6,110.8 	"/>
	<polygon class="st17" points="626.5,142.2 596.6,142.2 626.5,111.7 	"/>
</g>
<g>
	<circle class="st19" cx="422.4" cy="194.5" r="17.8"/>
	<circle class="st20" cx="422.4" cy="194.5" r="11.1"/>
	<path class="st21" d="M440.2,194.5c0,9.8-8,17.8-17.8,17.8c-5.3,0-10-2.3-13.3-5.9c-2.8-3.2,23.3-27.4,26.5-23.8
		C438.5,185.8,440.2,190,440.2,194.5z"/>
</g>
<g>
	<circle class="st19" cx="585.1" cy="194.5" r="17.8"/>
	<circle class="st20" cx="585.1" cy="194.5" r="11.1"/>
	<path class="st21" d="M602.9,194.5c0,9.8-8,17.8-17.8,17.8c-5.3,0-10-2.3-13.3-5.9c-2.8-3.2,23.3-27.4,26.5-23.8
		C601.2,185.8,602.9,190,602.9,194.5z"/>
</g>
<g>
	<circle class="st19" cx="629.5" cy="193.7" r="17.8"/>
	<circle class="st20" cx="629.5" cy="193.7" r="11.1"/>
	<path class="st21" d="M647.4,193.7c0,9.8-8,17.8-17.8,17.8c-5.3,0-10-2.3-13.3-5.9c-2.8-3.2,23.3-27.4,26.5-23.8
		C645.6,185,647.4,189.2,647.4,193.7z"/>
</g>
<g>
	<circle class="st22" cx="688.4" cy="167.5" r="4.5"/>
	<circle class="st23" cx="688.3" cy="155.5" r="4.5"/>
	<circle class="st23" cx="688.3" cy="179.4" r="4.5"/>
</g>
<rect x="321.6" y="108.9" class="st24" width="25.1" height="58.8"/>
<g>
	<path class="st25" d="M662.6,96.6H331.3c-4.1,0-7.5-3-7.5-6.6V45.5c0-3.6,3.4-6.6,7.5-6.6h331.4c4.1,0,7.5,3,7.5,6.6v44.4
		c0,1.8-0.8,3.5-2.2,4.7C666.6,95.8,664.7,96.6,662.6,96.6z"/>
	<rect x="321.6" y="89.8" class="st26" width="350.6" height="8.5"/>
</g>
<rect x="394" y="39.6" class="st11" width="3.3" height="56.8"/>
<rect x="464.4" y="37.9" class="st11" width="3.3" height="56.8"/>
<rect x="531.3" y="39.3" class="st11" width="3.3" height="56.8"/>
<rect x="599" y="37.5" class="st11" width="3.3" height="56.8"/>
<g>
	<g>
		<path class="st27" d="M584.3,140.8h-2.6c-0.7,0-1.3-0.6-1.3-1.3v-15.3c0-0.7,0.6-1.3,1.3-1.3h2.6c0.7,0,1.3,0.6,1.3,1.3v15.3
			C585.6,140.2,585,140.8,584.3,140.8z"/>
		<path class="st27" d="M573.8,139.8v-3.1c0-0.6,0.5-1.1,1.1-1.1h9.6c0.6,0,1.1,0.5,1.1,1.1v3.1c0,0.6-0.5,1.1-1.1,1.1h-9.6
			C574.3,140.8,573.8,140.4,573.8,139.8z"/>
	</g>
	<rect x="583.7" y="116.7" class="st28" width="5.6" height="24.2"/>
</g>
<rect x="349.2" y="186.2" class="st29" width="22.1" height="6.1"/>
<g>
	<g>
		<path class="st27" d="M548.2,140.9h2.6c0.7,0,1.3-0.6,1.3-1.3v-15.3c0-0.7-0.6-1.3-1.3-1.3h-2.6c-0.7,0-1.3,0.6-1.3,1.3v15.3
			C546.9,140.3,547.5,140.9,548.2,140.9z"/>
		<path class="st27" d="M558.7,139.8v-3.1c0-0.6-0.5-1.1-1.1-1.1H548c-0.6,0-1.1,0.5-1.1,1.1v3.1c0,0.6,0.5,1.1,1.1,1.1h9.6
			C558.2,140.9,558.7,140.4,558.7,139.8z"/>
	</g>
	<rect x="543.2" y="116.7" class="st28" width="5.6" height="24.2"/>
</g>
<g>
	<g>
		<path class="st27" d="M617.9,140.9h-2.6c-0.7,0-1.3-0.6-1.3-1.3v-15.3c0-0.7,0.6-1.3,1.3-1.3h2.6c0.7,0,1.3,0.6,1.3,1.3v15.3
			C619.3,140.3,618.7,140.9,617.9,140.9z"/>
		<path class="st27" d="M607.5,139.8v-3.1c0-0.6,0.5-1.1,1.1-1.1h9.6c0.6,0,1.1,0.5,1.1,1.1v3.1c0,0.6-0.5,1.1-1.1,1.1h-9.6
			C608,140.9,607.5,140.4,607.5,139.8z"/>
	</g>
	<rect x="617.4" y="116.8" class="st28" width="5.6" height="24.2"/>
</g>
<rect x="373.1" y="186.2" class="st29" width="22.5" height="6.5"/>
<rect x="484.7" y="185.8" class="st29" width="22" height="6.5"/>
<rect x="509" y="185.8" class="st29" width="22" height="6.5"/>
<g>
	<g>
		<path class="st27" d="M463,140.4h-2.6c-0.7,0-1.3-0.6-1.3-1.3v-15.3c0-0.7,0.6-1.3,1.3-1.3h2.6c0.7,0,1.3,0.6,1.3,1.3v15.3
			C464.3,139.8,463.7,140.4,463,140.4z"/>
		<path class="st27" d="M452.5,139.4v-3.1c0-0.6,0.5-1.1,1.1-1.1h9.6c0.6,0,1.1,0.5,1.1,1.1v3.1c0,0.6-0.5,1.1-1.1,1.1h-9.6
			C453,140.4,452.5,139.9,452.5,139.4z"/>
	</g>
	<rect x="462.4" y="116.3" class="st28" width="5.6" height="24.2"/>
</g>
<g>
	<g>
		<path class="st27" d="M426.9,140.5h2.6c0.7,0,1.3-0.6,1.3-1.3v-15.3c0-0.7-0.6-1.3-1.3-1.3h-2.6c-0.7,0-1.3,0.6-1.3,1.3v15.3
			C425.6,139.9,426.2,140.5,426.9,140.5z"/>
		<path class="st27" d="M437.4,139.4v-3.1c0-0.6-0.5-1.1-1.1-1.1h-9.6c-0.6,0-1.1,0.5-1.1,1.1v3.1c0,0.6,0.5,1.1,1.1,1.1h9.6
			C436.9,140.5,437.4,140,437.4,139.4z"/>
	</g>
	<rect x="421.9" y="116.4" class="st28" width="5.6" height="24.2"/>
</g>
<g>
	<g>
		<path class="st27" d="M366.3,89.4h-2.6c-0.7,0-1.3-0.6-1.3-1.3V72.8c0-0.7,0.6-1.3,1.3-1.3h2.6c0.7,0,1.3,0.6,1.3,1.3v15.3
			C367.6,88.8,367,89.4,366.3,89.4z"/>
		<path class="st27" d="M355.8,88.4v-3.1c0-0.6,0.5-1.1,1.1-1.1h9.6c0.6,0,1.1,0.5,1.1,1.1v3.1c0,0.6-0.5,1.1-1.1,1.1h-9.6
			C356.3,89.4,355.8,88.9,355.8,88.4z"/>
	</g>
	<rect x="365.7" y="65.3" class="st28" width="5.6" height="24.2"/>
</g>
<g>
	<g>
		<path class="st27" d="M436.2,89.4h-2.6c-0.7,0-1.3-0.6-1.3-1.3V72.8c0-0.7,0.6-1.3,1.3-1.3h2.6c0.7,0,1.3,0.6,1.3,1.3v15.3
			C437.5,88.8,437,89.4,436.2,89.4z"/>
		<path class="st27" d="M425.8,88.4v-3.1c0-0.6,0.5-1.1,1.1-1.1h9.6c0.6,0,1.1,0.5,1.1,1.1v3.1c0,0.6-0.5,1.1-1.1,1.1h-9.6
			C426.2,89.4,425.8,88.9,425.8,88.4z"/>
	</g>
	<rect x="435.6" y="65.3" class="st28" width="5.6" height="24.2"/>
</g>
<g>
	<g>
		<path class="st27" d="M509,89.4h-2.6c-0.7,0-1.3-0.6-1.3-1.3V72.8c0-0.7,0.6-1.3,1.3-1.3h2.6c0.7,0,1.3,0.6,1.3,1.3v15.3
			C510.3,88.8,509.8,89.4,509,89.4z"/>
		<path class="st27" d="M498.5,88.4v-3.1c0-0.6,0.5-1.1,1.1-1.1h9.6c0.6,0,1.1,0.5,1.1,1.1v3.1c0,0.6-0.5,1.1-1.1,1.1h-9.6
			C499,89.4,498.5,88.9,498.5,88.4z"/>
	</g>
	<rect x="508.4" y="65.3" class="st28" width="5.6" height="24.2"/>
</g>
<g>
	<g>
		<path class="st27" d="M570,89.4h-2.6c-0.7,0-1.3-0.6-1.3-1.3V72.8c0-0.7,0.6-1.3,1.3-1.3h2.6c0.7,0,1.3,0.6,1.3,1.3v15.3
			C571.3,88.8,570.8,89.4,570,89.4z"/>
		<path class="st27" d="M559.5,88.4v-3.1c0-0.6,0.5-1.1,1.1-1.1h9.6c0.6,0,1.1,0.5,1.1,1.1v3.1c0,0.6-0.5,1.1-1.1,1.1h-9.6
			C560,89.4,559.5,88.9,559.5,88.4z"/>
	</g>
	<rect x="569.4" y="65.3" class="st28" width="5.6" height="24.2"/>
</g>
<g>
	<g>
		<path class="st27" d="M643.3,89.4h-2.6c-0.7,0-1.3-0.6-1.3-1.3V72.8c0-0.7,0.6-1.3,1.3-1.3h2.6c0.7,0,1.3,0.6,1.3,1.3v15.3
			C644.6,88.8,644,89.4,643.3,89.4z"/>
		<path class="st27" d="M632.8,88.4v-3.1c0-0.6,0.5-1.1,1.1-1.1h9.6c0.6,0,1.1,0.5,1.1,1.1v3.1c0,0.6-0.5,1.1-1.1,1.1h-9.6
			C633.3,89.4,632.8,88.9,632.8,88.4z"/>
	</g>
	<rect x="642.8" y="65.3" class="st28" width="5.6" height="24.2"/>
</g>
</svg>
