<?xml version="1.0" encoding="utf-8"?>
<!-- Generator: Adobe Illustrator 22.1.0, SVG Export Plug-In . SVG Version: 6.00 Build 0)  -->
<svg version="1.1" xmlns="http://www.w3.org/2000/svg" xmlns:xlink="http://www.w3.org/1999/xlink" x="0px" y="0px"
	 viewBox="0 0 50 100" style="enable-background:new 0 0 50 100;" xml:space="preserve">
<style type="text/css">
	.st0{display:none;}
	.st1{display:inline;fill:#2F2E41;}
	.st2{display:inline;fill:#FFB8B8;}
	.st3{display:inline;opacity:0.1;enable-background:new    ;}
	.st4{display:inline;fill:#E20817;}
	.st5{display:inline;}
	.st6{fill:#FFB8B8;}
	.st7{fill:#2F2E41;}
	.st8{fill:#CCCCCC;}
	.st9{fill:#E20817;}
</style>
<g id="Layer_1" class="st0">
	<path class="st1" d="M31.9,22.1c-1.3-3.1-4.6-3.6-4.6-3.6s-3.2-0.8-5.8,3.2c-2.5,3.8-5.7,7.3-1.6,8.8l1.1-2.2l0.1,2.6
		c0.6,0.1,1.2,0.2,1.8,0.3c4.5,0.5,8.7,1.2,8.8-0.4C31.7,28.5,33.1,25.1,31.9,22.1z"/>
	<path class="st2" d="M18.2,46.6L17.9,54c0,0-3,5.9-0.6,5.8c2.5-0.1,2.2-5.8,2.2-5.8l0.9-6.9L18.2,46.6z"/>
	<path class="st2" d="M34.8,45.3l0.9,7.4c0,0,2.6,3.9,0.6,5.2c-2,1.3-2-4.6-2-4.6L32,45.8L34.8,45.3z"/>
	<path class="st2" d="M31.7,59.1l-2.6,10.1c0,0-1.2,4-2.7,6.1l-0.6,1.2l-2.3-0.3l1.6-6.5l1-12L31.7,59.1z"/>
	<path class="st3" d="M31.7,59.1l-2.6,10.1c0,0-1.2,4-2.7,6.1l-0.6,1.2l-2.3-0.3l1.6-6.5l1-12L31.7,59.1z"/>
	<path class="st1" d="M22.9,74.5l4,0.9l-1.6,3.8c0,0,0.7,2.3,0,3.5c-0.6,1.2-0.5,3.4-0.5,3.4l-0.9-0.1c0,0-2.1,3.9-4.5,2.8
		c-2.5-1.1,0.2-3.8,0.2-3.8s2.1-4.2,2.4-5.9S22.9,74.5,22.9,74.5z"/>
	<path class="st3" d="M22.9,74.5l4,0.9l-1.6,3.8c0,0,0.7,2.3,0,3.5c-0.6,1.2-0.5,3.4-0.5,3.4l-0.9-0.1c0,0-2.1,3.9-4.5,2.8
		c-2.5-1.1,0.2-3.8,0.2-3.8s2.1-4.2,2.4-5.9S22.9,74.5,22.9,74.5z"/>
	<path class="st2" d="M19.6,56.9l2.2,10.8c0,0-0.7,5.3,0.1,8.7l0.9,3.2h2.9V67.9c0,0,0.1-9.5-0.3-10.3C25,56.9,19.6,56.9,19.6,56.9z
		"/>
	<path class="st1" d="M26.3,78.4l-4,0.3l1,4c0,0-1,2.2-0.6,3.5c0.4,1.3,0,3.5,0,3.5h0.9c0,0,1.4,4.2,4,3.5s0.4-3.8,0.4-3.8
		s-1.4-4.5-1.4-6.2S26.3,78.4,26.3,78.4z"/>
	<circle class="st2" cx="27.3" cy="24.5" r="3.9"/>
	
		<image style="display:inline;overflow:visible;" width="6" height="6" xlink:href="B88F5935C014FE7A.png"  transform="matrix(1 0 0 1 23 26)">
	</image>
	<path class="st4" d="M28.6,30.5c0,0-3.8-0.3-4.5,0c-0.7,0.3-2.7,1.7-2.7,1.7l1,9.1l8.2,1.7l1.3-1.9l1.3-2.7l-0.6-3.5l-0.1-2
		L28.6,30.5z"/>
	<path class="st4" d="M20.6,32.8c0,0-1.9,0.4-2,1.9c-0.1,1.4-0.1,5.1,0,5.6c0.1,0.6,0,0.9-0.1,1s-0.4-0.1-0.1,0.3
		c0.3,0.4,0.3,0.4,0.1,0.9s-0.6-0.1-0.3,0.6c0.3,0.7,0.4,0.9,0.3,1c-0.1,0.1-0.6,3.5-0.6,3.5l2.5,0.4l2.5-8.5L20.6,32.8z"/>
	<path class="st4" d="M31.9,32.8c0.6,0,1.1,0.4,1.3,0.9c0.4,0.9,1.6,6.5,1.4,6.9s-0.4-0.1-0.1,0.7c0.3,0.9,0,0.7,0.1,1.3
		c0.1,0.6-0.6,0,0,0.6c0.6,0.6,0.9,0.7,0.6,1c-0.3,0.3-0.7-0.3-0.3,0.3c0.4,0.6,0.4,1.4,0.4,1.4l-3.5,0.7l-1-8.1L31.9,32.8z"/>
	<path class="st1" d="M20.2,32.5l0.7-0.4c0.3-0.2,0.7,0,0.8,0.3c0,0,0,0,0,0l3.3,6.7l3.6,2.3l2.6-1.2c0,0,1.9-2.9,1.3-4.3
		c-0.4-1-0.9-2.5-1.1-3.4c0-0.1,0-0.3,0.2-0.3c0.1,0,0.2,0,0.2,0l0.5,0.3c0.2,0.1,0.3,0.3,0.3,0.5l1.1,5.2l-1.4,3v2.9l1,15.6
		c0,0-3.8-0.6-7.5-1.3s-8.5-1.3-8.5-1.3s2.5-12.7,4.5-14.9c0,0,0-1.6,0.3-1.7c0.3-0.1,0.6-1.2,0.6-1.2l-2.6-6.1
		C19.8,33,19.9,32.7,20.2,32.5z"/>
	<polygon class="st1" points="31.1,21 27.8,19.3 23.2,20 22.3,24.2 24.7,24.1 25.3,22.5 25.3,24 26.4,24 27,21.6 27.4,24.2 
		31.3,24.1 	"/>
	<ellipse class="st2" cx="23.3" cy="24.5" rx="0.4" ry="0.8"/>
	<g class="st5">
		<polygon class="st6" points="2.5,87.4 0.3,87.4 0,78.9 2.5,78.9 		"/>
		<path class="st7" d="M3.1,89.5l-7.1,0v-0.1c0-1.5,1.2-2.8,2.8-2.8c0,0,0,0,0,0h0l4.3,0L3.1,89.5z"/>
		<polygon class="st6" points="14.9,87.4 17,87.4 17.4,78.9 14.9,78.9 		"/>
		<path class="st7" d="M14.3,86.7l4.3,0h0c1.5,0,2.8,1.2,2.8,2.8c0,0,0,0,0,0v0.1l-7.1,0L14.3,86.7z"/>
		<path class="st7" d="M14.9,86.3c-0.4,0-0.7-0.3-0.8-0.6L8.7,62c0-0.1-0.1-0.2-0.3-0.2h0c-0.1,0-0.2,0.1-0.3,0.2l-5,23.5
			c-0.1,0.4-0.4,0.6-0.8,0.6H0c-0.4,0-0.8-0.4-0.8-0.8c0,0,0,0,0,0L1,55.5l0.7-0.2l0,0l14,0.1l3,29.8c0,0.4-0.3,0.8-0.7,0.9
			c0,0,0,0,0,0L14.9,86.3C15,86.3,14.9,86.3,14.9,86.3z"/>
		<circle class="st6" cx="9.1" cy="23.5" r="4.4"/>
		<path class="st8" d="M6.4,58.7c-0.8,0-1.5-0.1-2.3-0.3c-1.3-0.4-2.4-1.3-3-2.6C1,55.7,1,55.4,1.1,55.2C1.5,53.6,3.9,45,2.4,38.2
			c-0.4-1.9-0.1-3.9,1-5.6c1.1-1.6,2.7-2.8,4.6-3.1l0,0c0.2,0,0.5-0.1,0.7-0.1c2.1-0.3,4.2,0.4,5.8,1.9c1.6,1.5,2.4,3.6,2.3,5.8
			l-1.1,18.4c0,0.3-0.2,0.5-0.4,0.7C14,56.8,10,58.7,6.4,58.7z"/>
		<path class="st6" d="M2.1,55.7C3,55.2,3.4,54.1,3,53.1c-0.1-0.1-0.1-0.2-0.2-0.3l1.4-14H1.1L0,52.5c-0.8,0.7-0.9,1.9-0.2,2.7
			C0.3,55.9,1.3,56.1,2.1,55.7z"/>
		<path class="st8" d="M4.4,32.1L4.4,32.1c1.3,0.3,2.1,1.4,2,2.7L6,40.9c0,0.4-0.4,0.7-0.8,0.7c-0.1,0-0.1,0-0.2,0L0,40
			c-0.4-0.1-0.6-0.5-0.5-0.9c0,0,0,0,0,0l2.1-5.3C2,32.6,3.2,31.9,4.4,32.1z"/>
		<path class="st7" d="M14.1,20.3c-0.9-2.4-3.4-3.7-5.9-3.3l1.4,1.1C7.9,18.2,6,18,4.8,19.2c0.4,0,0.9,0.8,1.3,0.8
			c-0.7,0-1.4,0.5-1.7,1.2c-0.3,0.7-0.4,1.4-0.2,2.1c0.1,0.7,1.2,2.4,1.5,3.1c-0.1-1.7,3.4-5.9,5.1-5.5c-0.9,0.3-1.6,0.9-2.1,1.6
			c1.1-0.6,2.4-0.8,3.7-0.6c0.3,0.1,0.6,0.1,0.9,0c0.6-0.1,1-0.7,0.8-1.3c0-0.2-0.1-0.3-0.2-0.5L14.1,20.3z"/>
		<path class="st6" d="M8.6,47.9c0.1,0,0.2,0,0.3,0.1l6.7-5.8l-0.4-2.1l3.1-1l1.1,3.7c0.2,0.6-0.1,1.3-0.6,1.6l-8.5,5.4
			c0,1-0.8,1.9-1.8,1.9c-1,0-1.9-0.8-1.9-1.8c0-1,0.8-1.9,1.8-1.9C8.4,47.9,8.5,47.9,8.6,47.9z"/>
		<path class="st8" d="M14.4,32.4L14.4,32.4c1.3-0.3,2.5,0.4,2.9,1.7l2,5.8c0.1,0.4-0.1,0.8-0.4,0.9c-0.1,0-0.1,0-0.2,0l-5.4,0.6
			c-0.4,0-0.7-0.2-0.8-0.6c0,0,0,0,0-0.1L12.3,35C12.3,33.7,13.1,32.6,14.4,32.4z"/>
	</g>
	<g class="st5">
		<path class="st6" d="M-43.4,25.3c0.1,1.3,0,2.7-0.2,4c0,0-1.6,3.5,0.2,5.1s5.1-4.7,5.1-4.7c-0.2-1.4-0.4-2.7,0-3.5L-43.4,25.3z"/>
		<path class="st6" d="M-41,68.8v4.9c0,0-0.7,9.1,0,11.3l-0.2,4.2h2.4l0.7-5.1c0,0,2-6.4,1.3-10.4l0.4-4.9H-41z"/>
		<path class="st6" d="M-44.5,68.8v4.9c0,0,0.7,9.1,0,11.3l0.2,4.2h-2.4l-0.7-5.1c0,0-2-6.4-1.3-10.4l-0.4-4.9H-44.5z"/>
		<path class="st7" d="M-50.2,50.5c0,0-1.3,8.4-0.4,13.3c0.9,4.9,0.9,6.4,0.9,6.4l5.5-0.2l1.6-9.1l1.3,9.3l6.7-1.1
			c0,0,0-7.1,0.2-8.7c0.2-1.6,0.2-10.4,0.2-10.4L-50.2,50.5z"/>
		<path class="st7" d="M-38.3,89.2c0,0-2.4-1.6-3.5,0v2.7c0,0-0.9,2,2.2,1.6c3.1-0.4,2-2,2-2L-38.3,89.2z"/>
		<path class="st7" d="M-47.2,89.2c0,0,2.4-1.6,3.5,0v2.7c0,0,0.9,2-2.2,1.6c-3.1-0.4-2-2-2-2L-47.2,89.2z"/>
		<circle class="st6" cx="-40.5" cy="24" r="3.5"/>
		<path class="st9" d="M-42.1,32.4l-1.5-3.6l-1.6,0.7l-2,11.5l0.2,11.1c0,0,10.2-0.4,11.5,0.2S-37,30.7-37,30.7l-1.3-1.7L-42.1,32.4
			z"/>
		<path class="st7" d="M-43.4,27.5c0,0-3.4,0.9-3.4,2.2c0,0-3.3,0.7-3.3,1.3c0,0.7-0.2,17.5-0.2,17.5s-2,3.8-0.4,6.9l-0.2,1.8
			l4.4,0.4l3.1-27.3L-43.4,27.5z"/>
		<path class="st7" d="M-38.6,27.5c0,0,3.4,0.9,3.4,2.2c0,0,3.3,0.7,3.3,1.3c0,0.7,0.2,17.5,0.2,17.5s2,3.8,0.4,6.9l0.2,1.8
			l-4.4,0.4l-3.1-27.3L-38.6,27.5z"/>
		<path class="st7" d="M-37.6,19.3c0,0,0.2-0.9-0.9-0.4c0,0-1.3-1.6-2.7-0.4c0,0-2.7-0.4-2.7,1.8s-0.1,3-0.1,3s0.8-2.1,2.3-1.8
			c0.9,0.1,1.5,0,1.8-0.1c0.3-0.1,0.6-0.1,0.9,0c0.4,0.1,0.7,0.4,0.9,0.8c0.1,0.3,0.3,0.6,0.5,0.9c0.3,0.4,0.5,0.8,0.6,1.2l0,0
			l0.4-2.6c0,0,0.2-1.3-0.4-1.8C-37,19.8-36.8,19.1-37.6,19.3z"/>
		<path class="st6" d="M-54.2,54.3c0,0-1.3,5.1,0.7,4.7c2-0.4,1.6-4.9,1.6-4.9L-54.2,54.3z"/>
		<path class="st6" d="M-27.8,54.3c0,0,1.3,5.1-0.7,4.7c-2-0.4-1.6-4.9-1.6-4.9L-27.8,54.3z"/>
		<path class="st7" d="M-49,31.1l-0.6-0.5c0,0-0.7,0-0.9,0.5c-0.2,0.4-3.8,11.5-3.8,11.5s-1.1,5.8-0.4,9.3l0.2,2.7h3.1l-0.2-4.2
			l2.2-8.4L-49,31.1z"/>
		<path class="st7" d="M-33,31.1l0.6-0.5c0,0,0.7,0,0.9,0.5s3.8,11.5,3.8,11.5s1.1,5.8,0.4,9.3l-0.2,2.7h-3.1l0.2-4.2l-2.2-8.4
			L-33,31.1z"/>
	</g>
</g>
<g id="Layer_2">
	<polygon class="st6" points="18.5,92.1 16,92.1 15.7,82.8 18.5,82.8 	"/>
	<path class="st7" d="M19.1,94.5l-7.8,0v-0.1c0-1.7,1.4-3.1,3.1-3.1c0,0,0,0,0,0h0l4.8,0L19.1,94.5z"/>
	<polygon class="st6" points="32.1,92.1 34.6,92.1 34.9,82.8 32.1,82.8 	"/>
	<path class="st7" d="M31.5,91.4l4.8,0h0c1.7,0,3.1,1.4,3.1,3.1c0,0,0,0,0,0v0.1l-7.8,0L31.5,91.4z"/>
	<path class="st7" d="M32.2,90.9c-0.4,0-0.8-0.3-0.9-0.7l-6-26.3c0-0.1-0.1-0.2-0.3-0.2h0c-0.1,0-0.3,0.1-0.3,0.2l-5.5,26.1
		c-0.1,0.4-0.5,0.7-0.9,0.7h-2.6c-0.5,0-0.9-0.4-0.9-0.9c0,0,0,0,0-0.1l2-33.1l0.8-0.2l0,0l15.5,0.1l3.3,33.1c0,0.5-0.3,0.9-0.8,1
		c0,0,0,0,0,0L32.2,90.9C32.3,90.9,32.2,90.9,32.2,90.9z"/>
	<circle class="st6" cx="25.8" cy="21.4" r="4.9"/>
	<path class="st9" d="M22.8,60.4c-0.9,0-1.7-0.1-2.5-0.4c-1.5-0.4-2.7-1.5-3.4-2.9c-0.1-0.2-0.1-0.4-0.1-0.7
		c0.5-1.8,3.1-11.4,1.5-18.9c-0.5-2.1-0.1-4.4,1.1-6.2c1.2-1.8,3-3.1,5.1-3.5l0,0c0.3-0.1,0.6-0.1,0.8-0.1c2.3-0.3,4.7,0.5,6.4,2.1
		c1.8,1.7,2.7,4,2.5,6.4l-1.3,20.4c0,0.3-0.2,0.6-0.5,0.7C31.2,58.3,26.8,60.4,22.8,60.4z"/>
	<path class="st6" d="M18,57c1.1-0.5,1.5-1.8,1-2.9c-0.1-0.1-0.1-0.2-0.2-0.3l1.6-15.6h-3.4l-1.3,15.2c-0.9,0.8-1,2.1-0.2,3
		C16,57.2,17.1,57.5,18,57z"/>
	<path class="st9" d="M20.6,30.9L20.6,30.9c1.4,0.3,2.4,1.5,2.3,3l-0.5,6.8c0,0.4-0.4,0.8-0.8,0.7c-0.1,0-0.1,0-0.2,0l-5.7-1.7
		c-0.4-0.1-0.7-0.6-0.5-1c0,0,0,0,0-0.1l2.3-5.9C17.9,31.4,19.2,30.6,20.6,30.9z"/>
	<path class="st7" d="M31.3,17.8c-1-2.6-3.8-4.2-6.6-3.7l1.5,1.2c-1.9,0.1-3.9-0.1-5.3,1.3c0.4,0,1,0.9,1.4,0.9
		c-0.8,0-1.5,0.6-1.9,1.3c-0.3,0.7-0.4,1.6-0.2,2.4c0.2,0.8,1.4,2.7,1.7,3.4c-0.1-1.9,3.8-6.6,5.6-6.1c-0.9,0.4-1.8,1-2.4,1.8
		c1.3-0.6,2.7-0.9,4.1-0.7c0.3,0.1,0.7,0.1,1,0.1c0.6-0.1,1.1-0.8,0.9-1.4c0-0.2-0.1-0.4-0.2-0.5L31.3,17.8z"/>
	<path class="st6" d="M25.2,48.4c0.1,0,0.2,0,0.3,0.1L33,42l-0.4-2.3l3.5-1.1l1.2,4.1c0.2,0.7-0.1,1.4-0.7,1.8l-9.5,6
		c0,1.1-0.9,2.1-2,2.1c-1.1,0-2.1-0.9-2.1-2c0-1.1,0.9-2.1,2-2.1C25,48.4,25.1,48.4,25.2,48.4z"/>
	<path class="st9" d="M31.6,31.1L31.6,31.1c1.4-0.3,2.8,0.5,3.2,1.8l2.2,6.4c0.1,0.4-0.1,0.9-0.5,1c-0.1,0-0.1,0-0.2,0l-5.9,0.6
		c-0.4,0-0.8-0.3-0.9-0.7c0,0,0,0,0-0.1L29.4,34C29.3,32.6,30.3,31.4,31.6,31.1z"/>
</g>
</svg>
