<?xml version="1.0" encoding="utf-8"?>
<!-- Generator: Adobe Illustrator 22.1.0, SVG Export Plug-In . SVG Version: 6.00 Build 0)  -->
<svg version="1.1" id="Layer_1" xmlns="http://www.w3.org/2000/svg" xmlns:xlink="http://www.w3.org/1999/xlink" x="0px" y="0px"
	 viewBox="0 0 50 100" style="enable-background:new 0 0 50 100;" xml:space="preserve">
<style type="text/css">
	.st0{opacity:0.5;fill:#6D0519;}
	.st1{fill:#A0616A;}
	.st2{fill:#2F2E41;}
	.st3{fill:#B7808B;}
	.st4{fill:#E20817;}
</style>
<ellipse class="st0" cx="24.3" cy="91" rx="15.4" ry="1.3"/>
<polygon class="st1" points="20.8,79.8 19.8,82 18,81.8 16.8,78 18.7,77 "/>
<polygon class="st1" points="27.1,84.8 27.2,86.3 24.3,86.5 24.3,84.6 "/>
<polygon class="st2" points="26.2,57.3 25.5,70.7 27.2,85.1 22.2,85.8 19,67.5 18,55 "/>
<path class="st2" d="M34,52.5c0,0,2,13.2-2.2,17.5C27.7,74.3,22,82,22,82l-4-5l10.2-10.8l-2-7.3L18,55l1.3-9.2l12-0.2L34,52.5z"/>
<circle class="st3" cx="24.2" cy="18.4" r="3.7"/>
<path class="st3" d="M27.3,19.2c0,0,0.2,5.2,1,5.8c0.8,0.7-3,3.5-3,3.5l-2.5-4v-3.7L27.3,19.2z"/>
<polygon class="st4" points="25.7,26.2 27.7,23.1 28.8,24.7 30.5,29.4 29.2,47.5 21.3,47.7 20.3,26.9 22.8,23.9 "/>
<path class="st2" d="M17.2,27.4l-1.3-0.2c0,0-0.3,0.2-0.5,1.3C15.2,29.7,13.2,40,13.2,40l2.7,12.7l3-4l-1.8-7l1.8-7L17.2,27.4z"/>
<polygon class="st2" points="34.2,27.2 35.2,27.2 37.7,40.7 35.3,51.2 33,47.3 33.7,43.2 33.3,39.5 32.2,37.4 "/>
<path class="st2" d="M19.3,81.3c0,0,1-0.3,1,0.3c0,0.7-0.7,2.7-0.7,2.7s1,6.2-0.5,5.8s-2.7-3.2-2.8-4s-1-5.2-1-5.2s-1.3-3.2-0.5-3.3
	c0.8-0.2,3.2-0.8,3.2-0.8S16.7,81,19.3,81.3z"/>
<path class="st2" d="M24.2,86.5c0,0,2.7-1.7,3.2-0.3c0.3,1,0.6,2,0.7,3c0,0,0.7,2.2-2,1.8s-2.3-0.3-2.5-1.3
	C23.3,88.6,24.2,86.5,24.2,86.5z"/>
<path class="st2" d="M26.3,18.4l-0.7-0.2c0,0-0.5-2.8-1.7-2.5s-4.2,0.7-4.2-0.7s2.8-2.5,4.5-2.3s4.5,0.7,4.3,3.2s-1.2,4.9-1.2,4.9
	l-0.1-1.5L26.3,18.4z"/>
<polygon class="st4" points="22.8,28.2 25.7,26.2 22.8,23.9 21.9,25 "/>
<polygon class="st4" points="28.2,28 25.7,26.2 27.7,23.2 28.8,24.7 "/>
<path class="st2" d="M16,27.2l5.3-2.2l1.2-0.9l3.7,16.6l2.5-7.5L28,23.6l6.9,3.6l-2.3,11.3l-0.3,4.3l1,3.5c0,0,3.5,2.5,2.3,5.2
	s-2.5,2.8-2.5,2.8s-5.7-5.3-6-6.7c-0.3-1.3-0.8-3.7-0.8-3.7s-2.8,10.7-6.2,10.5c-3.3-0.2-3.3-3.7-3.3-3.7l0.8-3.7l1.3-3.8L18.3,37
	L16,27.2z"/>
</svg>
