<?xml version="1.0" encoding="utf-8"?>
<!-- Generator: Adobe Illustrator 22.1.0, SVG Export Plug-In . SVG Version: 6.00 Build 0)  -->
<svg version="1.1" id="Layer_2_1_" xmlns="http://www.w3.org/2000/svg" xmlns:xlink="http://www.w3.org/1999/xlink" x="0px" y="0px"
	 viewBox="0 0 1024 388" style="enable-background:new 0 0 1024 388;" xml:space="preserve">
<style type="text/css">
	.st0{fill:#747F83;}
	.st1{fill:#EAEAEA;}
	.st2{fill:#9BACAC;}
	.st3{fill:#9CABAC;}
	.st4{fill:#0E1F25;}
	.st5{fill:#C73F43;}
	.st6{opacity:0.2;fill:#CBD5D4;enable-background:new    ;}
	.st7{fill:#E8E8E6;}
	.st8{fill:#FFFFFF;}
	.st9{fill:#FFFFFF;stroke:#747F83;stroke-width:18;stroke-miterlimit:10;}
</style>
<polyline class="st0" points="35,209.3 59.9,234.2 98.2,234.2 124.4,208 "/>
<g>
	<path class="st1" d="M338,187.9H54.9c-11,0-20-9-20-20V118c0-11,9-20,20-20H338c11,0,20,9,20,20v49.9
		C358,178.9,349,187.9,338,187.9z"/>
	<rect x="276.2" y="147.5" class="st2" width="81.8" height="31.6"/>
	<path class="st3" d="M338,194.7H54.9c-11,0-20-9-20-20v-7.2c0-11,9-20,20-20H338c11,0,20,9,20,20v7.2
		C358,185.8,349,194.7,338,194.7z"/>
	<rect x="34.9" y="116.7" class="st4" width="29.1" height="40.6"/>
	<rect x="71.6" y="116.7" class="st5" width="90.7" height="54.4"/>
	<rect x="34.9" y="157.3" class="st5" width="29.1" height="13.9"/>
	<rect x="169.1" y="116.7" class="st4" width="90.7" height="40.5"/>
	<rect x="267.3" y="116.7" class="st4" width="81.8" height="40.6"/>
	<rect x="71.6" y="116.7" class="st4" width="90.7" height="40.6"/>
	<rect x="169.1" y="157.2" class="st5" width="90.7" height="13.9"/>
	<rect x="267.3" y="157.2" class="st5" width="81.8" height="13.9"/>
</g>
<g>
	<path class="st1" d="M704,185.5h283.1c11,0,20-9,20-20v-49.9c0-11-9-20-20-20H704c-11,0-20,9-20,20v49.9
		C684,176.5,693,185.5,704,185.5z"/>
	<rect x="684" y="145.1" class="st2" width="81.8" height="31.6"/>
	<path class="st3" d="M704,192.3h283.1c11,0,20-9,20-20v-7.2c0-11-9-20-20-20H704c-11,0-20,9-20,20v7.2
		C684,183.3,693,192.3,704,192.3z"/>
	<rect x="978" y="114.2" class="st4" width="29.1" height="40.6"/>
	<rect x="879.6" y="114.3" class="st5" width="90.7" height="54.4"/>
	<rect x="978" y="154.8" class="st5" width="29.1" height="13.9"/>
	<rect x="782.2" y="114.3" class="st4" width="90.7" height="40.5"/>
	<rect x="692.9" y="114.2" class="st4" width="81.8" height="40.6"/>
	<rect x="879.6" y="114.2" class="st4" width="90.7" height="40.6"/>
	<rect x="782.2" y="154.8" class="st5" width="90.7" height="13.9"/>
	<rect x="692.9" y="154.8" class="st5" width="81.8" height="13.9"/>
</g>
<g>
	<path class="st1" d="M385.9,187.5H652c11,0,20-9,20-20v-49.9c0-11-9-20-20-20H385.9c-11,0-20,9-20,20v49.9
		C365.9,178.5,374.8,187.5,385.9,187.5z"/>
	<rect x="365.8" y="147.1" class="st2" width="81.8" height="31.6"/>
	<path class="st3" d="M385.9,194.3H652c11,0,20-9,20-20v-7.2c0-11-9-20-20-20H385.9c-11,0-20,9-20,20v7.2
		C365.9,185.3,374.8,194.3,385.9,194.3z"/>
	<rect x="569.2" y="116.3" class="st5" width="90.7" height="54.4"/>
	<rect x="471.7" y="116.3" class="st4" width="90.7" height="40.5"/>
	<rect x="382.4" y="116.2" class="st4" width="81.8" height="40.6"/>
	<rect x="569.2" y="116.2" class="st4" width="90.7" height="40.6"/>
	<rect x="471.7" y="156.8" class="st5" width="90.7" height="13.9"/>
	<rect x="382.4" y="156.8" class="st5" width="81.8" height="13.9"/>
	<rect x="659.8" y="147" class="st3" width="12.1" height="28.6"/>
</g>
<g>
	<path class="st0" d="M151.8,147.5h-42.2c-1.1,0-2-0.9-2-2v-17c0-1.1,0.9-2,2-2h42.2c1.1,0,2,0.9,2,2v17
		C153.8,146.7,152.9,147.5,151.8,147.5z"/>
	<path class="st6" d="M151.8,147.5h-42.2c-1.1,0-2-0.9-2-2l44.2-19c1.1,0,2,0.9,2,2v17C153.8,146.7,152.9,147.5,151.8,147.5z"/>
</g>
<g>
	<path class="st0" d="M250.9,147.5h-42.2c-1.1,0-2-0.9-2-2v-17c0-1.1,0.9-2,2-2h42.2c1.1,0,2,0.9,2,2v17
		C252.9,146.6,252.1,147.5,250.9,147.5z"/>
	<path class="st6" d="M250.9,147.5h-42.2c-1.1,0-2-0.9-2-2l44.2-19c1.1,0,2,0.9,2,2v17C252.9,146.6,252.1,147.5,250.9,147.5z"/>
</g>
<g>
	<path class="st0" d="M339.6,147.5h-42.2c-1.1,0-2-0.9-2-2v-17c0-1.1,0.9-2,2-2h42.2c1.1,0,2,0.9,2,2v17
		C341.6,146.6,340.7,147.5,339.6,147.5z"/>
	<path class="st6" d="M339.6,147.5h-42.2c-1.1,0-2-0.9-2-2l44.2-19c1.1,0,2,0.9,2,2v17C341.6,146.6,340.7,147.5,339.6,147.5z"/>
</g>
<g>
	<path class="st0" d="M554.7,147h-42.2c-1.1,0-2-0.9-2-2v-17c0-1.1,0.9-2,2-2h42.2c1.1,0,2,0.9,2,2v17
		C556.7,146.1,555.8,147,554.7,147z"/>
	<path class="st6" d="M554.7,147h-42.2c-1.1,0-2-0.9-2-2l44.2-19c1.1,0,2,0.9,2,2v17C556.7,146.1,555.8,147,554.7,147z"/>
</g>
<g>
	<path class="st0" d="M651.5,147h-42.2c-1.1,0-2-0.9-2-2v-17c0-1.1,0.9-2,2-2h42.2c1.1,0,2,0.9,2,2v17
		C653.5,146.1,652.6,147,651.5,147z"/>
	<path class="st6" d="M651.5,147h-42.2c-1.1,0-2-0.9-2-2l44.2-19c1.1,0,2,0.9,2,2v17C653.5,146.1,652.6,147,651.5,147z"/>
</g>
<g>
	<path class="st0" d="M455.3,147.5h-42.2c-1.1,0-2-0.9-2-2v-17c0-1.1,0.9-2,2-2h42.2c1.1,0,2,0.9,2,2v17
		C457.3,146.6,456.4,147.5,455.3,147.5z"/>
	<path class="st6" d="M455.3,147.5h-42.2c-1.1,0-2-0.9-2-2l44.2-19c1.1,0,2,0.9,2,2v17C457.3,146.6,456.4,147.5,455.3,147.5z"/>
</g>
<g>
	<path class="st0" d="M765.8,147h-42.2c-1.1,0-2-0.9-2-2v-17c0-1.1,0.9-2,2-2h42.2c1.1,0,2,0.9,2,2v17
		C767.8,146.1,766.9,147,765.8,147z"/>
	<path class="st6" d="M765.8,147h-42.2c-1.1,0-2-0.9-2-2l44.2-19c1.1,0,2,0.9,2,2v17C767.8,146.1,766.9,147,765.8,147z"/>
</g>
<g>
	<path class="st0" d="M861.6,147h-42.2c-1.1,0-2-0.9-2-2v-17c0-1.1,0.9-2,2-2h42.2c1.1,0,2,0.9,2,2v17
		C863.6,146.1,862.7,147,861.6,147z"/>
	<path class="st6" d="M861.6,147h-42.2c-1.1,0-2-0.9-2-2l44.2-19c1.1,0,2,0.9,2,2v17C863.6,146.1,862.7,147,861.6,147z"/>
</g>
<g>
	<path class="st0" d="M959,147h-42.2c-1.1,0-2-0.9-2-2v-17c0-1.1,0.9-2,2-2H959c1.1,0,2,0.9,2,2v17C961,146.1,960.1,147,959,147z"/>
	<path class="st6" d="M959,147h-42.2c-1.1,0-2-0.9-2-2l44.2-19c1.1,0,2,0.9,2,2v17C961,146.1,960.1,147,959,147z"/>
</g>
<path class="st7" d="M90.8,147.5H80.2c-1.1,0-2-0.9-2-2v-17.1c0-1.1,0.9-2,2-2h10.6c1.1,0,2,0.9,2,2v17.1
	C92.8,146.7,91.9,147.5,90.8,147.5z"/>
<path class="st7" d="M47.6,147.6H37c-1.1,0-2-0.9-2-2v-17.1c0-1.1,0.9-2,2-2h10.6c1.1,0,2,0.9,2,2v17.1
	C49.6,146.7,48.7,147.6,47.6,147.6z"/>
<path class="st7" d="M188,147.5h-10.6c-1.1,0-2-0.9-2-2v-17.1c0-1.1,0.9-2,2-2H188c1.1,0,2,0.9,2,2v17.1
	C190,146.6,189.1,147.5,188,147.5z"/>
<path class="st7" d="M285,147.1h-10.6c-1.1,0-2-0.9-2-2V128c0-1.1,0.9-2,2-2H285c1.1,0,2,0.9,2,2v17.1
	C287,146.2,286.1,147.1,285,147.1z"/>
<path class="st7" d="M400.2,147.1h-10.6c-1.1,0-2-0.9-2-2V128c0-1.1,0.9-2,2-2h10.6c1.1,0,2,0.9,2,2v17.1
	C402.2,146.2,401.3,147.1,400.2,147.1z"/>
<path class="st7" d="M590.2,147.1h-10.6c-1.1,0-2-0.9-2-2V128c0-1.1,0.9-2,2-2h10.6c1.1,0,2,0.9,2,2v17.1
	C592.2,146.2,591.3,147.1,590.2,147.1z"/>
<path class="st7" d="M492.3,147.1h-10.6c-1.1,0-2-0.9-2-2V128c0-1.1,0.9-2,2-2h10.6c1.1,0,2,0.9,2,2v17.1
	C494.3,146.2,493.4,147.1,492.3,147.1z"/>
<path class="st7" d="M712.4,147.5h-10.6c-1.1,0-2-0.9-2-2v-17.1c0-1.1,0.9-2,2-2h10.6c1.1,0,2,0.9,2,2v17.1
	C714.4,146.6,713.5,147.5,712.4,147.5z"/>
<path class="st7" d="M805.1,147.5h-10.6c-1.1,0-2-0.9-2-2v-17.1c0-1.1,0.9-2,2-2h10.6c1.1,0,2,0.9,2,2v17.1
	C807.1,146.6,806.2,147.5,805.1,147.5z"/>
<path class="st7" d="M900.2,147.5h-10.6c-1.1,0-2-0.9-2-2v-17.1c0-1.1,0.9-2,2-2h10.6c1.1,0,2,0.9,2,2v17.1
	C902.2,146.6,901.3,147.5,900.2,147.5z"/>
<path class="st7" d="M1005,147.5h-10.6c-1.1,0-2-0.9-2-2v-17.1c0-1.1,0.9-2,2-2h10.6c1.1,0,2,0.9,2,2v17.1
	C1007,146.6,1006.1,147.5,1005,147.5z"/>
<path class="st8" d="M0,235.6"/>
<line class="st9" x1="1024" y1="208" x2="0" y2="208"/>
<rect x="71.7" y="214.1" class="st0" width="13.9" height="116.4"/>
<polyline class="st0" points="321.2,212.4 346.1,237.3 384.4,237.3 410.6,211 "/>
<rect x="357.9" y="217.2" class="st0" width="13.9" height="116.4"/>
<polyline class="st0" points="614.7,215.5 639.6,240.3 677.9,240.3 704.1,214.1 "/>
<rect x="651.4" y="220.2" class="st0" width="13.9" height="116.4"/>
<polyline class="st0" points="893.2,216.5 918.1,241.4 956.4,241.4 982.6,215.2 "/>
<rect x="929.9" y="221.3" class="st0" width="13.9" height="116.4"/>
</svg>
