<?xml version="1.0" encoding="utf-8"?>
<!-- Generator: Adobe Illustrator 22.1.0, SVG Export Plug-In . SVG Version: 6.00 Build 0)  -->
<svg version="1.1" id="Layer_2_1_" xmlns="http://www.w3.org/2000/svg" xmlns:xlink="http://www.w3.org/1999/xlink" x="0px" y="0px"
	 viewBox="0 0 1024 283" style="enable-background:new 0 0 1024 283;" xml:space="preserve">
<style type="text/css">
	.st0{fill:none;stroke:#DFDFDF;stroke-width:33;stroke-miterlimit:10;}
	.st1{fill:none;stroke:#6B6B6B;stroke-width:27.6952;stroke-miterlimit:10;}
	.st2{fill:none;stroke:#FFFFFF;stroke-width:4;stroke-miterlimit:10;}
	.st3{fill:none;stroke:#FFFFFF;stroke-width:4;stroke-miterlimit:10;stroke-dasharray:12.0424,12.0424;}
	.st4{fill:#DFDFDF;}
	.st5{opacity:0.3;fill:#6B6B6B;enable-background:new    ;}
	.st6{fill:#332326;}
	.st7{fill:#818181;}
	.st8{fill:none;}
	.st9{fill:#662483;}
	.st10{fill:#E6302E;}
	.st11{fill:#3B3B3B;}
	.st12{fill:#7E7E7C;}
	.st13{fill:#FFFFFF;stroke:#3C3C3C;stroke-width:3.183;stroke-miterlimit:10;}
	.st14{fill:#FFFFFF;stroke:#3C3C3C;stroke-width:2.8656;stroke-miterlimit:10;}
	.st15{fill:#FFFFFF;stroke:#3C3C3C;stroke-width:2.0263;stroke-miterlimit:10;}
	.st16{fill:#FFFFFF;stroke:#3C3C3C;stroke-width:2.5873;stroke-miterlimit:10;}
	.st17{opacity:0.1;fill:#848484;enable-background:new    ;}
	.st18{fill:#FFFFFF;stroke:#3C3C3C;stroke-width:2.4319;stroke-miterlimit:10;}
	.st19{fill:#30302E;}
	.st20{fill:#9E9E9E;}
	.st21{opacity:0.2;fill:#9E9E9E;enable-background:new    ;}
	.st22{fill:#CCB061;}
	.st23{fill:#AD210A;}
	.st24{fill:#DAEBFE;}
	.st25{fill:#FFFFFF;stroke:#3B3B3B;stroke-width:4.5635;stroke-miterlimit:10;}
	.st26{fill:#3C3C3C;}
	.st27{fill:#D83058;}
	.st28{fill:#C9C9C9;}
	.st29{fill:#9E9E9D;}
</style>
<line class="st0" x1="48" y1="221.1" x2="987.2" y2="221.1"/>
<line class="st1" x1="48" y1="221.1" x2="987.2" y2="221.1"/>
<g>
	<g>
		<line class="st2" x1="48.7" y1="221.1" x2="54.7" y2="221.1"/>
		<line class="st3" x1="66.7" y1="221.1" x2="975.9" y2="221.1"/>
		<line class="st2" x1="981.9" y1="221.1" x2="987.9" y2="221.1"/>
	</g>
</g>
<g>
	<path class="st4" d="M93.6,124.7c0,10.5-8.4,19-18.8,19s-18.8-8.5-18.8-19s8.4-19,18.8-19S93.6,114.2,93.6,124.7z"/>
	<ellipse class="st4" cx="75.1" cy="158.9" rx="24.4" ry="24.4"/>
	<path class="st5" d="M54.4,156.2c0-6.6,2.7-12.5,7.1-17c-6.6,4.2-10.7,11.6-10.7,20c0,13.1,10.7,23.8,24.1,23.8
		c6.6,0,12.8-2.7,17-6.8c-3.9,2.7-8.3,4.2-13.4,4.2C65.1,180,54.4,169.3,54.4,156.2z"/>
	<path class="st5" d="M58,121.7c0-5.4,2.1-10.4,6-14c-5.4,3.6-8.9,9.5-8.9,16.4c0,10.7,8.9,19.7,20,19.7c5.4,0,10.4-2.1,14-5.7
		c-3.3,2.1-6.8,3.3-11,3.3C66.9,141.3,58,132.7,58,121.7z"/>
	<g>
		<polygon class="st6" points="70.2,201.5 74.9,121.1 79.7,201.5 		"/>
	</g>
	<g>
		<polygon class="st6" points="73.5,161 89.2,147 76.1,163.6 		"/>
	</g>
	<g>
		<polygon class="st6" points="73.8,138.3 85.1,127.6 76.1,140.4 		"/>
	</g>
	<g>
		<polygon class="st6" points="71.7,174.1 57.7,158.3 74.3,171.4 		"/>
	</g>
	<g>
		<path class="st4" d="M137.1,164.5c0,10.1-8.2,18.3-18.3,18.3s-18.3-8.2-18.3-18.3s8.2-18.3,18.3-18.3S137.1,154.4,137.1,164.5z"/>
		<path class="st7" d="M102.6,162.4c0.3-5.1,2.4-9.5,6-12.8c-5.1,3-8.6,8.6-8.6,14.9c-0.3,10.1,7.4,18.8,17.6,19.1
			c5.1,0.3,9.8-1.8,13.1-4.8c-3,1.8-6.6,2.7-10.4,2.7C110.1,180.9,102.3,172.6,102.6,162.4z"/>
	</g>
	<g>
		<g>
			<line class="st8" x1="116.6" y1="200" x2="118.4" y2="156.2"/>
			<polygon class="st6" points="114,200 118.4,156.2 119.3,200.3 			"/>
		</g>
		<g>
			<line class="st8" x1="118.1" y1="166" x2="123.8" y2="160.1"/>
			<polygon class="st6" points="117.5,165.4 123.8,160.1 118.7,166.6 			"/>
		</g>
		<g>
			<line class="st8" x1="117.5" y1="177.9" x2="107.7" y2="166.3"/>
			<polygon class="st6" points="116.3,178.8 107.7,166.3 118.7,177 			"/>
		</g>
		<g>
			<line class="st8" x1="117.5" y1="179.7" x2="129.1" y2="169.9"/>
			<polygon class="st6" points="116.9,178.8 129.1,169.9 118.1,180.3 			"/>
		</g>
	</g>
</g>
<g>
	<path class="st4" d="M965.2,105.2c10.4,0,18.8,8.5,18.8,19s-8.4,19-18.8,19s-18.8-8.5-18.8-19S954.8,105.2,965.2,105.2z"/>
	
		<ellipse transform="matrix(0.7705 -0.6375 0.6375 0.7705 120.5798 651.5945)" class="st4" cx="965.1" cy="158.4" rx="24.4" ry="24.4"/>
	<path class="st5" d="M961.5,179.9c-5.1,0-9.5-1.5-13.4-4.2c4.2,4.2,10.4,6.8,17,6.8c13.4,0,24.1-10.7,24.1-23.8
		c0-8.3-4.2-15.8-10.7-20c4.5,4.5,7.1,10.4,7.1,17C985.6,168.8,974.9,179.6,961.5,179.9z"/>
	<path class="st5" d="M962.1,140.9c-4.2,0-7.7-1.2-11-3.3c3.6,3.6,8.6,5.7,14,5.7c11,0,20-8.9,20-19.7c0-6.8-3.6-12.8-8.9-16.4
		c3.9,3.6,6,8.6,6,14C982.1,132.2,973.1,140.9,962.1,140.9z"/>
	<g>
		<polygon class="st6" points="960.3,201 965.1,120.6 969.9,201 		"/>
	</g>
	<g>
		<polygon class="st6" points="963.9,163.2 950.8,146.5 966.6,160.5 		"/>
	</g>
	<g>
		<polygon class="st6" points="963.9,140 955,127.2 966.3,137.9 		"/>
	</g>
	<g>
		<polygon class="st6" points="965.7,170.9 982.4,157.8 968.4,173.6 		"/>
	</g>
	<g>
		<path class="st4" d="M921.2,145.8c10.1,0,18.3,8.2,18.3,18.3s-8.2,18.3-18.3,18.3s-18.3-8.2-18.3-18.3S911.1,145.8,921.2,145.8z"
			/>
		<path class="st7" d="M919.8,181.1c-3.9,0-7.4-0.9-10.4-2.7c3.3,3,8,5.1,13.1,4.8c10.1-0.3,17.9-8.9,17.6-19.1
			c0-6.3-3.6-11.9-8.6-14.9c3.6,3.3,5.7,7.7,6,12.8C937.7,172.1,930,180.5,919.8,181.1z"/>
	</g>
	<g>
		<g>
			<line class="st8" x1="921.6" y1="155.7" x2="923.4" y2="199.5"/>
			<polygon class="st6" points="920.7,199.8 921.6,155.7 926.1,199.5 			"/>
		</g>
		<g>
			<line class="st8" x1="916.3" y1="159.6" x2="921.9" y2="165.6"/>
			<polygon class="st6" points="921.3,166.2 916.3,159.6 922.5,165 			"/>
		</g>
		<g>
			<line class="st8" x1="932.3" y1="165.9" x2="922.5" y2="177.5"/>
			<polygon class="st6" points="921.3,176.6 932.3,165.9 923.7,178.4 			"/>
		</g>
		<g>
			<line class="st8" x1="910.9" y1="169.4" x2="922.5" y2="179.3"/>
			<polygon class="st6" points="921.9,179.9 910.9,169.4 923.1,178.4 			"/>
		</g>
	</g>
</g>
<path class="st4" d="M726.8,209.7H311.7c-5.9,0-10.7-4.9-10.7-10.7V22.8c0-5.9,4.9-10.7,10.7-10.7h415.1c5.9,0,10.7,4.9,10.7,10.7
	V199C737.5,205,732.7,209.7,726.8,209.7z"/>
<path class="st9" d="M728.3,92.4L301.2,202.9c0,4,4.3,7.2,9.5,7.2h417.4c5.2,0,9.5-3.3,9.5-7.2V99.6
	C737.9,95.6,733.7,92.4,728.3,92.4z"/>
<path class="st10" d="M301.5,21.5c0-5.2,4.3-9.5,9.5-9.5h417.4c5.2,0,9.5,4.3,9.5,9.5V130"/>
<g>
	<path class="st11" d="M725.1,184.2h-36.5c-0.7,0-1.3-0.6-1.3-1.3v-0.3c0-0.7,0.6-1.3,1.3-1.3h36.4c0.7,0,1.3,0.6,1.3,1.3v0.3
		C726.3,183.6,725.8,184.2,725.1,184.2z"/>
	<path class="st11" d="M725.1,190.2h-36.5c-0.7,0-1.3-0.6-1.3-1.3v-0.3c0-0.7,0.6-1.3,1.3-1.3h36.4c0.7,0,1.3,0.6,1.3,1.3v0.3
		C726.3,189.6,725.8,190.2,725.1,190.2z"/>
	<path class="st11" d="M725.1,172.2h-36.5c-0.7,0-1.3-0.6-1.3-1.3v-0.3c0-0.7,0.6-1.3,1.3-1.3h36.4c0.7,0,1.3,0.6,1.3,1.3v0.3
		C726.3,171.6,725.8,172.2,725.1,172.2z"/>
	<path class="st11" d="M725.1,178.3h-36.5c-0.7,0-1.3-0.6-1.3-1.3v-0.3c0-0.7,0.6-1.3,1.3-1.3h36.4c0.7,0,1.3,0.6,1.3,1.3v0.3
		C726.3,177.7,725.8,178.3,725.1,178.3z"/>
	<path class="st11" d="M725.1,196.3h-36.5c-0.7,0-1.3-0.6-1.3-1.3v-0.3c0-0.7,0.6-1.3,1.3-1.3h36.4c0.7,0,1.3,0.6,1.3,1.3v0.3
		C726.3,195.7,725.8,196.3,725.1,196.3z"/>
	<path class="st11" d="M725.1,202.3h-36.5c-0.7,0-1.3-0.6-1.3-1.3v-0.3c0-0.7,0.6-1.3,1.3-1.3h36.4c0.7,0,1.3,0.6,1.3,1.3v0.3
		C726.3,201.7,725.8,202.3,725.1,202.3z"/>
</g>
<g>
	<rect x="397.5" y="148.9" class="st12" width="101.1" height="14.1"/>
	<rect x="341.1" y="111.7" class="st13" width="323.8" height="36.7"/>
	<rect x="341.1" y="111.7" class="st14" width="56.5" height="96.8"/>
	<rect x="498.6" y="111.7" class="st14" width="56.5" height="96.8"/>
	<rect x="369.3" y="111.7" class="st15" width="28.2" height="96.8"/>
	<rect x="526.9" y="111.7" class="st16" width="28.2" height="96.4"/>
	<polygon class="st17" points="369.3,208.6 341.1,208.6 369.3,111.7 	"/>
	<polygon class="st17" points="397.5,207.5 369.3,207.5 397.5,110.8 	"/>
	<polygon class="st17" points="498.6,146.1 397.5,146.1 498.6,110.6 	"/>
	<rect x="555.1" y="111.9" class="st18" width="74.9" height="36.7"/>
	<polygon class="st17" points="630,147.8 555.1,147.8 630,112.4 	"/>
	<polygon class="st17" points="664.8,148.9 630,148.9 664.8,113.4 	"/>
</g>
<g>
	<circle class="st19" cx="427.6" cy="209.6" r="20.7"/>
	<circle class="st20" cx="427.6" cy="209.6" r="12.9"/>
	<path class="st21" d="M448.3,209.6c0,11.4-9.3,20.7-20.7,20.7c-6.2,0-11.6-2.7-15.5-6.9c-3.3-3.7,27.1-31.8,30.8-27.7
		C446.3,199.5,448.3,204.4,448.3,209.6z"/>
</g>
<g>
	<circle class="st19" cx="616.7" cy="209.6" r="20.7"/>
	<circle class="st20" cx="616.7" cy="209.6" r="12.9"/>
	<path class="st21" d="M637.3,209.6c0,11.4-9.3,20.7-20.7,20.7c-6.2,0-11.6-2.7-15.5-6.9c-3.3-3.7,27.1-31.8,30.8-27.7
		C635.4,199.5,637.3,204.4,637.3,209.6z"/>
</g>
<g>
	<circle class="st19" cx="668.2" cy="208.7" r="20.7"/>
	<circle class="st20" cx="668.2" cy="208.7" r="12.9"/>
	<path class="st21" d="M689,208.7c0,11.4-9.3,20.7-20.7,20.7c-6.2,0-11.6-2.7-15.5-6.9c-3.3-3.7,27.1-31.8,30.8-27.7
		C686.9,198.6,689,203.5,689,208.7z"/>
</g>
<g>
	<circle class="st22" cx="736.7" cy="178.3" r="5.2"/>
	<circle class="st23" cx="736.6" cy="164.3" r="5.2"/>
	<circle class="st23" cx="736.6" cy="192.1" r="5.2"/>
</g>
<rect x="310.5" y="110.2" class="st24" width="29.2" height="68.3"/>
<g>
	<path class="st25" d="M706.7,95.9H321.8c-4.8,0-8.7-3.5-8.7-7.7V36.5c0-4.2,4-7.7,8.7-7.7h385c4.8,0,8.7,3.5,8.7,7.7v51.6
		c0,2.1-0.9,4.1-2.6,5.5C711.3,95,709.1,95.9,706.7,95.9z"/>
	<rect x="310.5" y="88" class="st26" width="407.3" height="9.9"/>
</g>
<rect x="394.6" y="29.7" class="st11" width="3.8" height="66"/>
<rect x="476.4" y="27.7" class="st11" width="3.8" height="66"/>
<rect x="554.2" y="29.3" class="st11" width="3.8" height="66"/>
<rect x="632.8" y="27.2" class="st11" width="3.8" height="66"/>
<g>
	<g>
		<path class="st27" d="M615.7,147.2h-3c-0.8,0-1.5-0.7-1.5-1.5v-17.8c0-0.8,0.7-1.5,1.5-1.5h3c0.8,0,1.5,0.7,1.5,1.5v17.8
			C617.2,146.5,616.5,147.2,615.7,147.2z"/>
		<path class="st27" d="M603.5,146.1v-3.6c0-0.7,0.6-1.3,1.3-1.3H616c0.7,0,1.3,0.6,1.3,1.3v3.6c0,0.7-0.6,1.3-1.3,1.3h-11.2
			C604.1,147.2,603.5,146.8,603.5,146.1z"/>
	</g>
	<rect x="615" y="119.2" class="st28" width="6.5" height="28.1"/>
</g>
<rect x="342.6" y="200" class="st29" width="25.7" height="7.1"/>
<g>
	<g>
		<path class="st27" d="M573.8,147.3h3c0.8,0,1.5-0.7,1.5-1.5v-17.8c0-0.8-0.7-1.5-1.5-1.5h-3c-0.8,0-1.5,0.7-1.5,1.5v17.8
			C572.3,146.7,573,147.3,573.8,147.3z"/>
		<path class="st27" d="M586,146.1v-3.6c0-0.7-0.6-1.3-1.3-1.3h-11.2c-0.7,0-1.3,0.6-1.3,1.3v3.6c0,0.7,0.6,1.3,1.3,1.3h11.2
			C585.4,147.3,586,146.8,586,146.1z"/>
	</g>
	<rect x="568" y="119.2" class="st28" width="6.5" height="28.1"/>
</g>
<g>
	<g>
		<path class="st27" d="M654.8,147.3h-3c-0.8,0-1.5-0.7-1.5-1.5v-17.8c0-0.8,0.7-1.5,1.5-1.5h3c0.8,0,1.5,0.7,1.5,1.5v17.8
			C656.4,146.7,655.7,147.3,654.8,147.3z"/>
		<path class="st27" d="M642.7,146.1v-3.6c0-0.7,0.6-1.3,1.3-1.3h11.2c0.7,0,1.3,0.6,1.3,1.3v3.6c0,0.7-0.6,1.3-1.3,1.3H644
			C643.3,147.3,642.7,146.8,642.7,146.1z"/>
	</g>
	<rect x="654.2" y="119.3" class="st28" width="6.5" height="28.1"/>
</g>
<rect x="370.4" y="200" class="st29" width="26.1" height="7.6"/>
<rect x="500" y="199.5" class="st29" width="25.6" height="7.6"/>
<rect x="528.2" y="199.5" class="st29" width="25.6" height="7.6"/>
<g>
	<g>
		<path class="st27" d="M474.8,146.8h-3c-0.8,0-1.5-0.7-1.5-1.5v-17.8c0-0.8,0.7-1.5,1.5-1.5h3c0.8,0,1.5,0.7,1.5,1.5v17.8
			C476.3,146.1,475.6,146.8,474.8,146.8z"/>
		<path class="st27" d="M462.6,145.6V142c0-0.7,0.6-1.3,1.3-1.3H475c0.7,0,1.3,0.6,1.3,1.3v3.6c0,0.7-0.6,1.3-1.3,1.3h-11.2
			C463.2,146.8,462.6,146.2,462.6,145.6z"/>
	</g>
	<rect x="474.1" y="118.8" class="st28" width="6.5" height="28.1"/>
</g>
<g>
	<g>
		<path class="st27" d="M432.9,146.9h3c0.8,0,1.5-0.7,1.5-1.5v-17.8c0-0.8-0.7-1.5-1.5-1.5h-3c-0.8,0-1.5,0.7-1.5,1.5v17.8
			C431.4,146.2,432.1,146.9,432.9,146.9z"/>
		<path class="st27" d="M445.1,145.6V142c0-0.7-0.6-1.3-1.3-1.3h-11.2c-0.7,0-1.3,0.6-1.3,1.3v3.6c0,0.7,0.6,1.3,1.3,1.3h11.2
			C444.5,146.9,445.1,146.3,445.1,145.6z"/>
	</g>
	<rect x="427.1" y="118.9" class="st28" width="6.5" height="28.1"/>
</g>
<g>
	<g>
		<path class="st27" d="M362.5,87.5h-3c-0.8,0-1.5-0.7-1.5-1.5V68.2c0-0.8,0.7-1.5,1.5-1.5h3c0.8,0,1.5,0.7,1.5,1.5V86
			C364,86.8,363.3,87.5,362.5,87.5z"/>
		<path class="st27" d="M350.3,86.4v-3.6c0-0.7,0.6-1.3,1.3-1.3h11.2c0.7,0,1.3,0.6,1.3,1.3v3.6c0,0.7-0.6,1.3-1.3,1.3h-11.2
			C350.8,87.5,350.3,86.9,350.3,86.4z"/>
	</g>
	<rect x="361.8" y="59.5" class="st28" width="6.5" height="28.1"/>
</g>
<g>
	<g>
		<path class="st27" d="M443.7,87.5h-3c-0.8,0-1.5-0.7-1.5-1.5V68.2c0-0.8,0.7-1.5,1.5-1.5h3c0.8,0,1.5,0.7,1.5,1.5V86
			C445.2,86.8,444.6,87.5,443.7,87.5z"/>
		<path class="st27" d="M431.6,86.4v-3.6c0-0.7,0.6-1.3,1.3-1.3H444c0.7,0,1.3,0.6,1.3,1.3v3.6c0,0.7-0.6,1.3-1.3,1.3h-11.2
			C432.1,87.5,431.6,86.9,431.6,86.4z"/>
	</g>
	<rect x="443" y="59.5" class="st28" width="6.5" height="28.1"/>
</g>
<g>
	<g>
		<path class="st27" d="M528.2,87.5h-3c-0.8,0-1.5-0.7-1.5-1.5V68.2c0-0.8,0.7-1.5,1.5-1.5h3c0.8,0,1.5,0.7,1.5,1.5V86
			C529.8,86.8,529.2,87.5,528.2,87.5z"/>
		<path class="st27" d="M516,86.4v-3.6c0-0.7,0.6-1.3,1.3-1.3h11.2c0.7,0,1.3,0.6,1.3,1.3v3.6c0,0.7-0.6,1.3-1.3,1.3h-11.2
			C516.6,87.5,516,86.9,516,86.4z"/>
	</g>
	<rect x="527.6" y="59.5" class="st28" width="6.5" height="28.1"/>
</g>
<g>
	<g>
		<path class="st27" d="M599.1,87.5h-3c-0.8,0-1.5-0.7-1.5-1.5V68.2c0-0.8,0.7-1.5,1.5-1.5h3c0.8,0,1.5,0.7,1.5,1.5V86
			C600.6,86.8,600,87.5,599.1,87.5z"/>
		<path class="st27" d="M586.9,86.4v-3.6c0-0.7,0.6-1.3,1.3-1.3h11.2c0.7,0,1.3,0.6,1.3,1.3v3.6c0,0.7-0.6,1.3-1.3,1.3h-11.2
			C587.5,87.5,586.9,86.9,586.9,86.4z"/>
	</g>
	<rect x="598.4" y="59.5" class="st28" width="6.5" height="28.1"/>
</g>
<g>
	<g>
		<path class="st27" d="M684.3,87.5h-3c-0.8,0-1.5-0.7-1.5-1.5V68.2c0-0.8,0.7-1.5,1.5-1.5h3c0.8,0,1.5,0.7,1.5,1.5V86
			C685.8,86.8,685.1,87.5,684.3,87.5z"/>
		<path class="st27" d="M672.1,86.4v-3.6c0-0.7,0.6-1.3,1.3-1.3h11.2c0.7,0,1.3,0.6,1.3,1.3v3.6c0,0.7-0.6,1.3-1.3,1.3h-11.2
			C672.7,87.5,672.1,86.9,672.1,86.4z"/>
	</g>
	<rect x="683.7" y="59.5" class="st28" width="6.5" height="28.1"/>
</g>
</svg>
