<?xml version="1.0" encoding="utf-8"?>
<!-- Generator: Adobe Illustrator 24.0.3, SVG Export Plug-In . SVG Version: 6.00 Build 0)  -->
<svg version="1.1" id="Layer_2_1_" xmlns="http://www.w3.org/2000/svg" xmlns:xlink="http://www.w3.org/1999/xlink" x="0px" y="0px"
	 viewBox="0 0 1024 283" style="enable-background:new 0 0 1024 283;" xml:space="preserve">
<style type="text/css">
	.st0{fill:#EAEAEA;}
	.st1{fill:#9BACAC;}
	.st2{fill:#9CABAC;}
	.st3{fill:#0E1F25;}
	.st4{fill:#C73F43;}
	.st5{fill:#747F83;}
	.st6{opacity:0.2;fill:#CBD5D4;}
	.st7{fill:#E8E8E6;}
</style>
<g>
	<path class="st0" d="M338,187.9H54.9c-11,0-20-9-20-20V118c0-11,9-20,20-20H338c11,0,20,9,20,20v49.9
		C358,178.9,349,187.9,338,187.9z"/>
	<rect x="276.2" y="147.5" class="st1" width="81.8" height="31.6"/>
	<path class="st2" d="M338,194.7H54.9c-11,0-20-9-20-20v-7.2c0-11,9-20,20-20H338c11,0,20,9,20,20v7.2
		C358,185.8,349,194.7,338,194.7z"/>
	<rect x="34.9" y="116.7" class="st3" width="29.1" height="40.6"/>
	<rect x="71.6" y="116.7" class="st4" width="90.7" height="54.4"/>
	<rect x="34.9" y="157.3" class="st4" width="29.1" height="13.9"/>
	<rect x="169.1" y="116.7" class="st3" width="90.7" height="40.5"/>
	<rect x="267.3" y="116.7" class="st3" width="81.8" height="40.6"/>
	<rect x="71.6" y="116.7" class="st3" width="90.7" height="40.6"/>
	<rect x="169.1" y="157.2" class="st4" width="90.7" height="13.9"/>
	<rect x="267.3" y="157.2" class="st4" width="81.8" height="13.9"/>
</g>
<g>
	<path class="st0" d="M704,185.5h283.1c11,0,20-9,20-20v-49.9c0-11-9-20-20-20H704c-11,0-20,9-20,20v49.9
		C684,176.5,693,185.5,704,185.5z"/>
	
		<rect x="684" y="145.1" transform="matrix(-1 -4.490553e-11 4.490553e-11 -1 1449.7772 321.8354)" class="st1" width="81.8" height="31.6"/>
	<path class="st2" d="M704,192.3h283.1c11,0,20-9,20-20v-7.2c0-11-9-20-20-20H704c-11,0-20,9-20,20v7.2
		C684,183.3,693,192.3,704,192.3z"/>
	
		<rect x="977.9" y="114.3" transform="matrix(-1 -4.491220e-11 4.491220e-11 -1 1984.9709 269.122)" class="st3" width="29.1" height="40.6"/>
	
		<rect x="879.7" y="114.3" transform="matrix(-1 -4.489621e-11 4.489621e-11 -1 1850.0472 282.9776)" class="st4" width="90.7" height="54.4"/>
	
		<rect x="977.9" y="154.8" transform="matrix(-1 -4.491220e-11 4.491220e-11 -1 1984.9709 323.5437)" class="st4" width="29.1" height="13.9"/>
	
		<rect x="782.2" y="114.3" transform="matrix(-1 -4.489621e-11 4.489621e-11 -1 1655.0676 269.0767)" class="st3" width="90.7" height="40.5"/>
	
		<rect x="692.9" y="114.3" transform="matrix(-1 -4.489443e-11 4.489443e-11 -1 1467.597 269.122)" class="st3" width="81.8" height="40.6"/>
	
		<rect x="879.7" y="114.3" transform="matrix(-1 -4.490642e-11 4.490642e-11 -1 1850.0472 269.122)" class="st3" width="90.7" height="40.6"/>
	
		<rect x="782.2" y="154.8" transform="matrix(-1 -4.490642e-11 4.490642e-11 -1 1655.0676 323.5437)" class="st4" width="90.7" height="13.9"/>
	
		<rect x="692.9" y="154.8" transform="matrix(-1 -4.490553e-11 4.490553e-11 -1 1467.597 323.5437)" class="st4" width="81.8" height="13.9"/>
</g>
<g>
	<path class="st0" d="M385.9,187.5h266.1c11,0,20-9,20-20v-49.9c0-11-9-20-20-20H385.9c-11,0-20,9-20,20v49.9
		C365.9,178.5,374.8,187.5,385.9,187.5z"/>
	
		<rect x="365.9" y="147.1" transform="matrix(-1 -4.489443e-11 4.489443e-11 -1 813.4976 325.8354)" class="st1" width="81.8" height="31.6"/>
	<path class="st2" d="M385.9,194.3h266.1c11,0,20-9,20-20v-7.2c0-11-9-20-20-20H385.9c-11,0-20,9-20,20v7.2
		C365.9,185.3,374.8,194.3,385.9,194.3z"/>
	
		<rect x="569.2" y="116.3" transform="matrix(-1 -4.490642e-11 4.490642e-11 -1 1229.051 286.9776)" class="st4" width="90.7" height="54.4"/>
	
		<rect x="471.7" y="116.3" transform="matrix(-1 -4.490642e-11 4.490642e-11 -1 1034.0715 273.0767)" class="st3" width="90.7" height="40.5"/>
	
		<rect x="382.4" y="116.3" transform="matrix(-1 -4.489443e-11 4.489443e-11 -1 846.6009 273.122)" class="st3" width="81.8" height="40.6"/>
	
		<rect x="569.2" y="116.3" transform="matrix(-1 -4.489621e-11 4.489621e-11 -1 1229.051 273.122)" class="st3" width="90.7" height="40.6"/>
	
		<rect x="471.7" y="156.8" transform="matrix(-1 -4.489621e-11 4.489621e-11 -1 1034.0715 327.5437)" class="st4" width="90.7" height="13.9"/>
	
		<rect x="382.4" y="156.8" transform="matrix(-1 -4.489443e-11 4.489443e-11 -1 846.6009 327.5437)" class="st4" width="81.8" height="13.9"/>
	
		<rect x="659.9" y="147.1" transform="matrix(-1 -2.381265e-10 2.381265e-10 -1 1331.8066 322.7417)" class="st2" width="12.1" height="28.6"/>
</g>
<g>
	<path class="st5" d="M151.8,147.5h-42.2c-1.1,0-2-0.9-2-2v-17c0-1.1,0.9-2,2-2h42.2c1.1,0,2,0.9,2,2v17
		C153.8,146.7,152.9,147.5,151.8,147.5z"/>
	<path class="st6" d="M151.8,147.5h-42.2c-1.1,0-2-0.9-2-2l44.2-19c1.1,0,2,0.9,2,2v17C153.8,146.7,152.9,147.5,151.8,147.5z"/>
</g>
<g>
	<path class="st5" d="M250.9,147.5h-42.2c-1.1,0-2-0.9-2-2v-17c0-1.1,0.9-2,2-2h42.2c1.1,0,2,0.9,2,2v17
		C252.9,146.6,252.1,147.5,250.9,147.5z"/>
	<path class="st6" d="M250.9,147.5h-42.2c-1.1,0-2-0.9-2-2l44.2-19c1.1,0,2,0.9,2,2v17C252.9,146.6,252.1,147.5,250.9,147.5z"/>
</g>
<g>
	<path class="st5" d="M339.6,147.5h-42.2c-1.1,0-2-0.9-2-2v-17c0-1.1,0.9-2,2-2h42.2c1.1,0,2,0.9,2,2v17
		C341.6,146.6,340.7,147.5,339.6,147.5z"/>
	<path class="st6" d="M339.6,147.5h-42.2c-1.1,0-2-0.9-2-2l44.2-19c1.1,0,2,0.9,2,2v17C341.6,146.6,340.7,147.5,339.6,147.5z"/>
</g>
<g>
	<path class="st5" d="M554.7,147h-42.2c-1.1,0-2-0.9-2-2v-17c0-1.1,0.9-2,2-2h42.2c1.1,0,2,0.9,2,2v17
		C556.7,146.1,555.8,147,554.7,147z"/>
	<path class="st6" d="M554.7,147h-42.2c-1.1,0-2-0.9-2-2l44.2-19c1.1,0,2,0.9,2,2v17C556.7,146.1,555.8,147,554.7,147z"/>
</g>
<g>
	<path class="st5" d="M651.5,147h-42.2c-1.1,0-2-0.9-2-2v-17c0-1.1,0.9-2,2-2h42.2c1.1,0,2,0.9,2,2v17
		C653.5,146.1,652.6,147,651.5,147z"/>
	<path class="st6" d="M651.5,147h-42.2c-1.1,0-2-0.9-2-2l44.2-19c1.1,0,2,0.9,2,2v17C653.5,146.1,652.6,147,651.5,147z"/>
</g>
<g>
	<path class="st5" d="M455.3,147.5h-42.2c-1.1,0-2-0.9-2-2v-17c0-1.1,0.9-2,2-2h42.2c1.1,0,2,0.9,2,2v17
		C457.3,146.6,456.4,147.5,455.3,147.5z"/>
	<path class="st6" d="M455.3,147.5h-42.2c-1.1,0-2-0.9-2-2l44.2-19c1.1,0,2,0.9,2,2v17C457.3,146.6,456.4,147.5,455.3,147.5z"/>
</g>
<g>
	<path class="st5" d="M765.8,147h-42.2c-1.1,0-2-0.9-2-2v-17c0-1.1,0.9-2,2-2h42.2c1.1,0,2,0.9,2,2v17
		C767.8,146.1,766.9,147,765.8,147z"/>
	<path class="st6" d="M765.8,147h-42.2c-1.1,0-2-0.9-2-2l44.2-19c1.1,0,2,0.9,2,2v17C767.8,146.1,766.9,147,765.8,147z"/>
</g>
<g>
	<path class="st5" d="M861.6,147h-42.2c-1.1,0-2-0.9-2-2v-17c0-1.1,0.9-2,2-2h42.2c1.1,0,2,0.9,2,2v17
		C863.6,146.1,862.7,147,861.6,147z"/>
	<path class="st6" d="M861.6,147h-42.2c-1.1,0-2-0.9-2-2l44.2-19c1.1,0,2,0.9,2,2v17C863.6,146.1,862.7,147,861.6,147z"/>
</g>
<g>
	<path class="st5" d="M959,147h-42.2c-1.1,0-2-0.9-2-2v-17c0-1.1,0.9-2,2-2H959c1.1,0,2,0.9,2,2v17C961,146.1,960.1,147,959,147z"/>
	<path class="st6" d="M959,147h-42.2c-1.1,0-2-0.9-2-2l44.2-19c1.1,0,2,0.9,2,2v17C961,146.1,960.1,147,959,147z"/>
</g>
<path class="st7" d="M90.8,147.5H80.2c-1.1,0-2-0.9-2-2v-17.1c0-1.1,0.9-2,2-2h10.6c1.1,0,2,0.9,2,2v17.1
	C92.8,146.7,91.9,147.5,90.8,147.5z"/>
<path class="st7" d="M47.6,147.6H37c-1.1,0-2-0.9-2-2v-17.1c0-1.1,0.9-2,2-2h10.6c1.1,0,2,0.9,2,2v17.1
	C49.6,146.7,48.7,147.6,47.6,147.6z"/>
<path class="st7" d="M188,147.5h-10.6c-1.1,0-2-0.9-2-2v-17.1c0-1.1,0.9-2,2-2H188c1.1,0,2,0.9,2,2v17.1
	C190,146.6,189.1,147.5,188,147.5z"/>
<path class="st7" d="M285,147.1h-10.6c-1.1,0-2-0.9-2-2V128c0-1.1,0.9-2,2-2H285c1.1,0,2,0.9,2,2v17.1
	C287,146.2,286.1,147.1,285,147.1z"/>
<path class="st7" d="M400.2,147.1h-10.6c-1.1,0-2-0.9-2-2V128c0-1.1,0.9-2,2-2h10.6c1.1,0,2,0.9,2,2v17.1
	C402.2,146.2,401.3,147.1,400.2,147.1z"/>
<path class="st7" d="M590.2,147.1h-10.6c-1.1,0-2-0.9-2-2V128c0-1.1,0.9-2,2-2h10.6c1.1,0,2,0.9,2,2v17.1
	C592.2,146.2,591.3,147.1,590.2,147.1z"/>
<path class="st7" d="M492.3,147.1h-10.6c-1.1,0-2-0.9-2-2V128c0-1.1,0.9-2,2-2h10.6c1.1,0,2,0.9,2,2v17.1
	C494.3,146.2,493.4,147.1,492.3,147.1z"/>
<path class="st7" d="M712.4,147.5h-10.6c-1.1,0-2-0.9-2-2v-17.1c0-1.1,0.9-2,2-2h10.6c1.1,0,2,0.9,2,2v17.1
	C714.4,146.6,713.5,147.5,712.4,147.5z"/>
<path class="st7" d="M805.1,147.5h-10.6c-1.1,0-2-0.9-2-2v-17.1c0-1.1,0.9-2,2-2h10.6c1.1,0,2,0.9,2,2v17.1
	C807.1,146.6,806.2,147.5,805.1,147.5z"/>
<path class="st7" d="M900.2,147.5h-10.6c-1.1,0-2-0.9-2-2v-17.1c0-1.1,0.9-2,2-2h10.6c1.1,0,2,0.9,2,2v17.1
	C902.2,146.6,901.3,147.5,900.2,147.5z"/>
<path class="st7" d="M1005,147.5h-10.6c-1.1,0-2-0.9-2-2v-17.1c0-1.1,0.9-2,2-2h10.6c1.1,0,2,0.9,2,2v17.1
	C1007,146.6,1006.1,147.5,1005,147.5z"/>
</svg>
