<?xml version="1.0" encoding="utf-8"?>
<!-- Generator: Adobe Illustrator 22.1.0, SVG Export Plug-In . SVG Version: 6.00 Build 0)  -->
<svg version="1.1" xmlns="http://www.w3.org/2000/svg" xmlns:xlink="http://www.w3.org/1999/xlink" x="0px" y="0px"
	 viewBox="0 0 200 453" style="enable-background:new 0 0 200 453;" xml:space="preserve">
<style type="text/css">
	.st0{fill:none;stroke:#E0E0E0;stroke-width:15;stroke-miterlimit:10;}
	.st1{fill:none;stroke:#6B6B6B;stroke-width:12;stroke-miterlimit:10;}
	.st2{fill:none;stroke:#E0E0E0;stroke-width:2;stroke-miterlimit:10;stroke-dasharray:8,10;}
</style>
<g id="Layer_1">
	<path class="st0" d="M-0.5,426.5h16c0,0,18.1-1,18.1-21.5s0.2-149.8,0.2-167.2c0-25.8,23.8-26.9,23.8-26.9s75,0,92.5,0
		s17.5-19.8,17.5-19.8v-45.4V75.5c0,0,0-11,14-11h18"/>
	<path class="st1" d="M-0.5,426.5h16c0,0,18.1-1,18.1-21.5s0.2-149.8,0.2-167.2c0-25.8,23.8-26.9,23.8-26.9s75,0,92.5,0
		s17.5-19.8,17.5-19.8v-45.4V75.5c0,0,0-11,14-11h18"/>
	<path class="st2" d="M-1.5,426.5h16c0,0,18.1-1,18.1-21.5s0.2-149.8,0.2-167.2c0-25.8,23.8-26.9,23.8-26.9s75,0,92.5,0
		s17.5-19.8,17.5-19.8v-45.4V75.5c0,0,0-11,14-11h18"/>
</g>
<g id="Layer_2">
</g>
</svg>
