<?xml version="1.0" encoding="utf-8"?>
<!-- Generator: Adobe Illustrator 22.1.0, SVG Export Plug-In . SVG Version: 6.00 Build 0)  -->
<svg version="1.1" xmlns="http://www.w3.org/2000/svg" xmlns:xlink="http://www.w3.org/1999/xlink" x="0px" y="0px"
	 viewBox="0 0 1024 426" style="enable-background:new 0 0 1024 426;" xml:space="preserve">
<style type="text/css">
	.st0{display:none;}
	.st1{display:inline;}
	.st2{fill:none;stroke:#EAEAEA;stroke-width:2;stroke-miterlimit:10;stroke-dasharray:12;}
	.st3{fill:#F69D5E;}
	.st4{fill:#221F1F;}
	.st5{fill:#464655;}
	.st6{fill:#BCB6C0;stroke:#ACA8C1;stroke-width:0.25;stroke-miterlimit:10;}
	.st7{fill:#060606;}
	.st8{fill:#F23A44;}
	.st9{fill:#D6D6D6;}
	.st10{fill:#9B9A9A;}
	.st11{fill:none;stroke:#555A6E;stroke-width:0.5;stroke-miterlimit:10;}
	.st12{fill:#555A6E;}
	.st13{fill:#D5D6DB;stroke:#464655;stroke-width:7;stroke-miterlimit:10;}
	.st14{fill:none;stroke:#555A6E;stroke-miterlimit:10;}
	.st15{fill:#BCB6C0;}
	.st16{fill:none;stroke:#555A6E;stroke-width:1.0191;stroke-miterlimit:10;}
	.st17{fill:none;stroke:#555A6E;stroke-width:5.0953;stroke-miterlimit:10;}
	.st18{fill:none;stroke:#BCB6C0;stroke-width:1.0191;stroke-miterlimit:10;}
	.st19{fill:none;stroke:#E0E0E0;stroke-width:29;stroke-miterlimit:10;}
	.st20{fill:none;stroke:#6B6B6B;stroke-width:21;stroke-miterlimit:10;}
	.st21{fill:none;stroke:#FFFFFF;stroke-width:3;stroke-miterlimit:10;}
	.st22{fill:none;stroke:#FFFFFF;stroke-width:3;stroke-miterlimit:10;stroke-dasharray:14.995,14.995;}
	.st23{fill:none;stroke:#FFFFFF;stroke-width:3;stroke-miterlimit:10;stroke-dasharray:15.1038,15.1038;}
	.st24{fill:none;stroke:#FFFFFF;stroke-width:3;stroke-miterlimit:10;stroke-dasharray:15.1575,15.1575;}
	.st25{fill:none;stroke:#FFFFFF;stroke-width:3;stroke-miterlimit:10;stroke-dasharray:14.7428,14.7428;}
	.st26{fill:#EBF0F3;stroke:#555A6E;stroke-width:5;stroke-miterlimit:10;}
	.st27{fill:#D5D6DB;}
	.st28{fill:#E0E0E0;}
	.st29{fill:#EBF0F3;stroke:#555A6E;stroke-width:4;stroke-miterlimit:10;}
	.st30{fill:none;stroke:#464655;stroke-miterlimit:10;}
	.st31{fill:none;stroke:#6B6B6B;stroke-width:19.213;stroke-miterlimit:10;stroke-dasharray:15.158,15.1575;}
	.st32{fill:none;stroke:#6B6B6B;stroke-width:19.2132;stroke-miterlimit:10;}
</style>
<g id="Layer_1" class="st0">
	<g id="skyrscraper" shape-rendering="geometricPrecision" text-rendering="geometricPrecision" class="st1">
	</g>
	<g id="boat" class="st1">
	</g>
	<g id="trees" class="st1">
	</g>
	<g id="water_lines" class="st1">
		<path class="st2" d="M508.7,81.7"/>
	</g>
	<g id="clouds_right" class="st1">
	</g>
	<g id="hand">
		<g class="st1">
			<path class="st3" d="M564.9,327.5l-2.1,2.6c-1.7,2.1-3.6,5.8-0.3,9c4.1,3.9,8.3-0.3,9.9-2l1.8-2.3c1.7-2.1,4.1-5.9,0.5-9.3
				C570.7,321.6,566.5,325.8,564.9,327.5z"/>
			<path class="st3" d="M564.9,310.9l-2.1,2.6c-1.7,2.1-3.6,5.8-0.3,9c4.1,3.9,8.3-0.3,9.9-2l1.8-2.3c1.7-2.1,4.1-5.9,0.5-9.3
				C570.7,305,566.5,309.2,564.9,310.9z"/>
			<path class="st3" d="M564.9,294.1l-2.1,2.6c-1.7,2.1-3.6,5.8-0.3,9c4.1,3.9,8.3-0.3,9.9-2l1.8-2.3c1.7-2.1,4.1-5.9,0.5-9.3
				C570.7,288.2,566.5,292.4,564.9,294.1z"/>
			<g id="hand_1_">
				<path class="st3" d="M566.3,271.8l-6.4,8.4c-1.7,2.1-9.4,5.8-6.1,9c4.1,3.9,9,4,10.6,2.3l11.3-12.5c1.7-2.1,4.1-6,0.5-9.3
					C572.1,265.9,567.8,270.1,566.3,271.8z"/>
				<path class="st3" d="M506.9,299.7c-0.2,13.5-1.4,43.3-1.4,43.3s-0.5,6.1,1.9,8.9s6.1,4,6.1,4l-6.1,12.6l36.7,7.8l18.2-26
					l-47.5-44.4C514.9,305.9,516.3,299,506.9,299.7z"/>
				<polygon class="st4" points="506.1,357.1 471,424.6 525.3,424.6 548.6,379.7 				"/>
			</g>
			<g id="smartphone_1_">
				<g>
					<path class="st5" d="M557.8,357.3h-36.3c-4.7,0-8.6-3.9-8.6-8.6v-86c0-4.7,3.9-8.6,8.6-8.6h36.3c4.7,0,8.6,3.9,8.6,8.6v86
						C566.4,353.4,562.5,357.3,557.8,357.3z"/>
					<path class="st6" d="M556.1,353.9h-33c-3.9,0-7.1-3.2-7.1-7.1v-81.7c0-3.9,3.2-7.1,7.1-7.1h33c3.9,0,7.1,3.2,7.1,7.1v81.7
						C563.2,350.7,560,353.9,556.1,353.9z"/>
					<path class="st5" d="M549.7,261.4h-19c-0.2,0-0.3-0.2-0.3-0.3l0,0c0-0.2,0.2-0.3,0.3-0.3h19c0.2,0,0.3,0.2,0.3,0.3l0,0
						C550,261.3,549.9,261.4,549.7,261.4z"/>
				</g>
			</g>
		</g>
		<g id="_x33__fingers" class="st1">
		</g>
		<g class="st1">
			<path class="st7" d="M537,291c-0.1,0.5,0.1,0.8,0.5,1c3.1,2.5,6.3,5.1,9.4,7.6c0.5,0.5,0.9,0.5,1.4,0.2c1.7-0.5,3.1,0.1,4.3,1.4
				c1,1.4,1.3,3,0.5,4.5s-2.2,2.5-3.8,2.2c-1.3-0.2-2,0.5-2.8,1c-1.7,1.4-3.6,2.9-5.3,4.3c-0.6,0.5-1,0.7-1.7,0.6
				c-0.8-0.1-1.4-0.6-1.6-1.3c-0.2-0.9-0.1-1.5,0.7-2.2c1.5-1.3,3.1-2.5,4.8-3.8c0.5-0.3,0.9-0.8,1.3-1c0.7-0.5,0.9-0.9,0.8-1.6
				c0-0.3-0.1-0.7-0.5-0.9c-3.2-2.6-6.7-5.2-9.9-7.8c-0.3-0.2-0.7-0.3-1-0.2c-2.3,0.7-4.6-0.8-5.2-3.1c-0.6-2.2,1-4.4,3.1-4.9
				C534.6,286.3,537,288.2,537,291z"/>
			<path class="st8" d="M532.9,313.1c2.3,0,4.3,1.8,4.1,4.3c0,2.3-2,4.1-4.1,4.1c-2.3,0-4.1-2-4.1-4.3
				C528.7,315,530.5,313.1,532.9,313.1z"/>
		</g>
	</g>
	<g id="hackathon_laptop">
		<g class="st1">
			<path class="st5" d="M625.3,149.3H711c1.6,0,3,1.3,3,3v53.5c0,1.6-1.3,3-3,3h-85.7c-1.6,0-3-1.3-3-3v-53.5
				C622.3,150.6,623.6,149.3,625.3,149.3L625.3,149.3z"/>
			<path class="st9" d="M627.7,154.3h80.7v49.4h-80.7V154.3z"/>
			<path class="st5" d="M712,208.7h-87.9c-1.1,0-2,0.5-2.7,1.4l-16.8,29.5c-0.8,1.5-0.3,2.6,1.2,2.6h124.4c1.5,0,2-1.2,1.2-2.6
				l-16.8-29.5C714.1,209.2,713.1,208.7,712,208.7L712,208.7z"/>
			<path class="st10" d="M708.4,212.6h-80.6c-1.1,0-2.2,0.6-2.8,1.5l-4.4,8.7c-0.5,1,0,1.9,1.3,1.9h92.2c1.3,0,1.9-0.9,1.3-1.9
				l-4.4-8.7C710.6,213.2,709.5,212.6,708.4,212.6z"/>
			<g>
				<line class="st11" x1="670" y1="174.7" x2="666.1" y2="183.9"/>
				<circle class="st12" cx="670.1" cy="174.6" r="0.8"/>
				<circle class="st11" cx="668" cy="179.2" r="16.3"/>
				<circle class="st12" cx="666.1" cy="183.8" r="0.8"/>
				<polyline class="st11" points="671.4,181.3 676.7,178.7 671.4,176.3 				"/>
				<circle class="st12" cx="671.4" cy="181.3" r="0.8"/>
				<circle class="st12" cx="671.4" cy="176.4" r="0.8"/>
				<g>
					<polyline class="st11" points="664.8,176.3 659.5,178.9 664.8,181.2 					"/>
					<circle class="st12" cx="664.7" cy="176.3" r="0.8"/>
					<circle class="st12" cx="664.7" cy="181.2" r="0.8"/>
				</g>
			</g>
		</g>
	</g>
	<g id="test_tube_ipad_1_">
		<g id="Layer_1_1_" class="st1">
		</g>
		<g class="st1">
			<g>
				<path class="st12" d="M1524.3,449.4c1.9,0,1.9-3,0-3S1522.4,449.4,1524.3,449.4L1524.3,449.4z"/>
			</g>
		</g>
		<g class="st1">
			<path class="st13" d="M908.6,395.1h-99.8c-4.4,0-8-3.6-8-8v-77.8c0-4.4,3.6-8,8-8h99.8c4.4,0,8,3.6,8,8v77.8
				C916.6,391.5,913,395.1,908.6,395.1z"/>
			<circle class="st12" cx="863.6" cy="330.1" r="1.3"/>
			<circle class="st12" cx="863.6" cy="339.7" r="1.3"/>
			<circle class="st12" cx="873.4" cy="339.7" r="1.3"/>
			<circle class="st12" cx="873.4" cy="349.1" r="1.3"/>
			<circle class="st12" cx="863.6" cy="349.1" r="1.3"/>
			<circle class="st12" cx="863.6" cy="359.1" r="1.3"/>
			<circle class="st12" cx="853.1" cy="349.1" r="1.3"/>
			<circle class="st12" cx="843.8" cy="339.7" r="1.3"/>
			<circle class="st12" cx="843.8" cy="349.1" r="1.3"/>
			<circle class="st12" cx="853.1" cy="359.3" r="1.3"/>
			<polyline class="st14" points="863.4,329.9 873.4,339.9 853.1,359.1 			"/>
			<line class="st14" x1="873.4" y1="349.1" x2="863.5" y2="359"/>
			<line class="st14" x1="863.6" y1="339.7" x2="853.1" y2="349.1"/>
			<g>
				<circle class="st15" cx="853.1" cy="337.8" r="0.9"/>
				<rect x="851.8" y="339" class="st15" width="2.9" height="2.9"/>
			</g>
			<g>
				<circle class="st15" cx="873.4" cy="357.4" r="0.9"/>
				<rect x="872" y="358.6" class="st15" width="2.9" height="2.9"/>
			</g>
			<g>
				<circle class="st12" cx="853.1" cy="328" r="0.9"/>
				<rect x="851.8" y="329.2" class="st12" width="2.9" height="2.9"/>
			</g>
			<g>
				<circle class="st12" cx="844.2" cy="356.8" r="0.9"/>
				<rect x="842.8" y="358" class="st12" width="2.9" height="2.9"/>
			</g>
			<circle class="st15" cx="873.4" cy="330.3" r="1.3"/>
			<circle class="st15" cx="843.8" cy="330.3" r="1.3"/>
			<line class="st14" x1="853.1" y1="330.7" x2="843.8" y2="339.7"/>
			<circle class="st14" cx="858.7" cy="344.6" r="32.8"/>
		</g>
	</g>
	<g id="search">
		<g id="Layer_1_2_" class="st1">
		</g>
		<g class="st1">
			<path class="st5" d="M452.4,98.5l-5.7-5.7l10.1-10.1l5.7,5.7L452.4,98.5z"/>
			<path class="st5" d="M508.8,36.3C494.5,22,471.2,22,456.9,36.4C442.6,50.7,442.6,74,457,88.3c14.3,14.3,37.5,14.3,51.8,0
				S523.2,50.8,508.8,36.3C508.8,36.4,508.8,36.4,508.8,36.3z M462,83.2c-11.5-11.5-11.5-30.2,0-41.8c11.5-11.5,30.2-11.5,41.8,0
				c11.5,11.5,11.5,30.2,0,41.7C492.2,94.7,473.5,94.7,462,83.2C461.9,83.2,461.9,83.2,462,83.2L462,83.2z"/>
			<path class="st5" d="M456.2,97.2l-8.3-8.3c-1.1-1-2.7-1-3.8,0l-31.8,31.8c-1,1.1-1,2.7,0,3.8l8.3,8.3c1.1,1,2.7,1,3.8,0
				l31.8-31.8C457.2,100,457.2,98.4,456.2,97.2"/>
			<path class="st10" d="M454.6,99.5l-1.5-1.5l-22,22.6l1.5,1.5L454.6,99.5z"/>
			<g>
				<circle class="st15" cx="470.4" cy="56.8" r="3.7"/>
				<rect x="464.4" y="62.2" class="st15" width="12.4" height="12.4"/>
			</g>
			<g>
				<circle class="st12" cx="497.7" cy="56.8" r="3.7"/>
				<rect x="491.8" y="62.2" class="st12" width="12.4" height="12.4"/>
			</g>
			<line class="st16" x1="488.3" y1="65.6" x2="479.7" y2="65.6"/>
			<path class="st17" d="M486.7,64.4"/>
			<circle class="st12" cx="488.3" cy="65.5" r="1.5"/>
			<line class="st18" x1="480.5" y1="70.4" x2="488.1" y2="70.4"/>
			<path class="st17" d="M481.9,71.5"/>
			<circle class="st15" cx="480.5" cy="70.5" r="1.3"/>
			<polyline class="st12" points="480,64.1 477.9,65.5 480,67 			"/>
			<polyline class="st15" points="487.8,71.8 489.6,70.5 487.8,69.2 			"/>
		</g>
	</g>
	<g id="road" class="st1">
		<g>
			<path class="st19" d="M790.4-74.2h-38.6c0,0-20.9,0.9-20.9-20.9c0-21.7,0-50.2,0-68.1s-17.5-17.5-17.5-17.5h-132"/>
			<g>
				<path class="st19" d="M-232.6-9.3L133-9.6l297.1-0.3c0,0,31.6,1.9,31.6-34.4s24.7-34.6,24.7-34.6h42.7c0,0,52.6,6.6,52.6-36.3
					s-2.1-145.2-2.1-145.2s-2.4-39.1-60-39.1s-18.3,0-18.3,0H143.6c0,0-50.1-2.4-50.1,50.1s54.3,54.3,54.3,54.3h76.9
					c0,0,59.5,3,59.5-59.5c0-39.1,0-94.9,0-122.7"/>
				<path class="st19" d="M-231.2-260.2h125.9c0,0,58-4.9,58,58s0,107.3,0,107.3v86.2"/>
			</g>
		</g>
		<g>
			<path class="st20" d="M790.8-73.9h-38.6c0,0-20.9,0.9-20.9-20.9c0-21.7,0-50.2,0-68.1s-17.5-17.5-17.5-17.5h-132"/>
			<g>
				<path class="st20" d="M-232.3-8.9l365.6-0.3l297.1-0.3c0,0,31.6,1.9,31.6-34.4s24.7-34.6,24.7-34.6h42.7c0,0,52.6,6.6,52.6-36.3
					S579.9-260,579.9-260s-2.4-39.1-60-39.1s-18.3,0-18.3,0H144c0,0-50.1-2.4-50.1,50.1s54.3,54.3,54.3,54.3h76.9
					c0,0,59.5,3,59.5-59.5c0-39.1,0-94.9,0-122.7"/>
				<path class="st20" d="M-230.9-259.9H-105c0,0,58-4.9,58,58s0,107.3,0,107.3v86.2"/>
			</g>
		</g>
		<g>
			<g>
				<g>
					<line class="st21" x1="790.1" y1="-74.5" x2="782.6" y2="-74.5"/>
					<path class="st22" d="M767.6-74.5h-16.1c0,0-20.9,0.9-20.9-20.9c0-21.7,0-50.2,0-68.1S713.1-181,713.1-181h-117"/>
					<line class="st21" x1="588.6" y1="-181" x2="581.1" y2="-181"/>
				</g>
			</g>
			<g>
				<g>
					<g>
						<line class="st21" x1="-233" y1="-9.6" x2="-225.5" y2="-9.6"/>
						<path class="st23" d="M-210.4-9.6l343-0.3l297.1-0.3c0,0,31.6,1.9,31.6-34.4S486-79.2,486-79.2h42.7c0,0,52.6,6.6,52.6-36.3
							c0-42.8-2.1-145.2-2.1-145.2s-2.4-39.1-60-39.1c-17.4,0-26,0-29.5,0"/>
						<path class="st21" d="M493.4-299.7c3.6,0,7.5,0,7.5,0H493.4"/>
						<path class="st24" d="M478.2-299.7h-335c0,0-50.1-2.4-50.1,50.1s54.3,54.3,54.3,54.3h76.9c0,0,59.5,3,59.5-59.5
							c0-32.9,0-77.7,0-107.7"/>
						<path class="st21" d="M283.8-369.9c0-2.7,0-5.2,0-7.5"/>
					</g>
				</g>
				<g>
					<g>
						<line class="st21" x1="-231.6" y1="-260.5" x2="-224.1" y2="-260.5"/>
						<path class="st25" d="M-209.3-260.5h103.7c0,0,58-4.9,58,58s0,107.3,0,107.3v71.4"/>
						<line class="st21" x1="-47.6" y1="-16.4" x2="-47.6" y2="-8.9"/>
					</g>
				</g>
			</g>
		</g>
	</g>
	<g id="Layer_9">
		<g class="st1">
			<path class="st26" d="M722.6,326.1H662v47.3h71.4v-36.5L722.6,326.1z"/>
			<path class="st27" d="M722.6,336.9h10.8l-10.8-10.7V336.9z"/>
			<g>
				<g>
					<circle class="st15" cx="678" cy="342.1" r="3.3"/>
					<rect x="672.8" y="346.8" class="st15" width="10.8" height="10.8"/>
				</g>
				<g>
					<circle class="st12" cx="690.7" cy="342.1" r="3.3"/>
					<rect x="685.5" y="346.8" class="st12" width="10.8" height="10.8"/>
				</g>
				<g>
					<circle class="st4" cx="703.1" cy="342.1" r="3.3"/>
					<rect x="697.9" y="346.8" class="st4" width="10.8" height="10.8"/>
				</g>
				<g>
					<circle class="st28" cx="715.3" cy="342.1" r="3.3"/>
					<rect x="710.1" y="346.8" class="st28" width="10.8" height="10.8"/>
				</g>
			</g>
		</g>
	</g>
	<g id="Layer_10">
		<g class="st1">
			<path class="st29" d="M370.1,399.3h60.6V352h-71.4v36.5L370.1,399.3z"/>
			<path class="st27" d="M370.1,388.5h-10.8l10.8,10.7V388.5z"/>
			<g>
				<g>
					<path class="st30" d="M410.3,380.4c-0.8,3.7-4,6.5-8,6.5c-4.5,0-8.1-3.6-8.1-8.1s3.6-8.1,8.1-8.1c2.6,0-0.8,2.7,0.6,5.4
						c0.5,0.9,2.9-0.2,4.4,0.5C409.3,377.5,410.4,380.2,410.3,380.4z"/>
					<rect x="401.7" y="367.8" class="st5" width="2.3" height="9.4"/>
					
						<rect x="408.6" y="374.9" transform="matrix(0.8926 -0.4508 0.4508 0.8926 -127.0302 225.4445)" class="st5" width="2.3" height="8.9"/>
					<rect x="401.9" y="374.9" class="st5" width="7" height="2.3"/>
					<circle class="st5" cx="402.8" cy="367.3" r="3.1"/>
					
						<rect x="410.8" y="382.2" transform="matrix(1 -8.220477e-03 8.220477e-03 1 -3.1347 3.4091)" class="st5" width="4.6" height="1.6"/>
				</g>
				<g>
					<circle class="st4" cx="383.7" cy="368.2" r="3.6"/>
					<rect x="378.1" y="373.3" class="st4" width="11.8" height="11.8"/>
				</g>
			</g>
		</g>
	</g>
	<g id="Layer_25" class="st1">
	</g>
</g>
<g id="Layer_2">
	<path class="st31" d="M951.6-0.5c0,0,0,44.4,0,102.5s-55,62.7-55,62.7h-745c0,0-64,1.1-64,77.5s62.5,71.2,62.5,71.2
		s821.9,0.1,873.9,0.1"/>
	<path class="st19" d="M951.6-0.5c0,0,0,44.4,0,102.5s-55,62.7-55,62.7h-745c0,0-64,1.1-64,77.5s62.5,71.2,62.5,71.2
		s821.9,0.1,873.9,0.1"/>
	<path class="st32" d="M951.6-0.5c0,0,0,44.4,0,102.5s-55,62.7-55,62.7h-745c0,0-64,1.1-64,77.5s62.5,71.2,62.5,71.2
		s821.9,0.1,873.9,0.1"/>
	<path class="st23" d="M951.6-0.5c0,0,0,44.4,0,102.5s-55,62.7-55,62.7h-745c0,0-64,1.1-64,77.5s62.5,71.2,62.5,71.2
		s821.9,0.1,873.9,0.1"/>
</g>
</svg>
