<?xml version="1.0" encoding="utf-8"?>
<!-- Generator: Adobe Illustrator 22.1.0, SVG Export Plug-In . SVG Version: 6.00 Build 0)  -->
<svg version="1.1" xmlns="http://www.w3.org/2000/svg" xmlns:xlink="http://www.w3.org/1999/xlink" x="0px" y="0px"
	 viewBox="0 0 50 100" style="enable-background:new 0 0 50 100;" xml:space="preserve">
<style type="text/css">
	.st0{fill:#2F2E41;}
	.st1{fill:#FFB8B8;}
	.st2{opacity:0.1;enable-background:new    ;}
	.st3{fill:#D0CDE1;}
	.st4{display:none;}
	.st5{display:inline;}
	.st6{fill:#E20817;}
	.st7{fill:#CCCCCC;}
</style>
<g id="Layer_1">
	<g>
		<path class="st0" d="M31.9,22.1c-1.3-3.1-4.6-3.6-4.6-3.6s-3.2-0.8-5.8,3.2c-2.5,3.8-5.7,7.3-1.6,8.8l1.1-2.2l0.1,2.6
			c0.6,0.1,1.2,0.2,1.8,0.3c4.5,0.5,8.7,1.2,8.8-0.4C31.7,28.5,33.1,25.1,31.9,22.1z"/>
		<path class="st1" d="M18.2,46.6L17.9,54c0,0-3,5.9-0.6,5.8c2.5-0.1,2.2-5.8,2.2-5.8l0.9-6.9L18.2,46.6z"/>
		<path class="st1" d="M34.8,45.3l0.9,7.4c0,0,2.6,3.9,0.6,5.2c-2,1.3-2-4.6-2-4.6L32,45.8L34.8,45.3z"/>
		<path class="st1" d="M31.7,59.1l-2.6,10.1c0,0-1.2,4-2.7,6.1l-0.6,1.2l-2.3-0.3l1.6-6.5l1-12L31.7,59.1z"/>
		<path class="st2" d="M31.7,59.1l-2.6,10.1c0,0-1.2,4-2.7,6.1l-0.6,1.2l-2.3-0.3l1.6-6.5l1-12L31.7,59.1z"/>
		<path class="st0" d="M22.9,74.5l4,0.9l-1.6,3.8c0,0,0.7,2.3,0,3.5c-0.6,1.2-0.5,3.4-0.5,3.4l-0.9-0.1c0,0-2.1,3.9-4.5,2.8
			c-2.5-1.1,0.2-3.8,0.2-3.8s2.1-4.2,2.4-5.9S22.9,74.5,22.9,74.5z"/>
		<path class="st2" d="M22.9,74.5l4,0.9l-1.6,3.8c0,0,0.7,2.3,0,3.5c-0.6,1.2-0.5,3.4-0.5,3.4l-0.9-0.1c0,0-2.1,3.9-4.5,2.8
			c-2.5-1.1,0.2-3.8,0.2-3.8s2.1-4.2,2.4-5.9S22.9,74.5,22.9,74.5z"/>
		<path class="st1" d="M19.6,56.9l2.2,10.8c0,0-0.7,5.3,0.1,8.7l0.9,3.2h2.9V67.9c0,0,0.1-9.5-0.3-10.3C25,56.9,19.6,56.9,19.6,56.9
			z"/>
		<path class="st0" d="M26.3,78.4l-4,0.3l1,4c0,0-1,2.2-0.6,3.5c0.4,1.3,0,3.5,0,3.5h0.9c0,0,1.4,4.2,4,3.5s0.4-3.8,0.4-3.8
			s-1.4-4.5-1.4-6.2S26.3,78.4,26.3,78.4z"/>
		<circle class="st1" cx="27.3" cy="24.5" r="3.9"/>
		<image style="overflow:visible;" width="6" height="6" xlink:href="3E287205956F6F04.png"  transform="matrix(1 0 0 1 23 26)">
		</image>
		<path class="st3" d="M28.6,30.5c0,0-3.8-0.3-4.5,0c-0.7,0.3-2.7,1.7-2.7,1.7l1,9.1l8.2,1.7l1.3-1.9l1.3-2.7l-0.6-3.5l-0.1-2
			L28.6,30.5z"/>
		<path class="st3" d="M20.6,32.8c0,0-1.9,0.4-2,1.9c-0.1,1.4-0.1,5.1,0,5.6c0.1,0.6,0,0.9-0.1,1s-0.4-0.1-0.1,0.3
			c0.3,0.4,0.3,0.4,0.1,0.9s-0.6-0.1-0.3,0.6c0.3,0.7,0.4,0.9,0.3,1c-0.1,0.1-0.6,3.5-0.6,3.5l2.5,0.4l2.5-8.5L20.6,32.8z"/>
		<path class="st3" d="M31.9,32.8c0.6,0,1.1,0.4,1.3,0.9c0.4,0.9,1.6,6.5,1.4,6.9s-0.4-0.1-0.1,0.7c0.3,0.9,0,0.7,0.1,1.3
			c0.1,0.6-0.6,0,0,0.6c0.6,0.6,0.9,0.7,0.6,1c-0.3,0.3-0.7-0.3-0.3,0.3c0.4,0.6,0.4,1.4,0.4,1.4l-3.5,0.7l-1-8.1L31.9,32.8z"/>
		<path class="st0" d="M20.2,32.5l0.7-0.4c0.3-0.2,0.7,0,0.8,0.3c0,0,0,0,0,0l3.3,6.7l3.6,2.3l2.6-1.2c0,0,1.9-2.9,1.3-4.3
			c-0.4-1-0.9-2.5-1.1-3.4c0-0.1,0-0.3,0.2-0.3c0.1,0,0.2,0,0.2,0l0.5,0.3c0.2,0.1,0.3,0.3,0.3,0.5l1.1,5.2l-1.4,3v2.9l1,15.6
			c0,0-3.8-0.6-7.5-1.3s-8.5-1.3-8.5-1.3s2.5-12.7,4.5-14.9c0,0,0-1.6,0.3-1.7c0.3-0.1,0.6-1.2,0.6-1.2l-2.6-6.1
			C19.8,33,19.9,32.7,20.2,32.5z"/>
		<polygon class="st0" points="31.1,21 27.8,19.3 23.2,20 22.3,24.2 24.7,24.1 25.3,22.5 25.3,24 26.4,24 27,21.6 27.4,24.2 
			31.3,24.1 		"/>
		<ellipse class="st1" cx="23.3" cy="24.5" rx="0.4" ry="0.8"/>
	</g>
</g>
<g id="Layer_2" class="st4">
	<g class="st5">
		<path class="st1" d="M-22.4,57.3c0.1,1.3,0,2.7-0.2,4c0,0-1.6,3.5,0.2,5.1s5.1-4.7,5.1-4.7c-0.2-1.4-0.4-2.7,0-3.5L-22.4,57.3z"/>
		<path class="st1" d="M-20,100.8v4.9c0,0-0.7,9.1,0,11.3l-0.2,4.2h2.4l0.7-5.1c0,0,2-6.4,1.3-10.4l0.4-4.9H-20z"/>
		<path class="st1" d="M-23.5,100.8v4.9c0,0,0.7,9.1,0,11.3l0.2,4.2h-2.4l-0.7-5.1c0,0-2-6.4-1.3-10.4l-0.4-4.9H-23.5z"/>
		<path class="st0" d="M-29.2,82.5c0,0-1.3,8.4-0.4,13.3s0.9,6.4,0.9,6.4l5.5-0.2l1.6-9.1l1.3,9.3l6.7-1.1c0,0,0-7.1,0.2-8.7
			c0.2-1.6,0.2-10.4,0.2-10.4L-29.2,82.5z"/>
		<path class="st0" d="M-17.3,121.2c0,0-2.4-1.6-3.5,0v2.7c0,0-0.9,2,2.2,1.6c3.1-0.4,2-2,2-2L-17.3,121.2z"/>
		<path class="st0" d="M-26.2,121.2c0,0,2.4-1.6,3.5,0v2.7c0,0,0.9,2-2.2,1.6c-3.1-0.4-2-2-2-2L-26.2,121.2z"/>
		<circle class="st1" cx="-19.5" cy="56" r="3.5"/>
		<path class="st6" d="M-21.1,64.4l-1.5-3.6l-1.6,0.7l-2,11.5l0.2,11.1c0,0,10.2-0.4,11.5,0.2S-16,62.7-16,62.7l-1.3-1.7L-21.1,64.4
			z"/>
		<path class="st0" d="M-22.4,59.5c0,0-3.4,0.9-3.4,2.2c0,0-3.3,0.7-3.3,1.3s-0.2,17.5-0.2,17.5s-2,3.8-0.4,6.9l-0.2,1.8l4.4,0.4
			l3.1-27.3L-22.4,59.5z"/>
		<path class="st0" d="M-17.6,59.5c0,0,3.4,0.9,3.4,2.2c0,0,3.3,0.7,3.3,1.3s0.2,17.5,0.2,17.5s2,3.8,0.4,6.9l0.2,1.8l-4.4,0.4
			l-3.1-27.3L-17.6,59.5z"/>
		<path class="st0" d="M-16.6,51.3c0,0,0.2-0.9-0.9-0.4c0,0-1.3-1.6-2.7-0.4c0,0-2.7-0.4-2.7,1.8c0,2.2-0.1,3-0.1,3s0.8-2.1,2.3-1.8
			c0.9,0.1,1.5,0,1.8-0.1c0.3-0.1,0.6-0.1,0.9,0c0.4,0.1,0.7,0.4,0.9,0.8c0.1,0.3,0.3,0.6,0.5,0.9c0.3,0.4,0.5,0.8,0.6,1.2l0,0
			l0.4-2.6c0,0,0.2-1.3-0.4-1.8C-16,51.8-15.8,51.1-16.6,51.3z"/>
		<path class="st1" d="M-33.2,86.3c0,0-1.3,5.1,0.7,4.7s1.6-4.9,1.6-4.9L-33.2,86.3z"/>
		<path class="st1" d="M-6.8,86.3c0,0,1.3,5.1-0.7,4.7S-9,86.1-9,86.1L-6.8,86.3z"/>
		<path class="st0" d="M-28,63.1l-0.6-0.5c0,0-0.7,0-0.9,0.5c-0.2,0.4-3.8,11.5-3.8,11.5s-1.1,5.8-0.4,9.3l0.2,2.7h3.1l-0.2-4.2
			l2.2-8.4L-28,63.1z"/>
		<path class="st0" d="M-12,63.1l0.6-0.5c0,0,0.7,0,0.9,0.5s3.8,11.5,3.8,11.5s1.1,5.8,0.4,9.3l-0.2,2.7h-3.1l0.2-4.2l-2.2-8.4
			L-12,63.1z"/>
	</g>
	<g class="st5">
		<polygon class="st1" points="-61.5,122.4 -63.7,122.4 -64,113.9 -61.5,113.9 		"/>
		<path class="st0" d="M-60.9,124.5l-7.1,0v-0.1c0-1.5,1.2-2.8,2.8-2.8c0,0,0,0,0,0h0l4.3,0L-60.9,124.5z"/>
		<polygon class="st1" points="-49.1,122.4 -47,122.4 -46.6,113.9 -49.1,113.9 		"/>
		<path class="st0" d="M-49.7,121.7l4.3,0h0c1.5,0,2.8,1.2,2.8,2.8c0,0,0,0,0,0v0.1l-7.1,0L-49.7,121.7z"/>
		<path class="st0" d="M-49.1,121.3c-0.4,0-0.7-0.3-0.8-0.6L-55.3,97c0-0.1-0.1-0.2-0.3-0.2h0c-0.1,0-0.2,0.1-0.3,0.2l-5,23.5
			c-0.1,0.4-0.4,0.6-0.8,0.6H-64c-0.4,0-0.8-0.4-0.8-0.8c0,0,0,0,0,0l1.8-29.8l0.7-0.2l0,0l14,0.1l3,29.8c0,0.4-0.3,0.8-0.7,0.9
			c0,0,0,0,0,0L-49.1,121.3C-49,121.3-49.1,121.3-49.1,121.3z"/>
		<circle class="st1" cx="-54.9" cy="58.5" r="4.4"/>
		<path class="st7" d="M-57.6,93.7c-0.8,0-1.5-0.1-2.3-0.3c-1.3-0.4-2.4-1.3-3-2.6c-0.1-0.2-0.1-0.4-0.1-0.6
			c0.5-1.7,2.8-10.2,1.3-17.1c-0.4-1.9-0.1-3.9,1-5.6c1.1-1.6,2.7-2.8,4.6-3.1l0,0c0.2,0,0.5-0.1,0.7-0.1c2.1-0.3,4.2,0.4,5.8,1.9
			c1.6,1.5,2.4,3.6,2.3,5.8l-1.1,18.4c0,0.3-0.2,0.5-0.4,0.7C-50,91.8-54,93.7-57.6,93.7z"/>
		<path class="st1" d="M-61.9,90.7c0.9-0.5,1.3-1.6,0.9-2.6c-0.1-0.1-0.1-0.2-0.2-0.3l1.4-14h-3.1L-64,87.5
			c-0.8,0.7-0.9,1.9-0.2,2.7C-63.7,90.9-62.7,91.1-61.9,90.7z"/>
		<path class="st7" d="M-59.6,67.1L-59.6,67.1c1.3,0.3,2.1,1.4,2,2.7l-0.4,6.1c0,0.4-0.4,0.7-0.8,0.7c-0.1,0-0.1,0-0.2,0L-64,75
			c-0.4-0.1-0.6-0.5-0.5-0.9c0,0,0,0,0,0l2.1-5.3C-62,67.6-60.8,66.9-59.6,67.1z"/>
		<path class="st0" d="M-49.9,55.3c-0.9-2.4-3.4-3.7-5.9-3.3l1.4,1.1c-1.7,0.1-3.5-0.1-4.8,1.1c0.4,0,0.9,0.8,1.3,0.8
			c-0.7,0-1.4,0.5-1.7,1.2c-0.3,0.7-0.4,1.4-0.2,2.1c0.1,0.7,1.2,2.4,1.5,3.1c-0.1-1.7,3.4-5.9,5.1-5.5c-0.9,0.3-1.6,0.9-2.1,1.6
			c1.1-0.6,2.4-0.8,3.7-0.6c0.3,0.1,0.6,0.1,0.9,0c0.6-0.1,1-0.7,0.8-1.3c0-0.2-0.1-0.3-0.2-0.5L-49.9,55.3z"/>
		<path class="st1" d="M-55.4,82.9c0.1,0,0.2,0,0.3,0.1l6.7-5.8l-0.4-2.1l3.1-1l1.1,3.7c0.2,0.6-0.1,1.3-0.6,1.6l-8.5,5.4
			c0,1-0.8,1.9-1.8,1.9c-1,0-1.9-0.8-1.9-1.8c0-1,0.8-1.9,1.8-1.9C-55.6,82.9-55.5,82.9-55.4,82.9z"/>
		<path class="st7" d="M-49.6,67.4L-49.6,67.4c1.3-0.3,2.5,0.4,2.9,1.7l2,5.8c0.1,0.4-0.1,0.8-0.4,0.9c-0.1,0-0.1,0-0.2,0l-5.4,0.6
			c-0.4,0-0.7-0.2-0.8-0.6c0,0,0,0,0-0.1l-0.2-5.7C-51.7,68.7-50.9,67.6-49.6,67.4z"/>
	</g>
</g>
</svg>
